<?xml version="1.0" encoding="UTF-8" standalone="no"?>
<svg xmlns:xlink="http://www.w3.org/1999/xlink" height="74.15px" width="75.25px" xmlns="http://www.w3.org/2000/svg">
  <g transform="matrix(1.0, 0.0, 0.0, 1.0, 37.5, 36.0)">
    <path d="M-18.55 -36.0 L37.75 20.35 22.0 36.05 -34.35 -20.25 -18.55 -36.0" fill="#ffffff" fill-rule="evenodd" stroke="none"/>
    <path d="M37.75 -20.25 L-18.55 36.05 -34.35 20.35 22.0 -36.0 37.75 -20.25" fill="#ffffff" fill-rule="evenodd" stroke="none"/>
    <path d="M-35.55 -18.25 L-18.55 -0.05 -37.0 18.1" fill="none" stroke="#ffffff" stroke-linecap="butt" stroke-linejoin="miter-clip" stroke-miterlimit="4.0" stroke-width="1.0"/>
    <path d="M1.6 19.5 L20.05 37.65" fill="none" stroke="#ffffff" stroke-linecap="butt" stroke-linejoin="miter-clip" stroke-miterlimit="4.0" stroke-width="1.0"/>
    <path d="M-18.55 -36.0 L37.75 20.35 22.0 36.05 -34.35 -20.25 -18.55 -36.0" fill="#ffffff" fill-rule="evenodd" stroke="none"/>
    <path d="M37.75 -20.25 L-18.55 36.05 -34.35 20.35 22.0 -36.0 37.75 -20.25" fill="#ffffff" fill-rule="evenodd" stroke="none"/>
    <path d="M-35.55 -18.25 L-18.55 -0.05 -37.0 18.1" fill="none" stroke="#ffffff" stroke-linecap="butt" stroke-linejoin="miter-clip" stroke-miterlimit="4.0" stroke-width="1.0"/>
    <path d="M1.6 19.5 L20.05 37.65" fill="none" stroke="#ffffff" stroke-linecap="butt" stroke-linejoin="miter-clip" stroke-miterlimit="4.0" stroke-width="1.0"/>
  </g>
</svg>
