<?xml version="1.0" encoding="utf-8"?>
<!-- Generator: Adobe Illustrator 25.0.0, SVG Export Plug-In . SVG Version: 6.00 Build 0)  -->
<svg version="1.1" id="圖層_1" xmlns="http://www.w3.org/2000/svg" xmlns:xlink="http://www.w3.org/1999/xlink" x="0px" y="0px"
	 viewBox="0 0 732.5 733.6" style="enable-background:new 0 0 732.5 733.6;" xml:space="preserve">
<style type="text/css">
	.st0{fill-rule:evenodd;clip-rule:evenodd;fill:#990000;}
	.st1{fill-rule:evenodd;clip-rule:evenodd;fill:#FFFFFF;}
	.st2{fill-rule:evenodd;clip-rule:evenodd;fill:#C40000;}
</style>
<circle class="st0" cx="366.9" cy="366.6" r="359.1"/>
<g transform="matrix(1.0, 0.0, 0.0, 1.0, 0.0, 0.0)">
	<path class="st1" d="M372.2,365.3l325.2-39v81l-322.5-38.7l-7.5-1.8L372.2,365.3 M369.4,369.8l259.2,203.7l-57.3,57.3L370.4,375.1
		l-4.3-7L369.4,369.8 M364.9,369.9l39.6,330.3h-81l38.9-324.4l1.8-7.8L364.9,369.9 M361.3,371L157.1,630.9l-57.3-57.3l257.1-202
		l6-3.7L361.3,371 M361.1,366.8L31.6,406.4v-81l323.3,38.8l8.5,2L361.1,366.8 M359.9,362.8L101.2,159.4l57.3-57.3l200.9,255.8
		l4.2,6.8L359.9,362.8 M363.5,358.9L324.5,33.4h81l-38.9,324.1l-1.5,6.3L363.5,358.9 M367.7,362.6l204.2-259.8l57.3,57.3
		L372.7,361.6l-6.5,4L367.7,362.6"/>
	<path class="st2" d="M372.7,361.6l277-171.5l34.1,73.3L372.2,365.3l-4.8,1.5l7.5,1.8l315.8,74.3l-27.8,76L369.4,369.8l-3.3-1.6
		l4.3,7l171,276.1L468,685.4L364.9,369.9l-0.6-2l-1.8,7.8l-74.7,317.6l-76-27.8L361.3,371l1.6-3.2l-6,3.7L79.4,543.4L45.3,470
		l315.9-103.2l2.2-0.7l-8.5-2L38.6,289.8l27.8-76l293.6,149.1l3.6,1.8l-4.2-6.8l-170.9-276l73.4-34.1l101.6,311.1l1.6,5l1.5-6.3
		l74.6-317.3l76,27.8L367.7,362.6l-1.5,3L372.7,361.6"/>
</g>
</svg>
