<?xml version="1.0" encoding="UTF-8" standalone="no"?>
<svg xmlns:xlink="http://www.w3.org/1999/xlink" height="100.25px" width="290.3px" xmlns="http://www.w3.org/2000/svg">
  <g transform="matrix(1.0, 0.0, 0.0, 1.0, 76.4, 1.0)">
    <g transform="matrix(1.0, 0.0, 0.0, 1.0, -79.3, 0.0)">
      <use fill="#000000" height="100.25" transform="matrix(0.0211, 0.0, 0.0, 0.0211, 33.0, 17.0)" width="290.3" xlink:href="#font_DFPTongTong-B5__0"/>
      <use fill="#000000" height="100.25" transform="matrix(0.0211, 0.0, 0.0, 0.0211, 54.6, 17.0)" width="290.3" xlink:href="#font_DFPTongTong-B5__1"/>
      <use fill="#000000" height="100.25" transform="matrix(0.0211, 0.0, 0.0, 0.0211, 76.2, 17.0)" width="290.3" xlink:href="#font_DFPTongTong-B5__2"/>
      <use fill="#000000" height="100.25" transform="matrix(0.0211, 0.0, 0.0, 0.0211, 97.8, 17.0)" width="290.3" xlink:href="#font_DFPTongTong-B5__3"/>
      <use fill="#000000" height="100.25" transform="matrix(0.0211, 0.0, 0.0, 0.0211, 119.4, 17.0)" width="290.3" xlink:href="#font_DFPTongTong-B5__4"/>
    </g>
    <g transform="matrix(1.0, 0.0, 0.0, 1.0, -79.3, 0.0)">
      <use fill="#ef5043" height="100.25" transform="matrix(0.0211, 0.0, 0.0, 0.0211, 141.0, 17.0)" width="290.3" xlink:href="#font_DFPTongTong-B5__5"/>
      <use fill="#ef5043" height="100.25" transform="matrix(0.0211, 0.0, 0.0, 0.0211, 162.6, 17.0)" width="290.3" xlink:href="#font_DFPTongTong-B5__6"/>
      <use fill="#ef5043" height="100.25" transform="matrix(0.0211, 0.0, 0.0, 0.0211, 184.2, 17.0)" width="290.3" xlink:href="#font_DFPTongTong-B5__7"/>
      <use fill="#ef5043" height="100.25" transform="matrix(0.0211, 0.0, 0.0, 0.0211, 205.8, 17.0)" width="290.3" xlink:href="#font_DFPTongTong-B5__8"/>
      <use fill="#ef5043" height="100.25" transform="matrix(0.0211, 0.0, 0.0, 0.0211, 227.4, 17.0)" width="290.3" xlink:href="#font_DFPTongTong-B5__9"/>
    </g>
    <g transform="matrix(1.0, 0.0, 0.0, 1.0, -79.3, 0.0)">
      <use fill="#000000" height="100.25" transform="matrix(0.0211, 0.0, 0.0, 0.0211, 249.0, 17.0)" width="290.3" xlink:href="#font_DFPTongTong-B5__1"/>
    </g>
    <g transform="matrix(1.0, 0.0, 0.0, 1.0, -79.3, 0.0)">
      <use fill="#000000" height="100.25" transform="matrix(0.0211, 0.0, 0.0, 0.0211, 43.0, 43.0)" width="290.3" xlink:href="#font_DFPTongTong-B5__10"/>
      <use fill="#000000" height="100.25" transform="matrix(0.0211, 0.0, 0.0, 0.0211, 64.6, 43.0)" width="290.3" xlink:href="#font_DFPTongTong-B5__11"/>
      <use fill="#000000" height="100.25" transform="matrix(0.0211, 0.0, 0.0, 0.0211, 86.2, 43.0)" width="290.3" xlink:href="#font_DFPTongTong-B5__12"/>
      <use fill="#000000" height="100.25" transform="matrix(0.0211, 0.0, 0.0, 0.0211, 107.8, 43.0)" width="290.3" xlink:href="#font_DFPTongTong-B5__2"/>
      <use fill="#000000" height="100.25" transform="matrix(0.0211, 0.0, 0.0, 0.0211, 129.4, 43.0)" width="290.3" xlink:href="#font_DFPTongTong-B5__13"/>
      <use fill="#000000" height="100.25" transform="matrix(0.0211, 0.0, 0.0, 0.0211, 151.0, 43.0)" width="290.3" xlink:href="#font_DFPTongTong-B5__14"/>
      <use fill="#000000" height="100.25" transform="matrix(0.0211, 0.0, 0.0, 0.0211, 172.6, 43.0)" width="290.3" xlink:href="#font_DFPTongTong-B5__6"/>
      <use fill="#000000" height="100.25" transform="matrix(0.0211, 0.0, 0.0, 0.0211, 194.2, 43.0)" width="290.3" xlink:href="#font_DFPTongTong-B5__15"/>
      <use fill="#000000" height="100.25" transform="matrix(0.0211, 0.0, 0.0, 0.0211, 215.8, 43.0)" width="290.3" xlink:href="#font_DFPTongTong-B5__16"/>
      <use fill="#000000" height="100.25" transform="matrix(0.0211, 0.0, 0.0, 0.0211, 237.4, 43.0)" width="290.3" xlink:href="#font_DFPTongTong-B5__17"/>
    </g>
    <g transform="matrix(1.0, 0.0, 0.0, 1.0, -79.3, 0.0)">
      <use fill="#000000" height="100.25" transform="matrix(0.0211, 0.0, 0.0, 0.0211, 43.0, 69.0)" width="290.3" xlink:href="#font_DFPTongTong-B5__18"/>
      <use fill="#000000" height="100.25" transform="matrix(0.0211, 0.0, 0.0, 0.0211, 64.6, 69.0)" width="290.3" xlink:href="#font_DFPTongTong-B5__19"/>
      <use fill="#000000" height="100.25" transform="matrix(0.0211, 0.0, 0.0, 0.0211, 86.2, 69.0)" width="290.3" xlink:href="#font_DFPTongTong-B5__11"/>
      <use fill="#000000" height="100.25" transform="matrix(0.0211, 0.0, 0.0, 0.0211, 107.8, 69.0)" width="290.3" xlink:href="#font_DFPTongTong-B5__20"/>
      <use fill="#000000" height="100.25" transform="matrix(0.0211, 0.0, 0.0, 0.0211, 129.4, 69.0)" width="290.3" xlink:href="#font_DFPTongTong-B5__21"/>
      <use fill="#000000" height="100.25" transform="matrix(0.0211, 0.0, 0.0, 0.0211, 151.0, 69.0)" width="290.3" xlink:href="#font_DFPTongTong-B5__22"/>
      <use fill="#000000" height="100.25" transform="matrix(0.0211, 0.0, 0.0, 0.0211, 172.6, 69.0)" width="290.3" xlink:href="#font_DFPTongTong-B5__13"/>
      <use fill="#000000" height="100.25" transform="matrix(0.0211, 0.0, 0.0, 0.0211, 194.2, 69.0)" width="290.3" xlink:href="#font_DFPTongTong-B5__23"/>
      <use fill="#000000" height="100.25" transform="matrix(0.0211, 0.0, 0.0, 0.0211, 215.8, 69.0)" width="290.3" xlink:href="#font_DFPTongTong-B5__15"/>
      <use fill="#000000" height="100.25" transform="matrix(0.0211, 0.0, 0.0, 0.0211, 237.4, 69.0)" width="290.3" xlink:href="#font_DFPTongTong-B5__16"/>
    </g>
    <g transform="matrix(1.0, 0.0, 0.0, 1.0, -79.3, 0.0)">
      <use fill="#000000" height="100.25" transform="matrix(0.0211, 0.0, 0.0, 0.0211, 0.0, 95.0)" width="290.3" xlink:href="#font_DFPTongTong-B5__24"/>
      <use fill="#000000" height="100.25" transform="matrix(0.0211, 0.0, 0.0, 0.0211, 21.6, 95.0)" width="290.3" xlink:href="#font_DFPTongTong-B5__25"/>
      <use fill="#000000" height="100.25" transform="matrix(0.0211, 0.0, 0.0, 0.0211, 43.2, 95.0)" width="290.3" xlink:href="#font_DFPTongTong-B5__2"/>
      <use fill="#000000" height="100.25" transform="matrix(0.0211, 0.0, 0.0, 0.0211, 64.8, 95.0)" width="290.3" xlink:href="#font_DFPTongTong-B5__26"/>
      <use fill="#000000" height="100.25" transform="matrix(0.0211, 0.0, 0.0, 0.0211, 86.4, 95.0)" width="290.3" xlink:href="#font_DFPTongTong-B5__27"/>
      <use fill="#000000" height="100.25" transform="matrix(0.0211, 0.0, 0.0, 0.0211, 108.0, 95.0)" width="290.3" xlink:href="#font_DFPTongTong-B5__28"/>
      <use fill="#000000" height="100.25" transform="matrix(0.0211, 0.0, 0.0, 0.0211, 129.6, 95.0)" width="290.3" xlink:href="#font_DFPTongTong-B5__19"/>
      <use fill="#000000" height="100.25" transform="matrix(0.0211, 0.0, 0.0, 0.0211, 151.2, 95.0)" width="290.3" xlink:href="#font_DFPTongTong-B5__13"/>
      <use fill="#000000" height="100.25" transform="matrix(0.0211, 0.0, 0.0, 0.0211, 172.8, 95.0)" width="290.3" xlink:href="#font_DFPTongTong-B5__29"/>
      <use fill="#000000" height="100.25" transform="matrix(0.0211, 0.0, 0.0, 0.0211, 194.4, 95.0)" width="290.3" xlink:href="#font_DFPTongTong-B5__30"/>
      <use fill="#000000" height="100.25" transform="matrix(0.0211, 0.0, 0.0, 0.0211, 216.0, 95.0)" width="290.3" xlink:href="#font_DFPTongTong-B5__31"/>
      <use fill="#000000" height="100.25" transform="matrix(0.0211, 0.0, 0.0, 0.0211, 237.6, 95.0)" width="290.3" xlink:href="#font_DFPTongTong-B5__9"/>
      <use fill="#000000" height="100.25" transform="matrix(0.0211, 0.0, 0.0, 0.0211, 259.2, 95.0)" width="290.3" xlink:href="#font_DFPTongTong-B5__1"/>
      <use fill="#000000" height="100.25" transform="matrix(0.0211, 0.0, 0.0, 0.0211, 280.8, 95.0)" width="290.3" xlink:href="#font_DFPTongTong-B5__1"/>
    </g>
  </g>
  <defs>
    <g id="font_DFPTongTong-B5__0">
      <path d="M155.0 -352.0 L155.0 -352.0 Q151.0 -360.0 146.0 -368.0 136.0 -389.0 132.0 -389.0 129.0 -389.0 129.0 -377.0 129.0 -345.0 130.0 -320.0 134.0 -289.0 142.0 -245.0 151.0 -209.0 159.0 -192.0 171.0 -176.0 176.0 -176.0 180.0 -176.0 184.0 -184.0 187.0 -188.0 189.0 -200.0 194.0 -196.0 198.0 -196.0 228.0 -192.0 256.0 -192.0 303.0 -192.0 305.0 -209.0 305.0 -217.0 289.0 -220.0 289.0 -220.0 290.0 -220.0 298.0 -228.0 298.0 -245.0 298.0 -276.0 294.0 -320.0 282.0 -356.0 229.0 -360.0 206.0 -360.0 176.0 -356.0 163.0 -352.0 155.0 -352.0 L155.0 -352.0 M188.0 -220.0 L188.0 -220.0 Q186.0 -232.0 182.0 -253.0 174.0 -284.0 163.0 -328.0 162.0 -333.0 161.0 -333.0 168.0 -333.0 178.0 -333.0 L225.0 -328.0 Q250.0 -324.0 252.0 -308.0 256.0 -272.0 258.0 -224.0 258.0 -224.0 258.0 -220.0 236.0 -224.0 208.0 -224.0 197.0 -220.0 188.0 -220.0 L188.0 -220.0 M631.0 -64.0 L631.0 -64.0 Q643.0 -64.0 656.0 -60.0 698.0 -60.0 719.0 -64.0 740.0 -68.0 740.0 -72.0 740.0 -81.0 695.0 -92.0 665.0 -100.0 629.0 -100.0 627.0 -132.0 624.0 -165.0 617.0 -188.0 611.0 -188.0 605.0 -188.0 600.0 -161.0 597.0 -140.0 594.0 -104.0 579.0 -104.0 563.0 -104.0 543.0 -104.0 503.0 -100.0 482.0 -96.0 482.0 -92.0 482.0 -85.0 538.0 -72.0 560.0 -68.0 592.0 -64.0 592.0 11.0 601.0 43.0 573.0 43.0 549.0 43.0 513.0 43.0 476.0 47.0 451.0 51.0 451.0 56.0 451.0 64.0 493.0 72.0 542.0 80.0 591.0 84.0 688.0 84.0 733.0 76.0 782.0 68.0 782.0 56.0 782.0 47.0 724.0 43.0 673.0 43.0 627.0 43.0 630.0 28.0 632.0 11.0 632.0 -16.0 631.0 -64.0 L631.0 -64.0 M746.0 -545.0 L746.0 -545.0 Q756.0 -545.0 766.0 -540.0 815.0 -540.0 839.0 -545.0 863.0 -549.0 863.0 -553.0 863.0 -561.0 811.0 -572.0 780.0 -576.0 745.0 -580.0 745.0 -589.0 745.0 -601.0 743.0 -637.0 739.0 -677.0 733.0 -704.0 728.0 -704.0 722.0 -704.0 716.0 -673.0 712.0 -641.0 709.0 -584.0 684.0 -584.0 658.0 -584.0 636.0 -584.0 589.0 -580.0 565.0 -576.0 565.0 -572.0 565.0 -564.0 629.0 -553.0 660.0 -549.0 708.0 -545.0 709.0 -461.0 718.0 -433.0 687.0 -436.0 653.0 -436.0 627.0 -436.0 572.0 -433.0 546.0 -429.0 546.0 -425.0 546.0 -417.0 620.0 -404.0 678.0 -392.0 778.0 -392.0 836.0 -392.0 862.0 -396.0 892.0 -396.0 892.0 -404.0 892.0 -412.0 830.0 -421.0 790.0 -429.0 741.0 -433.0 744.0 -444.0 748.0 -469.0 748.0 -496.0 746.0 -545.0 L746.0 -545.0" fill-rule="evenodd" stroke="none"/>
    </g>
    <g id="font_DFPTongTong-B5__1">
      <path d="M572.0 90.0 L572.0 90.0 Q572.0 64.0 535.0 49.0 502.0 36.0 457.0 36.0 440.0 36.0 440.0 41.0 440.0 53.0 474.0 79.0 512.0 107.0 543.0 107.0 572.0 107.0 572.0 90.0 M583.0 -576.0 L583.0 -576.0 Q583.0 -587.0 577.0 -614.0 570.0 -642.0 564.0 -642.0 552.0 -642.0 525.0 -476.0 496.0 -303.0 496.0 -207.0 496.0 -121.0 504.0 -121.0 520.0 -121.0 552.0 -313.0 583.0 -497.0 583.0 -576.0" fill-rule="evenodd" stroke="none"/>
    </g>
    <g id="font_DFPTongTong-B5__2">
      <path d="M663.0 -444.0 L663.0 -444.0 Q656.0 -440.0 656.0 -412.0 658.0 -337.0 665.0 -260.0 665.0 -220.0 650.0 -217.0 645.0 -213.0 645.0 -209.0 645.0 -205.0 658.0 -200.0 669.0 -196.0 681.0 -196.0 700.0 -196.0 700.0 -257.0 700.0 -364.0 681.0 -417.0 671.0 -444.0 663.0 -444.0 L663.0 -444.0 M547.0 -333.0 L547.0 -333.0 Q545.0 -333.0 534.0 -324.0 517.0 -312.0 503.0 -304.0 492.0 -293.0 485.0 -289.0 480.0 -280.0 478.0 -276.0 478.0 -257.0 494.0 -257.0 512.0 -264.0 535.0 -284.0 557.0 -304.0 557.0 -320.0 557.0 -333.0 547.0 -333.0 L547.0 -333.0 M779.0 -333.0 L779.0 -333.0 Q767.0 -333.0 767.0 -324.0 768.0 -320.0 779.0 -308.0 786.0 -304.0 793.0 -301.0 810.0 -289.0 825.0 -289.0 859.0 -289.0 859.0 -304.0 859.0 -312.0 825.0 -324.0 795.0 -333.0 779.0 -333.0 L779.0 -333.0 M542.0 -681.0 L542.0 -681.0 Q571.0 -668.0 643.0 -656.0 763.0 -633.0 814.0 -620.0 871.0 -608.0 871.0 -589.0 871.0 -576.0 864.0 -557.0 864.0 -549.0 872.0 -549.0 889.0 -549.0 901.0 -564.0 914.0 -589.0 914.0 -601.0 914.0 -629.0 845.0 -648.0 803.0 -660.0 691.0 -677.0 593.0 -689.0 549.0 -692.0 570.0 -736.0 575.0 -769.0 575.0 -773.0 571.0 -773.0 567.0 -773.0 562.0 -765.0 535.0 -733.0 492.0 -668.0 461.0 -616.0 441.0 -564.0 441.0 -553.0 446.0 -553.0 453.0 -553.0 458.0 -557.0 502.0 -605.0 527.0 -656.0 536.0 -668.0 542.0 -681.0 L542.0 -681.0 M179.0 -536.0 L179.0 -536.0 Q198.0 -540.0 215.0 -549.0 297.0 -572.0 323.0 -597.0 329.0 -597.0 331.0 -605.0 331.0 -612.0 310.0 -612.0 253.0 -601.0 193.0 -580.0 151.0 -564.0 109.0 -545.0 81.0 -528.0 81.0 -524.0 83.0 -520.0 92.0 -520.0 129.0 -524.0 160.0 -532.0 168.0 -444.0 188.0 -377.0 206.0 -328.0 218.0 -308.0 224.0 -301.0 229.0 -301.0 236.0 -304.0 236.0 -312.0 231.0 -356.0 218.0 -417.0 208.0 -469.0 185.0 -524.0 182.0 -532.0 179.0 -536.0 L179.0 -536.0 M828.0 -60.0 L828.0 -60.0 Q822.0 -60.0 822.0 -52.0 839.0 -28.0 857.0 -4.0 874.0 24.0 885.0 24.0 903.0 20.0 905.0 3.0 905.0 -20.0 883.0 -41.0 855.0 -56.0 828.0 -60.0 L828.0 -60.0 M624.0 -117.0 L624.0 -117.0 Q615.0 -117.0 615.0 -112.0 631.0 -92.0 660.0 -64.0 690.0 -33.0 698.0 -33.0 723.0 -33.0 723.0 -56.0 723.0 -68.0 687.0 -92.0 653.0 -112.0 624.0 -117.0 L624.0 -117.0 M351.0 -77.0 L351.0 -77.0 Q308.0 -52.0 272.0 -16.0 258.0 -4.0 245.0 16.0 237.0 32.0 237.0 40.0 240.0 60.0 247.0 60.0 255.0 60.0 265.0 51.0 284.0 36.0 307.0 3.0 343.0 -45.0 356.0 -68.0 356.0 -77.0 351.0 -77.0 L351.0 -77.0 M503.0 -41.0 L503.0 -41.0 Q495.0 -41.0 495.0 -37.0 517.0 36.0 552.0 68.0 581.0 95.0 614.0 116.0 650.0 131.0 672.0 131.0 688.0 131.0 697.0 124.0 708.0 116.0 708.0 108.0 708.0 100.0 700.0 80.0 695.0 68.0 692.0 68.0 684.0 91.0 672.0 91.0 656.0 91.0 634.0 80.0 609.0 64.0 585.0 43.0 531.0 3.0 503.0 -41.0 L503.0 -41.0" fill-rule="evenodd" stroke="none"/>
    </g>
    <g id="font_DFPTongTong-B5__3">
      <path d="M506.0 -297.0 L506.0 -297.0 Q504.0 -337.0 501.0 -368.0 501.0 -368.0 500.0 -368.0 506.0 -368.0 514.0 -364.0 544.0 -352.0 592.0 -348.0 632.0 -341.0 636.0 -320.0 L636.0 -297.0 Q566.0 -297.0 516.0 -297.0 511.0 -297.0 506.0 -297.0 L506.0 -297.0 M518.0 -136.0 L518.0 -136.0 Q516.0 -169.0 513.0 -205.0 516.0 -205.0 519.0 -200.0 548.0 -192.0 570.0 -192.0 603.0 -192.0 618.0 -200.0 635.0 -209.0 635.0 -217.0 635.0 -220.0 626.0 -220.0 562.0 -220.0 518.0 -220.0 515.0 -220.0 512.0 -220.0 510.0 -253.0 508.0 -280.0 512.0 -280.0 517.0 -276.0 552.0 -268.0 580.0 -268.0 617.0 -268.0 637.0 -276.0 L640.0 -136.0 Q634.0 -136.0 627.0 -140.0 606.0 -140.0 583.0 -140.0 558.0 -140.0 532.0 -140.0 524.0 -140.0 518.0 -136.0 L518.0 -136.0 M641.0 -56.0 L641.0 -56.0 Q583.0 -60.0 524.0 -60.0 522.0 -85.0 519.0 -121.0 521.0 -121.0 524.0 -121.0 553.0 -112.0 589.0 -108.0 623.0 -108.0 640.0 -117.0 L641.0 -56.0 Q641.0 -56.0 641.0 -56.0 L641.0 -56.0 M604.0 -20.0 L604.0 -20.0 Q847.0 -20.0 849.0 -33.0 849.0 -45.0 814.0 -48.0 779.0 -52.0 710.0 -56.0 688.0 -56.0 668.0 -56.0 672.0 -68.0 674.0 -85.0 679.0 -184.0 679.0 -328.0 679.0 -377.0 606.0 -385.0 557.0 -389.0 514.0 -389.0 503.0 -389.0 497.0 -385.0 490.0 -408.0 478.0 -408.0 469.0 -408.0 469.0 -324.0 469.0 -245.0 476.0 -173.0 483.0 -104.0 495.0 -60.0 420.0 -60.0 345.0 -64.0 228.0 -64.0 228.0 -52.0 228.0 -37.0 357.0 -28.0 430.0 -20.0 539.0 -20.0 562.0 -20.0 583.0 -20.0 563.0 28.0 547.0 64.0 529.0 104.0 519.0 135.0 519.0 139.0 524.0 144.0 531.0 144.0 536.0 139.0 554.0 131.0 579.0 80.0 592.0 51.0 599.0 28.0 611.0 43.0 640.0 64.0 672.0 87.0 698.0 87.0 713.0 84.0 713.0 68.0 713.0 64.0 693.0 51.0 665.0 36.0 638.0 24.0 614.0 11.0 603.0 7.0 604.0 3.0 604.0 -1.0 604.0 -12.0 604.0 -20.0 L604.0 -20.0 M544.0 -641.0 L544.0 -641.0 Q817.0 -641.0 818.0 -656.0 818.0 -668.0 780.0 -673.0 742.0 -677.0 667.0 -681.0 608.0 -681.0 549.0 -685.0 553.0 -712.0 553.0 -733.0 553.0 -761.0 547.0 -761.0 543.0 -761.0 539.0 -752.0 527.0 -725.0 515.0 -685.0 419.0 -685.0 324.0 -689.0 196.0 -689.0 196.0 -673.0 196.0 -660.0 326.0 -648.0 396.0 -641.0 503.0 -641.0 490.0 -597.0 479.0 -545.0 479.0 -513.0 489.0 -509.0 502.0 -509.0 510.0 -524.0 534.0 -572.0 541.0 -624.0 542.0 -633.0 544.0 -641.0 L544.0 -641.0" fill-rule="evenodd" stroke="none"/>
    </g>
    <g id="font_DFPTongTong-B5__4">
      <path d="M401.0 36.0 L401.0 36.0 Q403.0 24.0 404.0 16.0 418.0 -41.0 418.0 -81.0 418.0 -108.0 412.0 -108.0 408.0 -108.0 403.0 -100.0 387.0 -60.0 368.0 -4.0 353.0 36.0 342.0 87.0 342.0 120.0 351.0 124.0 364.0 120.0 372.0 108.0 389.0 76.0 398.0 43.0 430.0 76.0 472.0 95.0 515.0 112.0 558.0 112.0 611.0 112.0 611.0 100.0 611.0 95.0 566.0 84.0 527.0 72.0 498.0 64.0 467.0 56.0 441.0 47.0 413.0 40.0 401.0 36.0 L401.0 36.0 M522.0 -580.0 L522.0 -580.0 Q516.0 -584.0 490.0 -589.0 472.0 -589.0 452.0 -589.0 429.0 -589.0 407.0 -589.0 387.0 -589.0 378.0 -584.0 372.0 -629.0 365.0 -673.0 356.0 -717.0 350.0 -717.0 346.0 -717.0 344.0 -700.0 343.0 -637.0 343.0 -580.0 344.0 -513.0 356.0 -469.0 369.0 -436.0 385.0 -433.0 392.0 -433.0 392.0 -452.0 392.0 -456.0 392.0 -461.0 398.0 -461.0 407.0 -456.0 432.0 -452.0 473.0 -452.0 507.0 -452.0 537.0 -461.0 559.0 -465.0 559.0 -469.0 559.0 -473.0 551.0 -476.0 546.0 -476.0 534.0 -480.0 537.0 -484.0 540.0 -492.0 561.0 -553.0 568.0 -637.0 568.0 -689.0 493.0 -704.0 428.0 -712.0 390.0 -712.0 375.0 -708.0 375.0 -704.0 375.0 -700.0 392.0 -689.0 443.0 -673.0 503.0 -664.0 526.0 -660.0 526.0 -641.0 526.0 -612.0 522.0 -580.0 L522.0 -580.0 M380.0 -572.0 L380.0 -572.0 Q387.0 -572.0 398.0 -568.0 425.0 -561.0 457.0 -561.0 493.0 -561.0 508.0 -564.0 517.0 -568.0 522.0 -572.0 517.0 -536.0 508.0 -492.0 508.0 -484.0 508.0 -480.0 487.0 -484.0 466.0 -484.0 452.0 -484.0 418.0 -480.0 400.0 -476.0 392.0 -473.0 390.0 -513.0 383.0 -557.0 381.0 -564.0 380.0 -572.0 L380.0 -572.0 M564.0 -276.0 L564.0 -276.0 Q887.0 -276.0 889.0 -289.0 889.0 -301.0 851.0 -304.0 813.0 -312.0 736.0 -312.0 466.0 -316.0 199.0 -320.0 71.0 -320.0 71.0 -308.0 71.0 -293.0 242.0 -284.0 337.0 -272.0 480.0 -272.0 512.0 -272.0 542.0 -276.0 541.0 -272.0 541.0 -268.0 537.0 -232.0 532.0 -165.0 532.0 -48.0 545.0 -16.0 551.0 -1.0 555.0 -1.0 566.0 -1.0 572.0 -56.0 572.0 -81.0 572.0 -112.0 573.0 -112.0 575.0 -108.0 599.0 -104.0 629.0 -100.0 660.0 -100.0 675.0 -108.0 690.0 -117.0 690.0 -121.0 690.0 -129.0 659.0 -132.0 642.0 -132.0 624.0 -132.0 603.0 -132.0 583.0 -132.0 577.0 -132.0 571.0 -132.0 571.0 -161.0 570.0 -192.0 568.0 -232.0 564.0 -272.0 564.0 -272.0 564.0 -276.0 L564.0 -276.0" fill-rule="evenodd" stroke="none"/>
    </g>
    <g id="font_DFPTongTong-B5__5">
      <path d="M317.0 56.0 L317.0 56.0 Q310.0 56.0 302.0 56.0 284.0 56.0 264.0 56.0 258.0 56.0 253.0 56.0 251.0 51.0 248.0 40.0 240.0 16.0 229.0 -12.0 227.0 -16.0 226.0 -20.0 232.0 -20.0 242.0 -20.0 L286.0 -16.0 Q308.0 -16.0 310.0 -4.0 314.0 20.0 316.0 51.0 316.0 51.0 317.0 56.0 L317.0 56.0 M254.0 76.0 L254.0 76.0 Q255.0 76.0 257.0 76.0 280.0 84.0 307.0 84.0 338.0 84.0 351.0 80.0 366.0 72.0 366.0 68.0 366.0 60.0 346.0 60.0 346.0 56.0 347.0 56.0 354.0 47.0 354.0 32.0 354.0 11.0 350.0 -16.0 339.0 -45.0 290.0 -48.0 267.0 -48.0 240.0 -45.0 225.0 -41.0 218.0 -37.0 216.0 -41.0 215.0 -41.0 206.0 -56.0 202.0 -56.0 198.0 -56.0 198.0 -45.0 198.0 -24.0 200.0 -8.0 204.0 16.0 211.0 43.0 218.0 68.0 225.0 80.0 237.0 95.0 242.0 95.0 246.0 95.0 249.0 87.0 252.0 84.0 254.0 76.0 L254.0 76.0 M197.0 -268.0 L197.0 -268.0 Q162.0 -264.0 162.0 -257.0 164.0 -245.0 188.0 -236.0 215.0 -232.0 238.0 -232.0 279.0 -232.0 281.0 -249.0 281.0 -260.0 261.0 -264.0 232.0 -268.0 197.0 -268.0 L197.0 -268.0 M177.0 -373.0 L177.0 -373.0 Q143.0 -368.0 143.0 -360.0 145.0 -348.0 169.0 -341.0 194.0 -337.0 215.0 -337.0 254.0 -337.0 256.0 -352.0 256.0 -360.0 236.0 -364.0 210.0 -373.0 177.0 -373.0 L177.0 -373.0 M179.0 -545.0 L179.0 -545.0 Q133.0 -545.0 103.0 -545.0 79.0 -545.0 79.0 -540.0 79.0 -524.0 197.0 -509.0 266.0 -492.0 359.0 -488.0 395.0 -488.0 427.0 -492.0 449.0 -492.0 450.0 -496.0 449.0 -505.0 420.0 -513.0 381.0 -517.0 333.0 -528.0 291.0 -536.0 179.0 -545.0 L179.0 -545.0 M260.0 -692.0 L260.0 -692.0 Q217.0 -692.0 217.0 -685.0 217.0 -677.0 266.0 -660.0 299.0 -648.0 331.0 -648.0 362.0 -652.0 362.0 -656.0 362.0 -664.0 354.0 -668.0 342.0 -677.0 323.0 -685.0 282.0 -692.0 260.0 -692.0 L260.0 -692.0 M630.0 84.0 L630.0 84.0 Q627.0 95.0 624.0 112.0 615.0 135.0 615.0 139.0 615.0 144.0 622.0 144.0 637.0 135.0 649.0 116.0 654.0 108.0 658.0 100.0 692.0 116.0 719.0 116.0 744.0 116.0 744.0 104.0 744.0 91.0 701.0 76.0 688.0 72.0 674.0 68.0 675.0 64.0 677.0 60.0 686.0 36.0 692.0 11.0 699.0 -20.0 699.0 -41.0 699.0 -64.0 657.0 -68.0 640.0 -72.0 604.0 -72.0 559.0 -68.0 559.0 -60.0 559.0 -52.0 585.0 -48.0 627.0 -45.0 641.0 -41.0 651.0 -37.0 651.0 -28.0 651.0 3.0 640.0 47.0 640.0 51.0 639.0 51.0 593.0 36.0 579.0 32.0 570.0 32.0 570.0 36.0 572.0 43.0 593.0 60.0 611.0 76.0 630.0 84.0 L630.0 84.0 M784.0 -228.0 L784.0 -228.0 Q767.0 -224.0 764.0 -224.0 710.0 -224.0 710.0 -213.0 710.0 -209.0 739.0 -200.0 759.0 -192.0 795.0 -192.0 843.0 -192.0 862.0 -205.0 886.0 -217.0 886.0 -228.0 884.0 -232.0 878.0 -232.0 830.0 -228.0 805.0 -228.0 810.0 -245.0 812.0 -260.0 811.0 -268.0 811.0 -276.0 829.0 -276.0 839.0 -284.0 861.0 -293.0 861.0 -301.0 859.0 -304.0 830.0 -308.0 820.0 -308.0 810.0 -308.0 809.0 -328.0 807.0 -356.0 837.0 -356.0 850.0 -364.0 871.0 -373.0 871.0 -381.0 869.0 -385.0 842.0 -389.0 821.0 -389.0 801.0 -389.0 797.0 -404.0 792.0 -417.0 785.0 -433.0 778.0 -433.0 775.0 -433.0 774.0 -421.0 770.0 -400.0 770.0 -389.0 770.0 -389.0 770.0 -389.0 741.0 -389.0 712.0 -385.0 691.0 -385.0 691.0 -381.0 691.0 -364.0 745.0 -356.0 758.0 -356.0 771.0 -356.0 771.0 -345.0 772.0 -333.0 773.0 -320.0 773.0 -308.0 755.0 -304.0 736.0 -304.0 717.0 -304.0 717.0 -301.0 717.0 -284.0 771.0 -276.0 773.0 -276.0 775.0 -276.0 776.0 -268.0 777.0 -260.0 780.0 -240.0 784.0 -228.0 L784.0 -228.0 M760.0 -488.0 L760.0 -488.0 Q753.0 -488.0 745.0 -488.0 729.0 -488.0 695.0 -484.0 678.0 -480.0 678.0 -476.0 678.0 -473.0 724.0 -461.0 762.0 -452.0 825.0 -452.0 861.0 -452.0 878.0 -452.0 897.0 -456.0 897.0 -461.0 897.0 -469.0 858.0 -476.0 829.0 -480.0 795.0 -484.0 795.0 -509.0 777.0 -528.0 754.0 -549.0 732.0 -553.0 728.0 -553.0 728.0 -545.0 740.0 -520.0 756.0 -492.0 758.0 -488.0 760.0 -488.0 L760.0 -488.0 M498.0 -404.0 L498.0 -404.0 Q541.0 -440.0 580.0 -480.0 583.0 -484.0 583.0 -488.0 580.0 -496.0 571.0 -496.0 522.0 -469.0 463.0 -417.0 414.0 -368.0 393.0 -333.0 393.0 -324.0 399.0 -324.0 404.0 -324.0 413.0 -333.0 435.0 -345.0 485.0 -392.0 484.0 -389.0 485.0 -385.0 489.0 -312.0 503.0 -264.0 523.0 -196.0 541.0 -196.0 546.0 -205.0 546.0 -224.0 546.0 -264.0 513.0 -364.0 505.0 -392.0 498.0 -404.0 L498.0 -404.0 M554.0 -656.0 L554.0 -656.0 Q446.0 -656.0 446.0 -645.0 446.0 -633.0 553.0 -620.0 557.0 -620.0 561.0 -620.0 568.0 -597.0 578.0 -576.0 586.0 -564.0 594.0 -564.0 598.0 -564.0 602.0 -572.0 605.0 -576.0 607.0 -589.0 607.0 -601.0 605.0 -616.0 648.0 -612.0 702.0 -612.0 767.0 -612.0 815.0 -612.0 812.0 -601.0 811.0 -589.0 811.0 -549.0 819.0 -545.0 826.0 -545.0 836.0 -557.0 846.0 -568.0 850.0 -580.0 853.0 -597.0 856.0 -612.0 957.0 -616.0 958.0 -629.0 958.0 -641.0 923.0 -645.0 899.0 -645.0 860.0 -648.0 861.0 -656.0 862.0 -660.0 862.0 -685.0 853.0 -708.0 846.0 -725.0 841.0 -725.0 836.0 -725.0 825.0 -673.0 822.0 -660.0 820.0 -648.0 817.0 -648.0 813.0 -648.0 702.0 -652.0 594.0 -656.0 582.0 -689.0 560.0 -717.0 556.0 -725.0 552.0 -725.0 548.0 -725.0 548.0 -712.0 550.0 -681.0 554.0 -656.0 L554.0 -656.0" fill-rule="evenodd" stroke="none"/>
    </g>
    <g id="font_DFPTongTong-B5__6">
      <path d="M335.0 -284.0 L335.0 -284.0 Q337.0 -293.0 337.0 -301.0 337.0 -337.0 323.0 -404.0 315.0 -440.0 303.0 -469.0 295.0 -480.0 291.0 -480.0 287.0 -480.0 287.0 -465.0 289.0 -385.0 291.0 -345.0 293.0 -308.0 303.0 -289.0 304.0 -289.0 305.0 -284.0 291.0 -284.0 275.0 -284.0 147.0 -284.0 147.0 -272.0 147.0 -257.0 298.0 -249.0 382.0 -236.0 508.0 -236.0 604.0 -236.0 676.0 -240.0 677.0 -217.0 679.0 -192.0 679.0 -176.0 680.0 -165.0 633.0 -144.0 501.0 -64.0 395.0 -1.0 366.0 36.0 364.0 47.0 364.0 56.0 373.0 56.0 376.0 56.0 474.0 -1.0 555.0 -48.0 640.0 -100.0 681.0 -144.0 688.0 -41.0 688.0 3.0 688.0 68.0 666.0 76.0 662.0 80.0 662.0 84.0 670.0 95.0 694.0 95.0 728.0 87.0 728.0 20.0 728.0 -100.0 714.0 -236.0 714.0 -236.0 714.0 -240.0 864.0 -245.0 865.0 -253.0 865.0 -264.0 827.0 -268.0 790.0 -276.0 714.0 -276.0 713.0 -280.0 712.0 -280.0 707.0 -373.0 697.0 -440.0 675.0 -528.0 662.0 -528.0 657.0 -528.0 657.0 -513.0 657.0 -469.0 666.0 -404.0 668.0 -364.0 673.0 -280.0 503.0 -280.0 335.0 -284.0 L335.0 -284.0 M422.0 -645.0 L422.0 -645.0 Q382.0 -645.0 301.0 -641.0 260.0 -637.0 260.0 -633.0 260.0 -624.0 371.0 -608.0 459.0 -601.0 609.0 -597.0 693.0 -597.0 733.0 -601.0 777.0 -605.0 777.0 -608.0 777.0 -616.0 686.0 -629.0 572.0 -641.0 422.0 -645.0 L422.0 -645.0" fill-rule="evenodd" stroke="none"/>
    </g>
    <g id="font_DFPTongTong-B5__7">
      <path d="M740.0 -352.0 L740.0 -352.0 Q737.0 -352.0 733.0 -352.0 705.0 -356.0 683.0 -356.0 658.0 -356.0 638.0 -352.0 636.0 -360.0 635.0 -373.0 629.0 -412.0 616.0 -444.0 608.0 -456.0 604.0 -456.0 601.0 -456.0 601.0 -436.0 603.0 -352.0 604.0 -308.0 606.0 -268.0 616.0 -249.0 627.0 -228.0 635.0 -228.0 641.0 -228.0 645.0 -236.0 646.0 -245.0 647.0 -249.0 648.0 -249.0 649.0 -249.0 669.0 -245.0 688.0 -240.0 708.0 -236.0 729.0 -236.0 744.0 -236.0 762.0 -245.0 773.0 -249.0 773.0 -253.0 773.0 -257.0 761.0 -260.0 765.0 -268.0 769.0 -276.0 781.0 -320.0 784.0 -385.0 784.0 -436.0 723.0 -452.0 672.0 -456.0 641.0 -456.0 627.0 -456.0 627.0 -452.0 627.0 -448.0 643.0 -436.0 680.0 -425.0 724.0 -417.0 741.0 -412.0 741.0 -396.0 741.0 -377.0 740.0 -352.0 L740.0 -352.0 M641.0 -337.0 L641.0 -337.0 Q643.0 -337.0 647.0 -337.0 663.0 -333.0 679.0 -328.0 695.0 -324.0 713.0 -324.0 726.0 -324.0 740.0 -328.0 738.0 -304.0 736.0 -276.0 736.0 -268.0 737.0 -264.0 715.0 -264.0 696.0 -264.0 671.0 -264.0 648.0 -264.0 648.0 -293.0 641.0 -337.0 L641.0 -337.0 M706.0 -45.0 L706.0 -45.0 Q702.0 -33.0 699.0 -20.0 679.0 47.0 673.0 95.0 673.0 116.0 675.0 120.0 683.0 120.0 690.0 108.0 708.0 80.0 721.0 40.0 727.0 47.0 735.0 56.0 769.0 84.0 819.0 87.0 862.0 87.0 862.0 80.0 862.0 76.0 849.0 72.0 769.0 43.0 727.0 20.0 730.0 3.0 733.0 -8.0 738.0 -28.0 742.0 -45.0 825.0 -45.0 870.0 -48.0 937.0 -56.0 937.0 -72.0 937.0 -81.0 858.0 -85.0 803.0 -85.0 753.0 -85.0 759.0 -117.0 762.0 -144.0 762.0 -156.0 757.0 -156.0 752.0 -156.0 743.0 -140.0 732.0 -112.0 722.0 -85.0 669.0 -85.0 621.0 -85.0 571.0 -85.0 522.0 -81.0 487.0 -77.0 487.0 -72.0 487.0 -60.0 544.0 -52.0 610.0 -45.0 678.0 -41.0 692.0 -41.0 706.0 -45.0 L706.0 -45.0 M220.0 -389.0 L220.0 -389.0 Q224.0 -320.0 229.0 -257.0 199.0 -228.0 158.0 -180.0 116.0 -121.0 111.0 -85.0 111.0 -81.0 114.0 -81.0 127.0 -81.0 147.0 -104.0 172.0 -132.0 190.0 -156.0 218.0 -200.0 231.0 -228.0 233.0 -209.0 236.0 -188.0 254.0 -45.0 268.0 7.0 274.0 20.0 283.0 20.0 291.0 20.0 291.0 -1.0 291.0 -37.0 272.0 -213.0 285.0 -200.0 299.0 -192.0 325.0 -169.0 358.0 -169.0 383.0 -173.0 385.0 -180.0 385.0 -188.0 367.0 -196.0 343.0 -205.0 313.0 -217.0 286.0 -232.0 270.0 -240.0 264.0 -308.0 260.0 -389.0 276.0 -389.0 295.0 -385.0 349.0 -385.0 376.0 -389.0 404.0 -392.0 404.0 -396.0 404.0 -404.0 345.0 -417.0 305.0 -425.0 258.0 -429.0 255.0 -469.0 254.0 -509.0 242.0 -612.0 229.0 -612.0 219.0 -612.0 219.0 -524.0 217.0 -480.0 217.0 -461.0 218.0 -444.0 218.0 -429.0 197.0 -429.0 173.0 -429.0 147.0 -429.0 95.0 -425.0 69.0 -421.0 69.0 -417.0 69.0 -408.0 139.0 -396.0 173.0 -392.0 220.0 -389.0 L220.0 -389.0 M470.0 -700.0 L470.0 -700.0 Q370.0 -696.0 370.0 -685.0 370.0 -673.0 476.0 -664.0 484.0 -629.0 496.0 -605.0 504.0 -593.0 512.0 -593.0 516.0 -593.0 519.0 -601.0 523.0 -605.0 525.0 -616.0 525.0 -637.0 520.0 -656.0 578.0 -652.0 655.0 -652.0 738.0 -652.0 798.0 -652.0 795.0 -633.0 792.0 -616.0 792.0 -576.0 801.0 -572.0 808.0 -572.0 816.0 -589.0 827.0 -601.0 830.0 -608.0 836.0 -633.0 839.0 -652.0 939.0 -656.0 940.0 -668.0 940.0 -681.0 902.0 -685.0 879.0 -689.0 843.0 -689.0 843.0 -689.0 843.0 -692.0 843.0 -712.0 834.0 -736.0 827.0 -752.0 821.0 -752.0 816.0 -752.0 806.0 -704.0 805.0 -696.0 804.0 -692.0 796.0 -692.0 787.0 -692.0 646.0 -696.0 506.0 -700.0 495.0 -721.0 477.0 -744.0 474.0 -752.0 470.0 -752.0 466.0 -752.0 466.0 -740.0 467.0 -717.0 470.0 -700.0 L470.0 -700.0" fill-rule="evenodd" stroke="none"/>
    </g>
    <g id="font_DFPTongTong-B5__8">
      <path d="M720.0 -536.0 L720.0 -536.0 Q654.0 -536.0 654.0 -532.0 654.0 -524.0 690.0 -509.0 719.0 -496.0 736.0 -496.0 760.0 -496.0 760.0 -509.0 760.0 -520.0 748.0 -528.0 733.0 -536.0 720.0 -536.0 L720.0 -536.0 M310.0 -528.0 L310.0 -528.0 Q245.0 -528.0 245.0 -520.0 245.0 -513.0 281.0 -496.0 309.0 -484.0 328.0 -484.0 350.0 -484.0 350.0 -496.0 350.0 -505.0 339.0 -517.0 325.0 -524.0 310.0 -528.0 L310.0 -528.0 M620.0 -660.0 L620.0 -660.0 Q634.0 -704.0 638.0 -736.0 638.0 -744.0 635.0 -744.0 631.0 -744.0 625.0 -733.0 590.0 -673.0 569.0 -624.0 545.0 -564.0 536.0 -520.0 536.0 -509.0 538.0 -505.0 544.0 -505.0 549.0 -513.0 583.0 -549.0 603.0 -616.0 608.0 -629.0 613.0 -645.0 637.0 -637.0 688.0 -629.0 753.0 -620.0 814.0 -620.0 845.0 -620.0 845.0 -624.0 845.0 -633.0 837.0 -637.0 813.0 -645.0 778.0 -652.0 706.0 -660.0 668.0 -660.0 637.0 -660.0 620.0 -660.0 L620.0 -660.0 M231.0 -652.0 L231.0 -652.0 Q258.0 -708.0 263.0 -740.0 263.0 -748.0 259.0 -752.0 256.0 -752.0 247.0 -740.0 221.0 -700.0 179.0 -633.0 131.0 -540.0 120.0 -513.0 120.0 -505.0 123.0 -505.0 127.0 -505.0 133.0 -509.0 164.0 -528.0 202.0 -597.0 214.0 -616.0 223.0 -637.0 244.0 -629.0 290.0 -620.0 345.0 -612.0 398.0 -612.0 430.0 -612.0 430.0 -616.0 430.0 -624.0 422.0 -629.0 401.0 -637.0 371.0 -645.0 306.0 -652.0 273.0 -652.0 247.0 -652.0 231.0 -652.0 L231.0 -652.0 M677.0 -236.0 L677.0 -236.0 Q671.0 -236.0 663.0 -188.0 648.0 -72.0 648.0 -45.0 648.0 40.0 675.0 87.0 707.0 135.0 757.0 135.0 788.0 135.0 817.0 128.0 837.0 116.0 837.0 108.0 837.0 91.0 830.0 76.0 826.0 68.0 820.0 68.0 817.0 68.0 805.0 87.0 799.0 95.0 763.0 95.0 725.0 95.0 709.0 64.0 692.0 28.0 690.0 -28.0 690.0 -68.0 690.0 -112.0 690.0 -169.0 685.0 -205.0 683.0 -236.0 677.0 -236.0 L677.0 -236.0 M370.0 -56.0 L370.0 -56.0 Q334.0 -60.0 294.0 -60.0 294.0 -85.0 294.0 -104.0 355.0 -104.0 357.0 -125.0 357.0 -132.0 342.0 -136.0 317.0 -136.0 294.0 -136.0 294.0 -176.0 293.0 -213.0 297.0 -213.0 301.0 -213.0 357.0 -205.0 364.0 -180.0 L368.0 -64.0 Q369.0 -60.0 370.0 -56.0 L370.0 -56.0 M253.0 -60.0 L253.0 -60.0 Q226.0 -56.0 203.0 -56.0 202.0 -72.0 196.0 -100.0 194.0 -108.0 193.0 -117.0 201.0 -112.0 212.0 -112.0 233.0 -108.0 253.0 -108.0 253.0 -85.0 253.0 -60.0 L253.0 -60.0 M288.0 -345.0 L288.0 -345.0 Q355.0 -345.0 392.0 -348.0 441.0 -356.0 441.0 -368.0 441.0 -373.0 383.0 -377.0 332.0 -377.0 286.0 -381.0 284.0 -396.0 283.0 -412.0 274.0 -448.0 266.0 -448.0 260.0 -448.0 258.0 -412.0 258.0 -396.0 257.0 -381.0 231.0 -381.0 207.0 -381.0 170.0 -377.0 133.0 -373.0 108.0 -373.0 108.0 -368.0 108.0 -360.0 150.0 -352.0 199.0 -345.0 249.0 -341.0 253.0 -341.0 256.0 -345.0 255.0 -293.0 254.0 -240.0 220.0 -240.0 189.0 -240.0 172.0 -240.0 172.0 -236.0 172.0 -232.0 189.0 -224.0 216.0 -220.0 254.0 -217.0 253.0 -176.0 253.0 -136.0 240.0 -136.0 226.0 -136.0 203.0 -132.0 189.0 -132.0 183.0 -161.0 175.0 -192.0 170.0 -220.0 160.0 -240.0 150.0 -260.0 145.0 -260.0 141.0 -260.0 141.0 -249.0 141.0 -213.0 143.0 -184.0 147.0 -144.0 156.0 -96.0 164.0 -56.0 172.0 -37.0 183.0 -16.0 189.0 -16.0 194.0 -16.0 198.0 -24.0 199.0 -28.0 200.0 -33.0 227.0 -33.0 253.0 -33.0 255.0 -1.0 257.0 28.0 239.0 28.0 217.0 32.0 166.0 32.0 166.0 40.0 166.0 43.0 180.0 47.0 203.0 51.0 255.0 56.0 257.0 56.0 259.0 56.0 261.0 68.0 262.0 80.0 270.0 124.0 281.0 124.0 289.0 124.0 291.0 84.0 291.0 72.0 291.0 51.0 316.0 47.0 342.0 40.0 380.0 28.0 380.0 20.0 380.0 16.0 377.0 16.0 364.0 16.0 301.0 20.0 297.0 24.0 292.0 24.0 293.0 -1.0 295.0 -28.0 295.0 -33.0 294.0 -33.0 302.0 -33.0 309.0 -33.0 358.0 -33.0 386.0 -41.0 414.0 -45.0 414.0 -52.0 414.0 -56.0 387.0 -56.0 388.0 -60.0 388.0 -60.0 393.0 -72.0 394.0 -85.0 398.0 -129.0 398.0 -188.0 398.0 -228.0 306.0 -236.0 299.0 -236.0 292.0 -236.0 291.0 -297.0 288.0 -345.0 L288.0 -345.0 M592.0 -316.0 L592.0 -316.0 Q575.0 -316.0 571.0 -312.0 571.0 -308.0 609.0 -297.0 649.0 -284.0 710.0 -272.0 741.0 -268.0 776.0 -260.0 800.0 -257.0 802.0 -240.0 806.0 -220.0 808.0 -196.0 810.0 -173.0 812.0 -140.0 812.0 -96.0 793.0 -88.0 793.0 -85.0 799.0 -81.0 817.0 -72.0 837.0 -72.0 856.0 -81.0 856.0 -176.0 856.0 -220.0 848.0 -249.0 842.0 -284.0 772.0 -301.0 730.0 -304.0 682.0 -308.0 631.0 -312.0 592.0 -316.0 L592.0 -316.0" fill-rule="evenodd" stroke="none"/>
    </g>
    <g id="font_DFPTongTong-B5__9">
      <path d="M250.0 -448.0 L250.0 -448.0 Q296.0 -436.0 451.0 -425.0 514.0 -417.0 589.0 -408.0 585.0 -348.0 582.0 -284.0 582.0 -224.0 583.0 -176.0 565.0 -176.0 547.0 -176.0 528.0 -176.0 490.0 -173.0 472.0 -169.0 472.0 -165.0 472.0 -156.0 523.0 -144.0 548.0 -136.0 584.0 -136.0 585.0 -85.0 587.0 -48.0 590.0 -1.0 595.0 24.0 552.0 24.0 510.0 28.0 486.0 28.0 486.0 36.0 486.0 51.0 550.0 60.0 581.0 64.0 616.0 64.0 666.0 64.0 687.0 51.0 713.0 43.0 713.0 36.0 711.0 28.0 677.0 24.0 646.0 24.0 615.0 24.0 620.0 -16.0 622.0 -117.0 622.0 -125.0 622.0 -132.0 628.0 -132.0 635.0 -132.0 674.0 -132.0 693.0 -136.0 714.0 -136.0 714.0 -144.0 714.0 -152.0 671.0 -161.0 648.0 -169.0 624.0 -173.0 629.0 -297.0 634.0 -408.0 691.0 -404.0 756.0 -400.0 796.0 -400.0 831.0 -404.0 855.0 -408.0 857.0 -412.0 854.0 -421.0 801.0 -429.0 727.0 -436.0 635.0 -448.0 637.0 -480.0 638.0 -517.0 638.0 -605.0 634.0 -660.0 631.0 -708.0 624.0 -708.0 613.0 -708.0 597.0 -509.0 594.0 -480.0 592.0 -448.0 506.0 -456.0 342.0 -465.0 291.0 -465.0 257.0 -465.0 256.0 -465.0 256.0 -465.0 306.0 -584.0 314.0 -629.0 314.0 -633.0 312.0 -633.0 310.0 -633.0 297.0 -612.0 252.0 -549.0 209.0 -456.0 148.0 -320.0 126.0 -220.0 126.0 -217.0 129.0 -217.0 133.0 -217.0 147.0 -236.0 194.0 -316.0 232.0 -408.0 242.0 -429.0 250.0 -448.0 L250.0 -448.0" fill-rule="evenodd" stroke="none"/>
    </g>
    <g id="font_DFPTongTong-B5__10">
      <path d="M317.0 56.0 L317.0 56.0 Q310.0 56.0 302.0 56.0 284.0 56.0 264.0 56.0 258.0 56.0 253.0 56.0 251.0 51.0 248.0 40.0 240.0 16.0 229.0 -12.0 227.0 -16.0 226.0 -20.0 232.0 -20.0 242.0 -20.0 L286.0 -16.0 Q308.0 -16.0 310.0 -4.0 314.0 20.0 316.0 51.0 316.0 51.0 317.0 56.0 L317.0 56.0 M254.0 76.0 L254.0 76.0 Q255.0 76.0 257.0 76.0 280.0 84.0 307.0 84.0 338.0 84.0 351.0 80.0 366.0 72.0 366.0 68.0 366.0 60.0 346.0 60.0 346.0 56.0 347.0 56.0 354.0 47.0 354.0 32.0 354.0 11.0 350.0 -16.0 339.0 -45.0 290.0 -48.0 267.0 -48.0 240.0 -45.0 225.0 -41.0 218.0 -37.0 216.0 -41.0 215.0 -41.0 206.0 -56.0 202.0 -56.0 198.0 -56.0 198.0 -45.0 198.0 -24.0 200.0 -8.0 204.0 16.0 211.0 43.0 218.0 68.0 225.0 80.0 237.0 95.0 242.0 95.0 246.0 95.0 249.0 87.0 252.0 84.0 254.0 76.0 L254.0 76.0 M197.0 -268.0 L197.0 -268.0 Q162.0 -264.0 162.0 -257.0 164.0 -245.0 188.0 -236.0 215.0 -232.0 238.0 -232.0 279.0 -232.0 281.0 -249.0 281.0 -260.0 261.0 -264.0 232.0 -268.0 197.0 -268.0 L197.0 -268.0 M177.0 -373.0 L177.0 -373.0 Q143.0 -368.0 143.0 -360.0 145.0 -348.0 169.0 -341.0 194.0 -337.0 215.0 -337.0 254.0 -337.0 256.0 -352.0 256.0 -360.0 236.0 -364.0 210.0 -373.0 177.0 -373.0 L177.0 -373.0 M179.0 -545.0 L179.0 -545.0 Q133.0 -545.0 103.0 -545.0 79.0 -545.0 79.0 -540.0 79.0 -524.0 197.0 -509.0 266.0 -492.0 359.0 -488.0 395.0 -488.0 427.0 -492.0 449.0 -492.0 450.0 -496.0 449.0 -505.0 420.0 -513.0 381.0 -517.0 333.0 -528.0 291.0 -536.0 179.0 -545.0 L179.0 -545.0 M260.0 -692.0 L260.0 -692.0 Q217.0 -692.0 217.0 -685.0 217.0 -677.0 266.0 -660.0 299.0 -648.0 331.0 -648.0 362.0 -652.0 362.0 -656.0 362.0 -664.0 354.0 -668.0 342.0 -677.0 323.0 -685.0 282.0 -692.0 260.0 -692.0 L260.0 -692.0 M783.0 -96.0 L783.0 -96.0 Q781.0 -96.0 780.0 -96.0 768.0 -96.0 754.0 -96.0 738.0 -96.0 723.0 -96.0 718.0 -96.0 714.0 -96.0 720.0 -132.0 723.0 -161.0 732.0 -152.0 750.0 -148.0 776.0 -144.0 778.0 -125.0 780.0 -112.0 783.0 -96.0 L783.0 -96.0 M793.0 -12.0 L793.0 -12.0 Q786.0 -16.0 778.0 -16.0 763.0 -20.0 746.0 -20.0 728.0 -20.0 711.0 -16.0 703.0 -16.0 698.0 -16.0 700.0 -24.0 701.0 -37.0 707.0 -60.0 711.0 -81.0 714.0 -81.0 718.0 -81.0 735.0 -72.0 758.0 -72.0 775.0 -72.0 785.0 -77.0 786.0 -64.0 788.0 -52.0 791.0 -33.0 793.0 -12.0 L793.0 -12.0 M695.0 -1.0 L695.0 -1.0 Q699.0 -1.0 703.0 3.0 725.0 7.0 751.0 11.0 779.0 11.0 792.0 3.0 794.0 3.0 795.0 3.0 796.0 11.0 797.0 20.0 803.0 76.0 803.0 87.0 803.0 108.0 797.0 120.0 797.0 128.0 815.0 128.0 837.0 124.0 837.0 100.0 837.0 84.0 835.0 64.0 831.0 40.0 828.0 -8.0 824.0 -45.0 820.0 -81.0 818.0 -112.0 815.0 -132.0 807.0 -180.0 772.0 -180.0 739.0 -180.0 725.0 -176.0 725.0 -180.0 725.0 -180.0 725.0 -196.0 721.0 -196.0 716.0 -196.0 709.0 -180.0 685.0 -108.0 671.0 -48.0 654.0 24.0 649.0 80.0 649.0 95.0 651.0 100.0 658.0 100.0 666.0 87.0 683.0 56.0 695.0 -1.0 L695.0 -1.0 M730.0 -589.0 L730.0 -589.0 Q807.0 -589.0 848.0 -597.0 907.0 -601.0 907.0 -612.0 907.0 -620.0 837.0 -624.0 779.0 -624.0 727.0 -624.0 723.0 -660.0 720.0 -677.0 714.0 -704.0 708.0 -704.0 699.0 -704.0 695.0 -652.0 695.0 -641.0 694.0 -624.0 658.0 -624.0 626.0 -624.0 582.0 -624.0 538.0 -620.0 507.0 -616.0 507.0 -612.0 507.0 -605.0 557.0 -597.0 616.0 -589.0 676.0 -589.0 685.0 -589.0 694.0 -589.0 693.0 -549.0 693.0 -505.0 694.0 -484.0 695.0 -469.0 675.0 -469.0 654.0 -465.0 598.0 -465.0 598.0 -456.0 598.0 -452.0 642.0 -444.0 668.0 -440.0 697.0 -436.0 702.0 -368.0 712.0 -345.0 684.0 -345.0 657.0 -345.0 617.0 -341.0 578.0 -337.0 550.0 -337.0 550.0 -333.0 550.0 -324.0 596.0 -316.0 649.0 -308.0 703.0 -304.0 810.0 -304.0 860.0 -312.0 913.0 -320.0 913.0 -333.0 913.0 -337.0 850.0 -341.0 792.0 -341.0 739.0 -345.0 741.0 -352.0 743.0 -364.0 742.0 -400.0 740.0 -433.0 785.0 -433.0 806.0 -440.0 831.0 -448.0 831.0 -452.0 831.0 -461.0 780.0 -465.0 760.0 -469.0 738.0 -469.0 734.0 -540.0 730.0 -589.0 L730.0 -589.0" fill-rule="evenodd" stroke="none"/>
    </g>
    <g id="font_DFPTongTong-B5__11">
      <path d="M684.0 -576.0 L684.0 -576.0 Q698.0 -576.0 715.0 -576.0 761.0 -576.0 782.0 -580.0 806.0 -580.0 806.0 -584.0 806.0 -593.0 757.0 -601.0 723.0 -608.0 683.0 -612.0 683.0 -616.0 683.0 -624.0 681.0 -664.0 677.0 -696.0 671.0 -725.0 666.0 -725.0 660.0 -725.0 654.0 -692.0 651.0 -664.0 647.0 -612.0 632.0 -612.0 614.0 -612.0 593.0 -612.0 550.0 -608.0 528.0 -608.0 528.0 -605.0 528.0 -597.0 588.0 -584.0 612.0 -580.0 646.0 -580.0 647.0 -496.0 656.0 -469.0 612.0 -469.0 573.0 -469.0 536.0 -469.0 498.0 -465.0 472.0 -461.0 472.0 -456.0 472.0 -448.0 515.0 -440.0 566.0 -433.0 617.0 -429.0 718.0 -429.0 765.0 -436.0 816.0 -444.0 816.0 -456.0 816.0 -465.0 755.0 -469.0 716.0 -469.0 679.0 -469.0 682.0 -480.0 685.0 -501.0 685.0 -532.0 684.0 -576.0 L684.0 -576.0 M211.0 -368.0 L211.0 -368.0 Q214.0 -320.0 218.0 -257.0 222.0 -213.0 224.0 -176.0 194.0 -169.0 154.0 -156.0 117.0 -148.0 117.0 -140.0 117.0 -132.0 171.0 -132.0 201.0 -136.0 226.0 -140.0 228.0 -96.0 228.0 -72.0 228.0 -12.0 205.0 -8.0 201.0 -4.0 201.0 -1.0 209.0 7.0 232.0 7.0 264.0 -1.0 264.0 -60.0 264.0 -104.0 262.0 -148.0 296.0 -156.0 310.0 -169.0 334.0 -184.0 334.0 -196.0 332.0 -200.0 328.0 -200.0 301.0 -196.0 260.0 -184.0 257.0 -240.0 251.0 -297.0 248.0 -333.0 246.0 -364.0 258.0 -364.0 270.0 -364.0 316.0 -364.0 339.0 -368.0 362.0 -373.0 362.0 -377.0 362.0 -385.0 312.0 -396.0 280.0 -400.0 243.0 -404.0 238.0 -448.0 232.0 -488.0 213.0 -564.0 201.0 -568.0 197.0 -564.0 197.0 -553.0 197.0 -513.0 205.0 -456.0 206.0 -436.0 208.0 -408.0 188.0 -408.0 169.0 -408.0 146.0 -408.0 102.0 -404.0 81.0 -400.0 81.0 -396.0 81.0 -389.0 140.0 -377.0 169.0 -373.0 211.0 -368.0 L211.0 -368.0 M600.0 -56.0 L600.0 -56.0 Q596.0 -56.0 596.0 -52.0 599.0 -33.0 626.0 -4.0 646.0 20.0 663.0 20.0 679.0 16.0 679.0 -1.0 679.0 -8.0 667.0 -16.0 647.0 -28.0 630.0 -41.0 606.0 -56.0 600.0 -56.0 L600.0 -56.0 M838.0 -152.0 L838.0 -152.0 Q859.0 -152.0 873.0 -152.0 906.0 -156.0 906.0 -161.0 906.0 -169.0 838.0 -176.0 835.0 -176.0 833.0 -176.0 827.0 -205.0 821.0 -224.0 806.0 -268.0 797.0 -268.0 795.0 -268.0 795.0 -260.0 799.0 -220.0 803.0 -180.0 729.0 -188.0 637.0 -188.0 606.0 -188.0 546.0 -188.0 515.0 -184.0 515.0 -180.0 515.0 -173.0 598.0 -161.0 665.0 -152.0 778.0 -148.0 793.0 -148.0 806.0 -148.0 817.0 -28.0 817.0 51.0 817.0 72.0 805.0 80.0 799.0 80.0 799.0 87.0 801.0 91.0 807.0 95.0 820.0 100.0 835.0 100.0 859.0 100.0 859.0 68.0 859.0 43.0 854.0 3.0 850.0 -56.0 843.0 -104.0 841.0 -129.0 838.0 -152.0 L838.0 -152.0" fill-rule="evenodd" stroke="none"/>
    </g>
    <g id="font_DFPTongTong-B5__12">
      <path d="M485.0 -484.0 L485.0 -484.0 Q476.0 -501.0 469.0 -501.0 463.0 -501.0 463.0 -484.0 468.0 -412.0 482.0 -356.0 495.0 -312.0 503.0 -297.0 508.0 -293.0 515.0 -293.0 520.0 -293.0 520.0 -304.0 520.0 -308.0 520.0 -308.0 540.0 -304.0 582.0 -301.0 626.0 -297.0 692.0 -297.0 880.0 -297.0 881.0 -304.0 881.0 -316.0 854.0 -316.0 859.0 -328.0 862.0 -348.0 865.0 -389.0 865.0 -404.0 865.0 -440.0 816.0 -461.0 766.0 -469.0 667.0 -476.0 572.0 -484.0 493.0 -484.0 488.0 -484.0 485.0 -484.0 L485.0 -484.0 M518.0 -324.0 L518.0 -324.0 Q516.0 -352.0 510.0 -389.0 505.0 -425.0 494.0 -465.0 497.0 -461.0 502.0 -461.0 525.0 -452.0 562.0 -448.0 608.0 -440.0 653.0 -436.0 710.0 -433.0 772.0 -429.0 826.0 -429.0 826.0 -396.0 L831.0 -320.0 Q831.0 -320.0 831.0 -320.0 808.0 -320.0 772.0 -324.0 754.0 -324.0 734.0 -324.0 735.0 -328.0 735.0 -333.0 735.0 -348.0 723.0 -377.0 718.0 -392.0 708.0 -404.0 701.0 -417.0 697.0 -417.0 694.0 -417.0 694.0 -400.0 696.0 -364.0 697.0 -348.0 698.0 -333.0 702.0 -324.0 668.0 -328.0 633.0 -328.0 633.0 -333.0 633.0 -333.0 633.0 -348.0 622.0 -381.0 616.0 -396.0 607.0 -408.0 601.0 -417.0 598.0 -417.0 595.0 -417.0 595.0 -404.0 596.0 -368.0 598.0 -348.0 598.0 -337.0 602.0 -328.0 598.0 -328.0 595.0 -328.0 541.0 -328.0 518.0 -324.0 L518.0 -324.0 M566.0 -660.0 L566.0 -660.0 Q566.0 -660.0 566.0 -660.0 570.0 -616.0 580.0 -593.0 569.0 -593.0 560.0 -593.0 539.0 -589.0 518.0 -589.0 504.0 -584.0 504.0 -580.0 504.0 -568.0 527.0 -564.0 556.0 -553.0 584.0 -553.0 639.0 -553.0 666.0 -561.0 693.0 -568.0 693.0 -580.0 693.0 -589.0 660.0 -589.0 636.0 -593.0 613.0 -593.0 614.0 -601.0 616.0 -608.0 613.0 -637.0 610.0 -660.0 630.0 -660.0 651.0 -660.0 715.0 -660.0 745.0 -664.0 779.0 -664.0 779.0 -673.0 779.0 -681.0 710.0 -689.0 662.0 -696.0 603.0 -700.0 598.0 -729.0 593.0 -736.0 587.0 -765.0 581.0 -765.0 572.0 -765.0 568.0 -712.0 568.0 -708.0 567.0 -700.0 539.0 -704.0 508.0 -704.0 478.0 -704.0 417.0 -700.0 386.0 -696.0 386.0 -692.0 386.0 -685.0 469.0 -673.0 509.0 -664.0 566.0 -660.0 L566.0 -660.0 M689.0 -45.0 L689.0 -45.0 Q691.0 -45.0 695.0 -45.0 725.0 -37.0 751.0 -37.0 766.0 -37.0 776.0 -41.0 773.0 -8.0 769.0 24.0 769.0 28.0 769.0 32.0 746.0 32.0 722.0 32.0 708.0 32.0 698.0 36.0 697.0 16.0 690.0 -33.0 689.0 -41.0 689.0 -45.0 L689.0 -45.0 M783.0 -132.0 L783.0 -132.0 Q749.0 -132.0 703.0 -132.0 687.0 -132.0 677.0 -129.0 674.0 -144.0 672.0 -161.0 667.0 -192.0 657.0 -220.0 647.0 -249.0 644.0 -249.0 640.0 -249.0 640.0 -236.0 640.0 -188.0 642.0 -148.0 646.0 -92.0 653.0 -28.0 660.0 28.0 668.0 51.0 679.0 72.0 685.0 72.0 689.0 72.0 692.0 64.0 694.0 60.0 696.0 51.0 702.0 56.0 711.0 56.0 723.0 60.0 735.0 60.0 726.0 72.0 717.0 87.0 706.0 104.0 696.0 124.0 696.0 152.0 705.0 156.0 715.0 152.0 722.0 139.0 741.0 124.0 746.0 104.0 753.0 91.0 755.0 80.0 763.0 95.0 780.0 116.0 804.0 144.0 822.0 144.0 837.0 139.0 837.0 124.0 837.0 116.0 822.0 104.0 801.0 87.0 781.0 72.0 774.0 68.0 768.0 60.0 769.0 60.0 770.0 64.0 818.0 64.0 820.0 40.0 820.0 32.0 805.0 32.0 801.0 32.0 797.0 32.0 799.0 28.0 801.0 20.0 820.0 -56.0 826.0 -165.0 826.0 -217.0 763.0 -232.0 711.0 -236.0 679.0 -236.0 664.0 -236.0 664.0 -232.0 664.0 -224.0 681.0 -217.0 720.0 -200.0 766.0 -192.0 784.0 -188.0 784.0 -173.0 784.0 -152.0 783.0 -132.0 L783.0 -132.0 M679.0 -112.0 L679.0 -112.0 Q685.0 -112.0 692.0 -108.0 725.0 -104.0 753.0 -104.0 771.0 -104.0 782.0 -104.0 781.0 -85.0 779.0 -64.0 746.0 -68.0 705.0 -68.0 694.0 -68.0 686.0 -64.0 683.0 -88.0 679.0 -112.0 L679.0 -112.0 M158.0 -100.0 L158.0 -100.0 Q139.0 -88.0 117.0 -56.0 92.0 -16.0 87.0 11.0 87.0 20.0 93.0 20.0 114.0 20.0 139.0 -24.0 164.0 -72.0 164.0 -92.0 164.0 -100.0 158.0 -100.0 L158.0 -100.0 M334.0 -85.0 L334.0 -85.0 Q326.0 -85.0 326.0 -81.0 327.0 -72.0 338.0 -60.0 345.0 -52.0 351.0 -45.0 368.0 -28.0 383.0 -28.0 404.0 -28.0 404.0 -41.0 404.0 -56.0 375.0 -72.0 347.0 -85.0 334.0 -85.0 L334.0 -85.0 M222.0 -377.0 L222.0 -377.0 Q141.0 -392.0 141.0 -429.0 141.0 -440.0 180.0 -509.0 200.0 -536.0 220.0 -580.0 237.0 -620.0 237.0 -641.0 237.0 -660.0 229.0 -660.0 L222.0 -652.0 Q205.0 -620.0 173.0 -576.0 150.0 -536.0 129.0 -509.0 105.0 -473.0 100.0 -440.0 100.0 -368.0 206.0 -352.0 204.0 -348.0 202.0 -345.0 165.0 -276.0 165.0 -249.0 173.0 -196.0 229.0 -192.0 229.0 -184.0 229.0 -180.0 229.0 -148.0 231.0 -108.0 234.0 -72.0 238.0 -41.0 242.0 3.0 248.0 24.0 262.0 60.0 278.0 64.0 282.0 64.0 283.0 36.0 283.0 7.0 271.0 -64.0 264.0 -121.0 249.0 -176.0 248.0 -184.0 246.0 -188.0 294.0 -192.0 329.0 -220.0 331.0 -217.0 333.0 -217.0 359.0 -180.0 377.0 -180.0 391.0 -180.0 393.0 -188.0 393.0 -213.0 373.0 -232.0 350.0 -253.0 326.0 -272.0 303.0 -289.0 294.0 -289.0 287.0 -289.0 287.0 -284.0 287.0 -276.0 308.0 -245.0 310.0 -245.0 311.0 -240.0 276.0 -228.0 251.0 -228.0 201.0 -228.0 201.0 -253.0 201.0 -272.0 227.0 -304.0 260.0 -345.0 282.0 -385.0 311.0 -444.0 311.0 -480.0 311.0 -492.0 309.0 -496.0 302.0 -496.0 272.0 -456.0 245.0 -412.0 222.0 -377.0 L222.0 -377.0" fill-rule="evenodd" stroke="none"/>
    </g>
    <g id="font_DFPTongTong-B5__13">
      <path d="M309.0 -601.0 L309.0 -601.0 Q305.0 -601.0 296.0 -589.0 255.0 -549.0 188.0 -469.0 112.0 -368.0 93.0 -333.0 93.0 -324.0 97.0 -324.0 101.0 -324.0 108.0 -328.0 156.0 -352.0 217.0 -433.0 303.0 -536.0 313.0 -589.0 313.0 -601.0 309.0 -601.0 L309.0 -601.0 M330.0 -64.0 L330.0 -64.0 Q335.0 -72.0 339.0 -85.0 351.0 -129.0 354.0 -188.0 354.0 -236.0 290.0 -253.0 237.0 -260.0 205.0 -260.0 198.0 -260.0 194.0 -257.0 184.0 -276.0 180.0 -276.0 176.0 -276.0 176.0 -264.0 176.0 -228.0 178.0 -200.0 182.0 -161.0 190.0 -108.0 199.0 -68.0 207.0 -48.0 218.0 -33.0 224.0 -33.0 228.0 -33.0 232.0 -41.0 233.0 -45.0 234.0 -45.0 239.0 -45.0 244.0 -45.0 272.0 -37.0 296.0 -37.0 340.0 -37.0 342.0 -52.0 342.0 -60.0 330.0 -64.0 L330.0 -64.0 M309.0 -132.0 L309.0 -132.0 Q308.0 -108.0 306.0 -81.0 306.0 -72.0 307.0 -68.0 283.0 -68.0 253.0 -68.0 245.0 -68.0 239.0 -68.0 237.0 -81.0 230.0 -117.0 229.0 -121.0 227.0 -129.0 245.0 -125.0 269.0 -125.0 291.0 -125.0 309.0 -132.0 L309.0 -132.0 M202.0 -236.0 L202.0 -236.0 Q204.0 -236.0 207.0 -232.0 247.0 -220.0 293.0 -213.0 311.0 -209.0 311.0 -192.0 311.0 -176.0 311.0 -156.0 305.0 -156.0 299.0 -156.0 283.0 -156.0 264.0 -156.0 253.0 -156.0 229.0 -152.0 226.0 -152.0 223.0 -152.0 217.0 -180.0 211.0 -209.0 207.0 -224.0 202.0 -236.0 L202.0 -236.0 M575.0 -469.0 L575.0 -469.0 Q588.0 -465.0 605.0 -456.0 660.0 -440.0 742.0 -425.0 787.0 -417.0 836.0 -408.0 867.0 -400.0 870.0 -381.0 874.0 -320.0 876.0 -253.0 878.0 -184.0 880.0 -104.0 880.0 28.0 847.0 40.0 847.0 47.0 852.0 47.0 869.0 56.0 888.0 56.0 921.0 40.0 921.0 -200.0 921.0 -320.0 913.0 -385.0 905.0 -440.0 812.0 -461.0 756.0 -469.0 691.0 -473.0 631.0 -480.0 584.0 -484.0 618.0 -549.0 632.0 -616.0 632.0 -620.0 631.0 -620.0 629.0 -620.0 626.0 -616.0 578.0 -557.0 528.0 -473.0 489.0 -389.0 458.0 -304.0 458.0 -301.0 460.0 -301.0 462.0 -301.0 464.0 -301.0 518.0 -360.0 554.0 -433.0 565.0 -448.0 575.0 -469.0 L575.0 -469.0 M592.0 -140.0 L592.0 -140.0 Q584.0 -140.0 584.0 -136.0 586.0 -125.0 607.0 -108.0 622.0 -96.0 634.0 -88.0 666.0 -64.0 693.0 -64.0 716.0 -64.0 716.0 -77.0 716.0 -96.0 664.0 -121.0 615.0 -140.0 592.0 -140.0 L592.0 -140.0" fill-rule="evenodd" stroke="none"/>
    </g>
    <g id="font_DFPTongTong-B5__14">
      <path d="M480.0 -368.0 L480.0 -368.0 Q427.0 -360.0 379.0 -352.0 345.0 -348.0 345.0 -345.0 345.0 -328.0 434.0 -328.0 460.0 -333.0 483.0 -337.0 485.0 -297.0 490.0 -276.0 496.0 -260.0 501.0 -260.0 507.0 -260.0 512.0 -276.0 517.0 -293.0 519.0 -316.0 519.0 -328.0 519.0 -341.0 546.0 -345.0 567.0 -352.0 610.0 -368.0 613.0 -385.0 613.0 -389.0 604.0 -389.0 600.0 -389.0 570.0 -381.0 546.0 -377.0 519.0 -373.0 518.0 -412.0 517.0 -461.0 528.0 -461.0 539.0 -465.0 561.0 -469.0 561.0 -473.0 561.0 -476.0 554.0 -480.0 545.0 -484.0 518.0 -484.0 517.0 -484.0 517.0 -484.0 516.0 -528.0 514.0 -580.0 516.0 -580.0 518.0 -580.0 563.0 -580.0 586.0 -584.0 609.0 -584.0 609.0 -593.0 609.0 -601.0 560.0 -608.0 537.0 -616.0 510.0 -616.0 505.0 -664.0 498.0 -700.0 490.0 -740.0 483.0 -740.0 479.0 -740.0 477.0 -729.0 474.0 -673.0 474.0 -641.0 474.0 -633.0 474.0 -620.0 446.0 -624.0 416.0 -624.0 394.0 -624.0 350.0 -620.0 329.0 -616.0 329.0 -612.0 329.0 -605.0 388.0 -593.0 423.0 -584.0 474.0 -580.0 475.0 -553.0 476.0 -520.0 476.0 -505.0 476.0 -488.0 472.0 -488.0 467.0 -488.0 453.0 -488.0 419.0 -484.0 383.0 -476.0 383.0 -473.0 383.0 -469.0 407.0 -461.0 433.0 -456.0 475.0 -456.0 476.0 -456.0 477.0 -456.0 479.0 -412.0 480.0 -368.0 L480.0 -368.0 M810.0 -580.0 L810.0 -580.0 Q807.0 -576.0 803.0 -568.0 759.0 -501.0 729.0 -448.0 697.0 -392.0 680.0 -360.0 680.0 -352.0 685.0 -352.0 693.0 -352.0 705.0 -364.0 732.0 -392.0 763.0 -440.0 800.0 -496.0 814.0 -532.0 822.0 -557.0 827.0 -576.0 829.0 -576.0 834.0 -576.0 883.0 -557.0 888.0 -545.0 896.0 -540.0 898.0 -524.0 902.0 -501.0 902.0 -476.0 902.0 -444.0 880.0 -436.0 876.0 -433.0 876.0 -429.0 886.0 -417.0 905.0 -417.0 928.0 -417.0 936.0 -429.0 946.0 -436.0 946.0 -456.0 946.0 -480.0 944.0 -505.0 944.0 -524.0 940.0 -545.0 935.0 -572.0 912.0 -589.0 889.0 -601.0 835.0 -608.0 782.0 -620.0 713.0 -637.0 698.0 -637.0 694.0 -633.0 696.0 -624.0 740.0 -608.0 775.0 -593.0 810.0 -580.0 L810.0 -580.0 M272.0 -52.0 L272.0 -52.0 Q263.0 -52.0 240.0 -45.0 206.0 -33.0 168.0 -4.0 139.0 16.0 139.0 20.0 139.0 28.0 159.0 28.0 202.0 20.0 244.0 -4.0 270.0 -24.0 278.0 -45.0 278.0 -52.0 272.0 -52.0 L272.0 -52.0 M75.0 -345.0 L75.0 -345.0 Q67.0 -345.0 67.0 -337.0 69.0 -328.0 90.0 -312.0 104.0 -301.0 116.0 -293.0 148.0 -272.0 176.0 -272.0 199.0 -272.0 199.0 -289.0 199.0 -304.0 146.0 -324.0 98.0 -345.0 75.0 -345.0 L75.0 -345.0 M162.0 -620.0 L162.0 -620.0 Q155.0 -620.0 155.0 -616.0 157.0 -605.0 181.0 -580.0 197.0 -564.0 211.0 -557.0 247.0 -528.0 278.0 -528.0 297.0 -528.0 297.0 -540.0 297.0 -564.0 241.0 -597.0 187.0 -620.0 162.0 -620.0 L162.0 -620.0 M631.0 36.0 L631.0 36.0 Q614.0 43.0 595.0 64.0 573.0 91.0 569.0 108.0 569.0 120.0 575.0 120.0 593.0 116.0 616.0 91.0 637.0 60.0 637.0 43.0 637.0 36.0 631.0 36.0 L631.0 36.0 M835.0 40.0 L835.0 40.0 Q826.0 40.0 826.0 47.0 828.0 51.0 842.0 64.0 851.0 72.0 858.0 80.0 879.0 91.0 896.0 91.0 918.0 91.0 918.0 80.0 918.0 68.0 883.0 51.0 851.0 40.0 835.0 40.0 L835.0 40.0 M677.0 -132.0 L677.0 -132.0 Q670.0 -132.0 659.0 -132.0 638.0 -136.0 631.0 -136.0 624.0 -140.0 622.0 -144.0 622.0 -152.0 633.0 -165.0 641.0 -176.0 652.0 -192.0 668.0 -213.0 678.0 -236.0 692.0 -268.0 697.0 -301.0 697.0 -308.0 690.0 -308.0 686.0 -308.0 679.0 -297.0 673.0 -284.0 651.0 -257.0 629.0 -232.0 609.0 -209.0 582.0 -173.0 582.0 -152.0 582.0 -129.0 593.0 -117.0 605.0 -100.0 628.0 -100.0 643.0 -100.0 657.0 -100.0 656.0 -100.0 655.0 -96.0 646.0 -77.0 646.0 -64.0 646.0 -37.0 660.0 -24.0 679.0 -8.0 707.0 -8.0 713.0 -8.0 718.0 -12.0 716.0 -1.0 716.0 7.0 716.0 28.0 718.0 51.0 720.0 80.0 724.0 112.0 728.0 131.0 733.0 139.0 739.0 156.0 745.0 156.0 752.0 156.0 758.0 139.0 764.0 120.0 766.0 95.0 766.0 72.0 760.0 28.0 754.0 3.0 742.0 -16.0 782.0 -24.0 803.0 -48.0 825.0 -24.0 841.0 -24.0 856.0 -24.0 858.0 -37.0 858.0 -52.0 837.0 -72.0 815.0 -88.0 791.0 -104.0 769.0 -121.0 759.0 -121.0 753.0 -121.0 753.0 -112.0 753.0 -108.0 773.0 -81.0 779.0 -72.0 785.0 -68.0 738.0 -52.0 717.0 -52.0 690.0 -52.0 689.0 -64.0 689.0 -72.0 693.0 -81.0 701.0 -96.0 711.0 -112.0 728.0 -140.0 750.0 -173.0 763.0 -192.0 763.0 -200.0 763.0 -205.0 757.0 -205.0 743.0 -200.0 725.0 -188.0 701.0 -169.0 687.0 -148.0 682.0 -140.0 677.0 -132.0 L677.0 -132.0" fill-rule="evenodd" stroke="none"/>
    </g>
    <g id="font_DFPTongTong-B5__15">
      <path d="M681.0 -513.0 L681.0 -513.0 Q649.0 -505.0 617.0 -484.0 573.0 -456.0 573.0 -448.0 573.0 -444.0 590.0 -444.0 622.0 -448.0 653.0 -465.0 673.0 -473.0 684.0 -484.0 695.0 -496.0 695.0 -509.0 694.0 -513.0 681.0 -513.0 L681.0 -513.0 M726.0 -425.0 L726.0 -425.0 Q702.0 -425.0 640.0 -392.0 611.0 -377.0 611.0 -364.0 613.0 -360.0 634.0 -356.0 664.0 -360.0 684.0 -377.0 716.0 -400.0 729.0 -421.0 729.0 -425.0 726.0 -425.0 L726.0 -425.0 M222.0 -505.0 L222.0 -505.0 Q190.0 -496.0 159.0 -476.0 115.0 -448.0 115.0 -440.0 115.0 -436.0 130.0 -436.0 162.0 -440.0 194.0 -456.0 214.0 -465.0 224.0 -476.0 237.0 -488.0 237.0 -501.0 236.0 -505.0 222.0 -505.0 L222.0 -505.0 M267.0 -417.0 L267.0 -417.0 Q244.0 -417.0 181.0 -385.0 153.0 -368.0 153.0 -356.0 154.0 -352.0 175.0 -348.0 204.0 -352.0 225.0 -368.0 257.0 -392.0 270.0 -412.0 270.0 -417.0 267.0 -417.0 L267.0 -417.0 M570.0 -268.0 L570.0 -268.0 Q492.0 -228.0 396.0 -148.0 317.0 -77.0 285.0 -20.0 285.0 -16.0 289.0 -16.0 293.0 -16.0 299.0 -20.0 338.0 -45.0 429.0 -125.0 506.0 -188.0 577.0 -257.0 579.0 -260.0 579.0 -264.0 577.0 -268.0 570.0 -268.0 L570.0 -268.0 M541.0 40.0 L541.0 40.0 Q527.0 -1.0 507.0 -41.0 499.0 -60.0 493.0 -60.0 488.0 -60.0 488.0 -48.0 498.0 36.0 522.0 100.0 542.0 148.0 556.0 168.0 560.0 171.0 563.0 171.0 567.0 171.0 567.0 164.0 566.0 156.0 565.0 148.0 571.0 148.0 580.0 152.0 612.0 156.0 641.0 156.0 690.0 156.0 692.0 135.0 692.0 128.0 677.0 128.0 674.0 128.0 672.0 128.0 673.0 124.0 675.0 120.0 687.0 80.0 690.0 32.0 690.0 -20.0 630.0 -37.0 580.0 -45.0 549.0 -45.0 532.0 -41.0 532.0 -37.0 532.0 -33.0 551.0 -20.0 588.0 -4.0 631.0 3.0 647.0 7.0 647.0 24.0 647.0 36.0 647.0 43.0 610.0 40.0 564.0 40.0 550.0 40.0 541.0 40.0 L541.0 40.0 M562.0 128.0 L562.0 128.0 Q557.0 100.0 547.0 64.0 547.0 60.0 547.0 60.0 550.0 60.0 554.0 64.0 586.0 68.0 613.0 68.0 634.0 68.0 646.0 64.0 645.0 91.0 643.0 120.0 643.0 124.0 643.0 128.0 618.0 128.0 591.0 128.0 572.0 128.0 562.0 128.0 L562.0 128.0 M203.0 -673.0 L203.0 -673.0 Q125.0 -673.0 125.0 -664.0 127.0 -656.0 160.0 -645.0 177.0 -641.0 226.0 -637.0 263.0 -633.0 288.0 -629.0 357.0 -616.0 359.0 -561.0 366.0 -505.0 374.0 -429.0 378.0 -381.0 378.0 -328.0 378.0 -301.0 370.0 -289.0 370.0 -280.0 378.0 -280.0 418.0 -289.0 418.0 -337.0 418.0 -429.0 406.0 -545.0 406.0 -645.0 315.0 -664.0 272.0 -673.0 203.0 -673.0 L203.0 -673.0 M637.0 -664.0 L637.0 -664.0 Q544.0 -664.0 544.0 -656.0 546.0 -645.0 587.0 -637.0 609.0 -633.0 669.0 -629.0 715.0 -624.0 744.0 -620.0 815.0 -608.0 817.0 -561.0 823.0 -509.0 833.0 -429.0 837.0 -381.0 837.0 -333.0 837.0 -301.0 828.0 -293.0 828.0 -284.0 837.0 -284.0 877.0 -289.0 877.0 -337.0 877.0 -433.0 862.0 -545.0 862.0 -637.0 773.0 -652.0 721.0 -660.0 637.0 -664.0 L637.0 -664.0" fill-rule="evenodd" stroke="none"/>
    </g>
    <g id="font_DFPTongTong-B5__16">
      <path d="M155.0 -392.0 L155.0 -392.0 Q151.0 -392.0 144.0 -381.0 128.0 -352.0 110.0 -308.0 90.0 -260.0 90.0 -228.0 90.0 -188.0 98.0 -188.0 104.0 -188.0 109.0 -196.0 121.0 -224.0 139.0 -284.0 159.0 -348.0 159.0 -373.0 159.0 -392.0 155.0 -392.0 L155.0 -392.0 M254.0 -364.0 L254.0 -364.0 Q252.0 -484.0 245.0 -549.0 237.0 -589.0 228.0 -589.0 222.0 -589.0 220.0 -549.0 215.0 -364.0 215.0 -192.0 218.0 -104.0 224.0 -68.0 232.0 -20.0 243.0 -20.0 251.0 -20.0 253.0 -60.0 253.0 -88.0 257.0 -176.0 257.0 -264.0 255.0 -333.0 268.0 -320.0 283.0 -308.0 313.0 -289.0 336.0 -289.0 361.0 -289.0 361.0 -297.0 361.0 -308.0 330.0 -324.0 312.0 -333.0 294.0 -345.0 269.0 -356.0 254.0 -364.0 L254.0 -364.0 M657.0 -668.0 L657.0 -668.0 Q680.0 -664.0 706.0 -660.0 732.0 -656.0 732.0 -641.0 732.0 -616.0 729.0 -593.0 728.0 -584.0 727.0 -580.0 688.0 -580.0 648.0 -580.0 658.0 -637.0 658.0 -660.0 657.0 -664.0 657.0 -668.0 L657.0 -668.0 M545.0 -584.0 L545.0 -584.0 Q555.0 -629.0 559.0 -696.0 574.0 -689.0 607.0 -681.0 621.0 -677.0 637.0 -673.0 622.0 -629.0 612.0 -589.0 611.0 -584.0 610.0 -580.0 578.0 -580.0 545.0 -584.0 L545.0 -584.0 M603.0 -452.0 L603.0 -452.0 Q569.0 -456.0 554.0 -461.0 523.0 -469.0 523.0 -488.0 526.0 -509.0 536.0 -549.0 568.0 -545.0 605.0 -545.0 602.0 -517.0 601.0 -496.0 601.0 -469.0 603.0 -452.0 L603.0 -452.0 M713.0 -452.0 L713.0 -452.0 Q679.0 -452.0 645.0 -452.0 632.0 -452.0 621.0 -452.0 625.0 -461.0 628.0 -473.0 634.0 -501.0 642.0 -545.0 686.0 -545.0 723.0 -545.0 721.0 -524.0 718.0 -501.0 715.0 -473.0 713.0 -452.0 L713.0 -452.0 M496.0 -549.0 L496.0 -549.0 Q486.0 -501.0 486.0 -488.0 486.0 -452.0 525.0 -440.0 572.0 -425.0 645.0 -425.0 691.0 -425.0 712.0 -436.0 712.0 -412.0 723.0 -412.0 730.0 -412.0 737.0 -433.0 752.0 -480.0 765.0 -545.0 919.0 -549.0 921.0 -557.0 921.0 -568.0 888.0 -572.0 856.0 -576.0 792.0 -576.0 781.0 -576.0 771.0 -576.0 782.0 -629.0 782.0 -645.0 782.0 -664.0 759.0 -677.0 737.0 -692.0 679.0 -704.0 642.0 -712.0 609.0 -712.0 574.0 -712.0 560.0 -708.0 558.0 -736.0 554.0 -736.0 552.0 -736.0 546.0 -725.0 514.0 -637.0 502.0 -584.0 484.0 -584.0 468.0 -584.0 359.0 -584.0 359.0 -572.0 359.0 -561.0 476.0 -553.0 485.0 -553.0 496.0 -549.0 L496.0 -549.0 M642.0 -4.0 L642.0 -4.0 Q651.0 -1.0 669.0 3.0 686.0 7.0 701.0 7.0 689.0 24.0 677.0 47.0 648.0 104.0 644.0 139.0 644.0 152.0 649.0 152.0 671.0 148.0 700.0 87.0 708.0 72.0 713.0 56.0 724.0 72.0 748.0 91.0 776.0 120.0 800.0 120.0 812.0 120.0 812.0 104.0 812.0 100.0 795.0 84.0 769.0 68.0 745.0 51.0 729.0 40.0 720.0 32.0 723.0 20.0 725.0 7.0 733.0 11.0 741.0 11.0 800.0 11.0 803.0 -4.0 803.0 -12.0 785.0 -16.0 788.0 -20.0 791.0 -28.0 821.0 -121.0 831.0 -245.0 831.0 -297.0 764.0 -312.0 707.0 -320.0 673.0 -320.0 656.0 -316.0 656.0 -312.0 656.0 -308.0 674.0 -297.0 718.0 -280.0 768.0 -272.0 788.0 -268.0 788.0 -253.0 788.0 -156.0 759.0 -28.0 759.0 -24.0 759.0 -20.0 724.0 -24.0 682.0 -24.0 658.0 -20.0 646.0 -20.0 648.0 -28.0 649.0 -45.0 649.0 -77.0 649.0 -121.0 658.0 -117.0 672.0 -112.0 701.0 -104.0 730.0 -104.0 758.0 -108.0 758.0 -112.0 758.0 -117.0 751.0 -121.0 739.0 -129.0 722.0 -136.0 685.0 -140.0 666.0 -144.0 656.0 -144.0 648.0 -144.0 648.0 -169.0 648.0 -200.0 656.0 -196.0 668.0 -192.0 697.0 -184.0 726.0 -184.0 754.0 -184.0 754.0 -188.0 754.0 -196.0 746.0 -200.0 735.0 -209.0 718.0 -213.0 681.0 -220.0 662.0 -220.0 653.0 -220.0 647.0 -220.0 645.0 -264.0 642.0 -304.0 636.0 -337.0 630.0 -337.0 624.0 -337.0 617.0 -297.0 613.0 -260.0 609.0 -180.0 609.0 -45.0 622.0 -4.0 628.0 11.0 632.0 11.0 638.0 11.0 642.0 -4.0 L642.0 -4.0" fill-rule="evenodd" stroke="none"/>
    </g>
    <g id="font_DFPTongTong-B5__17">
      <path d="M570.0 -328.0 L570.0 -328.0 Q570.0 -405.0 468.0 -405.0 453.0 -405.0 453.0 -399.0 453.0 -380.0 483.0 -357.0 503.0 -345.0 507.0 -338.0 516.0 -326.0 516.0 -307.0 516.0 -292.0 504.0 -256.0 493.0 -219.0 493.0 -217.0 493.0 -207.0 495.0 -207.0 514.0 -207.0 542.0 -256.0 570.0 -304.0 570.0 -328.0" fill-rule="evenodd" stroke="none"/>
    </g>
    <g id="font_DFPTongTong-B5__18">
      <path d="M253.0 -389.0 L253.0 -389.0 Q256.0 -320.0 262.0 -257.0 228.0 -228.0 185.0 -180.0 139.0 -121.0 133.0 -85.0 133.0 -81.0 137.0 -81.0 151.0 -81.0 173.0 -104.0 201.0 -132.0 219.0 -156.0 250.0 -200.0 264.0 -228.0 266.0 -209.0 269.0 -188.0 289.0 -45.0 304.0 7.0 310.0 20.0 318.0 20.0 327.0 20.0 327.0 -1.0 327.0 -37.0 306.0 -217.0 321.0 -200.0 337.0 -192.0 366.0 -169.0 402.0 -169.0 427.0 -173.0 429.0 -180.0 429.0 -188.0 411.0 -196.0 384.0 -205.0 353.0 -217.0 321.0 -232.0 304.0 -240.0 298.0 -308.0 292.0 -389.0 311.0 -389.0 333.0 -385.0 391.0 -385.0 420.0 -389.0 451.0 -392.0 451.0 -396.0 451.0 -404.0 387.0 -417.0 342.0 -425.0 290.0 -429.0 288.0 -469.0 286.0 -509.0 273.0 -612.0 261.0 -612.0 252.0 -612.0 252.0 -524.0 250.0 -480.0 250.0 -461.0 250.0 -444.0 251.0 -429.0 226.0 -429.0 202.0 -429.0 173.0 -429.0 117.0 -425.0 88.0 -421.0 88.0 -417.0 88.0 -408.0 165.0 -396.0 202.0 -392.0 253.0 -389.0 L253.0 -389.0 M710.0 -452.0 L710.0 -452.0 Q709.0 -456.0 709.0 -456.0 705.0 -484.0 694.0 -484.0 689.0 -484.0 689.0 -429.0 689.0 -304.0 706.0 -188.0 725.0 -68.0 754.0 3.0 760.0 16.0 766.0 16.0 772.0 11.0 772.0 7.0 770.0 -4.0 769.0 -12.0 782.0 -8.0 809.0 -4.0 825.0 -1.0 846.0 -1.0 878.0 -1.0 891.0 -8.0 912.0 -16.0 912.0 -24.0 911.0 -33.0 896.0 -33.0 896.0 -33.0 896.0 -37.0 902.0 -48.0 903.0 -64.0 909.0 -205.0 909.0 -396.0 909.0 -444.0 827.0 -452.0 773.0 -456.0 725.0 -456.0 716.0 -456.0 710.0 -452.0 L710.0 -452.0 M767.0 -33.0 L767.0 -33.0 Q759.0 -88.0 748.0 -173.0 751.0 -169.0 754.0 -169.0 783.0 -165.0 810.0 -165.0 856.0 -165.0 858.0 -180.0 858.0 -188.0 842.0 -188.0 808.0 -192.0 764.0 -192.0 753.0 -192.0 744.0 -192.0 742.0 -213.0 739.0 -232.0 737.0 -249.0 735.0 -268.0 741.0 -264.0 751.0 -264.0 780.0 -257.0 807.0 -257.0 853.0 -257.0 855.0 -272.0 855.0 -280.0 839.0 -284.0 805.0 -289.0 761.0 -289.0 742.0 -284.0 733.0 -284.0 722.0 -368.0 712.0 -436.0 717.0 -436.0 725.0 -433.0 760.0 -425.0 815.0 -421.0 861.0 -412.0 866.0 -389.0 L871.0 -41.0 Q871.0 -37.0 872.0 -33.0 823.0 -33.0 775.0 -33.0 770.0 -33.0 767.0 -33.0 L767.0 -33.0" fill-rule="evenodd" stroke="none"/>
    </g>
    <g id="font_DFPTongTong-B5__19">
      <path d="M635.0 -41.0 L635.0 -41.0 Q633.0 -45.0 631.0 -48.0 622.0 -60.0 617.0 -60.0 614.0 -60.0 614.0 -52.0 614.0 -28.0 615.0 -8.0 620.0 20.0 627.0 51.0 635.0 80.0 642.0 95.0 653.0 112.0 659.0 112.0 663.0 112.0 667.0 104.0 670.0 95.0 672.0 87.0 692.0 91.0 723.0 91.0 750.0 91.0 774.0 84.0 792.0 76.0 792.0 72.0 792.0 68.0 784.0 68.0 780.0 64.0 772.0 64.0 778.0 56.0 778.0 43.0 778.0 16.0 775.0 -20.0 762.0 -48.0 700.0 -48.0 680.0 -48.0 654.0 -45.0 642.0 -45.0 635.0 -41.0 L635.0 -41.0 M670.0 68.0 L670.0 68.0 Q668.0 60.0 665.0 47.0 657.0 20.0 646.0 -12.0 644.0 -20.0 642.0 -24.0 648.0 -24.0 656.0 -24.0 L697.0 -20.0 Q733.0 -20.0 736.0 -8.0 740.0 24.0 741.0 60.0 741.0 60.0 742.0 60.0 730.0 60.0 718.0 60.0 706.0 60.0 679.0 64.0 674.0 64.0 670.0 68.0 L670.0 68.0 M187.0 -381.0 L187.0 -381.0 Q204.0 -389.0 219.0 -396.0 301.0 -433.0 328.0 -461.0 334.0 -461.0 336.0 -469.0 336.0 -476.0 315.0 -476.0 258.0 -465.0 198.0 -436.0 156.0 -417.0 114.0 -389.0 86.0 -373.0 86.0 -364.0 87.0 -360.0 97.0 -360.0 134.0 -364.0 166.0 -377.0 173.0 -264.0 194.0 -180.0 211.0 -112.0 223.0 -88.0 228.0 -81.0 234.0 -81.0 241.0 -85.0 241.0 -92.0 237.0 -148.0 223.0 -232.0 213.0 -301.0 190.0 -377.0 188.0 -381.0 187.0 -381.0 L187.0 -381.0 M504.0 -561.0 L504.0 -561.0 Q387.0 -561.0 387.0 -549.0 387.0 -532.0 498.0 -524.0 559.0 -517.0 652.0 -517.0 914.0 -517.0 915.0 -528.0 915.0 -540.0 881.0 -545.0 846.0 -549.0 777.0 -553.0 640.0 -557.0 504.0 -561.0 L504.0 -561.0 M603.0 -236.0 L603.0 -236.0 Q582.0 -236.0 559.0 -232.0 521.0 -228.0 521.0 -224.0 521.0 -217.0 551.0 -209.0 578.0 -205.0 609.0 -200.0 644.0 -200.0 659.0 -209.0 676.0 -217.0 676.0 -220.0 676.0 -228.0 642.0 -232.0 624.0 -236.0 603.0 -236.0 L603.0 -236.0 M538.0 -356.0 L538.0 -356.0 Q481.0 -356.0 481.0 -348.0 481.0 -337.0 550.0 -320.0 596.0 -312.0 640.0 -312.0 672.0 -312.0 672.0 -320.0 672.0 -324.0 664.0 -328.0 646.0 -341.0 621.0 -345.0 565.0 -352.0 538.0 -356.0 L538.0 -356.0 M609.0 -692.0 L609.0 -692.0 Q548.0 -692.0 548.0 -685.0 548.0 -673.0 623.0 -656.0 674.0 -645.0 723.0 -645.0 757.0 -648.0 757.0 -652.0 757.0 -660.0 749.0 -664.0 729.0 -677.0 700.0 -681.0 640.0 -689.0 609.0 -692.0 L609.0 -692.0" fill-rule="evenodd" stroke="none"/>
    </g>
    <g id="font_DFPTongTong-B5__20">
      <path d="M376.0 -660.0 L376.0 -660.0 Q370.0 -656.0 370.0 -652.0 370.0 -641.0 423.0 -605.0 453.0 -584.0 476.0 -572.0 540.0 -536.0 569.0 -536.0 596.0 -536.0 596.0 -549.0 596.0 -568.0 519.0 -601.0 489.0 -616.0 456.0 -629.0 388.0 -660.0 376.0 -660.0 L376.0 -660.0 M590.0 -33.0 L590.0 -33.0 Q595.0 -41.0 603.0 -56.0 643.0 -136.0 674.0 -224.0 698.0 -284.0 698.0 -324.0 696.0 -377.0 447.0 -400.0 329.0 -408.0 213.0 -408.0 188.0 -408.0 188.0 -404.0 188.0 -389.0 249.0 -381.0 276.0 -377.0 439.0 -356.0 504.0 -352.0 535.0 -348.0 647.0 -333.0 647.0 -312.0 647.0 -280.0 584.0 -100.0 572.0 -60.0 566.0 -41.0 553.0 -48.0 539.0 -52.0 463.0 -85.0 442.0 -85.0 413.0 -85.0 365.0 -41.0 321.0 7.0 316.0 36.0 316.0 40.0 321.0 43.0 329.0 43.0 333.0 40.0 350.0 24.0 383.0 -8.0 427.0 -48.0 434.0 -48.0 458.0 -48.0 507.0 -16.0 565.0 20.0 604.0 36.0 646.0 56.0 688.0 56.0 711.0 56.0 737.0 47.0 755.0 40.0 755.0 36.0 755.0 36.0 750.0 32.0 677.0 7.0 590.0 -33.0 L590.0 -33.0" fill-rule="evenodd" stroke="none"/>
    </g>
    <g id="font_DFPTongTong-B5__21">
      <path d="M425.0 -564.0 L425.0 -564.0 Q422.0 -564.0 422.0 -561.0 456.0 -524.0 496.0 -484.0 543.0 -436.0 572.0 -436.0 586.0 -436.0 586.0 -452.0 586.0 -480.0 538.0 -517.0 471.0 -557.0 425.0 -564.0 L425.0 -564.0 M256.0 -129.0 L256.0 -129.0 Q220.0 -121.0 186.0 -117.0 147.0 -108.0 147.0 -104.0 147.0 -92.0 223.0 -92.0 329.0 -100.0 393.0 -125.0 449.0 -148.0 453.0 -165.0 453.0 -169.0 444.0 -169.0 440.0 -169.0 407.0 -161.0 359.0 -148.0 308.0 -140.0 294.0 -136.0 281.0 -132.0 282.0 -136.0 282.0 -136.0 282.0 -156.0 272.0 -272.0 267.0 -348.0 264.0 -448.0 251.0 -561.0 238.0 -561.0 227.0 -561.0 227.0 -465.0 225.0 -417.0 225.0 -392.0 227.0 -312.0 237.0 -236.0 247.0 -161.0 256.0 -129.0 L256.0 -129.0 M700.0 -144.0 L700.0 -144.0 Q714.0 -132.0 744.0 -112.0 774.0 -92.0 799.0 -77.0 863.0 -37.0 894.0 -37.0 918.0 -37.0 918.0 -48.0 918.0 -68.0 841.0 -104.0 810.0 -121.0 776.0 -136.0 730.0 -161.0 710.0 -165.0 730.0 -213.0 750.0 -260.0 851.0 -476.0 863.0 -549.0 867.0 -561.0 867.0 -568.0 861.0 -568.0 852.0 -557.0 784.0 -448.0 712.0 -276.0 655.0 -152.0 609.0 -4.0 605.0 7.0 605.0 20.0 622.0 20.0 630.0 3.0 667.0 -72.0 700.0 -144.0 L700.0 -144.0" fill-rule="evenodd" stroke="none"/>
    </g>
    <g id="font_DFPTongTong-B5__22">
      <path d="M155.0 -392.0 L155.0 -392.0 Q151.0 -392.0 144.0 -381.0 128.0 -352.0 110.0 -308.0 90.0 -260.0 90.0 -228.0 90.0 -188.0 98.0 -188.0 104.0 -188.0 109.0 -196.0 121.0 -224.0 139.0 -284.0 159.0 -348.0 159.0 -373.0 159.0 -392.0 155.0 -392.0 L155.0 -392.0 M248.0 -364.0 L248.0 -364.0 Q246.0 -484.0 239.0 -549.0 230.0 -589.0 222.0 -589.0 216.0 -589.0 215.0 -549.0 209.0 -364.0 209.0 -192.0 213.0 -104.0 218.0 -68.0 226.0 -20.0 237.0 -20.0 245.0 -20.0 247.0 -60.0 247.0 -88.0 251.0 -176.0 251.0 -264.0 249.0 -337.0 257.0 -328.0 266.0 -324.0 290.0 -304.0 307.0 -304.0 334.0 -304.0 334.0 -316.0 334.0 -324.0 307.0 -337.0 294.0 -345.0 278.0 -352.0 260.0 -360.0 248.0 -364.0 L248.0 -364.0 M584.0 -144.0 L584.0 -144.0 Q575.0 -144.0 575.0 -136.0 578.0 -132.0 595.0 -117.0 607.0 -108.0 616.0 -100.0 644.0 -85.0 667.0 -85.0 689.0 -85.0 689.0 -96.0 689.0 -112.0 644.0 -129.0 604.0 -144.0 584.0 -144.0 L584.0 -144.0 M606.0 -245.0 L606.0 -245.0 Q599.0 -245.0 599.0 -236.0 600.0 -228.0 621.0 -213.0 633.0 -205.0 644.0 -196.0 673.0 -176.0 697.0 -176.0 720.0 -176.0 720.0 -188.0 720.0 -209.0 672.0 -228.0 629.0 -245.0 606.0 -245.0 L606.0 -245.0 M656.0 -624.0 L656.0 -624.0 Q741.0 -616.0 843.0 -616.0 883.0 -616.0 919.0 -616.0 942.0 -620.0 944.0 -624.0 942.0 -633.0 895.0 -641.0 829.0 -648.0 749.0 -660.0 677.0 -668.0 489.0 -681.0 439.0 -681.0 404.0 -677.0 378.0 -677.0 378.0 -673.0 378.0 -656.0 572.0 -637.0 604.0 -633.0 640.0 -629.0 587.0 -509.0 551.0 -389.0 517.0 -276.0 489.0 -132.0 489.0 -125.0 493.0 -125.0 497.0 -125.0 499.0 -129.0 555.0 -228.0 591.0 -356.0 608.0 -348.0 638.0 -341.0 684.0 -337.0 749.0 -333.0 778.0 -324.0 778.0 -316.0 778.0 -272.0 773.0 -228.0 767.0 -165.0 756.0 -60.0 749.0 16.0 746.0 56.0 746.0 56.0 746.0 60.0 731.0 64.0 714.0 64.0 574.0 72.0 569.0 76.0 569.0 84.0 580.0 87.0 596.0 91.0 611.0 95.0 626.0 100.0 711.0 100.0 811.0 100.0 863.0 84.0 909.0 72.0 914.0 56.0 914.0 51.0 872.0 51.0 829.0 56.0 775.0 60.0 798.0 -45.0 817.0 -196.0 833.0 -293.0 833.0 -320.0 833.0 -341.0 807.0 -352.0 782.0 -364.0 719.0 -373.0 677.0 -381.0 640.0 -385.0 614.0 -385.0 598.0 -381.0 650.0 -549.0 656.0 -624.0 L656.0 -624.0" fill-rule="evenodd" stroke="none"/>
    </g>
    <g id="font_DFPTongTong-B5__23">
      <path d="M259.0 -56.0 L259.0 -56.0 Q238.0 -8.0 222.0 32.0 222.0 43.0 227.0 43.0 234.0 40.0 240.0 32.0 273.0 -4.0 294.0 -41.0 322.0 -28.0 349.0 -28.0 378.0 -28.0 389.0 -33.0 401.0 -33.0 403.0 -41.0 403.0 -45.0 369.0 -56.0 340.0 -64.0 312.0 -77.0 314.0 -81.0 315.0 -85.0 346.0 -144.0 350.0 -220.0 350.0 -240.0 343.0 -245.0 339.0 -245.0 336.0 -232.0 308.0 -169.0 279.0 -96.0 278.0 -96.0 278.0 -92.0 269.0 -96.0 262.0 -100.0 220.0 -125.0 215.0 -169.0 215.0 -217.0 243.0 -304.0 252.0 -333.0 260.0 -360.0 294.0 -356.0 333.0 -356.0 397.0 -356.0 428.0 -360.0 462.0 -360.0 462.0 -368.0 462.0 -377.0 392.0 -389.0 338.0 -396.0 273.0 -400.0 296.0 -476.0 296.0 -509.0 296.0 -545.0 292.0 -568.0 288.0 -593.0 282.0 -593.0 278.0 -593.0 267.0 -549.0 252.0 -492.0 223.0 -400.0 207.0 -400.0 190.0 -400.0 160.0 -400.0 98.0 -396.0 68.0 -392.0 68.0 -389.0 68.0 -381.0 152.0 -368.0 177.0 -364.0 211.0 -360.0 208.0 -352.0 206.0 -345.0 177.0 -240.0 177.0 -188.0 180.0 -112.0 223.0 -81.0 241.0 -64.0 259.0 -56.0 L259.0 -56.0 M831.0 -532.0 L831.0 -532.0 Q831.0 -568.0 772.0 -589.0 617.0 -629.0 540.0 -633.0 519.0 -633.0 519.0 -629.0 519.0 -612.0 624.0 -584.0 706.0 -557.0 766.0 -545.0 775.0 -545.0 775.0 -532.0 773.0 -517.0 742.0 -440.0 716.0 -360.0 716.0 -345.0 716.0 -316.0 734.0 -217.0 741.0 -180.0 746.0 -144.0 745.0 -144.0 743.0 -144.0 653.0 -129.0 572.0 -117.0 517.0 -108.0 517.0 -100.0 517.0 -88.0 598.0 -88.0 685.0 -96.0 754.0 -104.0 759.0 -68.0 763.0 -28.0 763.0 24.0 756.0 40.0 752.0 47.0 748.0 60.0 740.0 64.0 740.0 68.0 749.0 76.0 763.0 76.0 785.0 72.0 797.0 51.0 809.0 28.0 809.0 -8.0 807.0 -48.0 795.0 -112.0 827.0 -121.0 855.0 -129.0 939.0 -156.0 946.0 -176.0 946.0 -180.0 937.0 -180.0 931.0 -180.0 883.0 -173.0 836.0 -161.0 785.0 -152.0 779.0 -176.0 773.0 -205.0 748.0 -284.0 745.0 -328.0 749.0 -356.0 799.0 -456.0 831.0 -513.0 831.0 -532.0 L831.0 -532.0" fill-rule="evenodd" stroke="none"/>
    </g>
    <g id="font_DFPTongTong-B5__24">
      <path d="M644.0 -645.0 L644.0 -645.0 Q670.0 -681.0 694.0 -712.0 696.0 -717.0 696.0 -721.0 694.0 -725.0 689.0 -725.0 632.0 -685.0 563.0 -601.0 506.0 -524.0 482.0 -465.0 482.0 -461.0 486.0 -461.0 490.0 -461.0 497.0 -465.0 525.0 -492.0 590.0 -576.0 610.0 -601.0 630.0 -624.0 633.0 -624.0 637.0 -624.0 665.0 -612.0 695.0 -605.0 758.0 -589.0 758.0 -576.0 758.0 -540.0 718.0 -469.0 711.0 -480.0 691.0 -492.0 647.0 -517.0 616.0 -517.0 612.0 -517.0 612.0 -513.0 634.0 -492.0 658.0 -465.0 683.0 -440.0 699.0 -436.0 682.0 -404.0 662.0 -373.0 650.0 -389.0 612.0 -400.0 582.0 -408.0 555.0 -412.0 551.0 -412.0 551.0 -408.0 553.0 -400.0 592.0 -373.0 625.0 -348.0 643.0 -348.0 645.0 -352.0 647.0 -352.0 607.0 -293.0 598.0 -276.0 598.0 -268.0 607.0 -268.0 618.0 -272.0 650.0 -308.0 696.0 -352.0 737.0 -421.0 810.0 -532.0 810.0 -584.0 810.0 -620.0 746.0 -633.0 724.0 -637.0 689.0 -641.0 664.0 -645.0 644.0 -645.0 L644.0 -645.0 M623.0 32.0 L623.0 32.0 Q618.0 32.0 618.0 36.0 621.0 43.0 652.0 76.0 681.0 100.0 695.0 100.0 716.0 100.0 720.0 91.0 720.0 68.0 673.0 47.0 646.0 36.0 623.0 32.0 L623.0 32.0 M828.0 -48.0 L828.0 -48.0 Q839.0 28.0 839.0 80.0 839.0 100.0 824.0 104.0 818.0 108.0 818.0 112.0 820.0 116.0 827.0 120.0 843.0 128.0 860.0 128.0 881.0 124.0 881.0 91.0 881.0 80.0 877.0 51.0 871.0 7.0 865.0 -24.0 863.0 -41.0 861.0 -52.0 891.0 -52.0 907.0 -52.0 934.0 -56.0 934.0 -60.0 934.0 -68.0 880.0 -77.0 866.0 -81.0 853.0 -81.0 848.0 -96.0 843.0 -108.0 827.0 -140.0 818.0 -140.0 817.0 -136.0 817.0 -132.0 820.0 -108.0 823.0 -85.0 777.0 -88.0 722.0 -88.0 698.0 -88.0 650.0 -88.0 627.0 -85.0 627.0 -81.0 627.0 -72.0 692.0 -60.0 742.0 -52.0 828.0 -48.0 L828.0 -48.0 M306.0 -476.0 L306.0 -476.0 Q278.0 -469.0 239.0 -469.0 209.0 -469.0 195.0 -476.0 184.0 -484.0 180.0 -496.0 175.0 -557.0 164.0 -605.0 153.0 -645.0 144.0 -645.0 138.0 -641.0 138.0 -624.0 136.0 -572.0 132.0 -513.0 136.0 -473.0 157.0 -452.0 176.0 -433.0 213.0 -433.0 264.0 -433.0 299.0 -448.0 302.0 -448.0 306.0 -452.0 306.0 -440.0 307.0 -429.0 L316.0 -45.0 Q304.0 -48.0 290.0 -48.0 232.0 -56.0 202.0 -60.0 142.0 -60.0 142.0 -52.0 142.0 -41.0 215.0 -24.0 216.0 -24.0 217.0 -24.0 216.0 -24.0 216.0 -24.0 194.0 11.0 181.0 40.0 166.0 76.0 161.0 100.0 161.0 120.0 163.0 124.0 171.0 124.0 179.0 112.0 200.0 87.0 213.0 47.0 229.0 3.0 234.0 -24.0 274.0 -16.0 312.0 -16.0 314.0 -16.0 316.0 -16.0 L318.0 51.0 Q321.0 68.0 326.0 80.0 330.0 87.0 336.0 91.0 343.0 87.0 349.0 80.0 360.0 68.0 360.0 51.0 L349.0 -341.0 Q345.0 -436.0 334.0 -561.0 322.0 -645.0 310.0 -645.0 307.0 -645.0 305.0 -637.0 305.0 -568.0 306.0 -476.0 L306.0 -476.0" fill-rule="evenodd" stroke="none"/>
    </g>
    <g id="font_DFPTongTong-B5__25">
      <path d="M475.0 7.0 L475.0 7.0 Q470.0 7.0 470.0 16.0 483.0 40.0 500.0 72.0 516.0 100.0 524.0 100.0 543.0 100.0 545.0 80.0 545.0 51.0 524.0 32.0 499.0 11.0 475.0 7.0 L475.0 7.0 M578.0 3.0 L578.0 3.0 Q571.0 3.0 571.0 7.0 586.0 32.0 602.0 60.0 618.0 84.0 628.0 84.0 645.0 84.0 646.0 68.0 646.0 43.0 626.0 24.0 601.0 7.0 578.0 3.0 L578.0 3.0 M671.0 -12.0 L671.0 -12.0 Q666.0 -12.0 666.0 -8.0 679.0 16.0 692.0 40.0 708.0 64.0 715.0 64.0 732.0 60.0 733.0 43.0 733.0 24.0 715.0 7.0 692.0 -12.0 671.0 -12.0 L671.0 -12.0 M562.0 -148.0 L562.0 -148.0 Q458.0 -144.0 458.0 -129.0 458.0 -121.0 516.0 -112.0 646.0 -104.0 756.0 -104.0 783.0 -104.0 802.0 -96.0 820.0 -92.0 824.0 -56.0 833.0 -24.0 833.0 20.0 833.0 43.0 817.0 60.0 819.0 68.0 846.0 72.0 869.0 72.0 869.0 24.0 869.0 -16.0 861.0 -60.0 859.0 -85.0 843.0 -108.0 826.0 -129.0 782.0 -136.0 733.0 -144.0 675.0 -144.0 623.0 -148.0 562.0 -148.0 L562.0 -148.0 M386.0 -33.0 L386.0 -33.0 Q368.0 -4.0 352.0 28.0 336.0 68.0 333.0 87.0 333.0 116.0 339.0 120.0 350.0 120.0 359.0 108.0 377.0 91.0 384.0 60.0 395.0 24.0 399.0 -20.0 399.0 -37.0 394.0 -41.0 390.0 -41.0 386.0 -33.0 L386.0 -33.0 M440.0 -456.0 L440.0 -456.0 Q413.0 -404.0 386.0 -345.0 298.0 -176.0 227.0 28.0 225.0 32.0 225.0 40.0 233.0 40.0 238.0 32.0 342.0 -152.0 428.0 -337.0 463.0 -400.0 490.0 -452.0 544.0 -452.0 600.0 -448.0 659.0 -448.0 659.0 -417.0 L658.0 -348.0 Q658.0 -348.0 658.0 -348.0 645.0 -348.0 629.0 -352.0 591.0 -352.0 564.0 -352.0 524.0 -352.0 522.0 -348.0 522.0 -341.0 544.0 -337.0 568.0 -324.0 602.0 -320.0 626.0 -312.0 657.0 -308.0 680.0 -304.0 699.0 -304.0 723.0 -297.0 725.0 -284.0 729.0 -276.0 730.0 -240.0 732.0 -209.0 746.0 -209.0 756.0 -209.0 762.0 -228.0 769.0 -249.0 769.0 -280.0 769.0 -308.0 749.0 -324.0 734.0 -337.0 694.0 -341.0 691.0 -341.0 688.0 -341.0 694.0 -352.0 697.0 -368.0 702.0 -400.0 702.0 -417.0 702.0 -456.0 648.0 -476.0 600.0 -484.0 510.0 -492.0 595.0 -664.0 608.0 -733.0 610.0 -736.0 610.0 -740.0 607.0 -740.0 603.0 -736.0 532.0 -637.0 459.0 -492.0 327.0 -496.0 212.0 -496.0 180.0 -496.0 180.0 -496.0 180.0 -484.0 221.0 -480.0 255.0 -473.0 307.0 -469.0 372.0 -461.0 434.0 -456.0 437.0 -456.0 440.0 -456.0 L440.0 -456.0 M295.0 -696.0 L295.0 -696.0 Q289.0 -696.0 289.0 -692.0 289.0 -689.0 304.0 -664.0 322.0 -641.0 337.0 -620.0 371.0 -580.0 389.0 -580.0 401.0 -584.0 401.0 -601.0 401.0 -616.0 387.0 -633.0 373.0 -652.0 344.0 -673.0 318.0 -689.0 295.0 -696.0 L295.0 -696.0" fill-rule="evenodd" stroke="none"/>
    </g>
    <g id="font_DFPTongTong-B5__26">
      <path d="M518.0 -85.0 L518.0 -85.0 Q515.0 -92.0 513.0 -96.0 504.0 -108.0 500.0 -108.0 496.0 -108.0 496.0 -100.0 496.0 -77.0 498.0 -56.0 502.0 -28.0 509.0 3.0 516.0 32.0 523.0 43.0 535.0 60.0 540.0 60.0 544.0 60.0 548.0 51.0 551.0 47.0 553.0 32.0 553.0 28.0 546.0 -1.0 539.0 -28.0 527.0 -64.0 525.0 -68.0 524.0 -72.0 529.0 -68.0 538.0 -68.0 562.0 -60.0 584.0 -56.0 590.0 -56.0 597.0 -56.0 599.0 -20.0 604.0 11.0 614.0 87.0 631.0 135.0 638.0 148.0 645.0 148.0 652.0 144.0 652.0 135.0 646.0 84.0 635.0 -24.0 634.0 -41.0 632.0 -56.0 650.0 -52.0 672.0 -52.0 706.0 -52.0 706.0 -16.0 705.0 24.0 689.0 40.0 689.0 47.0 712.0 47.0 732.0 47.0 738.0 36.0 742.0 20.0 742.0 -33.0 742.0 -72.0 700.0 -85.0 673.0 -88.0 629.0 -88.0 624.0 -136.0 618.0 -176.0 613.0 -209.0 602.0 -209.0 594.0 -209.0 594.0 -140.0 594.0 -112.0 595.0 -88.0 539.0 -88.0 518.0 -85.0 L518.0 -85.0 M292.0 -364.0 L292.0 -364.0 Q284.0 -364.0 272.0 -341.0 258.0 -304.0 249.0 -280.0 239.0 -245.0 234.0 -220.0 234.0 -192.0 239.0 -184.0 250.0 -184.0 262.0 -205.0 276.0 -224.0 285.0 -268.0 297.0 -316.0 299.0 -345.0 299.0 -364.0 292.0 -364.0 L292.0 -364.0 M461.0 -364.0 L461.0 -364.0 Q378.0 -364.0 378.0 -352.0 378.0 -337.0 539.0 -324.0 599.0 -320.0 664.0 -312.0 722.0 -308.0 761.0 -301.0 812.0 -293.0 837.0 -284.0 862.0 -272.0 862.0 -249.0 L859.0 -217.0 Q859.0 -209.0 866.0 -209.0 881.0 -213.0 890.0 -232.0 899.0 -249.0 899.0 -260.0 899.0 -304.0 846.0 -324.0 790.0 -341.0 724.0 -348.0 556.0 -364.0 461.0 -364.0 L461.0 -364.0 M477.0 -593.0 L477.0 -593.0 Q487.0 -593.0 498.0 -593.0 525.0 -593.0 551.0 -593.0 554.0 -549.0 560.0 -524.0 522.0 -513.0 497.0 -513.0 477.0 -517.0 477.0 -557.0 477.0 -576.0 477.0 -593.0 L477.0 -593.0 M254.0 -601.0 L254.0 -601.0 Q254.0 -601.0 254.0 -601.0 332.0 -593.0 438.0 -593.0 439.0 -580.0 439.0 -572.0 439.0 -524.0 452.0 -501.0 464.0 -480.0 490.0 -476.0 539.0 -476.0 568.0 -496.0 571.0 -492.0 577.0 -488.0 580.0 -484.0 584.0 -484.0 594.0 -484.0 600.0 -524.0 596.0 -561.0 593.0 -593.0 679.0 -593.0 741.0 -593.0 737.0 -572.0 735.0 -549.0 735.0 -496.0 756.0 -480.0 775.0 -456.0 819.0 -452.0 857.0 -456.0 863.0 -492.0 863.0 -501.0 859.0 -501.0 L857.0 -501.0 Q852.0 -496.0 845.0 -492.0 834.0 -488.0 824.0 -488.0 799.0 -488.0 786.0 -505.0 777.0 -524.0 777.0 -553.0 777.0 -568.0 777.0 -593.0 912.0 -597.0 913.0 -605.0 913.0 -616.0 878.0 -620.0 844.0 -624.0 778.0 -629.0 778.0 -656.0 778.0 -692.0 778.0 -696.0 775.0 -696.0 769.0 -696.0 752.0 -637.0 751.0 -633.0 749.0 -629.0 669.0 -629.0 588.0 -629.0 582.0 -673.0 577.0 -689.0 570.0 -717.0 564.0 -717.0 557.0 -717.0 553.0 -664.0 552.0 -648.0 551.0 -633.0 514.0 -633.0 476.0 -633.0 471.0 -681.0 458.0 -708.0 453.0 -721.0 446.0 -721.0 439.0 -717.0 437.0 -652.0 437.0 -645.0 437.0 -633.0 350.0 -633.0 262.0 -637.0 269.0 -668.0 271.0 -704.0 271.0 -733.0 263.0 -736.0 257.0 -736.0 255.0 -721.0 241.0 -681.0 226.0 -637.0 213.0 -637.0 200.0 -637.0 80.0 -637.0 80.0 -624.0 80.0 -612.0 217.0 -605.0 215.0 -597.0 212.0 -589.0 186.0 -517.0 172.0 -465.0 172.0 -452.0 177.0 -452.0 185.0 -452.0 190.0 -461.0 231.0 -520.0 246.0 -576.0 251.0 -589.0 254.0 -601.0 L254.0 -601.0" fill-rule="evenodd" stroke="none"/>
    </g>
    <g id="font_DFPTongTong-B5__27">
      <path d="M751.0 -312.0 L751.0 -312.0 Q764.0 -289.0 780.0 -276.0 802.0 -253.0 829.0 -253.0 854.0 -257.0 856.0 -264.0 856.0 -272.0 838.0 -280.0 818.0 -289.0 794.0 -301.0 771.0 -316.0 758.0 -324.0 796.0 -381.0 808.0 -440.0 808.0 -448.0 804.0 -448.0 800.0 -448.0 792.0 -436.0 760.0 -400.0 728.0 -348.0 702.0 -297.0 682.0 -245.0 682.0 -232.0 686.0 -232.0 691.0 -232.0 697.0 -236.0 728.0 -272.0 751.0 -312.0 L751.0 -312.0 M286.0 -312.0 L286.0 -312.0 Q299.0 -289.0 314.0 -276.0 335.0 -253.0 361.0 -253.0 386.0 -253.0 387.0 -260.0 387.0 -268.0 370.0 -276.0 350.0 -289.0 327.0 -304.0 306.0 -316.0 294.0 -324.0 333.0 -381.0 346.0 -436.0 346.0 -444.0 343.0 -444.0 339.0 -444.0 331.0 -436.0 295.0 -396.0 259.0 -348.0 230.0 -297.0 208.0 -240.0 208.0 -232.0 212.0 -228.0 217.0 -228.0 223.0 -236.0 260.0 -272.0 286.0 -312.0 L286.0 -312.0 M548.0 -561.0 L548.0 -561.0 Q863.0 -561.0 865.0 -576.0 865.0 -589.0 827.0 -593.0 790.0 -601.0 714.0 -601.0 630.0 -605.0 546.0 -605.0 544.0 -664.0 541.0 -712.0 532.0 -752.0 523.0 -752.0 517.0 -752.0 515.0 -712.0 514.0 -656.0 513.0 -605.0 394.0 -608.0 275.0 -608.0 147.0 -608.0 147.0 -597.0 147.0 -580.0 298.0 -572.0 382.0 -561.0 508.0 -561.0 510.0 -561.0 512.0 -561.0 508.0 -341.0 509.0 -125.0 509.0 -117.0 509.0 -108.0 508.0 -104.0 507.0 -104.0 459.0 -77.0 387.0 -16.0 321.0 47.0 286.0 91.0 286.0 100.0 290.0 100.0 298.0 100.0 303.0 95.0 328.0 84.0 409.0 20.0 470.0 -28.0 510.0 -81.0 514.0 28.0 519.0 76.0 527.0 148.0 539.0 148.0 548.0 148.0 550.0 104.0 550.0 76.0 554.0 -20.0 554.0 -48.0 554.0 -77.0 580.0 -56.0 652.0 -12.0 757.0 43.0 816.0 51.0 821.0 51.0 821.0 43.0 818.0 28.0 680.0 -45.0 597.0 -85.0 554.0 -92.0 553.0 -381.0 548.0 -561.0 L548.0 -561.0" fill-rule="evenodd" stroke="none"/>
    </g>
    <g id="font_DFPTongTong-B5__28">
      <path d="M556.0 -729.0 L556.0 -729.0 Q552.0 -729.0 546.0 -725.0 444.0 -668.0 314.0 -568.0 226.0 -484.0 184.0 -440.0 184.0 -429.0 191.0 -429.0 202.0 -429.0 209.0 -436.0 324.0 -520.0 420.0 -601.0 562.0 -712.0 562.0 -725.0 562.0 -729.0 556.0 -729.0 L556.0 -729.0 M593.0 -161.0 L593.0 -161.0 Q595.0 -161.0 596.0 -161.0 626.0 -152.0 651.0 -152.0 697.0 -152.0 698.0 -169.0 698.0 -176.0 681.0 -180.0 648.0 -188.0 606.0 -188.0 597.0 -184.0 590.0 -184.0 583.0 -240.0 575.0 -280.0 570.0 -316.0 558.0 -316.0 550.0 -316.0 550.0 -245.0 550.0 -152.0 564.0 -68.0 580.0 16.0 603.0 68.0 610.0 80.0 618.0 80.0 626.0 80.0 626.0 72.0 626.0 68.0 625.0 68.0 634.0 72.0 647.0 72.0 689.0 80.0 726.0 80.0 790.0 80.0 793.0 56.0 793.0 47.0 775.0 43.0 771.0 43.0 766.0 43.0 773.0 36.0 777.0 24.0 793.0 -88.0 798.0 -249.0 798.0 -304.0 723.0 -320.0 660.0 -328.0 624.0 -328.0 605.0 -324.0 605.0 -320.0 605.0 -312.0 626.0 -301.0 673.0 -289.0 727.0 -280.0 750.0 -276.0 750.0 -257.0 750.0 -136.0 741.0 24.0 741.0 40.0 743.0 43.0 707.0 47.0 662.0 47.0 636.0 47.0 623.0 51.0 616.0 3.0 606.0 -68.0 631.0 -60.0 651.0 -60.0 690.0 -60.0 691.0 -81.0 691.0 -88.0 676.0 -88.0 648.0 -92.0 613.0 -92.0 607.0 -92.0 603.0 -88.0 601.0 -100.0 600.0 -108.0 597.0 -136.0 593.0 -161.0 L593.0 -161.0" fill-rule="evenodd" stroke="none"/>
    </g>
    <g id="font_DFPTongTong-B5__29">
      <path d="M301.0 -536.0 L301.0 -536.0 Q248.0 -524.0 191.0 -496.0 152.0 -476.0 113.0 -452.0 86.0 -433.0 86.0 -429.0 88.0 -425.0 97.0 -425.0 163.0 -436.0 212.0 -461.0 289.0 -496.0 312.0 -524.0 317.0 -524.0 319.0 -532.0 319.0 -536.0 301.0 -536.0 L301.0 -536.0 M160.0 -224.0 L160.0 -224.0 Q169.0 -148.0 191.0 -88.0 212.0 -41.0 225.0 -20.0 230.0 -12.0 236.0 -12.0 241.0 -16.0 241.0 -24.0 237.0 -64.0 221.0 -125.0 208.0 -176.0 182.0 -228.0 181.0 -232.0 180.0 -232.0 188.0 -236.0 196.0 -240.0 275.0 -276.0 301.0 -308.0 306.0 -308.0 307.0 -316.0 307.0 -320.0 290.0 -320.0 233.0 -308.0 174.0 -280.0 133.0 -260.0 93.0 -232.0 66.0 -213.0 66.0 -205.0 67.0 -200.0 76.0 -200.0 122.0 -209.0 160.0 -224.0 L160.0 -224.0 M525.0 -140.0 L525.0 -140.0 Q519.0 -140.0 517.0 -104.0 517.0 -60.0 534.0 -16.0 545.0 11.0 560.0 11.0 585.0 11.0 604.0 -8.0 626.0 -33.0 626.0 -41.0 624.0 -45.0 620.0 -45.0 615.0 -45.0 599.0 -33.0 585.0 -20.0 573.0 -20.0 567.0 -20.0 560.0 -45.0 554.0 -81.0 547.0 -104.0 534.0 -140.0 525.0 -140.0 L525.0 -140.0 M446.0 -173.0 L446.0 -173.0 Q440.0 -173.0 433.0 -156.0 411.0 -121.0 395.0 -85.0 382.0 -52.0 371.0 -8.0 371.0 3.0 378.0 7.0 387.0 3.0 391.0 -8.0 415.0 -37.0 429.0 -72.0 454.0 -129.0 454.0 -148.0 454.0 -173.0 446.0 -173.0 L446.0 -173.0 M411.0 -240.0 L411.0 -240.0 Q371.0 -240.0 371.0 -236.0 373.0 -224.0 413.0 -213.0 460.0 -200.0 496.0 -200.0 550.0 -200.0 575.0 -209.0 603.0 -213.0 603.0 -224.0 603.0 -228.0 591.0 -228.0 485.0 -236.0 411.0 -240.0 L411.0 -240.0 M604.0 -492.0 L604.0 -492.0 Q572.0 -488.0 531.0 -484.0 531.0 -484.0 531.0 -488.0 531.0 -524.0 521.0 -576.0 514.0 -629.0 504.0 -681.0 496.0 -721.0 489.0 -721.0 485.0 -721.0 483.0 -704.0 481.0 -645.0 481.0 -601.0 483.0 -540.0 496.0 -501.0 500.0 -492.0 504.0 -484.0 500.0 -484.0 496.0 -484.0 466.0 -484.0 452.0 -488.0 441.0 -492.0 437.0 -496.0 431.0 -545.0 419.0 -584.0 407.0 -616.0 397.0 -616.0 391.0 -612.0 391.0 -597.0 390.0 -557.0 389.0 -513.0 393.0 -480.0 414.0 -469.0 433.0 -448.0 470.0 -448.0 539.0 -448.0 584.0 -465.0 599.0 -469.0 608.0 -473.0 612.0 -456.0 616.0 -444.0 625.0 -433.0 633.0 -433.0 637.0 -433.0 641.0 -440.0 645.0 -444.0 646.0 -456.0 646.0 -532.0 603.0 -608.0 600.0 -612.0 596.0 -612.0 592.0 -612.0 592.0 -601.0 595.0 -536.0 604.0 -492.0 L604.0 -492.0 M803.0 -33.0 L803.0 -33.0 Q800.0 -24.0 797.0 -20.0 783.0 7.0 774.0 24.0 774.0 32.0 779.0 32.0 784.0 32.0 796.0 24.0 815.0 11.0 829.0 -16.0 845.0 -8.0 858.0 -8.0 912.0 -8.0 916.0 -16.0 916.0 -20.0 891.0 -33.0 869.0 -37.0 846.0 -48.0 852.0 -64.0 856.0 -85.0 862.0 -108.0 863.0 -140.0 863.0 -169.0 858.0 -169.0 853.0 -169.0 851.0 -161.0 843.0 -129.0 824.0 -85.0 821.0 -77.0 817.0 -64.0 798.0 -77.0 780.0 -92.0 762.0 -100.0 759.0 -100.0 755.0 -100.0 755.0 -92.0 763.0 -64.0 803.0 -33.0 803.0 -33.0 803.0 -33.0 L803.0 -33.0 M802.0 -392.0 L802.0 -392.0 Q824.0 -444.0 828.0 -484.0 L828.0 -496.0 Q824.0 -496.0 818.0 -488.0 793.0 -452.0 765.0 -396.0 732.0 -328.0 721.0 -289.0 721.0 -280.0 725.0 -276.0 731.0 -276.0 734.0 -280.0 758.0 -301.0 787.0 -360.0 791.0 -368.0 794.0 -373.0 810.0 -368.0 843.0 -360.0 889.0 -348.0 933.0 -348.0 966.0 -352.0 966.0 -356.0 966.0 -364.0 957.0 -368.0 940.0 -377.0 914.0 -385.0 860.0 -392.0 831.0 -392.0 814.0 -392.0 802.0 -392.0 L802.0 -392.0" fill-rule="evenodd" stroke="none"/>
    </g>
    <g id="font_DFPTongTong-B5__30">
      <path d="M683.0 -408.0 L683.0 -408.0 Q615.0 -396.0 519.0 -356.0 419.0 -308.0 353.0 -268.0 344.0 -264.0 344.0 -260.0 344.0 -253.0 357.0 -253.0 446.0 -272.0 548.0 -320.0 624.0 -345.0 688.0 -400.0 693.0 -404.0 693.0 -408.0 693.0 -408.0 683.0 -408.0 L683.0 -408.0 M720.0 -517.0 L720.0 -517.0 Q653.0 -517.0 653.0 -509.0 653.0 -501.0 689.0 -484.0 718.0 -473.0 735.0 -473.0 760.0 -473.0 760.0 -484.0 760.0 -496.0 748.0 -505.0 733.0 -517.0 720.0 -517.0 L720.0 -517.0 M310.0 -505.0 L310.0 -505.0 Q245.0 -505.0 245.0 -496.0 245.0 -488.0 281.0 -473.0 308.0 -456.0 327.0 -456.0 350.0 -456.0 350.0 -473.0 350.0 -480.0 339.0 -492.0 325.0 -501.0 310.0 -505.0 L310.0 -505.0 M620.0 -648.0 L620.0 -648.0 Q635.0 -692.0 639.0 -725.0 639.0 -736.0 635.0 -736.0 631.0 -736.0 625.0 -725.0 590.0 -660.0 569.0 -608.0 544.0 -545.0 536.0 -496.0 536.0 -480.0 538.0 -476.0 544.0 -476.0 550.0 -488.0 583.0 -524.0 603.0 -601.0 609.0 -616.0 614.0 -629.0 637.0 -624.0 689.0 -612.0 752.0 -605.0 812.0 -605.0 845.0 -605.0 845.0 -612.0 845.0 -616.0 837.0 -620.0 813.0 -633.0 778.0 -637.0 707.0 -645.0 669.0 -648.0 638.0 -648.0 620.0 -648.0 L620.0 -648.0 M231.0 -637.0 L231.0 -637.0 Q259.0 -696.0 263.0 -733.0 263.0 -740.0 259.0 -744.0 256.0 -744.0 246.0 -733.0 220.0 -689.0 179.0 -616.0 131.0 -517.0 120.0 -488.0 120.0 -480.0 124.0 -480.0 128.0 -480.0 133.0 -484.0 164.0 -505.0 203.0 -580.0 215.0 -601.0 224.0 -620.0 244.0 -612.0 291.0 -605.0 345.0 -593.0 397.0 -593.0 430.0 -597.0 430.0 -601.0 430.0 -608.0 422.0 -612.0 401.0 -620.0 371.0 -629.0 308.0 -637.0 275.0 -637.0 248.0 -637.0 231.0 -637.0 L231.0 -637.0 M597.0 -88.0 L597.0 -88.0 Q639.0 -88.0 667.0 -92.0 728.0 -100.0 728.0 -112.0 728.0 -121.0 654.0 -125.0 631.0 -125.0 608.0 -125.0 626.0 -180.0 626.0 -213.0 626.0 -220.0 625.0 -220.0 624.0 -220.0 622.0 -217.0 598.0 -176.0 571.0 -125.0 499.0 -125.0 435.0 -125.0 390.0 -125.0 344.0 -121.0 312.0 -117.0 312.0 -112.0 312.0 -104.0 365.0 -96.0 426.0 -88.0 488.0 -85.0 524.0 -85.0 554.0 -88.0 546.0 -68.0 537.0 -48.0 492.0 64.0 492.0 131.0 492.0 144.0 495.0 144.0 496.0 144.0 498.0 139.0 515.0 112.0 537.0 64.0 543.0 68.0 549.0 76.0 574.0 91.0 587.0 100.0 622.0 116.0 651.0 116.0 686.0 116.0 686.0 104.0 686.0 100.0 665.0 91.0 638.0 84.0 605.0 72.0 578.0 64.0 544.0 47.0 559.0 11.0 577.0 -33.0 588.0 -60.0 597.0 -88.0 L597.0 -88.0" fill-rule="evenodd" stroke="none"/>
    </g>
    <g id="font_DFPTongTong-B5__31">
      <path d="M433.0 -304.0 L433.0 -304.0 Q507.0 -213.0 618.0 -129.0 807.0 7.0 867.0 7.0 878.0 7.0 878.0 -1.0 785.0 -64.0 665.0 -161.0 536.0 -249.0 440.0 -316.0 606.0 -589.0 627.0 -677.0 630.0 -685.0 630.0 -692.0 625.0 -692.0 620.0 -685.0 508.0 -545.0 389.0 -320.0 296.0 -169.0 221.0 20.0 218.0 32.0 218.0 40.0 228.0 40.0 234.0 28.0 343.0 -140.0 433.0 -304.0 L433.0 -304.0" fill-rule="evenodd" stroke="none"/>
    </g>
  </defs>
</svg>
