<?xml version="1.0" encoding="UTF-8" standalone="no"?>
<svg xmlns:xlink="http://www.w3.org/1999/xlink" height="96.65px" width="252.05px" xmlns="http://www.w3.org/2000/svg">
  <g transform="matrix(1.0, 0.0, 0.0, 1.0, -7.15, 0.3)">
    <g transform="matrix(1.0, 0.0, 0.0, 1.0, 0.0, 0.0)">
      <use fill="#ffffff" height="96.65" transform="matrix(0.0426, 0.0, 0.0, 0.0426, 21.8, 35.0)" width="252.05" xlink:href="#font_DFPTongTong-B5__1"/>
      <use fill="#ffffff" height="96.65" transform="matrix(0.0426, 0.0, 0.0, 0.0426, 65.4, 35.0)" width="252.05" xlink:href="#font_DFPTongTong-B5__2"/>
      <use fill="#ffffff" height="96.65" transform="matrix(0.0426, 0.0, 0.0, 0.0426, 109.0, 35.0)" width="252.05" xlink:href="#font_DFPTongTong-B5__3"/>
      <use fill="#ffffff" height="96.65" transform="matrix(0.0426, 0.0, 0.0, 0.0426, 152.6, 35.0)" width="252.05" xlink:href="#font_DFPTongTong-B5__4"/>
      <use fill="#ffffff" height="96.65" transform="matrix(0.0426, 0.0, 0.0, 0.0426, 196.2, 35.0)" width="252.05" xlink:href="#font_DFPTongTong-B5__5"/>
    </g>
    <g transform="matrix(1.0, 0.0, 0.0, 1.0, 0.0, 0.0)">
      <use fill="#ffffff" height="96.65" transform="matrix(0.0426, 0.0, 0.0, 0.0426, 0.0, 88.0)" width="252.05" xlink:href="#font_DFPTongTong-B5__6"/>
    </g>
    <g transform="matrix(1.0, 0.0, 0.0, 1.0, 0.0, 0.0)">
      <use fill="#ff6648" height="96.65" transform="matrix(0.0436, 0.0, 0.0, 0.0436, 43.6, 88.0)" width="252.05" xlink:href="#font_DFPTongTong-B5__7"/>
      <use fill="#ff6648" height="96.65" transform="matrix(0.0436, 0.0, 0.0, 0.0436, 88.2, 88.0)" width="252.05" xlink:href="#font_DFPTongTong-B5__8"/>
    </g>
    <g transform="matrix(1.0, 0.0, 0.0, 1.0, 0.0, 0.0)">
      <use fill="#ffffff" height="96.65" transform="matrix(0.0426, 0.0, 0.0, 0.0426, 132.8, 88.0)" width="252.05" xlink:href="#font_DFPTongTong-B5__9"/>
      <use fill="#ffffff" height="96.65" transform="matrix(0.0426, 0.0, 0.0, 0.0426, 176.4, 88.0)" width="252.05" xlink:href="#font_DFPTongTong-B5__10"/>
      <use fill="#ffffff" height="96.65" transform="matrix(0.0426, 0.0, 0.0, 0.0426, 220.0, 88.0)" width="252.05" xlink:href="#font_DFPTongTong-B5__11"/>
    </g>
  </g>
  <defs>
    <g id="font_DFPTongTong-B5__1">
      <path d="M783.0 -620.0 L783.0 -620.0 Q776.0 -620.0 776.0 -616.0 777.0 -605.0 799.0 -584.0 813.0 -572.0 824.0 -561.0 856.0 -536.0 884.0 -536.0 902.0 -536.0 902.0 -549.0 902.0 -572.0 852.0 -601.0 806.0 -620.0 783.0 -620.0 L783.0 -620.0 M499.0 -681.0 L499.0 -681.0 Q453.0 -668.0 312.0 -612.0 189.0 -564.0 134.0 -536.0 119.0 -532.0 119.0 -524.0 119.0 -520.0 128.0 -520.0 239.0 -536.0 342.0 -580.0 430.0 -608.0 503.0 -664.0 509.0 -668.0 512.0 -677.0 508.0 -681.0 499.0 -681.0 L499.0 -681.0 M647.0 -341.0 L647.0 -341.0 Q536.0 -337.0 417.0 -333.0 385.0 -333.0 355.0 -328.0 350.0 -373.0 343.0 -404.0 327.0 -469.0 317.0 -469.0 315.0 -465.0 315.0 -461.0 321.0 -389.0 325.0 -328.0 244.0 -324.0 188.0 -320.0 142.0 -308.0 138.0 -304.0 140.0 -289.0 239.0 -289.0 278.0 -289.0 327.0 -289.0 334.0 -192.0 336.0 -112.0 329.0 -108.0 322.0 -104.0 219.0 -64.0 174.0 -41.0 161.0 -33.0 161.0 -28.0 161.0 -24.0 169.0 -24.0 256.0 -37.0 337.0 -77.0 339.0 -33.0 339.0 3.0 339.0 32.0 330.0 40.0 323.0 40.0 323.0 47.0 325.0 51.0 331.0 51.0 344.0 56.0 358.0 56.0 383.0 51.0 383.0 20.0 383.0 -12.0 378.0 -72.0 377.0 -81.0 377.0 -92.0 431.0 -117.0 478.0 -152.0 484.0 -156.0 486.0 -165.0 484.0 -169.0 476.0 -169.0 446.0 -161.0 375.0 -129.0 371.0 -184.0 367.0 -232.0 364.0 -264.0 360.0 -293.0 374.0 -293.0 388.0 -293.0 544.0 -297.0 651.0 -304.0 664.0 -196.0 693.0 -108.0 700.0 -88.0 708.0 -68.0 646.0 -20.0 614.0 3.0 610.0 7.0 610.0 16.0 612.0 20.0 618.0 20.0 677.0 -4.0 724.0 -33.0 772.0 60.0 848.0 72.0 888.0 72.0 890.0 43.0 890.0 36.0 884.0 36.0 871.0 43.0 852.0 43.0 799.0 28.0 758.0 -56.0 814.0 -104.0 840.0 -144.0 846.0 -156.0 846.0 -165.0 840.0 -165.0 833.0 -161.0 799.0 -136.0 742.0 -96.0 738.0 -104.0 735.0 -112.0 709.0 -213.0 692.0 -308.0 791.0 -316.0 836.0 -328.0 852.0 -333.0 852.0 -341.0 852.0 -345.0 829.0 -345.0 758.0 -345.0 686.0 -341.0 675.0 -421.0 670.0 -492.0 668.0 -517.0 664.0 -540.0 659.0 -564.0 655.0 -564.0 651.0 -564.0 642.0 -480.0 642.0 -408.0 647.0 -341.0 L647.0 -341.0" fill-rule="evenodd" stroke="none"/>
    </g>
    <g id="font_DFPTongTong-B5__2">
      <path d="M655.0 -81.0 L655.0 -81.0 Q659.0 -81.0 665.0 -77.0 689.0 -72.0 711.0 -72.0 749.0 -72.0 750.0 -88.0 750.0 -96.0 732.0 -100.0 707.0 -104.0 673.0 -104.0 664.0 -104.0 656.0 -100.0 656.0 -144.0 653.0 -196.0 653.0 -200.0 653.0 -205.0 658.0 -200.0 669.0 -200.0 732.0 -200.0 738.0 -180.0 749.0 -156.0 763.0 -52.0 781.0 51.0 781.0 100.0 781.0 120.0 772.0 128.0 772.0 139.0 791.0 139.0 803.0 139.0 814.0 128.0 823.0 120.0 823.0 108.0 823.0 76.0 811.0 -4.0 804.0 -52.0 785.0 -156.0 774.0 -220.0 722.0 -220.0 697.0 -220.0 676.0 -220.0 659.0 -217.0 652.0 -213.0 650.0 -232.0 646.0 -232.0 642.0 -232.0 640.0 -217.0 632.0 -161.0 618.0 -52.0 610.0 24.0 610.0 95.0 614.0 131.0 623.0 131.0 634.0 128.0 645.0 56.0 647.0 36.0 649.0 7.0 676.0 16.0 699.0 16.0 740.0 16.0 741.0 -1.0 741.0 -8.0 724.0 -12.0 695.0 -16.0 658.0 -16.0 654.0 -16.0 651.0 -16.0 654.0 -48.0 655.0 -81.0 L655.0 -81.0 M465.0 -553.0 L465.0 -553.0 Q489.0 -549.0 515.0 -549.0 947.0 -549.0 949.0 -564.0 949.0 -576.0 911.0 -580.0 873.0 -589.0 798.0 -589.0 643.0 -593.0 490.0 -597.0 559.0 -721.0 570.0 -773.0 572.0 -777.0 572.0 -780.0 570.0 -780.0 566.0 -777.0 506.0 -700.0 443.0 -597.0 325.0 -597.0 206.0 -597.0 78.0 -597.0 78.0 -584.0 78.0 -568.0 259.0 -561.0 328.0 -553.0 419.0 -553.0 391.0 -505.0 364.0 -452.0 282.0 -312.0 215.0 -144.0 214.0 -140.0 214.0 -132.0 220.0 -132.0 223.0 -140.0 321.0 -293.0 401.0 -444.0 437.0 -501.0 465.0 -553.0 L465.0 -553.0" fill-rule="evenodd" stroke="none"/>
    </g>
    <g id="font_DFPTongTong-B5__3">
      <path d="M508.0 -100.0 L508.0 -100.0 Q504.0 -100.0 504.0 -96.0 508.0 -72.0 542.0 -41.0 566.0 -16.0 588.0 -16.0 602.0 -16.0 602.0 -33.0 602.0 -41.0 586.0 -52.0 563.0 -68.0 542.0 -81.0 515.0 -100.0 508.0 -100.0 L508.0 -100.0 M519.0 -272.0 L519.0 -272.0 Q515.0 -272.0 515.0 -268.0 532.0 -245.0 553.0 -217.0 574.0 -192.0 586.0 -192.0 601.0 -192.0 602.0 -209.0 602.0 -232.0 579.0 -253.0 548.0 -268.0 519.0 -272.0 L519.0 -272.0 M717.0 -121.0 L717.0 -121.0 Q736.0 -121.0 756.0 -121.0 792.0 -121.0 824.0 -125.0 845.0 -125.0 847.0 -129.0 844.0 -136.0 787.0 -144.0 754.0 -148.0 717.0 -148.0 718.0 -184.0 718.0 -209.0 718.0 -268.0 716.0 -293.0 711.0 -341.0 603.0 -348.0 541.0 -348.0 473.0 -345.0 464.0 -345.0 464.0 -341.0 464.0 -337.0 521.0 -324.0 552.0 -316.0 591.0 -312.0 614.0 -308.0 652.0 -308.0 677.0 -304.0 677.0 -289.0 677.0 -213.0 676.0 -152.0 643.0 -156.0 608.0 -161.0 555.0 -165.0 447.0 -169.0 449.0 -188.0 450.0 -209.0 453.0 -257.0 454.0 -301.0 454.0 -356.0 441.0 -356.0 432.0 -356.0 422.0 -301.0 415.0 -257.0 411.0 -213.0 409.0 -188.0 407.0 -173.0 355.0 -176.0 293.0 -176.0 248.0 -176.0 217.0 -176.0 193.0 -176.0 193.0 -173.0 193.0 -161.0 404.0 -140.0 404.0 -136.0 404.0 -129.0 404.0 -64.0 413.0 -28.0 423.0 3.0 438.0 20.0 457.0 36.0 482.0 43.0 520.0 51.0 610.0 51.0 640.0 51.0 670.0 47.0 666.0 64.0 656.0 68.0 652.0 68.0 652.0 76.0 666.0 87.0 684.0 87.0 708.0 84.0 712.0 36.0 714.0 36.0 716.0 36.0 748.0 24.0 752.0 11.0 752.0 3.0 733.0 3.0 723.0 7.0 714.0 7.0 714.0 7.0 714.0 7.0 716.0 -68.0 717.0 -121.0 L717.0 -121.0 M446.0 -136.0 L446.0 -136.0 Q549.0 -129.0 676.0 -121.0 675.0 -117.0 675.0 -108.0 675.0 -37.0 674.0 7.0 674.0 11.0 673.0 16.0 667.0 16.0 658.0 16.0 626.0 20.0 584.0 20.0 560.0 20.0 522.0 16.0 484.0 11.0 472.0 3.0 456.0 -8.0 451.0 -41.0 446.0 -72.0 446.0 -136.0 446.0 -136.0 446.0 -136.0 L446.0 -136.0 M378.0 -576.0 L378.0 -576.0 Q413.0 -568.0 494.0 -557.0 580.0 -540.0 692.0 -536.0 728.0 -536.0 760.0 -540.0 781.0 -540.0 782.0 -545.0 781.0 -553.0 746.0 -561.0 698.0 -568.0 640.0 -576.0 588.0 -584.0 450.0 -597.0 414.0 -597.0 387.0 -593.0 419.0 -660.0 426.0 -712.0 L426.0 -717.0 Q426.0 -717.0 425.0 -712.0 377.0 -660.0 327.0 -568.0 267.0 -465.0 245.0 -400.0 245.0 -396.0 246.0 -396.0 247.0 -396.0 247.0 -396.0 292.0 -429.0 348.0 -524.0 365.0 -549.0 378.0 -576.0 L378.0 -576.0" fill-rule="evenodd" stroke="none"/>
    </g>
    <g id="font_DFPTongTong-B5__4">
      <path d="M334.0 -28.0 L334.0 -28.0 Q324.0 -117.0 307.0 -257.0 310.0 -257.0 314.0 -257.0 358.0 -245.0 402.0 -245.0 488.0 -245.0 528.0 -253.0 572.0 -260.0 572.0 -272.0 572.0 -280.0 520.0 -284.0 434.0 -284.0 366.0 -284.0 335.0 -284.0 304.0 -280.0 304.0 -280.0 304.0 -280.0 288.0 -444.0 271.0 -561.0 266.0 -589.0 256.0 -589.0 249.0 -589.0 249.0 -528.0 249.0 -373.0 267.0 -228.0 289.0 -85.0 319.0 7.0 326.0 16.0 333.0 16.0 339.0 16.0 339.0 7.0 338.0 -1.0 336.0 -12.0 356.0 -8.0 375.0 -4.0 395.0 -1.0 512.0 -1.0 649.0 -1.0 720.0 -16.0 784.0 -33.0 791.0 -48.0 791.0 -52.0 744.0 -52.0 711.0 -52.0 674.0 -48.0 687.0 -72.0 691.0 -121.0 706.0 -192.0 722.0 -364.0 732.0 -469.0 732.0 -517.0 732.0 -576.0 686.0 -593.0 664.0 -601.0 592.0 -608.0 534.0 -612.0 429.0 -620.0 336.0 -620.0 336.0 -608.0 336.0 -601.0 397.0 -580.0 460.0 -568.0 521.0 -564.0 621.0 -557.0 651.0 -557.0 678.0 -553.0 678.0 -517.0 678.0 -436.0 670.0 -297.0 666.0 -220.0 659.0 -148.0 655.0 -92.0 653.0 -60.0 653.0 -52.0 654.0 -48.0 593.0 -45.0 521.0 -41.0 375.0 -37.0 334.0 -28.0 L334.0 -28.0" fill-rule="evenodd" stroke="none"/>
    </g>
    <g id="font_DFPTongTong-B5__5">
      <path d="M222.0 -381.0 L222.0 -381.0 Q240.0 -389.0 257.0 -396.0 339.0 -433.0 365.0 -461.0 371.0 -461.0 373.0 -469.0 373.0 -476.0 352.0 -476.0 295.0 -465.0 234.0 -436.0 193.0 -417.0 151.0 -389.0 123.0 -373.0 123.0 -364.0 125.0 -360.0 134.0 -360.0 171.0 -364.0 202.0 -377.0 210.0 -264.0 230.0 -176.0 248.0 -112.0 260.0 -88.0 266.0 -81.0 271.0 -81.0 278.0 -85.0 278.0 -92.0 273.0 -148.0 260.0 -228.0 250.0 -297.0 227.0 -368.0 224.0 -377.0 222.0 -381.0 L222.0 -381.0 M796.0 -196.0 L796.0 -196.0 Q754.0 -196.0 705.0 -196.0 695.0 -196.0 686.0 -196.0 690.0 -217.0 694.0 -236.0 699.0 -260.0 703.0 -280.0 713.0 -280.0 722.0 -280.0 741.0 -276.0 754.0 -272.0 773.0 -272.0 786.0 -272.0 801.0 -272.0 801.0 -268.0 801.0 -232.0 796.0 -200.0 796.0 -196.0 796.0 -196.0 L796.0 -196.0 M638.0 -196.0 L638.0 -196.0 Q616.0 -196.0 596.0 -196.0 594.0 -205.0 590.0 -220.0 582.0 -249.0 569.0 -284.0 567.0 -297.0 563.0 -304.0 564.0 -304.0 565.0 -304.0 584.0 -297.0 618.0 -293.0 639.0 -289.0 657.0 -289.0 647.0 -240.0 638.0 -196.0 L638.0 -196.0 M756.0 -532.0 L756.0 -532.0 Q805.0 -528.0 859.0 -524.0 896.0 -524.0 931.0 -528.0 953.0 -532.0 954.0 -532.0 953.0 -545.0 911.0 -553.0 852.0 -557.0 780.0 -568.0 772.0 -568.0 763.0 -568.0 777.0 -652.0 781.0 -692.0 781.0 -696.0 779.0 -696.0 777.0 -696.0 764.0 -677.0 746.0 -629.0 729.0 -572.0 664.0 -580.0 549.0 -589.0 501.0 -589.0 468.0 -584.0 442.0 -584.0 442.0 -580.0 442.0 -568.0 617.0 -545.0 665.0 -540.0 718.0 -532.0 694.0 -448.0 671.0 -348.0 668.0 -337.0 664.0 -320.0 629.0 -320.0 596.0 -320.0 568.0 -320.0 556.0 -316.0 555.0 -320.0 554.0 -320.0 544.0 -337.0 540.0 -337.0 536.0 -337.0 536.0 -324.0 536.0 -301.0 538.0 -280.0 542.0 -249.0 550.0 -213.0 558.0 -184.0 565.0 -169.0 578.0 -152.0 584.0 -152.0 588.0 -152.0 592.0 -161.0 594.0 -165.0 595.0 -169.0 614.0 -169.0 633.0 -169.0 610.0 -52.0 595.0 43.0 543.0 28.0 498.0 11.0 492.0 11.0 492.0 24.0 521.0 51.0 590.0 80.0 586.0 108.0 583.0 135.0 583.0 144.0 587.0 144.0 591.0 144.0 604.0 124.0 609.0 104.0 614.0 87.0 678.0 112.0 774.0 112.0 844.0 108.0 844.0 91.0 844.0 87.0 784.0 84.0 721.0 80.0 646.0 60.0 635.0 56.0 625.0 56.0 653.0 -52.0 679.0 -169.0 702.0 -169.0 724.0 -169.0 781.0 -169.0 815.0 -176.0 848.0 -184.0 848.0 -188.0 848.0 -192.0 825.0 -196.0 828.0 -200.0 829.0 -205.0 841.0 -236.0 841.0 -272.0 841.0 -297.0 801.0 -308.0 763.0 -312.0 712.0 -316.0 739.0 -440.0 756.0 -532.0 L756.0 -532.0" fill-rule="evenodd" stroke="none"/>
    </g>
    <g id="font_DFPTongTong-B5__6">
      <path d="M231.0 -601.0 L231.0 -601.0 Q225.0 -601.0 221.0 -589.0 198.0 -440.0 182.0 -304.0 169.0 -129.0 168.0 -16.0 168.0 40.0 175.0 40.0 187.0 40.0 196.0 7.0 207.0 -92.0 222.0 -268.0 242.0 -488.0 242.0 -564.0 240.0 -601.0 231.0 -601.0 L231.0 -601.0 M503.0 -192.0 L503.0 -192.0 Q466.0 -192.0 430.0 -192.0 410.0 -188.0 410.0 -184.0 410.0 -173.0 464.0 -165.0 482.0 -161.0 504.0 -161.0 505.0 -140.0 507.0 -117.0 511.0 -72.0 517.0 -52.0 522.0 -37.0 528.0 -37.0 535.0 -37.0 541.0 -52.0 547.0 -72.0 549.0 -96.0 549.0 -125.0 548.0 -161.0 577.0 -165.0 592.0 -169.0 613.0 -176.0 613.0 -184.0 611.0 -192.0 584.0 -192.0 565.0 -192.0 547.0 -192.0 546.0 -224.0 544.0 -260.0 574.0 -257.0 604.0 -257.0 637.0 -260.0 637.0 -264.0 637.0 -272.0 629.0 -276.0 607.0 -284.0 575.0 -293.0 557.0 -297.0 542.0 -297.0 536.0 -345.0 524.0 -385.0 517.0 -417.0 509.0 -417.0 505.0 -417.0 503.0 -400.0 499.0 -360.0 499.0 -337.0 499.0 -320.0 499.0 -301.0 484.0 -301.0 474.0 -301.0 407.0 -301.0 407.0 -293.0 407.0 -284.0 492.0 -268.0 496.0 -268.0 500.0 -268.0 500.0 -257.0 501.0 -245.0 502.0 -220.0 503.0 -192.0 L503.0 -192.0 M413.0 -612.0 L413.0 -612.0 Q274.0 -612.0 267.0 -601.0 270.0 -589.0 345.0 -580.0 435.0 -568.0 503.0 -568.0 636.0 -568.0 712.0 -561.0 760.0 -561.0 761.0 -536.0 782.0 -469.0 801.0 -228.0 816.0 -92.0 819.0 3.0 819.0 51.0 804.0 76.0 804.0 84.0 822.0 84.0 842.0 80.0 851.0 68.0 862.0 56.0 864.0 28.0 864.0 -64.0 846.0 -260.0 827.0 -452.0 809.0 -545.0 795.0 -589.0 689.0 -597.0 582.0 -608.0 413.0 -612.0 L413.0 -612.0" fill-rule="evenodd" stroke="none"/>
    </g>
    <g id="font_DFPTongTong-B5__7">
      <path d="M335.0 -284.0 L335.0 -284.0 Q337.0 -293.0 337.0 -301.0 337.0 -337.0 323.0 -404.0 315.0 -440.0 303.0 -469.0 295.0 -480.0 291.0 -480.0 287.0 -480.0 287.0 -465.0 289.0 -385.0 291.0 -345.0 293.0 -308.0 303.0 -289.0 304.0 -289.0 305.0 -284.0 291.0 -284.0 275.0 -284.0 147.0 -284.0 147.0 -272.0 147.0 -257.0 298.0 -249.0 382.0 -236.0 508.0 -236.0 604.0 -236.0 676.0 -240.0 677.0 -217.0 679.0 -192.0 679.0 -176.0 680.0 -165.0 633.0 -144.0 501.0 -64.0 395.0 -1.0 366.0 36.0 364.0 47.0 364.0 56.0 373.0 56.0 376.0 56.0 474.0 -1.0 555.0 -48.0 640.0 -100.0 681.0 -144.0 688.0 -41.0 688.0 3.0 688.0 68.0 666.0 76.0 662.0 80.0 662.0 84.0 670.0 95.0 694.0 95.0 728.0 87.0 728.0 20.0 728.0 -100.0 714.0 -236.0 714.0 -236.0 714.0 -240.0 864.0 -245.0 865.0 -253.0 865.0 -264.0 827.0 -268.0 790.0 -276.0 714.0 -276.0 713.0 -280.0 712.0 -280.0 707.0 -373.0 697.0 -440.0 675.0 -528.0 662.0 -528.0 657.0 -528.0 657.0 -513.0 657.0 -469.0 666.0 -404.0 668.0 -364.0 673.0 -280.0 503.0 -280.0 335.0 -284.0 L335.0 -284.0 M422.0 -645.0 L422.0 -645.0 Q382.0 -645.0 301.0 -641.0 260.0 -637.0 260.0 -633.0 260.0 -624.0 371.0 -608.0 459.0 -601.0 609.0 -597.0 693.0 -597.0 733.0 -601.0 777.0 -605.0 777.0 -608.0 777.0 -616.0 686.0 -629.0 572.0 -641.0 422.0 -645.0 L422.0 -645.0" fill-rule="evenodd" stroke="none"/>
    </g>
    <g id="font_DFPTongTong-B5__8">
      <path d="M835.0 11.0 L835.0 11.0 Q829.0 11.0 829.0 16.0 849.0 36.0 872.0 47.0 895.0 64.0 926.0 64.0 954.0 60.0 956.0 51.0 956.0 40.0 935.0 32.0 913.0 28.0 887.0 24.0 845.0 11.0 835.0 11.0 L835.0 11.0 M916.0 -112.0 L916.0 -112.0 Q895.0 -104.0 866.0 -85.0 840.0 -64.0 836.0 -48.0 836.0 -37.0 845.0 -37.0 853.0 -37.0 866.0 -45.0 882.0 -56.0 893.0 -64.0 920.0 -88.0 926.0 -104.0 926.0 -112.0 916.0 -112.0 L916.0 -112.0 M518.0 -92.0 L518.0 -92.0 Q473.0 -88.0 473.0 -81.0 473.0 -72.0 497.0 -68.0 535.0 -60.0 547.0 -52.0 557.0 -48.0 557.0 -37.0 557.0 -16.0 543.0 11.0 535.0 28.0 523.0 51.0 514.0 68.0 514.0 72.0 514.0 76.0 519.0 76.0 537.0 72.0 549.0 56.0 568.0 40.0 580.0 16.0 590.0 -1.0 596.0 -16.0 604.0 -37.0 604.0 -52.0 604.0 -81.0 566.0 -88.0 550.0 -92.0 518.0 -92.0 L518.0 -92.0 M711.0 -161.0 L711.0 -161.0 Q709.0 -156.0 709.0 -152.0 731.0 -20.0 731.0 51.0 731.0 76.0 697.0 84.0 690.0 84.0 690.0 91.0 693.0 95.0 699.0 95.0 716.0 104.0 732.0 104.0 773.0 100.0 773.0 68.0 773.0 51.0 768.0 24.0 764.0 -16.0 757.0 -48.0 749.0 -104.0 735.0 -132.0 720.0 -161.0 711.0 -161.0 L711.0 -161.0 M712.0 -377.0 L712.0 -377.0 Q696.0 -436.0 688.0 -465.0 684.0 -469.0 677.0 -469.0 673.0 -465.0 673.0 -452.0 684.0 -364.0 695.0 -308.0 708.0 -257.0 722.0 -257.0 725.0 -260.0 727.0 -268.0 760.0 -268.0 787.0 -268.0 816.0 -268.0 831.0 -272.0 848.0 -280.0 848.0 -289.0 848.0 -289.0 834.0 -293.0 839.0 -297.0 842.0 -308.0 849.0 -348.0 851.0 -400.0 851.0 -444.0 798.0 -456.0 753.0 -465.0 726.0 -465.0 712.0 -465.0 712.0 -461.0 712.0 -452.0 728.0 -444.0 760.0 -433.0 797.0 -425.0 811.0 -421.0 811.0 -408.0 811.0 -392.0 811.0 -373.0 760.0 -377.0 712.0 -377.0 L712.0 -377.0 M729.0 -293.0 L729.0 -293.0 Q729.0 -293.0 729.0 -293.0 729.0 -312.0 720.0 -348.0 L765.0 -348.0 Q788.0 -348.0 811.0 -352.0 812.0 -333.0 812.0 -308.0 812.0 -297.0 814.0 -293.0 797.0 -293.0 778.0 -293.0 753.0 -293.0 729.0 -293.0 L729.0 -293.0 M696.0 -717.0 L696.0 -717.0 Q636.0 -685.0 563.0 -616.0 504.0 -557.0 478.0 -509.0 478.0 -501.0 483.0 -501.0 488.0 -501.0 496.0 -505.0 525.0 -524.0 593.0 -593.0 650.0 -648.0 703.0 -704.0 706.0 -708.0 706.0 -712.0 703.0 -717.0 696.0 -717.0 L696.0 -717.0 M163.0 -100.0 L163.0 -100.0 Q144.0 -88.0 122.0 -56.0 96.0 -16.0 92.0 11.0 92.0 20.0 98.0 20.0 118.0 20.0 144.0 -24.0 169.0 -72.0 169.0 -92.0 169.0 -100.0 163.0 -100.0 L163.0 -100.0 M339.0 -85.0 L339.0 -85.0 Q331.0 -85.0 331.0 -81.0 332.0 -72.0 343.0 -60.0 350.0 -52.0 356.0 -45.0 373.0 -28.0 387.0 -28.0 410.0 -28.0 410.0 -41.0 410.0 -56.0 380.0 -72.0 352.0 -85.0 339.0 -85.0 L339.0 -85.0 M229.0 -381.0 L229.0 -381.0 Q144.0 -392.0 144.0 -429.0 144.0 -440.0 183.0 -509.0 204.0 -540.0 225.0 -580.0 241.0 -620.0 241.0 -641.0 241.0 -660.0 234.0 -660.0 L228.0 -652.0 Q210.0 -620.0 179.0 -576.0 156.0 -536.0 135.0 -509.0 112.0 -469.0 106.0 -440.0 106.0 -368.0 211.0 -352.0 209.0 -348.0 207.0 -345.0 170.0 -276.0 170.0 -249.0 178.0 -196.0 234.0 -192.0 234.0 -184.0 234.0 -176.0 234.0 -144.0 237.0 -108.0 240.0 -68.0 243.0 -37.0 247.0 3.0 253.0 24.0 267.0 60.0 282.0 64.0 287.0 64.0 288.0 36.0 288.0 7.0 276.0 -60.0 269.0 -117.0 254.0 -173.0 252.0 -184.0 250.0 -188.0 304.0 -192.0 344.0 -220.0 346.0 -220.0 347.0 -217.0 375.0 -184.0 392.0 -184.0 407.0 -184.0 409.0 -192.0 409.0 -213.0 388.0 -232.0 366.0 -257.0 341.0 -276.0 318.0 -293.0 309.0 -293.0 302.0 -293.0 302.0 -284.0 302.0 -276.0 324.0 -249.0 325.0 -245.0 327.0 -240.0 286.0 -228.0 256.0 -228.0 206.0 -228.0 206.0 -253.0 206.0 -272.0 232.0 -304.0 265.0 -345.0 287.0 -385.0 316.0 -444.0 316.0 -480.0 316.0 -492.0 314.0 -496.0 307.0 -496.0 278.0 -456.0 251.0 -412.0 229.0 -381.0 L229.0 -381.0" fill-rule="evenodd" stroke="none"/>
    </g>
    <g id="font_DFPTongTong-B5__9">
      <path d="M309.0 -601.0 L309.0 -601.0 Q305.0 -601.0 296.0 -589.0 255.0 -549.0 188.0 -469.0 112.0 -368.0 93.0 -333.0 93.0 -324.0 97.0 -324.0 101.0 -324.0 108.0 -328.0 156.0 -352.0 217.0 -433.0 303.0 -536.0 313.0 -589.0 313.0 -601.0 309.0 -601.0 L309.0 -601.0 M330.0 -64.0 L330.0 -64.0 Q335.0 -72.0 339.0 -85.0 351.0 -129.0 354.0 -188.0 354.0 -236.0 290.0 -253.0 237.0 -260.0 205.0 -260.0 198.0 -260.0 194.0 -257.0 184.0 -276.0 180.0 -276.0 176.0 -276.0 176.0 -264.0 176.0 -228.0 178.0 -200.0 182.0 -161.0 190.0 -108.0 199.0 -68.0 207.0 -48.0 218.0 -33.0 224.0 -33.0 228.0 -33.0 232.0 -41.0 233.0 -45.0 234.0 -45.0 239.0 -45.0 244.0 -45.0 272.0 -37.0 296.0 -37.0 340.0 -37.0 342.0 -52.0 342.0 -60.0 330.0 -64.0 L330.0 -64.0 M309.0 -132.0 L309.0 -132.0 Q308.0 -108.0 306.0 -81.0 306.0 -72.0 307.0 -68.0 283.0 -68.0 253.0 -68.0 245.0 -68.0 239.0 -68.0 237.0 -81.0 230.0 -117.0 229.0 -121.0 227.0 -129.0 245.0 -125.0 269.0 -125.0 291.0 -125.0 309.0 -132.0 L309.0 -132.0 M202.0 -236.0 L202.0 -236.0 Q204.0 -236.0 207.0 -232.0 247.0 -220.0 293.0 -213.0 311.0 -209.0 311.0 -192.0 311.0 -176.0 311.0 -156.0 305.0 -156.0 299.0 -156.0 283.0 -156.0 264.0 -156.0 253.0 -156.0 229.0 -152.0 226.0 -152.0 223.0 -152.0 217.0 -180.0 211.0 -209.0 207.0 -224.0 202.0 -236.0 L202.0 -236.0 M575.0 -469.0 L575.0 -469.0 Q588.0 -465.0 605.0 -456.0 660.0 -440.0 742.0 -425.0 787.0 -417.0 836.0 -408.0 867.0 -400.0 870.0 -381.0 874.0 -320.0 876.0 -253.0 878.0 -184.0 880.0 -104.0 880.0 28.0 847.0 40.0 847.0 47.0 852.0 47.0 869.0 56.0 888.0 56.0 921.0 40.0 921.0 -200.0 921.0 -320.0 913.0 -385.0 905.0 -440.0 812.0 -461.0 756.0 -469.0 691.0 -473.0 631.0 -480.0 584.0 -484.0 618.0 -549.0 632.0 -616.0 632.0 -620.0 631.0 -620.0 629.0 -620.0 626.0 -616.0 578.0 -557.0 528.0 -473.0 489.0 -389.0 458.0 -304.0 458.0 -301.0 460.0 -301.0 462.0 -301.0 464.0 -301.0 518.0 -360.0 554.0 -433.0 565.0 -448.0 575.0 -469.0 L575.0 -469.0 M592.0 -140.0 L592.0 -140.0 Q584.0 -140.0 584.0 -136.0 586.0 -125.0 607.0 -108.0 622.0 -96.0 634.0 -88.0 666.0 -64.0 693.0 -64.0 716.0 -64.0 716.0 -77.0 716.0 -96.0 664.0 -121.0 615.0 -140.0 592.0 -140.0 L592.0 -140.0" fill-rule="evenodd" stroke="none"/>
    </g>
    <g id="font_DFPTongTong-B5__10">
      <path d="M681.0 -513.0 L681.0 -513.0 Q649.0 -505.0 617.0 -484.0 573.0 -456.0 573.0 -448.0 573.0 -444.0 590.0 -444.0 622.0 -448.0 653.0 -465.0 673.0 -473.0 684.0 -484.0 695.0 -496.0 695.0 -509.0 694.0 -513.0 681.0 -513.0 L681.0 -513.0 M726.0 -425.0 L726.0 -425.0 Q702.0 -425.0 640.0 -392.0 611.0 -377.0 611.0 -364.0 613.0 -360.0 634.0 -356.0 664.0 -360.0 684.0 -377.0 716.0 -400.0 729.0 -421.0 729.0 -425.0 726.0 -425.0 L726.0 -425.0 M222.0 -505.0 L222.0 -505.0 Q190.0 -496.0 159.0 -476.0 115.0 -448.0 115.0 -440.0 115.0 -436.0 130.0 -436.0 162.0 -440.0 194.0 -456.0 214.0 -465.0 224.0 -476.0 237.0 -488.0 237.0 -501.0 236.0 -505.0 222.0 -505.0 L222.0 -505.0 M267.0 -417.0 L267.0 -417.0 Q244.0 -417.0 181.0 -385.0 153.0 -368.0 153.0 -356.0 154.0 -352.0 175.0 -348.0 204.0 -352.0 225.0 -368.0 257.0 -392.0 270.0 -412.0 270.0 -417.0 267.0 -417.0 L267.0 -417.0 M570.0 -268.0 L570.0 -268.0 Q492.0 -228.0 396.0 -148.0 317.0 -77.0 285.0 -20.0 285.0 -16.0 289.0 -16.0 293.0 -16.0 299.0 -20.0 338.0 -45.0 429.0 -125.0 506.0 -188.0 577.0 -257.0 579.0 -260.0 579.0 -264.0 577.0 -268.0 570.0 -268.0 L570.0 -268.0 M541.0 40.0 L541.0 40.0 Q527.0 -1.0 507.0 -41.0 499.0 -60.0 493.0 -60.0 488.0 -60.0 488.0 -48.0 498.0 36.0 522.0 100.0 542.0 148.0 556.0 168.0 560.0 171.0 563.0 171.0 567.0 171.0 567.0 164.0 566.0 156.0 565.0 148.0 571.0 148.0 580.0 152.0 612.0 156.0 641.0 156.0 690.0 156.0 692.0 135.0 692.0 128.0 677.0 128.0 674.0 128.0 672.0 128.0 673.0 124.0 675.0 120.0 687.0 80.0 690.0 32.0 690.0 -20.0 630.0 -37.0 580.0 -45.0 549.0 -45.0 532.0 -41.0 532.0 -37.0 532.0 -33.0 551.0 -20.0 588.0 -4.0 631.0 3.0 647.0 7.0 647.0 24.0 647.0 36.0 647.0 43.0 610.0 40.0 564.0 40.0 550.0 40.0 541.0 40.0 L541.0 40.0 M562.0 128.0 L562.0 128.0 Q557.0 100.0 547.0 64.0 547.0 60.0 547.0 60.0 550.0 60.0 554.0 64.0 586.0 68.0 613.0 68.0 634.0 68.0 646.0 64.0 645.0 91.0 643.0 120.0 643.0 124.0 643.0 128.0 618.0 128.0 591.0 128.0 572.0 128.0 562.0 128.0 L562.0 128.0 M203.0 -673.0 L203.0 -673.0 Q125.0 -673.0 125.0 -664.0 127.0 -656.0 160.0 -645.0 177.0 -641.0 226.0 -637.0 263.0 -633.0 288.0 -629.0 357.0 -616.0 359.0 -561.0 366.0 -505.0 374.0 -429.0 378.0 -381.0 378.0 -328.0 378.0 -301.0 370.0 -289.0 370.0 -280.0 378.0 -280.0 418.0 -289.0 418.0 -337.0 418.0 -429.0 406.0 -545.0 406.0 -645.0 315.0 -664.0 272.0 -673.0 203.0 -673.0 L203.0 -673.0 M637.0 -664.0 L637.0 -664.0 Q544.0 -664.0 544.0 -656.0 546.0 -645.0 587.0 -637.0 609.0 -633.0 669.0 -629.0 715.0 -624.0 744.0 -620.0 815.0 -608.0 817.0 -561.0 823.0 -509.0 833.0 -429.0 837.0 -381.0 837.0 -333.0 837.0 -301.0 828.0 -293.0 828.0 -284.0 837.0 -284.0 877.0 -289.0 877.0 -337.0 877.0 -433.0 862.0 -545.0 862.0 -637.0 773.0 -652.0 721.0 -660.0 637.0 -664.0 L637.0 -664.0" fill-rule="evenodd" stroke="none"/>
    </g>
    <g id="font_DFPTongTong-B5__11">
      <path d="M155.0 -392.0 L155.0 -392.0 Q151.0 -392.0 144.0 -381.0 128.0 -352.0 110.0 -308.0 90.0 -260.0 90.0 -228.0 90.0 -188.0 98.0 -188.0 104.0 -188.0 109.0 -196.0 121.0 -224.0 139.0 -284.0 159.0 -348.0 159.0 -373.0 159.0 -392.0 155.0 -392.0 L155.0 -392.0 M254.0 -364.0 L254.0 -364.0 Q252.0 -484.0 245.0 -549.0 237.0 -589.0 228.0 -589.0 222.0 -589.0 220.0 -549.0 215.0 -364.0 215.0 -192.0 218.0 -104.0 224.0 -68.0 232.0 -20.0 243.0 -20.0 251.0 -20.0 253.0 -60.0 253.0 -88.0 257.0 -176.0 257.0 -264.0 255.0 -333.0 268.0 -320.0 283.0 -308.0 313.0 -289.0 336.0 -289.0 361.0 -289.0 361.0 -297.0 361.0 -308.0 330.0 -324.0 312.0 -333.0 294.0 -345.0 269.0 -356.0 254.0 -364.0 L254.0 -364.0 M657.0 -668.0 L657.0 -668.0 Q680.0 -664.0 706.0 -660.0 732.0 -656.0 732.0 -641.0 732.0 -616.0 729.0 -593.0 728.0 -584.0 727.0 -580.0 688.0 -580.0 648.0 -580.0 658.0 -637.0 658.0 -660.0 657.0 -664.0 657.0 -668.0 L657.0 -668.0 M545.0 -584.0 L545.0 -584.0 Q555.0 -629.0 559.0 -696.0 574.0 -689.0 607.0 -681.0 621.0 -677.0 637.0 -673.0 622.0 -629.0 612.0 -589.0 611.0 -584.0 610.0 -580.0 578.0 -580.0 545.0 -584.0 L545.0 -584.0 M603.0 -452.0 L603.0 -452.0 Q569.0 -456.0 554.0 -461.0 523.0 -469.0 523.0 -488.0 526.0 -509.0 536.0 -549.0 568.0 -545.0 605.0 -545.0 602.0 -517.0 601.0 -496.0 601.0 -469.0 603.0 -452.0 L603.0 -452.0 M713.0 -452.0 L713.0 -452.0 Q679.0 -452.0 645.0 -452.0 632.0 -452.0 621.0 -452.0 625.0 -461.0 628.0 -473.0 634.0 -501.0 642.0 -545.0 686.0 -545.0 723.0 -545.0 721.0 -524.0 718.0 -501.0 715.0 -473.0 713.0 -452.0 L713.0 -452.0 M496.0 -549.0 L496.0 -549.0 Q486.0 -501.0 486.0 -488.0 486.0 -452.0 525.0 -440.0 572.0 -425.0 645.0 -425.0 691.0 -425.0 712.0 -436.0 712.0 -412.0 723.0 -412.0 730.0 -412.0 737.0 -433.0 752.0 -480.0 765.0 -545.0 919.0 -549.0 921.0 -557.0 921.0 -568.0 888.0 -572.0 856.0 -576.0 792.0 -576.0 781.0 -576.0 771.0 -576.0 782.0 -629.0 782.0 -645.0 782.0 -664.0 759.0 -677.0 737.0 -692.0 679.0 -704.0 642.0 -712.0 609.0 -712.0 574.0 -712.0 560.0 -708.0 558.0 -736.0 554.0 -736.0 552.0 -736.0 546.0 -725.0 514.0 -637.0 502.0 -584.0 484.0 -584.0 468.0 -584.0 359.0 -584.0 359.0 -572.0 359.0 -561.0 476.0 -553.0 485.0 -553.0 496.0 -549.0 L496.0 -549.0 M642.0 -4.0 L642.0 -4.0 Q651.0 -1.0 669.0 3.0 686.0 7.0 701.0 7.0 689.0 24.0 677.0 47.0 648.0 104.0 644.0 139.0 644.0 152.0 649.0 152.0 671.0 148.0 700.0 87.0 708.0 72.0 713.0 56.0 724.0 72.0 748.0 91.0 776.0 120.0 800.0 120.0 812.0 120.0 812.0 104.0 812.0 100.0 795.0 84.0 769.0 68.0 745.0 51.0 729.0 40.0 720.0 32.0 723.0 20.0 725.0 7.0 733.0 11.0 741.0 11.0 800.0 11.0 803.0 -4.0 803.0 -12.0 785.0 -16.0 788.0 -20.0 791.0 -28.0 821.0 -121.0 831.0 -245.0 831.0 -297.0 764.0 -312.0 707.0 -320.0 673.0 -320.0 656.0 -316.0 656.0 -312.0 656.0 -308.0 674.0 -297.0 718.0 -280.0 768.0 -272.0 788.0 -268.0 788.0 -253.0 788.0 -156.0 759.0 -28.0 759.0 -24.0 759.0 -20.0 724.0 -24.0 682.0 -24.0 658.0 -20.0 646.0 -20.0 648.0 -28.0 649.0 -45.0 649.0 -77.0 649.0 -121.0 658.0 -117.0 672.0 -112.0 701.0 -104.0 730.0 -104.0 758.0 -108.0 758.0 -112.0 758.0 -117.0 751.0 -121.0 739.0 -129.0 722.0 -136.0 685.0 -140.0 666.0 -144.0 656.0 -144.0 648.0 -144.0 648.0 -169.0 648.0 -200.0 656.0 -196.0 668.0 -192.0 697.0 -184.0 726.0 -184.0 754.0 -184.0 754.0 -188.0 754.0 -196.0 746.0 -200.0 735.0 -209.0 718.0 -213.0 681.0 -220.0 662.0 -220.0 653.0 -220.0 647.0 -220.0 645.0 -264.0 642.0 -304.0 636.0 -337.0 630.0 -337.0 624.0 -337.0 617.0 -297.0 613.0 -260.0 609.0 -180.0 609.0 -45.0 622.0 -4.0 628.0 11.0 632.0 11.0 638.0 11.0 642.0 -4.0 L642.0 -4.0" fill-rule="evenodd" stroke="none"/>
    </g>
  </defs>
</svg>
