<?xml version="1.0" encoding="UTF-8" standalone="no"?>
<svg xmlns:xlink="http://www.w3.org/1999/xlink" height="16.9px" width="175.3px" xmlns="http://www.w3.org/2000/svg">
  <g transform="matrix(1.0, 0.0, 0.0, 1.0, 17.55, 1.5)">
    <g transform="matrix(1.0, 0.0, 0.0, 1.0, -18.1, 0.0)">
      <use fill="#000000" height="16.9" transform="matrix(0.0146, 0.0, 0.0, 0.0146, 0.0, 13.0)" width="175.3" xlink:href="#font_DFPOP3_Std_W12__0"/>
      <use fill="#000000" height="16.9" transform="matrix(0.0146, 0.0, 0.0, 0.0146, 15.0, 13.0)" width="175.3" xlink:href="#font_DFPOP3_Std_W12__1"/>
      <use fill="#000000" height="16.9" transform="matrix(0.0146, 0.0, 0.0, 0.0146, 30.0, 13.0)" width="175.3" xlink:href="#font_DFPOP3_Std_W12__2"/>
      <use fill="#000000" height="16.9" transform="matrix(0.0146, 0.0, 0.0, 0.0146, 45.0, 13.0)" width="175.3" xlink:href="#font_DFPOP3_Std_W12__3"/>
      <use fill="#000000" height="16.9" transform="matrix(0.0146, 0.0, 0.0, 0.0146, 60.0, 13.0)" width="175.3" xlink:href="#font_DFPOP3_Std_W12__4"/>
      <use fill="#000000" height="16.9" transform="matrix(0.0146, 0.0, 0.0, 0.0146, 75.0, 13.0)" width="175.3" xlink:href="#font_DFPOP3_Std_W12__5"/>
      <use fill="#000000" height="16.9" transform="matrix(0.0146, 0.0, 0.0, 0.0146, 90.0, 13.0)" width="175.3" xlink:href="#font_DFPOP3_Std_W12__6"/>
      <use fill="#000000" height="16.9" transform="matrix(0.0146, 0.0, 0.0, 0.0146, 105.0, 13.0)" width="175.3" xlink:href="#font_DFPOP3_Std_W12__7"/>
      <use fill="#000000" height="16.9" transform="matrix(0.0146, 0.0, 0.0, 0.0146, 120.0, 13.0)" width="175.3" xlink:href="#font_DFPOP3_Std_W12__8"/>
      <use fill="#000000" height="16.9" transform="matrix(0.0146, 0.0, 0.0, 0.0146, 135.0, 13.0)" width="175.3" xlink:href="#font_DFPOP3_Std_W12__9"/>
      <use fill="#000000" height="16.9" transform="matrix(0.0146, 0.0, 0.0, 0.0146, 150.0, 13.0)" width="175.3" xlink:href="#font_DFPOP3_Std_W12__10"/>
      <use fill="#000000" height="16.9" transform="matrix(0.0146, 0.0, 0.0, 0.0146, 165.0, 13.0)" width="175.3" xlink:href="#font_DFPOP3_Std_W12__11"/>
    </g>
  </g>
  <defs>
    <g id="font_DFPOP3_Std_W12__0">
      <path d="M518.0 -132.0 Q480.5 -93.0 445.0 -57.0 409.5 -20.5 376.0 12.5 434.0 30.5 483.5 30.5 512.5 30.5 514.0 -6.0 515.5 -31.5 516.5 -63.0 517.5 -94.5 518.0 -132.0 M504.0 -617.5 Q648.0 -617.5 795.5 -605.0 L795.5 -545.0 Q648.0 -557.0 504.0 -557.0 477.5 -529.5 453.0 -504.0 428.5 -478.0 405.5 -453.5 426.5 -457.0 447.0 -459.0 467.5 -460.5 487.5 -461.0 L512.0 -461.0 Q556.0 -460.5 586.5 -452.5 617.0 -444.5 635.0 -429.0 647.0 -416.5 656.5 -394.5 665.5 -372.5 671.5 -341.0 704.0 -366.5 737.0 -394.5 770.0 -423.0 804.0 -453.5 L919.5 -353.5 Q875.0 -318.0 834.5 -287.5 794.0 -257.0 759.0 -231.5 860.0 -119.5 980.0 -13.5 L852.0 95.0 Q756.5 -3.0 677.0 -101.5 674.0 -50.5 670.5 -9.0 667.5 17.0 659.5 36.0 651.5 55.5 638.0 68.5 625.0 78.0 603.5 83.5 582.0 89.5 553.0 91.0 L531.5 91.0 Q491.5 91.0 442.5 81.5 393.0 71.5 335.0 53.0 321.0 66.5 308.0 78.5 295.0 91.0 283.5 102.5 L175.0 18.5 Q256.5 -54.0 341.0 -137.5 426.0 -221.0 514.0 -316.5 512.5 -325.5 510.5 -334.0 508.5 -342.5 507.0 -350.0 313.5 -150.5 159.5 -9.0 L51.0 -93.0 Q131.0 -157.5 215.5 -233.5 299.5 -310.0 388.0 -397.5 376.0 -395.0 363.5 -392.0 351.0 -389.0 339.0 -386.0 290.5 -337.5 246.0 -294.5 201.0 -251.5 159.5 -213.0 L51.0 -297.0 Q116.0 -351.5 184.0 -415.0 252.0 -479.0 322.5 -552.0 294.0 -550.5 266.5 -548.5 239.0 -546.5 212.0 -545.0 L212.0 -605.0 Q356.5 -617.5 504.0 -617.5 M431.0 -840.5 L599.0 -840.5 599.0 -760.0 Q611.5 -760.0 623.0 -760.5 634.5 -761.0 645.0 -761.0 L660.5 -761.0 Q742.0 -761.0 801.0 -753.0 859.5 -745.5 895.0 -730.0 972.0 -693.0 972.0 -613.5 970.5 -573.5 968.5 -537.5 966.5 -501.0 963.5 -469.0 L799.5 -469.0 Q804.5 -510.5 807.5 -546.5 810.0 -582.5 811.0 -613.5 811.0 -643.5 797.0 -662.0 783.5 -680.5 755.5 -688.0 729.5 -694.5 693.0 -698.0 656.0 -701.5 609.5 -701.5 531.5 -701.5 425.0 -689.0 318.0 -677.0 181.0 -652.5 180.0 -641.0 179.5 -630.0 179.0 -619.5 179.0 -609.5 179.0 -571.0 183.0 -533.0 187.0 -495.0 195.5 -456.5 L47.0 -456.5 Q39.5 -495.0 35.5 -533.0 31.5 -571.0 31.5 -609.5 31.5 -647.0 35.5 -684.5 39.5 -722.5 47.0 -761.0 L195.5 -761.0 Q192.5 -748.5 190.5 -736.5 189.0 -724.5 187.5 -712.5 255.0 -723.5 316.0 -732.5 376.5 -741.5 431.0 -747.5 L431.0 -840.5" fill-rule="evenodd" stroke="none"/>
    </g>
    <g id="font_DFPOP3_Std_W12__1">
      <path d="M592.0 -636.0 L592.0 -240.5 Q638.5 -240.0 685.0 -239.0 731.0 -238.0 777.0 -236.5 783.5 -341.0 783.5 -433.0 783.5 -494.0 774.0 -535.0 765.0 -576.5 746.5 -598.0 729.0 -617.0 701.0 -627.0 673.5 -637.0 636.0 -637.0 625.0 -637.0 614.0 -636.5 602.5 -636.0 592.0 -636.0 M214.0 -233.5 Q267.5 -236.0 321.0 -237.5 374.0 -239.0 427.0 -239.5 L427.0 -625.5 Q376.5 -620.5 323.0 -613.0 270.0 -606.0 214.0 -597.0 211.0 -551.0 209.5 -506.0 208.0 -461.0 208.0 -417.0 208.0 -370.5 209.5 -324.5 211.0 -279.0 214.0 -233.5 M63.5 -709.5 L223.0 -709.5 Q221.5 -695.5 220.5 -682.0 219.0 -668.5 218.0 -656.5 275.5 -664.0 328.0 -671.0 380.0 -677.5 427.0 -683.0 L427.0 -833.5 592.0 -833.5 592.0 -695.5 Q609.0 -696.0 625.0 -696.5 641.0 -697.5 656.5 -697.5 L695.5 -697.5 Q762.0 -697.5 809.5 -685.0 857.0 -673.0 884.5 -649.0 943.0 -600.0 943.0 -477.0 943.0 -411.0 941.0 -349.5 938.5 -288.0 934.0 -230.5 938.5 -229.5 942.5 -229.5 947.0 -229.5 951.5 -229.5 L951.5 -169.0 Q770.0 -179.5 592.0 -181.0 L592.0 91.0 427.0 91.0 427.0 -180.0 Q374.0 -178.5 322.0 -177.0 269.5 -175.5 218.0 -173.0 219.0 -160.5 220.5 -148.5 221.5 -136.5 223.0 -125.0 L63.5 -125.0 Q55.0 -198.0 51.0 -271.0 47.0 -344.0 47.0 -417.0 47.0 -489.5 51.0 -563.0 55.0 -636.0 63.5 -709.5" fill-rule="evenodd" stroke="none"/>
    </g>
    <g id="font_DFPOP3_Std_W12__2">
      <path d="M632.0 -425.0 Q673.5 -374.5 710.0 -325.5 747.0 -277.0 779.5 -229.5 L659.5 -145.5 Q627.0 -194.0 591.0 -241.5 555.0 -289.5 515.0 -337.0 L632.0 -425.0 M188.5 -374.0 Q207.0 -375.5 226.0 -376.0 244.5 -377.0 263.0 -377.0 278.5 -377.0 294.0 -376.0 309.0 -375.5 324.5 -375.0 327.5 -479.0 327.5 -565.0 327.5 -603.0 307.5 -622.0 287.5 -641.0 248.0 -641.0 223.0 -638.0 195.5 -632.0 192.5 -566.5 190.5 -502.0 188.5 -437.5 188.5 -374.0 M193.5 -21.5 Q219.5 -23.0 246.0 -24.5 272.0 -25.5 298.0 -25.5 L309.0 -25.5 Q313.0 -104.0 316.5 -176.5 319.5 -248.5 322.5 -315.5 307.0 -316.0 292.5 -317.0 277.5 -317.5 263.0 -317.5 244.0 -317.5 225.0 -316.0 206.0 -315.0 187.5 -313.5 L187.5 -301.0 Q187.5 -159.5 193.5 -21.5 M219.0 -829.5 L363.5 -813.0 Q357.5 -785.5 349.0 -757.0 341.0 -728.5 331.0 -699.5 366.0 -696.5 391.5 -688.0 417.5 -679.5 434.0 -665.5 454.0 -648.0 464.5 -624.0 475.0 -600.0 475.0 -569.5 L475.0 -536.5 Q502.0 -610.0 523.0 -684.5 544.0 -758.5 559.0 -833.5 L707.5 -817.0 Q702.0 -793.5 696.0 -769.5 690.0 -746.0 684.0 -723.0 721.0 -729.0 751.5 -729.0 831.5 -729.0 880.0 -707.0 928.5 -685.0 945.0 -642.0 969.5 -568.5 976.0 -362.5 976.0 -195.0 957.5 -34.0 951.5 30.5 914.0 63.0 876.5 95.0 808.0 95.0 754.0 95.0 690.5 89.0 626.5 83.0 552.0 70.5 L552.0 11.5 Q605.5 23.0 645.5 29.0 685.5 35.0 711.5 35.0 753.0 32.0 776.0 17.5 799.0 3.5 803.0 -22.5 806.0 -62.5 808.0 -107.5 810.5 -153.0 812.0 -203.0 815.0 -295.0 815.0 -362.5 813.0 -464.0 806.5 -530.0 800.5 -596.5 790.5 -628.5 783.5 -648.5 760.5 -658.5 738.0 -668.5 699.5 -668.5 691.5 -668.0 683.5 -667.0 675.5 -666.0 667.5 -664.5 650.0 -606.0 629.0 -547.0 608.0 -488.0 583.5 -429.0 L474.0 -457.5 Q472.5 -357.0 468.0 -246.5 463.5 -136.0 456.5 -15.5 460.5 -14.5 464.5 -14.0 468.0 -13.5 471.0 -13.5 L471.0 47.0 Q427.5 41.0 384.0 38.0 341.0 35.0 298.0 35.0 272.0 35.0 246.5 35.5 221.0 36.5 196.5 39.0 197.5 53.0 198.0 67.0 199.0 81.5 199.5 95.0 L55.5 95.0 Q43.0 -103.0 43.0 -301.0 43.0 -497.5 55.5 -697.5 L188.5 -697.5 Q207.0 -763.5 219.0 -829.5" fill-rule="evenodd" stroke="none"/>
    </g>
    <g id="font_DFPOP3_Std_W12__3">
      <path d="M570.5 -309.0 Q569.5 -290.0 569.0 -272.5 568.5 -255.0 568.5 -239.5 618.0 -239.5 668.0 -238.0 718.0 -237.0 768.0 -234.5 L768.0 -240.5 Q768.0 -277.0 749.5 -295.0 731.5 -313.5 695.5 -313.5 664.5 -312.5 633.5 -311.5 602.5 -311.0 570.5 -309.0 M224.5 -232.5 Q272.5 -234.5 321.0 -236.5 369.0 -238.0 417.0 -239.5 417.0 -253.5 417.5 -268.5 418.0 -284.0 419.0 -300.0 372.5 -296.0 325.0 -292.0 277.5 -288.0 228.5 -283.5 227.0 -270.0 225.5 -257.5 224.5 -244.5 224.5 -232.5 M567.5 -180.0 Q566.5 -157.0 566.0 -138.0 565.5 -119.5 565.0 -105.5 614.5 -105.5 663.0 -104.0 711.5 -103.0 760.0 -101.5 763.0 -141.5 766.0 -175.0 715.0 -177.5 665.5 -179.0 615.5 -180.0 567.5 -180.0 M227.5 -96.5 Q273.5 -98.5 320.0 -100.0 366.5 -102.0 412.5 -103.5 412.5 -119.0 413.5 -138.0 414.0 -157.0 414.5 -180.0 366.5 -178.5 318.5 -177.0 271.0 -175.5 223.0 -173.0 223.0 -153.0 224.0 -134.0 225.0 -114.5 227.5 -96.5 M655.5 -525.5 Q681.5 -504.5 713.0 -483.5 745.0 -463.0 783.5 -441.5 L726.0 -372.5 743.5 -372.5 Q791.0 -372.5 825.5 -364.0 859.5 -355.0 879.5 -338.0 899.5 -321.0 909.5 -298.0 919.5 -274.5 919.5 -244.5 919.5 -177.0 910.5 -94.0 916.5 -94.0 922.0 -93.5 927.0 -93.0 932.0 -93.0 L932.0 -33.0 Q746.0 -45.0 563.0 -45.0 563.5 -23.0 567.5 -8.0 572.0 6.5 579.5 14.5 587.5 23.5 599.5 29.0 611.5 34.0 627.5 35.0 740.0 35.0 972.0 7.0 L967.5 70.5 Q848.0 83.0 751.0 89.0 654.0 95.0 579.5 95.0 L549.0 95.0 Q516.0 95.0 489.5 83.0 463.5 70.5 443.5 46.0 428.0 30.5 420.0 8.5 412.5 -14.0 411.5 -43.0 367.0 -41.5 322.5 -40.0 278.5 -38.5 234.5 -37.0 235.5 -28.5 236.5 -20.5 238.0 -13.0 239.5 -5.0 L91.0 -5.0 Q83.5 -49.5 79.5 -95.0 76.0 -140.0 76.0 -185.5 76.0 -230.0 79.5 -275.0 83.5 -320.0 91.0 -365.5 L239.5 -365.5 Q238.0 -359.5 237.5 -354.0 236.5 -348.5 236.5 -343.0 395.5 -357.0 513.0 -364.5 631.0 -372.0 707.5 -372.5 675.5 -391.0 646.5 -411.5 618.0 -432.0 592.0 -453.5 L655.5 -525.5 M275.5 -521.0 Q327.5 -481.5 407.5 -441.5 L343.0 -365.5 Q307.0 -384.5 274.0 -405.5 241.0 -426.5 212.0 -449.5 L275.5 -521.0 M512.0 -829.5 Q736.5 -829.5 963.5 -817.0 L963.5 -756.5 Q868.5 -761.5 773.0 -764.5 678.0 -767.5 583.5 -769.0 L583.5 -711.5 Q600.0 -711.5 615.0 -712.0 630.5 -712.5 645.0 -712.5 L660.5 -712.5 Q742.0 -712.5 801.0 -705.5 859.5 -698.0 895.0 -684.0 972.0 -650.0 972.0 -573.5 970.0 -527.5 965.0 -486.5 960.0 -445.5 951.5 -409.5 L795.5 -409.5 Q806.5 -456.5 812.0 -497.5 817.5 -538.0 819.0 -573.5 819.0 -600.5 805.0 -617.0 790.5 -634.0 763.0 -641.0 747.5 -644.0 728.5 -646.5 709.5 -649.0 688.0 -651.5 712.0 -630.5 741.0 -610.0 770.0 -589.5 804.0 -569.5 L743.5 -496.5 Q669.5 -539.5 611.5 -589.0 L667.5 -652.5 Q654.5 -652.5 641.0 -653.0 627.0 -653.0 613.5 -653.5 L583.5 -653.5 583.5 -393.0 435.0 -393.0 435.0 -643.0 Q383.0 -637.0 327.5 -631.0 350.0 -614.0 376.0 -597.5 402.0 -581.5 431.0 -565.0 L371.5 -493.5 Q335.0 -512.5 302.0 -533.5 269.0 -554.5 239.5 -577.5 L281.5 -624.5 Q260.0 -621.5 238.0 -618.5 216.0 -615.5 194.5 -612.5 191.5 -580.0 191.5 -551.0 191.5 -513.0 195.5 -476.0 199.5 -438.5 208.0 -401.5 L59.5 -401.5 Q51.0 -438.5 47.0 -476.0 43.0 -513.0 43.0 -551.0 43.0 -588.0 47.0 -625.5 51.0 -663.0 59.5 -701.5 L208.0 -701.5 Q206.5 -694.0 205.0 -687.0 203.5 -680.0 203.0 -674.0 267.0 -683.0 325.0 -690.0 383.0 -697.0 435.0 -701.5 L435.0 -768.0 Q341.0 -767.0 247.0 -764.5 153.0 -761.5 59.5 -756.5 L59.5 -817.0 Q172.5 -823.5 285.5 -826.5 398.5 -829.5 512.0 -829.5" fill-rule="evenodd" stroke="none"/>
    </g>
    <g id="font_DFPOP3_Std_W12__4">
      <path d="M776.0 -182.5 Q792.5 -170.0 808.5 -158.5 825.0 -147.0 841.5 -136.0 842.0 -174.5 842.5 -209.5 843.0 -244.5 844.0 -275.5 827.5 -250.0 811.0 -227.0 794.0 -203.5 776.0 -182.5 M528.5 -14.5 Q577.5 -17.5 626.0 -19.5 675.0 -21.5 724.0 -21.5 781.0 -21.5 837.5 -18.5 837.5 -61.5 840.5 -101.5 L764.0 -37.0 Q745.5 -50.0 728.0 -63.0 710.5 -76.5 695.5 -90.0 681.5 -75.0 666.5 -59.5 651.5 -44.0 636.0 -28.5 L531.5 -105.5 Q551.5 -124.0 568.5 -140.5 585.5 -156.5 600.0 -172.0 581.5 -188.0 564.0 -204.5 547.0 -220.5 531.5 -237.5 L623.5 -305.0 Q637.5 -293.0 651.5 -280.5 665.5 -268.5 680.0 -257.0 695.5 -275.5 710.0 -295.5 725.0 -315.5 739.5 -337.0 L844.0 -283.5 844.0 -297.0 Q843.5 -327.0 824.5 -342.0 805.5 -357.5 768.0 -357.5 717.5 -354.5 657.5 -345.5 598.0 -337.0 529.5 -322.5 526.5 -282.5 525.0 -243.0 523.5 -203.5 523.5 -165.0 523.0 -126.5 524.5 -89.0 525.5 -51.0 528.5 -14.5 M588.0 -465.0 L703.5 -429.0 Q698.0 -423.0 693.5 -417.5 688.5 -412.0 684.0 -407.5 716.5 -412.0 742.5 -414.5 769.0 -417.0 789.5 -417.0 L808.0 -417.0 Q852.5 -417.0 884.0 -409.0 915.5 -401.5 935.0 -386.0 953.5 -370.5 962.5 -349.5 972.0 -328.0 972.0 -301.0 971.5 -237.5 969.5 -164.5 967.5 -91.5 964.5 -10.0 967.5 -10.0 970.0 -9.5 973.0 -9.5 976.0 -9.0 L976.0 51.0 Q850.0 39.0 724.0 39.0 675.5 39.0 628.0 40.5 580.5 42.5 533.5 46.0 533.5 52.0 534.0 58.5 535.0 64.5 535.5 70.5 L407.5 70.5 Q401.5 12.5 398.5 -46.5 395.5 -105.5 395.5 -165.0 395.5 -283.0 407.5 -401.5 L535.5 -401.5 Q535.0 -398.5 534.5 -395.5 534.5 -392.0 534.5 -389.0 552.0 -409.0 565.5 -428.0 578.5 -446.5 588.0 -465.0 M855.0 -837.5 L967.5 -761.0 Q946.0 -736.5 927.5 -713.0 909.0 -690.0 893.0 -668.5 883.5 -655.0 883.5 -641.0 883.5 -637.0 887.5 -631.0 891.5 -624.5 899.0 -615.5 916.5 -594.0 936.0 -570.5 955.0 -547.5 976.0 -521.0 L867.5 -441.5 Q840.5 -484.5 817.5 -522.5 794.5 -560.5 775.0 -593.0 765.0 -608.0 760.5 -620.0 755.5 -632.0 755.5 -641.0 755.5 -652.5 761.5 -668.0 767.0 -683.5 779.5 -703.5 791.5 -724.5 810.0 -758.0 829.0 -791.5 855.0 -837.5 M667.5 -845.0 L779.5 -777.0 Q756.5 -745.5 737.0 -718.0 717.5 -690.5 701.5 -666.5 695.5 -654.5 695.5 -645.0 695.0 -643.0 697.0 -639.0 699.0 -635.0 703.5 -630.0 719.5 -607.5 738.5 -583.5 757.5 -559.5 779.5 -533.5 L676.0 -449.5 Q648.0 -492.5 623.5 -531.5 599.0 -570.5 577.5 -605.0 572.0 -615.0 569.5 -625.0 567.5 -635.0 567.5 -645.0 567.5 -650.0 569.5 -658.5 572.0 -667.5 577.5 -680.0 596.0 -713.0 619.0 -754.5 641.5 -795.5 667.5 -845.0 M479.0 -840.5 L599.0 -781.5 Q579.0 -747.0 561.5 -715.5 543.5 -684.0 527.5 -655.5 525.0 -652.0 524.0 -649.5 523.0 -646.5 523.5 -645.0 523.0 -642.0 524.0 -638.5 525.0 -635.0 527.5 -632.0 542.5 -604.0 561.5 -570.5 580.0 -536.5 603.0 -496.5 L479.0 -441.5 Q454.5 -496.0 435.5 -540.5 416.5 -584.5 402.5 -618.5 398.5 -625.5 397.0 -632.0 395.0 -639.0 395.5 -645.0 395.0 -650.5 397.0 -657.0 398.5 -663.0 402.5 -670.5 417.0 -703.0 436.0 -745.5 455.5 -788.5 479.0 -840.5 M170.0 -546.0 Q182.5 -547.5 195.0 -548.0 208.0 -549.0 221.0 -549.0 228.0 -549.0 235.0 -548.5 242.0 -548.0 249.0 -548.0 246.5 -584.5 244.0 -624.0 241.5 -663.0 238.5 -704.5 234.5 -728.5 225.0 -740.5 215.0 -752.5 199.5 -752.5 195.0 -752.0 189.0 -751.0 183.0 -750.0 176.0 -748.5 171.5 -647.0 170.0 -546.0 M169.0 -278.5 Q195.0 -281.5 221.0 -281.5 229.5 -281.5 238.0 -281.0 246.5 -280.5 255.0 -280.5 255.0 -300.5 255.5 -321.0 256.0 -341.5 256.0 -361.5 255.5 -390.5 254.5 -422.5 253.5 -454.5 252.0 -488.5 244.0 -488.5 236.5 -489.0 229.0 -489.5 221.0 -489.5 195.0 -489.5 169.0 -486.5 168.0 -457.0 168.0 -429.0 168.0 -400.5 168.0 -372.5 168.0 -349.0 168.0 -325.0 168.0 -301.5 169.0 -278.5 M51.0 -833.5 L179.0 -833.5 Q178.5 -826.0 178.5 -819.0 178.0 -811.5 178.0 -805.0 196.0 -808.5 210.5 -811.0 224.5 -813.0 235.5 -813.0 L243.5 -813.0 Q302.0 -813.0 333.5 -790.0 365.0 -767.5 368.5 -722.0 375.0 -648.0 378.5 -558.0 382.5 -468.0 384.0 -361.5 384.0 -220.0 381.0 -127.5 378.5 -34.5 374.0 9.0 370.0 50.0 340.5 70.5 311.5 91.0 256.0 91.0 L195.5 91.0 195.5 30.5 215.0 30.5 Q226.5 30.5 234.0 23.0 241.5 15.5 244.5 1.0 248.0 -50.5 250.5 -105.5 253.5 -161.0 255.0 -220.0 246.0 -220.0 237.5 -220.5 229.0 -221.0 221.0 -221.0 208.0 -221.0 195.0 -220.5 182.5 -219.5 170.0 -218.0 171.0 -140.5 173.0 -64.5 175.5 12.0 179.0 87.0 L51.0 87.0 Q45.0 -28.0 42.5 -143.0 40.0 -257.5 40.0 -372.5 40.0 -488.0 42.5 -603.0 45.0 -718.5 51.0 -833.5" fill-rule="evenodd" stroke="none"/>
    </g>
    <g id="font_DFPOP3_Std_W12__5">
      <path d="M342.0 -359.5 Q392.5 -362.5 443.0 -364.0 493.0 -365.5 543.5 -365.5 594.5 -365.5 644.5 -364.0 695.0 -362.5 745.5 -359.5 743.0 -406.5 737.5 -435.5 732.0 -464.5 723.0 -476.0 711.5 -488.5 700.0 -494.5 688.0 -500.5 676.0 -500.5 605.0 -499.5 523.0 -492.0 441.0 -485.0 347.0 -471.0 345.5 -442.5 344.0 -415.0 343.0 -387.0 342.0 -359.5 M340.0 -167.0 Q390.5 -170.0 441.0 -171.5 491.0 -173.0 541.5 -173.0 592.5 -173.0 643.5 -171.5 695.0 -170.0 746.5 -167.0 746.5 -194.5 747.0 -224.0 747.5 -253.0 747.5 -284.5 L747.5 -299.0 Q695.5 -302.0 644.5 -303.5 593.5 -305.0 543.5 -305.0 441.0 -305.0 341.0 -299.0 340.5 -278.5 340.0 -258.5 340.0 -238.5 340.0 -219.0 340.0 -191.5 340.0 -167.0 M512.0 -733.0 Q736.5 -733.0 963.5 -721.0 L963.5 -661.5 Q850.0 -667.0 737.0 -670.0 624.0 -672.5 512.0 -673.0 L443.5 -673.0 Q422.0 -633.5 402.0 -598.5 382.0 -563.0 363.5 -532.5 471.0 -546.5 571.0 -553.5 671.0 -560.5 764.0 -561.0 L781.5 -561.0 Q814.5 -561.0 837.5 -551.5 860.5 -541.5 873.5 -522.0 890.5 -497.5 899.0 -438.0 907.5 -378.5 907.5 -284.5 907.5 -208.0 905.0 -142.5 902.5 -77.5 898.0 -24.5 895.0 6.0 886.0 29.0 877.0 52.0 862.0 67.5 831.5 92.0 767.0 95.0 L743.5 95.0 Q705.0 95.0 656.5 93.0 607.5 91.0 548.0 87.0 L548.0 26.5 Q589.5 30.5 626.0 32.5 663.0 35.0 695.5 35.0 716.5 35.0 728.0 23.5 739.0 12.0 740.5 -10.0 742.0 -31.0 743.0 -55.0 744.0 -79.0 745.5 -106.5 694.0 -109.5 643.0 -111.0 592.5 -112.5 541.5 -112.5 491.0 -112.5 441.0 -111.0 391.0 -110.0 342.0 -107.5 343.0 -56.0 345.0 -6.0 347.5 44.5 351.0 95.0 L208.0 95.0 Q201.5 17.0 198.5 -62.0 195.5 -140.5 195.5 -219.0 L195.5 -270.5 Q183.5 -252.0 171.0 -233.5 L43.0 -325.5 Q88.5 -384.0 130.5 -445.0 173.0 -506.5 213.0 -569.5 229.0 -594.0 244.5 -619.0 260.0 -644.5 275.5 -669.5 221.0 -668.0 167.0 -666.0 113.0 -664.0 59.5 -661.5 L59.5 -721.0 Q122.5 -724.0 185.5 -727.0 248.5 -729.5 312.5 -731.0 328.5 -759.0 344.5 -787.0 360.5 -815.5 376.0 -845.0 L519.0 -809.0 Q508.5 -789.0 498.0 -770.0 487.0 -751.0 477.0 -733.0 L512.0 -733.0" fill-rule="evenodd" stroke="none"/>
    </g>
    <g id="font_DFPOP3_Std_W12__6">
      <path d="M655.5 -728.0 L655.5 -840.5 804.0 -840.5 804.0 -728.0 Q845.5 -726.5 887.5 -723.5 929.5 -720.5 972.0 -717.0 L972.0 -657.5 Q929.5 -661.0 887.5 -663.5 845.5 -666.0 804.0 -667.5 L804.0 -492.5 Q842.0 -491.0 880.0 -488.0 918.0 -485.0 955.5 -481.5 L955.5 -421.0 Q900.0 -427.0 844.5 -430.0 788.5 -433.0 733.0 -433.0 622.5 -433.0 512.0 -421.0 L512.0 -481.5 Q547.5 -485.0 583.5 -487.5 619.0 -490.0 655.5 -491.5 L655.5 -667.5 Q615.5 -666.0 575.5 -663.5 535.5 -660.5 495.5 -657.5 L495.5 -717.0 Q535.5 -720.5 575.5 -723.5 615.5 -726.5 655.5 -728.0 M323.5 -840.5 L464.0 -840.5 464.0 -393.0 607.0 -393.0 607.0 -316.5 Q697.0 -315.0 787.0 -312.5 877.0 -309.5 967.5 -305.0 L967.5 -244.5 Q877.0 -249.5 786.5 -252.5 696.5 -255.0 607.0 -256.0 690.0 -191.5 776.0 -133.0 775.5 -135.5 775.5 -137.5 775.0 -139.5 775.0 -141.5 775.0 -159.5 780.0 -175.5 785.0 -191.0 795.5 -205.0 810.0 -218.5 828.0 -226.0 846.0 -233.5 867.5 -233.5 886.0 -233.5 902.5 -227.5 919.5 -222.0 935.0 -211.0 949.0 -197.0 956.0 -180.0 963.5 -163.0 963.5 -141.5 963.5 -120.0 955.5 -102.0 947.0 -84.5 931.0 -70.5 923.0 -64.0 915.5 -59.0 908.0 -54.0 900.0 -51.0 921.5 -37.5 943.0 -23.5 965.0 -10.0 987.0 3.0 L883.5 102.5 Q766.0 23.5 654.0 -64.0 541.5 -151.5 434.0 -247.0 429.0 -147.0 426.5 -94.0 424.0 -41.5 424.0 -37.0 424.0 -17.5 426.5 -5.0 429.0 7.5 435.0 14.5 441.5 22.0 450.0 26.0 459.0 30.0 471.0 30.5 504.0 30.5 555.5 18.5 606.5 6.5 676.0 -17.5 L671.5 47.0 Q596.5 68.5 535.0 80.0 474.0 91.0 427.0 91.0 L399.5 91.0 Q369.5 91.0 345.5 80.0 322.0 68.5 304.0 47.0 289.5 32.0 282.5 10.0 275.5 -12.0 275.5 -41.0 275.5 -48.0 276.5 -70.0 277.5 -92.0 279.5 -129.0 244.5 -83.5 212.5 -44.0 180.5 -4.0 151.5 30.5 L23.5 -69.5 Q66.5 -108.0 111.5 -153.5 157.0 -198.5 204.0 -251.0 166.0 -249.5 129.0 -248.0 92.0 -246.5 55.5 -244.5 L55.5 -305.0 Q156.5 -310.5 257.5 -313.5 358.5 -316.5 460.0 -317.5 L460.0 -361.5 323.5 -361.5 323.5 -521.0 Q293.0 -523.0 265.0 -524.5 253.5 -473.5 239.0 -428.5 225.0 -383.5 208.0 -345.0 L71.5 -368.5 Q89.5 -401.5 104.0 -440.0 119.0 -478.0 131.0 -521.0 111.0 -519.5 91.0 -517.5 71.0 -515.5 51.0 -513.0 L51.0 -573.5 Q94.0 -579.0 138.0 -582.0 181.5 -584.5 225.5 -584.5 250.0 -584.5 274.5 -583.5 299.0 -582.0 323.5 -580.5 L323.5 -638.0 Q254.5 -628.5 204.0 -628.5 167.5 -628.5 141.5 -633.5 115.5 -638.0 100.5 -648.0 85.0 -657.5 76.5 -671.0 68.5 -684.5 67.5 -701.5 67.5 -715.5 72.5 -748.5 77.0 -781.5 87.0 -833.5 L219.0 -833.5 Q209.0 -785.0 204.5 -755.0 199.5 -725.0 199.5 -712.5 199.5 -700.5 209.5 -695.0 219.5 -689.0 239.5 -689.0 258.0 -689.0 279.0 -691.0 300.0 -692.5 323.5 -696.5 L323.5 -840.5" fill-rule="evenodd" stroke="none"/>
    </g>
    <g id="font_DFPOP3_Std_W12__7">
      <path d="M827.5 -429.0 Q972.0 -429.0 972.0 -349.0 972.0 -327.5 963.5 -307.0 955.0 -286.0 938.0 -265.0 886.0 -202.0 824.5 -136.0 863.5 -103.0 904.0 -71.5 945.0 -40.0 987.0 -9.0 L875.5 99.5 Q836.5 68.5 798.5 36.5 761.0 4.0 724.0 -29.5 693.5 1.0 661.5 33.5 629.5 65.5 596.0 99.5 L487.5 -5.0 Q553.5 -71.0 613.5 -134.0 587.5 -159.5 562.0 -185.5 536.5 -211.5 512.0 -237.5 L615.5 -321.5 Q638.5 -298.5 661.5 -277.0 685.0 -255.0 708.5 -234.5 724.0 -251.5 739.0 -268.0 754.0 -284.5 768.0 -300.0 784.0 -315.5 793.0 -331.0 802.5 -346.0 804.0 -361.5 804.0 -364.5 791.5 -366.5 779.5 -368.5 755.5 -368.5 708.0 -367.0 639.0 -348.0 570.0 -329.0 479.0 -293.0 L479.0 -353.5 Q576.0 -391.0 663.5 -410.0 750.5 -429.0 827.5 -429.0 M504.0 -829.5 L651.5 -829.5 Q649.5 -822.5 648.5 -816.5 647.0 -810.0 647.0 -804.0 705.0 -816.0 747.0 -823.0 789.0 -829.5 815.0 -829.5 L838.5 -829.5 Q885.0 -829.5 908.5 -810.0 932.0 -791.0 932.0 -752.5 932.0 -720.5 919.5 -513.0 919.5 -508.5 925.0 -506.5 931.0 -505.0 943.0 -505.0 947.5 -505.0 980.0 -517.0 L980.0 -456.5 Q943.0 -450.5 921.5 -448.0 899.5 -445.5 892.0 -445.5 L869.5 -445.5 Q824.0 -445.5 801.5 -466.5 779.0 -487.0 779.5 -529.5 779.5 -624.5 791.5 -756.5 791.5 -769.0 724.0 -769.0 713.0 -769.0 692.0 -763.0 670.5 -757.5 639.0 -746.5 635.0 -719.0 633.5 -691.5 632.0 -664.0 632.0 -637.0 632.0 -588.5 635.5 -541.0 639.5 -493.0 647.0 -445.5 L499.5 -445.5 Q491.5 -493.0 487.5 -541.0 483.5 -588.5 483.5 -637.0 483.5 -684.5 488.0 -733.0 493.0 -781.0 504.0 -829.5 M193.5 -13.5 Q219.0 -15.0 244.5 -16.0 270.0 -17.5 296.0 -17.5 L300.0 -17.5 Q305.5 -66.5 308.5 -108.5 311.5 -150.0 311.5 -185.5 311.5 -225.5 283.5 -225.5 263.5 -224.0 241.5 -221.0 219.5 -218.5 196.5 -214.0 193.5 -184.0 192.5 -155.0 191.5 -125.5 191.5 -97.5 191.5 -75.5 191.5 -54.5 192.0 -33.5 193.5 -13.5 M59.5 -293.0 L204.0 -293.0 Q203.0 -287.5 202.5 -282.0 202.0 -276.5 201.5 -271.5 238.5 -277.5 267.5 -281.0 296.5 -284.5 317.5 -284.5 L327.5 -284.5 Q363.0 -284.5 389.0 -278.0 414.5 -271.5 430.0 -259.0 444.5 -247.0 452.0 -229.0 459.5 -211.5 460.0 -189.5 459.5 -149.5 456.0 -104.0 452.5 -59.0 446.5 -8.0 459.0 -6.5 471.0 -5.0 L471.0 55.5 Q383.5 43.0 296.0 43.0 271.5 43.0 247.0 44.0 222.0 45.0 197.5 47.0 200.5 73.0 204.0 99.5 L59.5 99.5 Q47.0 1.0 47.0 -97.5 47.0 -146.5 50.0 -195.0 53.0 -244.0 59.5 -293.0 M267.5 -429.0 Q359.5 -429.0 451.5 -417.0 L451.5 -357.5 Q405.5 -363.0 359.5 -365.5 313.5 -368.5 267.5 -368.5 221.0 -368.5 175.0 -365.5 129.5 -363.0 84.0 -357.5 L84.0 -417.0 Q129.5 -423.0 175.0 -426.0 221.0 -429.0 267.5 -429.0 M265.0 -589.0 Q310.5 -589.0 356.0 -586.0 401.5 -583.0 447.5 -577.5 L447.5 -517.0 Q401.5 -523.5 356.0 -526.5 310.5 -529.5 265.0 -529.5 173.0 -529.5 84.0 -517.0 L84.0 -577.5 Q128.5 -583.0 174.0 -586.0 219.0 -589.0 265.0 -589.0 M183.5 -833.5 L343.0 -833.5 343.0 -747.5 Q376.0 -746.0 409.0 -743.5 442.0 -741.0 475.0 -737.5 L475.0 -677.0 Q423.0 -683.0 371.0 -686.0 319.5 -689.0 267.5 -689.0 215.0 -689.0 163.5 -686.0 111.5 -683.0 59.5 -677.0 L59.5 -737.5 Q90.0 -740.5 121.5 -743.0 152.5 -746.0 183.5 -747.5 L183.5 -833.5" fill-rule="evenodd" stroke="none"/>
    </g>
    <g id="font_DFPOP3_Std_W12__8">
      <path d="M611.5 -116.5 Q639.5 -107.0 668.0 -98.0 696.5 -89.5 725.0 -82.0 763.5 -92.5 783.0 -100.5 802.5 -108.0 804.0 -112.5 804.0 -120.5 795.0 -124.5 785.5 -129.0 768.0 -129.0 700.5 -129.0 611.5 -116.5 M779.5 -189.5 Q823.0 -189.5 856.0 -187.0 889.0 -185.0 910.5 -180.0 938.0 -173.5 952.0 -158.5 966.0 -144.0 967.5 -121.0 967.5 -107.0 957.5 -93.5 947.5 -80.0 927.5 -67.5 909.5 -52.0 888.0 -40.0 931.0 -30.5 980.0 -21.5 L927.5 99.5 Q868.0 84.0 814.0 68.5 760.0 53.0 711.5 37.0 665.0 53.0 609.0 68.5 552.5 84.0 487.5 99.5 L424.0 -17.5 Q448.0 -21.5 471.5 -25.5 495.0 -30.0 518.0 -35.0 495.0 -44.0 475.0 -53.0 L509.0 -99.5 Q492.0 -95.5 474.5 -92.0 457.0 -88.0 439.5 -85.0 L439.5 -145.5 Q541.5 -167.0 626.5 -178.0 711.5 -189.5 779.5 -189.5 M182.5 -10.0 Q199.0 -12.0 215.5 -12.5 232.0 -13.5 249.0 -13.5 250.5 -61.0 251.0 -102.0 252.0 -142.5 252.0 -177.0 252.0 -201.0 242.0 -213.0 232.0 -225.0 212.0 -225.5 206.0 -223.5 199.0 -222.0 192.5 -220.5 186.5 -219.0 182.5 -187.5 181.0 -157.0 179.0 -126.0 179.0 -95.0 179.0 -73.5 180.0 -52.5 180.5 -31.0 182.5 -10.0 M55.5 -284.5 L195.5 -284.5 Q195.0 -281.5 194.5 -279.0 194.5 -276.0 194.5 -274.5 209.0 -279.0 221.5 -282.0 233.5 -284.5 243.5 -284.5 L252.0 -284.5 Q289.5 -284.5 316.5 -278.0 343.5 -271.0 360.5 -257.0 376.0 -243.0 383.5 -224.0 391.0 -205.0 391.0 -181.0 391.0 -101.5 388.0 -3.0 390.5 -2.5 393.5 -1.5 396.5 -1.0 399.5 -1.0 L399.5 58.5 Q362.5 52.5 326.5 49.5 290.0 47.0 254.0 47.0 237.0 47.0 220.5 47.5 204.0 47.5 188.5 49.0 190.0 60.5 191.5 72.0 193.5 83.5 195.5 95.0 L55.5 95.0 Q40.0 0.0 40.0 -95.0 40.0 -143.0 44.0 -190.0 47.5 -237.0 55.5 -284.5 M567.5 -519.0 Q592.0 -520.5 616.0 -522.0 640.0 -523.5 663.5 -524.5 L663.5 -576.5 Q645.0 -576.0 627.0 -575.0 608.5 -574.0 591.0 -572.5 585.0 -558.5 579.0 -545.0 573.5 -531.5 567.5 -519.0 M563.0 -403.5 Q588.5 -405.0 614.0 -406.5 639.0 -408.0 663.5 -408.5 L663.5 -464.0 Q637.5 -463.0 612.5 -461.5 587.5 -460.5 563.0 -459.0 L563.0 -403.5 M563.0 -286.5 Q588.5 -288.5 614.0 -289.5 639.0 -291.0 663.5 -292.0 L663.5 -348.0 Q637.5 -347.5 612.5 -346.0 587.5 -344.5 563.0 -343.0 L563.0 -286.5 M225.5 -589.0 Q265.0 -589.0 306.0 -586.0 346.5 -583.0 387.0 -577.5 L387.0 -517.0 Q346.5 -523.5 306.0 -526.5 265.0 -529.5 225.5 -529.5 184.5 -529.5 144.0 -526.5 103.5 -523.5 63.5 -517.0 L63.5 -577.5 Q103.5 -583.0 144.0 -586.0 184.5 -589.0 225.5 -589.0 M155.5 -833.5 L303.0 -833.5 303.0 -747.5 Q320.0 -746.0 337.5 -745.0 355.0 -744.0 371.5 -742.5 L371.5 -773.0 Q399.5 -779.5 427.0 -782.5 455.0 -785.5 483.5 -785.5 L495.5 -785.5 495.5 -833.5 640.0 -833.5 640.0 -661.5 533.5 -661.5 591.0 -632.0 Q609.5 -633.5 627.5 -634.0 646.0 -635.0 663.5 -636.0 L663.5 -673.0 691.0 -673.0 691.0 -833.5 835.5 -833.5 835.5 -789.5 Q840.5 -789.5 845.5 -789.5 850.5 -789.5 855.0 -789.5 885.0 -789.5 915.0 -786.5 945.0 -783.5 976.0 -777.0 L976.0 -717.0 Q945.0 -723.0 915.0 -726.0 885.0 -729.0 855.0 -729.0 849.5 -729.0 845.0 -729.0 840.0 -729.0 835.5 -729.0 L835.5 -665.5 808.0 -665.5 808.0 -635.0 Q845.5 -633.5 883.5 -631.0 921.0 -628.5 959.5 -624.5 L959.5 -565.0 Q921.0 -569.0 883.0 -571.5 845.0 -574.0 808.0 -575.5 L808.0 -523.5 Q842.5 -521.5 877.0 -519.0 912.0 -516.0 947.0 -513.0 L947.0 -453.5 Q912.0 -456.5 877.0 -459.0 842.0 -461.5 808.0 -463.0 L808.0 -407.5 Q842.5 -406.0 877.0 -403.0 912.0 -400.5 947.0 -397.5 L947.0 -337.0 Q912.0 -340.0 877.0 -343.0 842.0 -345.5 808.0 -347.0 L808.0 -292.0 Q849.5 -290.5 891.5 -288.0 933.5 -285.5 976.0 -281.5 L976.0 -221.0 Q915.0 -227.5 855.0 -230.5 795.0 -233.5 735.0 -233.5 649.0 -233.5 563.0 -227.5 L563.0 -200.5 431.0 -200.5 431.0 -356.5 387.0 -384.0 387.0 -365.5 Q346.5 -371.0 306.0 -374.0 265.0 -377.0 225.5 -377.0 184.5 -377.0 144.0 -374.0 103.5 -371.0 63.5 -365.5 L63.5 -425.0 Q103.5 -431.0 144.0 -434.0 184.5 -437.0 225.5 -437.0 262.0 -437.0 299.0 -434.5 336.0 -431.5 372.5 -427.0 408.0 -493.0 439.0 -556.5 469.5 -619.5 495.5 -681.0 L495.5 -725.0 483.5 -725.0 Q465.5 -725.0 449.0 -723.5 432.0 -722.0 415.5 -720.0 L415.5 -677.0 Q369.0 -683.0 322.0 -686.0 275.5 -689.0 229.5 -689.0 182.5 -689.0 136.0 -686.0 89.0 -683.0 43.0 -677.0 L43.0 -737.5 Q70.5 -740.5 99.0 -743.0 127.0 -746.0 155.5 -747.5 L155.5 -833.5" fill-rule="evenodd" stroke="none"/>
    </g>
    <g id="font_DFPOP3_Std_W12__9">
      <path d="M261.0 -541.5 Q321.0 -545.0 381.5 -547.0 442.0 -549.0 502.0 -549.0 555.5 -549.0 609.0 -547.5 662.0 -546.0 716.0 -543.5 L716.0 -613.5 Q715.5 -682.5 673.5 -717.5 631.5 -752.5 548.0 -752.5 488.0 -749.5 418.5 -741.0 349.0 -732.0 269.5 -717.0 266.5 -672.5 264.5 -628.5 262.5 -584.5 261.0 -541.5 M260.0 -289.0 Q320.0 -292.5 380.5 -295.0 441.0 -297.0 502.0 -297.0 604.5 -297.0 707.5 -291.0 710.0 -342.5 711.5 -390.5 713.0 -439.0 715.0 -483.5 660.5 -486.5 607.0 -488.0 554.0 -489.5 502.0 -489.5 440.5 -489.5 380.0 -487.5 319.5 -485.0 260.0 -481.5 259.5 -452.0 259.0 -424.0 259.0 -396.0 259.0 -368.5 259.0 -348.5 259.0 -328.5 259.5 -308.5 260.0 -289.0 M269.5 -29.5 Q337.0 -33.0 404.5 -35.0 472.0 -37.0 539.5 -37.0 578.0 -37.0 617.0 -36.0 656.0 -35.5 694.5 -35.0 697.5 -87.0 700.0 -136.5 702.5 -185.5 705.5 -232.5 654.0 -235.0 603.5 -236.0 552.5 -237.5 502.0 -237.5 441.0 -237.5 381.0 -235.5 321.0 -233.5 261.0 -230.5 262.0 -179.5 264.0 -129.5 266.0 -79.0 269.5 -29.5 M115.5 -813.0 L275.5 -813.0 Q274.5 -803.0 274.0 -793.5 273.5 -784.5 273.5 -775.0 382.5 -793.5 463.0 -803.5 544.0 -813.0 597.0 -813.0 L619.5 -813.0 Q691.5 -813.0 742.5 -800.0 793.5 -787.0 824.5 -761.0 853.5 -735.5 868.5 -701.0 883.5 -666.0 883.5 -621.5 883.5 -491.0 878.0 -342.5 872.0 -194.0 861.0 -26.5 867.5 -26.5 873.0 -26.0 878.5 -25.5 883.5 -25.5 L883.5 35.0 Q711.5 22.5 539.5 22.5 472.0 22.5 405.0 24.0 338.5 26.0 272.5 29.5 272.5 41.0 273.0 52.5 274.0 64.0 275.5 75.0 L115.5 75.0 Q107.5 -36.0 103.5 -147.0 99.5 -258.0 99.5 -368.5 99.5 -479.5 103.5 -590.5 107.5 -701.5 115.5 -813.0" fill-rule="evenodd" stroke="none"/>
    </g>
    <g id="font_DFPOP3_Std_W12__10">
      <path d="M639.0 -560.0 Q656.5 -560.0 674.5 -560.5 692.0 -561.0 709.5 -561.0 L749.5 -561.0 Q762.5 -602.0 769.5 -638.0 776.5 -674.0 778.0 -704.5 760.5 -704.5 743.5 -705.0 726.5 -705.5 709.5 -705.5 689.5 -705.5 670.5 -705.0 651.0 -704.5 632.0 -703.5 629.5 -693.0 628.5 -683.5 627.5 -673.5 627.5 -664.5 627.5 -637.5 630.5 -611.5 633.0 -585.5 639.0 -560.0 M190.5 -587.0 Q206.0 -587.5 222.0 -588.0 238.0 -589.0 254.0 -589.0 269.5 -589.0 285.0 -588.0 300.5 -587.5 316.5 -587.0 306.5 -626.0 298.0 -658.0 289.0 -690.0 281.5 -715.0 278.5 -724.0 276.0 -728.5 273.5 -733.0 271.5 -733.0 266.5 -733.0 254.5 -729.0 242.5 -724.5 223.0 -717.0 215.5 -683.0 207.5 -650.5 199.5 -618.0 190.5 -587.0 M580.5 -322.5 Q645.0 -328.5 709.5 -328.5 737.0 -328.5 764.5 -327.5 791.5 -326.0 819.0 -324.5 L819.0 -349.0 Q819.0 -389.0 779.5 -389.0 737.0 -387.5 688.0 -382.0 639.0 -377.0 583.5 -367.5 582.0 -355.5 581.5 -344.5 580.5 -333.0 580.5 -322.5 M582.5 -198.5 Q661.0 -205.0 739.5 -205.0 758.0 -205.0 776.5 -204.0 795.5 -203.5 814.0 -203.0 815.0 -219.5 815.5 -235.0 816.5 -250.5 817.0 -265.0 789.5 -267.0 762.5 -268.0 735.5 -269.0 709.5 -269.5 676.5 -269.5 644.0 -268.0 612.0 -266.0 579.5 -263.0 579.5 -229.5 582.5 -198.5 M120.0 -833.5 L243.5 -817.0 Q242.0 -808.5 240.5 -801.0 239.0 -793.5 237.5 -787.5 262.0 -800.0 277.5 -806.5 293.0 -813.0 300.0 -813.0 L307.0 -813.0 Q324.0 -813.0 341.0 -788.5 351.5 -770.0 381.0 -710.5 410.0 -651.0 457.5 -550.0 472.5 -551.5 487.0 -552.5 501.0 -553.0 515.0 -554.0 509.0 -583.0 506.5 -611.0 503.5 -638.5 504.0 -664.5 504.0 -672.5 504.5 -680.5 505.5 -689.0 507.0 -697.5 494.5 -696.0 482.5 -695.0 470.5 -694.0 460.0 -693.0 L460.0 -752.5 Q505.0 -757.0 550.5 -760.0 595.5 -762.5 640.0 -764.0 L640.0 -837.5 771.0 -837.5 771.0 -764.0 Q818.5 -762.5 865.5 -760.0 912.5 -757.0 959.5 -752.5 L959.5 -693.0 Q944.0 -694.5 930.0 -696.0 916.0 -697.0 902.0 -698.5 900.5 -662.5 895.0 -627.0 890.0 -591.5 880.5 -556.0 904.5 -554.5 928.5 -552.5 952.0 -550.5 976.0 -549.0 L976.0 -489.5 Q909.0 -495.0 842.5 -498.0 775.5 -500.5 709.5 -500.5 643.0 -500.5 576.0 -498.0 509.5 -495.0 443.5 -489.5 L443.5 -534.5 343.0 -473.0 Q337.0 -500.5 331.0 -525.5 327.5 -525.5 324.5 -526.0 322.0 -526.5 319.5 -526.5 L319.5 -395.5 Q344.0 -393.5 368.0 -391.0 392.0 -388.0 415.5 -385.0 L415.5 -325.5 Q391.0 -328.5 367.0 -331.0 342.5 -333.5 319.5 -335.0 L319.5 -226.5 Q322.5 -234.0 328.5 -241.5 340.0 -253.0 355.0 -259.0 369.5 -265.0 387.0 -265.0 402.5 -265.0 416.5 -260.5 430.5 -256.0 443.5 -247.0 447.0 -243.0 450.5 -239.0 453.5 -235.0 456.5 -230.5 456.0 -243.5 456.0 -256.5 455.5 -269.5 455.5 -281.5 455.5 -322.5 459.0 -363.0 462.0 -404.0 468.0 -445.5 L592.0 -445.5 Q591.0 -440.0 590.5 -435.5 590.0 -431.0 590.0 -427.0 660.5 -438.0 713.5 -443.5 766.0 -449.5 801.0 -449.5 L815.0 -449.5 Q851.0 -449.5 876.5 -443.0 902.0 -436.0 917.5 -423.0 932.0 -410.5 939.5 -393.0 947.0 -375.5 947.0 -353.5 947.0 -318.0 945.5 -278.0 944.0 -238.5 941.0 -194.5 944.0 -194.0 946.5 -193.5 949.0 -193.5 951.5 -193.5 L951.5 -133.0 Q924.5 -136.0 897.5 -138.5 871.0 -141.0 845.0 -142.5 838.0 -94.5 834.5 -64.5 831.5 -34.0 831.5 -21.5 831.5 0.0 837.0 11.5 843.0 22.5 855.0 22.5 879.0 22.5 910.0 17.5 941.5 12.5 980.0 3.0 L980.0 62.5 Q931.0 72.5 891.0 77.5 850.5 83.0 819.0 83.0 788.5 83.0 766.5 77.0 745.0 70.5 731.0 58.5 705.0 34.0 703.5 -9.0 703.5 -24.0 706.5 -57.5 710.0 -91.5 717.0 -145.5 704.5 -145.5 693.5 -145.0 682.5 -144.5 671.5 -144.5 656.5 -107.5 642.5 -78.0 628.5 -48.5 616.5 -25.5 599.5 3.0 580.5 33.0 561.0 63.0 539.5 95.0 L415.5 35.0 Q435.5 13.5 454.0 -8.5 472.5 -30.0 488.5 -52.0 510.0 -80.0 531.5 -116.5 L468.0 -116.5 Q466.5 -127.5 465.0 -139.0 463.5 -150.0 462.0 -161.0 454.0 -142.5 440.5 -130.0 427.5 -119.5 414.0 -114.5 401.0 -109.5 387.0 -109.5 370.0 -109.5 356.0 -116.0 342.0 -122.5 331.0 -136.0 327.0 -141.0 324.0 -145.5 321.0 -150.0 319.5 -154.5 L319.5 -28.5 Q345.5 -36.5 372.5 -47.0 399.5 -57.5 427.0 -69.5 L439.5 -17.5 Q385.5 5.5 338.5 21.0 292.0 36.5 252.0 45.0 210.5 52.0 161.5 56.5 112.0 61.0 55.5 62.5 L55.5 11.5 Q86.0 9.5 113.5 8.0 73.5 -102.5 43.0 -225.5 L155.5 -273.5 Q162.5 -233.5 171.5 -190.5 180.5 -148.0 191.5 -103.5 L191.5 -335.0 Q167.0 -333.5 142.5 -331.0 118.5 -328.5 95.0 -325.5 L95.0 -385.0 Q120.0 -388.0 143.5 -391.0 167.5 -393.5 191.5 -395.5 L191.5 -526.5 Q187.0 -525.5 182.5 -525.0 177.5 -524.5 173.0 -524.5 165.5 -499.5 158.0 -476.0 151.0 -452.0 143.5 -429.0 L27.5 -456.5 Q57.5 -550.5 80.5 -644.5 103.5 -738.5 120.0 -833.5" fill-rule="evenodd" stroke="none"/>
    </g>
    <g id="font_DFPOP3_Std_W12__11">
      <path d="M584.5 -368.5 Q584.5 -382.5 579.5 -395.5 574.0 -408.5 563.0 -420.0 551.5 -430.5 539.0 -436.0 526.0 -441.5 512.0 -441.5 496.0 -441.5 483.0 -436.0 470.0 -431.0 460.0 -421.0 449.0 -410.0 444.0 -397.0 439.0 -384.0 439.5 -368.5 439.5 -353.5 444.5 -340.5 450.0 -328.0 461.0 -317.5 471.5 -306.0 484.0 -300.5 496.5 -295.0 512.0 -295.0 526.0 -295.0 539.0 -300.5 551.5 -306.0 563.0 -317.5 574.0 -328.0 579.5 -341.0 584.5 -354.0 584.5 -368.5 M665.5 -368.5 Q665.5 -338.0 654.0 -310.5 642.5 -283.0 619.5 -260.0 573.5 -214.0 512.0 -214.0 480.0 -214.0 452.5 -225.5 425.5 -237.0 403.5 -260.0 380.5 -282.5 369.5 -309.5 358.5 -336.5 358.5 -368.5 358.5 -434.5 401.5 -479.0 444.5 -522.0 512.0 -522.0 543.5 -522.0 570.5 -511.0 597.5 -499.5 620.5 -477.0 643.0 -454.0 654.0 -427.0 665.5 -400.0 665.5 -368.5" fill-rule="evenodd" stroke="none"/>
    </g>
  </defs>
</svg>
