<?xml version="1.0" encoding="UTF-8" standalone="no"?>
<svg xmlns:xlink="http://www.w3.org/1999/xlink" height="16.9px" width="225.55px" xmlns="http://www.w3.org/2000/svg">
  <g transform="matrix(1.0, 0.0, 0.0, 1.0, 42.5, 1.5)">
    <g transform="matrix(1.0, 0.0, 0.0, 1.0, -43.4, 0.0)">
      <use fill="#000000" height="16.9" transform="matrix(0.0146, 0.0, 0.0, 0.0146, 0.0, 13.0)" width="225.55" xlink:href="#font_DFPOP3_Std_W12__0"/>
      <use fill="#000000" height="16.9" transform="matrix(0.0146, 0.0, 0.0, 0.0146, 15.0, 13.0)" width="225.55" xlink:href="#font_DFPOP3_Std_W12__1"/>
      <use fill="#000000" height="16.9" transform="matrix(0.0146, 0.0, 0.0, 0.0146, 30.0, 13.0)" width="225.55" xlink:href="#font_DFPOP3_Std_W12__2"/>
      <use fill="#000000" height="16.9" transform="matrix(0.0146, 0.0, 0.0, 0.0146, 45.0, 13.0)" width="225.55" xlink:href="#font_DFPOP3_Std_W12__3"/>
      <use fill="#000000" height="16.9" transform="matrix(0.0146, 0.0, 0.0, 0.0146, 60.0, 13.0)" width="225.55" xlink:href="#font_DFPOP3_Std_W12__4"/>
      <use fill="#000000" height="16.9" transform="matrix(0.0146, 0.0, 0.0, 0.0146, 75.0, 13.0)" width="225.55" xlink:href="#font_DFPOP3_Std_W12__5"/>
      <use fill="#000000" height="16.9" transform="matrix(0.0146, 0.0, 0.0, 0.0146, 90.0, 13.0)" width="225.55" xlink:href="#font_DFPOP3_Std_W12__6"/>
      <use fill="#000000" height="16.9" transform="matrix(0.0146, 0.0, 0.0, 0.0146, 105.0, 13.0)" width="225.55" xlink:href="#font_DFPOP3_Std_W12__7"/>
      <use fill="#000000" height="16.9" transform="matrix(0.0146, 0.0, 0.0, 0.0146, 120.0, 13.0)" width="225.55" xlink:href="#font_DFPOP3_Std_W12__8"/>
      <use fill="#000000" height="16.9" transform="matrix(0.0146, 0.0, 0.0, 0.0146, 135.0, 13.0)" width="225.55" xlink:href="#font_DFPOP3_Std_W12__9"/>
      <use fill="#000000" height="16.9" transform="matrix(0.0146, 0.0, 0.0, 0.0146, 150.0, 13.0)" width="225.55" xlink:href="#font_DFPOP3_Std_W12__10"/>
    </g>
    <g transform="matrix(1.0, 0.0, 0.0, 1.0, -43.4, 0.0)">
      <use fill="#000000" height="16.9" transform="matrix(0.0146, 0.0, 0.0, 0.0146, 165.0, 13.0)" width="225.55" xlink:href="#font_DFPOP3_Std_W12_30"/>
      <use fill="#000000" height="16.9" transform="matrix(0.0146, 0.0, 0.0, 0.0146, 175.3, 13.0)" width="225.55" xlink:href="#font_DFPOP3_Std_W12_00"/>
    </g>
    <g transform="matrix(1.0, 0.0, 0.0, 1.0, -43.4, 0.0)">
      <use fill="#000000" height="16.9" transform="matrix(0.0146, 0.0, 0.0, 0.0146, 185.6, 13.0)" width="225.55" xlink:href="#font_DFPOP3_Std_W12__11"/>
      <use fill="#000000" height="16.9" transform="matrix(0.0146, 0.0, 0.0, 0.0146, 200.6, 13.0)" width="225.55" xlink:href="#font_DFPOP3_Std_W12__12"/>
      <use fill="#000000" height="16.9" transform="matrix(0.0146, 0.0, 0.0, 0.0146, 215.6, 13.0)" width="225.55" xlink:href="#font_DFPOP3_Std_W12__13"/>
    </g>
  </g>
  <defs>
    <g id="font_DFPOP3_Std_W12__0">
      <path d="M867.5 -789.5 Q887.0 -789.5 905.0 -783.0 923.0 -776.5 940.0 -764.0 955.5 -748.5 963.5 -729.0 971.5 -709.5 972.0 -685.0 971.5 -662.0 962.5 -643.0 953.5 -623.5 936.0 -608.5 919.0 -594.5 901.5 -588.0 884.5 -581.5 867.5 -581.5 844.5 -581.5 825.0 -590.5 805.5 -599.0 789.5 -617.5 776.5 -633.0 770.0 -649.5 764.0 -666.5 764.0 -685.0 764.0 -706.0 769.5 -723.5 775.0 -741.5 787.5 -756.5 803.0 -773.0 823.0 -781.0 843.0 -789.5 867.5 -789.5 M515.0 -817.0 L531.5 -752.5 Q490.0 -740.5 452.0 -731.0 414.5 -722.0 380.0 -716.0 L380.0 -536.5 Q413.0 -536.5 446.0 -537.0 479.5 -537.5 513.0 -537.5 536.0 -537.5 559.5 -537.0 583.5 -536.5 607.0 -536.5 592.0 -596.5 578.0 -658.0 564.0 -719.0 552.0 -781.5 L699.5 -829.5 Q716.5 -750.5 734.5 -676.5 753.0 -602.5 773.0 -533.5 821.5 -532.0 870.0 -530.0 918.5 -527.5 967.5 -525.5 L967.5 -465.0 Q923.0 -467.0 878.5 -469.0 834.5 -470.5 790.5 -472.0 796.5 -448.0 803.5 -425.5 810.5 -402.5 818.0 -381.0 819.0 -377.0 820.0 -374.0 821.0 -370.5 822.5 -367.5 833.0 -380.5 843.0 -394.0 853.5 -407.0 863.0 -421.0 L991.0 -328.5 Q966.0 -295.0 939.0 -261.0 912.5 -227.0 884.5 -191.5 906.0 -134.5 929.0 -80.0 951.5 -25.5 976.0 26.5 L823.5 102.5 Q807.0 65.5 792.5 29.5 777.5 -7.0 764.0 -43.0 736.5 -10.5 708.5 23.0 680.5 56.5 651.5 91.0 L523.5 -9.0 Q569.5 -60.0 614.0 -111.0 658.5 -162.0 701.5 -213.0 690.0 -245.5 679.5 -278.0 668.5 -310.5 659.5 -343.0 649.5 -376.0 640.5 -409.0 631.0 -442.5 622.5 -476.0 595.0 -476.0 567.5 -476.5 540.0 -477.0 513.0 -477.0 479.5 -477.0 446.0 -476.5 413.0 -476.0 380.0 -476.0 L380.0 -249.0 Q412.0 -268.0 448.0 -291.0 484.0 -314.0 523.5 -341.0 L555.0 -284.5 Q506.0 -251.0 462.0 -222.5 418.5 -194.5 380.0 -173.0 L380.0 99.5 219.0 99.5 219.0 -95.0 Q185.5 -81.5 150.0 -69.0 114.0 -56.5 76.0 -45.0 L55.5 -105.5 Q102.0 -120.0 143.0 -135.0 184.0 -149.5 219.0 -165.0 L219.0 -472.0 Q178.5 -470.5 138.5 -468.5 98.5 -466.5 59.5 -465.0 L59.5 -525.5 Q99.5 -527.0 139.5 -529.0 179.0 -531.0 219.0 -532.5 L219.0 -695.5 Q185.5 -692.0 150.0 -690.5 114.0 -689.0 76.0 -689.0 L76.0 -741.5 Q147.0 -743.0 204.0 -747.5 261.0 -752.5 304.0 -761.0 351.0 -767.5 404.0 -781.5 456.5 -795.5 515.0 -817.0" fill-rule="evenodd" stroke="none"/>
    </g>
    <g id="font_DFPOP3_Std_W12__1">
      <path d="M583.5 -312.5 Q618.5 -312.5 652.5 -312.0 687.0 -311.5 721.0 -311.5 724.0 -351.0 725.5 -388.5 727.0 -425.5 727.0 -461.0 727.0 -525.5 671.5 -525.5 638.0 -523.5 601.0 -520.0 564.0 -516.5 524.5 -511.0 550.5 -480.0 581.0 -449.5 612.0 -419.0 647.0 -389.0 L583.5 -312.5 M331.0 -311.5 Q380.0 -312.0 428.5 -312.5 477.0 -313.5 525.5 -313.5 L534.5 -313.5 Q504.0 -339.5 476.0 -367.5 448.5 -395.5 424.0 -425.0 L496.5 -507.0 Q467.5 -502.5 436.5 -497.5 406.0 -492.5 374.0 -486.5 347.5 -385.0 331.0 -311.5 M683.0 -26.5 Q693.0 -86.5 701.0 -142.5 708.5 -198.5 715.0 -251.0 666.5 -251.5 619.0 -252.5 571.5 -253.0 525.5 -253.0 473.0 -253.0 421.0 -252.0 369.0 -251.5 317.5 -250.0 306.5 -197.5 301.5 -160.5 296.0 -123.0 296.0 -101.5 296.0 -51.0 313.5 -26.0 331.5 -1.0 367.5 -1.0 402.0 -1.0 440.0 -2.5 477.5 -4.5 519.0 -8.0 484.0 -38.0 451.5 -70.5 419.5 -102.5 391.0 -137.0 L479.0 -237.5 Q505.5 -204.0 538.5 -170.0 571.5 -136.0 611.5 -101.5 L534.5 -9.0 Q570.0 -12.0 607.0 -16.5 644.0 -20.5 683.0 -26.5 M248.0 -581.5 L399.5 -581.5 Q396.5 -572.5 394.0 -564.0 391.5 -556.0 390.0 -549.0 490.0 -566.5 564.5 -575.5 639.5 -584.5 689.0 -584.5 L711.5 -584.5 Q757.0 -584.5 789.5 -576.5 822.0 -568.5 841.5 -553.0 860.0 -537.0 870.0 -514.5 879.5 -492.5 879.5 -465.0 879.5 -426.5 877.5 -386.5 875.5 -347.0 872.5 -306.0 900.0 -304.5 927.5 -303.5 955.5 -302.5 983.0 -301.0 L983.0 -240.5 Q954.0 -242.0 925.0 -243.0 896.0 -244.5 867.5 -246.0 862.0 -199.0 855.0 -150.5 848.0 -102.0 839.5 -51.0 853.5 -53.5 867.5 -56.0 881.5 -58.5 896.0 -61.5 L896.0 -1.0 Q878.5 2.0 861.5 4.5 844.5 7.0 828.5 10.0 824.0 31.5 819.5 52.5 815.5 74.0 811.0 95.0 L659.5 95.0 Q662.5 78.5 665.5 63.0 668.5 47.5 671.5 33.0 572.5 45.0 486.5 51.5 400.5 58.5 327.5 58.5 279.5 58.5 244.5 48.5 210.0 38.5 188.5 19.5 167.5 0.5 156.5 -27.0 145.0 -54.0 143.5 -89.0 143.5 -113.0 148.5 -152.0 154.0 -191.0 165.0 -244.5 140.5 -244.0 116.0 -243.0 91.5 -242.0 67.5 -240.5 L67.5 -301.0 Q95.0 -302.5 123.0 -303.5 150.5 -304.5 178.0 -306.0 190.5 -363.0 208.0 -431.5 225.5 -500.5 248.0 -581.5 M195.5 -833.5 L336.0 -817.0 Q329.0 -795.0 321.5 -773.0 314.0 -751.5 306.0 -730.0 374.5 -733.0 442.0 -735.0 510.0 -737.0 577.5 -737.5 666.5 -737.5 756.5 -734.0 846.0 -731.0 936.0 -725.0 L936.0 -665.5 Q846.0 -671.0 756.5 -674.0 666.5 -677.0 577.5 -677.0 503.0 -677.0 429.0 -674.5 355.5 -672.5 281.5 -668.5 244.5 -579.5 195.5 -493.5 L47.0 -529.5 Q96.5 -604.5 133.5 -680.5 171.0 -756.5 195.5 -833.5" fill-rule="evenodd" stroke="none"/>
    </g>
    <g id="font_DFPOP3_Std_W12__2">
      <path d="M191.5 -796.5 Q233.0 -744.5 263.5 -699.5 294.0 -654.5 313.5 -617.5 328.0 -587.0 335.5 -560.0 343.0 -533.0 343.0 -510.0 380.0 -594.5 412.0 -678.0 444.0 -762.0 471.0 -845.0 L615.5 -781.5 Q609.5 -766.0 606.0 -753.5 654.5 -764.5 708.0 -770.0 762.0 -775.5 820.0 -777.0 L835.5 -777.0 Q908.0 -777.0 944.0 -750.0 980.0 -722.5 980.0 -668.5 980.0 -658.5 974.5 -635.0 969.5 -611.5 959.5 -574.5 947.5 -523.5 932.5 -470.5 917.5 -417.0 899.0 -361.5 L755.5 -409.5 Q773.5 -464.0 789.5 -521.5 805.5 -579.5 819.0 -640.0 823.0 -657.0 825.0 -669.0 827.5 -681.5 827.5 -689.0 827.5 -704.5 796.5 -710.5 730.5 -517.0 674.0 -379.0 737.5 -294.5 813.0 -208.5 888.5 -123.0 976.0 -37.0 L863.0 95.0 Q792.5 21.5 728.0 -55.5 663.0 -132.5 603.0 -213.0 571.0 -142.5 533.0 -64.0 495.5 14.0 451.5 99.5 L299.0 15.5 Q356.0 -79.0 406.0 -172.0 455.5 -265.0 498.5 -357.5 571.0 -498.5 646.0 -704.5 630.0 -700.5 614.5 -697.0 599.0 -693.0 583.5 -689.0 554.5 -606.0 523.5 -530.0 492.0 -454.0 460.0 -385.0 L337.0 -447.5 Q331.5 -414.0 321.5 -372.5 312.0 -331.5 298.0 -282.5 250.5 -113.5 187.5 55.5 L40.0 3.0 Q83.0 -104.5 113.5 -191.5 144.5 -278.5 163.0 -346.0 179.0 -401.5 187.5 -440.5 195.5 -479.0 195.5 -500.5 195.5 -517.5 188.0 -538.0 181.0 -558.5 167.0 -581.5 150.0 -606.0 120.0 -639.0 90.0 -672.0 47.0 -712.5 L191.5 -796.5" fill-rule="evenodd" stroke="none"/>
    </g>
    <g id="font_DFPOP3_Std_W12__3">
      <path d="M741.5 -781.5 Q799.5 -781.5 858.0 -778.0 917.0 -775.0 976.0 -769.0 L976.0 -709.5 Q952.0 -711.0 929.0 -713.0 906.0 -715.0 883.5 -717.0 L883.5 -45.0 Q883.5 -13.0 878.0 11.5 872.0 36.0 861.0 54.5 846.5 72.5 817.5 82.0 788.0 91.0 743.5 91.0 705.0 91.0 649.0 87.0 593.0 82.5 519.0 75.0 L519.0 15.5 Q560.0 23.0 592.0 27.0 624.0 30.5 647.0 30.5 681.0 31.0 698.5 0.0 715.5 -31.0 716.0 -93.0 L716.0 -721.0 Q663.5 -720.0 611.5 -717.0 559.5 -714.5 508.0 -709.5 L508.0 -769.0 Q624.5 -781.5 741.5 -781.5 M204.0 -688.0 L204.0 -833.5 363.5 -833.5 363.5 -687.0 Q395.5 -685.5 427.5 -683.0 459.5 -680.0 491.5 -677.0 L491.5 -617.5 Q459.0 -620.5 427.0 -623.0 395.0 -625.0 363.5 -626.5 L363.5 -456.5 Q389.5 -476.5 415.5 -496.5 L519.0 -389.0 Q483.0 -361.5 444.0 -334.0 405.0 -306.0 363.5 -278.5 L363.5 -57.5 Q363.5 -22.0 357.5 4.5 351.0 31.5 339.0 51.0 323.5 71.0 291.5 81.0 259.5 91.0 212.0 91.0 166.0 91.0 80.0 79.0 L80.0 18.5 Q129.0 30.5 159.5 30.5 181.5 30.5 192.5 19.5 203.5 8.5 204.0 -13.5 L204.0 -176.0 Q187.5 -166.0 171.5 -156.5 155.5 -146.5 139.5 -137.0 L43.0 -249.0 Q84.5 -272.5 125.0 -297.0 165.5 -322.0 204.0 -347.0 L204.0 -627.5 Q166.0 -626.0 129.0 -623.5 92.0 -620.5 55.5 -617.5 L55.5 -677.0 Q92.0 -680.5 129.5 -683.5 167.0 -686.5 204.0 -688.0" fill-rule="evenodd" stroke="none"/>
    </g>
    <g id="font_DFPOP3_Std_W12__4">
      <path d="M570.5 -309.0 Q569.5 -290.0 569.0 -272.5 568.5 -255.0 568.5 -239.5 618.0 -239.5 668.0 -238.0 718.0 -237.0 768.0 -234.5 L768.0 -240.5 Q768.0 -277.0 749.5 -295.0 731.5 -313.5 695.5 -313.5 664.5 -312.5 633.5 -311.5 602.5 -311.0 570.5 -309.0 M224.5 -232.5 Q272.5 -234.5 321.0 -236.5 369.0 -238.0 417.0 -239.5 417.0 -253.5 417.5 -268.5 418.0 -284.0 419.0 -300.0 372.5 -296.0 325.0 -292.0 277.5 -288.0 228.5 -283.5 227.0 -270.0 225.5 -257.5 224.5 -244.5 224.5 -232.5 M567.5 -180.0 Q566.5 -157.0 566.0 -138.0 565.5 -119.5 565.0 -105.5 614.5 -105.5 663.0 -104.0 711.5 -103.0 760.0 -101.5 763.0 -141.5 766.0 -175.0 715.0 -177.5 665.5 -179.0 615.5 -180.0 567.5 -180.0 M227.5 -96.5 Q273.5 -98.5 320.0 -100.0 366.5 -102.0 412.5 -103.5 412.5 -119.0 413.5 -138.0 414.0 -157.0 414.5 -180.0 366.5 -178.5 318.5 -177.0 271.0 -175.5 223.0 -173.0 223.0 -153.0 224.0 -134.0 225.0 -114.5 227.5 -96.5 M655.5 -525.5 Q681.5 -504.5 713.0 -483.5 745.0 -463.0 783.5 -441.5 L726.0 -372.5 743.5 -372.5 Q791.0 -372.5 825.5 -364.0 859.5 -355.0 879.5 -338.0 899.5 -321.0 909.5 -298.0 919.5 -274.5 919.5 -244.5 919.5 -177.0 910.5 -94.0 916.5 -94.0 922.0 -93.5 927.0 -93.0 932.0 -93.0 L932.0 -33.0 Q746.0 -45.0 563.0 -45.0 563.5 -23.0 567.5 -8.0 572.0 6.5 579.5 14.5 587.5 23.5 599.5 29.0 611.5 34.0 627.5 35.0 740.0 35.0 972.0 7.0 L967.5 70.5 Q848.0 83.0 751.0 89.0 654.0 95.0 579.5 95.0 L549.0 95.0 Q516.0 95.0 489.5 83.0 463.5 70.5 443.5 46.0 428.0 30.5 420.0 8.5 412.5 -14.0 411.5 -43.0 367.0 -41.5 322.5 -40.0 278.5 -38.5 234.5 -37.0 235.5 -28.5 236.5 -20.5 238.0 -13.0 239.5 -5.0 L91.0 -5.0 Q83.5 -49.5 79.5 -95.0 76.0 -140.0 76.0 -185.5 76.0 -230.0 79.5 -275.0 83.5 -320.0 91.0 -365.5 L239.5 -365.5 Q238.0 -359.5 237.5 -354.0 236.5 -348.5 236.5 -343.0 395.5 -357.0 513.0 -364.5 631.0 -372.0 707.5 -372.5 675.5 -391.0 646.5 -411.5 618.0 -432.0 592.0 -453.5 L655.5 -525.5 M275.5 -521.0 Q327.5 -481.5 407.5 -441.5 L343.0 -365.5 Q307.0 -384.5 274.0 -405.5 241.0 -426.5 212.0 -449.5 L275.5 -521.0 M512.0 -829.5 Q736.5 -829.5 963.5 -817.0 L963.5 -756.5 Q868.5 -761.5 773.0 -764.5 678.0 -767.5 583.5 -769.0 L583.5 -711.5 Q600.0 -711.5 615.0 -712.0 630.5 -712.5 645.0 -712.5 L660.5 -712.5 Q742.0 -712.5 801.0 -705.5 859.5 -698.0 895.0 -684.0 972.0 -650.0 972.0 -573.5 970.0 -527.5 965.0 -486.5 960.0 -445.5 951.5 -409.5 L795.5 -409.5 Q806.5 -456.5 812.0 -497.5 817.5 -538.0 819.0 -573.5 819.0 -600.5 805.0 -617.0 790.5 -634.0 763.0 -641.0 747.5 -644.0 728.5 -646.5 709.5 -649.0 688.0 -651.5 712.0 -630.5 741.0 -610.0 770.0 -589.5 804.0 -569.5 L743.5 -496.5 Q669.5 -539.5 611.5 -589.0 L667.5 -652.5 Q654.5 -652.5 641.0 -653.0 627.0 -653.0 613.5 -653.5 L583.5 -653.5 583.5 -393.0 435.0 -393.0 435.0 -643.0 Q383.0 -637.0 327.5 -631.0 350.0 -614.0 376.0 -597.5 402.0 -581.5 431.0 -565.0 L371.5 -493.5 Q335.0 -512.5 302.0 -533.5 269.0 -554.5 239.5 -577.5 L281.5 -624.5 Q260.0 -621.5 238.0 -618.5 216.0 -615.5 194.5 -612.5 191.5 -580.0 191.5 -551.0 191.5 -513.0 195.5 -476.0 199.5 -438.5 208.0 -401.5 L59.5 -401.5 Q51.0 -438.5 47.0 -476.0 43.0 -513.0 43.0 -551.0 43.0 -588.0 47.0 -625.5 51.0 -663.0 59.5 -701.5 L208.0 -701.5 Q206.5 -694.0 205.0 -687.0 203.5 -680.0 203.0 -674.0 267.0 -683.0 325.0 -690.0 383.0 -697.0 435.0 -701.5 L435.0 -768.0 Q341.0 -767.0 247.0 -764.5 153.0 -761.5 59.5 -756.5 L59.5 -817.0 Q172.5 -823.5 285.5 -826.5 398.5 -829.5 512.0 -829.5" fill-rule="evenodd" stroke="none"/>
    </g>
    <g id="font_DFPOP3_Std_W12__5">
      <path d="M391.0 -493.5 L391.0 -411.5 Q417.5 -410.0 443.5 -408.5 L443.5 -437.0 Q443.5 -465.0 431.0 -479.0 419.0 -493.5 395.5 -493.5 L391.0 -493.5 M192.5 -408.5 Q220.0 -410.0 248.0 -411.5 L248.0 -479.0 Q235.0 -477.0 221.5 -475.0 208.5 -472.5 195.5 -471.0 194.0 -454.0 193.5 -438.5 192.5 -423.0 192.5 -408.5 M391.0 -351.0 L391.0 -281.5 Q402.0 -281.5 413.0 -281.0 424.5 -280.5 435.0 -280.5 436.5 -299.0 438.0 -316.0 439.0 -333.0 440.5 -349.0 427.5 -350.0 415.0 -350.5 402.5 -351.0 391.0 -351.0 M194.5 -276.5 Q207.5 -277.5 221.0 -278.0 234.0 -278.5 248.0 -278.5 L248.0 -351.0 Q233.0 -350.5 219.5 -349.5 205.5 -349.0 191.5 -348.0 191.5 -329.5 192.5 -311.5 193.0 -293.5 194.5 -276.5 M578.5 6.0 Q601.5 -136.5 620.5 -279.5 639.0 -422.5 654.5 -565.0 636.0 -559.0 616.0 -553.0 596.5 -547.0 575.5 -540.5 L575.5 -594.0 Q528.5 -597.5 482.5 -600.0 436.5 -602.5 391.0 -604.0 L391.0 -552.0 Q399.0 -552.0 406.0 -552.5 412.5 -553.0 419.0 -553.0 L435.0 -553.0 Q477.5 -553.0 507.5 -545.5 537.5 -537.5 556.0 -522.0 573.5 -507.5 583.0 -487.5 592.0 -467.5 592.0 -441.5 592.0 -403.0 589.5 -360.5 587.5 -318.0 582.5 -271.5 588.0 -270.5 593.5 -270.0 598.5 -269.5 603.0 -269.5 L603.0 -209.0 Q495.5 -218.0 391.0 -221.0 L391.0 -140.5 Q434.0 -139.0 477.0 -136.0 520.0 -133.5 563.0 -129.0 L563.0 -69.5 Q520.0 -73.5 477.0 -76.0 434.0 -78.5 391.0 -80.0 L391.0 -4.0 Q438.0 -2.5 485.0 -0.5 531.5 1.5 578.5 6.0 M567.5 -821.0 L579.5 -769.0 Q527.5 -756.0 480.5 -746.5 433.5 -737.0 391.0 -731.0 L391.0 -664.5 Q442.5 -663.0 494.0 -660.5 545.0 -658.0 596.0 -653.5 L596.0 -603.0 Q613.0 -608.5 629.0 -613.0 645.0 -618.0 660.5 -622.5 665.0 -673.5 670.0 -724.0 675.5 -774.5 680.0 -825.5 L815.0 -809.0 Q811.5 -770.5 807.5 -732.5 803.5 -694.0 799.5 -656.5 816.5 -658.5 830.5 -660.0 844.5 -661.5 855.0 -661.5 L881.5 -661.5 Q934.0 -661.5 960.5 -634.0 987.0 -607.0 987.0 -553.0 L987.0 -57.5 Q987.0 -15.0 978.5 15.0 970.0 45.0 953.5 63.5 935.0 79.0 909.5 87.0 883.5 95.0 850.0 95.0 L815.0 95.0 Q798.0 95.0 775.5 93.0 752.5 91.0 724.0 87.0 L724.0 26.5 Q735.5 30.5 744.5 32.5 753.5 35.0 760.0 35.0 787.5 35.0 805.0 29.5 823.0 24.5 831.5 15.5 837.5 5.5 840.5 -6.5 844.0 -18.0 844.0 -33.0 L844.0 -549.0 Q843.5 -575.0 834.5 -588.0 825.5 -601.0 808.0 -601.0 805.0 -601.0 801.5 -600.5 798.0 -600.0 794.5 -600.0 777.0 -432.0 754.0 -261.0 731.0 -90.5 703.5 83.0 L596.0 57.5 596.0 66.5 Q527.5 60.5 459.5 58.0 391.0 55.0 323.5 55.5 255.0 55.0 187.0 58.0 119.0 60.5 51.0 66.5 L51.0 7.0 Q100.5 2.5 149.5 0.0 198.5 -2.5 248.0 -4.0 L248.0 -80.0 Q208.0 -78.5 168.5 -75.5 129.5 -73.0 91.0 -69.5 L91.0 -129.0 Q130.5 -133.0 169.5 -135.5 208.5 -138.0 248.0 -139.5 L248.0 -218.0 Q235.5 -217.5 223.5 -216.5 211.0 -216.0 199.5 -216.0 199.5 -205.5 201.0 -194.5 202.0 -184.0 204.0 -173.0 L59.5 -173.0 Q53.0 -220.0 50.0 -267.0 47.0 -314.0 47.0 -361.5 47.0 -453.5 59.5 -549.0 L204.0 -549.0 Q203.0 -543.5 202.5 -539.0 202.0 -534.5 201.5 -531.5 226.5 -534.5 248.0 -537.5 L248.0 -604.0 Q199.5 -602.5 151.0 -600.0 103.0 -597.5 55.5 -593.0 L55.5 -653.5 Q103.5 -658.0 152.0 -660.5 200.0 -663.0 248.0 -664.5 L248.0 -716.0 Q208.0 -712.5 163.5 -711.0 119.5 -709.5 71.5 -709.5 L71.5 -761.0 Q153.0 -762.5 217.0 -766.0 281.0 -770.0 328.5 -776.0 381.5 -782.5 441.5 -793.5 501.0 -804.5 567.5 -821.0" fill-rule="evenodd" stroke="none"/>
    </g>
    <g id="font_DFPOP3_Std_W12__6">
      <path d="M567.5 -229.5 Q587.5 -229.5 606.5 -222.5 625.5 -216.0 643.0 -204.0 659.0 -188.5 667.5 -169.0 676.0 -149.5 676.0 -125.0 676.0 -101.0 666.0 -81.0 656.5 -61.0 638.0 -45.0 604.0 -17.5 567.5 -17.5 544.5 -17.5 525.0 -26.5 505.5 -36.0 489.5 -54.5 476.5 -71.0 470.0 -89.0 464.0 -106.5 464.0 -125.0 464.0 -145.5 469.5 -164.0 475.0 -182.0 487.5 -197.5 503.0 -213.0 523.0 -221.0 542.5 -229.5 567.5 -229.5 M703.5 -325.5 Q719.0 -325.5 733.5 -325.0 748.5 -324.5 764.0 -324.5 L764.0 -433.0 923.5 -433.0 923.5 -317.5 Q939.0 -316.0 953.5 -315.0 968.5 -314.0 983.0 -313.5 L983.0 -253.0 Q967.5 -253.5 953.0 -254.5 938.0 -255.5 923.5 -257.0 L923.5 -57.5 Q923.5 -21.5 917.0 6.5 910.0 34.5 897.0 54.5 881.0 74.5 847.5 84.5 814.5 95.0 764.0 95.0 730.0 95.0 679.5 89.0 629.5 83.0 563.0 70.5 L563.0 11.5 Q604.5 23.0 637.5 29.0 670.5 35.0 695.5 35.0 729.0 35.0 746.5 16.5 764.0 -1.5 764.0 -37.0 L764.0 -264.0 Q748.5 -264.5 733.5 -264.5 718.0 -265.0 703.5 -265.0 562.0 -265.0 424.0 -253.0 L424.0 -313.5 Q562.0 -325.5 703.5 -325.5 M611.5 -527.5 L611.5 -700.5 Q563.0 -699.0 515.0 -696.0 467.5 -693.0 420.0 -689.0 L420.0 -749.5 Q467.5 -753.5 515.5 -756.0 563.5 -758.5 611.5 -760.0 L611.5 -833.5 771.0 -833.5 771.0 -760.0 Q822.0 -758.5 873.0 -756.0 924.5 -753.5 976.0 -749.5 L976.0 -689.0 Q923.5 -693.5 872.5 -696.5 821.5 -699.0 771.0 -700.5 L771.0 -528.5 Q818.5 -527.0 865.5 -524.5 912.5 -521.5 959.5 -517.0 L959.5 -456.5 Q833.5 -469.0 707.5 -469.0 581.5 -469.0 455.5 -456.5 L455.5 -517.0 Q495.0 -520.5 534.0 -523.0 573.0 -526.0 611.5 -527.5 M196.5 -435.0 Q207.5 -436.0 218.0 -436.5 229.0 -437.0 239.5 -437.0 L256.0 -437.0 256.0 -438.5 Q255.0 -536.5 251.5 -598.0 248.0 -659.0 241.5 -683.0 238.5 -697.5 230.0 -705.0 221.5 -712.5 208.0 -712.5 206.5 -712.5 205.0 -712.0 203.5 -711.5 201.5 -711.5 198.5 -642.0 197.5 -572.5 196.5 -503.5 196.5 -435.0 M201.5 -90.0 Q212.5 -91.0 223.5 -91.5 235.0 -92.0 246.0 -92.0 249.5 -172.0 252.0 -243.5 254.5 -314.5 256.0 -377.0 L239.5 -377.0 Q228.0 -377.0 217.0 -376.0 206.5 -375.5 195.5 -375.0 195.5 -302.5 197.0 -231.5 198.5 -160.5 201.5 -90.0 M59.5 -777.0 L204.0 -777.0 204.0 -766.0 Q215.5 -769.0 226.0 -770.5 237.0 -772.5 248.0 -773.0 L259.0 -773.0 Q312.0 -773.0 343.5 -755.0 375.5 -736.5 386.0 -700.5 394.5 -666.5 399.0 -601.0 403.5 -536.0 403.5 -438.5 403.5 -359.0 400.5 -270.5 398.0 -182.0 393.0 -84.0 398.5 -83.0 404.0 -82.5 409.5 -81.5 415.5 -81.0 L415.5 -21.5 Q379.0 -27.0 343.0 -30.0 306.5 -32.5 271.5 -33.0 254.5 -32.5 237.5 -32.0 221.0 -31.5 205.0 -30.5 205.5 -17.0 206.5 -3.5 207.0 9.5 208.0 22.5 L63.5 22.5 Q51.0 -177.0 51.0 -377.0 51.0 -476.5 53.0 -577.0 55.0 -677.5 59.5 -777.0" fill-rule="evenodd" stroke="none"/>
    </g>
    <g id="font_DFPOP3_Std_W12__7">
      <path d="M392.0 -169.0 Q423.0 -170.5 453.5 -172.0 484.0 -173.0 513.0 -173.0 537.0 -173.0 560.5 -172.5 584.0 -172.0 607.0 -171.0 L607.0 -205.0 Q607.0 -244.5 581.0 -264.5 555.5 -284.5 504.0 -284.5 480.0 -283.0 453.0 -278.5 426.5 -274.0 397.5 -267.5 395.0 -242.5 393.5 -218.0 392.0 -193.5 392.0 -169.0 M396.5 -16.5 Q431.5 -18.5 467.5 -20.0 503.5 -21.5 539.5 -21.5 555.0 -21.5 570.5 -21.0 585.5 -20.5 601.0 -20.5 602.5 -46.0 603.5 -69.5 604.5 -93.0 605.0 -114.5 582.0 -115.5 559.0 -116.0 536.0 -116.5 513.0 -116.5 482.5 -116.5 451.5 -116.0 421.0 -115.0 391.0 -113.5 391.0 -89.0 392.5 -64.5 394.0 -40.0 396.5 -16.5 M267.5 -345.0 L407.5 -345.0 Q407.0 -339.5 406.0 -335.0 405.0 -330.0 404.5 -325.5 451.5 -335.0 487.5 -340.0 523.0 -345.0 548.0 -345.0 L559.0 -345.0 Q610.0 -345.0 646.5 -336.0 683.0 -326.5 705.5 -308.0 726.5 -290.0 737.0 -265.0 747.5 -240.5 747.5 -209.0 747.5 -166.0 745.5 -116.0 743.5 -66.5 740.5 -10.0 744.0 -10.0 748.0 -9.5 752.0 -9.5 755.5 -9.0 L755.5 51.0 Q701.0 45.0 647.5 42.0 593.5 39.0 539.5 39.0 505.0 39.0 470.5 40.0 436.5 41.0 402.5 44.0 404.0 53.0 405.0 62.0 406.0 70.5 407.5 79.0 L267.5 79.0 Q259.5 25.0 255.5 -27.5 252.0 -80.0 252.0 -133.0 252.0 -239.0 267.5 -345.0 M656.5 -648.0 Q681.5 -650.5 706.5 -652.0 731.0 -653.5 755.5 -653.5 769.5 -653.5 783.0 -652.5 796.0 -652.0 810.0 -651.5 808.5 -668.0 806.5 -685.0 804.5 -702.0 803.0 -719.0 796.5 -743.5 782.0 -756.0 767.0 -769.0 743.5 -769.0 729.5 -767.5 709.5 -763.0 689.5 -758.5 662.5 -751.5 659.5 -725.5 658.0 -699.5 656.5 -673.5 656.5 -648.0 M661.5 -480.5 Q685.5 -482.5 709.0 -484.0 733.0 -485.5 758.0 -485.5 774.0 -485.5 790.0 -484.5 806.0 -484.0 822.5 -483.5 820.5 -509.5 818.5 -536.5 816.5 -563.0 815.0 -591.0 800.0 -591.5 785.0 -592.5 770.5 -593.0 755.5 -593.0 730.5 -593.0 705.0 -591.5 680.0 -590.0 655.5 -588.0 655.5 -532.5 661.5 -480.5 M531.5 -833.5 L671.5 -833.5 Q670.0 -827.5 669.5 -821.5 668.5 -815.5 668.5 -810.0 705.5 -819.5 734.5 -824.5 764.0 -829.5 785.5 -829.5 L795.5 -829.5 Q869.5 -829.5 908.5 -806.0 947.5 -782.0 952.5 -735.0 960.0 -660.0 965.0 -567.5 970.0 -474.5 972.0 -365.5 971.5 -219.5 969.0 -124.5 966.0 -29.0 960.5 15.5 956.0 57.0 923.0 78.0 889.5 99.5 827.5 99.5 L760.0 99.5 760.0 39.0 783.5 39.0 Q796.5 39.0 804.0 31.5 812.0 24.0 815.0 9.0 827.5 -158.0 827.5 -365.5 826.5 -379.5 826.0 -393.5 825.5 -407.5 825.5 -423.0 807.5 -423.5 791.0 -424.5 774.0 -425.0 758.0 -425.0 734.5 -425.0 712.5 -423.5 690.0 -422.5 668.5 -421.0 668.5 -412.5 669.5 -404.5 670.0 -397.0 671.5 -389.0 L531.5 -389.0 Q523.0 -444.5 519.0 -500.0 515.0 -555.5 515.0 -611.5 515.0 -666.5 519.0 -722.0 523.0 -777.5 531.5 -833.5 M192.5 -657.5 Q216.5 -659.0 239.5 -660.0 262.5 -661.5 285.5 -661.5 302.0 -661.5 318.0 -661.0 334.5 -660.5 351.0 -659.5 L351.0 -705.5 Q351.0 -737.0 330.0 -753.0 309.0 -769.0 267.5 -769.0 235.0 -766.0 196.5 -756.5 195.0 -731.5 194.0 -706.5 193.0 -682.0 192.5 -657.5 M188.5 -476.0 Q219.0 -478.5 250.0 -480.0 280.5 -481.0 311.5 -481.5 319.5 -481.0 328.0 -481.0 336.5 -480.5 345.0 -480.5 346.0 -512.5 347.0 -542.0 347.5 -571.5 349.0 -599.0 333.0 -600.0 317.0 -600.5 301.0 -601.0 285.5 -601.0 261.0 -601.0 237.5 -600.0 213.5 -598.5 190.5 -597.0 189.0 -565.5 188.5 -535.5 188.5 -505.5 188.5 -476.0 M55.5 -837.5 L199.5 -837.5 Q199.0 -830.5 199.0 -824.5 198.5 -818.5 198.5 -813.0 235.5 -821.0 264.5 -825.0 293.5 -829.5 313.5 -829.5 L323.5 -829.5 Q369.0 -829.5 401.5 -821.0 433.5 -813.0 453.5 -796.5 472.0 -780.5 482.0 -759.0 491.5 -737.0 491.5 -709.5 491.5 -656.5 489.5 -597.0 487.5 -537.0 484.5 -471.0 488.0 -470.0 492.0 -469.5 496.0 -469.0 499.5 -469.0 L499.5 -409.5 Q452.0 -415.0 405.0 -418.0 358.0 -421.0 311.5 -421.0 279.0 -421.0 248.0 -419.5 217.5 -418.0 187.5 -415.5 L187.5 -367.5 Q187.5 -131.0 199.5 102.5 L55.5 102.5 Q43.0 -131.0 43.0 -367.5 43.0 -601.0 55.5 -837.5" fill-rule="evenodd" stroke="none"/>
    </g>
    <g id="font_DFPOP3_Std_W12__8">
      <path d="M272.5 -116.5 Q334.0 -120.5 396.0 -123.0 457.5 -125.0 519.0 -125.0 625.0 -125.0 731.0 -119.0 L731.0 -125.0 Q731.0 -155.0 720.0 -170.0 708.5 -185.5 687.0 -185.5 600.5 -183.0 497.5 -174.5 394.0 -166.5 274.5 -152.5 273.5 -143.5 273.0 -134.5 272.5 -125.0 272.5 -116.5 M273.5 3.0 Q344.0 -1.0 414.0 -3.0 484.0 -5.0 554.0 -5.0 598.5 -5.0 642.5 -4.5 686.5 -3.5 731.0 -2.0 L731.0 -59.5 Q623.5 -65.5 519.0 -65.5 456.5 -65.5 394.5 -63.5 332.5 -61.0 271.5 -57.5 271.5 -42.0 271.5 -27.0 272.0 -11.5 273.5 3.0 M139.5 -237.5 L283.5 -237.5 Q280.5 -223.5 280.5 -213.0 423.5 -228.5 528.5 -236.5 634.0 -244.5 701.5 -244.5 L727.0 -244.5 Q771.5 -244.5 803.5 -237.0 835.5 -229.5 854.0 -214.0 872.5 -198.5 882.0 -177.5 892.0 -156.0 892.0 -129.0 L892.0 7.0 Q893.5 7.0 894.5 7.0 895.5 7.0 896.0 7.0 L896.0 66.5 Q810.0 60.5 724.5 58.0 639.0 55.0 554.0 55.5 485.0 55.5 416.5 57.0 347.5 58.5 278.5 62.5 279.5 71.5 280.5 81.0 282.0 90.0 283.5 99.5 L139.5 99.5 Q133.0 57.0 130.5 15.0 128.0 -26.5 128.0 -69.5 128.0 -111.0 130.5 -153.0 133.0 -195.5 139.5 -237.5 M314.5 -684.0 Q364.5 -688.5 414.5 -691.0 464.5 -693.0 515.0 -693.0 564.0 -693.0 612.5 -691.0 661.0 -689.0 708.5 -685.0 699.5 -697.5 691.5 -709.5 683.5 -721.5 676.0 -733.0 642.0 -773.0 599.0 -773.0 557.5 -772.5 493.0 -760.0 428.5 -747.5 341.0 -723.0 334.0 -713.0 327.5 -703.0 320.5 -693.5 314.5 -684.0 M256.0 -540.5 Q411.0 -557.0 525.0 -565.0 639.0 -573.5 711.5 -573.5 L739.5 -573.5 Q751.0 -573.5 761.0 -573.0 771.0 -572.0 780.5 -571.5 772.5 -584.5 765.0 -597.5 757.0 -610.5 749.5 -622.5 690.5 -627.5 632.0 -630.0 573.5 -633.0 515.0 -633.0 455.0 -633.0 395.5 -630.0 335.5 -627.0 275.5 -621.5 L275.5 -628.5 Q263.0 -612.0 251.0 -595.0 239.0 -578.0 227.5 -561.0 L259.0 -561.0 Q257.5 -555.5 257.0 -550.5 256.0 -545.5 256.0 -540.5 M694.5 -359.5 Q705.0 -358.5 716.0 -358.0 726.5 -357.5 737.5 -357.5 742.0 -387.5 744.5 -413.5 747.5 -439.5 747.5 -461.0 747.5 -487.0 736.5 -500.0 725.0 -513.0 703.5 -513.0 639.0 -510.0 571.5 -507.0 L571.5 -361.5 579.5 -361.5 Q592.0 -393.0 602.0 -425.0 612.0 -457.0 619.5 -489.5 L739.5 -477.0 Q731.0 -448.0 719.5 -418.5 708.0 -388.5 694.5 -359.5 M250.0 -352.5 Q262.0 -352.5 274.0 -353.0 285.5 -353.5 297.0 -354.5 288.0 -382.0 280.5 -408.5 273.5 -435.0 267.5 -461.0 L387.0 -485.5 Q402.5 -421.0 424.0 -359.5 428.5 -359.5 432.5 -360.0 436.0 -360.5 439.5 -360.5 L439.5 -497.5 Q394.0 -493.0 346.5 -488.5 299.0 -484.0 250.0 -479.0 248.5 -461.5 248.0 -444.5 247.5 -428.0 248.0 -411.5 247.5 -396.5 248.0 -381.5 248.5 -367.0 250.0 -352.5 M239.5 -845.0 L331.0 -780.5 Q423.5 -806.5 505.0 -819.5 586.0 -833.0 655.5 -833.5 L664.5 -833.5 Q695.5 -833.5 723.0 -823.0 750.5 -812.5 775.0 -792.5 808.0 -765.0 865.0 -698.0 922.0 -631.5 1003.5 -525.5 L892.0 -462.0 Q892.0 -435.5 889.0 -408.0 886.0 -380.0 880.5 -350.0 884.5 -349.5 888.5 -349.5 892.0 -349.0 896.0 -349.0 L896.0 -289.0 Q807.5 -295.0 719.5 -298.0 631.5 -301.0 543.5 -301.0 471.5 -301.0 399.5 -299.0 327.0 -296.5 255.0 -293.0 255.5 -284.5 256.5 -276.5 257.5 -269.0 259.0 -261.0 L128.0 -261.0 Q115.5 -335.0 115.5 -411.5 115.5 -427.5 116.0 -444.0 116.5 -460.5 118.0 -477.0 L27.5 -549.0 Q86.0 -622.5 139.0 -697.0 192.0 -771.0 239.5 -845.0" fill-rule="evenodd" stroke="none"/>
    </g>
    <g id="font_DFPOP3_Std_W12__9">
      <path d="M212.0 -765.0 L363.5 -749.5 Q333.5 -614.5 289.5 -476.5 245.5 -338.0 187.5 -197.5 L36.0 -237.5 Q94.0 -368.0 138.0 -499.5 182.0 -631.5 212.0 -765.0 M431.0 -833.5 L592.0 -833.5 592.0 -349.0 Q592.0 -317.0 586.0 -292.0 580.0 -267.0 569.5 -250.0 615.5 -276.0 665.5 -306.0 715.5 -336.0 769.0 -370.5 707.5 -555.0 655.5 -745.5 L804.0 -777.0 Q842.5 -648.0 886.5 -512.5 931.0 -376.5 980.0 -233.5 L831.5 -185.5 Q827.5 -195.5 824.5 -205.0 821.0 -215.0 818.0 -224.5 731.5 -169.0 657.0 -125.5 582.0 -82.0 519.0 -51.0 439.0 -13.0 341.0 24.0 243.5 60.5 128.0 95.0 L80.0 -45.0 Q185.0 -76.5 272.0 -109.5 359.0 -142.5 428.0 -177.0 448.0 -186.5 469.0 -196.5 490.5 -207.0 512.0 -219.0 499.0 -216.0 483.5 -214.5 468.5 -213.0 451.5 -213.0 388.5 -213.0 267.5 -237.5 L267.5 -297.0 Q308.0 -284.5 340.0 -279.0 372.0 -273.5 395.5 -273.5 413.0 -273.5 422.0 -285.0 431.0 -297.0 431.0 -321.5 L431.0 -833.5" fill-rule="evenodd" stroke="none"/>
    </g>
    <g id="font_DFPOP3_Std_W12__10">
      <path d="M636.0 -244.5 Q712.0 -178.0 779.0 -113.0 845.5 -47.5 903.0 15.5 L783.5 99.5 Q723.5 34.0 657.5 -30.0 591.5 -93.5 519.0 -156.5 L636.0 -244.5 M175.0 -833.5 L327.5 -833.5 327.5 -704.5 Q364.0 -703.0 399.5 -700.0 435.5 -697.0 471.0 -693.0 L471.0 -633.0 Q372.5 -643.5 277.5 -645.0 273.0 -610.0 269.0 -574.5 264.5 -539.5 260.0 -505.0 271.5 -508.0 281.5 -509.5 291.5 -511.5 299.0 -513.0 L308.0 -513.0 Q334.5 -513.0 353.5 -511.5 373.0 -510.0 386.0 -507.0 402.0 -500.5 414.5 -490.0 426.5 -479.0 434.0 -464.0 435.0 -462.5 435.5 -460.5 436.5 -459.0 437.0 -456.5 511.0 -641.0 563.0 -825.5 L670.5 -776.0 Q707.5 -790.0 730.5 -797.5 753.5 -805.0 763.0 -805.0 L771.0 -805.0 Q783.5 -805.0 796.0 -796.5 808.0 -788.5 821.0 -772.0 836.5 -749.0 879.0 -669.5 921.5 -589.5 991.0 -453.5 L849.0 -366.5 Q878.0 -336.5 905.0 -308.0 931.5 -280.0 955.5 -253.0 L835.5 -169.0 Q781.0 -229.5 721.0 -289.5 661.0 -349.5 596.0 -409.5 L711.5 -496.5 Q748.5 -463.5 782.5 -431.5 816.0 -399.5 847.0 -368.5 785.5 -587.0 745.5 -700.5 734.5 -725.0 727.0 -725.0 722.5 -725.0 710.5 -722.0 698.5 -719.5 680.0 -715.0 650.5 -618.0 619.5 -529.5 588.0 -441.5 555.0 -361.5 L444.5 -420.0 Q447.5 -393.0 449.0 -353.0 451.0 -313.5 451.5 -261.0 451.5 -197.5 450.0 -139.0 448.5 -80.5 445.5 -26.5 444.0 4.0 437.0 24.0 430.5 43.5 419.0 52.0 406.0 63.0 385.0 69.0 364.5 74.5 336.0 75.0 299.0 74.5 264.0 69.5 228.5 64.5 195.5 55.5 L195.5 -5.0 Q221.5 5.0 241.5 10.0 261.5 15.5 275.5 15.5 281.0 15.5 286.0 13.0 291.5 11.0 296.0 6.0 299.0 2.5 300.5 -4.0 302.5 -11.0 303.0 -21.5 304.5 -77.5 305.5 -137.5 306.5 -197.5 307.0 -261.0 305.5 -299.5 305.0 -333.0 304.0 -367.0 303.0 -395.5 301.5 -413.5 296.5 -424.5 292.0 -435.5 282.5 -439.5 272.0 -442.5 252.0 -445.5 215.0 -178.0 159.5 95.0 L19.5 58.5 Q57.0 -115.0 86.0 -289.5 115.0 -464.0 135.0 -640.0 113.5 -638.5 92.5 -637.0 71.0 -635.0 51.0 -633.0 L51.0 -693.0 Q82.0 -696.5 113.0 -699.0 144.5 -702.0 175.0 -703.5 L175.0 -833.5" fill-rule="evenodd" stroke="none"/>
    </g>
    <g id="font_DFPOP3_Std_W12_30">
      <path d="M608.5 -227.5 Q608.5 -173.0 584.5 -129.5 560.5 -86.5 513.0 -54.5 471.5 -26.5 425.0 -13.5 379.0 0.0 326.5 0.0 279.0 0.0 239.0 -12.5 199.0 -25.0 167.0 -50.0 96.5 -105.5 96.5 -197.5 96.0 -230.0 104.0 -259.0 112.0 -288.5 129.0 -314.5 L256.0 -261.0 Q243.5 -242.0 237.5 -224.0 231.5 -206.5 231.5 -189.5 231.5 -158.5 238.0 -135.0 244.5 -111.0 258.0 -94.0 271.0 -77.5 289.0 -69.5 306.5 -61.5 329.5 -61.5 392.5 -61.5 424.0 -98.5 455.5 -135.5 455.5 -211.0 455.5 -241.5 445.5 -266.5 435.5 -291.0 415.5 -310.5 398.0 -326.5 378.0 -334.5 358.0 -343.0 335.0 -343.0 319.5 -343.0 300.0 -342.0 281.0 -340.5 257.0 -339.0 L261.0 -402.5 Q307.5 -402.5 341.5 -406.5 375.5 -410.0 397.5 -418.0 434.0 -431.0 452.5 -457.0 471.0 -483.5 471.0 -523.5 471.0 -580.0 443.5 -609.0 416.5 -638.0 362.5 -638.0 249.0 -638.0 249.0 -533.5 249.0 -526.0 250.5 -518.0 252.0 -510.5 256.0 -503.0 261.5 -489.0 264.5 -482.0 267.5 -474.5 268.5 -473.0 L140.5 -421.0 Q129.5 -453.0 124.5 -475.5 119.5 -498.0 120.0 -511.0 119.5 -557.0 140.0 -593.0 160.5 -629.0 201.5 -655.5 236.5 -677.0 278.5 -688.0 321.0 -699.5 371.5 -699.5 416.0 -699.5 455.0 -689.0 493.5 -678.5 527.5 -658.5 566.0 -634.0 585.5 -600.5 605.0 -567.0 605.0 -525.5 605.0 -433.0 525.5 -375.0 608.5 -321.0 608.5 -227.5" fill-rule="evenodd" stroke="none"/>
    </g>
    <g id="font_DFPOP3_Std_W12_00">
      <path d="M540.5 -348.0 Q540.5 -493.5 500.5 -566.0 461.0 -639.0 381.0 -639.0 327.0 -639.0 285.0 -610.5 243.5 -582.0 214.0 -525.5 168.0 -433.0 168.0 -316.5 168.0 -255.0 181.0 -206.5 194.5 -158.0 222.0 -123.0 246.0 -91.5 275.0 -76.0 304.5 -60.5 339.0 -60.5 372.5 -60.5 403.5 -75.0 435.0 -89.5 464.0 -119.0 502.5 -158.0 521.5 -215.5 540.5 -273.0 540.5 -348.0 M683.0 -374.0 Q683.0 -297.5 657.0 -232.5 631.5 -167.0 580.5 -112.5 528.5 -56.0 464.0 -28.0 400.0 0.0 324.5 0.0 255.0 0.0 199.5 -22.5 144.0 -45.0 102.5 -91.0 61.5 -134.0 41.5 -190.5 21.5 -247.0 21.5 -316.5 21.5 -477.5 120.0 -587.0 170.5 -643.0 237.0 -671.0 303.5 -699.5 385.0 -699.5 450.5 -699.5 504.0 -675.0 558.0 -650.5 601.0 -602.0 642.0 -555.5 662.5 -498.5 683.0 -441.5 683.0 -374.0" fill-rule="evenodd" stroke="none"/>
    </g>
    <g id="font_DFPOP3_Std_W12__11">
      <path d="M680.0 -445.5 L701.5 -445.5 Q741.5 -445.5 769.5 -437.0 798.0 -429.0 814.0 -413.5 834.0 -393.5 844.5 -345.5 855.0 -297.0 855.0 -221.0 855.0 -95.0 846.0 -9.0 838.0 40.0 806.0 64.5 789.0 74.0 763.0 79.5 737.0 85.5 701.5 87.0 L676.0 87.0 Q643.0 87.0 600.5 84.0 558.5 81.0 508.0 75.0 L508.0 15.5 Q541.5 21.0 571.5 23.5 601.5 26.5 627.5 26.5 655.5 26.5 670.0 17.5 684.5 9.0 686.0 -8.0 690.5 -46.5 693.0 -100.0 695.5 -153.5 695.5 -221.0 695.0 -282.0 689.5 -318.0 683.5 -354.5 673.0 -366.5 662.0 -376.0 650.5 -380.5 639.5 -385.0 627.5 -385.0 595.5 -384.5 562.0 -382.0 529.0 -379.5 493.5 -376.0 453.5 -250.0 413.5 -161.0 384.5 -98.0 351.5 -36.0 319.0 25.5 283.5 87.0 L131.0 43.0 Q165.0 -9.0 194.5 -61.5 224.5 -113.5 250.0 -166.0 271.5 -209.5 290.5 -255.5 310.0 -301.5 327.5 -349.0 279.5 -339.0 228.5 -327.0 177.5 -315.0 124.0 -301.0 L124.0 -361.5 Q275.0 -402.0 414.0 -423.0 553.0 -444.0 680.0 -445.5 M627.5 -801.0 L637.0 -801.0 Q669.0 -800.5 698.0 -790.5 726.5 -780.0 752.5 -760.0 787.0 -730.5 847.0 -662.0 906.5 -593.5 991.0 -485.5 L839.5 -401.5 Q784.5 -496.5 737.5 -571.5 690.5 -646.5 651.5 -700.5 633.5 -720.5 613.5 -731.0 593.5 -741.5 571.5 -741.5 528.5 -740.0 427.0 -689.0 L427.0 -749.5 Q485.5 -775.0 536.0 -788.0 586.0 -800.5 627.5 -801.0 M271.5 -809.0 L407.5 -737.5 Q357.0 -650.5 301.0 -565.5 244.5 -480.5 183.5 -397.5 L47.0 -481.5 Q112.5 -566.0 168.5 -648.0 224.5 -730.0 271.5 -809.0" fill-rule="evenodd" stroke="none"/>
    </g>
    <g id="font_DFPOP3_Std_W12__12">
      <path d="M653.5 -616.5 Q670.0 -616.5 686.5 -617.0 703.0 -617.5 720.0 -617.5 733.0 -617.5 746.0 -617.0 759.5 -616.5 773.0 -616.5 778.5 -642.0 781.5 -665.0 785.0 -688.0 786.5 -708.5 768.0 -708.5 750.5 -709.0 732.5 -709.5 716.0 -709.5 696.0 -709.5 676.0 -709.0 656.0 -708.5 636.0 -707.5 L653.5 -616.5 M195.5 -578.5 Q213.5 -580.0 231.0 -581.0 248.5 -581.5 265.0 -581.5 279.0 -581.5 293.5 -581.0 307.5 -580.5 321.5 -579.5 311.0 -616.5 301.5 -646.5 292.5 -677.0 284.5 -701.5 281.0 -710.5 277.5 -716.0 274.5 -721.0 271.5 -721.0 267.0 -721.0 255.5 -718.5 244.5 -716.5 226.5 -711.5 218.5 -678.0 211.0 -644.5 203.5 -611.5 195.5 -578.5 M455.5 -235.5 Q453.5 -260.0 452.5 -285.0 451.5 -310.0 451.5 -335.0 451.5 -377.0 454.5 -418.5 457.5 -460.5 464.0 -502.0 L359.5 -437.0 Q353.5 -458.5 348.0 -479.0 342.5 -499.0 338.0 -518.0 L332.0 -518.0 332.0 -394.0 Q378.0 -391.0 424.0 -385.0 L424.0 -325.5 Q376.5 -332.0 332.0 -335.0 L332.0 -248.0 Q353.5 -269.5 387.0 -269.5 402.5 -269.5 416.5 -264.5 430.5 -260.0 443.5 -251.0 451.0 -243.0 455.5 -235.5 M771.0 -444.5 L771.0 -380.0 Q787.0 -379.0 803.5 -378.0 819.5 -377.5 835.5 -376.0 L835.5 -381.0 Q835.5 -411.0 819.5 -427.0 803.5 -443.0 771.0 -444.5 M584.5 -375.0 Q598.5 -376.5 612.5 -377.0 626.0 -378.0 640.0 -379.0 L640.0 -434.0 Q626.0 -432.5 613.0 -430.5 600.0 -428.5 588.0 -427.0 584.5 -399.5 584.5 -375.0 M771.0 -320.5 L771.0 -265.0 Q788.0 -265.0 804.0 -264.5 820.0 -264.0 835.5 -263.0 L835.5 -316.5 Q818.5 -318.0 802.5 -319.0 786.5 -320.0 771.0 -320.5 M587.0 -258.0 Q600.0 -259.0 613.0 -259.5 626.0 -260.5 640.0 -261.0 L640.0 -319.5 Q625.5 -319.0 611.5 -318.0 597.5 -317.0 583.5 -315.5 583.5 -300.0 584.5 -286.0 585.0 -272.0 587.0 -258.0 M115.5 -817.0 L243.5 -801.0 Q242.0 -795.5 241.5 -790.5 240.5 -786.0 239.5 -781.5 264.0 -790.5 280.5 -795.5 296.5 -800.5 304.0 -801.0 L311.5 -801.0 Q320.5 -800.5 330.5 -794.0 340.5 -787.0 351.0 -774.0 362.0 -757.0 391.0 -702.0 420.5 -647.0 468.0 -555.0 L468.0 -605.0 Q483.5 -606.5 499.0 -607.5 515.0 -609.0 530.5 -610.5 L513.0 -700.5 Q503.0 -699.5 493.5 -699.0 484.5 -698.0 475.0 -697.5 L475.0 -756.5 Q514.5 -760.5 553.5 -763.0 592.5 -765.5 632.0 -767.0 L632.0 -837.5 779.5 -837.5 779.5 -768.0 Q823.0 -766.5 867.0 -764.0 911.0 -761.5 955.5 -756.5 L955.5 -697.5 Q935.5 -699.0 918.5 -700.5 917.0 -677.5 913.0 -655.0 909.5 -632.5 903.0 -610.5 920.0 -609.0 937.5 -607.5 955.0 -606.5 972.0 -605.0 L972.0 -545.0 Q846.0 -557.0 720.0 -557.0 657.5 -557.0 596.0 -554.0 534.5 -551.0 473.0 -545.0 476.0 -537.0 480.0 -530.0 483.5 -523.5 487.5 -517.0 L469.0 -505.0 596.0 -505.0 Q595.0 -500.0 594.5 -495.5 594.0 -491.5 594.0 -487.5 657.5 -496.0 705.5 -500.5 753.0 -505.0 785.5 -505.0 L799.5 -505.0 Q845.0 -505.0 877.5 -496.5 910.0 -488.5 930.0 -473.0 948.5 -457.0 958.0 -435.0 967.5 -412.5 967.5 -385.0 L967.5 -255.0 Q972.5 -254.0 977.5 -253.5 982.5 -253.0 987.0 -253.0 L987.0 -193.5 Q932.5 -198.0 878.5 -201.0 825.0 -204.0 771.0 -205.0 L771.0 -128.0 Q818.5 -126.5 865.5 -124.0 912.5 -121.5 959.5 -116.5 L959.5 -57.5 Q912.0 -62.0 865.0 -64.5 818.0 -67.0 771.0 -68.5 L771.0 0.0 Q822.5 1.0 874.0 3.5 925.0 6.5 976.0 11.5 L976.0 70.5 Q910.0 64.5 844.5 61.5 779.0 58.5 713.5 58.5 647.5 58.5 582.5 61.5 517.0 64.5 451.5 70.5 L451.5 11.5 Q499.0 6.5 546.0 3.5 593.0 1.0 640.0 0.0 L640.0 -68.5 Q599.5 -67.0 559.0 -64.0 519.0 -61.0 479.0 -57.5 L479.0 -116.5 Q519.0 -120.5 559.5 -123.5 600.0 -126.5 640.0 -128.0 L640.0 -201.5 Q627.5 -201.0 615.5 -200.0 603.5 -199.5 592.0 -198.5 592.5 -189.5 593.5 -181.0 594.5 -172.5 596.0 -165.0 L464.0 -165.0 464.0 -168.0 Q460.0 -158.0 454.0 -149.5 448.0 -141.0 440.5 -134.0 427.5 -123.5 414.0 -118.0 401.0 -112.5 387.0 -112.5 370.0 -112.5 356.5 -119.0 342.5 -125.5 332.0 -139.5 L332.0 -35.0 Q358.0 -41.5 385.5 -51.0 413.5 -60.5 443.5 -72.5 L455.5 -21.5 Q400.5 0.0 352.0 15.0 303.5 30.0 262.0 38.0 219.0 45.0 168.5 49.5 118.0 53.5 59.5 55.5 L59.5 3.0 Q73.5 2.5 87.0 1.5 100.5 1.0 112.5 1.0 92.5 -50.5 74.5 -105.0 56.0 -159.5 40.0 -217.0 L151.5 -265.0 Q161.0 -220.5 173.0 -173.5 185.0 -126.5 199.5 -76.0 L199.5 -336.0 Q172.0 -334.5 144.5 -331.5 117.5 -329.0 91.0 -325.5 L91.0 -385.0 Q118.0 -389.0 145.0 -391.5 172.0 -394.0 199.5 -395.5 L199.5 -518.0 Q193.5 -517.5 188.0 -516.5 183.0 -516.0 178.0 -516.0 170.5 -490.0 163.0 -464.5 155.0 -438.5 147.5 -412.5 L27.5 -445.5 Q57.0 -537.5 78.5 -630.5 100.5 -723.5 115.5 -817.0" fill-rule="evenodd" stroke="none"/>
    </g>
    <g id="font_DFPOP3_Std_W12__13">
      <path d="M584.5 -368.5 Q584.5 -382.5 579.5 -395.5 574.0 -408.5 563.0 -420.0 551.5 -430.5 539.0 -436.0 526.0 -441.5 512.0 -441.5 496.0 -441.5 483.0 -436.0 470.0 -431.0 460.0 -421.0 449.0 -410.0 444.0 -397.0 439.0 -384.0 439.5 -368.5 439.5 -353.5 444.5 -340.5 450.0 -328.0 461.0 -317.5 471.5 -306.0 484.0 -300.5 496.5 -295.0 512.0 -295.0 526.0 -295.0 539.0 -300.5 551.5 -306.0 563.0 -317.5 574.0 -328.0 579.5 -341.0 584.5 -354.0 584.5 -368.5 M665.5 -368.5 Q665.5 -338.0 654.0 -310.5 642.5 -283.0 619.5 -260.0 573.5 -214.0 512.0 -214.0 480.0 -214.0 452.5 -225.5 425.5 -237.0 403.5 -260.0 380.5 -282.5 369.5 -309.5 358.5 -336.5 358.5 -368.5 358.5 -434.5 401.5 -479.0 444.5 -522.0 512.0 -522.0 543.5 -522.0 570.5 -511.0 597.5 -499.5 620.5 -477.0 643.0 -454.0 654.0 -427.0 665.5 -400.0 665.5 -368.5" fill-rule="evenodd" stroke="none"/>
    </g>
  </defs>
</svg>
