<?xml version="1.0" encoding="UTF-8" standalone="no"?>
<svg xmlns:xlink="http://www.w3.org/1999/xlink" height="17.2px" width="330.55px" xmlns="http://www.w3.org/2000/svg">
  <g transform="matrix(1.0, 0.0, 0.0, 1.0, 95.0, 1.8)">
    <g transform="matrix(1.0, 0.0, 0.0, 1.0, -95.9, 0.0)">
      <use fill="#000000" height="17.2" transform="matrix(0.0146, 0.0, 0.0, 0.0146, 0.0, 13.0)" width="330.55" xlink:href="#font_DFPOP3_Std_W12__0"/>
      <use fill="#000000" height="17.2" transform="matrix(0.0146, 0.0, 0.0, 0.0146, 15.0, 13.0)" width="330.55" xlink:href="#font_DFPOP3_Std_W12__1"/>
      <use fill="#000000" height="17.2" transform="matrix(0.0146, 0.0, 0.0, 0.0146, 30.0, 13.0)" width="330.55" xlink:href="#font_DFPOP3_Std_W12__2"/>
      <use fill="#000000" height="17.2" transform="matrix(0.0146, 0.0, 0.0, 0.0146, 45.0, 13.0)" width="330.55" xlink:href="#font_DFPOP3_Std_W12__3"/>
      <use fill="#000000" height="17.2" transform="matrix(0.0146, 0.0, 0.0, 0.0146, 60.0, 13.0)" width="330.55" xlink:href="#font_DFPOP3_Std_W12__4"/>
      <use fill="#000000" height="17.2" transform="matrix(0.0146, 0.0, 0.0, 0.0146, 75.0, 13.0)" width="330.55" xlink:href="#font_DFPOP3_Std_W12__5"/>
      <use fill="#000000" height="17.2" transform="matrix(0.0146, 0.0, 0.0, 0.0146, 90.0, 13.0)" width="330.55" xlink:href="#font_DFPOP3_Std_W12__6"/>
    </g>
    <g transform="matrix(1.0, 0.0, 0.0, 1.0, -95.9, 0.0)">
      <use fill="#000000" height="17.2" transform="matrix(0.0146, 0.0, 0.0, 0.0146, 105.0, 13.0)" width="330.55" xlink:href="#font_DFPOP3_Std_W12_40"/>
      <use fill="#000000" height="17.2" transform="matrix(0.0146, 0.0, 0.0, 0.0146, 115.3, 13.0)" width="330.55" xlink:href="#font_DFPOP3_Std_W12_00"/>
    </g>
    <g transform="matrix(1.0, 0.0, 0.0, 1.0, -95.9, 0.0)">
      <use fill="#000000" height="17.2" transform="matrix(0.0146, 0.0, 0.0, 0.0146, 125.6, 13.0)" width="330.55" xlink:href="#font_DFPOP3_Std_W12__7"/>
      <use fill="#000000" height="17.2" transform="matrix(0.0146, 0.0, 0.0, 0.0146, 140.6, 13.0)" width="330.55" xlink:href="#font_DFPOP3_Std_W12__8"/>
      <use fill="#000000" height="17.2" transform="matrix(0.0146, 0.0, 0.0, 0.0146, 155.6, 13.0)" width="330.55" xlink:href="#font_DFPOP3_Std_W12__9"/>
      <use fill="#000000" height="17.2" transform="matrix(0.0146, 0.0, 0.0, 0.0146, 170.6, 13.0)" width="330.55" xlink:href="#font_DFPOP3_Std_W12__10"/>
      <use fill="#000000" height="17.2" transform="matrix(0.0146, 0.0, 0.0, 0.0146, 185.6, 13.0)" width="330.55" xlink:href="#font_DFPOP3_Std_W12__11"/>
      <use fill="#000000" height="17.2" transform="matrix(0.0146, 0.0, 0.0, 0.0146, 200.6, 13.0)" width="330.55" xlink:href="#font_DFPOP3_Std_W12__12"/>
      <use fill="#000000" height="17.2" transform="matrix(0.0146, 0.0, 0.0, 0.0146, 215.6, 13.0)" width="330.55" xlink:href="#font_DFPOP3_Std_W12__13"/>
      <use fill="#000000" height="17.2" transform="matrix(0.0146, 0.0, 0.0, 0.0146, 230.6, 13.0)" width="330.55" xlink:href="#font_DFPOP3_Std_W12__14"/>
      <use fill="#000000" height="17.2" transform="matrix(0.0146, 0.0, 0.0, 0.0146, 245.6, 13.0)" width="330.55" xlink:href="#font_DFPOP3_Std_W12__15"/>
      <use fill="#000000" height="17.2" transform="matrix(0.0146, 0.0, 0.0, 0.0146, 260.6, 13.0)" width="330.55" xlink:href="#font_DFPOP3_Std_W12__16"/>
      <use fill="#000000" height="17.2" transform="matrix(0.0146, 0.0, 0.0, 0.0146, 275.6, 13.0)" width="330.55" xlink:href="#font_DFPOP3_Std_W12__17"/>
      <use fill="#000000" height="17.2" transform="matrix(0.0146, 0.0, 0.0, 0.0146, 290.6, 13.0)" width="330.55" xlink:href="#font_DFPOP3_Std_W12__18"/>
      <use fill="#000000" height="17.2" transform="matrix(0.0146, 0.0, 0.0, 0.0146, 305.6, 13.0)" width="330.55" xlink:href="#font_DFPOP3_Std_W12__19"/>
      <use fill="#000000" height="17.2" transform="matrix(0.0146, 0.0, 0.0, 0.0146, 320.6, 13.0)" width="330.55" xlink:href="#font_DFPOP3_Std_W12__20"/>
    </g>
  </g>
  <defs>
    <g id="font_DFPOP3_Std_W12__0">
      <path d="M186.5 -17.5 Q204.0 -19.0 221.5 -20.0 239.0 -21.0 256.0 -21.5 261.5 -65.0 264.5 -103.0 267.0 -141.0 267.5 -173.0 267.0 -193.0 256.0 -203.0 245.0 -213.0 223.0 -213.0 215.0 -212.0 205.5 -211.0 196.5 -209.5 187.5 -208.0 185.0 -180.5 184.0 -154.0 183.5 -127.5 183.5 -101.5 183.5 -80.0 184.0 -58.5 185.0 -37.5 186.5 -17.5 M67.5 -284.5 L195.5 -284.5 Q195.0 -279.5 194.0 -274.5 193.5 -270.0 193.5 -266.0 213.5 -269.5 229.0 -271.5 244.5 -273.5 256.0 -273.5 L263.0 -273.5 Q299.0 -273.5 324.5 -266.5 350.0 -260.0 365.5 -247.0 380.0 -234.5 387.5 -217.0 395.0 -199.5 395.5 -177.0 395.5 -103.5 383.0 -14.5 390.5 -13.0 399.0 -12.0 407.5 -10.5 415.5 -9.0 L415.5 51.0 Q379.0 45.0 342.0 42.0 305.5 39.0 269.5 39.0 249.5 39.0 229.5 40.0 210.0 40.5 191.5 43.0 192.0 53.0 193.0 63.0 194.0 73.0 195.5 83.0 L67.5 83.0 Q55.5 -9.0 55.5 -101.5 55.5 -147.5 58.5 -193.0 61.5 -238.5 67.5 -284.5 M231.5 -421.0 Q269.0 -421.0 307.5 -418.0 345.5 -415.0 384.0 -409.5 L384.0 -349.0 Q345.5 -355.5 307.5 -358.5 269.0 -361.5 231.5 -361.5 193.0 -361.5 155.5 -358.5 117.5 -355.5 80.0 -349.0 L80.0 -409.5 Q117.5 -415.0 155.5 -418.0 193.0 -421.0 231.5 -421.0 M231.5 -581.5 Q269.0 -581.5 307.5 -578.5 345.5 -575.5 384.0 -569.5 L384.0 -509.0 Q345.5 -515.0 307.5 -518.0 269.0 -521.0 231.5 -521.0 193.0 -521.0 155.5 -518.0 117.5 -515.0 80.0 -509.0 L80.0 -569.5 Q117.5 -575.5 155.5 -578.5 193.0 -581.5 231.5 -581.5 M151.5 -833.5 L296.0 -833.5 296.0 -743.5 Q322.0 -742.0 347.5 -739.0 373.5 -736.5 399.5 -733.0 L399.5 -673.0 Q313.5 -685.0 227.5 -685.0 141.5 -685.0 55.5 -673.0 L55.5 -733.0 Q79.0 -736.5 103.0 -739.0 127.0 -742.0 151.5 -743.5 L151.5 -833.5 M574.5 -253.0 Q602.0 -254.5 630.5 -255.5 658.5 -257.0 687.0 -257.0 719.5 -257.0 751.0 -255.5 783.0 -254.0 815.0 -252.0 813.5 -272.0 801.5 -282.5 789.5 -293.0 768.0 -293.0 725.5 -291.5 677.5 -288.0 629.5 -284.5 575.5 -278.5 575.0 -271.5 574.5 -265.5 574.5 -259.0 574.5 -253.0 M571.5 -161.0 Q600.5 -162.5 629.0 -163.5 658.0 -165.0 687.0 -165.0 718.5 -165.0 750.0 -163.5 781.5 -162.5 813.0 -161.0 813.0 -169.0 813.5 -177.0 814.0 -185.0 814.0 -192.5 782.0 -195.0 750.0 -196.0 718.0 -197.5 687.0 -197.5 658.0 -197.5 629.0 -196.5 600.0 -195.0 571.5 -193.5 L571.5 -161.0 M576.5 -60.5 Q612.5 -63.0 649.0 -64.0 685.0 -65.5 722.0 -65.5 743.5 -65.5 765.0 -65.0 786.5 -64.5 808.0 -63.5 808.0 -73.5 808.5 -82.5 809.0 -92.0 810.0 -100.5 779.5 -102.5 748.5 -104.0 718.0 -105.5 687.0 -105.5 658.0 -105.5 629.5 -104.0 601.0 -103.0 573.5 -101.5 573.5 -90.5 574.0 -80.5 575.0 -70.5 576.5 -60.5 M464.0 -353.5 L583.5 -353.5 Q583.0 -348.5 582.5 -345.5 581.5 -342.0 581.5 -339.0 651.0 -346.0 703.5 -349.5 756.0 -353.0 791.5 -353.5 L808.0 -353.5 Q845.0 -353.0 871.0 -346.5 897.5 -339.5 913.5 -326.5 928.0 -313.0 935.5 -294.5 943.0 -276.0 943.0 -253.0 943.0 -208.5 941.0 -159.0 939.0 -110.0 935.0 -55.5 939.5 -54.5 945.0 -54.0 950.0 -53.5 955.5 -53.0 L955.5 7.0 Q934.0 5.0 914.0 3.0 893.5 1.5 874.5 0.0 887.5 11.5 903.5 24.5 920.0 37.5 939.0 51.0 L835.5 102.5 Q814.0 84.0 795.5 64.0 776.5 44.0 760.0 22.5 L820.0 -3.0 Q795.0 -4.0 770.5 -4.5 745.5 -5.0 722.0 -5.0 688.0 -5.0 655.0 -4.0 622.0 -2.5 590.0 -1.0 L651.5 26.5 Q631.5 47.5 610.5 66.5 589.5 85.5 567.5 102.5 L464.0 51.0 Q481.0 39.5 496.0 29.0 511.5 18.0 525.5 7.0 L464.0 7.0 Q457.5 -37.5 454.5 -82.5 451.5 -127.5 451.5 -173.0 451.5 -217.5 454.5 -263.0 457.5 -308.0 464.0 -353.5 M775.0 -543.5 L775.0 -444.5 Q792.0 -444.5 809.0 -444.0 825.5 -443.0 841.5 -442.5 842.5 -462.5 843.0 -480.0 843.5 -497.5 844.0 -513.0 843.5 -528.5 835.5 -536.5 827.0 -544.5 811.0 -545.0 802.0 -544.5 792.5 -544.5 783.5 -544.0 775.0 -543.5 M651.5 -536.5 L651.5 -444.5 Q666.5 -444.5 682.0 -445.0 697.0 -445.5 711.5 -445.5 L711.5 -540.5 Q696.5 -539.0 681.0 -538.0 666.0 -537.5 651.5 -536.5 M525.5 -437.0 Q554.5 -439.0 583.5 -440.5 L583.5 -530.5 Q554.5 -527.5 525.5 -524.5 524.0 -513.0 523.5 -502.0 523.0 -491.5 523.5 -481.5 523.0 -470.0 523.5 -459.0 524.0 -448.0 525.5 -437.0 M427.0 -601.0 L535.5 -601.0 Q534.0 -596.5 533.0 -592.5 532.5 -588.5 532.5 -584.5 633.0 -594.5 707.5 -600.0 782.5 -605.0 831.5 -605.0 L852.0 -605.0 Q884.0 -605.0 907.5 -599.0 930.5 -593.0 944.0 -581.5 972.0 -557.0 972.0 -517.0 972.0 -478.5 968.5 -434.0 970.5 -433.5 972.5 -433.5 974.5 -433.0 976.0 -433.0 L976.0 -372.5 Q913.0 -379.0 850.5 -382.0 788.0 -385.0 725.0 -385.0 676.5 -385.0 628.5 -383.0 580.0 -381.0 532.5 -378.0 532.5 -373.5 533.0 -369.5 534.0 -365.5 535.5 -361.5 L427.0 -361.5 Q421.0 -390.5 418.5 -420.5 415.5 -450.5 415.5 -481.5 415.5 -510.5 418.5 -540.5 421.0 -570.5 427.0 -601.0 M627.5 -799.5 L627.5 -837.5 764.0 -837.5 764.0 -799.5 Q814.0 -798.0 863.5 -796.0 913.5 -793.5 963.5 -789.5 L963.5 -729.0 Q913.0 -733.5 863.0 -736.5 813.0 -739.0 764.0 -740.5 L764.0 -696.5 Q807.0 -695.0 850.0 -692.0 893.0 -689.5 936.0 -685.0 L936.0 -624.5 Q877.0 -631.0 818.5 -634.0 760.0 -637.0 701.5 -637.0 584.5 -637.0 468.0 -624.5 L468.0 -685.0 Q508.0 -689.0 548.0 -692.0 588.0 -695.0 627.5 -696.5 L627.5 -740.5 Q579.5 -739.0 531.0 -736.5 483.0 -733.5 435.0 -729.0 L435.0 -789.5 Q483.5 -793.5 532.0 -796.0 580.0 -798.0 627.5 -799.5" fill-rule="evenodd" stroke="none"/>
    </g>
    <g id="font_DFPOP3_Std_W12__1">
      <path d="M244.5 -109.5 Q314.5 -112.5 384.5 -114.5 454.5 -116.5 525.5 -116.5 586.0 -116.5 646.5 -115.5 707.0 -114.0 767.0 -111.5 762.5 -173.0 699.5 -173.0 509.0 -170.0 248.0 -151.5 246.5 -140.0 245.5 -129.5 244.5 -119.0 244.5 -109.5 M248.0 11.5 Q326.0 6.5 404.0 5.0 481.5 3.0 559.0 3.0 610.5 3.0 661.5 4.0 712.0 4.5 763.0 6.0 764.5 -9.0 765.5 -23.5 766.0 -38.0 767.0 -51.0 706.5 -54.5 646.0 -56.0 585.0 -57.5 525.5 -57.5 454.5 -57.5 384.0 -55.0 313.5 -53.0 243.5 -49.0 244.0 -34.0 245.0 -18.5 246.0 -3.5 248.0 11.5 M99.5 -229.5 L259.0 -229.5 Q256.0 -218.5 256.0 -211.0 413.5 -222.0 530.0 -227.5 646.5 -233.5 722.0 -233.5 L751.5 -233.5 Q799.5 -233.5 833.5 -224.5 868.0 -215.5 888.0 -198.5 908.0 -181.5 918.0 -158.0 927.5 -134.5 927.5 -105.5 927.5 -51.5 921.5 14.5 928.5 14.5 935.0 14.5 941.0 14.5 947.0 15.5 L947.0 75.0 Q850.5 68.5 753.0 65.5 656.0 62.5 559.0 62.5 482.5 62.5 406.5 64.0 330.0 66.0 255.0 69.5 255.5 77.5 256.5 85.0 257.5 92.5 259.0 99.5 L99.5 99.5 Q91.5 58.0 88.0 17.0 84.0 -24.0 84.0 -65.5 84.0 -106.0 88.0 -147.0 91.5 -188.0 99.5 -229.5 M583.5 -620.5 L583.5 -560.0 Q673.0 -560.0 762.0 -557.0 762.5 -574.0 763.5 -589.0 764.0 -604.5 765.0 -617.5 673.0 -620.5 583.5 -620.5 M583.5 -745.5 L583.5 -680.0 Q676.0 -680.0 768.0 -677.0 L768.0 -697.5 Q768.0 -734.0 712.5 -740.5 696.5 -742.5 670.5 -744.0 644.5 -745.5 608.5 -745.5 L583.5 -745.5 M624.5 -805.0 L647.0 -805.0 Q738.5 -805.0 796.0 -797.5 854.0 -790.0 877.5 -776.0 898.5 -764.5 909.0 -748.0 919.5 -731.0 919.5 -709.5 L919.5 -670.5 Q932.0 -670.0 945.0 -669.5 958.0 -668.5 972.0 -668.5 L972.0 -609.5 Q958.0 -609.5 944.5 -610.0 931.0 -610.5 918.5 -611.5 917.5 -596.0 917.0 -580.5 916.5 -565.0 916.5 -550.0 921.0 -550.0 926.0 -549.5 931.5 -549.0 936.0 -549.0 L936.0 -489.5 Q847.0 -494.0 759.0 -496.5 671.0 -499.5 583.5 -500.5 L583.5 -448.5 Q669.5 -447.5 755.5 -445.0 841.5 -442.0 927.5 -437.0 L927.5 -377.0 Q841.5 -381.5 755.5 -384.5 669.5 -387.5 583.5 -388.0 L583.5 -337.0 Q680.5 -335.5 777.5 -333.0 874.5 -330.0 972.0 -325.5 L972.0 -265.0 Q856.5 -271.5 741.5 -274.5 626.5 -277.5 512.0 -277.5 281.5 -277.5 51.0 -265.0 L51.0 -325.5 Q145.0 -330.0 238.0 -332.5 331.0 -335.0 424.0 -336.0 L424.0 -388.0 Q338.5 -387.5 253.5 -384.5 168.5 -381.5 84.0 -377.0 L84.0 -437.0 Q169.0 -442.0 254.5 -445.0 339.5 -447.5 424.0 -448.5 L424.0 -499.5 Q342.5 -499.0 261.0 -496.5 180.0 -494.0 99.5 -489.5 L99.5 -549.0 Q180.5 -553.5 261.5 -556.0 342.5 -558.5 424.0 -560.0 L424.0 -620.5 Q330.5 -619.5 237.0 -617.0 144.0 -614.0 51.0 -609.5 L51.0 -668.5 Q145.0 -673.5 238.0 -676.0 331.0 -679.0 424.0 -680.0 L424.0 -740.5 Q345.5 -736.5 264.5 -729.5 183.5 -722.5 99.5 -712.5 L99.5 -773.0 Q179.0 -783.0 260.0 -790.0 341.0 -797.0 424.0 -801.0 L424.0 -849.0 583.5 -849.0 583.5 -805.0 624.5 -805.0" fill-rule="evenodd" stroke="none"/>
    </g>
    <g id="font_DFPOP3_Std_W12__2">
      <path d="M656.5 -313.5 L537.5 -220.0 Q503.0 -266.0 460.5 -316.5 418.5 -366.5 367.5 -421.0 L481.5 -517.0 Q522.0 -473.5 566.0 -422.5 609.5 -371.5 656.5 -313.5" fill-rule="evenodd" stroke="none"/>
    </g>
    <g id="font_DFPOP3_Std_W12__3">
      <path d="M567.5 -173.0 Q578.0 -139.0 593.5 -101.0 608.5 -63.0 627.5 -21.5 L508.0 43.0 Q491.0 4.5 476.0 -36.0 460.5 -77.0 447.5 -121.0 L567.5 -173.0 M391.0 -133.0 Q402.5 -96.5 419.0 -55.5 435.0 -14.5 455.5 30.5 L332.0 95.0 Q314.0 54.0 298.0 10.0 282.0 -34.0 267.5 -81.0 L391.0 -133.0 M95.0 -109.5 L239.5 -101.5 Q224.5 -36.0 209.5 12.5 194.5 61.5 179.0 95.0 L40.0 79.0 Q55.5 41.0 69.0 -6.0 83.0 -53.0 95.0 -109.5 M300.0 -386.0 Q362.5 -389.0 424.5 -391.0 486.5 -393.0 548.0 -393.0 627.5 -393.0 707.5 -390.0 L707.5 -459.0 Q697.0 -459.5 686.0 -460.0 675.5 -461.0 665.5 -461.0 635.5 -461.0 606.5 -458.0 577.0 -455.0 548.0 -449.5 L548.0 -509.0 Q577.0 -515.0 606.5 -518.0 635.5 -521.0 665.5 -521.0 676.5 -521.0 686.5 -520.5 697.0 -520.0 707.5 -519.0 L707.5 -520.0 Q707.0 -551.0 703.0 -569.5 699.5 -588.5 693.0 -596.0 687.0 -605.0 659.5 -605.0 648.5 -605.0 619.0 -597.0 589.0 -589.0 539.5 -573.5 L539.5 -633.0 Q593.5 -647.5 638.0 -655.5 683.0 -664.0 720.0 -665.5 L730.0 -665.5 Q758.5 -665.5 779.5 -662.5 800.5 -659.5 814.0 -654.5 808.0 -703.5 759.0 -716.0 732.0 -722.0 694.5 -725.5 656.5 -729.0 608.5 -729.0 531.5 -729.0 425.0 -716.5 318.5 -703.5 183.5 -679.0 L183.5 -667.5 Q183.5 -661.5 183.5 -655.5 183.5 -650.0 184.5 -645.0 L307.0 -645.0 Q306.5 -640.5 306.0 -636.0 305.0 -631.5 305.0 -627.5 319.0 -631.5 331.5 -635.5 344.0 -639.5 356.5 -644.0 386.5 -655.0 420.0 -669.0 454.0 -683.0 491.5 -701.5 L519.0 -641.0 Q481.5 -624.0 447.5 -610.5 413.5 -597.0 383.0 -588.0 363.0 -580.0 342.0 -573.0 320.5 -566.5 299.0 -560.0 298.0 -548.5 297.5 -538.5 297.0 -528.5 297.0 -519.0 309.5 -520.0 322.0 -520.5 335.0 -521.0 347.0 -521.0 382.5 -521.0 417.5 -518.0 452.0 -515.0 487.5 -509.0 L487.5 -449.5 Q452.0 -455.0 417.5 -458.0 382.5 -461.0 347.0 -461.0 334.0 -461.0 321.0 -460.0 308.5 -459.5 296.0 -459.0 296.0 -440.5 297.0 -422.0 298.5 -403.5 300.0 -386.0 M420.0 -837.5 L603.0 -837.5 603.0 -788.5 Q614.0 -788.5 624.5 -789.0 635.0 -789.5 644.0 -789.5 L660.5 -789.5 Q743.5 -789.5 802.5 -781.5 861.5 -773.0 897.0 -758.0 936.0 -739.5 956.0 -710.0 976.0 -681.0 976.0 -641.0 975.0 -619.0 974.0 -599.0 973.5 -579.0 972.0 -561.0 L854.0 -561.0 Q854.0 -552.0 854.5 -541.5 855.0 -531.0 855.0 -520.0 L855.0 -382.0 Q860.5 -382.0 865.5 -381.5 871.0 -381.0 875.5 -381.0 L875.5 -321.5 Q793.5 -327.0 711.5 -330.0 629.5 -333.0 548.0 -333.0 500.0 -332.5 453.5 -331.5 406.5 -330.5 360.5 -328.5 342.0 -303.5 323.0 -278.5 303.5 -254.0 283.5 -229.5 425.0 -248.5 556.0 -258.5 686.5 -268.5 808.0 -269.5 L825.5 -269.5 Q891.5 -269.5 917.5 -248.0 934.5 -234.0 943.0 -201.0 951.5 -168.5 951.5 -118.0 951.5 -75.0 949.0 -39.0 946.5 -3.5 942.0 25.5 939.0 42.5 930.5 55.0 922.0 67.5 907.5 76.0 892.5 82.0 869.5 86.0 846.5 89.5 814.0 91.0 L791.5 91.0 Q758.0 91.0 715.0 87.0 671.5 82.5 619.5 75.0 L619.5 15.5 Q655.0 23.0 685.5 27.0 716.5 30.5 743.5 30.5 762.5 30.5 773.0 25.5 784.0 20.5 785.5 10.0 787.0 -3.0 788.0 -18.5 789.0 -34.0 790.5 -52.0 L687.0 3.0 Q671.5 -31.5 658.0 -68.5 644.0 -105.5 632.0 -145.5 L751.5 -197.5 Q759.5 -174.0 769.5 -148.5 779.5 -123.5 791.5 -97.5 791.5 -102.0 791.5 -107.0 791.5 -112.5 791.5 -118.0 791.5 -151.5 787.0 -171.5 782.5 -192.0 774.0 -198.5 765.5 -203.5 757.0 -206.0 748.5 -209.0 739.5 -209.0 630.0 -207.5 502.0 -195.5 374.0 -183.5 227.5 -162.0 219.0 -152.5 211.0 -143.5 203.0 -134.0 195.5 -125.0 L155.5 -150.5 Q152.5 -150.0 151.0 -149.5 149.0 -149.5 147.5 -149.5 L147.5 -155.5 76.0 -200.5 Q102.5 -227.5 127.0 -253.5 151.5 -280.0 173.0 -305.0 L171.0 -305.0 Q163.5 -347.5 159.5 -390.0 155.5 -432.0 155.5 -475.0 155.5 -495.0 156.5 -515.5 157.0 -536.5 158.5 -557.0 L51.0 -557.0 Q36.0 -612.5 36.0 -667.5 36.0 -694.5 40.5 -722.0 45.5 -749.5 55.5 -777.0 L204.0 -777.0 Q200.0 -767.5 197.0 -758.0 194.0 -748.5 192.5 -739.5 255.5 -750.0 312.5 -759.0 369.0 -768.0 420.0 -774.0 L420.0 -837.5" fill-rule="evenodd" stroke="none"/>
    </g>
    <g id="font_DFPOP3_Std_W12__4">
      <path d="M439.5 -385.0 L460.0 -385.0 Q517.5 -422.0 546.5 -446.5 575.5 -471.5 575.5 -485.5 575.5 -487.0 568.5 -488.0 561.5 -489.5 548.0 -489.5 478.0 -485.0 406.0 -477.5 333.5 -470.0 259.0 -461.0 L243.5 -525.5 Q359.0 -540.5 453.0 -549.0 547.5 -557.0 619.5 -557.0 684.0 -556.5 717.0 -537.0 750.0 -518.0 751.5 -481.5 751.5 -452.0 717.0 -408.0 682.5 -363.5 613.5 -305.0 613.5 -298.0 614.0 -292.0 614.5 -286.0 615.5 -280.5 702.0 -279.0 789.0 -276.5 876.0 -274.0 963.5 -269.5 L963.5 -200.5 Q877.0 -205.0 790.5 -208.0 704.5 -210.5 618.5 -212.0 618.5 -193.5 619.0 -176.0 619.5 -158.0 619.5 -141.5 619.5 -35.5 613.5 21.5 610.5 47.5 601.0 63.0 592.0 78.5 577.5 84.0 567.5 91.5 544.0 95.5 520.0 99.5 483.5 99.5 416.0 99.5 342.0 90.0 268.0 81.0 187.5 62.5 L187.5 -13.5 Q246.0 4.5 295.0 13.5 344.0 22.5 384.0 22.5 402.5 22.5 414.0 19.5 426.0 16.5 432.0 11.5 436.5 8.5 440.0 0.5 443.0 -7.5 445.5 -21.5 451.5 -72.0 451.5 -141.5 451.5 -157.5 451.0 -175.0 450.5 -193.0 449.5 -213.0 253.0 -210.0 59.5 -200.5 L59.5 -269.5 Q253.0 -278.5 446.5 -281.5 445.0 -305.5 443.5 -331.5 441.5 -357.5 439.5 -385.0 M431.0 -829.5 L603.0 -829.5 603.0 -732.0 Q614.0 -732.0 624.0 -732.5 634.0 -733.0 643.0 -733.0 L658.5 -733.0 Q741.5 -733.0 800.5 -725.0 859.5 -717.0 895.0 -701.5 972.0 -664.5 972.0 -581.5 968.5 -529.5 958.5 -482.0 948.5 -435.0 932.0 -393.0 L764.0 -393.0 Q784.0 -447.0 795.0 -494.0 805.5 -541.0 808.0 -581.5 808.0 -641.5 752.5 -655.5 726.5 -661.5 690.5 -665.0 654.0 -668.5 607.0 -668.5 534.5 -668.5 435.0 -659.5 336.0 -650.0 210.0 -632.0 208.5 -615.0 208.0 -599.0 208.0 -582.5 208.0 -567.5 208.0 -523.5 211.5 -480.0 215.5 -436.5 223.0 -393.0 L63.5 -393.0 Q55.0 -436.5 51.0 -480.0 47.0 -523.5 47.0 -567.5 47.0 -610.5 51.0 -654.0 55.0 -697.5 63.5 -741.5 L223.0 -741.5 Q221.0 -729.0 219.5 -717.5 217.5 -706.0 216.0 -695.5 275.0 -704.0 329.0 -710.5 382.5 -717.5 431.0 -722.0 L431.0 -829.5" fill-rule="evenodd" stroke="none"/>
    </g>
    <g id="font_DFPOP3_Std_W12__5">
      <path d="M596.0 -746.5 Q572.0 -742.0 548.0 -736.5 524.5 -731.0 499.5 -725.0 L499.5 -785.5 Q589.0 -807.0 671.0 -818.0 753.0 -828.5 827.5 -829.5 L845.0 -829.5 Q877.0 -829.5 899.5 -823.5 922.0 -817.5 935.0 -807.0 951.0 -792.5 959.5 -758.0 967.5 -723.0 967.5 -668.5 967.5 -624.0 965.5 -586.5 963.5 -549.0 960.5 -518.0 959.0 -499.5 953.0 -486.5 946.5 -473.5 936.0 -465.0 916.0 -451.0 871.5 -449.5 L855.0 -449.5 Q827.5 -449.5 791.5 -453.5 755.5 -457.0 711.5 -465.0 L711.5 -525.5 Q739.5 -517.0 764.5 -513.0 789.5 -509.0 811.0 -509.0 815.5 -509.0 818.5 -514.5 821.0 -520.0 821.0 -531.5 822.0 -556.0 822.5 -590.5 823.5 -625.0 823.5 -668.5 823.0 -705.5 819.5 -728.0 816.0 -750.0 810.0 -758.0 803.0 -763.0 796.5 -766.0 789.5 -769.0 783.5 -769.0 771.0 -769.0 759.5 -768.5 748.0 -768.0 737.5 -767.0 729.5 -727.0 721.5 -692.0 713.0 -656.5 704.5 -626.5 691.5 -583.0 677.0 -540.0 662.5 -496.5 647.0 -453.5 L519.0 -493.5 Q533.0 -528.0 545.0 -563.0 556.5 -597.5 567.5 -633.0 575.0 -660.5 582.0 -689.0 589.0 -717.5 596.0 -746.5 M643.0 -171.0 Q675.5 -174.0 708.0 -175.5 741.0 -177.0 773.0 -177.0 779.5 -177.0 786.0 -177.0 793.0 -177.0 799.5 -177.0 L799.5 -305.0 Q799.5 -336.5 785.5 -352.5 771.0 -368.5 743.5 -368.5 721.0 -367.0 696.0 -362.0 671.0 -357.0 643.0 -349.0 641.5 -326.0 641.0 -304.5 640.0 -282.5 640.0 -261.0 640.0 -238.0 641.0 -215.5 641.5 -192.5 643.0 -171.0 M231.5 -736.5 L231.5 -825.5 376.0 -825.5 376.0 -735.0 Q403.5 -733.5 431.5 -731.0 459.5 -728.0 487.5 -725.0 L487.5 -665.5 Q459.0 -668.5 431.0 -671.0 403.5 -673.5 376.0 -675.0 L376.0 -535.5 Q409.0 -534.0 442.0 -531.0 475.0 -528.5 508.0 -525.5 L508.0 -465.0 Q474.0 -468.0 441.0 -471.0 408.0 -473.5 376.0 -475.0 L376.0 -333.0 385.0 -333.0 Q408.0 -333.0 431.5 -330.0 455.5 -327.0 479.0 -321.5 L479.0 -261.0 Q455.5 -267.5 431.5 -270.5 408.0 -273.5 385.0 -273.5 L376.0 -273.5 376.0 -126.0 Q409.0 -118.5 441.5 -111.5 474.5 -104.5 507.0 -98.5 501.0 -140.0 498.0 -180.5 495.5 -221.0 495.5 -261.0 495.5 -302.5 498.5 -344.5 502.0 -387.0 508.0 -429.0 L651.5 -429.0 Q650.0 -423.0 649.5 -417.5 649.0 -412.0 649.0 -407.5 690.0 -418.5 721.0 -423.5 751.5 -429.0 773.0 -429.0 L783.5 -429.0 Q828.5 -429.0 861.5 -420.5 894.5 -412.5 914.5 -396.5 933.0 -381.0 942.0 -359.0 951.5 -337.0 951.5 -309.0 L951.5 -167.0 Q955.0 -166.0 959.0 -165.5 963.0 -165.0 967.5 -165.0 L967.5 -105.5 Q918.5 -111.0 870.0 -114.0 821.5 -116.5 773.0 -116.5 741.0 -116.5 710.0 -115.5 679.0 -114.0 649.0 -111.5 649.0 -106.0 650.0 -101.5 650.5 -97.0 651.5 -93.0 L535.5 -93.0 Q540.0 -91.5 544.5 -91.0 548.5 -90.0 553.0 -90.0 648.0 -71.5 754.0 -58.5 860.0 -45.5 976.0 -37.0 L951.5 95.0 Q833.0 88.5 715.5 73.0 598.0 58.0 481.5 35.0 407.0 19.5 330.0 1.0 253.0 -18.0 174.0 -41.0 165.0 28.0 155.5 91.0 L23.5 66.5 Q40.5 -32.5 55.0 -151.5 69.0 -270.5 80.0 -409.5 L208.0 -397.5 Q198.5 -277.5 189.5 -173.0 200.0 -170.0 210.5 -167.0 220.5 -164.0 231.5 -161.0 L231.5 -476.0 Q188.5 -474.5 146.5 -472.0 105.0 -469.5 63.5 -465.0 L63.5 -525.5 Q105.0 -530.0 147.0 -532.5 189.0 -535.0 231.5 -536.5 L231.5 -676.0 Q194.5 -674.5 158.5 -672.0 122.5 -669.5 87.0 -665.5 L87.0 -725.0 Q123.0 -729.5 159.0 -732.0 195.5 -735.0 231.5 -736.5" fill-rule="evenodd" stroke="none"/>
    </g>
    <g id="font_DFPOP3_Std_W12__6">
      <path d="M208.0 -793.5 Q227.0 -793.5 245.5 -787.0 263.5 -780.5 280.5 -768.0 296.0 -752.5 303.5 -733.0 311.5 -713.5 311.5 -689.0 311.5 -666.0 302.0 -647.0 293.0 -627.5 275.5 -612.5 241.5 -584.5 208.0 -584.5 185.0 -584.5 165.0 -594.0 145.0 -603.0 129.0 -621.5 116.0 -637.0 109.5 -654.0 103.5 -670.5 103.5 -689.0 103.5 -710.0 109.0 -727.5 115.0 -745.5 127.0 -761.0 143.0 -777.0 163.0 -785.5 183.5 -793.5 208.0 -793.5 M609.5 -212.0 Q631.0 -214.5 652.5 -215.5 674.0 -217.0 695.5 -217.0 L695.5 -300.0 Q695.0 -316.0 691.5 -326.5 688.0 -336.5 682.0 -341.0 679.0 -342.5 670.5 -344.0 661.5 -345.0 647.0 -345.0 638.0 -345.0 610.5 -336.0 607.0 -299.0 607.0 -265.0 607.0 -251.5 607.5 -238.0 608.0 -225.0 609.5 -212.0 M499.5 -412.5 L619.5 -412.5 Q618.0 -403.5 616.5 -394.0 634.0 -399.0 650.0 -401.5 666.0 -404.0 680.0 -405.5 L690.0 -405.5 Q736.5 -405.5 764.0 -399.5 791.5 -393.5 801.0 -382.0 807.5 -371.5 811.5 -351.0 815.0 -330.5 815.0 -300.0 L815.0 -208.0 Q819.5 -207.0 825.0 -206.5 830.0 -205.5 835.5 -205.0 L835.5 -145.5 Q800.5 -151.0 765.5 -153.5 730.5 -156.5 695.5 -156.5 674.5 -156.5 654.5 -155.5 634.5 -154.0 614.5 -152.5 615.0 -143.5 616.5 -134.5 618.0 -126.0 619.5 -116.5 L499.5 -116.5 Q493.5 -153.5 490.5 -191.0 487.5 -228.5 487.5 -265.0 487.5 -339.0 499.5 -412.5 M699.5 -526.5 Q719.5 -528.0 739.5 -529.0 759.5 -530.0 779.5 -531.5 L779.5 -619.5 Q769.5 -620.5 760.0 -621.0 750.5 -621.5 741.5 -621.5 730.5 -621.5 720.0 -621.0 709.5 -620.5 699.5 -619.5 L699.5 -526.5 M535.5 -505.0 Q555.5 -508.0 575.5 -511.0 L575.5 -709.5 699.5 -709.5 699.5 -679.0 Q710.0 -679.5 720.5 -680.5 730.5 -681.0 741.5 -681.0 750.5 -681.0 760.5 -680.5 770.0 -679.5 779.5 -679.0 L779.5 -737.5 Q779.0 -752.5 770.0 -761.0 761.0 -769.0 743.5 -769.0 697.5 -766.5 644.0 -759.0 591.0 -751.5 530.5 -739.5 529.0 -716.0 528.0 -693.5 527.5 -671.0 527.5 -649.0 527.5 -612.5 529.0 -576.5 531.0 -540.0 535.5 -505.0 M411.5 -829.5 L539.5 -829.5 Q538.0 -821.5 537.5 -814.0 536.5 -806.5 536.5 -799.5 615.0 -814.5 673.5 -822.0 732.0 -829.5 771.0 -829.5 L787.5 -829.5 Q820.0 -829.5 843.5 -823.5 867.0 -817.0 880.5 -805.0 893.5 -793.5 900.5 -777.5 907.0 -761.5 907.5 -741.5 L907.5 -528.5 Q922.0 -524.5 932.5 -519.0 943.5 -513.5 950.5 -506.0 966.5 -487.5 974.5 -445.0 983.0 -402.5 983.0 -336.0 983.0 -280.5 981.5 -234.5 980.0 -188.0 977.0 -150.5 974.0 -127.5 967.0 -111.0 959.5 -95.0 948.0 -85.0 936.5 -76.0 918.5 -71.0 900.0 -66.5 874.5 -65.5 L855.0 -65.5 Q830.5 -65.5 798.5 -68.0 766.0 -70.5 727.0 -77.0 L727.0 -137.0 Q751.5 -131.0 774.0 -128.0 796.0 -125.0 815.0 -125.0 829.5 -125.0 837.5 -132.5 845.5 -140.5 847.0 -155.5 849.0 -188.0 850.5 -233.0 852.0 -278.0 852.0 -336.0 852.0 -386.5 847.5 -417.0 843.0 -447.5 833.5 -456.5 825.0 -464.5 816.5 -468.5 808.0 -473.0 799.5 -473.0 727.0 -471.5 641.0 -461.5 555.0 -451.0 456.5 -431.0 453.5 -396.0 452.5 -361.0 451.5 -326.5 451.5 -293.0 451.5 -237.5 454.0 -183.0 457.0 -128.5 463.0 -75.0 470.5 -73.0 479.0 -72.0 487.0 -70.5 495.5 -69.5 591.5 -53.0 713.0 -42.5 834.0 -32.5 980.0 -28.5 L972.0 95.0 Q858.0 92.0 754.5 86.0 651.0 79.5 558.0 69.5 412.0 52.5 235.5 14.5 L215.0 11.5 Q212.0 11.0 197.0 32.0 182.0 53.0 155.5 95.0 L43.0 -9.0 Q65.5 -24.5 88.5 -41.0 111.5 -57.5 135.0 -76.0 L135.0 -425.0 Q135.0 -442.5 129.0 -451.5 123.0 -461.0 111.5 -461.0 85.5 -454.5 47.0 -433.0 L47.0 -493.5 Q102.5 -519.5 164.0 -521.0 221.5 -521.0 250.5 -495.0 279.5 -469.0 279.5 -417.0 L279.5 -113.5 Q292.0 -110.0 305.0 -106.5 318.0 -103.5 333.0 -100.5 328.0 -148.0 326.0 -196.0 323.5 -244.5 323.5 -293.0 323.5 -350.0 326.5 -407.0 329.5 -464.5 336.0 -521.0 L405.5 -521.0 Q402.5 -553.5 401.0 -585.0 399.5 -617.0 399.5 -649.0 399.5 -694.0 402.5 -739.0 405.5 -784.0 411.5 -829.5" fill-rule="evenodd" stroke="none"/>
    </g>
    <g id="font_DFPOP3_Std_W12_40">
      <path d="M689.0 -182.5 L678.0 -121.0 563.0 -121.0 553.0 -5.0 414.5 -21.5 426.0 -121.0 15.5 -121.0 342.0 -695.5 473.0 -645.0 203.0 -182.5 433.0 -182.5 483.5 -596.0 619.5 -582.5 569.5 -182.5 689.0 -182.5" fill-rule="evenodd" stroke="none"/>
    </g>
    <g id="font_DFPOP3_Std_W12_00">
      <path d="M540.5 -348.0 Q540.5 -493.5 500.5 -566.0 461.0 -639.0 381.0 -639.0 327.0 -639.0 285.0 -610.5 243.5 -582.0 214.0 -525.5 168.0 -433.0 168.0 -316.5 168.0 -255.0 181.0 -206.5 194.5 -158.0 222.0 -123.0 246.0 -91.5 275.0 -76.0 304.5 -60.5 339.0 -60.5 372.5 -60.5 403.5 -75.0 435.0 -89.5 464.0 -119.0 502.5 -158.0 521.5 -215.5 540.5 -273.0 540.5 -348.0 M683.0 -374.0 Q683.0 -297.5 657.0 -232.5 631.5 -167.0 580.5 -112.5 528.5 -56.0 464.0 -28.0 400.0 0.0 324.5 0.0 255.0 0.0 199.5 -22.5 144.0 -45.0 102.5 -91.0 61.5 -134.0 41.5 -190.5 21.5 -247.0 21.5 -316.5 21.5 -477.5 120.0 -587.0 170.5 -643.0 237.0 -671.0 303.5 -699.5 385.0 -699.5 450.5 -699.5 504.0 -675.0 558.0 -650.5 601.0 -602.0 642.0 -555.5 662.5 -498.5 683.0 -441.5 683.0 -374.0" fill-rule="evenodd" stroke="none"/>
    </g>
    <g id="font_DFPOP3_Std_W12__7">
      <path d="M680.0 -445.5 L701.5 -445.5 Q741.5 -445.5 769.5 -437.0 798.0 -429.0 814.0 -413.5 834.0 -393.5 844.5 -345.5 855.0 -297.0 855.0 -221.0 855.0 -95.0 846.0 -9.0 838.0 40.0 806.0 64.5 789.0 74.0 763.0 79.5 737.0 85.5 701.5 87.0 L676.0 87.0 Q643.0 87.0 600.5 84.0 558.5 81.0 508.0 75.0 L508.0 15.5 Q541.5 21.0 571.5 23.5 601.5 26.5 627.5 26.5 655.5 26.5 670.0 17.5 684.5 9.0 686.0 -8.0 690.5 -46.5 693.0 -100.0 695.5 -153.5 695.5 -221.0 695.0 -282.0 689.5 -318.0 683.5 -354.5 673.0 -366.5 662.0 -376.0 650.5 -380.5 639.5 -385.0 627.5 -385.0 595.5 -384.5 562.0 -382.0 529.0 -379.5 493.5 -376.0 453.5 -250.0 413.5 -161.0 384.5 -98.0 351.5 -36.0 319.0 25.5 283.5 87.0 L131.0 43.0 Q165.0 -9.0 194.5 -61.5 224.5 -113.5 250.0 -166.0 271.5 -209.5 290.5 -255.5 310.0 -301.5 327.5 -349.0 279.5 -339.0 228.5 -327.0 177.5 -315.0 124.0 -301.0 L124.0 -361.5 Q275.0 -402.0 414.0 -423.0 553.0 -444.0 680.0 -445.5 M627.5 -801.0 L637.0 -801.0 Q669.0 -800.5 698.0 -790.5 726.5 -780.0 752.5 -760.0 787.0 -730.5 847.0 -662.0 906.5 -593.5 991.0 -485.5 L839.5 -401.5 Q784.5 -496.5 737.5 -571.5 690.5 -646.5 651.5 -700.5 633.5 -720.5 613.5 -731.0 593.5 -741.5 571.5 -741.5 528.5 -740.0 427.0 -689.0 L427.0 -749.5 Q485.5 -775.0 536.0 -788.0 586.0 -800.5 627.5 -801.0 M271.5 -809.0 L407.5 -737.5 Q357.0 -650.5 301.0 -565.5 244.5 -480.5 183.5 -397.5 L47.0 -481.5 Q112.5 -566.0 168.5 -648.0 224.5 -730.0 271.5 -809.0" fill-rule="evenodd" stroke="none"/>
    </g>
    <g id="font_DFPOP3_Std_W12__8">
      <path d="M653.5 -616.5 Q670.0 -616.5 686.5 -617.0 703.0 -617.5 720.0 -617.5 733.0 -617.5 746.0 -617.0 759.5 -616.5 773.0 -616.5 778.5 -642.0 781.5 -665.0 785.0 -688.0 786.5 -708.5 768.0 -708.5 750.5 -709.0 732.5 -709.5 716.0 -709.5 696.0 -709.5 676.0 -709.0 656.0 -708.5 636.0 -707.5 L653.5 -616.5 M195.5 -578.5 Q213.5 -580.0 231.0 -581.0 248.5 -581.5 265.0 -581.5 279.0 -581.5 293.5 -581.0 307.5 -580.5 321.5 -579.5 311.0 -616.5 301.5 -646.5 292.5 -677.0 284.5 -701.5 281.0 -710.5 277.5 -716.0 274.5 -721.0 271.5 -721.0 267.0 -721.0 255.5 -718.5 244.5 -716.5 226.5 -711.5 218.5 -678.0 211.0 -644.5 203.5 -611.5 195.5 -578.5 M455.5 -235.5 Q453.5 -260.0 452.5 -285.0 451.5 -310.0 451.5 -335.0 451.5 -377.0 454.5 -418.5 457.5 -460.5 464.0 -502.0 L359.5 -437.0 Q353.5 -458.5 348.0 -479.0 342.5 -499.0 338.0 -518.0 L332.0 -518.0 332.0 -394.0 Q378.0 -391.0 424.0 -385.0 L424.0 -325.5 Q376.5 -332.0 332.0 -335.0 L332.0 -248.0 Q353.5 -269.5 387.0 -269.5 402.5 -269.5 416.5 -264.5 430.5 -260.0 443.5 -251.0 451.0 -243.0 455.5 -235.5 M771.0 -444.5 L771.0 -380.0 Q787.0 -379.0 803.5 -378.0 819.5 -377.5 835.5 -376.0 L835.5 -381.0 Q835.5 -411.0 819.5 -427.0 803.5 -443.0 771.0 -444.5 M584.5 -375.0 Q598.5 -376.5 612.5 -377.0 626.0 -378.0 640.0 -379.0 L640.0 -434.0 Q626.0 -432.5 613.0 -430.5 600.0 -428.5 588.0 -427.0 584.5 -399.5 584.5 -375.0 M771.0 -320.5 L771.0 -265.0 Q788.0 -265.0 804.0 -264.5 820.0 -264.0 835.5 -263.0 L835.5 -316.5 Q818.5 -318.0 802.5 -319.0 786.5 -320.0 771.0 -320.5 M587.0 -258.0 Q600.0 -259.0 613.0 -259.5 626.0 -260.5 640.0 -261.0 L640.0 -319.5 Q625.5 -319.0 611.5 -318.0 597.5 -317.0 583.5 -315.5 583.5 -300.0 584.5 -286.0 585.0 -272.0 587.0 -258.0 M115.5 -817.0 L243.5 -801.0 Q242.0 -795.5 241.5 -790.5 240.5 -786.0 239.5 -781.5 264.0 -790.5 280.5 -795.5 296.5 -800.5 304.0 -801.0 L311.5 -801.0 Q320.5 -800.5 330.5 -794.0 340.5 -787.0 351.0 -774.0 362.0 -757.0 391.0 -702.0 420.5 -647.0 468.0 -555.0 L468.0 -605.0 Q483.5 -606.5 499.0 -607.5 515.0 -609.0 530.5 -610.5 L513.0 -700.5 Q503.0 -699.5 493.5 -699.0 484.5 -698.0 475.0 -697.5 L475.0 -756.5 Q514.5 -760.5 553.5 -763.0 592.5 -765.5 632.0 -767.0 L632.0 -837.5 779.5 -837.5 779.5 -768.0 Q823.0 -766.5 867.0 -764.0 911.0 -761.5 955.5 -756.5 L955.5 -697.5 Q935.5 -699.0 918.5 -700.5 917.0 -677.5 913.0 -655.0 909.5 -632.5 903.0 -610.5 920.0 -609.0 937.5 -607.5 955.0 -606.5 972.0 -605.0 L972.0 -545.0 Q846.0 -557.0 720.0 -557.0 657.5 -557.0 596.0 -554.0 534.5 -551.0 473.0 -545.0 476.0 -537.0 480.0 -530.0 483.5 -523.5 487.5 -517.0 L469.0 -505.0 596.0 -505.0 Q595.0 -500.0 594.5 -495.5 594.0 -491.5 594.0 -487.5 657.5 -496.0 705.5 -500.5 753.0 -505.0 785.5 -505.0 L799.5 -505.0 Q845.0 -505.0 877.5 -496.5 910.0 -488.5 930.0 -473.0 948.5 -457.0 958.0 -435.0 967.5 -412.5 967.5 -385.0 L967.5 -255.0 Q972.5 -254.0 977.5 -253.5 982.5 -253.0 987.0 -253.0 L987.0 -193.5 Q932.5 -198.0 878.5 -201.0 825.0 -204.0 771.0 -205.0 L771.0 -128.0 Q818.5 -126.5 865.5 -124.0 912.5 -121.5 959.5 -116.5 L959.5 -57.5 Q912.0 -62.0 865.0 -64.5 818.0 -67.0 771.0 -68.5 L771.0 0.0 Q822.5 1.0 874.0 3.5 925.0 6.5 976.0 11.5 L976.0 70.5 Q910.0 64.5 844.5 61.5 779.0 58.5 713.5 58.5 647.5 58.5 582.5 61.5 517.0 64.5 451.5 70.5 L451.5 11.5 Q499.0 6.5 546.0 3.5 593.0 1.0 640.0 0.0 L640.0 -68.5 Q599.5 -67.0 559.0 -64.0 519.0 -61.0 479.0 -57.5 L479.0 -116.5 Q519.0 -120.5 559.5 -123.5 600.0 -126.5 640.0 -128.0 L640.0 -201.5 Q627.5 -201.0 615.5 -200.0 603.5 -199.5 592.0 -198.5 592.5 -189.5 593.5 -181.0 594.5 -172.5 596.0 -165.0 L464.0 -165.0 464.0 -168.0 Q460.0 -158.0 454.0 -149.5 448.0 -141.0 440.5 -134.0 427.5 -123.5 414.0 -118.0 401.0 -112.5 387.0 -112.5 370.0 -112.5 356.5 -119.0 342.5 -125.5 332.0 -139.5 L332.0 -35.0 Q358.0 -41.5 385.5 -51.0 413.5 -60.5 443.5 -72.5 L455.5 -21.5 Q400.5 0.0 352.0 15.0 303.5 30.0 262.0 38.0 219.0 45.0 168.5 49.5 118.0 53.5 59.5 55.5 L59.5 3.0 Q73.5 2.5 87.0 1.5 100.5 1.0 112.5 1.0 92.5 -50.5 74.5 -105.0 56.0 -159.5 40.0 -217.0 L151.5 -265.0 Q161.0 -220.5 173.0 -173.5 185.0 -126.5 199.5 -76.0 L199.5 -336.0 Q172.0 -334.5 144.5 -331.5 117.5 -329.0 91.0 -325.5 L91.0 -385.0 Q118.0 -389.0 145.0 -391.5 172.0 -394.0 199.5 -395.5 L199.5 -518.0 Q193.5 -517.5 188.0 -516.5 183.0 -516.0 178.0 -516.0 170.5 -490.0 163.0 -464.5 155.0 -438.5 147.5 -412.5 L27.5 -445.5 Q57.0 -537.5 78.5 -630.5 100.5 -723.5 115.5 -817.0" fill-rule="evenodd" stroke="none"/>
    </g>
    <g id="font_DFPOP3_Std_W12__9">
      <path d="M804.0 -717.0 L923.5 -628.5 Q744.0 -553.5 645.0 -508.0 546.0 -462.5 527.5 -445.5 527.5 -435.0 535.0 -430.0 543.0 -425.0 559.0 -425.0 580.5 -425.0 636.0 -432.5 691.5 -440.5 781.5 -455.5 775.0 -468.5 770.0 -482.0 764.5 -495.0 760.0 -509.0 L879.5 -561.0 Q896.0 -523.0 918.0 -479.5 940.0 -436.5 967.5 -389.0 L844.0 -325.5 Q824.0 -361.0 807.0 -399.5 701.0 -382.5 633.0 -374.0 565.5 -365.5 535.5 -365.5 455.5 -365.5 415.5 -390.5 376.0 -415.0 376.0 -465.0 376.0 -474.0 387.5 -486.5 399.0 -499.0 422.0 -515.0 448.0 -529.5 473.5 -544.0 498.5 -558.5 523.5 -572.5 465.0 -578.5 436.0 -602.0 407.5 -625.5 407.5 -665.5 407.5 -671.0 413.0 -679.0 418.5 -686.5 429.0 -697.5 521.0 -771.0 607.0 -829.5 L716.0 -752.5 Q559.0 -665.0 543.5 -645.0 543.5 -636.5 550.5 -632.5 557.5 -628.5 571.5 -628.5 580.0 -628.5 598.0 -630.5 616.5 -632.5 644.0 -637.0 725.5 -680.0 804.0 -717.0 M530.5 -232.5 Q555.0 -218.5 579.5 -205.0 604.5 -191.5 630.0 -178.0 647.5 -189.0 664.5 -199.0 681.0 -209.5 697.5 -220.0 716.5 -230.0 727.0 -240.5 738.0 -250.5 739.5 -261.0 739.5 -264.0 728.0 -266.5 717.0 -268.5 695.5 -269.5 664.0 -268.0 622.5 -258.5 581.0 -249.5 530.5 -232.5 M287.5 -624.5 L407.5 -561.0 Q380.0 -516.0 351.0 -472.0 322.0 -428.0 292.0 -385.0 L292.0 -170.0 Q327.0 -213.0 359.5 -259.0 377.0 -283.5 394.0 -310.5 411.0 -337.0 427.0 -365.5 L567.5 -328.5 Q561.0 -319.0 555.5 -310.0 549.5 -301.5 545.0 -294.0 604.5 -311.0 660.5 -319.5 716.5 -328.5 768.0 -328.5 843.5 -328.5 881.5 -306.5 919.5 -284.5 919.5 -240.5 919.5 -225.0 909.0 -209.5 898.5 -193.5 878.5 -178.0 855.0 -159.5 829.5 -141.5 804.0 -123.0 776.0 -104.5 823.5 -80.5 872.5 -57.5 921.0 -35.0 972.0 -13.5 L844.0 95.0 Q791.5 67.5 742.0 40.0 692.0 12.5 645.0 -15.5 605.0 11.0 561.5 38.5 518.0 66.0 471.0 95.0 L355.5 -17.5 Q394.5 -39.0 431.5 -60.5 468.5 -81.5 504.0 -102.5 487.5 -112.5 472.5 -122.5 457.0 -132.5 443.5 -142.5 432.5 -127.0 421.5 -113.0 410.0 -99.0 399.5 -85.0 L292.0 -162.0 292.0 99.5 147.5 99.5 147.5 -206.0 40.0 -273.5 Q112.0 -364.0 174.0 -452.0 235.5 -540.0 287.5 -624.5 M231.5 -840.5 L355.5 -773.0 Q311.5 -702.5 262.5 -633.5 213.5 -564.0 159.5 -496.5 L40.0 -573.5 Q95.5 -642.5 143.5 -709.5 191.5 -776.0 231.5 -840.5" fill-rule="evenodd" stroke="none"/>
    </g>
    <g id="font_DFPOP3_Std_W12__10">
      <path d="M614.5 -391.0 Q614.5 -361.0 601.5 -334.5 589.0 -307.5 564.0 -284.5 541.0 -263.0 514.5 -249.5 487.5 -236.0 456.5 -231.5 L423.0 -265.0 Q450.5 -280.5 468.5 -296.0 487.0 -311.5 494.5 -327.5 451.5 -332.5 430.5 -354.5 409.5 -376.5 409.5 -415.5 409.5 -436.0 416.0 -452.5 422.5 -469.0 436.0 -481.5 462.5 -506.0 504.0 -506.0 527.5 -506.0 547.5 -497.5 567.5 -489.0 583.5 -473.0 599.0 -456.5 606.5 -436.0 614.5 -415.5 614.5 -391.0" fill-rule="evenodd" stroke="none"/>
    </g>
    <g id="font_DFPOP3_Std_W12__11">
      <path d="M867.5 -789.5 Q887.0 -789.5 905.0 -783.0 923.0 -776.5 940.0 -764.0 955.5 -748.5 963.5 -729.0 971.5 -709.5 972.0 -685.0 971.5 -662.0 962.5 -643.0 953.5 -623.5 936.0 -608.5 919.0 -594.5 901.5 -588.0 884.5 -581.5 867.5 -581.5 844.5 -581.5 825.0 -590.5 805.5 -599.0 789.5 -617.5 776.5 -633.0 770.0 -649.5 764.0 -666.5 764.0 -685.0 764.0 -706.0 769.5 -723.5 775.0 -741.5 787.5 -756.5 803.0 -773.0 823.0 -781.0 843.0 -789.5 867.5 -789.5 M515.0 -817.0 L531.5 -752.5 Q490.0 -740.5 452.0 -731.0 414.5 -722.0 380.0 -716.0 L380.0 -536.5 Q413.0 -536.5 446.0 -537.0 479.5 -537.5 513.0 -537.5 536.0 -537.5 559.5 -537.0 583.5 -536.5 607.0 -536.5 592.0 -596.5 578.0 -658.0 564.0 -719.0 552.0 -781.5 L699.5 -829.5 Q716.5 -750.5 734.5 -676.5 753.0 -602.5 773.0 -533.5 821.5 -532.0 870.0 -530.0 918.5 -527.5 967.5 -525.5 L967.5 -465.0 Q923.0 -467.0 878.5 -469.0 834.5 -470.5 790.5 -472.0 796.5 -448.0 803.5 -425.5 810.5 -402.5 818.0 -381.0 819.0 -377.0 820.0 -374.0 821.0 -370.5 822.5 -367.5 833.0 -380.5 843.0 -394.0 853.5 -407.0 863.0 -421.0 L991.0 -328.5 Q966.0 -295.0 939.0 -261.0 912.5 -227.0 884.5 -191.5 906.0 -134.5 929.0 -80.0 951.5 -25.5 976.0 26.5 L823.5 102.5 Q807.0 65.5 792.5 29.5 777.5 -7.0 764.0 -43.0 736.5 -10.5 708.5 23.0 680.5 56.5 651.5 91.0 L523.5 -9.0 Q569.5 -60.0 614.0 -111.0 658.5 -162.0 701.5 -213.0 690.0 -245.5 679.5 -278.0 668.5 -310.5 659.5 -343.0 649.5 -376.0 640.5 -409.0 631.0 -442.5 622.5 -476.0 595.0 -476.0 567.5 -476.5 540.0 -477.0 513.0 -477.0 479.5 -477.0 446.0 -476.5 413.0 -476.0 380.0 -476.0 L380.0 -249.0 Q412.0 -268.0 448.0 -291.0 484.0 -314.0 523.5 -341.0 L555.0 -284.5 Q506.0 -251.0 462.0 -222.5 418.5 -194.5 380.0 -173.0 L380.0 99.5 219.0 99.5 219.0 -95.0 Q185.5 -81.5 150.0 -69.0 114.0 -56.5 76.0 -45.0 L55.5 -105.5 Q102.0 -120.0 143.0 -135.0 184.0 -149.5 219.0 -165.0 L219.0 -472.0 Q178.5 -470.5 138.5 -468.5 98.5 -466.5 59.5 -465.0 L59.5 -525.5 Q99.5 -527.0 139.5 -529.0 179.0 -531.0 219.0 -532.5 L219.0 -695.5 Q185.5 -692.0 150.0 -690.5 114.0 -689.0 76.0 -689.0 L76.0 -741.5 Q147.0 -743.0 204.0 -747.5 261.0 -752.5 304.0 -761.0 351.0 -767.5 404.0 -781.5 456.5 -795.5 515.0 -817.0" fill-rule="evenodd" stroke="none"/>
    </g>
    <g id="font_DFPOP3_Std_W12__12">
      <path d="M272.5 -116.5 Q334.0 -120.5 396.0 -123.0 457.5 -125.0 519.0 -125.0 625.0 -125.0 731.0 -119.0 L731.0 -125.0 Q731.0 -155.0 720.0 -170.0 708.5 -185.5 687.0 -185.5 600.5 -183.0 497.5 -174.5 394.0 -166.5 274.5 -152.5 273.5 -143.5 273.0 -134.5 272.5 -125.0 272.5 -116.5 M273.5 3.0 Q344.0 -1.0 414.0 -3.0 484.0 -5.0 554.0 -5.0 598.5 -5.0 642.5 -4.5 686.5 -3.5 731.0 -2.0 L731.0 -59.5 Q623.5 -65.5 519.0 -65.5 456.5 -65.5 394.5 -63.5 332.5 -61.0 271.5 -57.5 271.5 -42.0 271.5 -27.0 272.0 -11.5 273.5 3.0 M139.5 -237.5 L283.5 -237.5 Q280.5 -223.5 280.5 -213.0 423.5 -228.5 528.5 -236.5 634.0 -244.5 701.5 -244.5 L727.0 -244.5 Q771.5 -244.5 803.5 -237.0 835.5 -229.5 854.0 -214.0 872.5 -198.5 882.0 -177.5 892.0 -156.0 892.0 -129.0 L892.0 7.0 Q893.5 7.0 894.5 7.0 895.5 7.0 896.0 7.0 L896.0 66.5 Q810.0 60.5 724.5 58.0 639.0 55.0 554.0 55.5 485.0 55.5 416.5 57.0 347.5 58.5 278.5 62.5 279.5 71.5 280.5 81.0 282.0 90.0 283.5 99.5 L139.5 99.5 Q133.0 57.0 130.5 15.0 128.0 -26.5 128.0 -69.5 128.0 -111.0 130.5 -153.0 133.0 -195.5 139.5 -237.5 M314.5 -684.0 Q364.5 -688.5 414.5 -691.0 464.5 -693.0 515.0 -693.0 564.0 -693.0 612.5 -691.0 661.0 -689.0 708.5 -685.0 699.5 -697.5 691.5 -709.5 683.5 -721.5 676.0 -733.0 642.0 -773.0 599.0 -773.0 557.5 -772.5 493.0 -760.0 428.5 -747.5 341.0 -723.0 334.0 -713.0 327.5 -703.0 320.5 -693.5 314.5 -684.0 M256.0 -540.5 Q411.0 -557.0 525.0 -565.0 639.0 -573.5 711.5 -573.5 L739.5 -573.5 Q751.0 -573.5 761.0 -573.0 771.0 -572.0 780.5 -571.5 772.5 -584.5 765.0 -597.5 757.0 -610.5 749.5 -622.5 690.5 -627.5 632.0 -630.0 573.5 -633.0 515.0 -633.0 455.0 -633.0 395.5 -630.0 335.5 -627.0 275.5 -621.5 L275.5 -628.5 Q263.0 -612.0 251.0 -595.0 239.0 -578.0 227.5 -561.0 L259.0 -561.0 Q257.5 -555.5 257.0 -550.5 256.0 -545.5 256.0 -540.5 M694.5 -359.5 Q705.0 -358.5 716.0 -358.0 726.5 -357.5 737.5 -357.5 742.0 -387.5 744.5 -413.5 747.5 -439.5 747.5 -461.0 747.5 -487.0 736.5 -500.0 725.0 -513.0 703.5 -513.0 639.0 -510.0 571.5 -507.0 L571.5 -361.5 579.5 -361.5 Q592.0 -393.0 602.0 -425.0 612.0 -457.0 619.5 -489.5 L739.5 -477.0 Q731.0 -448.0 719.5 -418.5 708.0 -388.5 694.5 -359.5 M250.0 -352.5 Q262.0 -352.5 274.0 -353.0 285.5 -353.5 297.0 -354.5 288.0 -382.0 280.5 -408.5 273.5 -435.0 267.5 -461.0 L387.0 -485.5 Q402.5 -421.0 424.0 -359.5 428.5 -359.5 432.5 -360.0 436.0 -360.5 439.5 -360.5 L439.5 -497.5 Q394.0 -493.0 346.5 -488.5 299.0 -484.0 250.0 -479.0 248.5 -461.5 248.0 -444.5 247.5 -428.0 248.0 -411.5 247.5 -396.5 248.0 -381.5 248.5 -367.0 250.0 -352.5 M239.5 -845.0 L331.0 -780.5 Q423.5 -806.5 505.0 -819.5 586.0 -833.0 655.5 -833.5 L664.5 -833.5 Q695.5 -833.5 723.0 -823.0 750.5 -812.5 775.0 -792.5 808.0 -765.0 865.0 -698.0 922.0 -631.5 1003.5 -525.5 L892.0 -462.0 Q892.0 -435.5 889.0 -408.0 886.0 -380.0 880.5 -350.0 884.5 -349.5 888.5 -349.5 892.0 -349.0 896.0 -349.0 L896.0 -289.0 Q807.5 -295.0 719.5 -298.0 631.5 -301.0 543.5 -301.0 471.5 -301.0 399.5 -299.0 327.0 -296.5 255.0 -293.0 255.5 -284.5 256.5 -276.5 257.5 -269.0 259.0 -261.0 L128.0 -261.0 Q115.5 -335.0 115.5 -411.5 115.5 -427.5 116.0 -444.0 116.5 -460.5 118.0 -477.0 L27.5 -549.0 Q86.0 -622.5 139.0 -697.0 192.0 -771.0 239.5 -845.0" fill-rule="evenodd" stroke="none"/>
    </g>
    <g id="font_DFPOP3_Std_W12__13">
      <path d="M186.5 -19.5 Q197.0 -20.5 208.0 -21.0 218.5 -21.5 229.5 -21.5 235.5 -107.5 235.5 -169.0 235.5 -184.5 226.5 -192.5 217.5 -200.5 199.5 -200.5 196.5 -200.5 193.5 -200.0 190.5 -199.5 187.5 -198.5 185.0 -174.0 184.0 -149.5 183.5 -125.0 183.5 -101.5 183.5 -80.0 184.0 -59.5 185.0 -39.5 186.5 -19.5 M76.0 -273.5 L195.5 -273.5 Q195.0 -269.0 194.0 -264.5 193.5 -260.0 193.5 -256.0 206.0 -258.5 216.0 -259.5 226.0 -261.0 233.5 -261.0 L239.5 -261.0 Q272.0 -261.0 295.5 -255.0 319.0 -249.0 333.0 -237.5 346.0 -225.5 352.5 -209.0 359.5 -193.0 359.5 -173.0 359.5 -137.5 358.0 -97.5 356.5 -57.0 353.5 -12.5 362.5 -9.0 371.5 -9.0 L371.5 51.0 Q304.0 39.0 239.5 39.0 227.5 39.0 215.0 39.0 203.0 39.5 191.5 41.0 192.0 48.5 193.0 56.0 194.0 63.5 195.5 70.5 L76.0 70.5 Q63.5 -15.5 63.5 -101.5 63.5 -187.5 76.0 -273.5 M215.0 -421.0 Q249.0 -421.0 283.0 -418.0 317.5 -415.0 351.0 -409.5 L351.0 -349.0 Q317.5 -355.5 283.0 -358.5 249.0 -361.5 215.0 -361.5 147.5 -361.5 80.0 -349.0 L80.0 -409.5 Q113.5 -415.0 147.5 -418.0 181.0 -421.0 215.0 -421.0 M215.0 -581.5 Q249.0 -581.5 283.0 -578.5 317.5 -575.5 351.0 -569.5 L351.0 -509.0 Q317.5 -515.0 283.0 -518.0 249.0 -521.0 215.0 -521.0 147.5 -521.0 80.0 -509.0 L80.0 -569.5 Q147.5 -581.5 215.0 -581.5 M155.5 -833.5 L283.5 -833.5 283.5 -742.5 Q305.0 -741.0 326.0 -738.5 347.0 -736.5 367.5 -733.0 L367.5 -673.0 Q328.5 -679.0 289.5 -682.0 250.5 -685.0 212.0 -685.0 132.0 -685.0 55.5 -673.0 L55.5 -733.0 Q80.5 -737.0 106.0 -739.5 131.0 -742.0 155.5 -743.5 L155.5 -833.5 M735.0 -320.5 L735.0 -376.0 Q721.5 -376.0 708.0 -376.5 695.0 -377.0 682.0 -377.0 665.0 -377.0 649.5 -376.5 634.0 -376.0 619.5 -376.0 L619.5 -320.5 Q635.0 -320.5 651.0 -321.0 666.5 -321.5 682.0 -321.5 695.0 -321.5 708.0 -321.0 721.5 -320.5 735.0 -320.5 M852.0 -561.0 Q855.0 -587.5 855.0 -601.0 855.0 -608.5 846.0 -612.5 837.0 -616.5 819.0 -617.5 811.5 -616.5 804.0 -615.5 796.0 -614.0 788.5 -612.5 787.5 -603.0 787.5 -594.5 787.5 -586.0 787.5 -577.5 787.5 -571.5 787.5 -566.0 787.5 -560.5 788.5 -556.0 804.5 -558.5 820.5 -559.5 836.5 -561.0 852.0 -561.0 M619.5 -204.0 Q635.0 -204.0 651.0 -204.5 666.5 -204.5 682.0 -205.0 L735.0 -205.0 735.0 -260.0 Q721.5 -260.0 708.0 -260.5 694.5 -261.0 682.0 -261.0 665.0 -261.0 649.5 -260.5 634.0 -260.0 619.5 -260.0 L619.5 -204.0 M785.5 -144.5 Q813.0 -116.5 840.5 -92.0 842.0 -101.5 845.5 -109.5 848.5 -117.5 854.0 -125.0 859.5 -129.5 865.5 -133.5 871.5 -137.0 877.5 -140.5 854.0 -141.0 830.5 -142.0 807.5 -143.0 785.5 -144.5 M691.0 -685.0 L795.5 -685.0 Q795.0 -681.0 794.0 -677.5 793.5 -673.5 793.5 -669.5 814.5 -673.0 835.0 -675.0 855.5 -677.0 875.5 -677.0 923.0 -677.0 947.5 -660.0 971.5 -643.0 972.0 -609.5 971.5 -601.0 970.5 -586.0 969.0 -571.5 966.5 -550.0 968.0 -549.0 969.0 -549.0 970.5 -549.0 972.0 -549.0 L972.0 -489.5 Q942.5 -495.0 914.0 -498.0 885.5 -500.5 857.0 -500.5 840.0 -500.5 824.0 -499.5 808.0 -498.0 792.5 -496.5 792.5 -490.5 793.0 -486.0 794.0 -481.0 794.5 -477.0 L859.0 -477.0 859.0 -432.0 Q882.0 -430.5 905.0 -428.5 928.5 -426.5 951.5 -425.0 L951.5 -365.5 Q903.5 -368.5 859.0 -371.5 L859.0 -315.5 Q897.5 -312.5 936.0 -309.0 L936.0 -249.0 Q896.0 -252.0 859.0 -255.0 L859.0 -200.5 Q888.5 -199.0 917.5 -197.0 946.5 -195.0 976.0 -193.5 L976.0 -133.0 Q968.0 -133.0 961.5 -134.0 954.5 -134.5 948.0 -135.0 951.5 -133.5 953.5 -132.0 956.0 -130.5 958.5 -129.0 980.0 -109.0 980.0 -77.0 980.0 -61.5 973.5 -48.5 966.5 -35.5 954.5 -24.5 949.0 -20.0 944.5 -17.0 939.5 -13.5 935.0 -11.5 942.5 -4.5 951.0 2.0 959.0 8.5 967.5 15.5 L863.0 102.5 Q805.5 45.5 755.0 -11.5 704.5 -68.5 660.5 -127.0 651.5 -78.0 647.0 -46.5 643.0 -15.0 643.0 -1.0 643.0 16.5 650.0 25.5 657.0 35.0 671.5 35.0 690.0 35.0 714.0 29.5 738.0 24.5 768.0 15.5 L768.0 75.0 Q729.0 85.0 696.5 90.0 664.5 95.0 640.0 95.0 608.0 95.0 585.0 89.5 562.5 83.5 549.0 72.5 535.0 61.0 527.5 46.0 520.0 30.5 519.0 11.5 519.0 6.5 519.5 0.5 519.5 -5.5 520.0 -13.5 502.0 14.5 483.5 39.0 L367.5 -33.0 Q398.5 -60.5 426.0 -87.0 453.5 -114.0 477.0 -139.5 454.0 -137.5 431.5 -136.0 408.5 -134.5 387.0 -133.0 L387.0 -193.5 Q414.5 -195.0 441.5 -196.5 469.0 -198.0 495.5 -199.5 L495.5 -255.0 Q478.0 -253.5 461.0 -252.0 444.0 -250.5 427.0 -249.0 L427.0 -309.0 Q444.0 -311.0 461.5 -312.5 478.5 -314.0 495.5 -315.5 L495.5 -371.5 Q474.0 -370.0 453.0 -368.5 431.5 -367.0 411.5 -365.5 L411.5 -425.0 Q432.5 -426.5 453.0 -428.0 474.0 -429.5 495.5 -431.0 L495.5 -477.0 619.5 -477.0 619.5 -436.0 Q635.0 -436.5 651.0 -436.5 666.5 -437.0 682.0 -437.0 696.0 -437.0 709.0 -436.5 722.0 -436.5 735.0 -436.0 L735.0 -469.0 691.0 -469.0 Q686.5 -496.0 685.0 -523.0 683.0 -550.0 683.0 -577.5 683.0 -603.5 685.0 -630.5 686.5 -657.5 691.0 -685.0 M547.0 -561.0 Q547.0 -571.0 547.5 -579.0 548.0 -587.0 548.0 -593.0 548.0 -600.5 539.0 -604.5 529.5 -608.5 512.0 -609.5 503.5 -608.5 494.5 -607.0 485.5 -605.5 476.0 -603.0 475.5 -594.5 475.5 -587.0 475.0 -579.5 475.0 -573.5 475.0 -568.0 475.5 -563.5 475.5 -559.0 476.0 -555.0 513.0 -561.0 547.0 -561.0 M380.0 -677.0 L483.5 -677.0 Q482.5 -672.5 482.0 -668.5 481.5 -664.5 481.5 -660.5 503.5 -664.5 525.0 -666.5 546.5 -668.5 567.5 -668.5 615.0 -668.5 639.0 -652.0 663.5 -635.0 663.5 -601.0 663.5 -593.5 663.0 -581.0 662.5 -568.5 661.5 -550.0 663.0 -550.0 664.5 -549.5 666.0 -549.0 667.5 -549.0 L667.5 -489.5 Q638.5 -495.0 610.0 -498.0 581.5 -500.5 554.0 -500.5 535.0 -500.5 516.5 -499.5 498.0 -498.0 480.5 -495.5 480.5 -488.5 481.0 -482.0 482.0 -475.0 483.5 -469.0 L380.0 -469.0 Q375.5 -495.0 373.5 -521.0 371.5 -547.5 371.5 -573.5 371.5 -599.0 373.5 -625.0 375.5 -650.5 380.0 -677.0 M599.0 -833.5 L760.0 -833.5 760.0 -776.0 Q812.0 -774.5 863.5 -772.0 915.5 -769.5 967.5 -765.0 L967.5 -705.5 Q896.0 -711.0 825.0 -714.0 753.5 -717.0 683.0 -717.0 612.5 -717.0 541.0 -714.0 470.0 -711.0 399.5 -705.5 L399.5 -765.0 Q449.5 -769.0 499.0 -771.5 549.0 -774.5 599.0 -776.0 L599.0 -833.5" fill-rule="evenodd" stroke="none"/>
    </g>
    <g id="font_DFPOP3_Std_W12__14">
      <path d="M606.0 -550.0 Q603.0 -471.5 603.0 -405.5 632.5 -407.0 661.5 -408.5 690.5 -409.5 720.0 -409.5 732.0 -409.5 744.0 -409.0 756.0 -408.5 768.0 -408.5 772.0 -447.0 775.0 -482.5 777.5 -517.5 779.5 -550.0 757.0 -551.5 735.0 -552.0 712.5 -553.0 691.0 -553.0 669.0 -553.0 647.5 -552.0 626.0 -551.5 606.0 -550.0 M610.5 -747.5 Q609.0 -710.5 608.0 -676.0 607.0 -642.0 607.0 -610.5 628.5 -612.0 649.5 -612.5 670.5 -613.5 691.0 -613.5 714.5 -613.5 737.0 -612.5 760.0 -612.0 782.5 -610.5 782.5 -624.0 783.0 -638.0 783.5 -652.0 783.5 -665.5 783.5 -711.0 756.5 -734.0 729.5 -756.5 676.0 -756.5 660.5 -755.0 644.0 -753.0 628.0 -750.5 610.5 -747.5 M724.0 -817.0 Q779.0 -817.0 818.5 -807.0 858.0 -797.0 881.5 -777.0 904.5 -757.5 916.0 -730.0 927.5 -703.0 927.5 -668.5 927.5 -609.5 923.5 -542.0 919.0 -474.5 910.5 -399.5 915.5 -398.5 921.0 -398.0 926.5 -397.5 932.0 -397.5 L932.0 -337.0 Q887.5 -341.5 844.0 -344.5 800.5 -347.5 758.0 -348.0 771.5 -320.5 787.0 -291.5 802.5 -262.5 819.0 -233.5 820.5 -242.5 824.5 -250.5 828.5 -258.5 834.5 -266.0 848.5 -279.5 866.0 -286.0 883.0 -293.0 903.0 -293.0 920.0 -293.0 935.5 -287.5 951.0 -282.5 964.5 -272.5 977.5 -259.5 984.5 -242.5 991.0 -225.5 991.0 -205.0 991.0 -166.5 960.5 -140.5 946.5 -128.0 932.0 -122.5 918.0 -116.5 903.0 -116.5 898.5 -116.5 894.0 -117.0 889.5 -117.5 886.0 -119.0 907.5 -82.0 931.0 -45.0 954.5 -7.5 980.0 30.5 L848.0 99.5 Q783.5 -6.0 725.0 -117.0 666.5 -228.5 613.5 -346.0 610.5 -345.5 607.5 -345.0 604.5 -345.0 602.0 -345.0 599.0 -211.5 597.5 -139.5 596.0 -67.5 596.0 -57.5 596.0 -36.5 599.5 -23.0 602.5 -9.0 610.5 -3.0 618.0 4.5 629.0 9.0 640.0 14.0 655.5 15.5 675.5 15.5 706.5 10.0 737.5 5.0 779.5 -5.0 L775.0 62.5 Q723.0 70.0 681.0 74.5 639.5 79.0 607.0 79.0 L577.5 79.0 Q546.0 79.0 521.0 67.5 495.5 56.0 477.0 33.0 462.0 16.5 454.5 -6.5 447.5 -30.0 447.5 -61.5 447.5 -101.5 451.5 -291.0 455.5 -481.0 464.0 -821.0 L611.5 -821.0 611.5 -804.0 Q643.5 -810.0 669.0 -813.5 694.5 -817.0 712.5 -817.0 L724.0 -817.0 M182.5 -542.5 Q195.5 -543.5 208.5 -544.0 221.5 -544.5 235.5 -545.0 241.5 -544.5 248.5 -544.5 255.0 -544.0 262.0 -543.5 260.5 -603.5 257.5 -643.5 254.5 -683.0 250.0 -701.5 247.0 -717.0 238.0 -725.0 229.5 -733.0 215.0 -733.0 207.5 -733.0 190.5 -724.0 187.5 -678.0 185.0 -632.5 183.0 -587.5 182.5 -542.5 M180.0 -306.0 Q193.0 -307.5 206.5 -308.5 219.5 -309.0 233.5 -309.0 240.5 -309.0 247.5 -308.5 254.5 -308.5 262.0 -308.0 262.0 -343.0 262.5 -375.0 263.0 -407.0 263.0 -436.0 L263.0 -484.5 Q255.5 -484.5 248.5 -485.0 241.5 -485.5 235.5 -485.5 206.5 -485.5 180.0 -482.5 179.5 -454.5 179.5 -428.0 179.0 -401.0 179.0 -375.0 179.0 -357.0 179.5 -340.0 179.5 -323.0 180.0 -306.0 M189.5 -54.5 Q205.5 -56.0 221.5 -56.5 237.5 -57.5 253.0 -57.5 255.0 -108.0 257.0 -155.5 258.5 -203.5 260.0 -248.0 252.5 -248.0 246.0 -248.5 239.5 -249.0 233.5 -249.0 219.5 -249.0 206.5 -248.0 193.5 -247.5 181.0 -247.0 182.0 -197.5 184.0 -150.0 186.5 -102.0 189.5 -54.5 M55.5 -801.0 L195.5 -801.0 Q195.0 -794.5 194.5 -789.0 194.5 -784.0 194.5 -779.5 210.0 -785.5 224.5 -788.5 239.0 -792.0 252.0 -793.5 L263.0 -793.5 Q314.5 -793.5 345.5 -774.0 376.0 -754.0 386.0 -715.0 394.5 -679.5 399.0 -609.5 403.5 -540.0 403.5 -436.0 403.5 -350.0 400.5 -253.5 397.5 -156.5 392.0 -49.0 400.5 -47.5 408.5 -46.5 416.5 -46.0 424.0 -45.0 L424.0 15.5 Q344.0 3.0 267.5 3.0 248.0 3.0 229.5 4.0 211.0 4.5 192.5 6.0 192.5 17.0 193.5 28.5 194.0 39.5 195.5 51.0 L55.5 51.0 Q47.5 -55.0 44.0 -161.5 40.0 -268.0 40.0 -375.0 40.0 -481.0 44.0 -587.5 47.5 -694.0 55.5 -801.0" fill-rule="evenodd" stroke="none"/>
    </g>
    <g id="font_DFPOP3_Std_W12__15">
      <path d="M587.0 -244.5 Q616.0 -246.5 646.0 -247.5 675.5 -249.0 705.5 -249.0 730.0 -249.0 754.5 -248.0 779.5 -247.5 804.0 -247.0 800.0 -271.5 793.0 -286.5 786.5 -302.0 777.0 -308.0 763.5 -316.5 749.0 -321.0 734.5 -325.5 720.0 -325.5 690.5 -325.0 658.5 -321.0 626.0 -317.0 591.0 -309.0 589.0 -292.5 588.0 -276.0 587.0 -260.0 587.0 -244.5 M583.5 -121.0 Q613.0 -122.5 641.5 -123.5 670.5 -125.0 699.5 -125.0 726.0 -125.0 753.5 -124.0 780.5 -123.5 808.0 -122.0 808.0 -135.5 808.0 -151.0 808.0 -166.0 808.0 -182.5 L808.0 -186.5 Q782.0 -188.0 756.5 -188.5 731.0 -189.5 705.5 -189.5 675.0 -189.5 644.5 -188.0 614.0 -187.0 584.5 -185.5 584.0 -176.0 584.0 -167.0 583.5 -158.0 583.5 -149.5 583.5 -142.0 583.5 -135.0 583.5 -127.5 583.5 -121.0 M451.5 -393.0 L599.0 -393.0 Q597.5 -385.5 596.5 -379.0 596.0 -372.5 596.0 -366.5 644.5 -375.0 690.5 -379.5 736.0 -384.5 779.5 -385.0 L802.0 -385.0 Q843.0 -385.0 872.0 -378.0 900.5 -371.0 916.5 -357.5 959.5 -320.5 959.5 -182.5 959.5 -126.0 957.5 -78.5 955.0 -31.0 951.5 8.0 948.0 30.5 940.5 47.0 933.0 64.0 920.5 75.0 908.0 83.0 888.0 88.5 867.5 93.5 839.5 95.0 L819.0 95.0 Q791.5 95.0 757.0 93.0 722.0 91.0 680.0 87.0 L680.0 26.5 Q707.0 30.5 730.5 32.5 754.5 35.0 775.0 35.0 801.5 35.0 803.0 4.0 803.5 -10.0 804.5 -26.5 805.0 -43.0 806.0 -62.5 779.0 -64.0 752.5 -65.0 725.5 -65.5 699.5 -65.5 670.0 -65.5 642.0 -64.5 613.5 -63.0 585.5 -61.5 587.5 -21.5 591.0 17.5 594.5 56.0 599.0 95.0 L451.5 95.0 Q443.0 34.0 439.0 -27.0 435.0 -88.0 435.0 -149.5 435.0 -210.0 439.0 -271.0 443.0 -332.0 451.5 -393.0 M611.5 -768.0 L611.5 -833.5 764.0 -833.5 764.0 -768.0 Q814.5 -766.5 866.0 -764.0 917.0 -761.5 967.5 -756.5 L967.5 -697.5 Q916.5 -702.0 865.5 -704.5 814.5 -707.0 764.0 -708.5 L764.0 -632.0 Q811.0 -630.5 857.5 -628.0 904.5 -625.5 951.5 -621.5 L951.5 -561.0 Q903.5 -565.5 857.0 -568.5 810.0 -571.0 764.0 -572.5 L764.0 -495.5 Q816.0 -494.0 868.0 -491.5 919.5 -489.0 972.0 -485.5 L972.0 -425.0 Q836.5 -437.0 701.5 -437.0 566.5 -437.0 431.0 -425.0 L431.0 -485.5 Q476.5 -488.5 521.5 -491.5 567.0 -494.0 611.5 -495.5 L611.5 -571.5 Q570.5 -570.0 530.5 -567.5 491.0 -565.0 451.5 -561.0 L451.5 -621.5 Q531.5 -627.5 611.5 -631.0 L611.5 -708.5 Q565.5 -707.0 520.5 -704.0 475.5 -701.0 431.0 -697.5 L431.0 -756.5 Q475.5 -760.5 521.0 -763.5 566.0 -766.5 611.5 -768.0 M185.5 -538.5 Q199.0 -539.5 212.5 -540.0 226.0 -540.5 239.5 -540.5 247.5 -540.5 255.0 -540.0 262.5 -539.5 270.5 -539.5 268.0 -598.0 263.5 -636.5 259.0 -675.0 253.0 -693.0 249.0 -708.5 237.5 -717.0 226.5 -725.0 208.0 -725.0 201.5 -725.0 192.5 -719.0 189.5 -672.5 188.0 -627.5 186.0 -582.5 185.5 -538.5 M183.5 -310.5 Q197.0 -312.0 211.5 -312.5 225.5 -313.5 239.5 -313.5 247.0 -313.5 254.5 -313.0 261.5 -312.5 269.5 -312.5 270.0 -344.5 270.5 -374.5 271.5 -404.5 271.5 -432.0 L271.5 -480.5 Q263.0 -480.5 255.0 -481.0 247.5 -481.0 239.5 -481.5 210.5 -481.5 184.5 -478.0 183.5 -450.0 183.5 -422.5 183.5 -395.0 183.5 -368.5 L183.5 -310.5 M190.5 -61.5 Q207.5 -63.0 224.5 -64.0 241.0 -65.0 258.0 -65.5 261.0 -115.5 263.5 -162.0 265.5 -209.0 267.5 -252.0 259.5 -252.0 252.5 -252.5 246.0 -253.0 239.5 -253.0 210.5 -253.0 184.5 -250.0 185.0 -202.5 186.5 -155.5 188.0 -108.5 190.5 -61.5 M67.5 -785.5 L195.5 -785.5 Q195.5 -781.5 195.0 -778.0 194.5 -774.0 194.5 -771.0 207.5 -776.5 220.0 -780.0 232.0 -784.0 243.5 -785.5 L256.0 -785.5 Q310.0 -785.5 342.5 -766.0 375.0 -747.0 386.0 -708.5 394.5 -673.5 399.0 -604.0 403.5 -535.0 403.5 -432.0 403.5 -348.5 399.5 -254.5 396.0 -161.0 389.0 -57.5 397.0 -56.0 404.5 -55.0 412.0 -54.0 420.0 -53.0 L420.0 7.0 Q382.0 1.0 345.0 -2.0 308.0 -5.0 271.5 -5.0 251.5 -5.0 232.0 -4.5 212.5 -3.5 193.5 -2.0 193.5 10.0 194.0 22.5 195.0 35.0 195.5 47.0 L67.5 47.0 Q61.5 -56.5 58.5 -160.5 55.5 -264.0 55.5 -368.5 55.5 -473.0 58.5 -577.0 61.5 -681.0 67.5 -785.5" fill-rule="evenodd" stroke="none"/>
    </g>
    <g id="font_DFPOP3_Std_W12__16">
      <path d="M552.0 -667.5 L552.0 -833.5 703.5 -833.5 703.5 -668.5 Q769.0 -667.0 834.0 -664.5 899.0 -662.0 963.5 -657.5 L963.5 -597.0 Q934.5 -598.5 905.5 -600.5 876.5 -602.5 849.0 -604.0 898.0 -297.0 959.5 7.0 L819.0 75.0 Q791.5 -89.5 766.5 -260.5 742.0 -431.5 719.0 -608.5 709.5 -608.5 703.5 -608.5 L703.5 95.0 552.0 95.0 552.0 -608.5 Q547.5 -608.0 544.0 -607.5 540.5 -607.5 537.5 -607.0 522.0 -441.5 499.5 -271.5 476.5 -102.0 447.5 70.5 L303.0 35.0 Q337.5 -123.5 364.0 -283.0 390.0 -442.5 408.5 -602.0 388.5 -600.5 369.5 -599.5 350.0 -598.5 332.0 -597.0 L332.0 -657.5 Q387.0 -661.0 442.0 -663.5 496.5 -666.0 552.0 -667.5 M243.5 -837.5 L371.5 -769.0 Q352.5 -729.0 332.5 -690.0 312.5 -650.5 292.0 -611.5 L292.0 95.0 143.5 95.0 143.5 -370.5 31.5 -441.5 Q154.5 -647.0 243.5 -837.5" fill-rule="evenodd" stroke="none"/>
    </g>
    <g id="font_DFPOP3_Std_W12__17">
      <path d="M911.5 -197.5 Q925.0 -150.0 944.0 -97.0 962.5 -43.5 987.0 15.5 L848.0 87.0 Q825.5 34.0 805.5 -21.5 785.5 -77.5 768.0 -137.0 L911.5 -197.5 M607.0 -205.0 Q625.5 -205.0 643.5 -199.0 661.0 -193.0 678.0 -181.0 692.5 -166.5 700.0 -147.5 707.5 -128.5 707.5 -105.5 707.5 -83.0 698.5 -64.5 689.5 -46.0 673.0 -30.5 656.5 -17.5 640.5 -11.5 624.0 -5.0 607.0 -5.0 585.5 -5.0 567.0 -13.5 548.0 -22.5 532.5 -40.0 520.0 -55.5 514.0 -71.5 508.0 -88.0 508.0 -105.5 508.0 -125.5 513.5 -142.5 519.0 -160.0 530.5 -175.0 546.0 -189.5 565.0 -197.0 584.0 -205.0 607.0 -205.0 M87.0 -156.5 L231.5 -141.5 Q222.0 -75.5 210.0 -17.5 198.0 40.5 183.5 91.0 L43.0 66.5 Q57.0 19.0 67.5 -36.5 78.5 -92.0 87.0 -156.5 M271.5 -610.5 Q331.5 -613.5 392.0 -615.5 452.5 -617.5 513.0 -617.5 563.5 -617.5 614.5 -616.0 665.0 -614.5 716.0 -612.5 714.5 -641.5 710.0 -660.5 706.0 -680.0 698.5 -689.0 690.0 -697.0 664.0 -701.0 638.0 -705.5 595.0 -705.5 536.5 -705.5 456.5 -694.5 376.5 -683.0 274.5 -661.5 273.0 -647.5 272.0 -635.0 271.5 -622.5 271.5 -610.5 M267.5 -453.5 Q328.5 -457.0 390.0 -459.0 451.5 -460.5 513.0 -461.0 562.0 -461.0 612.0 -459.5 661.5 -458.0 711.5 -455.5 712.5 -480.5 713.0 -504.5 714.0 -529.0 715.0 -552.0 664.0 -554.5 614.0 -555.5 563.5 -557.0 513.0 -557.0 451.5 -557.0 390.5 -555.0 329.0 -552.5 268.5 -549.0 267.5 -530.5 267.5 -512.5 267.0 -494.0 267.5 -477.0 L267.5 -453.5 M273.5 -297.0 Q342.0 -301.0 410.0 -303.0 478.0 -305.0 546.0 -305.0 622.5 -305.0 699.5 -302.0 701.5 -326.5 704.0 -350.0 706.0 -373.5 707.5 -396.5 658.5 -398.5 610.0 -400.0 561.5 -401.5 513.0 -401.5 451.5 -401.5 390.5 -399.0 329.0 -397.0 268.5 -393.0 269.0 -368.5 270.5 -344.5 272.0 -320.0 273.5 -297.0 M343.0 -865.5 L504.0 -849.0 Q496.0 -822.0 487.5 -798.0 479.0 -774.0 469.0 -752.5 561.0 -765.0 619.5 -765.0 L654.5 -765.0 Q735.5 -765.0 784.5 -755.0 833.0 -745.0 849.0 -725.0 866.0 -712.0 875.0 -679.0 883.5 -645.5 883.5 -592.0 883.5 -527.5 879.0 -453.0 875.0 -378.5 866.5 -294.0 871.5 -294.0 877.0 -293.5 882.5 -293.0 888.0 -293.0 L888.0 -233.5 Q802.0 -239.0 716.5 -242.0 631.0 -244.5 546.0 -244.5 479.0 -244.5 412.0 -242.5 345.5 -240.5 278.5 -237.5 279.5 -227.0 280.5 -216.5 282.0 -206.0 283.5 -196.5 L283.5 -197.5 443.5 -197.5 Q431.0 -128.5 425.5 -85.5 420.0 -42.5 420.0 -25.5 420.0 4.5 432.5 19.5 445.0 35.0 471.0 35.0 531.0 35.0 608.5 25.0 685.5 15.0 779.5 -5.0 L779.5 55.5 Q673.0 75.5 585.0 85.0 497.0 95.0 427.0 95.0 383.5 95.0 351.5 87.5 320.0 80.0 300.0 65.5 281.0 51.5 270.5 32.0 260.5 12.0 259.0 -13.5 259.0 -32.5 264.5 -77.5 270.5 -123.0 282.5 -193.5 L124.0 -193.5 Q115.5 -264.0 111.5 -335.0 107.5 -406.0 107.5 -477.0 107.5 -548.0 111.5 -619.0 115.5 -690.0 124.0 -761.0 L283.5 -761.0 Q282.0 -751.0 281.0 -741.0 280.5 -731.0 279.5 -722.0 285.5 -722.5 291.0 -723.5 296.5 -724.5 302.0 -726.0 314.5 -755.5 324.5 -790.5 334.5 -825.5 343.0 -865.5" fill-rule="evenodd" stroke="none"/>
    </g>
    <g id="font_DFPOP3_Std_W12__18">
      <path d="M673.0 -657.5 Q675.0 -595.0 689.5 -533.5 704.5 -472.0 731.0 -410.5 732.5 -406.0 735.0 -401.5 737.0 -397.0 739.5 -393.0 742.5 -400.0 745.0 -407.0 747.5 -413.5 750.5 -420.0 776.5 -481.0 793.0 -541.5 809.5 -601.5 817.0 -660.5 807.0 -660.5 798.0 -661.0 788.5 -661.5 779.5 -661.5 752.5 -661.5 725.5 -660.0 699.0 -659.0 673.0 -657.5 M204.0 -825.5 L347.0 -825.5 347.0 -711.5 Q384.0 -710.0 421.5 -707.5 458.5 -704.5 495.5 -701.5 L495.5 -641.0 Q391.0 -652.0 290.0 -653.5 286.0 -624.0 282.0 -595.0 278.5 -566.0 274.5 -537.5 282.0 -538.5 289.5 -539.0 297.0 -540.0 303.0 -540.5 L312.5 -540.5 Q338.5 -540.5 358.0 -539.0 377.0 -537.5 390.0 -534.5 406.5 -528.5 418.5 -517.0 430.5 -505.5 438.5 -488.5 440.0 -486.0 441.5 -482.0 443.0 -478.0 444.5 -472.0 483.0 -561.0 512.5 -651.5 542.0 -742.0 563.0 -833.5 L699.5 -817.0 Q693.0 -792.0 686.5 -767.0 679.5 -742.5 671.5 -718.0 725.5 -721.0 779.5 -721.0 828.5 -721.0 877.5 -718.0 926.5 -715.0 976.0 -709.5 L976.0 -649.0 Q969.0 -650.0 962.0 -651.0 955.5 -651.5 949.0 -652.5 942.5 -584.5 926.0 -517.0 910.0 -449.5 883.5 -382.0 870.0 -347.5 853.0 -311.5 836.5 -275.0 818.0 -237.5 853.5 -176.0 896.5 -112.5 940.0 -48.5 991.0 18.5 L863.0 95.0 Q828.0 44.5 797.0 -2.0 766.5 -49.0 740.5 -93.0 714.0 -48.0 685.0 -1.0 656.0 46.0 623.5 95.0 L495.5 22.5 Q544.0 -45.0 585.5 -110.0 627.0 -175.0 661.5 -236.5 641.5 -275.5 625.5 -312.5 609.5 -349.5 598.0 -384.0 591.0 -402.5 585.5 -420.0 580.0 -438.0 575.5 -454.5 567.5 -436.5 559.5 -419.0 551.5 -402.0 543.5 -385.0 L451.5 -408.5 Q453.0 -381.5 454.0 -347.5 455.0 -313.0 455.5 -271.5 455.5 -203.5 453.5 -141.0 451.5 -78.5 448.5 -21.5 447.0 11.0 440.5 32.0 434.0 53.0 422.0 62.5 394.0 87.0 336.0 87.0 303.5 87.0 272.5 84.0 241.0 81.0 212.0 75.0 L212.0 15.5 Q232.5 21.0 248.5 23.5 264.5 26.5 275.5 26.5 289.5 26.5 300.0 17.5 304.5 13.5 307.0 6.5 309.5 -0.5 310.5 -11.5 312.0 -72.5 313.0 -137.5 314.5 -202.5 315.5 -271.5 314.0 -314.5 313.0 -350.5 312.0 -387.0 311.5 -418.0 310.5 -438.0 306.0 -450.0 301.5 -462.0 294.0 -466.0 289.0 -468.0 281.5 -470.0 274.0 -471.5 264.0 -473.0 243.5 -334.0 217.5 -194.0 191.0 -54.0 159.5 87.0 L23.5 51.0 Q102.0 -296.0 143.5 -649.0 119.5 -647.5 96.5 -645.5 73.5 -643.5 51.0 -641.0 L51.0 -701.5 Q89.5 -705.0 127.5 -707.5 165.5 -710.0 204.0 -711.5 L204.0 -825.5" fill-rule="evenodd" stroke="none"/>
    </g>
    <g id="font_DFPOP3_Std_W12__19">
      <path d="M915.5 -577.5 L955.5 -473.0 Q812.5 -418.0 599.0 -368.5 L571.5 -485.5 Q755.5 -519.0 915.5 -577.5 M892.0 -712.5 L932.0 -613.5 Q866.0 -588.0 783.5 -564.0 701.5 -540.0 603.0 -517.0 L579.5 -628.5 Q663.5 -645.0 741.5 -665.5 819.5 -686.5 892.0 -712.5 M867.5 -840.5 L907.5 -741.5 Q842.5 -720.0 761.5 -700.0 680.5 -680.0 583.5 -661.5 L559.0 -773.0 Q642.0 -785.5 719.0 -802.5 796.0 -819.0 867.5 -840.5 M615.5 -205.0 L755.5 -205.0 Q731.0 -165.5 711.5 -130.0 692.0 -94.5 678.0 -62.5 666.5 -36.5 661.0 -19.5 655.5 -3.0 655.5 3.0 655.5 7.0 656.5 9.0 657.0 11.0 659.5 11.5 678.0 11.0 701.5 8.5 725.0 5.5 753.5 0.0 729.0 -43.0 707.5 -89.0 L819.0 -137.0 Q840.0 -97.0 868.0 -52.0 896.5 -7.0 932.0 43.0 L815.0 102.5 Q806.5 90.0 799.0 77.0 791.0 64.5 783.5 51.0 736.5 60.5 696.5 65.5 656.5 70.5 623.5 70.5 L607.0 70.5 Q583.5 70.5 565.0 64.5 546.5 58.5 533.5 47.0 524.5 38.5 519.5 24.5 515.0 10.5 515.0 -9.0 515.0 -18.5 522.0 -37.0 529.0 -56.0 542.5 -85.0 556.0 -113.5 574.0 -143.5 592.5 -173.5 615.5 -205.0 M808.0 -377.0 Q818.0 -377.0 828.0 -372.0 838.0 -367.5 849.0 -358.5 861.0 -344.5 897.0 -298.0 933.0 -251.5 991.0 -173.0 L867.5 -97.5 Q832.0 -158.5 803.5 -205.0 774.5 -251.5 751.5 -283.5 746.0 -290.0 741.0 -293.5 736.0 -297.0 731.0 -297.0 725.0 -297.0 702.5 -288.0 680.0 -279.0 640.0 -261.0 L640.0 -313.5 Q707.0 -345.0 747.0 -361.0 786.5 -377.0 799.5 -377.0 L808.0 -377.0 M218.0 -137.0 L248.0 -171.0 248.0 -240.5 Q242.5 -240.5 238.0 -240.0 233.0 -239.5 229.5 -239.5 226.5 -212.0 223.5 -186.0 221.0 -160.5 218.0 -137.0 M248.0 -301.0 L248.0 -361.5 380.0 -361.5 380.0 -297.0 Q403.0 -295.5 425.5 -293.0 448.0 -291.0 471.0 -289.0 L471.0 -258.0 Q480.5 -279.5 488.5 -301.5 497.0 -323.5 504.0 -345.0 L632.0 -328.5 Q614.0 -274.0 589.0 -218.0 563.5 -162.5 531.5 -105.5 L407.5 -137.0 Q421.5 -160.5 434.0 -184.0 447.0 -207.5 457.5 -230.5 437.5 -232.0 418.0 -234.0 398.5 -236.0 380.0 -237.5 L380.0 -137.0 Q407.5 -123.5 437.5 -109.0 467.5 -95.0 499.5 -81.0 L415.5 18.5 Q406.5 14.0 397.5 10.0 388.5 6.0 380.0 2.0 L380.0 95.0 248.0 95.0 248.0 -65.5 Q238.5 -71.0 229.5 -76.5 220.5 -81.5 212.0 -87.0 206.0 -39.5 199.5 0.0 193.5 39.0 187.5 70.5 L55.5 58.5 Q69.0 -1.0 81.0 -73.5 92.5 -146.5 103.5 -233.5 94.0 -232.0 85.0 -231.0 76.0 -230.0 67.5 -229.5 L67.5 -289.0 Q113.0 -294.0 158.0 -297.0 203.0 -300.5 248.0 -301.0 M361.5 -447.5 Q355.5 -456.5 349.5 -466.0 343.5 -475.0 338.0 -484.5 324.0 -484.5 310.5 -485.0 296.5 -485.5 283.5 -485.5 265.0 -485.5 247.5 -485.0 230.0 -484.5 213.0 -484.5 206.0 -470.5 203.0 -462.0 199.5 -453.5 199.5 -449.5 199.5 -441.0 203.5 -437.0 207.5 -433.0 215.0 -433.0 246.0 -433.0 282.5 -436.5 319.0 -440.0 361.5 -447.5 M340.0 -833.5 Q385.5 -833.5 431.0 -830.5 477.0 -827.5 523.5 -821.0 L523.5 -761.0 Q477.0 -767.0 431.0 -770.0 385.5 -773.0 340.0 -773.0 313.0 -773.0 287.0 -772.0 261.0 -770.5 235.5 -769.0 L235.5 -729.0 Q259.5 -730.5 283.5 -732.0 307.0 -733.0 332.0 -733.0 375.5 -733.0 419.5 -730.0 463.5 -727.0 508.0 -721.0 L508.0 -661.5 Q463.5 -667.0 419.5 -670.0 375.5 -672.5 332.0 -673.0 307.0 -673.0 283.0 -672.0 258.5 -671.0 235.5 -669.5 L235.5 -633.0 Q259.5 -634.5 283.5 -635.5 307.0 -637.0 332.0 -637.0 375.5 -637.0 419.5 -634.0 463.5 -631.0 508.0 -624.5 L508.0 -565.0 Q463.5 -571.5 419.5 -574.5 375.5 -577.5 332.0 -577.5 307.0 -577.5 283.0 -576.5 258.5 -575.0 235.5 -573.5 L235.5 -543.5 Q247.5 -544.0 259.5 -544.5 271.5 -544.5 283.5 -545.0 346.5 -544.5 409.5 -542.0 472.5 -539.0 535.5 -533.5 L535.5 -473.0 Q520.0 -474.5 505.0 -475.5 490.0 -476.5 476.0 -477.0 487.0 -463.5 499.0 -450.5 511.0 -437.0 523.5 -425.0 L431.0 -349.0 Q422.0 -360.5 413.0 -372.5 404.0 -384.0 396.5 -396.5 332.0 -384.0 276.5 -378.5 221.0 -372.5 175.0 -372.5 144.5 -372.5 122.5 -377.0 101.0 -381.0 87.0 -390.0 74.0 -398.5 67.0 -410.0 60.0 -422.0 59.5 -437.0 59.5 -442.0 62.5 -451.5 65.5 -461.5 71.5 -476.0 50.0 -474.5 31.5 -473.0 L31.5 -533.5 Q48.0 -535.0 64.0 -536.0 80.0 -537.0 95.0 -538.5 L95.0 -829.5 235.5 -829.5 Q261.5 -831.0 287.5 -832.5 314.0 -833.5 340.0 -833.5" fill-rule="evenodd" stroke="none"/>
    </g>
    <g id="font_DFPOP3_Std_W12__20">
      <path d="M584.5 -368.5 Q584.5 -382.5 579.5 -395.5 574.0 -408.5 563.0 -420.0 551.5 -430.5 539.0 -436.0 526.0 -441.5 512.0 -441.5 496.0 -441.5 483.0 -436.0 470.0 -431.0 460.0 -421.0 449.0 -410.0 444.0 -397.0 439.0 -384.0 439.5 -368.5 439.5 -353.5 444.5 -340.5 450.0 -328.0 461.0 -317.5 471.5 -306.0 484.0 -300.5 496.5 -295.0 512.0 -295.0 526.0 -295.0 539.0 -300.5 551.5 -306.0 563.0 -317.5 574.0 -328.0 579.5 -341.0 584.5 -354.0 584.5 -368.5 M665.5 -368.5 Q665.5 -338.0 654.0 -310.5 642.5 -283.0 619.5 -260.0 573.5 -214.0 512.0 -214.0 480.0 -214.0 452.5 -225.5 425.5 -237.0 403.5 -260.0 380.5 -282.5 369.5 -309.5 358.5 -336.5 358.5 -368.5 358.5 -434.5 401.5 -479.0 444.5 -522.0 512.0 -522.0 543.5 -522.0 570.5 -511.0 597.5 -499.5 620.5 -477.0 643.0 -454.0 654.0 -427.0 665.5 -400.0 665.5 -368.5" fill-rule="evenodd" stroke="none"/>
    </g>
  </defs>
</svg>
