<?xml version="1.0" encoding="UTF-8" standalone="no"?>
<svg xmlns:xlink="http://www.w3.org/1999/xlink" height="17.0px" width="129.95px" xmlns="http://www.w3.org/2000/svg">
  <g transform="matrix(1.0, 0.0, 0.0, 1.0, -5.3, 1.55)">
    <g transform="matrix(1.0, 0.0, 0.0, 1.0, 4.4, 0.0)">
      <use fill="#000000" height="17.0" transform="matrix(0.0146, 0.0, 0.0, 0.0146, 0.0, 13.0)" width="129.95" xlink:href="#font_DFPOP3_Std_W12__0"/>
      <use fill="#000000" height="17.0" transform="matrix(0.0146, 0.0, 0.0, 0.0146, 15.0, 13.0)" width="129.95" xlink:href="#font_DFPOP3_Std_W12__1"/>
      <use fill="#000000" height="17.0" transform="matrix(0.0146, 0.0, 0.0, 0.0146, 30.0, 13.0)" width="129.95" xlink:href="#font_DFPOP3_Std_W12__2"/>
      <use fill="#000000" height="17.0" transform="matrix(0.0146, 0.0, 0.0, 0.0146, 45.0, 13.0)" width="129.95" xlink:href="#font_DFPOP3_Std_W12__3"/>
      <use fill="#000000" height="17.0" transform="matrix(0.0146, 0.0, 0.0, 0.0146, 60.0, 13.0)" width="129.95" xlink:href="#font_DFPOP3_Std_W12__4"/>
      <use fill="#000000" height="17.0" transform="matrix(0.0146, 0.0, 0.0, 0.0146, 75.0, 13.0)" width="129.95" xlink:href="#font_DFPOP3_Std_W12__5"/>
      <use fill="#000000" height="17.0" transform="matrix(0.0146, 0.0, 0.0, 0.0146, 90.0, 13.0)" width="129.95" xlink:href="#font_DFPOP3_Std_W12__6"/>
      <use fill="#000000" height="17.0" transform="matrix(0.0146, 0.0, 0.0, 0.0146, 105.0, 13.0)" width="129.95" xlink:href="#font_DFPOP3_Std_W12__7"/>
      <use fill="#000000" height="17.0" transform="matrix(0.0146, 0.0, 0.0, 0.0146, 120.0, 13.0)" width="129.95" xlink:href="#font_DFPOP3_Std_W12__8"/>
    </g>
  </g>
  <defs>
    <g id="font_DFPOP3_Std_W12__0">
      <path d="M867.5 -789.5 Q887.0 -789.5 905.0 -783.0 923.0 -776.5 940.0 -764.0 955.5 -748.5 963.5 -729.0 971.5 -709.5 972.0 -685.0 971.5 -662.0 962.5 -643.0 953.5 -623.5 936.0 -608.5 919.0 -594.5 901.5 -588.0 884.5 -581.5 867.5 -581.5 844.5 -581.5 825.0 -590.5 805.5 -599.0 789.5 -617.5 776.5 -633.0 770.0 -649.5 764.0 -666.5 764.0 -685.0 764.0 -706.0 769.5 -723.5 775.0 -741.5 787.5 -756.5 803.0 -773.0 823.0 -781.0 843.0 -789.5 867.5 -789.5 M515.0 -817.0 L531.5 -752.5 Q490.0 -740.5 452.0 -731.0 414.5 -722.0 380.0 -716.0 L380.0 -536.5 Q413.0 -536.5 446.0 -537.0 479.5 -537.5 513.0 -537.5 536.0 -537.5 559.5 -537.0 583.5 -536.5 607.0 -536.5 592.0 -596.5 578.0 -658.0 564.0 -719.0 552.0 -781.5 L699.5 -829.5 Q716.5 -750.5 734.5 -676.5 753.0 -602.5 773.0 -533.5 821.5 -532.0 870.0 -530.0 918.5 -527.5 967.5 -525.5 L967.5 -465.0 Q923.0 -467.0 878.5 -469.0 834.5 -470.5 790.5 -472.0 796.5 -448.0 803.5 -425.5 810.5 -402.5 818.0 -381.0 819.0 -377.0 820.0 -374.0 821.0 -370.5 822.5 -367.5 833.0 -380.5 843.0 -394.0 853.5 -407.0 863.0 -421.0 L991.0 -328.5 Q966.0 -295.0 939.0 -261.0 912.5 -227.0 884.5 -191.5 906.0 -134.5 929.0 -80.0 951.5 -25.5 976.0 26.5 L823.5 102.5 Q807.0 65.5 792.5 29.5 777.5 -7.0 764.0 -43.0 736.5 -10.5 708.5 23.0 680.5 56.5 651.5 91.0 L523.5 -9.0 Q569.5 -60.0 614.0 -111.0 658.5 -162.0 701.5 -213.0 690.0 -245.5 679.5 -278.0 668.5 -310.5 659.5 -343.0 649.5 -376.0 640.5 -409.0 631.0 -442.5 622.5 -476.0 595.0 -476.0 567.5 -476.5 540.0 -477.0 513.0 -477.0 479.5 -477.0 446.0 -476.5 413.0 -476.0 380.0 -476.0 L380.0 -249.0 Q412.0 -268.0 448.0 -291.0 484.0 -314.0 523.5 -341.0 L555.0 -284.5 Q506.0 -251.0 462.0 -222.5 418.5 -194.5 380.0 -173.0 L380.0 99.5 219.0 99.5 219.0 -95.0 Q185.5 -81.5 150.0 -69.0 114.0 -56.5 76.0 -45.0 L55.5 -105.5 Q102.0 -120.0 143.0 -135.0 184.0 -149.5 219.0 -165.0 L219.0 -472.0 Q178.5 -470.5 138.5 -468.5 98.5 -466.5 59.5 -465.0 L59.5 -525.5 Q99.5 -527.0 139.5 -529.0 179.0 -531.0 219.0 -532.5 L219.0 -695.5 Q185.5 -692.0 150.0 -690.5 114.0 -689.0 76.0 -689.0 L76.0 -741.5 Q147.0 -743.0 204.0 -747.5 261.0 -752.5 304.0 -761.0 351.0 -767.5 404.0 -781.5 456.5 -795.5 515.0 -817.0" fill-rule="evenodd" stroke="none"/>
    </g>
    <g id="font_DFPOP3_Std_W12__1">
      <path d="M331.0 -249.0 Q389.0 -252.5 447.0 -255.0 505.0 -257.0 563.0 -257.0 613.0 -257.0 663.0 -255.5 713.0 -254.0 764.0 -251.0 L764.0 -253.0 Q764.0 -290.5 743.5 -309.5 723.0 -328.5 683.0 -328.5 609.5 -326.5 521.5 -318.0 434.0 -309.0 333.0 -294.0 332.0 -281.5 331.5 -270.5 331.0 -259.5 331.0 -249.0 M327.5 -121.0 Q387.0 -124.5 446.0 -127.0 505.0 -129.0 563.0 -129.0 663.0 -129.0 763.0 -123.0 763.0 -141.5 763.0 -158.5 763.0 -175.5 764.0 -191.5 713.0 -194.5 663.0 -196.0 612.5 -197.5 563.0 -197.5 504.0 -197.5 445.5 -195.5 387.0 -193.5 328.5 -189.5 328.0 -175.5 328.0 -162.5 327.5 -149.5 327.5 -137.0 L327.5 -121.0 M333.0 11.5 Q399.5 6.5 466.5 5.0 533.5 3.0 601.0 3.0 681.0 3.0 761.0 6.0 761.0 -12.0 761.0 -29.5 761.0 -46.5 762.0 -63.5 712.0 -66.5 662.0 -68.0 612.5 -69.5 563.0 -69.5 505.0 -69.5 446.0 -67.5 387.0 -65.5 328.5 -61.5 329.0 -43.0 330.0 -24.5 331.0 -6.5 333.0 11.5 M936.0 -821.0 L947.0 -769.0 Q709.0 -737.0 529.5 -726.0 518.0 -725.0 506.5 -724.5 495.0 -724.0 484.5 -724.0 476.0 -705.5 468.0 -688.0 460.5 -670.0 452.5 -653.5 L512.0 -653.5 Q619.5 -653.5 727.0 -650.0 835.0 -647.0 943.0 -641.0 L943.0 -581.5 Q835.0 -587.0 727.0 -590.0 619.5 -593.0 512.0 -593.0 490.0 -593.0 468.0 -592.5 446.5 -592.0 425.0 -592.0 416.0 -572.5 408.0 -555.0 400.0 -537.0 392.0 -520.0 421.5 -520.5 451.5 -520.5 481.5 -521.0 512.0 -521.0 625.5 -521.0 739.5 -518.0 853.5 -515.0 967.5 -509.0 L967.5 -449.5 Q853.5 -455.0 739.5 -458.0 625.5 -461.0 512.0 -461.0 474.5 -460.5 437.5 -460.5 400.5 -460.0 363.5 -460.0 354.5 -440.5 346.5 -423.0 338.5 -405.5 331.0 -390.0 329.0 -386.5 327.0 -383.0 325.0 -380.0 323.5 -377.0 L340.0 -377.0 Q339.0 -370.5 338.5 -365.0 338.0 -359.5 338.0 -354.5 461.5 -371.5 553.0 -380.0 644.5 -389.0 703.5 -389.0 L727.0 -389.0 Q777.5 -389.0 813.5 -380.0 849.0 -371.0 870.5 -353.5 890.5 -335.5 901.0 -311.5 911.5 -287.5 911.5 -257.0 911.5 -197.0 910.5 -129.5 910.0 -61.5 908.5 14.5 913.5 14.5 919.5 14.5 925.5 14.5 932.0 15.5 L932.0 75.0 Q849.0 68.5 766.5 65.5 684.0 62.5 601.0 62.5 534.0 62.5 468.5 64.5 402.5 66.0 338.0 70.5 338.0 78.5 338.5 86.5 339.0 94.5 340.0 102.5 L208.0 102.5 Q201.5 42.5 198.5 -16.5 195.5 -75.5 195.5 -135.0 188.0 -120.0 179.5 -105.0 171.5 -90.5 164.0 -77.0 L43.0 -161.0 Q126.0 -294.5 196.5 -437.0 201.0 -446.5 206.0 -455.5 129.0 -452.5 55.5 -449.5 L55.5 -509.0 Q100.5 -511.0 146.0 -513.0 191.5 -514.5 237.5 -516.0 246.0 -534.5 254.5 -552.5 263.0 -570.5 271.5 -589.0 223.0 -587.5 175.0 -585.5 127.5 -584.0 80.0 -581.5 L80.0 -641.0 Q135.0 -644.0 190.0 -646.5 245.0 -648.5 300.0 -650.0 307.5 -667.0 315.0 -684.0 322.0 -701.0 329.5 -718.0 273.5 -715.5 214.0 -714.0 154.0 -712.5 91.0 -712.5 L91.0 -765.0 Q229.5 -766.5 338.5 -770.0 448.0 -773.0 529.5 -779.5 620.0 -784.5 721.5 -795.5 823.0 -806.0 936.0 -821.0" fill-rule="evenodd" stroke="none"/>
    </g>
    <g id="font_DFPOP3_Std_W12__2">
      <path d="M244.5 -109.5 Q314.5 -112.5 384.5 -114.5 454.5 -116.5 525.5 -116.5 586.0 -116.5 646.5 -115.5 707.0 -114.0 767.0 -111.5 762.5 -173.0 699.5 -173.0 509.0 -170.0 248.0 -151.5 246.5 -140.0 245.5 -129.5 244.5 -119.0 244.5 -109.5 M248.0 11.5 Q326.0 6.5 404.0 5.0 481.5 3.0 559.0 3.0 610.5 3.0 661.5 4.0 712.0 4.5 763.0 6.0 764.5 -9.0 765.5 -23.5 766.0 -38.0 767.0 -51.0 706.5 -54.5 646.0 -56.0 585.0 -57.5 525.5 -57.5 454.5 -57.5 384.0 -55.0 313.5 -53.0 243.5 -49.0 244.0 -34.0 245.0 -18.5 246.0 -3.5 248.0 11.5 M99.5 -229.5 L259.0 -229.5 Q256.0 -218.5 256.0 -211.0 413.5 -222.0 530.0 -227.5 646.5 -233.5 722.0 -233.5 L751.5 -233.5 Q799.5 -233.5 833.5 -224.5 868.0 -215.5 888.0 -198.5 908.0 -181.5 918.0 -158.0 927.5 -134.5 927.5 -105.5 927.5 -51.5 921.5 14.5 928.5 14.5 935.0 14.5 941.0 14.5 947.0 15.5 L947.0 75.0 Q850.5 68.5 753.0 65.5 656.0 62.5 559.0 62.5 482.5 62.5 406.5 64.0 330.0 66.0 255.0 69.5 255.5 77.5 256.5 85.0 257.5 92.5 259.0 99.5 L99.5 99.5 Q91.5 58.0 88.0 17.0 84.0 -24.0 84.0 -65.5 84.0 -106.0 88.0 -147.0 91.5 -188.0 99.5 -229.5 M583.5 -620.5 L583.5 -560.0 Q673.0 -560.0 762.0 -557.0 762.5 -574.0 763.5 -589.0 764.0 -604.5 765.0 -617.5 673.0 -620.5 583.5 -620.5 M583.5 -745.5 L583.5 -680.0 Q676.0 -680.0 768.0 -677.0 L768.0 -697.5 Q768.0 -734.0 712.5 -740.5 696.5 -742.5 670.5 -744.0 644.5 -745.5 608.5 -745.5 L583.5 -745.5 M624.5 -805.0 L647.0 -805.0 Q738.5 -805.0 796.0 -797.5 854.0 -790.0 877.5 -776.0 898.5 -764.5 909.0 -748.0 919.5 -731.0 919.5 -709.5 L919.5 -670.5 Q932.0 -670.0 945.0 -669.5 958.0 -668.5 972.0 -668.5 L972.0 -609.5 Q958.0 -609.5 944.5 -610.0 931.0 -610.5 918.5 -611.5 917.5 -596.0 917.0 -580.5 916.5 -565.0 916.5 -550.0 921.0 -550.0 926.0 -549.5 931.5 -549.0 936.0 -549.0 L936.0 -489.5 Q847.0 -494.0 759.0 -496.5 671.0 -499.5 583.5 -500.5 L583.5 -448.5 Q669.5 -447.5 755.5 -445.0 841.5 -442.0 927.5 -437.0 L927.5 -377.0 Q841.5 -381.5 755.5 -384.5 669.5 -387.5 583.5 -388.0 L583.5 -337.0 Q680.5 -335.5 777.5 -333.0 874.5 -330.0 972.0 -325.5 L972.0 -265.0 Q856.5 -271.5 741.5 -274.5 626.5 -277.5 512.0 -277.5 281.5 -277.5 51.0 -265.0 L51.0 -325.5 Q145.0 -330.0 238.0 -332.5 331.0 -335.0 424.0 -336.0 L424.0 -388.0 Q338.5 -387.5 253.5 -384.5 168.5 -381.5 84.0 -377.0 L84.0 -437.0 Q169.0 -442.0 254.5 -445.0 339.5 -447.5 424.0 -448.5 L424.0 -499.5 Q342.5 -499.0 261.0 -496.5 180.0 -494.0 99.5 -489.5 L99.5 -549.0 Q180.5 -553.5 261.5 -556.0 342.5 -558.5 424.0 -560.0 L424.0 -620.5 Q330.5 -619.5 237.0 -617.0 144.0 -614.0 51.0 -609.5 L51.0 -668.5 Q145.0 -673.5 238.0 -676.0 331.0 -679.0 424.0 -680.0 L424.0 -740.5 Q345.5 -736.5 264.5 -729.5 183.5 -722.5 99.5 -712.5 L99.5 -773.0 Q179.0 -783.0 260.0 -790.0 341.0 -797.0 424.0 -801.0 L424.0 -849.0 583.5 -849.0 583.5 -805.0 624.5 -805.0" fill-rule="evenodd" stroke="none"/>
    </g>
    <g id="font_DFPOP3_Std_W12__3">
      <path d="M567.5 -229.5 Q587.5 -229.5 606.5 -222.5 625.5 -216.0 643.0 -204.0 659.0 -188.5 667.5 -169.0 676.0 -149.5 676.0 -125.0 676.0 -101.0 666.0 -81.0 656.5 -61.0 638.0 -45.0 604.0 -17.5 567.5 -17.5 544.5 -17.5 525.0 -26.5 505.5 -36.0 489.5 -54.5 476.5 -71.0 470.0 -89.0 464.0 -106.5 464.0 -125.0 464.0 -145.5 469.5 -164.0 475.0 -182.0 487.5 -197.5 503.0 -213.0 523.0 -221.0 542.5 -229.5 567.5 -229.5 M703.5 -325.5 Q719.0 -325.5 733.5 -325.0 748.5 -324.5 764.0 -324.5 L764.0 -433.0 923.5 -433.0 923.5 -317.5 Q939.0 -316.0 953.5 -315.0 968.5 -314.0 983.0 -313.5 L983.0 -253.0 Q967.5 -253.5 953.0 -254.5 938.0 -255.5 923.5 -257.0 L923.5 -57.5 Q923.5 -21.5 917.0 6.5 910.0 34.5 897.0 54.5 881.0 74.5 847.5 84.5 814.5 95.0 764.0 95.0 730.0 95.0 679.5 89.0 629.5 83.0 563.0 70.5 L563.0 11.5 Q604.5 23.0 637.5 29.0 670.5 35.0 695.5 35.0 729.0 35.0 746.5 16.5 764.0 -1.5 764.0 -37.0 L764.0 -264.0 Q748.5 -264.5 733.5 -264.5 718.0 -265.0 703.5 -265.0 562.0 -265.0 424.0 -253.0 L424.0 -313.5 Q562.0 -325.5 703.5 -325.5 M611.5 -527.5 L611.5 -700.5 Q563.0 -699.0 515.0 -696.0 467.5 -693.0 420.0 -689.0 L420.0 -749.5 Q467.5 -753.5 515.5 -756.0 563.5 -758.5 611.5 -760.0 L611.5 -833.5 771.0 -833.5 771.0 -760.0 Q822.0 -758.5 873.0 -756.0 924.5 -753.5 976.0 -749.5 L976.0 -689.0 Q923.5 -693.5 872.5 -696.5 821.5 -699.0 771.0 -700.5 L771.0 -528.5 Q818.5 -527.0 865.5 -524.5 912.5 -521.5 959.5 -517.0 L959.5 -456.5 Q833.5 -469.0 707.5 -469.0 581.5 -469.0 455.5 -456.5 L455.5 -517.0 Q495.0 -520.5 534.0 -523.0 573.0 -526.0 611.5 -527.5 M196.5 -435.0 Q207.5 -436.0 218.0 -436.5 229.0 -437.0 239.5 -437.0 L256.0 -437.0 256.0 -438.5 Q255.0 -536.5 251.5 -598.0 248.0 -659.0 241.5 -683.0 238.5 -697.5 230.0 -705.0 221.5 -712.5 208.0 -712.5 206.5 -712.5 205.0 -712.0 203.5 -711.5 201.5 -711.5 198.5 -642.0 197.5 -572.5 196.5 -503.5 196.5 -435.0 M201.5 -90.0 Q212.5 -91.0 223.5 -91.5 235.0 -92.0 246.0 -92.0 249.5 -172.0 252.0 -243.5 254.5 -314.5 256.0 -377.0 L239.5 -377.0 Q228.0 -377.0 217.0 -376.0 206.5 -375.5 195.5 -375.0 195.5 -302.5 197.0 -231.5 198.5 -160.5 201.5 -90.0 M59.5 -777.0 L204.0 -777.0 204.0 -766.0 Q215.5 -769.0 226.0 -770.5 237.0 -772.5 248.0 -773.0 L259.0 -773.0 Q312.0 -773.0 343.5 -755.0 375.5 -736.5 386.0 -700.5 394.5 -666.5 399.0 -601.0 403.5 -536.0 403.5 -438.5 403.5 -359.0 400.5 -270.5 398.0 -182.0 393.0 -84.0 398.5 -83.0 404.0 -82.5 409.5 -81.5 415.5 -81.0 L415.5 -21.5 Q379.0 -27.0 343.0 -30.0 306.5 -32.5 271.5 -33.0 254.5 -32.5 237.5 -32.0 221.0 -31.5 205.0 -30.5 205.5 -17.0 206.5 -3.5 207.0 9.5 208.0 22.5 L63.5 22.5 Q51.0 -177.0 51.0 -377.0 51.0 -476.5 53.0 -577.0 55.0 -677.5 59.5 -777.0" fill-rule="evenodd" stroke="none"/>
    </g>
    <g id="font_DFPOP3_Std_W12__4">
      <path d="M827.5 -781.5 L963.5 -709.5 Q923.5 -633.0 879.5 -558.0 836.0 -483.5 787.5 -409.5 L655.5 -489.5 Q755.0 -640.0 827.5 -781.5 M199.5 -781.5 Q246.0 -694.5 288.0 -622.5 330.0 -550.5 367.5 -493.5 L243.5 -409.5 Q207.0 -463.5 167.0 -534.5 127.0 -605.5 84.0 -693.0 L199.5 -781.5 M424.0 -833.5 L583.5 -833.5 583.5 -409.5 Q678.0 -408.0 773.0 -405.0 868.5 -402.0 963.5 -397.5 L963.5 -337.0 Q909.0 -340.0 855.0 -342.0 801.0 -343.5 747.5 -345.0 731.5 -220.5 723.5 -141.5 715.5 -62.5 716.0 -28.5 715.5 0.5 733.5 15.5 751.5 30.5 787.5 30.5 823.5 30.5 870.5 21.5 917.5 12.5 976.0 -5.0 L976.0 55.5 Q905.5 73.0 847.5 82.0 789.5 91.0 743.5 91.0 694.0 91.0 658.5 83.5 622.5 76.0 601.0 61.5 579.5 47.5 568.0 28.0 556.5 8.0 555.0 -17.5 555.0 -53.5 563.0 -136.5 571.0 -219.0 588.0 -348.0 568.0 -348.0 548.5 -348.5 529.0 -349.0 510.0 -349.0 L456.5 -349.0 Q332.5 -143.5 168.0 99.5 L40.0 -1.0 Q105.0 -87.0 165.0 -173.5 224.5 -260.0 278.5 -346.0 222.0 -344.5 166.0 -342.5 110.5 -340.0 55.5 -337.0 L55.5 -397.5 Q147.5 -402.0 239.5 -405.0 332.0 -408.0 424.0 -408.5 L424.0 -833.5" fill-rule="evenodd" stroke="none"/>
    </g>
    <g id="font_DFPOP3_Std_W12__5">
      <path d="M580.5 -599.0 Q648.0 -605.0 716.0 -605.0 742.0 -605.0 767.5 -604.5 793.0 -603.5 819.0 -602.0 L819.0 -637.0 Q819.0 -673.0 801.0 -691.5 783.0 -709.5 747.5 -709.5 712.5 -707.5 672.0 -701.0 631.5 -695.0 585.5 -684.0 583.5 -662.5 582.0 -641.0 580.5 -620.0 580.5 -599.0 M584.5 -435.0 Q626.0 -438.5 667.0 -440.0 708.0 -441.5 749.5 -441.5 765.5 -441.5 781.5 -441.0 797.5 -440.5 813.0 -440.5 814.5 -468.0 815.5 -493.5 816.5 -518.5 817.0 -541.5 765.0 -545.0 716.0 -545.0 681.0 -544.5 647.5 -543.5 613.5 -542.0 579.5 -539.5 579.5 -513.5 581.0 -487.5 582.5 -461.5 584.5 -435.0 M195.5 -840.5 L307.0 -761.0 Q245.5 -704.0 211.5 -669.0 177.0 -634.0 171.0 -621.5 171.0 -613.0 178.0 -609.0 185.0 -605.0 199.5 -605.0 201.5 -605.0 205.5 -605.5 210.0 -605.5 216.0 -606.0 257.5 -649.0 299.0 -689.0 L411.5 -605.0 Q308.0 -507.0 251.0 -447.0 194.0 -387.0 183.5 -365.5 183.5 -361.0 190.5 -359.0 197.5 -357.5 212.0 -357.5 221.0 -357.5 245.5 -363.0 270.0 -368.0 309.0 -379.0 301.5 -399.0 294.0 -419.5 286.5 -440.0 279.5 -461.0 L391.0 -509.0 Q402.5 -472.0 418.0 -432.0 433.5 -391.5 453.5 -347.0 446.0 -398.0 442.5 -449.0 439.0 -500.0 439.5 -551.0 439.5 -605.5 443.5 -660.0 447.5 -714.5 455.5 -769.0 L591.0 -769.0 Q600.0 -787.5 607.0 -805.0 614.0 -823.0 619.5 -840.5 L783.5 -821.0 Q775.5 -807.5 766.5 -794.0 757.0 -780.5 746.5 -768.0 754.0 -768.0 762.0 -768.5 769.5 -769.0 777.0 -769.0 L791.5 -769.0 Q839.0 -769.0 873.5 -760.0 907.5 -751.0 927.5 -734.0 947.5 -717.0 957.5 -694.0 967.5 -670.5 967.5 -641.0 967.5 -594.0 966.0 -542.0 964.5 -489.5 961.5 -431.0 967.0 -430.5 972.5 -429.5 977.5 -429.0 983.0 -429.0 L983.0 -368.5 Q934.5 -373.5 887.0 -376.0 839.0 -379.0 791.5 -380.0 L791.5 -265.0 Q792.5 -263.5 793.0 -262.5 794.0 -261.0 794.5 -260.0 818.5 -278.5 843.0 -300.0 867.5 -321.0 892.0 -345.0 L983.0 -249.0 Q923.0 -196.5 863.0 -156.5 893.0 -113.5 927.0 -69.0 961.0 -24.5 999.5 22.5 L875.5 87.0 Q853.5 56.5 832.5 25.0 811.5 -6.0 791.5 -37.0 791.5 -5.5 786.5 19.0 781.5 44.0 772.0 61.5 760.0 80.0 736.0 89.5 712.0 99.5 676.0 99.5 653.0 99.5 620.0 95.0 587.0 90.5 543.5 83.0 L543.5 22.5 Q568.5 30.5 588.5 34.5 608.5 39.0 623.5 39.0 651.5 39.0 651.5 -1.0 L651.5 -183.5 Q621.5 -111.0 576.0 -45.5 531.0 19.5 471.0 79.0 L355.5 -1.0 Q429.0 -65.5 472.0 -126.5 515.0 -187.0 527.5 -244.5 L512.0 -244.5 Q503.0 -244.5 472.0 -236.5 441.0 -228.5 387.0 -213.0 L387.0 -273.5 Q451.5 -289.0 494.5 -297.0 537.5 -305.0 559.0 -305.0 L575.5 -304.0 Q602.5 -304.0 621.5 -299.0 640.5 -294.0 651.5 -284.5 L651.5 -378.0 Q636.0 -377.0 620.5 -376.5 605.5 -375.5 591.0 -375.0 591.5 -364.0 593.0 -353.5 594.5 -343.0 596.0 -333.0 L460.0 -333.0 351.0 -277.5 Q345.0 -289.5 339.5 -301.5 334.5 -313.5 329.5 -325.5 319.0 -322.5 311.5 -322.5 L311.5 -180.0 Q322.0 -188.5 335.0 -193.0 348.0 -197.5 363.5 -197.5 379.0 -197.5 393.0 -193.0 407.0 -188.5 420.0 -179.0 431.5 -167.5 437.5 -153.0 443.5 -138.5 443.5 -121.0 443.5 -85.5 415.5 -62.5 389.5 -41.0 363.5 -41.0 348.0 -41.0 335.0 -46.5 322.0 -52.0 311.5 -63.5 L311.5 95.0 183.5 95.0 183.5 -201.5 Q175.5 -122.5 167.0 -52.5 158.0 17.5 147.5 79.0 L31.5 58.5 Q56.5 -73.5 71.5 -261.0 L183.5 -249.0 183.5 -301.0 Q168.0 -299.0 157.0 -298.0 146.0 -297.0 139.5 -297.0 89.5 -297.0 64.5 -320.0 40.0 -343.0 40.0 -389.0 40.0 -400.0 47.0 -414.5 54.0 -429.5 67.5 -448.5 90.5 -474.5 113.0 -498.5 135.5 -523.0 157.5 -546.0 144.0 -545.0 134.5 -545.0 125.0 -544.5 120.0 -545.0 75.5 -544.5 53.5 -568.5 31.5 -592.5 31.5 -641.0 31.5 -648.0 36.0 -658.0 40.0 -668.0 49.0 -681.0 87.5 -725.5 124.0 -765.5 160.5 -805.5 195.5 -840.5" fill-rule="evenodd" stroke="none"/>
    </g>
    <g id="font_DFPOP3_Std_W12__6">
      <path d="M451.5 -837.5 L619.5 -837.5 619.5 -744.5 Q705.5 -743.0 791.5 -740.5 877.5 -737.5 963.5 -733.0 L963.5 -673.0 Q756.0 -683.5 552.0 -685.0 489.0 -630.5 439.0 -583.5 389.0 -536.5 352.5 -496.5 324.0 -464.5 310.0 -446.5 296.0 -429.0 296.0 -425.0 296.0 -409.0 301.5 -401.0 307.5 -393.0 319.5 -393.0 365.5 -393.0 421.5 -396.0 477.5 -398.5 542.5 -404.5 595.0 -407.5 650.0 -413.0 705.0 -418.5 762.0 -426.0 748.0 -455.0 735.5 -485.0 723.0 -515.0 711.5 -545.0 L855.0 -605.0 Q878.0 -548.5 909.0 -484.0 940.0 -420.0 980.0 -349.0 L835.5 -273.5 Q809.5 -321.0 786.5 -371.5 768.0 -368.5 750.0 -367.0 731.5 -365.0 715.0 -363.5 702.5 -237.0 697.0 -157.0 691.0 -77.5 691.0 -45.0 691.0 -9.5 709.0 8.5 727.0 26.5 764.0 26.5 803.0 26.5 854.0 18.5 904.5 10.5 967.5 -5.0 L967.5 55.5 Q894.0 70.5 833.0 79.0 771.5 87.0 724.0 87.0 676.5 87.0 642.5 79.0 608.0 70.5 587.0 55.5 567.0 39.0 556.0 17.0 545.5 -5.0 543.5 -33.0 543.5 -67.5 549.0 -146.5 554.5 -225.0 565.0 -348.0 559.0 -347.5 553.0 -347.0 547.0 -346.0 541.5 -346.0 514.0 -343.0 487.5 -341.5 460.5 -339.5 435.0 -339.0 412.0 -285.0 391.0 -240.0 370.0 -194.5 350.0 -157.5 323.5 -104.0 286.5 -41.0 250.0 22.5 204.0 95.0 L63.5 18.5 Q99.0 -30.0 130.0 -77.5 161.0 -125.5 188.5 -173.0 208.5 -207.0 229.5 -247.0 251.0 -286.5 272.5 -333.0 L236.5 -333.0 Q172.0 -332.5 140.0 -357.5 107.5 -382.5 107.5 -433.0 107.5 -445.5 121.5 -467.0 135.5 -488.0 164.0 -518.0 202.0 -555.0 250.5 -596.5 299.0 -637.5 357.5 -683.0 282.0 -681.5 207.5 -679.0 133.0 -676.5 59.5 -673.0 L59.5 -733.0 Q157.5 -738.0 255.5 -741.0 353.5 -744.0 451.5 -745.5 L451.5 -837.5" fill-rule="evenodd" stroke="none"/>
    </g>
    <g id="font_DFPOP3_Std_W12__7">
      <path d="M252.0 -493.5 Q326.5 -496.5 400.5 -498.5 474.0 -500.5 548.0 -500.5 641.5 -500.5 735.0 -497.5 L735.0 -705.5 Q735.0 -761.0 655.5 -761.0 551.0 -759.0 450.5 -750.5 349.5 -741.5 253.0 -726.0 250.0 -695.5 249.0 -666.0 247.5 -636.5 248.0 -607.0 248.0 -578.0 248.5 -549.5 249.5 -521.0 252.0 -493.5 M99.5 -825.5 L263.0 -825.5 Q261.5 -815.5 260.0 -805.5 259.0 -795.5 258.0 -786.5 376.5 -803.5 491.5 -812.5 606.5 -821.0 718.0 -821.0 L747.5 -821.0 Q820.5 -819.5 857.5 -791.5 894.5 -763.5 896.0 -709.5 L896.0 -490.5 Q901.5 -490.0 906.0 -489.5 911.0 -489.5 915.5 -489.5 L915.5 -429.0 Q755.5 -438.5 599.0 -441.5 L599.0 -283.5 Q633.0 -286.0 667.0 -287.5 701.5 -288.5 735.0 -289.0 786.0 -288.5 837.0 -286.0 888.5 -283.0 939.0 -277.5 L939.0 -217.0 Q888.5 -223.0 837.0 -226.5 786.0 -229.5 735.0 -229.5 700.5 -229.5 667.0 -228.0 633.0 -226.5 599.0 -223.0 L599.0 -100.5 Q771.0 -54.5 980.0 -33.0 L955.5 106.5 Q848.0 98.0 741.0 78.5 634.0 59.5 527.5 28.5 459.5 9.0 389.0 -16.0 319.0 -41.0 246.0 -71.5 234.5 -29.5 222.0 12.0 209.5 54.0 195.5 95.0 L36.0 55.5 Q71.0 -43.5 98.0 -143.5 125.0 -243.5 143.5 -345.0 L303.0 -325.5 Q292.5 -264.0 278.5 -203.0 318.5 -187.5 359.0 -173.0 399.5 -159.0 439.5 -146.5 L439.5 -440.5 Q393.0 -439.0 348.0 -437.0 302.5 -435.5 258.0 -433.0 259.0 -422.5 260.0 -411.0 261.5 -400.0 263.0 -389.0 L99.5 -389.0 Q84.0 -496.5 84.0 -607.0 84.0 -715.0 99.5 -825.5" fill-rule="evenodd" stroke="none"/>
    </g>
    <g id="font_DFPOP3_Std_W12__8">
      <path d="M584.5 -368.5 Q584.5 -382.5 579.5 -395.5 574.0 -408.5 563.0 -420.0 551.5 -430.5 539.0 -436.0 526.0 -441.5 512.0 -441.5 496.0 -441.5 483.0 -436.0 470.0 -431.0 460.0 -421.0 449.0 -410.0 444.0 -397.0 439.0 -384.0 439.5 -368.5 439.5 -353.5 444.5 -340.5 450.0 -328.0 461.0 -317.5 471.5 -306.0 484.0 -300.5 496.5 -295.0 512.0 -295.0 526.0 -295.0 539.0 -300.5 551.5 -306.0 563.0 -317.5 574.0 -328.0 579.5 -341.0 584.5 -354.0 584.5 -368.5 M665.5 -368.5 Q665.5 -338.0 654.0 -310.5 642.5 -283.0 619.5 -260.0 573.5 -214.0 512.0 -214.0 480.0 -214.0 452.5 -225.5 425.5 -237.0 403.5 -260.0 380.5 -282.5 369.5 -309.5 358.5 -336.5 358.5 -368.5 358.5 -434.5 401.5 -479.0 444.5 -522.0 512.0 -522.0 543.5 -522.0 570.5 -511.0 597.5 -499.5 620.5 -477.0 643.0 -454.0 654.0 -427.0 665.5 -400.0 665.5 -368.5" fill-rule="evenodd" stroke="none"/>
    </g>
  </defs>
</svg>
