<?xml version="1.0" encoding="UTF-8" standalone="no"?>
<svg xmlns:xlink="http://www.w3.org/1999/xlink" height="17.2px" width="270.55px" xmlns="http://www.w3.org/2000/svg">
  <g transform="matrix(1.0, 0.0, 0.0, 1.0, 65.0, 1.55)">
    <g transform="matrix(1.0, 0.0, 0.0, 1.0, -65.9, 0.0)">
      <use fill="#000000" height="17.2" transform="matrix(0.0146, 0.0, 0.0, 0.0146, 0.0, 13.0)" width="270.55" xlink:href="#font_DFPOP3_Std_W12__0"/>
      <use fill="#000000" height="17.2" transform="matrix(0.0146, 0.0, 0.0, 0.0146, 15.0, 13.0)" width="270.55" xlink:href="#font_DFPOP3_Std_W12__1"/>
      <use fill="#000000" height="17.2" transform="matrix(0.0146, 0.0, 0.0, 0.0146, 30.0, 13.0)" width="270.55" xlink:href="#font_DFPOP3_Std_W12__2"/>
      <use fill="#000000" height="17.2" transform="matrix(0.0146, 0.0, 0.0, 0.0146, 45.0, 13.0)" width="270.55" xlink:href="#font_DFPOP3_Std_W12__3"/>
      <use fill="#000000" height="17.2" transform="matrix(0.0146, 0.0, 0.0, 0.0146, 60.0, 13.0)" width="270.55" xlink:href="#font_DFPOP3_Std_W12__4"/>
      <use fill="#000000" height="17.2" transform="matrix(0.0146, 0.0, 0.0, 0.0146, 75.0, 13.0)" width="270.55" xlink:href="#font_DFPOP3_Std_W12__5"/>
      <use fill="#000000" height="17.2" transform="matrix(0.0146, 0.0, 0.0, 0.0146, 90.0, 13.0)" width="270.55" xlink:href="#font_DFPOP3_Std_W12__6"/>
      <use fill="#000000" height="17.2" transform="matrix(0.0146, 0.0, 0.0, 0.0146, 105.0, 13.0)" width="270.55" xlink:href="#font_DFPOP3_Std_W12__7"/>
      <use fill="#000000" height="17.2" transform="matrix(0.0146, 0.0, 0.0, 0.0146, 120.0, 13.0)" width="270.55" xlink:href="#font_DFPOP3_Std_W12__8"/>
      <use fill="#000000" height="17.2" transform="matrix(0.0146, 0.0, 0.0, 0.0146, 135.0, 13.0)" width="270.55" xlink:href="#font_DFPOP3_Std_W12__9"/>
      <use fill="#000000" height="17.2" transform="matrix(0.0146, 0.0, 0.0, 0.0146, 150.0, 13.0)" width="270.55" xlink:href="#font_DFPOP3_Std_W12__10"/>
      <use fill="#000000" height="17.2" transform="matrix(0.0146, 0.0, 0.0, 0.0146, 165.0, 13.0)" width="270.55" xlink:href="#font_DFPOP3_Std_W12__11"/>
      <use fill="#000000" height="17.2" transform="matrix(0.0146, 0.0, 0.0, 0.0146, 180.0, 13.0)" width="270.55" xlink:href="#font_DFPOP3_Std_W12__12"/>
      <use fill="#000000" height="17.2" transform="matrix(0.0146, 0.0, 0.0, 0.0146, 195.0, 13.0)" width="270.55" xlink:href="#font_DFPOP3_Std_W12__13"/>
    </g>
    <g transform="matrix(1.0, 0.0, 0.0, 1.0, -65.9, 0.0)">
      <use fill="#000000" height="17.2" transform="matrix(0.0146, 0.0, 0.0, 0.0146, 210.0, 13.0)" width="270.55" xlink:href="#font_DFPOP3_Std_W12_30"/>
      <use fill="#000000" height="17.2" transform="matrix(0.0146, 0.0, 0.0, 0.0146, 220.3, 13.0)" width="270.55" xlink:href="#font_DFPOP3_Std_W12_50"/>
    </g>
    <g transform="matrix(1.0, 0.0, 0.0, 1.0, -65.9, 0.0)">
      <use fill="#000000" height="17.2" transform="matrix(0.0146, 0.0, 0.0, 0.0146, 230.6, 13.0)" width="270.55" xlink:href="#font_DFPOP3_Std_W12__14"/>
      <use fill="#000000" height="17.2" transform="matrix(0.0146, 0.0, 0.0, 0.0146, 245.6, 13.0)" width="270.55" xlink:href="#font_DFPOP3_Std_W12__15"/>
      <use fill="#000000" height="17.2" transform="matrix(0.0146, 0.0, 0.0, 0.0146, 260.6, 13.0)" width="270.55" xlink:href="#font_DFPOP3_Std_W12__16"/>
    </g>
  </g>
  <defs>
    <g id="font_DFPOP3_Std_W12__0">
      <path d="M867.5 -789.5 Q887.0 -789.5 905.0 -783.0 923.0 -776.5 940.0 -764.0 955.5 -748.5 963.5 -729.0 971.5 -709.5 972.0 -685.0 971.5 -662.0 962.5 -643.0 953.5 -623.5 936.0 -608.5 919.0 -594.5 901.5 -588.0 884.5 -581.5 867.5 -581.5 844.5 -581.5 825.0 -590.5 805.5 -599.0 789.5 -617.5 776.5 -633.0 770.0 -649.5 764.0 -666.5 764.0 -685.0 764.0 -706.0 769.5 -723.5 775.0 -741.5 787.5 -756.5 803.0 -773.0 823.0 -781.0 843.0 -789.5 867.5 -789.5 M515.0 -817.0 L531.5 -752.5 Q490.0 -740.5 452.0 -731.0 414.5 -722.0 380.0 -716.0 L380.0 -536.5 Q413.0 -536.5 446.0 -537.0 479.5 -537.5 513.0 -537.5 536.0 -537.5 559.5 -537.0 583.5 -536.5 607.0 -536.5 592.0 -596.5 578.0 -658.0 564.0 -719.0 552.0 -781.5 L699.5 -829.5 Q716.5 -750.5 734.5 -676.5 753.0 -602.5 773.0 -533.5 821.5 -532.0 870.0 -530.0 918.5 -527.5 967.5 -525.5 L967.5 -465.0 Q923.0 -467.0 878.5 -469.0 834.5 -470.5 790.5 -472.0 796.5 -448.0 803.5 -425.5 810.5 -402.5 818.0 -381.0 819.0 -377.0 820.0 -374.0 821.0 -370.5 822.5 -367.5 833.0 -380.5 843.0 -394.0 853.5 -407.0 863.0 -421.0 L991.0 -328.5 Q966.0 -295.0 939.0 -261.0 912.5 -227.0 884.5 -191.5 906.0 -134.5 929.0 -80.0 951.5 -25.5 976.0 26.5 L823.5 102.5 Q807.0 65.5 792.5 29.5 777.5 -7.0 764.0 -43.0 736.5 -10.5 708.5 23.0 680.5 56.5 651.5 91.0 L523.5 -9.0 Q569.5 -60.0 614.0 -111.0 658.5 -162.0 701.5 -213.0 690.0 -245.5 679.5 -278.0 668.5 -310.5 659.5 -343.0 649.5 -376.0 640.5 -409.0 631.0 -442.5 622.5 -476.0 595.0 -476.0 567.5 -476.5 540.0 -477.0 513.0 -477.0 479.5 -477.0 446.0 -476.5 413.0 -476.0 380.0 -476.0 L380.0 -249.0 Q412.0 -268.0 448.0 -291.0 484.0 -314.0 523.5 -341.0 L555.0 -284.5 Q506.0 -251.0 462.0 -222.5 418.5 -194.5 380.0 -173.0 L380.0 99.5 219.0 99.5 219.0 -95.0 Q185.5 -81.5 150.0 -69.0 114.0 -56.5 76.0 -45.0 L55.5 -105.5 Q102.0 -120.0 143.0 -135.0 184.0 -149.5 219.0 -165.0 L219.0 -472.0 Q178.5 -470.5 138.5 -468.5 98.5 -466.5 59.5 -465.0 L59.5 -525.5 Q99.5 -527.0 139.5 -529.0 179.0 -531.0 219.0 -532.5 L219.0 -695.5 Q185.5 -692.0 150.0 -690.5 114.0 -689.0 76.0 -689.0 L76.0 -741.5 Q147.0 -743.0 204.0 -747.5 261.0 -752.5 304.0 -761.0 351.0 -767.5 404.0 -781.5 456.5 -795.5 515.0 -817.0" fill-rule="evenodd" stroke="none"/>
    </g>
    <g id="font_DFPOP3_Std_W12__1">
      <path d="M342.0 -359.5 Q392.5 -362.5 443.0 -364.0 493.0 -365.5 543.5 -365.5 594.5 -365.5 644.5 -364.0 695.0 -362.5 745.5 -359.5 743.0 -406.5 737.5 -435.5 732.0 -464.5 723.0 -476.0 711.5 -488.5 700.0 -494.5 688.0 -500.5 676.0 -500.5 605.0 -499.5 523.0 -492.0 441.0 -485.0 347.0 -471.0 345.5 -442.5 344.0 -415.0 343.0 -387.0 342.0 -359.5 M340.0 -167.0 Q390.5 -170.0 441.0 -171.5 491.0 -173.0 541.5 -173.0 592.5 -173.0 643.5 -171.5 695.0 -170.0 746.5 -167.0 746.5 -194.5 747.0 -224.0 747.5 -253.0 747.5 -284.5 L747.5 -299.0 Q695.5 -302.0 644.5 -303.5 593.5 -305.0 543.5 -305.0 441.0 -305.0 341.0 -299.0 340.5 -278.5 340.0 -258.5 340.0 -238.5 340.0 -219.0 340.0 -191.5 340.0 -167.0 M512.0 -733.0 Q736.5 -733.0 963.5 -721.0 L963.5 -661.5 Q850.0 -667.0 737.0 -670.0 624.0 -672.5 512.0 -673.0 L443.5 -673.0 Q422.0 -633.5 402.0 -598.5 382.0 -563.0 363.5 -532.5 471.0 -546.5 571.0 -553.5 671.0 -560.5 764.0 -561.0 L781.5 -561.0 Q814.5 -561.0 837.5 -551.5 860.5 -541.5 873.5 -522.0 890.5 -497.5 899.0 -438.0 907.5 -378.5 907.5 -284.5 907.5 -208.0 905.0 -142.5 902.5 -77.5 898.0 -24.5 895.0 6.0 886.0 29.0 877.0 52.0 862.0 67.5 831.5 92.0 767.0 95.0 L743.5 95.0 Q705.0 95.0 656.5 93.0 607.5 91.0 548.0 87.0 L548.0 26.5 Q589.5 30.5 626.0 32.5 663.0 35.0 695.5 35.0 716.5 35.0 728.0 23.5 739.0 12.0 740.5 -10.0 742.0 -31.0 743.0 -55.0 744.0 -79.0 745.5 -106.5 694.0 -109.5 643.0 -111.0 592.5 -112.5 541.5 -112.5 491.0 -112.5 441.0 -111.0 391.0 -110.0 342.0 -107.5 343.0 -56.0 345.0 -6.0 347.5 44.5 351.0 95.0 L208.0 95.0 Q201.5 17.0 198.5 -62.0 195.5 -140.5 195.5 -219.0 L195.5 -270.5 Q183.5 -252.0 171.0 -233.5 L43.0 -325.5 Q88.5 -384.0 130.5 -445.0 173.0 -506.5 213.0 -569.5 229.0 -594.0 244.5 -619.0 260.0 -644.5 275.5 -669.5 221.0 -668.0 167.0 -666.0 113.0 -664.0 59.5 -661.5 L59.5 -721.0 Q122.5 -724.0 185.5 -727.0 248.5 -729.5 312.5 -731.0 328.5 -759.0 344.5 -787.0 360.5 -815.5 376.0 -845.0 L519.0 -809.0 Q508.5 -789.0 498.0 -770.0 487.0 -751.0 477.0 -733.0 L512.0 -733.0" fill-rule="evenodd" stroke="none"/>
    </g>
    <g id="font_DFPOP3_Std_W12__2">
      <path d="M499.5 -511.0 Q546.0 -514.0 592.5 -515.5 639.0 -517.0 685.0 -517.0 706.0 -517.0 726.5 -516.5 747.5 -516.0 768.0 -516.0 L768.0 -705.5 Q768.0 -731.0 756.5 -744.0 745.5 -756.5 724.0 -756.5 675.5 -754.5 619.5 -746.5 563.5 -739.0 499.5 -725.0 497.5 -697.5 496.5 -670.5 495.5 -643.5 495.5 -617.5 495.5 -590.0 496.5 -563.5 497.5 -537.0 499.5 -511.0 M252.0 -829.5 L359.5 -772.0 Q360.0 -783.0 361.0 -793.0 362.0 -803.0 363.5 -813.0 L508.0 -813.0 Q506.5 -805.5 505.5 -798.0 505.0 -790.5 505.0 -783.5 669.0 -817.0 750.5 -817.0 L768.0 -817.0 Q809.5 -817.0 839.0 -809.5 868.0 -802.0 886.0 -787.5 902.5 -773.5 911.0 -754.0 919.5 -734.5 919.5 -709.5 L919.5 -507.0 Q924.0 -506.0 929.5 -505.5 934.5 -505.0 939.0 -505.0 L939.0 -445.5 Q883.5 -450.0 828.5 -453.0 773.5 -456.0 720.0 -456.5 L720.0 -327.5 Q784.5 -327.0 848.5 -324.5 912.0 -322.0 976.0 -317.5 L976.0 -257.0 Q945.0 -259.5 914.5 -261.0 883.5 -262.5 853.0 -264.0 907.0 -138.0 991.0 15.5 L852.0 87.0 Q819.0 3.5 789.0 -85.5 759.0 -174.5 732.0 -268.5 726.0 -268.5 720.0 -268.5 L720.0 91.0 567.5 91.0 567.5 -268.5 565.0 -268.5 Q550.0 -213.0 536.5 -168.0 523.5 -123.0 512.0 -89.0 496.0 -47.5 477.5 -3.5 459.5 40.0 439.5 87.0 L311.5 22.5 Q331.5 -11.0 349.5 -45.5 368.0 -79.5 384.0 -114.5 398.0 -144.0 413.0 -181.5 428.5 -219.0 445.5 -264.0 415.5 -262.5 386.0 -260.5 357.0 -258.5 327.5 -257.0 L327.5 -317.5 Q387.5 -321.0 447.5 -323.5 507.5 -326.0 567.5 -327.5 L567.5 -453.5 Q551.0 -453.0 535.5 -452.0 520.0 -451.5 505.0 -450.5 505.0 -442.0 505.5 -434.5 506.5 -427.0 508.0 -421.0 L363.5 -421.0 Q351.0 -519.0 351.0 -617.5 351.0 -634.5 351.5 -651.0 352.0 -668.0 353.5 -684.0 339.5 -656.5 326.0 -629.0 313.0 -601.5 299.0 -575.5 L299.0 99.5 155.5 99.5 155.5 -334.0 31.5 -409.5 Q95.5 -518.5 150.5 -623.5 206.0 -728.0 252.0 -829.5" fill-rule="evenodd" stroke="none"/>
    </g>
    <g id="font_DFPOP3_Std_W12__3">
      <path d="M548.0 -217.0 Q567.0 -217.0 585.5 -211.0 603.5 -205.0 620.5 -192.5 651.5 -162.0 651.5 -112.5 651.0 -89.5 642.0 -70.5 633.0 -51.0 615.5 -36.0 598.5 -22.0 581.5 -15.5 564.5 -9.0 548.0 -9.0 525.0 -9.0 505.0 -18.0 485.0 -26.5 469.0 -45.0 456.0 -60.5 449.5 -77.5 443.5 -94.0 443.5 -112.5 443.5 -134.0 449.0 -152.0 454.5 -170.0 467.0 -185.5 483.0 -201.0 503.0 -209.0 523.5 -217.0 548.0 -217.0 M691.0 -328.5 Q708.0 -328.5 725.5 -328.0 743.0 -327.5 760.0 -327.5 L760.0 -417.0 919.5 -417.0 919.5 -320.5 Q945.5 -319.0 972.0 -317.5 L972.0 -257.0 Q958.0 -258.0 945.0 -258.5 932.0 -259.5 919.5 -261.0 L919.5 -33.0 Q919.5 -2.0 911.5 21.0 903.0 44.0 888.0 59.5 871.0 75.0 844.5 83.0 818.5 91.0 782.5 91.0 L727.0 91.0 Q690.0 91.0 648.5 87.0 606.5 82.5 559.0 75.0 L559.0 15.5 Q604.5 23.0 644.5 27.0 684.5 30.5 720.0 30.5 760.0 30.5 760.0 -21.5 L760.0 -268.5 Q742.0 -268.5 725.0 -269.0 708.0 -269.0 691.0 -269.5 551.5 -269.5 411.5 -257.0 L411.5 -317.5 Q481.5 -323.0 551.5 -326.0 621.5 -328.5 691.0 -328.5 M615.5 -528.5 L615.5 -692.0 Q564.5 -691.0 515.0 -688.0 465.0 -685.5 415.5 -681.0 L415.5 -741.5 Q465.5 -745.0 515.5 -747.5 565.5 -750.0 615.5 -751.5 L615.5 -829.5 768.0 -829.5 768.0 -751.5 Q819.0 -750.0 870.0 -747.5 921.0 -745.0 972.0 -741.5 L972.0 -681.0 Q920.5 -685.5 869.5 -688.0 818.5 -691.0 768.0 -692.0 L768.0 -528.5 Q815.0 -527.0 861.5 -524.5 908.5 -521.5 955.5 -517.0 L955.5 -456.5 Q826.5 -469.0 697.5 -469.0 568.5 -469.0 439.5 -456.5 L439.5 -517.0 Q484.0 -521.0 527.5 -524.0 571.5 -527.0 615.5 -528.5 M175.0 -687.0 L175.0 -833.5 327.5 -833.5 327.5 -686.0 Q350.0 -684.5 372.0 -682.0 394.0 -680.0 415.5 -677.0 L415.5 -617.5 Q393.0 -620.5 371.0 -622.5 349.0 -624.0 327.5 -625.5 L327.5 -489.5 Q336.0 -496.5 344.0 -503.5 352.0 -510.0 359.5 -517.0 L464.0 -409.5 Q433.0 -382.0 399.0 -354.5 364.5 -326.5 327.5 -299.0 L327.5 -97.5 Q327.5 -53.0 322.0 -18.5 316.0 15.5 305.0 40.0 291.5 65.5 263.0 78.0 234.5 91.0 191.5 91.0 170.0 91.0 139.0 87.0 108.5 82.5 67.5 75.0 L67.5 15.5 Q87.5 23.0 103.0 27.0 119.0 30.5 131.0 30.5 152.5 30.5 164.0 15.5 175.0 0.5 175.0 -28.5 L175.0 -188.5 Q167.5 -183.0 160.5 -178.5 153.5 -173.5 147.5 -169.0 L51.0 -281.5 Q83.5 -303.0 114.5 -324.5 146.0 -346.0 175.0 -367.5 L175.0 -626.5 Q146.5 -625.0 119.0 -623.0 91.0 -620.5 63.5 -617.5 L63.5 -677.0 Q91.0 -680.5 119.5 -683.0 147.5 -685.5 175.0 -687.0" fill-rule="evenodd" stroke="none"/>
    </g>
    <g id="font_DFPOP3_Std_W12__4">
      <path d="M606.0 -550.0 Q603.0 -471.5 603.0 -405.5 632.5 -407.0 661.5 -408.5 690.5 -409.5 720.0 -409.5 732.0 -409.5 744.0 -409.0 756.0 -408.5 768.0 -408.5 772.0 -447.0 775.0 -482.5 777.5 -517.5 779.5 -550.0 757.0 -551.5 735.0 -552.0 712.5 -553.0 691.0 -553.0 669.0 -553.0 647.5 -552.0 626.0 -551.5 606.0 -550.0 M610.5 -747.5 Q609.0 -710.5 608.0 -676.0 607.0 -642.0 607.0 -610.5 628.5 -612.0 649.5 -612.5 670.5 -613.5 691.0 -613.5 714.5 -613.5 737.0 -612.5 760.0 -612.0 782.5 -610.5 782.5 -624.0 783.0 -638.0 783.5 -652.0 783.5 -665.5 783.5 -711.0 756.5 -734.0 729.5 -756.5 676.0 -756.5 660.5 -755.0 644.0 -753.0 628.0 -750.5 610.5 -747.5 M724.0 -817.0 Q779.0 -817.0 818.5 -807.0 858.0 -797.0 881.5 -777.0 904.5 -757.5 916.0 -730.0 927.5 -703.0 927.5 -668.5 927.5 -609.5 923.5 -542.0 919.0 -474.5 910.5 -399.5 915.5 -398.5 921.0 -398.0 926.5 -397.5 932.0 -397.5 L932.0 -337.0 Q887.5 -341.5 844.0 -344.5 800.5 -347.5 758.0 -348.0 771.5 -320.5 787.0 -291.5 802.5 -262.5 819.0 -233.5 820.5 -242.5 824.5 -250.5 828.5 -258.5 834.5 -266.0 848.5 -279.5 866.0 -286.0 883.0 -293.0 903.0 -293.0 920.0 -293.0 935.5 -287.5 951.0 -282.5 964.5 -272.5 977.5 -259.5 984.5 -242.5 991.0 -225.5 991.0 -205.0 991.0 -166.5 960.5 -140.5 946.5 -128.0 932.0 -122.5 918.0 -116.5 903.0 -116.5 898.5 -116.5 894.0 -117.0 889.5 -117.5 886.0 -119.0 907.5 -82.0 931.0 -45.0 954.5 -7.5 980.0 30.5 L848.0 99.5 Q783.5 -6.0 725.0 -117.0 666.5 -228.5 613.5 -346.0 610.5 -345.5 607.5 -345.0 604.5 -345.0 602.0 -345.0 599.0 -211.5 597.5 -139.5 596.0 -67.5 596.0 -57.5 596.0 -36.5 599.5 -23.0 602.5 -9.0 610.5 -3.0 618.0 4.5 629.0 9.0 640.0 14.0 655.5 15.5 675.5 15.5 706.5 10.0 737.5 5.0 779.5 -5.0 L775.0 62.5 Q723.0 70.0 681.0 74.5 639.5 79.0 607.0 79.0 L577.5 79.0 Q546.0 79.0 521.0 67.5 495.5 56.0 477.0 33.0 462.0 16.5 454.5 -6.5 447.5 -30.0 447.5 -61.5 447.5 -101.5 451.5 -291.0 455.5 -481.0 464.0 -821.0 L611.5 -821.0 611.5 -804.0 Q643.5 -810.0 669.0 -813.5 694.5 -817.0 712.5 -817.0 L724.0 -817.0 M182.5 -542.5 Q195.5 -543.5 208.5 -544.0 221.5 -544.5 235.5 -545.0 241.5 -544.5 248.5 -544.5 255.0 -544.0 262.0 -543.5 260.5 -603.5 257.5 -643.5 254.5 -683.0 250.0 -701.5 247.0 -717.0 238.0 -725.0 229.5 -733.0 215.0 -733.0 207.5 -733.0 190.5 -724.0 187.5 -678.0 185.0 -632.5 183.0 -587.5 182.5 -542.5 M180.0 -306.0 Q193.0 -307.5 206.5 -308.5 219.5 -309.0 233.5 -309.0 240.5 -309.0 247.5 -308.5 254.5 -308.5 262.0 -308.0 262.0 -343.0 262.5 -375.0 263.0 -407.0 263.0 -436.0 L263.0 -484.5 Q255.5 -484.5 248.5 -485.0 241.5 -485.5 235.5 -485.5 206.5 -485.5 180.0 -482.5 179.5 -454.5 179.5 -428.0 179.0 -401.0 179.0 -375.0 179.0 -357.0 179.5 -340.0 179.5 -323.0 180.0 -306.0 M189.5 -54.5 Q205.5 -56.0 221.5 -56.5 237.5 -57.5 253.0 -57.5 255.0 -108.0 257.0 -155.5 258.5 -203.5 260.0 -248.0 252.5 -248.0 246.0 -248.5 239.5 -249.0 233.5 -249.0 219.5 -249.0 206.5 -248.0 193.5 -247.5 181.0 -247.0 182.0 -197.5 184.0 -150.0 186.5 -102.0 189.5 -54.5 M55.5 -801.0 L195.5 -801.0 Q195.0 -794.5 194.5 -789.0 194.5 -784.0 194.5 -779.5 210.0 -785.5 224.5 -788.5 239.0 -792.0 252.0 -793.5 L263.0 -793.5 Q314.5 -793.5 345.5 -774.0 376.0 -754.0 386.0 -715.0 394.5 -679.5 399.0 -609.5 403.5 -540.0 403.5 -436.0 403.5 -350.0 400.5 -253.5 397.5 -156.5 392.0 -49.0 400.5 -47.5 408.5 -46.5 416.5 -46.0 424.0 -45.0 L424.0 15.5 Q344.0 3.0 267.5 3.0 248.0 3.0 229.5 4.0 211.0 4.5 192.5 6.0 192.5 17.0 193.5 28.5 194.0 39.5 195.5 51.0 L55.5 51.0 Q47.5 -55.0 44.0 -161.5 40.0 -268.0 40.0 -375.0 40.0 -481.0 44.0 -587.5 47.5 -694.0 55.5 -801.0" fill-rule="evenodd" stroke="none"/>
    </g>
    <g id="font_DFPOP3_Std_W12__5">
      <path d="M587.0 -244.5 Q616.0 -246.5 646.0 -247.5 675.5 -249.0 705.5 -249.0 730.0 -249.0 754.5 -248.0 779.5 -247.5 804.0 -247.0 800.0 -271.5 793.0 -286.5 786.5 -302.0 777.0 -308.0 763.5 -316.5 749.0 -321.0 734.5 -325.5 720.0 -325.5 690.5 -325.0 658.5 -321.0 626.0 -317.0 591.0 -309.0 589.0 -292.5 588.0 -276.0 587.0 -260.0 587.0 -244.5 M583.5 -121.0 Q613.0 -122.5 641.5 -123.5 670.5 -125.0 699.5 -125.0 726.0 -125.0 753.5 -124.0 780.5 -123.5 808.0 -122.0 808.0 -135.5 808.0 -151.0 808.0 -166.0 808.0 -182.5 L808.0 -186.5 Q782.0 -188.0 756.5 -188.5 731.0 -189.5 705.5 -189.5 675.0 -189.5 644.5 -188.0 614.0 -187.0 584.5 -185.5 584.0 -176.0 584.0 -167.0 583.5 -158.0 583.5 -149.5 583.5 -142.0 583.5 -135.0 583.5 -127.5 583.5 -121.0 M451.5 -393.0 L599.0 -393.0 Q597.5 -385.5 596.5 -379.0 596.0 -372.5 596.0 -366.5 644.5 -375.0 690.5 -379.5 736.0 -384.5 779.5 -385.0 L802.0 -385.0 Q843.0 -385.0 872.0 -378.0 900.5 -371.0 916.5 -357.5 959.5 -320.5 959.5 -182.5 959.5 -126.0 957.5 -78.5 955.0 -31.0 951.5 8.0 948.0 30.5 940.5 47.0 933.0 64.0 920.5 75.0 908.0 83.0 888.0 88.5 867.5 93.5 839.5 95.0 L819.0 95.0 Q791.5 95.0 757.0 93.0 722.0 91.0 680.0 87.0 L680.0 26.5 Q707.0 30.5 730.5 32.5 754.5 35.0 775.0 35.0 801.5 35.0 803.0 4.0 803.5 -10.0 804.5 -26.5 805.0 -43.0 806.0 -62.5 779.0 -64.0 752.5 -65.0 725.5 -65.5 699.5 -65.5 670.0 -65.5 642.0 -64.5 613.5 -63.0 585.5 -61.5 587.5 -21.5 591.0 17.5 594.5 56.0 599.0 95.0 L451.5 95.0 Q443.0 34.0 439.0 -27.0 435.0 -88.0 435.0 -149.5 435.0 -210.0 439.0 -271.0 443.0 -332.0 451.5 -393.0 M611.5 -768.0 L611.5 -833.5 764.0 -833.5 764.0 -768.0 Q814.5 -766.5 866.0 -764.0 917.0 -761.5 967.5 -756.5 L967.5 -697.5 Q916.5 -702.0 865.5 -704.5 814.5 -707.0 764.0 -708.5 L764.0 -632.0 Q811.0 -630.5 857.5 -628.0 904.5 -625.5 951.5 -621.5 L951.5 -561.0 Q903.5 -565.5 857.0 -568.5 810.0 -571.0 764.0 -572.5 L764.0 -495.5 Q816.0 -494.0 868.0 -491.5 919.5 -489.0 972.0 -485.5 L972.0 -425.0 Q836.5 -437.0 701.5 -437.0 566.5 -437.0 431.0 -425.0 L431.0 -485.5 Q476.5 -488.5 521.5 -491.5 567.0 -494.0 611.5 -495.5 L611.5 -571.5 Q570.5 -570.0 530.5 -567.5 491.0 -565.0 451.5 -561.0 L451.5 -621.5 Q531.5 -627.5 611.5 -631.0 L611.5 -708.5 Q565.5 -707.0 520.5 -704.0 475.5 -701.0 431.0 -697.5 L431.0 -756.5 Q475.5 -760.5 521.0 -763.5 566.0 -766.5 611.5 -768.0 M185.5 -538.5 Q199.0 -539.5 212.5 -540.0 226.0 -540.5 239.5 -540.5 247.5 -540.5 255.0 -540.0 262.5 -539.5 270.5 -539.5 268.0 -598.0 263.5 -636.5 259.0 -675.0 253.0 -693.0 249.0 -708.5 237.5 -717.0 226.5 -725.0 208.0 -725.0 201.5 -725.0 192.5 -719.0 189.5 -672.5 188.0 -627.5 186.0 -582.5 185.5 -538.5 M183.5 -310.5 Q197.0 -312.0 211.5 -312.5 225.5 -313.5 239.5 -313.5 247.0 -313.5 254.5 -313.0 261.5 -312.5 269.5 -312.5 270.0 -344.5 270.5 -374.5 271.5 -404.5 271.5 -432.0 L271.5 -480.5 Q263.0 -480.5 255.0 -481.0 247.5 -481.0 239.5 -481.5 210.5 -481.5 184.5 -478.0 183.5 -450.0 183.5 -422.5 183.5 -395.0 183.5 -368.5 L183.5 -310.5 M190.5 -61.5 Q207.5 -63.0 224.5 -64.0 241.0 -65.0 258.0 -65.5 261.0 -115.5 263.5 -162.0 265.5 -209.0 267.5 -252.0 259.5 -252.0 252.5 -252.5 246.0 -253.0 239.5 -253.0 210.5 -253.0 184.5 -250.0 185.0 -202.5 186.5 -155.5 188.0 -108.5 190.5 -61.5 M67.5 -785.5 L195.5 -785.5 Q195.5 -781.5 195.0 -778.0 194.5 -774.0 194.5 -771.0 207.5 -776.5 220.0 -780.0 232.0 -784.0 243.5 -785.5 L256.0 -785.5 Q310.0 -785.5 342.5 -766.0 375.0 -747.0 386.0 -708.5 394.5 -673.5 399.0 -604.0 403.5 -535.0 403.5 -432.0 403.5 -348.5 399.5 -254.5 396.0 -161.0 389.0 -57.5 397.0 -56.0 404.5 -55.0 412.0 -54.0 420.0 -53.0 L420.0 7.0 Q382.0 1.0 345.0 -2.0 308.0 -5.0 271.5 -5.0 251.5 -5.0 232.0 -4.5 212.5 -3.5 193.5 -2.0 193.5 10.0 194.0 22.5 195.0 35.0 195.5 47.0 L67.5 47.0 Q61.5 -56.5 58.5 -160.5 55.5 -264.0 55.5 -368.5 55.5 -473.0 58.5 -577.0 61.5 -681.0 67.5 -785.5" fill-rule="evenodd" stroke="none"/>
    </g>
    <g id="font_DFPOP3_Std_W12__6">
      <path d="M844.0 -109.5 Q869.0 -78.0 904.0 -43.0 938.5 -7.5 983.0 30.5 L835.5 106.5 Q801.5 69.0 770.5 29.0 739.5 -11.0 711.5 -53.0 L844.0 -109.5 M191.5 -112.5 L336.0 -49.0 Q322.0 -26.0 309.0 -7.0 296.0 12.5 284.5 28.5 271.0 47.0 253.0 70.0 235.0 92.5 212.0 119.0 L71.5 43.0 Q90.0 23.0 106.5 4.5 122.5 -14.5 137.0 -33.0 150.5 -49.0 164.0 -69.0 177.5 -89.0 191.5 -112.5 M376.0 -425.0 L499.5 -425.0 499.5 -209.0 376.0 -209.0 376.0 -425.0 M336.0 -817.0 L363.5 -756.5 Q336.0 -744.5 311.0 -734.5 286.0 -725.0 264.0 -719.0 250.5 -713.5 236.0 -709.0 221.5 -704.5 207.0 -700.5 L211.0 -588.0 Q218.5 -588.0 226.5 -588.5 234.0 -588.5 241.5 -589.0 267.0 -589.0 292.5 -586.0 317.5 -583.0 343.0 -577.5 L343.0 -517.0 Q292.5 -529.5 241.5 -529.5 234.0 -529.5 227.0 -529.0 220.0 -528.5 213.0 -528.5 L218.0 -380.0 Q226.0 -380.0 232.5 -380.5 239.5 -381.0 246.0 -381.0 270.5 -381.0 294.5 -378.0 318.5 -375.0 343.0 -368.5 L343.0 -309.0 Q318.5 -315.5 294.5 -318.5 270.5 -321.5 246.0 -321.5 239.0 -321.5 232.5 -321.0 226.5 -320.5 220.0 -320.5 L226.5 -176.0 Q298.5 -178.5 371.5 -180.0 444.0 -181.0 517.0 -181.0 L551.0 -181.0 Q555.0 -238.0 557.0 -287.5 559.0 -337.5 559.0 -379.0 559.0 -431.0 556.0 -464.0 553.0 -497.0 547.0 -510.0 544.0 -517.5 536.0 -521.5 528.0 -525.5 515.0 -525.5 509.0 -525.5 499.5 -522.0 L499.5 -477.0 376.0 -477.0 376.0 -825.5 499.5 -825.5 499.5 -758.0 Q530.5 -761.0 561.0 -761.0 592.0 -761.0 622.0 -758.0 652.5 -755.0 683.0 -749.5 L683.0 -689.0 Q652.5 -695.5 622.0 -698.5 592.0 -701.5 561.0 -701.5 530.5 -701.5 499.5 -698.5 L499.5 -578.5 Q513.0 -581.0 525.0 -582.5 537.0 -584.0 548.0 -584.5 L558.0 -584.5 Q605.5 -584.5 634.0 -573.5 662.5 -562.0 671.5 -539.5 679.5 -519.0 683.5 -479.0 687.0 -439.0 687.0 -379.0 687.0 -333.5 685.0 -284.0 683.0 -234.0 679.0 -180.0 714.5 -179.5 749.5 -178.5 784.5 -177.5 819.0 -176.0 819.0 -212.0 820.0 -248.5 820.5 -284.5 821.0 -321.5 L806.0 -321.5 Q783.0 -321.5 760.5 -318.5 738.0 -315.5 716.0 -309.0 L716.0 -368.5 Q738.0 -375.0 760.5 -378.0 783.0 -381.0 806.0 -381.0 809.5 -381.0 813.5 -380.5 817.5 -380.0 821.0 -380.0 821.0 -417.0 821.5 -454.0 821.5 -491.5 822.5 -528.5 817.5 -528.5 813.5 -529.0 809.0 -529.5 806.0 -529.5 783.0 -529.5 760.5 -526.5 738.0 -523.5 716.0 -517.0 L716.0 -577.5 Q738.0 -583.0 760.5 -586.0 783.0 -589.0 806.0 -589.0 810.5 -588.5 815.0 -588.5 819.5 -588.0 823.5 -588.0 L823.5 -729.0 Q823.5 -733.0 813.5 -735.0 803.5 -737.0 783.5 -737.5 743.5 -731.0 703.5 -712.5 L703.5 -773.0 Q735.5 -784.0 775.0 -790.0 814.0 -796.0 860.0 -796.5 L867.5 -796.5 Q915.0 -796.5 939.5 -778.5 963.5 -760.5 963.5 -725.0 963.5 -706.0 963.0 -661.0 962.5 -616.5 962.5 -547.0 961.0 -457.0 960.5 -362.5 959.5 -268.5 959.5 -170.0 968.0 -170.0 975.5 -169.5 983.5 -169.0 991.0 -169.0 L991.0 -109.5 Q873.0 -115.0 754.0 -118.0 635.5 -121.0 517.0 -121.0 399.0 -121.0 280.0 -118.0 161.5 -115.0 43.0 -109.5 L43.0 -169.0 Q55.5 -169.0 68.0 -169.5 81.0 -170.0 94.0 -171.0 L71.5 -781.5 204.0 -781.5 205.0 -765.0 Q213.5 -767.5 221.5 -770.0 230.0 -773.0 237.5 -776.0 259.0 -784.0 283.5 -794.0 308.0 -804.0 336.0 -817.0" fill-rule="evenodd" stroke="none"/>
    </g>
    <g id="font_DFPOP3_Std_W12__7">
      <path d="M244.5 -109.5 Q314.5 -112.5 384.5 -114.5 454.5 -116.5 525.5 -116.5 586.0 -116.5 646.5 -115.5 707.0 -114.0 767.0 -111.5 762.5 -173.0 699.5 -173.0 509.0 -170.0 248.0 -151.5 246.5 -140.0 245.5 -129.5 244.5 -119.0 244.5 -109.5 M248.0 11.5 Q326.0 6.5 404.0 5.0 481.5 3.0 559.0 3.0 610.5 3.0 661.5 4.0 712.0 4.5 763.0 6.0 764.5 -9.0 765.5 -23.5 766.0 -38.0 767.0 -51.0 706.5 -54.5 646.0 -56.0 585.0 -57.5 525.5 -57.5 454.5 -57.5 384.0 -55.0 313.5 -53.0 243.5 -49.0 244.0 -34.0 245.0 -18.5 246.0 -3.5 248.0 11.5 M99.5 -229.5 L259.0 -229.5 Q256.0 -218.5 256.0 -211.0 413.5 -222.0 530.0 -227.5 646.5 -233.5 722.0 -233.5 L751.5 -233.5 Q799.5 -233.5 833.5 -224.5 868.0 -215.5 888.0 -198.5 908.0 -181.5 918.0 -158.0 927.5 -134.5 927.5 -105.5 927.5 -51.5 921.5 14.5 928.5 14.5 935.0 14.5 941.0 14.5 947.0 15.5 L947.0 75.0 Q850.5 68.5 753.0 65.5 656.0 62.5 559.0 62.5 482.5 62.5 406.5 64.0 330.0 66.0 255.0 69.5 255.5 77.5 256.5 85.0 257.5 92.5 259.0 99.5 L99.5 99.5 Q91.5 58.0 88.0 17.0 84.0 -24.0 84.0 -65.5 84.0 -106.0 88.0 -147.0 91.5 -188.0 99.5 -229.5 M583.5 -620.5 L583.5 -560.0 Q673.0 -560.0 762.0 -557.0 762.5 -574.0 763.5 -589.0 764.0 -604.5 765.0 -617.5 673.0 -620.5 583.5 -620.5 M583.5 -745.5 L583.5 -680.0 Q676.0 -680.0 768.0 -677.0 L768.0 -697.5 Q768.0 -734.0 712.5 -740.5 696.5 -742.5 670.5 -744.0 644.5 -745.5 608.5 -745.5 L583.5 -745.5 M624.5 -805.0 L647.0 -805.0 Q738.5 -805.0 796.0 -797.5 854.0 -790.0 877.5 -776.0 898.5 -764.5 909.0 -748.0 919.5 -731.0 919.5 -709.5 L919.5 -670.5 Q932.0 -670.0 945.0 -669.5 958.0 -668.5 972.0 -668.5 L972.0 -609.5 Q958.0 -609.5 944.5 -610.0 931.0 -610.5 918.5 -611.5 917.5 -596.0 917.0 -580.5 916.5 -565.0 916.5 -550.0 921.0 -550.0 926.0 -549.5 931.5 -549.0 936.0 -549.0 L936.0 -489.5 Q847.0 -494.0 759.0 -496.5 671.0 -499.5 583.5 -500.5 L583.5 -448.5 Q669.5 -447.5 755.5 -445.0 841.5 -442.0 927.5 -437.0 L927.5 -377.0 Q841.5 -381.5 755.5 -384.5 669.5 -387.5 583.5 -388.0 L583.5 -337.0 Q680.5 -335.5 777.5 -333.0 874.5 -330.0 972.0 -325.5 L972.0 -265.0 Q856.5 -271.5 741.5 -274.5 626.5 -277.5 512.0 -277.5 281.5 -277.5 51.0 -265.0 L51.0 -325.5 Q145.0 -330.0 238.0 -332.5 331.0 -335.0 424.0 -336.0 L424.0 -388.0 Q338.5 -387.5 253.5 -384.5 168.5 -381.5 84.0 -377.0 L84.0 -437.0 Q169.0 -442.0 254.5 -445.0 339.5 -447.5 424.0 -448.5 L424.0 -499.5 Q342.5 -499.0 261.0 -496.5 180.0 -494.0 99.5 -489.5 L99.5 -549.0 Q180.5 -553.5 261.5 -556.0 342.5 -558.5 424.0 -560.0 L424.0 -620.5 Q330.5 -619.5 237.0 -617.0 144.0 -614.0 51.0 -609.5 L51.0 -668.5 Q145.0 -673.5 238.0 -676.0 331.0 -679.0 424.0 -680.0 L424.0 -740.5 Q345.5 -736.5 264.5 -729.5 183.5 -722.5 99.5 -712.5 L99.5 -773.0 Q179.0 -783.0 260.0 -790.0 341.0 -797.0 424.0 -801.0 L424.0 -849.0 583.5 -849.0 583.5 -805.0 624.5 -805.0" fill-rule="evenodd" stroke="none"/>
    </g>
    <g id="font_DFPOP3_Std_W12__8">
      <path d="M583.5 -627.5 L583.5 -152.5 Q629.0 -151.0 674.5 -148.5 719.5 -146.0 765.0 -142.5 729.5 -260.0 697.0 -381.0 665.0 -502.5 635.0 -627.5 621.0 -627.5 608.5 -627.5 596.0 -627.5 583.5 -627.5 M431.0 -688.0 L431.0 -833.5 583.5 -833.5 583.5 -688.0 Q674.5 -687.5 765.5 -684.5 856.5 -681.5 947.0 -677.0 L947.0 -617.5 Q906.5 -619.0 866.5 -621.0 826.5 -623.0 787.5 -624.5 823.5 -482.0 872.0 -323.0 920.0 -164.0 980.0 11.5 L835.5 87.0 Q819.5 39.0 804.0 -9.5 789.0 -57.5 775.0 -106.5 L775.0 -81.0 Q727.0 -85.5 679.0 -88.0 631.5 -90.5 583.5 -92.0 L583.5 106.5 431.0 106.5 431.0 -91.0 Q389.5 -89.5 348.5 -87.0 307.5 -84.5 267.5 -81.0 L267.5 -141.5 Q308.0 -145.0 349.0 -147.5 389.5 -150.0 431.0 -151.5 L431.0 -627.5 Q421.0 -627.5 412.0 -627.5 402.5 -627.5 393.0 -627.5 367.0 -512.0 343.5 -418.5 319.5 -325.5 298.0 -255.0 272.0 -173.5 241.0 -88.0 210.5 -2.0 175.0 87.0 L40.0 18.5 Q69.0 -53.5 96.0 -126.0 123.0 -198.5 147.5 -272.5 169.0 -341.5 193.5 -429.5 218.0 -518.0 244.5 -624.5 201.0 -623.0 158.0 -621.0 114.5 -619.0 71.5 -617.5 L71.5 -677.0 Q161.5 -681.5 251.5 -684.5 341.0 -687.5 431.0 -688.0" fill-rule="evenodd" stroke="none"/>
    </g>
    <g id="font_DFPOP3_Std_W12__9">
      <path d="M632.0 -425.0 Q673.5 -374.5 710.0 -325.5 747.0 -277.0 779.5 -229.5 L659.5 -145.5 Q627.0 -194.0 591.0 -241.5 555.0 -289.5 515.0 -337.0 L632.0 -425.0 M188.5 -374.0 Q207.0 -375.5 226.0 -376.0 244.5 -377.0 263.0 -377.0 278.5 -377.0 294.0 -376.0 309.0 -375.5 324.5 -375.0 327.5 -479.0 327.5 -565.0 327.5 -603.0 307.5 -622.0 287.5 -641.0 248.0 -641.0 223.0 -638.0 195.5 -632.0 192.5 -566.5 190.5 -502.0 188.5 -437.5 188.5 -374.0 M193.5 -21.5 Q219.5 -23.0 246.0 -24.5 272.0 -25.5 298.0 -25.5 L309.0 -25.5 Q313.0 -104.0 316.5 -176.5 319.5 -248.5 322.5 -315.5 307.0 -316.0 292.5 -317.0 277.5 -317.5 263.0 -317.5 244.0 -317.5 225.0 -316.0 206.0 -315.0 187.5 -313.5 L187.5 -301.0 Q187.5 -159.5 193.5 -21.5 M219.0 -829.5 L363.5 -813.0 Q357.5 -785.5 349.0 -757.0 341.0 -728.5 331.0 -699.5 366.0 -696.5 391.5 -688.0 417.5 -679.5 434.0 -665.5 454.0 -648.0 464.5 -624.0 475.0 -600.0 475.0 -569.5 L475.0 -536.5 Q502.0 -610.0 523.0 -684.5 544.0 -758.5 559.0 -833.5 L707.5 -817.0 Q702.0 -793.5 696.0 -769.5 690.0 -746.0 684.0 -723.0 721.0 -729.0 751.5 -729.0 831.5 -729.0 880.0 -707.0 928.5 -685.0 945.0 -642.0 969.5 -568.5 976.0 -362.5 976.0 -195.0 957.5 -34.0 951.5 30.5 914.0 63.0 876.5 95.0 808.0 95.0 754.0 95.0 690.5 89.0 626.5 83.0 552.0 70.5 L552.0 11.5 Q605.5 23.0 645.5 29.0 685.5 35.0 711.5 35.0 753.0 32.0 776.0 17.5 799.0 3.5 803.0 -22.5 806.0 -62.5 808.0 -107.5 810.5 -153.0 812.0 -203.0 815.0 -295.0 815.0 -362.5 813.0 -464.0 806.5 -530.0 800.5 -596.5 790.5 -628.5 783.5 -648.5 760.5 -658.5 738.0 -668.5 699.5 -668.5 691.5 -668.0 683.5 -667.0 675.5 -666.0 667.5 -664.5 650.0 -606.0 629.0 -547.0 608.0 -488.0 583.5 -429.0 L474.0 -457.5 Q472.5 -357.0 468.0 -246.5 463.5 -136.0 456.5 -15.5 460.5 -14.5 464.5 -14.0 468.0 -13.5 471.0 -13.5 L471.0 47.0 Q427.5 41.0 384.0 38.0 341.0 35.0 298.0 35.0 272.0 35.0 246.5 35.5 221.0 36.5 196.5 39.0 197.5 53.0 198.0 67.0 199.0 81.5 199.5 95.0 L55.5 95.0 Q43.0 -103.0 43.0 -301.0 43.0 -497.5 55.5 -697.5 L188.5 -697.5 Q207.0 -763.5 219.0 -829.5" fill-rule="evenodd" stroke="none"/>
    </g>
    <g id="font_DFPOP3_Std_W12__10">
      <path d="M609.5 -497.5 Q607.0 -421.0 605.5 -358.5 604.0 -296.0 603.0 -247.0 637.0 -250.0 670.0 -251.5 703.5 -253.0 737.5 -253.0 749.5 -253.0 761.5 -252.5 773.0 -252.0 785.5 -252.0 794.5 -316.5 799.0 -367.5 804.0 -418.5 804.0 -456.5 804.0 -521.0 711.5 -521.0 685.0 -519.5 659.5 -513.5 634.0 -507.5 609.5 -497.5 M755.5 -796.5 Q807.0 -796.5 859.5 -793.5 911.5 -791.0 963.5 -785.5 L963.5 -725.0 Q911.5 -731.0 859.5 -734.0 807.0 -737.5 755.5 -737.5 720.5 -737.5 685.5 -735.5 650.5 -734.0 616.5 -731.0 615.0 -682.5 613.5 -638.5 612.0 -594.0 611.5 -554.0 650.0 -568.0 688.0 -574.5 726.0 -581.5 764.0 -581.5 L775.0 -581.5 Q854.0 -580.0 894.5 -549.5 934.5 -519.0 936.0 -461.0 936.0 -411.5 931.0 -357.0 926.0 -302.5 916.5 -242.5 922.5 -242.0 928.0 -241.5 933.5 -240.5 939.0 -240.5 L939.0 -181.0 Q888.5 -187.5 838.0 -190.5 788.0 -193.5 737.5 -193.5 703.0 -193.5 669.0 -192.0 635.0 -190.5 601.0 -187.5 599.5 -141.5 599.5 -113.5 599.0 -86.0 599.0 -77.0 599.0 -34.5 627.0 -13.5 655.0 7.0 711.5 7.0 741.0 7.0 802.5 -1.5 864.5 -10.5 959.5 -28.5 L959.5 35.0 Q856.5 50.0 783.5 58.5 710.5 66.5 667.5 66.5 L633.0 66.5 Q550.0 66.5 509.0 34.5 468.0 2.5 468.0 -61.5 468.0 -102.0 472.5 -296.5 477.5 -490.5 487.5 -837.5 L619.5 -837.5 Q619.0 -825.5 618.5 -814.0 618.5 -802.5 618.5 -791.5 652.5 -794.0 686.5 -795.5 721.0 -796.5 755.5 -796.5 M194.5 -496.5 Q218.5 -498.0 242.0 -499.5 266.0 -500.5 290.0 -500.5 L310.5 -500.5 Q315.0 -564.0 317.0 -618.0 319.5 -672.0 319.5 -717.0 319.5 -740.5 305.0 -753.0 291.0 -765.0 263.0 -765.0 248.0 -763.5 231.5 -760.0 215.0 -757.0 196.5 -751.5 193.5 -715.5 192.5 -680.5 191.5 -645.0 191.5 -611.5 191.5 -582.0 192.5 -553.0 193.0 -524.5 194.5 -496.5 M76.0 -829.5 L204.0 -829.5 Q203.0 -824.0 202.5 -819.5 202.0 -814.5 201.5 -810.0 258.5 -825.5 291.0 -825.5 L299.0 -825.5 Q339.0 -825.5 368.0 -818.0 397.0 -810.5 414.5 -796.5 431.0 -783.0 439.0 -764.0 447.5 -745.5 447.5 -721.0 447.5 -670.0 444.5 -612.5 442.0 -555.5 437.0 -491.5 441.0 -490.5 445.0 -490.0 448.5 -489.5 451.5 -489.5 L451.5 -429.0 Q424.5 -433.0 398.5 -435.5 372.5 -438.0 347.0 -439.5 L347.0 -281.5 361.5 -281.5 Q383.5 -281.5 406.0 -278.5 428.5 -275.5 451.5 -269.5 L451.5 -209.0 Q428.5 -215.0 406.0 -218.0 383.5 -221.0 361.5 -221.0 L347.0 -221.0 347.0 -11.5 Q370.0 -17.5 397.5 -26.0 425.0 -34.5 455.5 -45.0 L451.5 18.5 Q378.0 40.0 318.0 51.0 258.0 62.5 212.0 62.5 L184.5 62.5 Q155.0 62.5 132.0 52.0 109.0 41.0 91.0 20.5 63.5 -7.0 63.5 -65.5 L63.5 -345.0 191.5 -345.0 191.5 -61.5 Q191.5 -43.0 195.5 -30.5 199.5 -18.5 208.0 -12.5 210.0 -10.0 213.0 -8.5 216.0 -6.5 219.0 -5.0 L219.0 -438.5 Q213.5 -438.0 208.5 -438.0 203.5 -437.5 198.5 -437.0 199.5 -426.0 201.0 -415.0 202.0 -404.0 204.0 -393.0 L76.0 -393.0 Q63.5 -500.5 63.5 -611.5 63.5 -719.0 76.0 -829.5" fill-rule="evenodd" stroke="none"/>
    </g>
    <g id="font_DFPOP3_Std_W12__11">
      <path d="M169.0 -588.0 Q160.0 -545.0 155.5 -517.0 151.5 -489.5 151.5 -477.0 151.5 -449.0 174.5 -435.0 197.5 -421.0 243.5 -421.0 263.5 -421.0 286.5 -423.5 310.0 -426.0 336.0 -432.0 323.0 -443.0 310.5 -453.0 298.5 -463.0 287.5 -473.0 277.0 -461.5 267.0 -450.5 257.0 -440.0 248.0 -429.0 L159.5 -473.0 Q175.0 -488.5 189.0 -504.5 203.5 -520.5 217.0 -537.5 204.0 -550.0 192.0 -562.5 179.5 -575.0 169.0 -588.0 M399.5 -515.0 L399.5 -617.5 Q387.0 -600.0 375.5 -583.5 363.5 -567.5 352.5 -552.0 363.5 -542.5 375.5 -533.5 387.0 -524.5 399.5 -515.0 M399.5 -449.5 L399.5 -499.5 344.0 -434.0 Q370.0 -440.5 399.5 -449.5 M298.0 -186.5 L380.0 -221.0 Q386.0 -201.0 394.0 -180.0 402.5 -159.0 411.5 -137.0 L411.5 -158.5 Q411.5 -204.0 404.0 -231.0 396.5 -258.0 382.0 -267.5 368.0 -274.0 353.5 -278.0 339.0 -281.5 323.5 -281.5 315.0 -253.0 309.0 -229.5 302.5 -205.5 298.0 -186.5 M323.5 -100.5 Q316.0 -120.5 309.5 -141.0 303.0 -161.5 297.0 -182.5 287.5 -141.0 287.5 -121.0 287.5 -108.5 291.5 -103.0 295.5 -97.0 303.0 -97.5 307.5 -97.5 313.0 -98.0 318.0 -99.0 323.5 -100.5 M683.0 -456.5 Q700.0 -457.5 717.5 -458.0 734.5 -459.0 751.5 -460.0 L751.5 -620.5 Q733.0 -620.0 716.0 -619.0 699.0 -618.0 683.0 -616.5 L683.0 -456.5 M683.0 -236.5 Q700.0 -237.5 717.5 -238.0 734.5 -239.0 751.5 -239.5 L751.5 -400.5 Q734.0 -399.5 717.0 -398.5 700.0 -398.0 683.0 -396.5 L683.0 -236.5 M683.0 -4.0 Q700.0 -5.5 717.5 -6.5 734.5 -7.5 751.5 -8.0 L751.5 -180.0 Q734.0 -179.5 717.0 -178.5 700.0 -177.5 683.0 -176.0 L683.0 -4.0 M319.5 -668.5 L399.5 -633.0 399.5 -645.0 508.0 -645.0 508.0 -581.5 Q541.5 -645.5 571.5 -707.5 601.5 -769.5 627.5 -829.5 L743.5 -769.0 Q732.5 -745.0 721.5 -722.0 710.0 -699.0 698.5 -677.0 712.0 -677.5 725.5 -678.5 738.5 -679.0 751.5 -680.0 L751.5 -809.0 892.0 -809.0 892.0 -678.0 Q915.0 -676.5 938.0 -674.0 960.5 -671.5 983.0 -668.5 L983.0 -609.5 Q960.0 -612.5 937.5 -614.5 915.0 -617.0 892.0 -618.5 L892.0 -457.5 Q912.0 -456.0 932.0 -454.0 952.0 -452.0 972.0 -449.5 L972.0 -389.0 Q952.0 -391.5 932.0 -393.5 912.0 -395.5 892.0 -397.5 L892.0 -237.5 Q912.0 -236.0 932.0 -234.0 952.0 -231.5 972.0 -229.5 L972.0 -169.0 Q952.0 -171.5 932.0 -173.5 912.0 -175.5 892.0 -177.0 L892.0 -6.0 Q915.0 -4.5 938.0 -2.5 960.5 0.0 983.0 3.0 L983.0 62.5 Q937.0 56.5 891.5 54.0 846.0 51.0 799.5 51.0 770.0 51.0 740.5 52.0 711.5 53.5 683.0 56.5 L683.0 91.0 559.0 91.0 559.0 -432.0 508.0 -464.0 508.0 -361.5 399.5 -361.5 399.5 -392.0 Q388.0 -389.0 377.0 -386.0 366.0 -383.5 355.5 -381.0 351.5 -370.0 348.5 -359.5 345.0 -349.0 342.0 -340.0 348.0 -340.0 355.0 -340.5 361.5 -341.0 367.5 -341.0 L388.0 -341.0 Q426.5 -341.0 453.5 -334.5 480.5 -327.5 495.5 -315.5 535.5 -283.0 535.5 -158.5 535.5 -108.0 533.5 -65.0 531.5 -22.5 528.5 12.5 526.0 32.5 519.5 47.5 512.5 62.5 502.0 72.5 491.0 80.5 474.0 85.0 456.5 89.5 432.0 91.0 L415.5 91.0 Q396.5 91.0 372.5 88.0 348.5 85.0 319.5 79.0 L319.5 18.5 Q336.5 24.5 351.0 27.5 366.0 30.5 380.0 30.5 392.0 30.5 399.0 24.0 405.5 17.0 406.5 4.0 406.5 -3.0 407.0 -10.5 408.0 -18.0 408.5 -26.5 L359.5 -1.0 Q354.0 -13.5 349.5 -26.0 344.5 -39.0 340.0 -51.0 320.0 -43.5 302.5 -40.0 285.0 -37.0 271.5 -37.0 245.0 -37.0 226.0 -41.5 207.0 -46.5 195.5 -57.5 172.5 -77.5 171.0 -112.5 171.0 -132.5 179.0 -171.0 187.0 -209.0 204.0 -265.0 184.0 -260.5 167.0 -256.0 164.0 -191.5 164.0 -127.0 164.0 -75.0 166.5 -22.5 169.0 30.0 175.0 83.0 L55.5 83.0 Q49.0 30.0 46.0 -22.5 43.0 -75.0 43.0 -127.0 43.0 -179.5 45.0 -232.0 46.5 -284.5 51.0 -337.0 L171.0 -337.0 Q170.5 -331.0 170.0 -325.0 170.0 -319.5 170.0 -314.5 183.0 -317.5 196.0 -320.0 209.0 -322.5 221.0 -325.5 227.5 -344.0 233.5 -362.5 227.5 -362.0 222.0 -361.5 216.5 -361.5 212.0 -361.5 166.5 -361.5 134.0 -368.5 101.0 -375.5 81.0 -390.0 61.0 -404.0 51.0 -423.5 40.5 -443.0 40.0 -469.0 40.0 -486.5 47.0 -529.0 54.0 -571.0 67.5 -637.0 L179.0 -637.0 Q177.0 -627.5 175.0 -619.0 173.5 -610.0 172.0 -602.0 L227.5 -665.5 Q239.5 -652.0 252.5 -639.0 265.5 -626.5 279.5 -614.5 290.5 -628.0 300.5 -641.5 310.5 -655.0 319.5 -668.5 M219.0 -829.5 L371.5 -829.5 371.5 -764.0 Q414.0 -762.5 456.0 -759.5 498.0 -756.5 539.5 -752.5 L539.5 -693.0 Q477.5 -699.5 415.5 -702.5 353.5 -705.5 292.0 -705.5 167.5 -705.5 43.0 -693.0 L43.0 -752.5 Q87.5 -757.0 131.5 -760.0 175.5 -762.5 219.0 -764.0 L219.0 -829.5" fill-rule="evenodd" stroke="none"/>
    </g>
    <g id="font_DFPOP3_Std_W12__12">
      <path d="M427.0 -287.5 L427.0 -393.0 596.0 -393.0 596.0 -287.5 Q682.0 -287.0 769.0 -284.5 855.5 -282.0 943.0 -277.5 L943.0 -217.0 Q855.5 -221.5 769.0 -224.5 682.0 -227.5 596.0 -228.5 L596.0 -24.5 Q687.5 -24.0 779.5 -21.0 871.5 -18.0 963.5 -13.5 L963.5 47.0 Q736.5 35.0 512.0 35.0 398.5 35.0 285.5 38.0 172.5 41.0 59.5 47.0 L59.5 -13.5 Q151.5 -18.0 243.0 -21.0 335.0 -24.0 427.0 -24.5 L427.0 -228.5 Q339.5 -227.5 252.5 -224.5 166.0 -221.5 80.0 -217.0 L80.0 -277.5 Q166.5 -282.0 253.5 -284.5 340.0 -287.0 427.0 -287.5 M512.0 -813.0 Q623.5 -813.0 735.5 -810.0 847.5 -807.0 959.5 -801.0 L959.5 -741.5 Q849.5 -747.0 740.5 -749.5 631.5 -752.5 523.5 -752.5 403.5 -648.0 280.5 -525.5 274.5 -516.0 271.0 -508.5 267.5 -501.5 267.5 -496.5 267.5 -469.0 347.0 -469.0 400.0 -469.0 500.0 -480.0 600.0 -491.0 746.5 -514.0 730.5 -546.0 715.5 -579.0 701.0 -611.5 687.0 -645.0 L831.5 -705.5 Q856.0 -646.5 890.5 -580.5 924.5 -514.5 967.5 -441.5 L823.5 -365.5 Q809.5 -389.5 796.5 -414.0 783.5 -438.0 771.0 -463.0 600.0 -436.0 475.0 -423.0 349.5 -409.5 271.5 -409.5 148.5 -409.5 121.0 -428.0 100.0 -437.0 90.0 -453.5 80.0 -470.0 80.0 -493.5 80.0 -501.5 81.5 -509.5 83.0 -518.0 86.0 -526.5 92.0 -540.0 102.5 -555.5 113.0 -570.5 127.0 -585.5 171.5 -633.5 214.5 -674.5 257.5 -715.5 299.0 -749.5 240.0 -748.0 181.0 -746.0 122.0 -744.5 63.5 -741.5 L63.5 -801.0 Q287.5 -813.0 512.0 -813.0" fill-rule="evenodd" stroke="none"/>
    </g>
    <g id="font_DFPOP3_Std_W12__13">
      <path d="M212.0 -765.0 L363.5 -749.5 Q333.5 -614.5 289.5 -476.5 245.5 -338.0 187.5 -197.5 L36.0 -237.5 Q94.0 -368.0 138.0 -499.5 182.0 -631.5 212.0 -765.0 M431.0 -833.5 L592.0 -833.5 592.0 -349.0 Q592.0 -317.0 586.0 -292.0 580.0 -267.0 569.5 -250.0 615.5 -276.0 665.5 -306.0 715.5 -336.0 769.0 -370.5 707.5 -555.0 655.5 -745.5 L804.0 -777.0 Q842.5 -648.0 886.5 -512.5 931.0 -376.5 980.0 -233.5 L831.5 -185.5 Q827.5 -195.5 824.5 -205.0 821.0 -215.0 818.0 -224.5 731.5 -169.0 657.0 -125.5 582.0 -82.0 519.0 -51.0 439.0 -13.0 341.0 24.0 243.5 60.5 128.0 95.0 L80.0 -45.0 Q185.0 -76.5 272.0 -109.5 359.0 -142.5 428.0 -177.0 448.0 -186.5 469.0 -196.5 490.5 -207.0 512.0 -219.0 499.0 -216.0 483.5 -214.5 468.5 -213.0 451.5 -213.0 388.5 -213.0 267.5 -237.5 L267.5 -297.0 Q308.0 -284.5 340.0 -279.0 372.0 -273.5 395.5 -273.5 413.0 -273.5 422.0 -285.0 431.0 -297.0 431.0 -321.5 L431.0 -833.5" fill-rule="evenodd" stroke="none"/>
    </g>
    <g id="font_DFPOP3_Std_W12_30">
      <path d="M608.5 -227.5 Q608.5 -173.0 584.5 -129.5 560.5 -86.5 513.0 -54.5 471.5 -26.5 425.0 -13.5 379.0 0.0 326.5 0.0 279.0 0.0 239.0 -12.5 199.0 -25.0 167.0 -50.0 96.5 -105.5 96.5 -197.5 96.0 -230.0 104.0 -259.0 112.0 -288.5 129.0 -314.5 L256.0 -261.0 Q243.5 -242.0 237.5 -224.0 231.5 -206.5 231.5 -189.5 231.5 -158.5 238.0 -135.0 244.5 -111.0 258.0 -94.0 271.0 -77.5 289.0 -69.5 306.5 -61.5 329.5 -61.5 392.5 -61.5 424.0 -98.5 455.5 -135.5 455.5 -211.0 455.5 -241.5 445.5 -266.5 435.5 -291.0 415.5 -310.5 398.0 -326.5 378.0 -334.5 358.0 -343.0 335.0 -343.0 319.5 -343.0 300.0 -342.0 281.0 -340.5 257.0 -339.0 L261.0 -402.5 Q307.5 -402.5 341.5 -406.5 375.5 -410.0 397.5 -418.0 434.0 -431.0 452.5 -457.0 471.0 -483.5 471.0 -523.5 471.0 -580.0 443.5 -609.0 416.5 -638.0 362.5 -638.0 249.0 -638.0 249.0 -533.5 249.0 -526.0 250.5 -518.0 252.0 -510.5 256.0 -503.0 261.5 -489.0 264.5 -482.0 267.5 -474.5 268.5 -473.0 L140.5 -421.0 Q129.5 -453.0 124.5 -475.5 119.5 -498.0 120.0 -511.0 119.5 -557.0 140.0 -593.0 160.5 -629.0 201.5 -655.5 236.5 -677.0 278.5 -688.0 321.0 -699.5 371.5 -699.5 416.0 -699.5 455.0 -689.0 493.5 -678.5 527.5 -658.5 566.0 -634.0 585.5 -600.5 605.0 -567.0 605.0 -525.5 605.0 -433.0 525.5 -375.0 608.5 -321.0 608.5 -227.5" fill-rule="evenodd" stroke="none"/>
    </g>
    <g id="font_DFPOP3_Std_W12_50">
      <path d="M626.5 -267.5 Q626.5 -209.5 603.0 -161.5 579.5 -113.0 533.5 -73.5 446.0 0.0 337.0 0.0 274.0 0.0 225.5 -14.0 177.0 -28.0 143.5 -57.5 110.5 -84.0 94.0 -122.0 78.0 -159.5 78.0 -208.0 78.0 -209.5 79.5 -222.0 81.0 -235.0 84.0 -258.0 L215.0 -248.0 Q210.5 -228.5 208.0 -211.0 206.0 -193.0 206.0 -176.0 206.0 -151.5 214.5 -131.0 222.5 -110.5 239.5 -94.0 256.5 -77.5 279.5 -69.5 303.0 -61.5 333.0 -61.5 354.5 -61.5 376.5 -71.5 398.5 -81.5 420.0 -102.5 449.0 -130.0 464.0 -169.5 479.0 -209.5 479.0 -260.0 479.0 -304.0 469.5 -338.0 460.0 -371.5 441.5 -396.5 425.0 -416.5 404.5 -427.0 384.0 -437.0 359.5 -437.0 338.5 -437.0 317.0 -430.5 295.5 -423.5 273.5 -410.5 241.0 -391.5 220.0 -364.0 198.5 -336.0 188.5 -300.0 L95.0 -314.5 146.5 -690.0 277.5 -684.0 274.5 -658.5 368.5 -658.5 Q434.5 -658.5 493.0 -660.0 551.0 -662.0 601.0 -665.5 L599.0 -602.0 582.5 -601.0 Q536.5 -598.0 483.0 -596.5 429.5 -595.0 368.5 -595.0 L266.0 -595.0 Q263.0 -575.0 259.0 -543.5 255.0 -512.0 249.0 -469.0 279.5 -483.5 311.5 -491.0 343.5 -498.5 376.0 -498.5 432.5 -498.5 478.0 -485.0 523.0 -471.0 556.0 -443.5 591.5 -412.5 609.0 -369.0 626.5 -325.0 626.5 -267.5" fill-rule="evenodd" stroke="none"/>
    </g>
    <g id="font_DFPOP3_Std_W12__14">
      <path d="M443.5 -533.5 L575.5 -437.0 Q441.0 -257.5 367.0 -147.0 293.5 -37.0 279.5 3.0 279.5 12.5 287.5 17.5 295.0 22.5 311.5 22.5 346.5 22.5 445.0 7.5 544.0 -8.0 706.5 -38.0 648.0 -139.5 583.5 -265.0 L707.5 -361.5 Q770.5 -252.5 827.5 -162.5 884.5 -72.5 936.0 -1.0 L791.5 99.5 Q778.5 80.0 765.5 59.5 752.5 39.0 739.5 17.5 552.0 49.5 433.0 66.5 314.0 83.0 263.0 83.0 187.0 83.0 149.5 55.5 111.5 28.0 111.5 -25.5 111.5 -43.0 120.5 -68.0 129.0 -92.5 147.5 -125.0 224.5 -239.5 298.5 -341.5 372.5 -443.5 443.5 -533.5 M643.0 -821.0 Q662.0 -821.0 681.5 -812.0 701.0 -803.0 721.0 -784.5 744.0 -758.0 809.5 -669.5 875.5 -580.5 983.0 -429.0 L815.0 -325.5 Q744.5 -453.0 685.5 -549.5 626.5 -645.5 579.5 -711.5 569.0 -726.5 559.0 -734.0 549.0 -741.5 539.5 -741.5 531.0 -741.5 499.0 -728.5 467.0 -715.5 411.5 -689.0 L411.5 -741.5 Q597.5 -821.0 633.0 -821.0 L643.0 -821.0 M259.0 -829.5 L403.5 -752.5 Q355.0 -643.5 301.0 -535.5 247.5 -427.5 187.5 -321.5 L40.0 -412.5 Q103.5 -521.0 158.5 -625.5 213.0 -729.5 259.0 -829.5" fill-rule="evenodd" stroke="none"/>
    </g>
    <g id="font_DFPOP3_Std_W12__15">
      <path d="M680.0 -445.5 L701.5 -445.5 Q741.5 -445.5 769.5 -437.0 798.0 -429.0 814.0 -413.5 834.0 -393.5 844.5 -345.5 855.0 -297.0 855.0 -221.0 855.0 -95.0 846.0 -9.0 838.0 40.0 806.0 64.5 789.0 74.0 763.0 79.5 737.0 85.5 701.5 87.0 L676.0 87.0 Q643.0 87.0 600.5 84.0 558.5 81.0 508.0 75.0 L508.0 15.5 Q541.5 21.0 571.5 23.5 601.5 26.5 627.5 26.5 655.5 26.5 670.0 17.5 684.5 9.0 686.0 -8.0 690.5 -46.5 693.0 -100.0 695.5 -153.5 695.5 -221.0 695.0 -282.0 689.5 -318.0 683.5 -354.5 673.0 -366.5 662.0 -376.0 650.5 -380.5 639.5 -385.0 627.5 -385.0 595.5 -384.5 562.0 -382.0 529.0 -379.5 493.5 -376.0 453.5 -250.0 413.5 -161.0 384.5 -98.0 351.5 -36.0 319.0 25.5 283.5 87.0 L131.0 43.0 Q165.0 -9.0 194.5 -61.5 224.5 -113.5 250.0 -166.0 271.5 -209.5 290.5 -255.5 310.0 -301.5 327.5 -349.0 279.5 -339.0 228.5 -327.0 177.5 -315.0 124.0 -301.0 L124.0 -361.5 Q275.0 -402.0 414.0 -423.0 553.0 -444.0 680.0 -445.5 M627.5 -801.0 L637.0 -801.0 Q669.0 -800.5 698.0 -790.5 726.5 -780.0 752.5 -760.0 787.0 -730.5 847.0 -662.0 906.5 -593.5 991.0 -485.5 L839.5 -401.5 Q784.5 -496.5 737.5 -571.5 690.5 -646.5 651.5 -700.5 633.5 -720.5 613.5 -731.0 593.5 -741.5 571.5 -741.5 528.5 -740.0 427.0 -689.0 L427.0 -749.5 Q485.5 -775.0 536.0 -788.0 586.0 -800.5 627.5 -801.0 M271.5 -809.0 L407.5 -737.5 Q357.0 -650.5 301.0 -565.5 244.5 -480.5 183.5 -397.5 L47.0 -481.5 Q112.5 -566.0 168.5 -648.0 224.5 -730.0 271.5 -809.0" fill-rule="evenodd" stroke="none"/>
    </g>
    <g id="font_DFPOP3_Std_W12__16">
      <path d="M584.5 -368.5 Q584.5 -382.5 579.5 -395.5 574.0 -408.5 563.0 -420.0 551.5 -430.5 539.0 -436.0 526.0 -441.5 512.0 -441.5 496.0 -441.5 483.0 -436.0 470.0 -431.0 460.0 -421.0 449.0 -410.0 444.0 -397.0 439.0 -384.0 439.5 -368.5 439.5 -353.5 444.5 -340.5 450.0 -328.0 461.0 -317.5 471.5 -306.0 484.0 -300.5 496.5 -295.0 512.0 -295.0 526.0 -295.0 539.0 -300.5 551.5 -306.0 563.0 -317.5 574.0 -328.0 579.5 -341.0 584.5 -354.0 584.5 -368.5 M665.5 -368.5 Q665.5 -338.0 654.0 -310.5 642.5 -283.0 619.5 -260.0 573.5 -214.0 512.0 -214.0 480.0 -214.0 452.5 -225.5 425.5 -237.0 403.5 -260.0 380.5 -282.5 369.5 -309.5 358.5 -336.5 358.5 -368.5 358.5 -434.5 401.5 -479.0 444.5 -522.0 512.0 -522.0 543.5 -522.0 570.5 -511.0 597.5 -499.5 620.5 -477.0 643.0 -454.0 654.0 -427.0 665.5 -400.0 665.5 -368.5" fill-rule="evenodd" stroke="none"/>
    </g>
  </defs>
</svg>
