<?xml version="1.0" encoding="UTF-8" standalone="no"?>
<svg xmlns:xlink="http://www.w3.org/1999/xlink" height="16.95px" width="249.95px" xmlns="http://www.w3.org/2000/svg">
  <g transform="matrix(1.0, 0.0, 0.0, 1.0, 54.7, 1.55)">
    <g transform="matrix(1.0, 0.0, 0.0, 1.0, -55.6, 0.0)">
      <use fill="#000000" height="16.95" transform="matrix(0.0146, 0.0, 0.0, 0.0146, 0.0, 13.0)" width="249.95" xlink:href="#font_DFPOP3_Std_W12__0"/>
      <use fill="#000000" height="16.95" transform="matrix(0.0146, 0.0, 0.0, 0.0146, 15.0, 13.0)" width="249.95" xlink:href="#font_DFPOP3_Std_W12__1"/>
      <use fill="#000000" height="16.95" transform="matrix(0.0146, 0.0, 0.0, 0.0146, 30.0, 13.0)" width="249.95" xlink:href="#font_DFPOP3_Std_W12__2"/>
      <use fill="#000000" height="16.95" transform="matrix(0.0146, 0.0, 0.0, 0.0146, 45.0, 13.0)" width="249.95" xlink:href="#font_DFPOP3_Std_W12__3"/>
      <use fill="#000000" height="16.95" transform="matrix(0.0146, 0.0, 0.0, 0.0146, 60.0, 13.0)" width="249.95" xlink:href="#font_DFPOP3_Std_W12__4"/>
      <use fill="#000000" height="16.95" transform="matrix(0.0146, 0.0, 0.0, 0.0146, 75.0, 13.0)" width="249.95" xlink:href="#font_DFPOP3_Std_W12__5"/>
      <use fill="#000000" height="16.95" transform="matrix(0.0146, 0.0, 0.0, 0.0146, 90.0, 13.0)" width="249.95" xlink:href="#font_DFPOP3_Std_W12__6"/>
      <use fill="#000000" height="16.95" transform="matrix(0.0146, 0.0, 0.0, 0.0146, 105.0, 13.0)" width="249.95" xlink:href="#font_DFPOP3_Std_W12__7"/>
      <use fill="#000000" height="16.95" transform="matrix(0.0146, 0.0, 0.0, 0.0146, 120.0, 13.0)" width="249.95" xlink:href="#font_DFPOP3_Std_W12__8"/>
      <use fill="#000000" height="16.95" transform="matrix(0.0146, 0.0, 0.0, 0.0146, 135.0, 13.0)" width="249.95" xlink:href="#font_DFPOP3_Std_W12__9"/>
      <use fill="#000000" height="16.95" transform="matrix(0.0146, 0.0, 0.0, 0.0146, 150.0, 13.0)" width="249.95" xlink:href="#font_DFPOP3_Std_W12__10"/>
      <use fill="#000000" height="16.95" transform="matrix(0.0146, 0.0, 0.0, 0.0146, 165.0, 13.0)" width="249.95" xlink:href="#font_DFPOP3_Std_W12__11"/>
      <use fill="#000000" height="16.95" transform="matrix(0.0146, 0.0, 0.0, 0.0146, 180.0, 13.0)" width="249.95" xlink:href="#font_DFPOP3_Std_W12__12"/>
      <use fill="#000000" height="16.95" transform="matrix(0.0146, 0.0, 0.0, 0.0146, 195.0, 13.0)" width="249.95" xlink:href="#font_DFPOP3_Std_W12__13"/>
      <use fill="#000000" height="16.95" transform="matrix(0.0146, 0.0, 0.0, 0.0146, 210.0, 13.0)" width="249.95" xlink:href="#font_DFPOP3_Std_W12__14"/>
      <use fill="#000000" height="16.95" transform="matrix(0.0146, 0.0, 0.0, 0.0146, 225.0, 13.0)" width="249.95" xlink:href="#font_DFPOP3_Std_W12__15"/>
      <use fill="#000000" height="16.95" transform="matrix(0.0146, 0.0, 0.0, 0.0146, 240.0, 13.0)" width="249.95" xlink:href="#font_DFPOP3_Std_W12__16"/>
    </g>
  </g>
  <defs>
    <g id="font_DFPOP3_Std_W12__0">
      <path d="M867.5 -789.5 Q887.0 -789.5 905.0 -783.0 923.0 -776.5 940.0 -764.0 955.5 -748.5 963.5 -729.0 971.5 -709.5 972.0 -685.0 971.5 -662.0 962.5 -643.0 953.5 -623.5 936.0 -608.5 919.0 -594.5 901.5 -588.0 884.5 -581.5 867.5 -581.5 844.5 -581.5 825.0 -590.5 805.5 -599.0 789.5 -617.5 776.5 -633.0 770.0 -649.5 764.0 -666.5 764.0 -685.0 764.0 -706.0 769.5 -723.5 775.0 -741.5 787.5 -756.5 803.0 -773.0 823.0 -781.0 843.0 -789.5 867.5 -789.5 M515.0 -817.0 L531.5 -752.5 Q490.0 -740.5 452.0 -731.0 414.5 -722.0 380.0 -716.0 L380.0 -536.5 Q413.0 -536.5 446.0 -537.0 479.5 -537.5 513.0 -537.5 536.0 -537.5 559.5 -537.0 583.5 -536.5 607.0 -536.5 592.0 -596.5 578.0 -658.0 564.0 -719.0 552.0 -781.5 L699.5 -829.5 Q716.5 -750.5 734.5 -676.5 753.0 -602.5 773.0 -533.5 821.5 -532.0 870.0 -530.0 918.5 -527.5 967.5 -525.5 L967.5 -465.0 Q923.0 -467.0 878.5 -469.0 834.5 -470.5 790.5 -472.0 796.5 -448.0 803.5 -425.5 810.5 -402.5 818.0 -381.0 819.0 -377.0 820.0 -374.0 821.0 -370.5 822.5 -367.5 833.0 -380.5 843.0 -394.0 853.5 -407.0 863.0 -421.0 L991.0 -328.5 Q966.0 -295.0 939.0 -261.0 912.5 -227.0 884.5 -191.5 906.0 -134.5 929.0 -80.0 951.5 -25.5 976.0 26.5 L823.5 102.5 Q807.0 65.5 792.5 29.5 777.5 -7.0 764.0 -43.0 736.5 -10.5 708.5 23.0 680.5 56.5 651.5 91.0 L523.5 -9.0 Q569.5 -60.0 614.0 -111.0 658.5 -162.0 701.5 -213.0 690.0 -245.5 679.5 -278.0 668.5 -310.5 659.5 -343.0 649.5 -376.0 640.5 -409.0 631.0 -442.5 622.5 -476.0 595.0 -476.0 567.5 -476.5 540.0 -477.0 513.0 -477.0 479.5 -477.0 446.0 -476.5 413.0 -476.0 380.0 -476.0 L380.0 -249.0 Q412.0 -268.0 448.0 -291.0 484.0 -314.0 523.5 -341.0 L555.0 -284.5 Q506.0 -251.0 462.0 -222.5 418.5 -194.5 380.0 -173.0 L380.0 99.5 219.0 99.5 219.0 -95.0 Q185.5 -81.5 150.0 -69.0 114.0 -56.5 76.0 -45.0 L55.5 -105.5 Q102.0 -120.0 143.0 -135.0 184.0 -149.5 219.0 -165.0 L219.0 -472.0 Q178.5 -470.5 138.5 -468.5 98.5 -466.5 59.5 -465.0 L59.5 -525.5 Q99.5 -527.0 139.5 -529.0 179.0 -531.0 219.0 -532.5 L219.0 -695.5 Q185.5 -692.0 150.0 -690.5 114.0 -689.0 76.0 -689.0 L76.0 -741.5 Q147.0 -743.0 204.0 -747.5 261.0 -752.5 304.0 -761.0 351.0 -767.5 404.0 -781.5 456.5 -795.5 515.0 -817.0" fill-rule="evenodd" stroke="none"/>
    </g>
    <g id="font_DFPOP3_Std_W12__1">
      <path d="M272.5 -116.5 Q334.0 -120.5 396.0 -123.0 457.5 -125.0 519.0 -125.0 625.0 -125.0 731.0 -119.0 L731.0 -125.0 Q731.0 -155.0 720.0 -170.0 708.5 -185.5 687.0 -185.5 600.5 -183.0 497.5 -174.5 394.0 -166.5 274.5 -152.5 273.5 -143.5 273.0 -134.5 272.5 -125.0 272.5 -116.5 M273.5 3.0 Q344.0 -1.0 414.0 -3.0 484.0 -5.0 554.0 -5.0 598.5 -5.0 642.5 -4.5 686.5 -3.5 731.0 -2.0 L731.0 -59.5 Q623.5 -65.5 519.0 -65.5 456.5 -65.5 394.5 -63.5 332.5 -61.0 271.5 -57.5 271.5 -42.0 271.5 -27.0 272.0 -11.5 273.5 3.0 M139.5 -237.5 L283.5 -237.5 Q280.5 -223.5 280.5 -213.0 423.5 -228.5 528.5 -236.5 634.0 -244.5 701.5 -244.5 L727.0 -244.5 Q771.5 -244.5 803.5 -237.0 835.5 -229.5 854.0 -214.0 872.5 -198.5 882.0 -177.5 892.0 -156.0 892.0 -129.0 L892.0 7.0 Q893.5 7.0 894.5 7.0 895.5 7.0 896.0 7.0 L896.0 66.5 Q810.0 60.5 724.5 58.0 639.0 55.0 554.0 55.5 485.0 55.5 416.5 57.0 347.5 58.5 278.5 62.5 279.5 71.5 280.5 81.0 282.0 90.0 283.5 99.5 L139.5 99.5 Q133.0 57.0 130.5 15.0 128.0 -26.5 128.0 -69.5 128.0 -111.0 130.5 -153.0 133.0 -195.5 139.5 -237.5 M314.5 -684.0 Q364.5 -688.5 414.5 -691.0 464.5 -693.0 515.0 -693.0 564.0 -693.0 612.5 -691.0 661.0 -689.0 708.5 -685.0 699.5 -697.5 691.5 -709.5 683.5 -721.5 676.0 -733.0 642.0 -773.0 599.0 -773.0 557.5 -772.5 493.0 -760.0 428.5 -747.5 341.0 -723.0 334.0 -713.0 327.5 -703.0 320.5 -693.5 314.5 -684.0 M256.0 -540.5 Q411.0 -557.0 525.0 -565.0 639.0 -573.5 711.5 -573.5 L739.5 -573.5 Q751.0 -573.5 761.0 -573.0 771.0 -572.0 780.5 -571.5 772.5 -584.5 765.0 -597.5 757.0 -610.5 749.5 -622.5 690.5 -627.5 632.0 -630.0 573.5 -633.0 515.0 -633.0 455.0 -633.0 395.5 -630.0 335.5 -627.0 275.5 -621.5 L275.5 -628.5 Q263.0 -612.0 251.0 -595.0 239.0 -578.0 227.5 -561.0 L259.0 -561.0 Q257.5 -555.5 257.0 -550.5 256.0 -545.5 256.0 -540.5 M694.5 -359.5 Q705.0 -358.5 716.0 -358.0 726.5 -357.5 737.5 -357.5 742.0 -387.5 744.5 -413.5 747.5 -439.5 747.5 -461.0 747.5 -487.0 736.5 -500.0 725.0 -513.0 703.5 -513.0 639.0 -510.0 571.5 -507.0 L571.5 -361.5 579.5 -361.5 Q592.0 -393.0 602.0 -425.0 612.0 -457.0 619.5 -489.5 L739.5 -477.0 Q731.0 -448.0 719.5 -418.5 708.0 -388.5 694.5 -359.5 M250.0 -352.5 Q262.0 -352.5 274.0 -353.0 285.5 -353.5 297.0 -354.5 288.0 -382.0 280.5 -408.5 273.5 -435.0 267.5 -461.0 L387.0 -485.5 Q402.5 -421.0 424.0 -359.5 428.5 -359.5 432.5 -360.0 436.0 -360.5 439.5 -360.5 L439.5 -497.5 Q394.0 -493.0 346.5 -488.5 299.0 -484.0 250.0 -479.0 248.5 -461.5 248.0 -444.5 247.5 -428.0 248.0 -411.5 247.5 -396.5 248.0 -381.5 248.5 -367.0 250.0 -352.5 M239.5 -845.0 L331.0 -780.5 Q423.5 -806.5 505.0 -819.5 586.0 -833.0 655.5 -833.5 L664.5 -833.5 Q695.5 -833.5 723.0 -823.0 750.5 -812.5 775.0 -792.5 808.0 -765.0 865.0 -698.0 922.0 -631.5 1003.5 -525.5 L892.0 -462.0 Q892.0 -435.5 889.0 -408.0 886.0 -380.0 880.5 -350.0 884.5 -349.5 888.5 -349.5 892.0 -349.0 896.0 -349.0 L896.0 -289.0 Q807.5 -295.0 719.5 -298.0 631.5 -301.0 543.5 -301.0 471.5 -301.0 399.5 -299.0 327.0 -296.5 255.0 -293.0 255.5 -284.5 256.5 -276.5 257.5 -269.0 259.0 -261.0 L128.0 -261.0 Q115.5 -335.0 115.5 -411.5 115.5 -427.5 116.0 -444.0 116.5 -460.5 118.0 -477.0 L27.5 -549.0 Q86.0 -622.5 139.0 -697.0 192.0 -771.0 239.5 -845.0" fill-rule="evenodd" stroke="none"/>
    </g>
    <g id="font_DFPOP3_Std_W12__2">
      <path d="M168.0 -796.5 Q186.5 -796.5 204.0 -790.5 221.5 -784.5 237.5 -773.0 252.0 -758.5 259.5 -739.5 267.0 -720.5 267.5 -697.5 267.5 -653.0 233.5 -623.5 216.5 -610.0 200.5 -603.5 184.0 -597.0 168.0 -597.0 145.5 -597.0 126.5 -605.5 107.5 -614.0 92.0 -632.0 80.0 -647.0 73.5 -663.5 67.5 -679.5 67.5 -697.5 67.5 -717.0 73.0 -734.5 78.5 -751.5 90.0 -767.0 105.5 -781.5 125.0 -789.0 145.0 -796.5 168.0 -796.5 M559.0 -268.5 Q577.0 -268.5 594.5 -269.0 612.0 -269.0 630.0 -269.5 646.5 -269.0 663.0 -269.0 679.0 -268.5 695.5 -268.5 L695.5 -360.5 Q678.5 -360.5 663.0 -361.0 647.0 -361.5 632.0 -361.5 613.5 -361.5 595.0 -361.0 577.0 -360.5 559.0 -360.5 L559.0 -268.5 M487.5 -70.5 Q490.5 -70.0 493.5 -69.0 496.5 -68.5 499.5 -68.5 559.5 -59.5 629.5 -52.5 699.0 -45.5 778.0 -41.0 756.5 -74.0 737.0 -109.0 717.0 -144.5 699.5 -181.0 L761.0 -207.0 Q727.0 -207.5 694.5 -208.5 662.0 -209.0 630.0 -209.0 595.0 -209.0 561.5 -208.5 527.5 -207.5 494.5 -207.0 L559.0 -173.0 Q542.0 -147.0 524.5 -121.0 506.5 -95.5 487.5 -70.5 M632.0 -421.0 Q648.0 -421.0 664.0 -420.5 680.0 -420.0 695.5 -420.0 L695.5 -473.0 839.5 -473.0 839.5 -415.5 Q864.5 -414.0 889.5 -412.5 914.5 -411.0 939.0 -409.5 L939.0 -349.0 Q913.5 -350.5 889.0 -352.5 864.0 -354.0 839.5 -355.5 L839.5 -264.0 Q869.5 -262.5 899.5 -261.0 929.5 -259.5 959.5 -257.0 L959.5 -197.5 Q926.5 -200.0 894.5 -201.5 862.0 -203.5 831.5 -205.0 847.5 -180.5 867.5 -154.5 887.5 -129.0 911.5 -101.5 L796.5 -40.0 Q841.0 -37.5 888.0 -36.0 934.5 -34.5 983.0 -33.0 L976.0 91.0 Q861.5 89.0 758.0 83.5 654.5 78.5 562.0 70.5 489.0 63.5 408.5 52.5 328.0 41.0 239.5 25.5 L219.0 22.5 Q215.5 22.5 198.5 40.5 181.5 58.5 151.5 95.0 L40.0 -9.0 Q61.5 -22.0 84.5 -37.0 107.0 -51.5 131.0 -68.5 L131.0 -441.5 Q131.0 -457.0 126.0 -465.0 121.0 -473.0 111.5 -473.0 99.5 -471.5 84.0 -468.5 69.0 -465.5 51.0 -461.0 L51.0 -521.0 Q82.0 -527.5 114.0 -530.5 146.0 -533.5 179.0 -533.5 225.5 -533.5 248.5 -512.5 271.5 -491.0 271.5 -449.5 L271.5 -110.5 Q325.0 -95.0 406.5 -83.0 L351.0 -116.5 Q374.5 -139.5 394.0 -161.5 414.0 -183.5 431.0 -205.0 398.0 -203.0 365.0 -201.0 332.0 -199.0 299.0 -197.5 L299.0 -257.0 Q328.0 -258.5 357.5 -260.5 386.5 -262.5 415.5 -264.0 L415.5 -355.5 Q369.5 -352.5 323.5 -349.0 L323.5 -409.5 Q346.5 -411.0 369.5 -412.0 392.5 -413.0 415.5 -414.5 L415.5 -469.0 559.0 -469.0 559.0 -420.0 Q577.5 -420.0 595.5 -420.5 613.5 -421.0 632.0 -421.0 M771.0 -768.0 L771.0 -682.0 Q785.0 -683.5 799.0 -684.5 813.5 -685.0 827.5 -685.0 829.0 -699.5 830.0 -712.5 831.5 -726.0 831.5 -737.5 831.5 -752.5 822.5 -761.0 813.5 -769.0 795.5 -769.0 789.5 -769.0 783.5 -768.5 777.0 -768.0 771.0 -768.0 M839.5 -829.5 Q872.0 -829.5 895.5 -823.5 919.0 -817.0 933.0 -805.0 946.0 -793.5 952.5 -777.5 959.5 -761.5 959.5 -741.5 959.5 -726.0 958.0 -709.5 956.5 -693.0 954.5 -675.0 957.5 -674.0 961.0 -673.5 964.5 -673.0 967.5 -673.0 L967.5 -613.5 Q934.0 -619.0 901.0 -621.5 868.0 -624.5 835.5 -624.5 802.0 -624.5 771.0 -621.5 L771.0 -561.0 Q771.0 -552.5 784.0 -548.5 797.0 -544.5 823.5 -545.0 842.5 -545.0 879.5 -548.0 916.5 -551.0 972.0 -557.0 L972.0 -496.5 Q904.0 -490.5 860.0 -488.0 815.5 -485.5 795.5 -485.5 L765.0 -485.5 Q706.0 -485.5 676.5 -509.5 647.0 -533.5 647.0 -581.5 L647.0 -753.5 Q641.0 -752.0 635.0 -751.0 629.0 -750.5 623.5 -749.5 L623.5 -809.0 Q694.0 -819.0 745.0 -824.0 796.0 -829.5 828.5 -829.5 L839.5 -829.5 M427.0 -768.0 L427.0 -682.0 Q441.0 -683.5 454.0 -684.5 467.5 -685.0 481.5 -685.0 484.5 -701.0 486.0 -715.0 487.5 -729.0 487.5 -741.5 487.5 -755.0 479.0 -762.0 471.0 -769.0 455.5 -769.0 448.0 -769.0 441.0 -768.5 434.0 -768.0 427.0 -768.0 M499.5 -829.5 Q530.5 -829.5 553.0 -823.5 576.0 -817.5 590.0 -807.0 602.0 -795.5 609.0 -780.0 615.5 -764.5 615.5 -745.5 615.5 -729.5 613.5 -711.5 611.5 -694.0 608.5 -675.0 612.0 -674.0 616.0 -673.5 620.0 -673.0 623.5 -673.0 L623.5 -613.5 Q590.0 -619.0 556.0 -621.5 522.5 -624.5 489.5 -624.5 474.0 -624.5 458.0 -624.0 442.5 -623.5 427.0 -622.5 L427.0 -569.5 Q427.0 -558.5 441.0 -553.5 455.0 -549.0 483.5 -549.0 502.5 -549.0 539.5 -552.0 576.5 -555.0 632.0 -561.0 L632.0 -500.5 Q562.5 -494.5 517.5 -492.0 472.5 -489.5 451.5 -489.5 L422.0 -489.5 Q364.5 -489.5 335.5 -513.5 307.0 -537.0 307.0 -584.5 L307.0 -753.5 Q301.0 -752.0 295.0 -751.0 289.0 -750.5 283.5 -749.5 L283.5 -809.0 Q354.0 -819.0 405.0 -824.0 456.5 -829.5 488.5 -829.5 L499.5 -829.5" fill-rule="evenodd" stroke="none"/>
    </g>
    <g id="font_DFPOP3_Std_W12__3">
      <path d="M604.0 -208.0 Q617.0 -208.0 630.0 -208.5 643.0 -209.0 655.5 -209.0 681.5 -209.0 707.5 -208.5 733.5 -207.5 760.0 -207.0 768.5 -233.5 773.5 -257.5 779.0 -281.5 781.5 -303.0 753.5 -304.0 726.0 -304.5 698.5 -305.0 671.5 -305.0 649.5 -305.0 628.0 -304.5 606.5 -304.0 585.5 -304.0 L604.0 -208.0 M596.0 -484.5 L596.0 -525.5 735.0 -525.5 735.0 -484.5 Q790.5 -483.0 845.5 -480.5 900.0 -477.5 955.5 -473.0 L955.5 -412.5 Q900.0 -417.5 845.0 -420.0 790.0 -423.0 735.0 -424.0 L735.0 -364.5 Q796.5 -363.0 857.5 -360.5 918.5 -358.0 980.0 -353.5 L980.0 -293.0 Q962.5 -294.5 944.5 -295.5 927.0 -296.5 909.5 -298.0 907.5 -272.5 903.5 -248.0 899.0 -223.5 892.0 -199.5 901.0 -199.0 910.0 -198.5 919.5 -197.5 927.5 -197.5 L927.5 -137.0 Q878.0 -142.0 828.5 -144.5 779.5 -147.0 731.0 -148.5 L731.0 -80.0 Q794.0 -79.0 857.0 -76.5 920.0 -74.0 983.0 -69.5 L983.0 -9.0 Q920.0 -14.0 857.0 -16.5 794.0 -19.0 731.0 -20.5 L731.0 91.0 592.0 91.0 592.0 -20.5 Q529.0 -19.0 466.5 -16.5 404.5 -14.0 343.0 -9.0 L343.0 -69.5 Q406.0 -74.0 468.0 -76.5 530.5 -79.0 592.0 -80.0 L592.0 -148.5 Q539.5 -147.0 487.5 -144.5 435.5 -142.0 384.0 -137.0 L384.0 -197.5 Q407.0 -199.0 430.5 -200.5 454.0 -202.0 477.0 -204.0 L459.0 -299.0 Q409.5 -296.0 363.5 -293.0 L363.5 -353.5 Q422.0 -358.0 479.5 -360.5 537.5 -363.0 596.0 -364.5 L596.0 -424.0 Q547.0 -422.5 497.5 -419.5 448.5 -416.5 399.5 -412.5 L399.5 -473.0 Q448.5 -477.5 497.5 -480.5 547.0 -483.0 596.0 -484.5 M783.5 -612.5 Q795.5 -611.5 807.5 -611.0 819.5 -610.5 831.5 -610.5 833.0 -632.5 834.5 -652.5 835.5 -672.0 835.5 -689.0 835.5 -744.5 783.5 -756.5 L783.5 -612.5 M636.0 -612.5 Q645.0 -612.5 654.0 -613.0 662.5 -613.5 671.5 -613.5 L671.5 -756.5 Q662.5 -756.0 654.0 -755.5 645.0 -754.5 636.0 -754.5 L636.0 -612.5 M481.5 -605.0 Q492.0 -606.0 502.5 -606.5 512.5 -607.0 523.5 -607.0 L523.5 -742.5 Q512.5 -741.0 502.5 -740.0 492.5 -739.0 482.5 -737.5 481.0 -719.0 480.0 -700.5 479.0 -682.5 479.0 -665.5 479.0 -650.0 479.5 -635.0 480.0 -620.0 481.5 -605.0 M367.5 -813.0 L491.5 -813.0 Q490.5 -808.5 490.0 -804.5 489.5 -801.0 489.5 -797.5 583.0 -809.0 653.0 -815.0 723.0 -821.0 769.0 -821.0 L787.5 -821.0 Q835.0 -821.0 869.5 -812.5 903.5 -803.5 923.5 -786.5 943.5 -769.5 953.5 -746.0 963.5 -722.5 963.5 -693.0 963.5 -672.0 962.0 -649.0 961.0 -626.5 958.5 -602.0 961.0 -601.5 963.0 -601.0 965.5 -601.0 967.5 -601.0 L967.5 -540.5 Q900.0 -547.0 833.0 -550.0 766.0 -553.0 699.5 -553.0 645.5 -553.0 592.5 -551.0 539.5 -548.5 487.5 -545.0 488.0 -537.0 489.0 -530.0 490.0 -523.5 491.5 -517.0 L367.5 -517.0 Q361.5 -554.0 358.5 -591.0 355.5 -628.0 355.5 -665.5 355.5 -739.5 367.5 -813.0 M151.5 -655.5 L151.5 -829.5 287.5 -829.5 287.5 -652.5 Q301.5 -651.0 315.5 -649.0 329.0 -647.5 343.0 -645.0 L343.0 -584.5 Q328.5 -587.0 314.5 -588.5 301.0 -590.5 287.5 -592.0 L287.5 -483.5 Q292.5 -488.0 297.5 -492.0 302.5 -496.0 307.0 -500.5 L395.5 -409.5 Q370.5 -386.5 344.0 -364.0 317.0 -341.5 287.5 -318.5 L287.5 -37.0 Q287.5 24.5 266.0 58.5 238.5 95.0 155.5 95.0 140.5 95.0 118.5 92.0 96.5 89.0 67.5 83.0 L67.5 22.5 Q92.0 35.0 107.5 35.0 129.0 35.0 140.5 25.5 151.5 16.5 151.5 -1.0 L151.5 -216.0 Q140.0 -207.5 129.0 -200.0 118.0 -192.5 107.5 -185.5 L23.5 -281.5 Q57.5 -304.0 89.0 -327.0 121.0 -349.5 151.5 -372.5 L151.5 -595.0 Q127.5 -593.5 104.5 -591.0 81.5 -588.5 59.5 -584.5 L59.5 -645.0 Q82.5 -649.0 105.5 -651.5 128.5 -654.0 151.5 -655.5" fill-rule="evenodd" stroke="none"/>
    </g>
    <g id="font_DFPOP3_Std_W12__4">
      <path d="M439.5 -385.0 L460.0 -385.0 Q517.5 -422.0 546.5 -446.5 575.5 -471.5 575.5 -485.5 575.5 -487.0 568.5 -488.0 561.5 -489.5 548.0 -489.5 478.0 -485.0 406.0 -477.5 333.5 -470.0 259.0 -461.0 L243.5 -525.5 Q359.0 -540.5 453.0 -549.0 547.5 -557.0 619.5 -557.0 684.0 -556.5 717.0 -537.0 750.0 -518.0 751.5 -481.5 751.5 -452.0 717.0 -408.0 682.5 -363.5 613.5 -305.0 613.5 -298.0 614.0 -292.0 614.5 -286.0 615.5 -280.5 702.0 -279.0 789.0 -276.5 876.0 -274.0 963.5 -269.5 L963.5 -200.5 Q877.0 -205.0 790.5 -208.0 704.5 -210.5 618.5 -212.0 618.5 -193.5 619.0 -176.0 619.5 -158.0 619.5 -141.5 619.5 -35.5 613.5 21.5 610.5 47.5 601.0 63.0 592.0 78.5 577.5 84.0 567.5 91.5 544.0 95.5 520.0 99.5 483.5 99.5 416.0 99.5 342.0 90.0 268.0 81.0 187.5 62.5 L187.5 -13.5 Q246.0 4.5 295.0 13.5 344.0 22.5 384.0 22.5 402.5 22.5 414.0 19.5 426.0 16.5 432.0 11.5 436.5 8.5 440.0 0.5 443.0 -7.5 445.5 -21.5 451.5 -72.0 451.5 -141.5 451.5 -157.5 451.0 -175.0 450.5 -193.0 449.5 -213.0 253.0 -210.0 59.5 -200.5 L59.5 -269.5 Q253.0 -278.5 446.5 -281.5 445.0 -305.5 443.5 -331.5 441.5 -357.5 439.5 -385.0 M431.0 -829.5 L603.0 -829.5 603.0 -732.0 Q614.0 -732.0 624.0 -732.5 634.0 -733.0 643.0 -733.0 L658.5 -733.0 Q741.5 -733.0 800.5 -725.0 859.5 -717.0 895.0 -701.5 972.0 -664.5 972.0 -581.5 968.5 -529.5 958.5 -482.0 948.5 -435.0 932.0 -393.0 L764.0 -393.0 Q784.0 -447.0 795.0 -494.0 805.5 -541.0 808.0 -581.5 808.0 -641.5 752.5 -655.5 726.5 -661.5 690.5 -665.0 654.0 -668.5 607.0 -668.5 534.5 -668.5 435.0 -659.5 336.0 -650.0 210.0 -632.0 208.5 -615.0 208.0 -599.0 208.0 -582.5 208.0 -567.5 208.0 -523.5 211.5 -480.0 215.5 -436.5 223.0 -393.0 L63.5 -393.0 Q55.0 -436.5 51.0 -480.0 47.0 -523.5 47.0 -567.5 47.0 -610.5 51.0 -654.0 55.0 -697.5 63.5 -741.5 L223.0 -741.5 Q221.0 -729.0 219.5 -717.5 217.5 -706.0 216.0 -695.5 275.0 -704.0 329.0 -710.5 382.5 -717.5 431.0 -722.0 L431.0 -829.5" fill-rule="evenodd" stroke="none"/>
    </g>
    <g id="font_DFPOP3_Std_W12__5">
      <path d="M311.5 -520.0 Q318.0 -520.5 324.5 -520.5 331.0 -521.0 337.0 -521.0 337.5 -546.0 338.5 -569.0 339.5 -592.0 341.0 -613.5 L332.0 -613.5 Q326.5 -613.5 321.0 -612.5 316.0 -612.0 311.5 -611.5 L311.5 -520.0 M199.5 -505.0 Q204.5 -505.5 209.5 -506.5 214.5 -507.0 219.0 -508.0 L219.0 -705.5 311.5 -705.5 311.5 -671.5 Q316.5 -672.0 322.0 -672.5 327.0 -672.5 332.0 -673.0 L342.0 -673.0 Q342.0 -686.5 342.5 -699.5 343.0 -712.5 343.0 -725.0 343.0 -746.5 326.0 -758.0 309.0 -769.0 275.5 -769.0 257.0 -767.5 237.0 -763.0 217.0 -758.5 195.5 -751.5 193.5 -725.5 192.5 -699.5 191.5 -674.0 191.5 -649.0 191.5 -612.5 193.5 -576.5 195.0 -540.0 199.5 -505.0 M616.5 -175.0 Q653.5 -178.0 689.5 -179.5 726.0 -181.0 762.0 -181.0 775.5 -181.0 790.0 -180.5 804.5 -180.5 819.0 -180.0 821.0 -203.5 822.0 -220.5 823.0 -238.0 823.5 -249.0 823.5 -272.0 771.0 -273.5 739.5 -272.0 701.0 -266.5 663.0 -261.0 617.5 -251.0 616.0 -240.0 615.5 -230.0 615.5 -220.0 615.5 -211.0 615.5 -201.5 615.5 -192.5 615.5 -183.5 616.5 -175.0 M508.0 -333.0 L627.5 -333.0 Q626.0 -326.5 625.5 -321.0 624.5 -315.0 623.5 -310.5 678.0 -320.0 731.0 -326.0 784.0 -331.5 835.5 -333.0 893.0 -332.5 922.0 -311.5 951.5 -290.5 951.5 -249.0 951.5 -238.0 950.0 -219.0 948.5 -199.5 946.0 -171.0 951.5 -170.0 957.0 -169.5 962.5 -169.0 967.5 -169.0 L967.5 -109.5 Q915.5 -115.0 864.0 -118.0 812.5 -121.0 762.0 -121.0 726.5 -121.0 692.0 -119.5 657.5 -118.0 623.5 -115.5 623.5 -105.0 626.5 -97.5 640.5 -96.5 653.0 -92.0 665.5 -87.5 677.0 -79.0 687.5 -68.0 693.5 -53.5 699.5 -39.0 699.5 -21.5 699.5 -8.0 695.5 3.0 691.5 13.5 684.0 22.5 L718.0 22.5 Q730.0 22.5 742.0 22.5 753.5 23.0 765.0 23.5 775.5 -2.5 785.5 -33.0 795.5 -63.5 804.0 -97.5 L936.0 -85.0 Q926.0 -53.0 913.5 -25.0 901.0 3.0 886.0 27.5 909.0 29.0 931.0 31.0 953.5 32.5 976.0 35.0 L976.0 95.0 Q847.0 83.0 718.0 83.0 589.0 83.0 460.0 95.0 L460.0 35.0 Q486.0 32.0 512.5 30.0 539.0 28.0 565.0 26.5 556.0 14.5 552.0 2.5 548.0 -9.5 548.0 -21.5 548.0 -37.0 552.0 -50.0 556.0 -63.0 564.0 -73.5 569.5 -78.5 575.0 -82.0 580.5 -86.0 587.0 -89.0 L508.0 -89.0 Q502.0 -119.5 498.5 -150.0 495.5 -180.5 495.5 -211.0 495.5 -241.5 498.5 -272.0 502.0 -302.0 508.0 -333.0 M237.5 -397.5 Q262.0 -404.0 283.5 -408.0 305.0 -412.0 322.5 -412.5 L343.0 -412.5 Q355.5 -412.5 366.0 -409.5 376.5 -407.0 384.0 -401.5 384.0 -419.0 379.5 -430.5 375.5 -442.0 367.5 -447.5 355.5 -453.5 341.5 -457.0 327.5 -460.5 311.5 -461.0 277.5 -461.0 233.0 -453.0 188.0 -445.5 132.0 -430.0 L132.0 -417.0 239.5 -417.0 Q239.0 -411.5 238.0 -406.5 237.5 -402.0 237.5 -397.5 M226.5 -259.0 Q238.0 -260.0 249.5 -260.5 261.0 -261.0 273.5 -261.0 284.0 -261.0 295.5 -260.5 307.0 -260.0 318.5 -259.0 317.0 -283.5 315.0 -301.5 313.0 -319.5 311.5 -331.0 308.0 -340.0 303.0 -345.5 297.5 -351.0 290.0 -353.5 L282.5 -353.5 Q272.5 -352.0 259.5 -348.5 247.0 -345.5 231.5 -340.0 229.0 -318.5 227.5 -298.5 226.5 -278.0 226.5 -259.0 M224.5 -114.5 Q236.5 -115.5 249.0 -116.0 261.0 -116.5 273.5 -116.5 285.0 -116.5 296.5 -116.0 307.5 -115.5 318.5 -114.5 318.5 -130.0 319.0 -145.0 319.5 -160.0 319.5 -175.0 L319.5 -198.5 Q307.0 -199.5 295.5 -200.0 284.0 -200.5 273.5 -200.5 261.0 -200.5 249.0 -200.0 236.5 -199.5 224.5 -198.5 223.5 -189.5 223.5 -180.5 223.0 -171.5 223.0 -163.0 223.0 -150.5 223.5 -138.5 223.5 -126.0 224.5 -114.5 M709.5 -433.0 Q772.5 -433.0 836.0 -430.0 900.0 -427.0 963.5 -421.0 L963.5 -361.5 Q900.0 -367.0 836.0 -370.0 772.5 -372.5 709.5 -372.5 654.5 -372.5 600.0 -370.5 545.5 -368.5 491.5 -364.5 489.0 -347.5 485.0 -331.0 481.0 -314.0 475.0 -297.0 L422.0 -297.0 Q424.0 -272.5 425.5 -242.0 427.0 -211.0 427.0 -175.0 427.0 -129.0 425.0 -81.5 422.5 -34.0 419.0 14.5 413.5 50.5 393.5 68.5 374.0 87.0 340.0 87.0 L271.5 87.0 271.5 26.5 287.5 26.5 Q301.0 24.5 307.5 12.0 314.5 0.0 315.5 -21.5 315.5 -30.0 316.0 -38.5 316.5 -47.0 316.5 -55.5 305.5 -56.0 295.0 -56.5 284.0 -57.5 273.5 -57.5 261.0 -57.5 249.0 -56.5 237.0 -56.0 225.5 -55.5 226.0 -17.5 227.5 18.5 229.0 55.0 231.5 91.0 L120.0 91.0 Q115.5 27.5 113.5 -36.0 111.5 -99.0 111.5 -163.0 111.5 -193.5 112.5 -223.5 113.5 -254.0 115.5 -284.5 L43.0 -284.5 Q37.0 -312.5 34.5 -340.5 31.5 -369.0 31.5 -397.5 31.5 -425.0 34.5 -453.0 37.0 -481.0 43.0 -509.0 L98.5 -509.0 Q94.5 -544.5 93.0 -579.5 91.0 -614.5 91.0 -649.0 91.0 -694.0 94.0 -739.0 97.5 -784.0 103.5 -829.5 L204.0 -829.5 Q203.0 -824.0 202.5 -819.5 202.0 -815.0 201.5 -811.0 269.5 -829.5 306.0 -829.5 L315.5 -829.5 Q352.0 -829.5 378.5 -822.5 405.0 -815.5 421.0 -802.0 436.0 -788.0 444.0 -770.0 451.5 -752.0 451.5 -729.0 451.5 -680.0 449.5 -625.0 447.5 -570.5 444.5 -509.0 446.5 -507.5 449.0 -506.5 451.5 -505.5 454.5 -504.0 491.5 -482.5 494.5 -424.0 602.0 -433.0 709.5 -433.0 M831.5 -717.0 L831.5 -661.5 Q839.0 -660.5 847.5 -660.0 855.5 -659.5 863.0 -659.5 L863.0 -681.0 Q863.0 -695.0 855.0 -704.0 847.0 -713.0 831.5 -717.0 M707.5 -713.5 L707.5 -665.5 743.5 -665.5 743.5 -717.0 Q734.0 -716.0 725.0 -715.5 716.0 -714.5 707.5 -713.5 M589.0 -659.5 Q596.5 -659.5 604.0 -660.0 612.0 -660.5 619.5 -661.5 L619.5 -702.5 Q612.0 -701.0 605.0 -700.0 597.5 -699.0 591.0 -698.5 589.5 -687.5 589.0 -678.0 588.5 -668.5 589.0 -659.5 M831.5 -601.0 L831.5 -547.0 Q837.5 -547.0 844.0 -546.5 850.0 -546.0 856.0 -546.0 857.5 -560.5 858.5 -573.5 859.5 -587.0 860.0 -599.0 852.5 -599.0 845.0 -599.5 837.5 -600.5 831.5 -601.0 M707.5 -605.0 L707.5 -548.0 Q716.5 -548.0 725.5 -548.5 734.5 -549.0 743.5 -549.0 L743.5 -605.0 707.5 -605.0 M591.0 -542.5 Q598.5 -543.0 605.5 -543.5 612.5 -544.0 619.5 -545.0 L619.5 -601.0 Q610.5 -600.5 602.5 -599.5 594.5 -599.0 588.0 -599.0 588.0 -584.5 588.5 -570.5 589.5 -556.5 591.0 -542.5 M491.5 -785.5 L599.0 -785.5 Q597.5 -778.5 596.5 -771.5 596.0 -765.0 596.0 -759.0 602.0 -759.5 607.5 -760.5 613.5 -761.0 619.5 -762.0 L619.5 -833.5 707.5 -833.5 707.5 -774.0 Q717.0 -775.0 726.0 -775.5 735.0 -776.5 743.5 -777.0 L743.5 -833.5 831.5 -833.5 831.5 -781.5 Q867.0 -781.5 892.5 -774.5 918.5 -768.0 934.0 -754.5 948.5 -742.5 956.0 -725.0 963.5 -707.5 963.5 -685.0 963.5 -652.0 961.5 -615.5 959.5 -578.5 955.5 -538.5 958.5 -538.5 961.5 -538.0 964.5 -537.5 967.5 -537.5 L967.5 -477.0 Q913.0 -483.5 859.5 -486.5 805.5 -489.5 751.5 -489.5 712.5 -489.5 674.0 -488.0 635.5 -486.5 597.0 -483.5 597.0 -478.0 597.5 -473.5 598.0 -468.5 599.0 -465.0 L491.5 -465.0 Q479.0 -545.0 479.0 -624.5 479.0 -664.5 482.5 -705.0 485.5 -745.5 491.5 -785.5" fill-rule="evenodd" stroke="none"/>
    </g>
    <g id="font_DFPOP3_Std_W12__6">
      <path d="M392.0 -608.5 Q415.0 -659.5 439.0 -716.0 463.0 -772.0 487.5 -833.5 L647.0 -781.5 Q612.0 -687.5 579.5 -609.5 673.5 -607.5 767.5 -604.5 861.5 -601.5 955.5 -597.0 L955.5 -537.5 Q877.0 -541.5 799.0 -544.0 721.0 -546.5 644.0 -548.0 705.5 -425.0 786.5 -288.5 867.0 -151.5 967.5 -1.0 L795.5 91.0 Q719.0 -35.5 647.5 -169.5 576.0 -303.0 510.0 -444.5 493.0 -407.5 477.5 -374.0 462.0 -340.5 446.5 -311.5 342.0 -121.0 204.0 91.0 L43.0 11.5 Q106.0 -79.5 162.5 -171.5 219.0 -263.0 268.5 -355.5 291.5 -397.5 315.5 -446.0 340.0 -494.0 364.5 -548.0 290.0 -546.0 215.5 -543.5 141.5 -540.5 67.5 -537.5 L67.5 -597.0 Q149.0 -601.5 230.0 -604.0 311.0 -607.0 392.0 -608.5" fill-rule="evenodd" stroke="none"/>
    </g>
    <g id="font_DFPOP3_Std_W12__7">
      <path d="M273.5 -537.5 Q333.5 -540.5 393.0 -542.5 453.0 -544.5 513.0 -545.0 563.5 -544.5 614.5 -543.5 665.0 -542.0 716.0 -539.5 L716.0 -681.0 Q715.5 -718.5 698.5 -737.5 681.0 -756.5 647.0 -756.5 493.5 -750.5 281.5 -713.5 278.5 -669.0 276.5 -625.0 274.0 -580.5 273.5 -537.5 M273.5 -277.5 Q332.5 -280.5 391.5 -282.5 451.0 -284.5 510.0 -284.5 560.5 -284.5 612.0 -283.5 663.0 -282.0 713.5 -279.5 714.0 -332.5 714.5 -382.5 715.0 -432.5 716.0 -479.0 613.0 -485.5 513.0 -485.5 452.5 -485.5 392.5 -483.0 332.5 -481.0 272.5 -477.0 271.5 -457.0 271.5 -437.5 271.5 -418.0 271.5 -399.5 271.5 -368.5 271.5 -338.0 272.0 -307.5 273.5 -277.5 M285.5 -25.5 Q342.5 -27.0 399.0 -28.0 455.0 -28.5 512.0 -28.5 562.0 -28.5 612.0 -28.0 662.0 -27.5 711.5 -26.5 711.5 -77.0 712.5 -125.0 713.0 -173.0 713.5 -219.0 662.5 -222.0 611.5 -223.5 560.5 -225.5 510.0 -225.5 451.0 -225.0 392.5 -223.0 334.0 -221.0 275.5 -217.0 277.0 -168.0 279.5 -120.0 282.0 -72.5 285.5 -25.5 M139.5 -809.0 L287.5 -809.0 Q287.0 -799.5 286.5 -790.5 285.5 -781.5 285.5 -773.0 414.5 -794.5 510.0 -806.0 605.0 -817.0 666.5 -817.0 L691.0 -817.0 Q741.0 -817.0 777.0 -808.0 813.0 -799.0 834.5 -781.5 854.5 -763.5 865.0 -739.5 875.5 -715.5 875.5 -685.0 875.5 -540.0 874.0 -374.0 873.0 -208.0 871.5 -21.5 896.0 -20.0 920.0 -19.0 944.0 -18.0 967.5 -17.5 L967.5 43.0 Q853.5 37.0 739.5 34.0 625.5 30.5 512.0 30.5 397.5 30.5 283.5 34.0 169.0 37.0 55.5 43.0 L55.5 -17.5 Q75.5 -18.0 96.0 -19.0 116.5 -19.5 137.0 -20.5 130.5 -115.5 127.0 -210.5 124.0 -305.0 124.0 -399.5 124.0 -501.5 127.5 -604.0 131.5 -706.0 139.5 -809.0" fill-rule="evenodd" stroke="none"/>
    </g>
    <g id="font_DFPOP3_Std_W12__8">
      <path d="M676.0 -734.0 L676.0 -37.0 Q696.0 -31.0 717.0 -28.0 738.0 -25.5 760.0 -25.5 775.0 -25.5 783.0 -35.0 790.5 -44.5 790.5 -63.5 793.0 -124.0 794.0 -205.5 795.5 -287.5 795.5 -390.0 794.0 -445.5 792.5 -505.0 791.0 -565.0 788.5 -628.5 787.0 -665.5 781.0 -690.0 775.0 -714.0 766.0 -725.0 757.5 -731.0 742.0 -734.0 726.5 -737.5 703.5 -737.5 691.0 -735.5 676.0 -734.0 M760.0 -809.0 Q835.0 -809.0 878.5 -779.5 922.0 -749.5 933.0 -691.0 942.0 -636.0 948.0 -555.0 954.0 -474.0 955.5 -366.5 955.5 -253.5 953.0 -176.0 951.0 -98.5 947.0 -55.5 942.5 -20.0 929.5 2.0 917.0 23.5 896.0 33.0 879.0 42.0 849.0 46.5 819.0 51.0 775.0 51.0 748.5 51.0 723.5 47.5 699.0 44.0 676.0 38.0 L676.0 87.0 515.0 87.0 515.0 -706.5 Q507.5 -705.0 500.5 -704.0 493.5 -703.0 487.5 -701.5 L487.5 -769.0 Q582.0 -789.0 650.0 -799.0 718.5 -809.0 760.0 -809.0 M471.0 -813.0 L483.5 -756.5 Q439.0 -740.0 400.5 -728.5 361.5 -717.0 328.5 -710.5 313.5 -707.5 296.5 -706.0 280.0 -704.0 263.0 -702.5 255.5 -629.0 250.5 -561.0 245.5 -493.5 242.5 -431.0 259.5 -432.0 277.0 -432.5 294.5 -433.0 311.5 -433.0 391.0 -433.0 471.0 -421.0 L471.0 -361.5 Q431.0 -367.0 391.0 -370.0 351.0 -372.5 311.5 -372.5 293.0 -372.5 275.0 -372.0 257.5 -371.5 240.5 -370.5 240.0 -347.5 239.5 -326.0 239.5 -304.5 239.5 -284.5 239.5 -238.0 239.5 -187.0 240.0 -136.0 240.5 -81.0 247.0 -42.5 269.0 -22.5 291.0 -2.5 327.5 -1.0 367.5 -1.0 413.0 -11.0 458.0 -21.0 508.0 -41.0 L508.0 18.5 Q388.0 58.5 296.0 58.5 202.5 58.5 150.0 26.0 97.0 -6.0 85.0 -70.5 82.0 -121.5 81.0 -175.0 80.0 -228.5 80.0 -284.5 80.0 -408.5 88.5 -540.5 97.5 -672.5 115.5 -813.0 L275.5 -813.0 Q274.0 -798.0 272.5 -783.5 271.0 -769.5 269.5 -755.5 284.5 -757.5 298.5 -760.0 312.5 -763.0 324.5 -766.0 357.0 -772.0 393.5 -783.5 430.5 -795.5 471.0 -813.0" fill-rule="evenodd" stroke="none"/>
    </g>
    <g id="font_DFPOP3_Std_W12__9">
      <path d="M839.5 -833.5 L980.0 -833.5 980.0 -57.5 Q980.0 -21.5 974.5 6.5 969.5 34.5 959.5 54.5 946.5 74.5 920.5 84.5 894.0 95.0 855.0 95.0 831.5 95.0 796.5 92.0 762.0 89.0 716.0 83.0 L716.0 22.5 Q742.0 28.5 763.0 31.5 783.5 35.0 799.5 35.0 819.5 35.0 829.5 22.5 839.5 10.5 839.5 -13.5 L839.5 -833.5 M676.0 -773.0 L804.0 -773.0 804.0 -1.0 676.0 -1.0 676.0 -773.0 M487.5 -365.5 L487.5 -18.5 Q499.5 -20.0 506.0 -27.5 512.5 -35.0 514.0 -47.0 516.5 -80.0 518.0 -126.0 519.0 -172.0 519.0 -230.5 519.0 -282.0 515.5 -312.5 512.0 -343.5 505.0 -353.5 500.0 -358.0 495.5 -361.0 491.5 -364.0 487.5 -365.5 M219.0 -741.5 Q217.5 -709.0 215.5 -678.5 213.5 -647.5 212.0 -618.5 302.5 -624.5 393.0 -624.5 416.5 -624.5 440.0 -624.0 463.5 -623.5 486.5 -622.5 488.5 -658.5 490.0 -685.5 491.5 -712.0 491.5 -729.0 491.5 -744.5 461.5 -752.5 431.5 -760.0 371.5 -761.0 339.5 -760.0 301.0 -755.5 263.0 -750.5 219.0 -741.5 M439.5 -821.0 Q537.5 -821.0 587.0 -787.0 636.0 -752.5 636.0 -685.0 636.0 -676.0 634.5 -658.0 633.0 -640.5 631.0 -614.5 634.0 -614.5 637.0 -614.0 640.0 -613.5 643.0 -613.5 L643.0 -553.0 Q604.0 -556.0 565.0 -559.0 526.0 -561.5 487.5 -563.0 L487.5 -428.0 Q493.5 -428.0 499.5 -428.5 506.0 -429.0 512.0 -429.0 L529.5 -429.0 Q595.5 -429.0 621.5 -401.5 638.5 -383.0 647.0 -340.5 655.5 -298.0 655.5 -230.5 655.5 -175.0 653.5 -128.5 651.5 -81.5 648.0 -43.0 645.0 -20.0 637.5 -3.5 630.0 13.0 617.5 23.5 605.0 31.5 585.5 36.5 566.0 41.5 538.5 43.0 L519.0 43.0 Q511.5 43.0 503.5 42.5 495.0 42.0 487.5 41.0 L487.5 83.0 359.5 83.0 359.5 -347.0 Q352.0 -345.0 345.5 -342.5 339.0 -340.0 333.0 -338.0 330.0 -301.0 328.5 -265.0 327.5 -229.0 327.5 -193.5 327.5 -133.0 331.0 -73.0 334.0 -13.0 340.0 47.0 L215.0 47.0 Q209.0 -13.0 206.5 -73.0 203.5 -133.0 204.0 -193.5 203.5 -253.5 206.5 -313.5 209.0 -373.0 215.0 -433.0 L340.0 -433.0 Q338.5 -424.0 337.5 -415.0 337.0 -406.0 337.0 -397.5 343.0 -399.0 348.5 -400.5 354.0 -402.0 359.5 -403.5 L359.5 -564.0 Q282.5 -564.0 209.0 -558.0 196.5 -350.5 184.5 -188.0 172.0 -25.5 159.5 91.0 L23.5 79.0 Q40.5 -99.5 55.5 -323.5 70.0 -547.5 84.0 -817.0 L223.0 -813.0 Q223.0 -809.0 222.5 -806.0 222.5 -803.0 222.0 -801.0 278.5 -810.0 332.5 -815.0 387.0 -820.5 439.5 -821.0" fill-rule="evenodd" stroke="none"/>
    </g>
    <g id="font_DFPOP3_Std_W12__10">
      <path d="M481.5 -243.5 Q523.5 -246.0 566.0 -247.5 608.5 -249.0 651.5 -249.0 716.0 -249.0 780.5 -246.0 776.5 -272.0 769.5 -288.5 763.0 -305.5 753.5 -312.5 740.0 -320.0 725.0 -324.5 710.5 -328.5 695.5 -328.5 649.0 -327.0 596.5 -321.0 543.5 -314.5 484.5 -302.0 481.5 -271.5 481.5 -243.5 M479.0 -110.5 Q565.0 -116.5 651.5 -116.5 717.5 -116.5 783.5 -113.5 783.5 -130.0 783.5 -147.5 783.5 -165.0 783.5 -183.5 L783.5 -185.5 Q749.5 -187.0 716.5 -188.0 683.5 -189.5 651.5 -189.5 607.5 -189.5 564.5 -188.0 522.0 -186.5 480.5 -183.5 479.5 -174.0 479.5 -165.0 479.0 -156.0 479.0 -147.5 479.0 -129.0 479.0 -110.5 M340.0 -385.0 L491.5 -385.0 Q490.5 -379.0 490.0 -373.0 489.5 -367.0 489.5 -362.5 558.0 -375.0 621.5 -381.5 685.0 -388.5 743.5 -389.0 L768.0 -389.0 Q814.0 -389.0 846.0 -381.5 877.5 -374.5 896.0 -360.5 919.0 -342.0 931.0 -297.5 943.0 -253.0 943.0 -183.5 943.0 -69.5 937.0 10.0 934.0 33.5 927.5 50.5 921.0 68.0 910.5 79.0 899.5 87.5 882.0 92.5 864.5 98.0 840.5 99.5 L823.5 99.5 Q787.0 99.5 741.0 96.5 695.5 93.0 640.0 87.0 L640.0 26.5 Q717.0 39.0 775.0 39.0 778.5 39.0 780.5 30.5 782.5 22.5 782.5 7.0 782.5 -6.5 782.5 -21.5 782.5 -36.5 783.5 -53.0 749.5 -55.0 716.5 -56.0 683.5 -57.5 651.5 -57.5 608.0 -57.5 565.5 -56.0 523.0 -54.5 481.5 -51.0 483.0 -15.0 485.0 20.5 487.5 56.0 491.5 91.0 L340.0 91.0 Q334.0 31.5 331.0 -28.0 327.5 -87.5 327.5 -147.5 327.5 -206.5 331.0 -266.0 334.0 -325.0 340.0 -385.0 M548.0 -776.0 L548.0 -829.5 707.5 -829.5 707.5 -776.0 Q770.0 -775.5 832.0 -772.5 894.0 -769.5 955.5 -765.0 L955.5 -705.5 Q893.0 -710.0 831.0 -712.5 769.0 -715.0 707.5 -716.0 L707.5 -636.0 Q764.5 -634.5 822.0 -632.0 879.0 -629.0 936.0 -624.5 L936.0 -565.0 Q878.5 -570.0 821.5 -573.0 764.5 -575.5 707.5 -576.5 L707.5 -499.5 Q770.5 -499.0 833.5 -496.5 896.5 -494.0 959.5 -489.5 L959.5 -429.0 Q881.0 -435.0 803.5 -438.5 725.5 -441.5 647.0 -441.5 569.0 -441.5 491.0 -438.5 413.5 -435.0 336.0 -429.0 L336.0 -489.5 Q389.5 -493.5 442.5 -495.5 495.5 -498.0 548.0 -499.5 L548.0 -575.5 Q500.0 -574.0 453.0 -571.5 405.5 -569.0 359.5 -565.0 L359.5 -624.5 Q407.0 -628.5 454.0 -631.0 501.0 -633.5 548.0 -635.0 L548.0 -716.0 Q495.5 -714.0 443.5 -711.5 391.5 -708.5 340.0 -705.5 L340.0 -765.0 Q392.0 -769.0 444.0 -771.5 495.5 -774.5 548.0 -776.0 M147.5 -605.0 Q319.5 -476.0 319.5 -393.0 319.5 -325.5 287.5 -201.5 255.5 -77.5 191.5 102.5 L51.0 39.0 Q105.0 -130.0 132.5 -238.0 159.5 -345.5 159.5 -393.0 159.5 -405.5 131.5 -429.5 103.0 -453.5 47.0 -489.5 L147.5 -605.0 M215.0 -825.5 Q235.0 -825.5 254.0 -818.5 273.0 -812.0 291.0 -799.5 307.0 -784.5 315.5 -765.0 323.5 -745.5 323.5 -721.0 323.5 -697.0 314.0 -677.0 304.0 -657.0 285.5 -641.0 252.0 -613.5 215.0 -613.5 192.0 -613.5 172.5 -622.5 153.5 -632.0 137.0 -650.0 124.0 -667.0 118.0 -685.0 111.5 -702.5 111.5 -721.0 111.5 -741.5 117.0 -760.0 123.0 -778.0 135.0 -793.5 151.5 -809.0 171.5 -817.0 191.0 -825.5 215.0 -825.5" fill-rule="evenodd" stroke="none"/>
    </g>
    <g id="font_DFPOP3_Std_W12__11">
      <path d="M775.0 -425.0 Q863.0 -425.0 907.0 -393.5 951.0 -362.5 951.5 -301.0 L951.5 -240.5 799.5 -240.5 799.5 -341.0 Q799.5 -352.5 777.5 -358.5 755.5 -365.0 711.5 -365.5 683.5 -365.0 653.5 -364.0 623.5 -363.0 592.0 -361.5 L592.0 -212.0 Q627.0 -214.5 662.5 -215.5 698.0 -217.0 733.0 -217.0 842.0 -217.0 951.5 -205.0 L951.5 -145.5 Q897.0 -151.0 842.0 -153.5 787.5 -156.5 733.0 -156.5 697.0 -156.5 662.0 -155.5 626.5 -154.0 592.0 -151.5 L592.0 -76.0 Q680.0 -62.0 777.0 -51.0 874.0 -40.5 980.0 -33.0 L955.5 95.0 Q845.0 89.0 734.0 75.5 623.5 61.5 513.0 41.0 443.0 27.0 371.0 10.0 298.5 -7.0 223.0 -27.5 211.5 2.5 199.5 32.0 187.5 62.0 175.0 91.0 L31.5 55.5 Q72.5 -28.5 103.5 -113.0 134.0 -197.0 155.5 -281.5 L296.0 -265.0 Q288.5 -234.0 280.0 -203.0 271.5 -172.0 262.0 -141.5 306.5 -130.5 352.0 -120.5 397.5 -111.0 443.5 -102.5 L443.5 -350.0 Q355.0 -342.5 257.0 -331.0 159.0 -320.0 51.0 -305.0 L51.0 -365.5 Q238.5 -393.5 419.5 -408.5 601.0 -423.5 775.0 -425.0 M223.0 -751.5 L223.0 -833.5 355.5 -833.5 355.5 -751.5 Q393.5 -750.0 431.5 -747.5 469.5 -744.5 508.0 -741.5 L508.0 -681.0 Q498.5 -681.5 489.5 -682.5 480.5 -683.5 472.0 -684.0 483.0 -640.0 495.5 -596.5 508.5 -553.0 522.0 -510.0 536.0 -554.0 547.5 -597.5 559.0 -641.0 567.5 -684.0 559.0 -683.5 551.0 -682.5 543.0 -681.5 535.5 -681.0 L535.5 -741.5 Q571.5 -744.5 607.5 -747.5 644.0 -750.0 680.0 -751.5 L680.0 -833.5 811.0 -833.5 811.0 -751.5 Q848.5 -750.0 887.0 -747.5 925.0 -745.0 963.5 -741.5 L963.5 -681.0 Q945.0 -682.5 930.0 -684.0 957.5 -589.0 991.0 -493.5 L863.0 -433.0 Q851.0 -496.0 840.0 -561.0 829.0 -625.5 819.0 -692.0 L811.0 -692.0 811.0 -441.5 680.0 -441.5 680.0 -692.0 674.0 -692.0 Q667.5 -631.0 660.0 -569.0 652.5 -507.5 643.0 -445.5 L519.0 -475.0 407.5 -421.0 Q395.5 -486.0 384.5 -554.0 373.0 -621.5 362.5 -692.0 L355.5 -692.0 355.5 -429.0 223.0 -429.0 223.0 -692.0 217.0 -692.0 Q210.0 -623.0 201.0 -553.0 191.5 -483.5 179.0 -412.5 L47.0 -445.5 Q68.0 -505.5 84.0 -565.5 100.5 -625.5 112.5 -686.0 99.0 -684.5 85.0 -683.5 71.5 -682.5 59.5 -681.0 L59.5 -741.5 Q100.0 -745.0 141.0 -747.5 182.0 -750.0 223.0 -751.5" fill-rule="evenodd" stroke="none"/>
    </g>
    <g id="font_DFPOP3_Std_W12__12">
      <path d="M632.0 -425.0 Q673.5 -374.5 710.0 -325.5 747.0 -277.0 779.5 -229.5 L659.5 -145.5 Q627.0 -194.0 591.0 -241.5 555.0 -289.5 515.0 -337.0 L632.0 -425.0 M188.5 -374.0 Q207.0 -375.5 226.0 -376.0 244.5 -377.0 263.0 -377.0 278.5 -377.0 294.0 -376.0 309.0 -375.5 324.5 -375.0 327.5 -479.0 327.5 -565.0 327.5 -603.0 307.5 -622.0 287.5 -641.0 248.0 -641.0 223.0 -638.0 195.5 -632.0 192.5 -566.5 190.5 -502.0 188.5 -437.5 188.5 -374.0 M193.5 -21.5 Q219.5 -23.0 246.0 -24.5 272.0 -25.5 298.0 -25.5 L309.0 -25.5 Q313.0 -104.0 316.5 -176.5 319.5 -248.5 322.5 -315.5 307.0 -316.0 292.5 -317.0 277.5 -317.5 263.0 -317.5 244.0 -317.5 225.0 -316.0 206.0 -315.0 187.5 -313.5 L187.5 -301.0 Q187.5 -159.5 193.5 -21.5 M219.0 -829.5 L363.5 -813.0 Q357.5 -785.5 349.0 -757.0 341.0 -728.5 331.0 -699.5 366.0 -696.5 391.5 -688.0 417.5 -679.5 434.0 -665.5 454.0 -648.0 464.5 -624.0 475.0 -600.0 475.0 -569.5 L475.0 -536.5 Q502.0 -610.0 523.0 -684.5 544.0 -758.5 559.0 -833.5 L707.5 -817.0 Q702.0 -793.5 696.0 -769.5 690.0 -746.0 684.0 -723.0 721.0 -729.0 751.5 -729.0 831.5 -729.0 880.0 -707.0 928.5 -685.0 945.0 -642.0 969.5 -568.5 976.0 -362.5 976.0 -195.0 957.5 -34.0 951.5 30.5 914.0 63.0 876.5 95.0 808.0 95.0 754.0 95.0 690.5 89.0 626.5 83.0 552.0 70.5 L552.0 11.5 Q605.5 23.0 645.5 29.0 685.5 35.0 711.5 35.0 753.0 32.0 776.0 17.5 799.0 3.5 803.0 -22.5 806.0 -62.5 808.0 -107.5 810.5 -153.0 812.0 -203.0 815.0 -295.0 815.0 -362.5 813.0 -464.0 806.5 -530.0 800.5 -596.5 790.5 -628.5 783.5 -648.5 760.5 -658.5 738.0 -668.5 699.5 -668.5 691.5 -668.0 683.5 -667.0 675.5 -666.0 667.5 -664.5 650.0 -606.0 629.0 -547.0 608.0 -488.0 583.5 -429.0 L474.0 -457.5 Q472.5 -357.0 468.0 -246.5 463.5 -136.0 456.5 -15.5 460.5 -14.5 464.5 -14.0 468.0 -13.5 471.0 -13.5 L471.0 47.0 Q427.5 41.0 384.0 38.0 341.0 35.0 298.0 35.0 272.0 35.0 246.5 35.5 221.0 36.5 196.5 39.0 197.5 53.0 198.0 67.0 199.0 81.5 199.5 95.0 L55.5 95.0 Q43.0 -103.0 43.0 -301.0 43.0 -497.5 55.5 -697.5 L188.5 -697.5 Q207.0 -763.5 219.0 -829.5" fill-rule="evenodd" stroke="none"/>
    </g>
    <g id="font_DFPOP3_Std_W12__13">
      <path d="M244.5 -109.5 Q314.5 -112.5 384.5 -114.5 454.5 -116.5 525.5 -116.5 586.0 -116.5 646.5 -115.5 707.0 -114.0 767.0 -111.5 762.5 -173.0 699.5 -173.0 509.0 -170.0 248.0 -151.5 246.5 -140.0 245.5 -129.5 244.5 -119.0 244.5 -109.5 M248.0 11.5 Q326.0 6.5 404.0 5.0 481.5 3.0 559.0 3.0 610.5 3.0 661.5 4.0 712.0 4.5 763.0 6.0 764.5 -9.0 765.5 -23.5 766.0 -38.0 767.0 -51.0 706.5 -54.5 646.0 -56.0 585.0 -57.5 525.5 -57.5 454.5 -57.5 384.0 -55.0 313.5 -53.0 243.5 -49.0 244.0 -34.0 245.0 -18.5 246.0 -3.5 248.0 11.5 M99.5 -229.5 L259.0 -229.5 Q256.0 -218.5 256.0 -211.0 413.5 -222.0 530.0 -227.5 646.5 -233.5 722.0 -233.5 L751.5 -233.5 Q799.5 -233.5 833.5 -224.5 868.0 -215.5 888.0 -198.5 908.0 -181.5 918.0 -158.0 927.5 -134.5 927.5 -105.5 927.5 -51.5 921.5 14.5 928.5 14.5 935.0 14.5 941.0 14.5 947.0 15.5 L947.0 75.0 Q850.5 68.5 753.0 65.5 656.0 62.5 559.0 62.5 482.5 62.5 406.5 64.0 330.0 66.0 255.0 69.5 255.5 77.5 256.5 85.0 257.5 92.5 259.0 99.5 L99.5 99.5 Q91.5 58.0 88.0 17.0 84.0 -24.0 84.0 -65.5 84.0 -106.0 88.0 -147.0 91.5 -188.0 99.5 -229.5 M583.5 -620.5 L583.5 -560.0 Q673.0 -560.0 762.0 -557.0 762.5 -574.0 763.5 -589.0 764.0 -604.5 765.0 -617.5 673.0 -620.5 583.5 -620.5 M583.5 -745.5 L583.5 -680.0 Q676.0 -680.0 768.0 -677.0 L768.0 -697.5 Q768.0 -734.0 712.5 -740.5 696.5 -742.5 670.5 -744.0 644.5 -745.5 608.5 -745.5 L583.5 -745.5 M624.5 -805.0 L647.0 -805.0 Q738.5 -805.0 796.0 -797.5 854.0 -790.0 877.5 -776.0 898.5 -764.5 909.0 -748.0 919.5 -731.0 919.5 -709.5 L919.5 -670.5 Q932.0 -670.0 945.0 -669.5 958.0 -668.5 972.0 -668.5 L972.0 -609.5 Q958.0 -609.5 944.5 -610.0 931.0 -610.5 918.5 -611.5 917.5 -596.0 917.0 -580.5 916.5 -565.0 916.5 -550.0 921.0 -550.0 926.0 -549.5 931.5 -549.0 936.0 -549.0 L936.0 -489.5 Q847.0 -494.0 759.0 -496.5 671.0 -499.5 583.5 -500.5 L583.5 -448.5 Q669.5 -447.5 755.5 -445.0 841.5 -442.0 927.5 -437.0 L927.5 -377.0 Q841.5 -381.5 755.5 -384.5 669.5 -387.5 583.5 -388.0 L583.5 -337.0 Q680.5 -335.5 777.5 -333.0 874.5 -330.0 972.0 -325.5 L972.0 -265.0 Q856.5 -271.5 741.5 -274.5 626.5 -277.5 512.0 -277.5 281.5 -277.5 51.0 -265.0 L51.0 -325.5 Q145.0 -330.0 238.0 -332.5 331.0 -335.0 424.0 -336.0 L424.0 -388.0 Q338.5 -387.5 253.5 -384.5 168.5 -381.5 84.0 -377.0 L84.0 -437.0 Q169.0 -442.0 254.5 -445.0 339.5 -447.5 424.0 -448.5 L424.0 -499.5 Q342.5 -499.0 261.0 -496.5 180.0 -494.0 99.5 -489.5 L99.5 -549.0 Q180.5 -553.5 261.5 -556.0 342.5 -558.5 424.0 -560.0 L424.0 -620.5 Q330.5 -619.5 237.0 -617.0 144.0 -614.0 51.0 -609.5 L51.0 -668.5 Q145.0 -673.5 238.0 -676.0 331.0 -679.0 424.0 -680.0 L424.0 -740.5 Q345.5 -736.5 264.5 -729.5 183.5 -722.5 99.5 -712.5 L99.5 -773.0 Q179.0 -783.0 260.0 -790.0 341.0 -797.0 424.0 -801.0 L424.0 -849.0 583.5 -849.0 583.5 -805.0 624.5 -805.0" fill-rule="evenodd" stroke="none"/>
    </g>
    <g id="font_DFPOP3_Std_W12__14">
      <path d="M743.5 -637.0 L863.0 -581.5 Q853.0 -559.5 843.5 -538.0 833.5 -516.5 824.5 -495.5 857.5 -461.0 891.0 -429.5 925.0 -398.0 959.5 -368.5 L871.5 -249.0 Q810.0 -319.5 764.0 -378.0 753.0 -358.0 742.0 -338.5 730.5 -319.5 720.0 -301.0 L599.0 -361.5 Q640.5 -430.0 676.5 -499.0 712.5 -568.0 743.5 -637.0 M250.0 -393.0 Q232.0 -352.5 214.5 -314.0 197.0 -276.0 179.0 -240.5 L59.5 -301.0 Q101.0 -384.5 137.0 -468.5 173.0 -552.5 204.0 -637.0 L323.5 -581.5 Q311.5 -548.0 299.0 -517.0 331.0 -492.0 363.0 -468.5 395.0 -445.5 427.0 -425.0 L351.0 -317.5 Q322.0 -337.5 296.5 -356.5 271.5 -375.5 250.0 -393.0 M431.0 -740.5 L431.0 -840.5 579.5 -840.5 579.5 -741.5 Q677.0 -740.0 775.5 -737.0 873.5 -733.5 972.0 -729.0 L972.0 -668.5 Q873.5 -673.5 775.5 -676.5 677.0 -679.5 579.5 -681.0 L579.5 -376.0 Q797.5 -144.0 976.0 11.5 L848.0 99.5 Q785.0 38.5 718.0 -34.5 651.0 -108.0 579.5 -194.5 L579.5 87.0 431.0 87.0 431.0 -175.0 Q371.0 -112.0 305.5 -45.5 239.5 21.0 168.0 91.0 L47.0 -5.0 Q153.0 -96.0 249.0 -186.0 345.0 -276.5 431.0 -366.5 L431.0 -680.0 Q336.0 -679.0 241.0 -676.0 145.5 -673.5 51.0 -668.5 L51.0 -729.0 Q146.5 -733.5 241.0 -736.5 336.0 -739.5 431.0 -740.5" fill-rule="evenodd" stroke="none"/>
    </g>
    <g id="font_DFPOP3_Std_W12__15">
      <path d="M331.0 -249.0 Q389.0 -252.5 447.0 -255.0 505.0 -257.0 563.0 -257.0 613.0 -257.0 663.0 -255.5 713.0 -254.0 764.0 -251.0 L764.0 -253.0 Q764.0 -290.5 743.5 -309.5 723.0 -328.5 683.0 -328.5 609.5 -326.5 521.5 -318.0 434.0 -309.0 333.0 -294.0 332.0 -281.5 331.5 -270.5 331.0 -259.5 331.0 -249.0 M327.5 -121.0 Q387.0 -124.5 446.0 -127.0 505.0 -129.0 563.0 -129.0 663.0 -129.0 763.0 -123.0 763.0 -141.5 763.0 -158.5 763.0 -175.5 764.0 -191.5 713.0 -194.5 663.0 -196.0 612.5 -197.5 563.0 -197.5 504.0 -197.5 445.5 -195.5 387.0 -193.5 328.5 -189.5 328.0 -175.5 328.0 -162.5 327.5 -149.5 327.5 -137.0 L327.5 -121.0 M333.0 11.5 Q399.5 6.5 466.5 5.0 533.5 3.0 601.0 3.0 681.0 3.0 761.0 6.0 761.0 -12.0 761.0 -29.5 761.0 -46.5 762.0 -63.5 712.0 -66.5 662.0 -68.0 612.5 -69.5 563.0 -69.5 505.0 -69.5 446.0 -67.5 387.0 -65.5 328.5 -61.5 329.0 -43.0 330.0 -24.5 331.0 -6.5 333.0 11.5 M936.0 -821.0 L947.0 -769.0 Q709.0 -737.0 529.5 -726.0 518.0 -725.0 506.5 -724.5 495.0 -724.0 484.5 -724.0 476.0 -705.5 468.0 -688.0 460.5 -670.0 452.5 -653.5 L512.0 -653.5 Q619.5 -653.5 727.0 -650.0 835.0 -647.0 943.0 -641.0 L943.0 -581.5 Q835.0 -587.0 727.0 -590.0 619.5 -593.0 512.0 -593.0 490.0 -593.0 468.0 -592.5 446.5 -592.0 425.0 -592.0 416.0 -572.5 408.0 -555.0 400.0 -537.0 392.0 -520.0 421.5 -520.5 451.5 -520.5 481.5 -521.0 512.0 -521.0 625.5 -521.0 739.5 -518.0 853.5 -515.0 967.5 -509.0 L967.5 -449.5 Q853.5 -455.0 739.5 -458.0 625.5 -461.0 512.0 -461.0 474.5 -460.5 437.5 -460.5 400.5 -460.0 363.5 -460.0 354.5 -440.5 346.5 -423.0 338.5 -405.5 331.0 -390.0 329.0 -386.5 327.0 -383.0 325.0 -380.0 323.5 -377.0 L340.0 -377.0 Q339.0 -370.5 338.5 -365.0 338.0 -359.5 338.0 -354.5 461.5 -371.5 553.0 -380.0 644.5 -389.0 703.5 -389.0 L727.0 -389.0 Q777.5 -389.0 813.5 -380.0 849.0 -371.0 870.5 -353.5 890.5 -335.5 901.0 -311.5 911.5 -287.5 911.5 -257.0 911.5 -197.0 910.5 -129.5 910.0 -61.5 908.5 14.5 913.5 14.5 919.5 14.5 925.5 14.5 932.0 15.5 L932.0 75.0 Q849.0 68.5 766.5 65.5 684.0 62.5 601.0 62.5 534.0 62.5 468.5 64.5 402.5 66.0 338.0 70.5 338.0 78.5 338.5 86.5 339.0 94.5 340.0 102.5 L208.0 102.5 Q201.5 42.5 198.5 -16.5 195.5 -75.5 195.5 -135.0 188.0 -120.0 179.5 -105.0 171.5 -90.5 164.0 -77.0 L43.0 -161.0 Q126.0 -294.5 196.5 -437.0 201.0 -446.5 206.0 -455.5 129.0 -452.5 55.5 -449.5 L55.5 -509.0 Q100.5 -511.0 146.0 -513.0 191.5 -514.5 237.5 -516.0 246.0 -534.5 254.5 -552.5 263.0 -570.5 271.5 -589.0 223.0 -587.5 175.0 -585.5 127.5 -584.0 80.0 -581.5 L80.0 -641.0 Q135.0 -644.0 190.0 -646.5 245.0 -648.5 300.0 -650.0 307.5 -667.0 315.0 -684.0 322.0 -701.0 329.5 -718.0 273.5 -715.5 214.0 -714.0 154.0 -712.5 91.0 -712.5 L91.0 -765.0 Q229.5 -766.5 338.5 -770.0 448.0 -773.0 529.5 -779.5 620.0 -784.5 721.5 -795.5 823.0 -806.0 936.0 -821.0" fill-rule="evenodd" stroke="none"/>
    </g>
    <g id="font_DFPOP3_Std_W12__16">
      <path d="M584.5 -368.5 Q584.5 -382.5 579.5 -395.5 574.0 -408.5 563.0 -420.0 551.5 -430.5 539.0 -436.0 526.0 -441.5 512.0 -441.5 496.0 -441.5 483.0 -436.0 470.0 -431.0 460.0 -421.0 449.0 -410.0 444.0 -397.0 439.0 -384.0 439.5 -368.5 439.5 -353.5 444.5 -340.5 450.0 -328.0 461.0 -317.5 471.5 -306.0 484.0 -300.5 496.5 -295.0 512.0 -295.0 526.0 -295.0 539.0 -300.5 551.5 -306.0 563.0 -317.5 574.0 -328.0 579.5 -341.0 584.5 -354.0 584.5 -368.5 M665.5 -368.5 Q665.5 -338.0 654.0 -310.5 642.5 -283.0 619.5 -260.0 573.5 -214.0 512.0 -214.0 480.0 -214.0 452.5 -225.5 425.5 -237.0 403.5 -260.0 380.5 -282.5 369.5 -309.5 358.5 -336.5 358.5 -368.5 358.5 -434.5 401.5 -479.0 444.5 -522.0 512.0 -522.0 543.5 -522.0 570.5 -511.0 597.5 -499.5 620.5 -477.0 643.0 -454.0 654.0 -427.0 665.5 -400.0 665.5 -368.5" fill-rule="evenodd" stroke="none"/>
    </g>
  </defs>
</svg>
