<?xml version="1.0" encoding="UTF-8" standalone="no"?>
<svg xmlns:xlink="http://www.w3.org/1999/xlink" height="85.45px" width="85.45px" xmlns="http://www.w3.org/2000/svg">
  <g transform="matrix(1.0, 0.0, 0.0, 1.0, -0.05, 0.0)">
    <path d="M83.95 60.0 Q87.45 63.55 82.65 68.35 L68.25 82.75 Q63.4 87.5 59.85 83.95 L1.7 25.5 Q-1.85 21.9 2.95 17.1 L17.4 2.75 Q22.2 -2.05 25.8 1.55 L83.95 60.0" fill="#990000" fill-rule="evenodd" stroke="none"/>
    <path d="M76.15 66.8 L66.7 76.15 Q63.55 79.25 60.45 76.15 L9.45 24.9 Q6.35 21.75 9.5 18.6 L18.85 9.25 Q22.0 6.1 25.15 9.25 L76.15 60.55 Q79.25 63.7 76.15 66.8" fill="#ffffff" fill-rule="evenodd" stroke="none"/>
    <path d="M82.75 17.35 Q87.55 22.15 84.0 25.75 L25.5 83.9 Q21.95 87.4 17.15 82.6 L2.8 68.2 Q-2.0 63.35 1.6 59.8 L60.05 1.65 Q63.6 -1.9 68.4 2.9 L82.75 17.35" fill="#990000" fill-rule="evenodd" stroke="none"/>
    <path d="M76.3 18.85 Q79.4 22.0 76.25 25.1 L25.0 76.1 Q21.85 79.25 18.75 76.1 L9.35 66.7 Q6.25 63.55 9.4 60.4 L60.65 9.4 Q63.8 6.3 66.9 9.45 L76.3 18.85" fill="#ffffff" fill-rule="evenodd" stroke="none"/>
    <path d="M18.9 9.25 Q22.0 6.1 25.15 9.25 L76.15 60.55 Q79.25 63.7 76.15 66.8 L66.7 76.2 Q63.55 79.3 60.45 76.15 L9.45 24.9 Q6.35 21.75 9.5 18.6 L18.9 9.25" fill="#ffffff" fill-rule="evenodd" stroke="none"/>
  </g>
</svg>
