<?xml version="1.0" encoding="UTF-8" standalone="no"?>
<svg xmlns:xlink="http://www.w3.org/1999/xlink" height="16.8px" width="200.25px" xmlns="http://www.w3.org/2000/svg">
  <g transform="matrix(1.0, 0.0, 0.0, 1.0, 29.85, 1.4)">
    <g transform="matrix(1.0, 0.0, 0.0, 1.0, -33.25, 0.0)">
      <use fill="#000000" height="16.8" transform="matrix(0.0146, 0.0, 0.0, 0.0146, 3.0, 13.0)" width="200.25" xlink:href="#font_DFPOP3_Std_W12__0"/>
      <use fill="#000000" height="16.8" transform="matrix(0.0146, 0.0, 0.0, 0.0146, 18.0, 13.0)" width="200.25" xlink:href="#font_DFPOP3_Std_W12__1"/>
      <use fill="#000000" height="16.8" transform="matrix(0.0146, 0.0, 0.0, 0.0146, 33.0, 13.0)" width="200.25" xlink:href="#font_DFPOP3_Std_W12__2"/>
      <use fill="#000000" height="16.8" transform="matrix(0.0146, 0.0, 0.0, 0.0146, 48.0, 13.0)" width="200.25" xlink:href="#font_DFPOP3_Std_W12__3"/>
      <use fill="#000000" height="16.8" transform="matrix(0.0146, 0.0, 0.0, 0.0146, 63.0, 13.0)" width="200.25" xlink:href="#font_DFPOP3_Std_W12__4"/>
      <use fill="#000000" height="16.8" transform="matrix(0.0146, 0.0, 0.0, 0.0146, 78.0, 13.0)" width="200.25" xlink:href="#font_DFPOP3_Std_W12__5"/>
      <use fill="#000000" height="16.8" transform="matrix(0.0146, 0.0, 0.0, 0.0146, 93.0, 13.0)" width="200.25" xlink:href="#font_DFPOP3_Std_W12__2"/>
      <use fill="#000000" height="16.8" transform="matrix(0.0146, 0.0, 0.0, 0.0146, 108.0, 13.0)" width="200.25" xlink:href="#font_DFPOP3_Std_W12__3"/>
      <use fill="#000000" height="16.8" transform="matrix(0.0146, 0.0, 0.0, 0.0146, 123.0, 13.0)" width="200.25" xlink:href="#font_DFPOP3_Std_W12__6"/>
      <use fill="#000000" height="16.8" transform="matrix(0.0146, 0.0, 0.0, 0.0146, 138.0, 13.0)" width="200.25" xlink:href="#font_DFPOP3_Std_W12__7"/>
    </g>
    <g transform="matrix(1.0, 0.0, 0.0, 1.0, -33.25, 0.0)">
      <use fill="#000000" height="16.8" transform="matrix(0.0146, 0.0, 0.0, 0.0146, 153.0, 13.0)" width="200.25" xlink:href="#font_DFPOP3_Std_W12_30"/>
    </g>
    <g transform="matrix(1.0, 0.0, 0.0, 1.0, -33.25, 0.0)">
      <use fill="#000000" height="16.8" transform="matrix(0.0146, 0.0, 0.0, 0.0146, 163.3, 13.0)" width="200.25" xlink:href="#font_DFPOP3_Std_W12__8"/>
      <use fill="#000000" height="16.8" transform="matrix(0.0146, 0.0, 0.0, 0.0146, 178.3, 13.0)" width="200.25" xlink:href="#font_DFPOP3_Std_W12__9"/>
      <use fill="#000000" height="16.8" transform="matrix(0.0146, 0.0, 0.0, 0.0146, 193.3, 13.0)" width="200.25" xlink:href="#font_DFPOP3_Std_W12__10"/>
    </g>
  </g>
  <defs>
    <g id="font_DFPOP3_Std_W12__0">
      <path d="M867.5 -789.5 Q887.0 -789.5 905.0 -783.0 923.0 -776.5 940.0 -764.0 955.5 -748.5 963.5 -729.0 971.5 -709.5 972.0 -685.0 971.5 -662.0 962.5 -643.0 953.5 -623.5 936.0 -608.5 919.0 -594.5 901.5 -588.0 884.5 -581.5 867.5 -581.5 844.5 -581.5 825.0 -590.5 805.5 -599.0 789.5 -617.5 776.5 -633.0 770.0 -649.5 764.0 -666.5 764.0 -685.0 764.0 -706.0 769.5 -723.5 775.0 -741.5 787.5 -756.5 803.0 -773.0 823.0 -781.0 843.0 -789.5 867.5 -789.5 M515.0 -817.0 L531.5 -752.5 Q490.0 -740.5 452.0 -731.0 414.5 -722.0 380.0 -716.0 L380.0 -536.5 Q413.0 -536.5 446.0 -537.0 479.5 -537.5 513.0 -537.5 536.0 -537.5 559.5 -537.0 583.5 -536.5 607.0 -536.5 592.0 -596.5 578.0 -658.0 564.0 -719.0 552.0 -781.5 L699.5 -829.5 Q716.5 -750.5 734.5 -676.5 753.0 -602.5 773.0 -533.5 821.5 -532.0 870.0 -530.0 918.5 -527.5 967.5 -525.5 L967.5 -465.0 Q923.0 -467.0 878.5 -469.0 834.5 -470.5 790.5 -472.0 796.5 -448.0 803.5 -425.5 810.5 -402.5 818.0 -381.0 819.0 -377.0 820.0 -374.0 821.0 -370.5 822.5 -367.5 833.0 -380.5 843.0 -394.0 853.5 -407.0 863.0 -421.0 L991.0 -328.5 Q966.0 -295.0 939.0 -261.0 912.5 -227.0 884.5 -191.5 906.0 -134.5 929.0 -80.0 951.5 -25.5 976.0 26.5 L823.5 102.5 Q807.0 65.5 792.5 29.5 777.5 -7.0 764.0 -43.0 736.5 -10.5 708.5 23.0 680.5 56.5 651.5 91.0 L523.5 -9.0 Q569.5 -60.0 614.0 -111.0 658.5 -162.0 701.5 -213.0 690.0 -245.5 679.5 -278.0 668.5 -310.5 659.5 -343.0 649.5 -376.0 640.5 -409.0 631.0 -442.5 622.5 -476.0 595.0 -476.0 567.5 -476.5 540.0 -477.0 513.0 -477.0 479.5 -477.0 446.0 -476.5 413.0 -476.0 380.0 -476.0 L380.0 -249.0 Q412.0 -268.0 448.0 -291.0 484.0 -314.0 523.5 -341.0 L555.0 -284.5 Q506.0 -251.0 462.0 -222.5 418.5 -194.5 380.0 -173.0 L380.0 99.5 219.0 99.5 219.0 -95.0 Q185.5 -81.5 150.0 -69.0 114.0 -56.5 76.0 -45.0 L55.5 -105.5 Q102.0 -120.0 143.0 -135.0 184.0 -149.5 219.0 -165.0 L219.0 -472.0 Q178.5 -470.5 138.5 -468.5 98.5 -466.5 59.5 -465.0 L59.5 -525.5 Q99.5 -527.0 139.5 -529.0 179.0 -531.0 219.0 -532.5 L219.0 -695.5 Q185.5 -692.0 150.0 -690.5 114.0 -689.0 76.0 -689.0 L76.0 -741.5 Q147.0 -743.0 204.0 -747.5 261.0 -752.5 304.0 -761.0 351.0 -767.5 404.0 -781.5 456.5 -795.5 515.0 -817.0" fill-rule="evenodd" stroke="none"/>
    </g>
    <g id="font_DFPOP3_Std_W12__1">
      <path d="M331.0 -249.0 Q389.0 -252.5 447.0 -255.0 505.0 -257.0 563.0 -257.0 613.0 -257.0 663.0 -255.5 713.0 -254.0 764.0 -251.0 L764.0 -253.0 Q764.0 -290.5 743.5 -309.5 723.0 -328.5 683.0 -328.5 609.5 -326.5 521.5 -318.0 434.0 -309.0 333.0 -294.0 332.0 -281.5 331.5 -270.5 331.0 -259.5 331.0 -249.0 M327.5 -121.0 Q387.0 -124.5 446.0 -127.0 505.0 -129.0 563.0 -129.0 663.0 -129.0 763.0 -123.0 763.0 -141.5 763.0 -158.5 763.0 -175.5 764.0 -191.5 713.0 -194.5 663.0 -196.0 612.5 -197.5 563.0 -197.5 504.0 -197.5 445.5 -195.5 387.0 -193.5 328.5 -189.5 328.0 -175.5 328.0 -162.5 327.5 -149.5 327.5 -137.0 L327.5 -121.0 M333.0 11.5 Q399.5 6.5 466.5 5.0 533.5 3.0 601.0 3.0 681.0 3.0 761.0 6.0 761.0 -12.0 761.0 -29.5 761.0 -46.5 762.0 -63.5 712.0 -66.5 662.0 -68.0 612.5 -69.5 563.0 -69.5 505.0 -69.5 446.0 -67.5 387.0 -65.5 328.5 -61.5 329.0 -43.0 330.0 -24.5 331.0 -6.5 333.0 11.5 M936.0 -821.0 L947.0 -769.0 Q709.0 -737.0 529.5 -726.0 518.0 -725.0 506.5 -724.5 495.0 -724.0 484.5 -724.0 476.0 -705.5 468.0 -688.0 460.5 -670.0 452.5 -653.5 L512.0 -653.5 Q619.5 -653.5 727.0 -650.0 835.0 -647.0 943.0 -641.0 L943.0 -581.5 Q835.0 -587.0 727.0 -590.0 619.5 -593.0 512.0 -593.0 490.0 -593.0 468.0 -592.5 446.5 -592.0 425.0 -592.0 416.0 -572.5 408.0 -555.0 400.0 -537.0 392.0 -520.0 421.5 -520.5 451.5 -520.5 481.5 -521.0 512.0 -521.0 625.5 -521.0 739.5 -518.0 853.5 -515.0 967.5 -509.0 L967.5 -449.5 Q853.5 -455.0 739.5 -458.0 625.5 -461.0 512.0 -461.0 474.5 -460.5 437.5 -460.5 400.5 -460.0 363.5 -460.0 354.5 -440.5 346.5 -423.0 338.5 -405.5 331.0 -390.0 329.0 -386.5 327.0 -383.0 325.0 -380.0 323.5 -377.0 L340.0 -377.0 Q339.0 -370.5 338.5 -365.0 338.0 -359.5 338.0 -354.5 461.5 -371.5 553.0 -380.0 644.5 -389.0 703.5 -389.0 L727.0 -389.0 Q777.5 -389.0 813.5 -380.0 849.0 -371.0 870.5 -353.5 890.5 -335.5 901.0 -311.5 911.5 -287.5 911.5 -257.0 911.5 -197.0 910.5 -129.5 910.0 -61.5 908.5 14.5 913.5 14.5 919.5 14.5 925.5 14.5 932.0 15.5 L932.0 75.0 Q849.0 68.5 766.5 65.5 684.0 62.5 601.0 62.5 534.0 62.5 468.5 64.5 402.5 66.0 338.0 70.5 338.0 78.5 338.5 86.5 339.0 94.5 340.0 102.5 L208.0 102.5 Q201.5 42.5 198.5 -16.5 195.5 -75.5 195.5 -135.0 188.0 -120.0 179.5 -105.0 171.5 -90.5 164.0 -77.0 L43.0 -161.0 Q126.0 -294.5 196.5 -437.0 201.0 -446.5 206.0 -455.5 129.0 -452.5 55.5 -449.5 L55.5 -509.0 Q100.5 -511.0 146.0 -513.0 191.5 -514.5 237.5 -516.0 246.0 -534.5 254.5 -552.5 263.0 -570.5 271.5 -589.0 223.0 -587.5 175.0 -585.5 127.5 -584.0 80.0 -581.5 L80.0 -641.0 Q135.0 -644.0 190.0 -646.5 245.0 -648.5 300.0 -650.0 307.5 -667.0 315.0 -684.0 322.0 -701.0 329.5 -718.0 273.5 -715.5 214.0 -714.0 154.0 -712.5 91.0 -712.5 L91.0 -765.0 Q229.5 -766.5 338.5 -770.0 448.0 -773.0 529.5 -779.5 620.0 -784.5 721.5 -795.5 823.0 -806.0 936.0 -821.0" fill-rule="evenodd" stroke="none"/>
    </g>
    <g id="font_DFPOP3_Std_W12__2">
      <path d="M570.5 -309.0 Q569.5 -290.0 569.0 -272.5 568.5 -255.0 568.5 -239.5 618.0 -239.5 668.0 -238.0 718.0 -237.0 768.0 -234.5 L768.0 -240.5 Q768.0 -277.0 749.5 -295.0 731.5 -313.5 695.5 -313.5 664.5 -312.5 633.5 -311.5 602.5 -311.0 570.5 -309.0 M224.5 -232.5 Q272.5 -234.5 321.0 -236.5 369.0 -238.0 417.0 -239.5 417.0 -253.5 417.5 -268.5 418.0 -284.0 419.0 -300.0 372.5 -296.0 325.0 -292.0 277.5 -288.0 228.5 -283.5 227.0 -270.0 225.5 -257.5 224.5 -244.5 224.5 -232.5 M567.5 -180.0 Q566.5 -157.0 566.0 -138.0 565.5 -119.5 565.0 -105.5 614.5 -105.5 663.0 -104.0 711.5 -103.0 760.0 -101.5 763.0 -141.5 766.0 -175.0 715.0 -177.5 665.5 -179.0 615.5 -180.0 567.5 -180.0 M227.5 -96.5 Q273.5 -98.5 320.0 -100.0 366.5 -102.0 412.5 -103.5 412.5 -119.0 413.5 -138.0 414.0 -157.0 414.5 -180.0 366.5 -178.5 318.5 -177.0 271.0 -175.5 223.0 -173.0 223.0 -153.0 224.0 -134.0 225.0 -114.5 227.5 -96.5 M655.5 -525.5 Q681.5 -504.5 713.0 -483.5 745.0 -463.0 783.5 -441.5 L726.0 -372.5 743.5 -372.5 Q791.0 -372.5 825.5 -364.0 859.5 -355.0 879.5 -338.0 899.5 -321.0 909.5 -298.0 919.5 -274.5 919.5 -244.5 919.5 -177.0 910.5 -94.0 916.5 -94.0 922.0 -93.5 927.0 -93.0 932.0 -93.0 L932.0 -33.0 Q746.0 -45.0 563.0 -45.0 563.5 -23.0 567.5 -8.0 572.0 6.5 579.5 14.5 587.5 23.5 599.5 29.0 611.5 34.0 627.5 35.0 740.0 35.0 972.0 7.0 L967.5 70.5 Q848.0 83.0 751.0 89.0 654.0 95.0 579.5 95.0 L549.0 95.0 Q516.0 95.0 489.5 83.0 463.5 70.5 443.5 46.0 428.0 30.5 420.0 8.5 412.5 -14.0 411.5 -43.0 367.0 -41.5 322.5 -40.0 278.5 -38.5 234.5 -37.0 235.5 -28.5 236.5 -20.5 238.0 -13.0 239.5 -5.0 L91.0 -5.0 Q83.5 -49.5 79.5 -95.0 76.0 -140.0 76.0 -185.5 76.0 -230.0 79.5 -275.0 83.5 -320.0 91.0 -365.5 L239.5 -365.5 Q238.0 -359.5 237.5 -354.0 236.5 -348.5 236.5 -343.0 395.5 -357.0 513.0 -364.5 631.0 -372.0 707.5 -372.5 675.5 -391.0 646.5 -411.5 618.0 -432.0 592.0 -453.5 L655.5 -525.5 M275.5 -521.0 Q327.5 -481.5 407.5 -441.5 L343.0 -365.5 Q307.0 -384.5 274.0 -405.5 241.0 -426.5 212.0 -449.5 L275.5 -521.0 M512.0 -829.5 Q736.5 -829.5 963.5 -817.0 L963.5 -756.5 Q868.5 -761.5 773.0 -764.5 678.0 -767.5 583.5 -769.0 L583.5 -711.5 Q600.0 -711.5 615.0 -712.0 630.5 -712.5 645.0 -712.5 L660.5 -712.5 Q742.0 -712.5 801.0 -705.5 859.5 -698.0 895.0 -684.0 972.0 -650.0 972.0 -573.5 970.0 -527.5 965.0 -486.5 960.0 -445.5 951.5 -409.5 L795.5 -409.5 Q806.5 -456.5 812.0 -497.5 817.5 -538.0 819.0 -573.5 819.0 -600.5 805.0 -617.0 790.5 -634.0 763.0 -641.0 747.5 -644.0 728.5 -646.5 709.5 -649.0 688.0 -651.5 712.0 -630.5 741.0 -610.0 770.0 -589.5 804.0 -569.5 L743.5 -496.5 Q669.5 -539.5 611.5 -589.0 L667.5 -652.5 Q654.5 -652.5 641.0 -653.0 627.0 -653.0 613.5 -653.5 L583.5 -653.5 583.5 -393.0 435.0 -393.0 435.0 -643.0 Q383.0 -637.0 327.5 -631.0 350.0 -614.0 376.0 -597.5 402.0 -581.5 431.0 -565.0 L371.5 -493.5 Q335.0 -512.5 302.0 -533.5 269.0 -554.5 239.5 -577.5 L281.5 -624.5 Q260.0 -621.5 238.0 -618.5 216.0 -615.5 194.5 -612.5 191.5 -580.0 191.5 -551.0 191.5 -513.0 195.5 -476.0 199.5 -438.5 208.0 -401.5 L59.5 -401.5 Q51.0 -438.5 47.0 -476.0 43.0 -513.0 43.0 -551.0 43.0 -588.0 47.0 -625.5 51.0 -663.0 59.5 -701.5 L208.0 -701.5 Q206.5 -694.0 205.0 -687.0 203.5 -680.0 203.0 -674.0 267.0 -683.0 325.0 -690.0 383.0 -697.0 435.0 -701.5 L435.0 -768.0 Q341.0 -767.0 247.0 -764.5 153.0 -761.5 59.5 -756.5 L59.5 -817.0 Q172.5 -823.5 285.5 -826.5 398.5 -829.5 512.0 -829.5" fill-rule="evenodd" stroke="none"/>
    </g>
    <g id="font_DFPOP3_Std_W12__3">
      <path d="M450.5 -327.5 Q449.0 -364.5 448.5 -402.0 447.5 -439.5 447.5 -477.0 447.5 -557.0 450.5 -637.0 444.5 -621.5 434.5 -603.0 425.0 -584.5 412.5 -562.0 399.0 -537.0 383.0 -511.5 367.0 -486.5 350.0 -462.0 373.5 -427.0 398.5 -393.5 423.5 -360.0 450.5 -327.5 M594.0 -608.5 Q622.5 -610.5 651.0 -612.0 679.0 -613.5 707.5 -613.5 729.0 -613.5 751.0 -612.5 773.0 -612.0 794.5 -610.5 792.5 -658.0 788.5 -689.0 785.0 -720.0 780.5 -735.0 777.0 -747.5 768.0 -754.0 759.0 -761.0 743.5 -761.0 728.0 -761.0 692.0 -752.5 655.5 -744.0 598.0 -727.0 596.5 -696.5 595.0 -667.0 594.0 -637.5 594.0 -608.5 M593.0 -407.5 Q621.5 -410.0 649.5 -411.5 678.0 -412.5 705.5 -412.5 728.0 -412.5 750.0 -412.0 772.0 -411.0 793.5 -409.5 794.5 -440.5 795.0 -468.5 795.5 -497.0 795.5 -523.5 L795.5 -550.0 Q773.5 -551.5 751.0 -552.0 729.0 -553.0 707.5 -553.0 678.5 -553.0 650.0 -551.5 621.5 -550.0 593.0 -548.0 592.0 -529.5 592.0 -511.5 592.0 -494.0 592.0 -477.0 592.0 -459.0 592.0 -441.5 592.0 -424.5 593.0 -407.5 M599.0 -215.0 Q634.5 -218.0 670.0 -219.5 706.0 -221.0 741.5 -221.0 752.0 -221.0 763.5 -220.5 774.5 -220.0 785.5 -220.0 787.0 -254.5 788.5 -287.0 790.0 -319.5 791.5 -350.0 747.0 -353.5 705.5 -353.5 676.5 -353.0 648.5 -352.0 621.0 -350.5 594.0 -348.0 594.0 -314.5 595.5 -281.0 596.5 -247.5 599.0 -215.0 M179.0 -840.5 L327.5 -840.5 327.5 -761.0 329.5 -761.0 Q381.0 -761.0 412.0 -746.5 443.0 -732.0 453.5 -703.5 455.0 -762.0 460.0 -817.0 L603.0 -817.0 Q602.5 -808.5 601.5 -801.0 601.0 -793.5 601.0 -786.5 659.5 -802.0 710.0 -810.5 761.0 -819.0 804.0 -821.0 L814.0 -821.0 Q861.5 -821.0 890.0 -804.5 918.5 -788.0 927.5 -755.5 935.5 -726.5 939.5 -668.5 943.0 -610.0 943.0 -523.5 943.0 -452.5 941.0 -375.0 938.5 -297.0 934.0 -211.0 939.5 -210.0 944.5 -209.5 950.0 -209.0 955.5 -209.0 L955.5 -149.5 Q931.0 -152.0 907.0 -154.0 883.0 -156.0 859.0 -157.5 853.0 -104.0 850.5 -70.0 848.0 -36.0 848.0 -21.5 848.0 18.5 888.0 18.5 918.5 18.5 967.5 3.0 L967.5 62.5 Q931.0 70.0 901.0 74.5 871.0 79.0 848.0 79.0 809.5 79.0 782.5 73.0 755.0 67.0 738.5 55.5 721.5 44.0 713.0 27.5 704.0 11.5 703.5 -9.0 703.5 -26.0 706.5 -64.0 710.0 -101.5 717.0 -161.0 705.5 -160.5 694.5 -160.5 684.0 -160.0 674.0 -159.5 644.0 -92.0 612.5 -30.5 581.0 31.0 548.0 87.0 L407.5 15.5 Q437.5 -23.0 463.5 -61.0 490.0 -99.0 513.0 -137.0 L460.0 -137.0 Q457.0 -172.5 455.0 -207.5 453.0 -242.0 451.5 -277.5 L363.5 -205.0 Q353.0 -218.5 343.0 -232.5 333.0 -246.0 323.5 -259.0 L323.5 95.0 171.0 95.0 171.0 -242.5 Q162.5 -233.5 155.0 -225.0 147.0 -216.5 139.5 -209.0 L23.5 -328.5 Q98.0 -400.0 159.0 -472.5 219.5 -545.0 267.5 -618.5 289.0 -651.5 300.0 -671.5 311.0 -691.0 311.5 -697.5 311.5 -699.0 302.0 -700.0 293.0 -701.5 275.5 -701.5 261.0 -701.5 204.0 -677.0 147.0 -653.0 47.0 -605.0 L47.0 -665.5 Q85.5 -683.5 118.5 -697.5 151.5 -712.0 179.0 -723.0 L179.0 -840.5" fill-rule="evenodd" stroke="none"/>
    </g>
    <g id="font_DFPOP3_Std_W12__4">
      <path d="M567.5 -229.5 Q587.5 -229.5 606.5 -222.5 625.5 -216.0 643.0 -204.0 659.0 -188.5 667.5 -169.0 676.0 -149.5 676.0 -125.0 676.0 -101.0 666.0 -81.0 656.5 -61.0 638.0 -45.0 604.0 -17.5 567.5 -17.5 544.5 -17.5 525.0 -26.5 505.5 -36.0 489.5 -54.5 476.5 -71.0 470.0 -89.0 464.0 -106.5 464.0 -125.0 464.0 -145.5 469.5 -164.0 475.0 -182.0 487.5 -197.5 503.0 -213.0 523.0 -221.0 542.5 -229.5 567.5 -229.5 M703.5 -325.5 Q719.0 -325.5 733.5 -325.0 748.5 -324.5 764.0 -324.5 L764.0 -433.0 923.5 -433.0 923.5 -317.5 Q939.0 -316.0 953.5 -315.0 968.5 -314.0 983.0 -313.5 L983.0 -253.0 Q967.5 -253.5 953.0 -254.5 938.0 -255.5 923.5 -257.0 L923.5 -57.5 Q923.5 -21.5 917.0 6.5 910.0 34.5 897.0 54.5 881.0 74.5 847.5 84.5 814.5 95.0 764.0 95.0 730.0 95.0 679.5 89.0 629.5 83.0 563.0 70.5 L563.0 11.5 Q604.5 23.0 637.5 29.0 670.5 35.0 695.5 35.0 729.0 35.0 746.5 16.5 764.0 -1.5 764.0 -37.0 L764.0 -264.0 Q748.5 -264.5 733.5 -264.5 718.0 -265.0 703.5 -265.0 562.0 -265.0 424.0 -253.0 L424.0 -313.5 Q562.0 -325.5 703.5 -325.5 M611.5 -527.5 L611.5 -700.5 Q563.0 -699.0 515.0 -696.0 467.5 -693.0 420.0 -689.0 L420.0 -749.5 Q467.5 -753.5 515.5 -756.0 563.5 -758.5 611.5 -760.0 L611.5 -833.5 771.0 -833.5 771.0 -760.0 Q822.0 -758.5 873.0 -756.0 924.5 -753.5 976.0 -749.5 L976.0 -689.0 Q923.5 -693.5 872.5 -696.5 821.5 -699.0 771.0 -700.5 L771.0 -528.5 Q818.5 -527.0 865.5 -524.5 912.5 -521.5 959.5 -517.0 L959.5 -456.5 Q833.5 -469.0 707.5 -469.0 581.5 -469.0 455.5 -456.5 L455.5 -517.0 Q495.0 -520.5 534.0 -523.0 573.0 -526.0 611.5 -527.5 M196.5 -435.0 Q207.5 -436.0 218.0 -436.5 229.0 -437.0 239.5 -437.0 L256.0 -437.0 256.0 -438.5 Q255.0 -536.5 251.5 -598.0 248.0 -659.0 241.5 -683.0 238.5 -697.5 230.0 -705.0 221.5 -712.5 208.0 -712.5 206.5 -712.5 205.0 -712.0 203.5 -711.5 201.5 -711.5 198.5 -642.0 197.5 -572.5 196.5 -503.5 196.5 -435.0 M201.5 -90.0 Q212.5 -91.0 223.5 -91.5 235.0 -92.0 246.0 -92.0 249.5 -172.0 252.0 -243.5 254.5 -314.5 256.0 -377.0 L239.5 -377.0 Q228.0 -377.0 217.0 -376.0 206.5 -375.5 195.5 -375.0 195.5 -302.5 197.0 -231.5 198.5 -160.5 201.5 -90.0 M59.5 -777.0 L204.0 -777.0 204.0 -766.0 Q215.5 -769.0 226.0 -770.5 237.0 -772.5 248.0 -773.0 L259.0 -773.0 Q312.0 -773.0 343.5 -755.0 375.5 -736.5 386.0 -700.5 394.5 -666.5 399.0 -601.0 403.5 -536.0 403.5 -438.5 403.5 -359.0 400.5 -270.5 398.0 -182.0 393.0 -84.0 398.5 -83.0 404.0 -82.5 409.5 -81.5 415.5 -81.0 L415.5 -21.5 Q379.0 -27.0 343.0 -30.0 306.5 -32.5 271.5 -33.0 254.5 -32.5 237.5 -32.0 221.0 -31.5 205.0 -30.5 205.5 -17.0 206.5 -3.5 207.0 9.5 208.0 22.5 L63.5 22.5 Q51.0 -177.0 51.0 -377.0 51.0 -476.5 53.0 -577.0 55.0 -677.5 59.5 -777.0" fill-rule="evenodd" stroke="none"/>
    </g>
    <g id="font_DFPOP3_Std_W12__5">
      <path d="M169.0 -588.0 Q160.0 -545.0 155.5 -517.0 151.5 -489.5 151.5 -477.0 151.5 -449.0 174.5 -435.0 197.5 -421.0 243.5 -421.0 263.5 -421.0 286.5 -423.5 310.0 -426.0 336.0 -432.0 323.0 -443.0 310.5 -453.0 298.5 -463.0 287.5 -473.0 277.0 -461.5 267.0 -450.5 257.0 -440.0 248.0 -429.0 L159.5 -473.0 Q175.0 -488.5 189.0 -504.5 203.5 -520.5 217.0 -537.5 204.0 -550.0 192.0 -562.5 179.5 -575.0 169.0 -588.0 M399.5 -515.0 L399.5 -617.5 Q387.0 -600.0 375.5 -583.5 363.5 -567.5 352.5 -552.0 363.5 -542.5 375.5 -533.5 387.0 -524.5 399.5 -515.0 M399.5 -449.5 L399.5 -499.5 344.0 -434.0 Q370.0 -440.5 399.5 -449.5 M298.0 -186.5 L380.0 -221.0 Q386.0 -201.0 394.0 -180.0 402.5 -159.0 411.5 -137.0 L411.5 -158.5 Q411.5 -204.0 404.0 -231.0 396.5 -258.0 382.0 -267.5 368.0 -274.0 353.5 -278.0 339.0 -281.5 323.5 -281.5 315.0 -253.0 309.0 -229.5 302.5 -205.5 298.0 -186.5 M323.5 -100.5 Q316.0 -120.5 309.5 -141.0 303.0 -161.5 297.0 -182.5 287.5 -141.0 287.5 -121.0 287.5 -108.5 291.5 -103.0 295.5 -97.0 303.0 -97.5 307.5 -97.5 313.0 -98.0 318.0 -99.0 323.5 -100.5 M683.0 -456.5 Q700.0 -457.5 717.5 -458.0 734.5 -459.0 751.5 -460.0 L751.5 -620.5 Q733.0 -620.0 716.0 -619.0 699.0 -618.0 683.0 -616.5 L683.0 -456.5 M683.0 -236.5 Q700.0 -237.5 717.5 -238.0 734.5 -239.0 751.5 -239.5 L751.5 -400.5 Q734.0 -399.5 717.0 -398.5 700.0 -398.0 683.0 -396.5 L683.0 -236.5 M683.0 -4.0 Q700.0 -5.5 717.5 -6.5 734.5 -7.5 751.5 -8.0 L751.5 -180.0 Q734.0 -179.5 717.0 -178.5 700.0 -177.5 683.0 -176.0 L683.0 -4.0 M319.5 -668.5 L399.5 -633.0 399.5 -645.0 508.0 -645.0 508.0 -581.5 Q541.5 -645.5 571.5 -707.5 601.5 -769.5 627.5 -829.5 L743.5 -769.0 Q732.5 -745.0 721.5 -722.0 710.0 -699.0 698.5 -677.0 712.0 -677.5 725.5 -678.5 738.5 -679.0 751.5 -680.0 L751.5 -809.0 892.0 -809.0 892.0 -678.0 Q915.0 -676.5 938.0 -674.0 960.5 -671.5 983.0 -668.5 L983.0 -609.5 Q960.0 -612.5 937.5 -614.5 915.0 -617.0 892.0 -618.5 L892.0 -457.5 Q912.0 -456.0 932.0 -454.0 952.0 -452.0 972.0 -449.5 L972.0 -389.0 Q952.0 -391.5 932.0 -393.5 912.0 -395.5 892.0 -397.5 L892.0 -237.5 Q912.0 -236.0 932.0 -234.0 952.0 -231.5 972.0 -229.5 L972.0 -169.0 Q952.0 -171.5 932.0 -173.5 912.0 -175.5 892.0 -177.0 L892.0 -6.0 Q915.0 -4.5 938.0 -2.5 960.5 0.0 983.0 3.0 L983.0 62.5 Q937.0 56.5 891.5 54.0 846.0 51.0 799.5 51.0 770.0 51.0 740.5 52.0 711.5 53.5 683.0 56.5 L683.0 91.0 559.0 91.0 559.0 -432.0 508.0 -464.0 508.0 -361.5 399.5 -361.5 399.5 -392.0 Q388.0 -389.0 377.0 -386.0 366.0 -383.5 355.5 -381.0 351.5 -370.0 348.5 -359.5 345.0 -349.0 342.0 -340.0 348.0 -340.0 355.0 -340.5 361.5 -341.0 367.5 -341.0 L388.0 -341.0 Q426.5 -341.0 453.5 -334.5 480.5 -327.5 495.5 -315.5 535.5 -283.0 535.5 -158.5 535.5 -108.0 533.5 -65.0 531.5 -22.5 528.5 12.5 526.0 32.5 519.5 47.5 512.5 62.5 502.0 72.5 491.0 80.5 474.0 85.0 456.5 89.5 432.0 91.0 L415.5 91.0 Q396.5 91.0 372.5 88.0 348.5 85.0 319.5 79.0 L319.5 18.5 Q336.5 24.5 351.0 27.5 366.0 30.5 380.0 30.5 392.0 30.5 399.0 24.0 405.5 17.0 406.5 4.0 406.5 -3.0 407.0 -10.5 408.0 -18.0 408.5 -26.5 L359.5 -1.0 Q354.0 -13.5 349.5 -26.0 344.5 -39.0 340.0 -51.0 320.0 -43.5 302.5 -40.0 285.0 -37.0 271.5 -37.0 245.0 -37.0 226.0 -41.5 207.0 -46.5 195.5 -57.5 172.5 -77.5 171.0 -112.5 171.0 -132.5 179.0 -171.0 187.0 -209.0 204.0 -265.0 184.0 -260.5 167.0 -256.0 164.0 -191.5 164.0 -127.0 164.0 -75.0 166.5 -22.5 169.0 30.0 175.0 83.0 L55.5 83.0 Q49.0 30.0 46.0 -22.5 43.0 -75.0 43.0 -127.0 43.0 -179.5 45.0 -232.0 46.5 -284.5 51.0 -337.0 L171.0 -337.0 Q170.5 -331.0 170.0 -325.0 170.0 -319.5 170.0 -314.5 183.0 -317.5 196.0 -320.0 209.0 -322.5 221.0 -325.5 227.5 -344.0 233.5 -362.5 227.5 -362.0 222.0 -361.5 216.5 -361.5 212.0 -361.5 166.5 -361.5 134.0 -368.5 101.0 -375.5 81.0 -390.0 61.0 -404.0 51.0 -423.5 40.5 -443.0 40.0 -469.0 40.0 -486.5 47.0 -529.0 54.0 -571.0 67.5 -637.0 L179.0 -637.0 Q177.0 -627.5 175.0 -619.0 173.5 -610.0 172.0 -602.0 L227.5 -665.5 Q239.5 -652.0 252.5 -639.0 265.5 -626.5 279.5 -614.5 290.5 -628.0 300.5 -641.5 310.5 -655.0 319.5 -668.5 M219.0 -829.5 L371.5 -829.5 371.5 -764.0 Q414.0 -762.5 456.0 -759.5 498.0 -756.5 539.5 -752.5 L539.5 -693.0 Q477.5 -699.5 415.5 -702.5 353.5 -705.5 292.0 -705.5 167.5 -705.5 43.0 -693.0 L43.0 -752.5 Q87.5 -757.0 131.5 -760.0 175.5 -762.5 219.0 -764.0 L219.0 -829.5" fill-rule="evenodd" stroke="none"/>
    </g>
    <g id="font_DFPOP3_Std_W12__6">
      <path d="M427.0 -287.5 L427.0 -393.0 596.0 -393.0 596.0 -287.5 Q682.0 -287.0 769.0 -284.5 855.5 -282.0 943.0 -277.5 L943.0 -217.0 Q855.5 -221.5 769.0 -224.5 682.0 -227.5 596.0 -228.5 L596.0 -24.5 Q687.5 -24.0 779.5 -21.0 871.5 -18.0 963.5 -13.5 L963.5 47.0 Q736.5 35.0 512.0 35.0 398.5 35.0 285.5 38.0 172.5 41.0 59.5 47.0 L59.5 -13.5 Q151.5 -18.0 243.0 -21.0 335.0 -24.0 427.0 -24.5 L427.0 -228.5 Q339.5 -227.5 252.5 -224.5 166.0 -221.5 80.0 -217.0 L80.0 -277.5 Q166.5 -282.0 253.5 -284.5 340.0 -287.0 427.0 -287.5 M512.0 -813.0 Q623.5 -813.0 735.5 -810.0 847.5 -807.0 959.5 -801.0 L959.5 -741.5 Q849.5 -747.0 740.5 -749.5 631.5 -752.5 523.5 -752.5 403.5 -648.0 280.5 -525.5 274.5 -516.0 271.0 -508.5 267.5 -501.5 267.5 -496.5 267.5 -469.0 347.0 -469.0 400.0 -469.0 500.0 -480.0 600.0 -491.0 746.5 -514.0 730.5 -546.0 715.5 -579.0 701.0 -611.5 687.0 -645.0 L831.5 -705.5 Q856.0 -646.5 890.5 -580.5 924.5 -514.5 967.5 -441.5 L823.5 -365.5 Q809.5 -389.5 796.5 -414.0 783.5 -438.0 771.0 -463.0 600.0 -436.0 475.0 -423.0 349.5 -409.5 271.5 -409.5 148.5 -409.5 121.0 -428.0 100.0 -437.0 90.0 -453.5 80.0 -470.0 80.0 -493.5 80.0 -501.5 81.5 -509.5 83.0 -518.0 86.0 -526.5 92.0 -540.0 102.5 -555.5 113.0 -570.5 127.0 -585.5 171.5 -633.5 214.5 -674.5 257.5 -715.5 299.0 -749.5 240.0 -748.0 181.0 -746.0 122.0 -744.5 63.5 -741.5 L63.5 -801.0 Q287.5 -813.0 512.0 -813.0" fill-rule="evenodd" stroke="none"/>
    </g>
    <g id="font_DFPOP3_Std_W12__7">
      <path d="M212.0 -765.0 L363.5 -749.5 Q333.5 -614.5 289.5 -476.5 245.5 -338.0 187.5 -197.5 L36.0 -237.5 Q94.0 -368.0 138.0 -499.5 182.0 -631.5 212.0 -765.0 M431.0 -833.5 L592.0 -833.5 592.0 -349.0 Q592.0 -317.0 586.0 -292.0 580.0 -267.0 569.5 -250.0 615.5 -276.0 665.5 -306.0 715.5 -336.0 769.0 -370.5 707.5 -555.0 655.5 -745.5 L804.0 -777.0 Q842.5 -648.0 886.5 -512.5 931.0 -376.5 980.0 -233.5 L831.5 -185.5 Q827.5 -195.5 824.5 -205.0 821.0 -215.0 818.0 -224.5 731.5 -169.0 657.0 -125.5 582.0 -82.0 519.0 -51.0 439.0 -13.0 341.0 24.0 243.5 60.5 128.0 95.0 L80.0 -45.0 Q185.0 -76.5 272.0 -109.5 359.0 -142.5 428.0 -177.0 448.0 -186.5 469.0 -196.5 490.5 -207.0 512.0 -219.0 499.0 -216.0 483.5 -214.5 468.5 -213.0 451.5 -213.0 388.5 -213.0 267.5 -237.5 L267.5 -297.0 Q308.0 -284.5 340.0 -279.0 372.0 -273.5 395.5 -273.5 413.0 -273.5 422.0 -285.0 431.0 -297.0 431.0 -321.5 L431.0 -833.5" fill-rule="evenodd" stroke="none"/>
    </g>
    <g id="font_DFPOP3_Std_W12_30">
      <path d="M608.5 -227.5 Q608.5 -173.0 584.5 -129.5 560.5 -86.5 513.0 -54.5 471.5 -26.5 425.0 -13.5 379.0 0.0 326.5 0.0 279.0 0.0 239.0 -12.5 199.0 -25.0 167.0 -50.0 96.5 -105.5 96.5 -197.5 96.0 -230.0 104.0 -259.0 112.0 -288.5 129.0 -314.5 L256.0 -261.0 Q243.5 -242.0 237.5 -224.0 231.5 -206.5 231.5 -189.5 231.5 -158.5 238.0 -135.0 244.5 -111.0 258.0 -94.0 271.0 -77.5 289.0 -69.5 306.5 -61.5 329.5 -61.5 392.5 -61.5 424.0 -98.5 455.5 -135.5 455.5 -211.0 455.5 -241.5 445.5 -266.5 435.5 -291.0 415.5 -310.5 398.0 -326.5 378.0 -334.5 358.0 -343.0 335.0 -343.0 319.5 -343.0 300.0 -342.0 281.0 -340.5 257.0 -339.0 L261.0 -402.5 Q307.5 -402.5 341.5 -406.5 375.5 -410.0 397.5 -418.0 434.0 -431.0 452.5 -457.0 471.0 -483.5 471.0 -523.5 471.0 -580.0 443.5 -609.0 416.5 -638.0 362.5 -638.0 249.0 -638.0 249.0 -533.5 249.0 -526.0 250.5 -518.0 252.0 -510.5 256.0 -503.0 261.5 -489.0 264.5 -482.0 267.5 -474.5 268.5 -473.0 L140.5 -421.0 Q129.5 -453.0 124.5 -475.5 119.5 -498.0 120.0 -511.0 119.5 -557.0 140.0 -593.0 160.5 -629.0 201.5 -655.5 236.5 -677.0 278.5 -688.0 321.0 -699.5 371.5 -699.5 416.0 -699.5 455.0 -689.0 493.5 -678.5 527.5 -658.5 566.0 -634.0 585.5 -600.5 605.0 -567.0 605.0 -525.5 605.0 -433.0 525.5 -375.0 608.5 -321.0 608.5 -227.5" fill-rule="evenodd" stroke="none"/>
    </g>
    <g id="font_DFPOP3_Std_W12__8">
      <path d="M443.5 -533.5 L575.5 -437.0 Q441.0 -257.5 367.0 -147.0 293.5 -37.0 279.5 3.0 279.5 12.5 287.5 17.5 295.0 22.5 311.5 22.5 346.5 22.5 445.0 7.5 544.0 -8.0 706.5 -38.0 648.0 -139.5 583.5 -265.0 L707.5 -361.5 Q770.5 -252.5 827.5 -162.5 884.5 -72.5 936.0 -1.0 L791.5 99.5 Q778.5 80.0 765.5 59.5 752.5 39.0 739.5 17.5 552.0 49.5 433.0 66.5 314.0 83.0 263.0 83.0 187.0 83.0 149.5 55.5 111.5 28.0 111.5 -25.5 111.5 -43.0 120.5 -68.0 129.0 -92.5 147.5 -125.0 224.5 -239.5 298.5 -341.5 372.5 -443.5 443.5 -533.5 M643.0 -821.0 Q662.0 -821.0 681.5 -812.0 701.0 -803.0 721.0 -784.5 744.0 -758.0 809.5 -669.5 875.5 -580.5 983.0 -429.0 L815.0 -325.5 Q744.5 -453.0 685.5 -549.5 626.5 -645.5 579.5 -711.5 569.0 -726.5 559.0 -734.0 549.0 -741.5 539.5 -741.5 531.0 -741.5 499.0 -728.5 467.0 -715.5 411.5 -689.0 L411.5 -741.5 Q597.5 -821.0 633.0 -821.0 L643.0 -821.0 M259.0 -829.5 L403.5 -752.5 Q355.0 -643.5 301.0 -535.5 247.5 -427.5 187.5 -321.5 L40.0 -412.5 Q103.5 -521.0 158.5 -625.5 213.0 -729.5 259.0 -829.5" fill-rule="evenodd" stroke="none"/>
    </g>
    <g id="font_DFPOP3_Std_W12__9">
      <path d="M267.5 -736.5 Q262.5 -665.0 259.0 -598.0 255.0 -531.5 252.0 -470.0 325.5 -473.0 399.0 -475.0 472.0 -477.0 546.0 -477.0 641.0 -477.0 739.5 -474.0 751.5 -591.0 751.5 -661.5 751.5 -710.5 715.5 -735.5 679.5 -761.0 607.0 -761.0 519.5 -759.5 434.5 -753.0 349.5 -747.0 267.5 -736.5 M707.5 -821.0 Q810.5 -819.0 862.0 -780.0 914.0 -741.0 915.5 -665.5 915.5 -619.5 912.0 -569.5 908.5 -519.5 902.0 -466.0 909.0 -466.0 915.5 -465.5 921.5 -465.0 927.5 -465.0 L927.5 -405.5 Q867.0 -408.5 807.0 -411.0 747.0 -413.0 687.0 -414.5 736.5 -316.5 801.5 -208.0 866.5 -100.0 947.0 18.5 L783.5 102.5 Q706.0 -19.5 635.0 -149.5 564.5 -279.0 500.5 -415.5 436.5 -415.5 373.0 -414.0 310.0 -412.5 248.0 -409.5 237.0 -251.5 227.0 -124.5 217.0 2.5 208.0 99.5 L43.0 83.0 Q61.5 -100.0 77.5 -329.0 93.5 -558.0 107.5 -833.5 L271.5 -825.5 Q270.5 -817.5 270.5 -810.0 270.5 -803.0 270.5 -796.5 376.5 -809.0 478.5 -815.0 581.0 -821.0 681.0 -821.0 L707.5 -821.0" fill-rule="evenodd" stroke="none"/>
    </g>
    <g id="font_DFPOP3_Std_W12__10">
      <path d="M584.5 -368.5 Q584.5 -382.5 579.5 -395.5 574.0 -408.5 563.0 -420.0 551.5 -430.5 539.0 -436.0 526.0 -441.5 512.0 -441.5 496.0 -441.5 483.0 -436.0 470.0 -431.0 460.0 -421.0 449.0 -410.0 444.0 -397.0 439.0 -384.0 439.5 -368.5 439.5 -353.5 444.5 -340.5 450.0 -328.0 461.0 -317.5 471.5 -306.0 484.0 -300.5 496.5 -295.0 512.0 -295.0 526.0 -295.0 539.0 -300.5 551.5 -306.0 563.0 -317.5 574.0 -328.0 579.5 -341.0 584.5 -354.0 584.5 -368.5 M665.5 -368.5 Q665.5 -338.0 654.0 -310.5 642.5 -283.0 619.5 -260.0 573.5 -214.0 512.0 -214.0 480.0 -214.0 452.5 -225.5 425.5 -237.0 403.5 -260.0 380.5 -282.5 369.5 -309.5 358.5 -336.5 358.5 -368.5 358.5 -434.5 401.5 -479.0 444.5 -522.0 512.0 -522.0 543.5 -522.0 570.5 -511.0 597.5 -499.5 620.5 -477.0 643.0 -454.0 654.0 -427.0 665.5 -400.0 665.5 -368.5" fill-rule="evenodd" stroke="none"/>
    </g>
  </defs>
</svg>
