<?xml version="1.0" encoding="UTF-8" standalone="no"?>
<svg xmlns:xlink="http://www.w3.org/1999/xlink" height="16.75px" width="125.25px" xmlns="http://www.w3.org/2000/svg">
  <g transform="matrix(1.0, 0.0, 0.0, 1.0, -7.65, 1.3)">
    <g transform="matrix(1.0, 0.0, 0.0, 1.0, 6.75, 0.0)">
      <use fill="#000000" height="16.75" transform="matrix(0.0146, 0.0, 0.0, 0.0146, 0.0, 13.0)" width="125.25" xlink:href="#font_DFPOP3_Std_W12__0"/>
      <use fill="#000000" height="16.75" transform="matrix(0.0146, 0.0, 0.0, 0.0146, 15.0, 13.0)" width="125.25" xlink:href="#font_DFPOP3_Std_W12__1"/>
      <use fill="#000000" height="16.75" transform="matrix(0.0146, 0.0, 0.0, 0.0146, 30.0, 13.0)" width="125.25" xlink:href="#font_DFPOP3_Std_W12__2"/>
      <use fill="#000000" height="16.75" transform="matrix(0.0146, 0.0, 0.0, 0.0146, 45.0, 13.0)" width="125.25" xlink:href="#font_DFPOP3_Std_W12__3"/>
      <use fill="#000000" height="16.75" transform="matrix(0.0146, 0.0, 0.0, 0.0146, 60.0, 13.0)" width="125.25" xlink:href="#font_DFPOP3_Std_W12__4"/>
    </g>
    <g transform="matrix(1.0, 0.0, 0.0, 1.0, 6.75, 0.0)">
      <use fill="#000000" height="16.75" transform="matrix(0.0146, 0.0, 0.0, 0.0146, 75.0, 13.0)" width="125.25" xlink:href="#font_DFPOP3_Std_W12_80"/>
    </g>
    <g transform="matrix(1.0, 0.0, 0.0, 1.0, 6.75, 0.0)">
      <use fill="#000000" height="16.75" transform="matrix(0.0146, 0.0, 0.0, 0.0146, 85.3, 13.0)" width="125.25" xlink:href="#font_DFPOP3_Std_W12__5"/>
      <use fill="#000000" height="16.75" transform="matrix(0.0146, 0.0, 0.0, 0.0146, 100.3, 13.0)" width="125.25" xlink:href="#font_DFPOP3_Std_W12__6"/>
      <use fill="#000000" height="16.75" transform="matrix(0.0146, 0.0, 0.0, 0.0146, 115.3, 13.0)" width="125.25" xlink:href="#font_DFPOP3_Std_W12__7"/>
    </g>
  </g>
  <defs>
    <g id="font_DFPOP3_Std_W12__0">
      <path d="M867.5 -789.5 Q887.0 -789.5 905.0 -783.0 923.0 -776.5 940.0 -764.0 955.5 -748.5 963.5 -729.0 971.5 -709.5 972.0 -685.0 971.5 -662.0 962.5 -643.0 953.5 -623.5 936.0 -608.5 919.0 -594.5 901.5 -588.0 884.5 -581.5 867.5 -581.5 844.5 -581.5 825.0 -590.5 805.5 -599.0 789.5 -617.5 776.5 -633.0 770.0 -649.5 764.0 -666.5 764.0 -685.0 764.0 -706.0 769.5 -723.5 775.0 -741.5 787.5 -756.5 803.0 -773.0 823.0 -781.0 843.0 -789.5 867.5 -789.5 M515.0 -817.0 L531.5 -752.5 Q490.0 -740.5 452.0 -731.0 414.5 -722.0 380.0 -716.0 L380.0 -536.5 Q413.0 -536.5 446.0 -537.0 479.5 -537.5 513.0 -537.5 536.0 -537.5 559.5 -537.0 583.5 -536.5 607.0 -536.5 592.0 -596.5 578.0 -658.0 564.0 -719.0 552.0 -781.5 L699.5 -829.5 Q716.5 -750.5 734.5 -676.5 753.0 -602.5 773.0 -533.5 821.5 -532.0 870.0 -530.0 918.5 -527.5 967.5 -525.5 L967.5 -465.0 Q923.0 -467.0 878.5 -469.0 834.5 -470.5 790.5 -472.0 796.5 -448.0 803.5 -425.5 810.5 -402.5 818.0 -381.0 819.0 -377.0 820.0 -374.0 821.0 -370.5 822.5 -367.5 833.0 -380.5 843.0 -394.0 853.5 -407.0 863.0 -421.0 L991.0 -328.5 Q966.0 -295.0 939.0 -261.0 912.5 -227.0 884.5 -191.5 906.0 -134.5 929.0 -80.0 951.5 -25.5 976.0 26.5 L823.5 102.5 Q807.0 65.5 792.5 29.5 777.5 -7.0 764.0 -43.0 736.5 -10.5 708.5 23.0 680.5 56.5 651.5 91.0 L523.5 -9.0 Q569.5 -60.0 614.0 -111.0 658.5 -162.0 701.5 -213.0 690.0 -245.5 679.5 -278.0 668.5 -310.5 659.5 -343.0 649.5 -376.0 640.5 -409.0 631.0 -442.5 622.5 -476.0 595.0 -476.0 567.5 -476.5 540.0 -477.0 513.0 -477.0 479.5 -477.0 446.0 -476.5 413.0 -476.0 380.0 -476.0 L380.0 -249.0 Q412.0 -268.0 448.0 -291.0 484.0 -314.0 523.5 -341.0 L555.0 -284.5 Q506.0 -251.0 462.0 -222.5 418.5 -194.5 380.0 -173.0 L380.0 99.5 219.0 99.5 219.0 -95.0 Q185.5 -81.5 150.0 -69.0 114.0 -56.5 76.0 -45.0 L55.5 -105.5 Q102.0 -120.0 143.0 -135.0 184.0 -149.5 219.0 -165.0 L219.0 -472.0 Q178.5 -470.5 138.5 -468.5 98.5 -466.5 59.5 -465.0 L59.5 -525.5 Q99.5 -527.0 139.5 -529.0 179.0 -531.0 219.0 -532.5 L219.0 -695.5 Q185.5 -692.0 150.0 -690.5 114.0 -689.0 76.0 -689.0 L76.0 -741.5 Q147.0 -743.0 204.0 -747.5 261.0 -752.5 304.0 -761.0 351.0 -767.5 404.0 -781.5 456.5 -795.5 515.0 -817.0" fill-rule="evenodd" stroke="none"/>
    </g>
    <g id="font_DFPOP3_Std_W12__1">
      <path d="M583.5 -312.5 Q618.5 -312.5 652.5 -312.0 687.0 -311.5 721.0 -311.5 724.0 -351.0 725.5 -388.5 727.0 -425.5 727.0 -461.0 727.0 -525.5 671.5 -525.5 638.0 -523.5 601.0 -520.0 564.0 -516.5 524.5 -511.0 550.5 -480.0 581.0 -449.5 612.0 -419.0 647.0 -389.0 L583.5 -312.5 M331.0 -311.5 Q380.0 -312.0 428.5 -312.5 477.0 -313.5 525.5 -313.5 L534.5 -313.5 Q504.0 -339.5 476.0 -367.5 448.5 -395.5 424.0 -425.0 L496.5 -507.0 Q467.5 -502.5 436.5 -497.5 406.0 -492.5 374.0 -486.5 347.5 -385.0 331.0 -311.5 M683.0 -26.5 Q693.0 -86.5 701.0 -142.5 708.5 -198.5 715.0 -251.0 666.5 -251.5 619.0 -252.5 571.5 -253.0 525.5 -253.0 473.0 -253.0 421.0 -252.0 369.0 -251.5 317.5 -250.0 306.5 -197.5 301.5 -160.5 296.0 -123.0 296.0 -101.5 296.0 -51.0 313.5 -26.0 331.5 -1.0 367.5 -1.0 402.0 -1.0 440.0 -2.5 477.5 -4.5 519.0 -8.0 484.0 -38.0 451.5 -70.5 419.5 -102.5 391.0 -137.0 L479.0 -237.5 Q505.5 -204.0 538.5 -170.0 571.5 -136.0 611.5 -101.5 L534.5 -9.0 Q570.0 -12.0 607.0 -16.5 644.0 -20.5 683.0 -26.5 M248.0 -581.5 L399.5 -581.5 Q396.5 -572.5 394.0 -564.0 391.5 -556.0 390.0 -549.0 490.0 -566.5 564.5 -575.5 639.5 -584.5 689.0 -584.5 L711.5 -584.5 Q757.0 -584.5 789.5 -576.5 822.0 -568.5 841.5 -553.0 860.0 -537.0 870.0 -514.5 879.5 -492.5 879.5 -465.0 879.5 -426.5 877.5 -386.5 875.5 -347.0 872.5 -306.0 900.0 -304.5 927.5 -303.5 955.5 -302.5 983.0 -301.0 L983.0 -240.5 Q954.0 -242.0 925.0 -243.0 896.0 -244.5 867.5 -246.0 862.0 -199.0 855.0 -150.5 848.0 -102.0 839.5 -51.0 853.5 -53.5 867.5 -56.0 881.5 -58.5 896.0 -61.5 L896.0 -1.0 Q878.5 2.0 861.5 4.5 844.5 7.0 828.5 10.0 824.0 31.5 819.5 52.5 815.5 74.0 811.0 95.0 L659.5 95.0 Q662.5 78.5 665.5 63.0 668.5 47.5 671.5 33.0 572.5 45.0 486.5 51.5 400.5 58.5 327.5 58.5 279.5 58.5 244.5 48.5 210.0 38.5 188.5 19.5 167.5 0.5 156.5 -27.0 145.0 -54.0 143.5 -89.0 143.5 -113.0 148.5 -152.0 154.0 -191.0 165.0 -244.5 140.5 -244.0 116.0 -243.0 91.5 -242.0 67.5 -240.5 L67.5 -301.0 Q95.0 -302.5 123.0 -303.5 150.5 -304.5 178.0 -306.0 190.5 -363.0 208.0 -431.5 225.5 -500.5 248.0 -581.5 M195.5 -833.5 L336.0 -817.0 Q329.0 -795.0 321.5 -773.0 314.0 -751.5 306.0 -730.0 374.5 -733.0 442.0 -735.0 510.0 -737.0 577.5 -737.5 666.5 -737.5 756.5 -734.0 846.0 -731.0 936.0 -725.0 L936.0 -665.5 Q846.0 -671.0 756.5 -674.0 666.5 -677.0 577.5 -677.0 503.0 -677.0 429.0 -674.5 355.5 -672.5 281.5 -668.5 244.5 -579.5 195.5 -493.5 L47.0 -529.5 Q96.5 -604.5 133.5 -680.5 171.0 -756.5 195.5 -833.5" fill-rule="evenodd" stroke="none"/>
    </g>
    <g id="font_DFPOP3_Std_W12__2">
      <path d="M519.0 -785.5 Q626.0 -785.5 733.0 -782.5 839.5 -779.5 947.0 -773.0 L947.0 -712.5 Q869.5 -717.0 792.5 -720.0 715.5 -722.5 639.0 -724.0 601.5 -648.5 567.0 -581.0 532.5 -513.5 502.0 -453.5 L513.0 -453.5 Q628.5 -453.5 744.0 -450.5 860.0 -447.5 976.0 -441.5 L976.0 -381.0 Q913.5 -384.0 852.0 -386.5 790.5 -388.5 729.0 -390.0 786.0 -297.0 849.5 -206.5 913.0 -116.5 983.0 -28.5 L835.5 95.0 Q751.0 -24.5 676.0 -146.5 601.0 -269.0 536.5 -393.0 530.5 -393.0 524.5 -393.0 518.5 -393.0 513.0 -393.0 L470.0 -393.0 Q456.5 -366.5 443.5 -341.5 431.0 -317.0 419.0 -294.0 363.0 -194.0 305.0 -96.5 247.5 0.5 187.5 95.0 L36.0 -13.5 Q92.0 -95.5 144.5 -180.5 196.5 -266.0 246.0 -354.5 250.5 -363.5 255.5 -372.0 260.5 -380.5 265.0 -389.0 211.5 -387.5 158.0 -386.0 104.0 -384.0 51.0 -381.0 L51.0 -441.5 Q175.5 -447.5 300.0 -450.5 336.0 -516.5 371.0 -585.0 405.5 -653.5 439.5 -724.0 352.0 -723.0 265.0 -720.5 178.0 -717.5 91.0 -712.5 L91.0 -773.0 Q198.0 -779.5 305.0 -782.5 411.5 -785.5 519.0 -785.5" fill-rule="evenodd" stroke="none"/>
    </g>
    <g id="font_DFPOP3_Std_W12__3">
      <path d="M563.0 -562.0 L563.0 -398.5 Q576.5 -398.5 589.5 -399.0 602.5 -399.5 615.5 -400.5 L615.5 -564.0 Q601.5 -563.5 588.5 -563.0 575.5 -562.0 563.0 -562.0 M811.0 -398.5 L811.0 -562.0 Q797.0 -563.0 784.5 -563.5 772.0 -564.0 760.0 -564.0 L760.0 -400.5 Q772.0 -400.5 785.0 -399.5 798.0 -399.0 811.0 -398.5 M760.0 -176.0 Q772.0 -176.0 785.0 -175.5 798.0 -175.0 811.0 -174.0 L811.0 -338.0 Q797.0 -338.5 784.5 -339.5 772.0 -340.0 760.0 -340.0 L760.0 -176.0 M563.0 -175.0 Q576.5 -175.0 589.5 -175.5 602.5 -176.0 615.5 -176.0 L615.5 -340.0 Q601.5 -339.0 588.5 -338.5 575.5 -338.0 563.0 -338.0 L563.0 -175.0 M939.0 -817.0 L951.5 -765.0 Q899.0 -753.5 851.0 -745.0 803.0 -736.0 760.0 -730.0 L760.0 -623.5 Q815.0 -622.0 870.0 -619.5 924.5 -617.0 980.0 -613.5 L980.0 -553.0 Q972.5 -553.0 965.0 -553.5 958.0 -554.0 951.5 -555.0 L951.5 -391.0 Q960.5 -390.5 969.0 -390.0 978.0 -389.0 987.0 -389.0 L987.0 -328.5 Q978.0 -328.5 969.0 -329.5 960.0 -330.0 951.5 -331.0 L951.5 -167.0 Q959.0 -166.0 966.0 -165.5 973.0 -165.0 980.0 -165.0 L980.0 -105.5 Q924.5 -109.5 869.5 -111.5 814.5 -114.0 760.0 -115.5 L760.0 16.5 Q815.0 17.0 870.0 19.5 924.5 22.0 980.0 26.5 L980.0 87.0 Q904.5 81.0 829.5 78.0 754.5 75.0 680.0 75.0 604.5 75.0 529.5 78.0 454.5 81.0 380.0 87.0 L380.0 26.5 Q438.5 22.0 497.5 19.0 556.5 16.5 615.5 16.5 L615.5 -115.5 Q560.0 -114.0 505.0 -111.5 450.0 -109.5 395.5 -105.5 L395.5 -165.0 Q403.0 -165.0 410.0 -165.5 417.0 -166.0 424.0 -167.0 L424.0 -332.0 Q402.5 -330.0 384.0 -328.5 L384.0 -389.0 Q394.0 -390.0 404.0 -390.5 414.0 -391.0 424.0 -391.0 L424.0 -555.0 Q416.0 -554.0 409.0 -553.5 401.5 -553.0 395.5 -553.0 L395.5 -613.5 Q450.5 -617.0 505.5 -619.5 560.0 -622.0 615.5 -623.5 L615.5 -717.0 Q571.0 -713.5 521.0 -711.5 471.0 -709.5 415.5 -709.5 L415.5 -761.0 Q501.0 -762.5 568.5 -765.5 636.5 -769.0 687.0 -775.0 743.0 -780.5 806.0 -791.0 869.0 -802.0 939.0 -817.0 M178.0 -535.5 Q188.0 -536.5 198.0 -537.0 208.0 -537.5 217.0 -537.5 L222.0 -537.5 Q221.5 -591.5 220.0 -626.0 218.5 -661.0 217.0 -678.0 215.5 -693.5 212.5 -701.5 209.0 -709.5 204.0 -709.5 200.5 -709.5 196.5 -708.0 192.5 -706.5 187.5 -703.5 184.5 -660.5 182.0 -619.0 179.5 -577.0 178.0 -535.5 M176.0 -300.0 Q184.5 -300.0 193.0 -300.5 201.5 -301.0 210.0 -301.0 L223.0 -301.0 223.0 -477.0 217.0 -477.0 Q206.5 -477.0 196.5 -476.5 186.5 -476.0 177.0 -475.0 175.5 -444.5 175.5 -414.5 175.0 -384.5 175.0 -355.5 175.0 -341.5 175.0 -327.5 175.5 -314.0 176.0 -300.0 M184.5 -51.0 Q193.5 -51.5 203.5 -51.5 213.0 -52.0 223.0 -52.0 L223.0 -240.5 210.0 -240.5 Q201.5 -240.5 193.0 -240.0 185.0 -239.5 177.0 -239.5 177.0 -192.0 179.0 -145.0 181.0 -98.0 184.5 -51.0 M51.0 -765.0 L191.5 -765.0 Q191.5 -762.0 191.0 -759.5 190.5 -757.0 190.5 -755.5 203.0 -760.5 214.0 -764.0 225.5 -767.5 235.5 -769.0 L246.0 -769.0 Q289.0 -769.0 315.0 -750.0 340.5 -730.5 349.0 -692.0 356.0 -657.0 360.0 -588.5 363.5 -520.0 363.5 -418.0 L363.5 -43.0 Q368.0 -42.0 372.0 -41.5 376.0 -41.0 380.0 -41.0 L380.0 18.5 Q344.5 12.5 310.0 9.5 275.5 7.0 241.5 7.0 228.0 7.0 214.5 7.5 201.0 7.5 188.5 9.0 188.5 32.5 191.5 55.5 L51.0 55.5 Q43.5 -47.5 39.5 -150.0 36.0 -252.5 36.0 -355.5 36.0 -457.5 39.5 -559.5 43.5 -662.0 51.0 -765.0" fill-rule="evenodd" stroke="none"/>
    </g>
    <g id="font_DFPOP3_Std_W12__4">
      <path d="M252.0 -493.5 Q326.5 -496.5 400.5 -498.5 474.0 -500.5 548.0 -500.5 641.5 -500.5 735.0 -497.5 L735.0 -705.5 Q735.0 -761.0 655.5 -761.0 551.0 -759.0 450.5 -750.5 349.5 -741.5 253.0 -726.0 250.0 -695.5 249.0 -666.0 247.5 -636.5 248.0 -607.0 248.0 -578.0 248.5 -549.5 249.5 -521.0 252.0 -493.5 M99.5 -825.5 L263.0 -825.5 Q261.5 -815.5 260.0 -805.5 259.0 -795.5 258.0 -786.5 376.5 -803.5 491.5 -812.5 606.5 -821.0 718.0 -821.0 L747.5 -821.0 Q820.5 -819.5 857.5 -791.5 894.5 -763.5 896.0 -709.5 L896.0 -490.5 Q901.5 -490.0 906.0 -489.5 911.0 -489.5 915.5 -489.5 L915.5 -429.0 Q755.5 -438.5 599.0 -441.5 L599.0 -283.5 Q633.0 -286.0 667.0 -287.5 701.5 -288.5 735.0 -289.0 786.0 -288.5 837.0 -286.0 888.5 -283.0 939.0 -277.5 L939.0 -217.0 Q888.5 -223.0 837.0 -226.5 786.0 -229.5 735.0 -229.5 700.5 -229.5 667.0 -228.0 633.0 -226.5 599.0 -223.0 L599.0 -100.5 Q771.0 -54.5 980.0 -33.0 L955.5 106.5 Q848.0 98.0 741.0 78.5 634.0 59.5 527.5 28.5 459.5 9.0 389.0 -16.0 319.0 -41.0 246.0 -71.5 234.5 -29.5 222.0 12.0 209.5 54.0 195.5 95.0 L36.0 55.5 Q71.0 -43.5 98.0 -143.5 125.0 -243.5 143.5 -345.0 L303.0 -325.5 Q292.5 -264.0 278.5 -203.0 318.5 -187.5 359.0 -173.0 399.5 -159.0 439.5 -146.5 L439.5 -440.5 Q393.0 -439.0 348.0 -437.0 302.5 -435.5 258.0 -433.0 259.0 -422.5 260.0 -411.0 261.5 -400.0 263.0 -389.0 L99.5 -389.0 Q84.0 -496.5 84.0 -607.0 84.0 -715.0 99.5 -825.5" fill-rule="evenodd" stroke="none"/>
    </g>
    <g id="font_DFPOP3_Std_W12_80">
      <path d="M486.5 -173.0 Q486.5 -201.5 469.5 -226.0 453.0 -251.0 420.0 -272.5 407.0 -280.0 377.5 -294.0 348.5 -307.5 303.0 -326.5 257.0 -295.0 234.5 -258.0 212.0 -221.0 212.0 -178.0 212.0 -156.5 220.5 -137.0 229.5 -117.5 248.0 -100.5 268.0 -80.5 294.5 -71.0 321.5 -61.5 355.5 -61.5 413.5 -61.5 450.5 -92.0 468.5 -107.5 477.5 -128.0 486.5 -148.5 486.5 -173.0 M622.5 -587.0 L579.5 -539.5 Q556.0 -563.5 534.5 -580.5 513.0 -597.5 493.5 -608.5 464.5 -623.5 430.5 -631.5 396.5 -639.0 357.5 -639.0 297.5 -639.0 268.0 -617.5 238.5 -596.5 238.5 -555.0 238.5 -528.0 255.5 -505.5 273.0 -483.5 308.0 -465.0 352.0 -485.0 412.5 -505.0 473.0 -525.5 550.0 -547.0 L585.5 -437.0 Q565.0 -431.0 533.5 -422.0 502.5 -412.5 461.0 -399.5 536.0 -364.0 573.5 -315.0 611.5 -265.5 611.5 -201.5 611.5 -153.5 590.0 -115.0 568.5 -76.5 526.5 -48.0 489.5 -23.5 447.0 -12.0 404.5 0.0 355.5 0.0 251.0 0.0 174.0 -49.0 128.0 -78.5 105.0 -119.5 82.0 -161.0 82.0 -214.0 82.0 -263.0 106.5 -307.0 131.0 -351.0 180.0 -390.0 145.0 -415.5 127.0 -447.0 109.5 -479.0 109.5 -517.0 109.5 -612.5 198.5 -661.5 233.0 -680.0 274.5 -689.5 316.0 -699.5 363.5 -699.5 436.0 -699.5 500.5 -671.0 565.5 -643.0 622.5 -587.0" fill-rule="evenodd" stroke="none"/>
    </g>
    <g id="font_DFPOP3_Std_W12__5">
      <path d="M819.0 -721.0 Q853.0 -552.0 891.0 -373.0 929.0 -194.0 972.0 -5.0 L819.0 43.0 Q777.5 -134.5 739.5 -316.5 701.5 -498.5 667.5 -685.0 L819.0 -721.0 M187.5 -709.5 L347.0 -693.0 Q315.0 -486.5 272.0 -305.5 229.0 -124.5 175.0 30.5 L19.5 3.0 Q71.5 -146.0 113.5 -324.0 155.0 -502.5 187.5 -709.5 M427.0 -829.5 L588.0 -829.5 588.0 -72.5 Q587.5 -36.0 581.0 -8.0 574.5 20.0 562.0 40.0 546.0 61.5 513.0 72.0 480.5 83.0 431.0 83.0 394.0 83.0 339.0 77.0 284.0 70.5 212.0 58.5 L212.0 -1.0 Q263.5 10.5 304.5 16.5 345.0 22.5 376.0 22.5 401.0 22.5 414.0 9.5 427.0 -3.5 427.0 -28.5 L427.0 -829.5" fill-rule="evenodd" stroke="none"/>
    </g>
    <g id="font_DFPOP3_Std_W12__6">
      <path d="M567.5 -229.5 Q587.5 -229.5 606.5 -222.5 625.5 -216.0 643.0 -204.0 659.0 -188.5 667.5 -169.0 676.0 -149.5 676.0 -125.0 676.0 -101.0 666.0 -81.0 656.5 -61.0 638.0 -45.0 604.0 -17.5 567.5 -17.5 544.5 -17.5 525.0 -26.5 505.5 -36.0 489.5 -54.5 476.5 -71.0 470.0 -89.0 464.0 -106.5 464.0 -125.0 464.0 -145.5 469.5 -164.0 475.0 -182.0 487.5 -197.5 503.0 -213.0 523.0 -221.0 542.5 -229.5 567.5 -229.5 M703.5 -325.5 Q719.0 -325.5 733.5 -325.0 748.5 -324.5 764.0 -324.5 L764.0 -433.0 923.5 -433.0 923.5 -317.5 Q939.0 -316.0 953.5 -315.0 968.5 -314.0 983.0 -313.5 L983.0 -253.0 Q967.5 -253.5 953.0 -254.5 938.0 -255.5 923.5 -257.0 L923.5 -57.5 Q923.5 -21.5 917.0 6.5 910.0 34.5 897.0 54.5 881.0 74.5 847.5 84.5 814.5 95.0 764.0 95.0 730.0 95.0 679.5 89.0 629.5 83.0 563.0 70.5 L563.0 11.5 Q604.5 23.0 637.5 29.0 670.5 35.0 695.5 35.0 729.0 35.0 746.5 16.5 764.0 -1.5 764.0 -37.0 L764.0 -264.0 Q748.5 -264.5 733.5 -264.5 718.0 -265.0 703.5 -265.0 562.0 -265.0 424.0 -253.0 L424.0 -313.5 Q562.0 -325.5 703.5 -325.5 M611.5 -527.5 L611.5 -700.5 Q563.0 -699.0 515.0 -696.0 467.5 -693.0 420.0 -689.0 L420.0 -749.5 Q467.5 -753.5 515.5 -756.0 563.5 -758.5 611.5 -760.0 L611.5 -833.5 771.0 -833.5 771.0 -760.0 Q822.0 -758.5 873.0 -756.0 924.5 -753.5 976.0 -749.5 L976.0 -689.0 Q923.5 -693.5 872.5 -696.5 821.5 -699.0 771.0 -700.5 L771.0 -528.5 Q818.5 -527.0 865.5 -524.5 912.5 -521.5 959.5 -517.0 L959.5 -456.5 Q833.5 -469.0 707.5 -469.0 581.5 -469.0 455.5 -456.5 L455.5 -517.0 Q495.0 -520.5 534.0 -523.0 573.0 -526.0 611.5 -527.5 M196.5 -435.0 Q207.5 -436.0 218.0 -436.5 229.0 -437.0 239.5 -437.0 L256.0 -437.0 256.0 -438.5 Q255.0 -536.5 251.5 -598.0 248.0 -659.0 241.5 -683.0 238.5 -697.5 230.0 -705.0 221.5 -712.5 208.0 -712.5 206.5 -712.5 205.0 -712.0 203.5 -711.5 201.5 -711.5 198.5 -642.0 197.5 -572.5 196.5 -503.5 196.5 -435.0 M201.5 -90.0 Q212.5 -91.0 223.5 -91.5 235.0 -92.0 246.0 -92.0 249.5 -172.0 252.0 -243.5 254.5 -314.5 256.0 -377.0 L239.5 -377.0 Q228.0 -377.0 217.0 -376.0 206.5 -375.5 195.5 -375.0 195.5 -302.5 197.0 -231.5 198.5 -160.5 201.5 -90.0 M59.5 -777.0 L204.0 -777.0 204.0 -766.0 Q215.5 -769.0 226.0 -770.5 237.0 -772.5 248.0 -773.0 L259.0 -773.0 Q312.0 -773.0 343.5 -755.0 375.5 -736.5 386.0 -700.5 394.5 -666.5 399.0 -601.0 403.5 -536.0 403.5 -438.5 403.5 -359.0 400.5 -270.5 398.0 -182.0 393.0 -84.0 398.5 -83.0 404.0 -82.5 409.5 -81.5 415.5 -81.0 L415.5 -21.5 Q379.0 -27.0 343.0 -30.0 306.5 -32.5 271.5 -33.0 254.5 -32.5 237.5 -32.0 221.0 -31.5 205.0 -30.5 205.5 -17.0 206.5 -3.5 207.0 9.5 208.0 22.5 L63.5 22.5 Q51.0 -177.0 51.0 -377.0 51.0 -476.5 53.0 -577.0 55.0 -677.5 59.5 -777.0" fill-rule="evenodd" stroke="none"/>
    </g>
    <g id="font_DFPOP3_Std_W12__7">
      <path d="M584.5 -368.5 Q584.5 -382.5 579.5 -395.5 574.0 -408.5 563.0 -420.0 551.5 -430.5 539.0 -436.0 526.0 -441.5 512.0 -441.5 496.0 -441.5 483.0 -436.0 470.0 -431.0 460.0 -421.0 449.0 -410.0 444.0 -397.0 439.0 -384.0 439.5 -368.5 439.5 -353.5 444.5 -340.5 450.0 -328.0 461.0 -317.5 471.5 -306.0 484.0 -300.5 496.5 -295.0 512.0 -295.0 526.0 -295.0 539.0 -300.5 551.5 -306.0 563.0 -317.5 574.0 -328.0 579.5 -341.0 584.5 -354.0 584.5 -368.5 M665.5 -368.5 Q665.5 -338.0 654.0 -310.5 642.5 -283.0 619.5 -260.0 573.5 -214.0 512.0 -214.0 480.0 -214.0 452.5 -225.5 425.5 -237.0 403.5 -260.0 380.5 -282.5 369.5 -309.5 358.5 -336.5 358.5 -368.5 358.5 -434.5 401.5 -479.0 444.5 -522.0 512.0 -522.0 543.5 -522.0 570.5 -511.0 597.5 -499.5 620.5 -477.0 643.0 -454.0 654.0 -427.0 665.5 -400.0 665.5 -368.5" fill-rule="evenodd" stroke="none"/>
    </g>
  </defs>
</svg>
