<?xml version="1.0" encoding="UTF-8" standalone="no"?>
<svg xmlns:xlink="http://www.w3.org/1999/xlink" height="17.05px" width="279.95px" xmlns="http://www.w3.org/2000/svg">
  <g transform="matrix(1.0, 0.0, 0.0, 1.0, 69.7, 1.55)">
    <g transform="matrix(1.0, 0.0, 0.0, 1.0, -70.6, 0.0)">
      <use fill="#000000" height="17.05" transform="matrix(0.0146, 0.0, 0.0, 0.0146, 0.0, 13.0)" width="279.95" xlink:href="#font_DFPOP3_Std_W12__0"/>
      <use fill="#000000" height="17.05" transform="matrix(0.0146, 0.0, 0.0, 0.0146, 15.0, 13.0)" width="279.95" xlink:href="#font_DFPOP3_Std_W12__1"/>
      <use fill="#000000" height="17.05" transform="matrix(0.0146, 0.0, 0.0, 0.0146, 30.0, 13.0)" width="279.95" xlink:href="#font_DFPOP3_Std_W12__2"/>
      <use fill="#000000" height="17.05" transform="matrix(0.0146, 0.0, 0.0, 0.0146, 45.0, 13.0)" width="279.95" xlink:href="#font_DFPOP3_Std_W12__3"/>
      <use fill="#000000" height="17.05" transform="matrix(0.0146, 0.0, 0.0, 0.0146, 60.0, 13.0)" width="279.95" xlink:href="#font_DFPOP3_Std_W12__4"/>
      <use fill="#000000" height="17.05" transform="matrix(0.0146, 0.0, 0.0, 0.0146, 75.0, 13.0)" width="279.95" xlink:href="#font_DFPOP3_Std_W12__5"/>
      <use fill="#000000" height="17.05" transform="matrix(0.0146, 0.0, 0.0, 0.0146, 90.0, 13.0)" width="279.95" xlink:href="#font_DFPOP3_Std_W12__6"/>
      <use fill="#000000" height="17.05" transform="matrix(0.0146, 0.0, 0.0, 0.0146, 105.0, 13.0)" width="279.95" xlink:href="#font_DFPOP3_Std_W12__7"/>
      <use fill="#000000" height="17.05" transform="matrix(0.0146, 0.0, 0.0, 0.0146, 120.0, 13.0)" width="279.95" xlink:href="#font_DFPOP3_Std_W12__8"/>
      <use fill="#000000" height="17.05" transform="matrix(0.0146, 0.0, 0.0, 0.0146, 135.0, 13.0)" width="279.95" xlink:href="#font_DFPOP3_Std_W12__9"/>
      <use fill="#000000" height="17.05" transform="matrix(0.0146, 0.0, 0.0, 0.0146, 150.0, 13.0)" width="279.95" xlink:href="#font_DFPOP3_Std_W12__10"/>
      <use fill="#000000" height="17.05" transform="matrix(0.0146, 0.0, 0.0, 0.0146, 165.0, 13.0)" width="279.95" xlink:href="#font_DFPOP3_Std_W12__11"/>
      <use fill="#000000" height="17.05" transform="matrix(0.0146, 0.0, 0.0, 0.0146, 180.0, 13.0)" width="279.95" xlink:href="#font_DFPOP3_Std_W12__12"/>
      <use fill="#000000" height="17.05" transform="matrix(0.0146, 0.0, 0.0, 0.0146, 195.0, 13.0)" width="279.95" xlink:href="#font_DFPOP3_Std_W12__13"/>
      <use fill="#000000" height="17.05" transform="matrix(0.0146, 0.0, 0.0, 0.0146, 210.0, 13.0)" width="279.95" xlink:href="#font_DFPOP3_Std_W12__14"/>
      <use fill="#000000" height="17.05" transform="matrix(0.0146, 0.0, 0.0, 0.0146, 225.0, 13.0)" width="279.95" xlink:href="#font_DFPOP3_Std_W12__15"/>
      <use fill="#000000" height="17.05" transform="matrix(0.0146, 0.0, 0.0, 0.0146, 240.0, 13.0)" width="279.95" xlink:href="#font_DFPOP3_Std_W12__16"/>
      <use fill="#000000" height="17.05" transform="matrix(0.0146, 0.0, 0.0, 0.0146, 255.0, 13.0)" width="279.95" xlink:href="#font_DFPOP3_Std_W12__17"/>
      <use fill="#000000" height="17.05" transform="matrix(0.0146, 0.0, 0.0, 0.0146, 270.0, 13.0)" width="279.95" xlink:href="#font_DFPOP3_Std_W12__18"/>
    </g>
  </g>
  <defs>
    <g id="font_DFPOP3_Std_W12__0">
      <path d="M867.5 -789.5 Q887.0 -789.5 905.0 -783.0 923.0 -776.5 940.0 -764.0 955.5 -748.5 963.5 -729.0 971.5 -709.5 972.0 -685.0 971.5 -662.0 962.5 -643.0 953.5 -623.5 936.0 -608.5 919.0 -594.5 901.5 -588.0 884.5 -581.5 867.5 -581.5 844.5 -581.5 825.0 -590.5 805.5 -599.0 789.5 -617.5 776.5 -633.0 770.0 -649.5 764.0 -666.5 764.0 -685.0 764.0 -706.0 769.5 -723.5 775.0 -741.5 787.5 -756.5 803.0 -773.0 823.0 -781.0 843.0 -789.5 867.5 -789.5 M515.0 -817.0 L531.5 -752.5 Q490.0 -740.5 452.0 -731.0 414.5 -722.0 380.0 -716.0 L380.0 -536.5 Q413.0 -536.5 446.0 -537.0 479.5 -537.5 513.0 -537.5 536.0 -537.5 559.5 -537.0 583.5 -536.5 607.0 -536.5 592.0 -596.5 578.0 -658.0 564.0 -719.0 552.0 -781.5 L699.5 -829.5 Q716.5 -750.5 734.5 -676.5 753.0 -602.5 773.0 -533.5 821.5 -532.0 870.0 -530.0 918.5 -527.5 967.5 -525.5 L967.5 -465.0 Q923.0 -467.0 878.5 -469.0 834.5 -470.5 790.5 -472.0 796.5 -448.0 803.5 -425.5 810.5 -402.5 818.0 -381.0 819.0 -377.0 820.0 -374.0 821.0 -370.5 822.5 -367.5 833.0 -380.5 843.0 -394.0 853.5 -407.0 863.0 -421.0 L991.0 -328.5 Q966.0 -295.0 939.0 -261.0 912.5 -227.0 884.5 -191.5 906.0 -134.5 929.0 -80.0 951.5 -25.5 976.0 26.5 L823.5 102.5 Q807.0 65.5 792.5 29.5 777.5 -7.0 764.0 -43.0 736.5 -10.5 708.5 23.0 680.5 56.5 651.5 91.0 L523.5 -9.0 Q569.5 -60.0 614.0 -111.0 658.5 -162.0 701.5 -213.0 690.0 -245.5 679.5 -278.0 668.5 -310.5 659.5 -343.0 649.5 -376.0 640.5 -409.0 631.0 -442.5 622.5 -476.0 595.0 -476.0 567.5 -476.5 540.0 -477.0 513.0 -477.0 479.5 -477.0 446.0 -476.5 413.0 -476.0 380.0 -476.0 L380.0 -249.0 Q412.0 -268.0 448.0 -291.0 484.0 -314.0 523.5 -341.0 L555.0 -284.5 Q506.0 -251.0 462.0 -222.5 418.5 -194.5 380.0 -173.0 L380.0 99.5 219.0 99.5 219.0 -95.0 Q185.5 -81.5 150.0 -69.0 114.0 -56.5 76.0 -45.0 L55.5 -105.5 Q102.0 -120.0 143.0 -135.0 184.0 -149.5 219.0 -165.0 L219.0 -472.0 Q178.5 -470.5 138.5 -468.5 98.5 -466.5 59.5 -465.0 L59.5 -525.5 Q99.5 -527.0 139.5 -529.0 179.0 -531.0 219.0 -532.5 L219.0 -695.5 Q185.5 -692.0 150.0 -690.5 114.0 -689.0 76.0 -689.0 L76.0 -741.5 Q147.0 -743.0 204.0 -747.5 261.0 -752.5 304.0 -761.0 351.0 -767.5 404.0 -781.5 456.5 -795.5 515.0 -817.0" fill-rule="evenodd" stroke="none"/>
    </g>
    <g id="font_DFPOP3_Std_W12__1">
      <path d="M575.5 -620.5 L575.5 -565.0 Q621.5 -564.5 667.0 -563.5 712.5 -562.5 758.0 -561.0 758.0 -579.0 758.5 -593.0 758.5 -607.0 759.0 -617.5 712.0 -619.0 666.0 -620.0 620.0 -620.5 575.5 -620.5 M575.5 -724.0 L575.5 -681.0 Q621.0 -680.0 666.0 -679.5 711.0 -678.5 755.5 -678.0 749.5 -695.0 738.5 -705.0 727.5 -715.0 710.5 -718.0 695.5 -721.0 671.5 -723.0 647.5 -725.0 615.5 -725.0 604.5 -725.0 594.5 -724.5 584.5 -724.0 575.5 -724.0 M643.0 -250.0 Q692.0 -253.0 732.0 -253.0 L764.0 -253.0 Q788.5 -253.0 808.5 -250.5 828.5 -248.5 845.0 -243.5 826.5 -267.5 810.0 -293.0 794.0 -318.0 779.5 -345.0 L844.0 -378.0 Q797.0 -379.5 751.0 -381.0 705.0 -382.0 659.5 -383.0 675.0 -359.0 691.5 -335.5 708.5 -312.0 727.0 -289.0 L643.0 -250.0 M387.0 -226.5 Q448.0 -233.0 500.5 -238.5 553.5 -243.5 598.0 -247.0 581.0 -270.5 565.0 -295.0 549.5 -319.5 535.5 -345.0 L613.5 -384.0 Q587.0 -384.0 561.5 -384.5 535.5 -385.0 510.0 -385.0 484.0 -385.0 459.0 -384.5 434.5 -384.0 410.5 -384.0 426.0 -355.0 443.0 -326.0 460.0 -297.0 479.0 -269.5 L387.0 -226.5 M233.5 -206.0 Q265.5 -210.5 296.0 -214.5 326.0 -218.5 354.5 -222.0 322.0 -276.0 296.0 -333.0 L397.5 -384.0 Q343.5 -383.0 290.5 -381.5 238.0 -380.0 186.5 -378.0 L248.0 -349.0 Q232.5 -317.0 217.0 -288.5 201.5 -259.5 185.5 -233.5 L239.5 -233.5 Q236.5 -218.0 233.5 -206.0 M680.0 -7.0 Q701.5 -6.5 723.5 -6.0 745.5 -5.0 768.0 -5.0 L768.0 -133.0 Q768.0 -163.0 756.0 -178.5 743.5 -193.5 720.0 -193.5 710.0 -192.5 700.0 -192.0 690.0 -191.5 680.0 -191.5 L680.0 -7.0 M455.5 -8.0 Q469.5 -8.5 483.0 -8.5 496.0 -9.0 510.0 -9.0 517.5 -9.0 525.0 -9.0 532.0 -9.0 539.5 -9.0 L539.5 -182.5 Q518.0 -180.0 497.5 -178.0 476.5 -175.5 455.5 -174.0 L455.5 -8.0 M232.5 -5.0 Q253.0 -5.0 274.0 -6.0 294.5 -6.5 315.5 -7.0 L315.5 -156.5 Q293.0 -153.5 270.5 -150.5 248.5 -147.5 225.5 -144.5 224.0 -133.0 223.5 -122.0 223.0 -111.5 223.0 -101.5 223.0 -76.5 225.5 -52.5 228.0 -28.0 232.5 -5.0 M627.5 -785.5 L650.0 -785.5 Q741.0 -785.5 797.5 -775.5 854.5 -766.0 877.5 -747.5 896.0 -733.0 906.5 -714.0 917.0 -695.0 918.5 -671.5 932.5 -670.0 945.5 -669.5 959.0 -668.5 972.0 -668.5 L972.0 -609.5 Q958.0 -609.5 945.0 -610.0 932.0 -610.5 919.5 -611.5 L919.5 -554.0 Q922.5 -553.0 925.5 -553.0 929.0 -553.0 932.0 -553.0 L932.0 -493.5 Q843.0 -498.0 753.5 -500.5 664.5 -503.5 575.5 -505.0 L575.5 -445.5 Q761.5 -442.5 947.0 -433.0 L947.0 -372.5 Q937.0 -373.0 928.0 -373.5 918.5 -374.0 909.5 -375.0 923.0 -352.5 939.0 -331.0 955.0 -309.5 972.0 -289.0 L861.0 -237.5 Q869.5 -234.5 877.0 -230.0 884.5 -226.0 891.0 -221.0 909.5 -206.0 918.5 -185.0 927.5 -164.0 927.5 -137.0 L927.5 1.0 Q940.0 1.0 952.0 1.5 963.5 2.5 976.0 3.0 L976.0 62.5 Q859.0 56.5 742.5 54.0 626.0 51.0 510.0 51.0 393.0 51.0 276.5 54.0 159.5 56.5 43.0 62.5 L43.0 3.0 Q53.5 2.5 64.0 1.5 74.5 1.0 85.0 1.0 80.5 -24.5 78.0 -50.0 76.0 -75.5 76.0 -101.5 76.0 -166.0 91.0 -233.5 L142.5 -233.5 55.5 -277.5 Q74.0 -302.0 90.5 -326.0 107.0 -350.5 121.0 -375.0 108.0 -374.0 95.5 -373.5 83.0 -373.0 71.5 -372.5 L71.5 -433.0 Q159.5 -438.0 247.5 -440.5 335.5 -443.5 424.0 -444.5 L424.0 -504.0 Q342.5 -503.0 261.0 -500.5 180.0 -498.0 99.5 -493.5 L99.5 -553.0 Q180.5 -557.5 261.5 -560.0 342.5 -563.0 424.0 -564.0 L424.0 -620.5 Q330.5 -619.5 237.0 -617.0 144.0 -614.0 51.0 -609.5 L51.0 -668.5 Q145.0 -673.5 238.0 -676.0 331.0 -679.0 424.0 -680.0 L424.0 -720.0 Q347.0 -716.0 268.0 -709.0 189.0 -702.5 107.5 -693.0 L107.5 -752.5 Q262.5 -772.5 424.0 -780.5 L424.0 -840.5 575.5 -840.5 575.5 -785.5 627.5 -785.5" fill-rule="evenodd" stroke="none"/>
    </g>
    <g id="font_DFPOP3_Std_W12__2">
      <path d="M571.5 -359.5 L571.5 -316.5 Q611.5 -315.5 651.5 -314.0 691.0 -313.0 731.0 -311.5 L731.0 -328.5 Q731.0 -344.0 710.0 -352.5 688.5 -360.5 647.0 -361.5 629.0 -361.5 610.0 -361.0 591.5 -360.0 571.5 -359.5 M264.0 -309.0 Q338.0 -314.0 411.5 -315.5 L411.5 -350.0 Q377.0 -348.0 341.0 -345.0 304.5 -342.0 266.0 -339.0 265.5 -330.5 265.0 -323.0 264.0 -315.5 264.0 -309.0 M571.5 -256.0 L571.5 -217.0 Q610.5 -217.0 649.0 -216.5 687.5 -215.5 726.0 -214.0 726.0 -224.0 726.5 -233.0 727.5 -242.5 728.0 -251.0 688.0 -252.5 649.0 -254.0 610.0 -255.0 571.5 -256.0 M267.5 -209.0 Q341.0 -212.0 411.5 -215.0 L411.5 -255.0 Q336.5 -253.5 264.0 -249.0 264.0 -227.5 267.5 -209.0 M131.0 -421.0 L279.5 -421.0 Q278.0 -414.5 277.0 -409.5 276.0 -404.0 275.5 -399.5 390.0 -409.5 501.0 -414.5 612.5 -420.0 720.0 -421.0 803.5 -421.0 845.5 -392.0 888.0 -363.0 888.0 -305.0 888.0 -291.5 886.5 -266.5 884.5 -242.0 881.5 -206.0 885.5 -205.0 889.0 -205.0 893.0 -205.0 896.0 -205.0 L896.0 -145.5 Q814.0 -150.0 732.5 -153.0 651.5 -156.0 571.5 -156.5 L571.5 -108.5 Q654.5 -107.5 737.5 -105.0 820.0 -102.0 903.0 -97.5 L903.0 -37.0 Q820.0 -41.5 737.5 -44.5 654.5 -47.5 571.5 -48.0 L571.5 11.5 Q671.5 11.5 771.5 14.0 872.0 17.0 972.0 22.5 L972.0 83.0 Q856.5 77.0 742.0 73.5 627.5 70.5 513.0 70.5 284.0 70.5 55.5 83.0 L55.5 22.5 Q144.5 18.0 233.5 15.0 322.5 12.5 411.5 12.5 L411.5 -48.0 Q334.0 -46.5 257.0 -44.0 180.0 -41.5 103.5 -37.0 L103.5 -97.5 Q180.5 -102.0 257.5 -104.5 335.0 -107.0 411.5 -108.5 L411.5 -154.5 Q377.0 -153.0 343.5 -152.0 309.5 -151.0 276.5 -149.5 276.5 -145.0 277.0 -141.0 278.0 -137.0 279.5 -133.0 L131.0 -133.0 Q115.5 -204.0 115.5 -277.5 115.5 -313.0 119.5 -349.0 123.5 -384.5 131.0 -421.0 M512.0 -525.5 Q623.5 -525.5 735.5 -522.0 847.5 -519.0 959.5 -513.0 L959.5 -453.5 Q847.5 -459.0 735.5 -462.0 623.5 -465.0 512.0 -465.0 400.0 -465.0 287.5 -462.0 175.5 -459.0 63.5 -453.5 L63.5 -513.0 Q287.5 -525.5 512.0 -525.5 M268.5 -713.5 Q329.0 -717.0 390.0 -719.0 450.5 -721.0 512.0 -721.0 562.5 -721.0 613.5 -719.5 664.5 -718.0 716.0 -716.0 L716.0 -737.5 Q716.0 -754.0 696.0 -763.5 676.0 -772.5 636.0 -773.0 562.0 -772.5 471.5 -767.0 380.5 -761.5 271.5 -751.5 270.0 -741.5 269.0 -732.5 268.5 -723.0 268.5 -713.5 M271.5 -609.5 Q340.5 -613.0 410.0 -615.5 480.0 -617.5 550.0 -617.5 591.5 -617.5 632.0 -616.5 673.0 -616.0 713.5 -614.5 713.5 -626.0 714.0 -636.0 714.0 -646.0 715.0 -655.5 612.0 -661.5 512.0 -661.5 450.5 -661.5 389.5 -659.5 328.5 -657.0 268.5 -653.5 268.5 -642.0 269.0 -631.0 270.0 -620.0 271.5 -609.5 M135.0 -829.5 L283.5 -829.5 Q280.5 -820.0 280.5 -811.0 390.5 -821.0 497.0 -826.5 604.0 -832.0 707.5 -833.5 791.5 -833.5 833.5 -804.5 875.5 -775.0 875.5 -717.0 875.5 -687.5 872.5 -606.0 877.0 -606.0 882.0 -605.5 887.0 -605.0 892.0 -605.0 L892.0 -545.0 Q806.0 -551.0 720.5 -554.0 635.0 -557.0 550.0 -557.0 482.5 -557.0 415.0 -555.0 347.5 -552.5 280.5 -549.0 282.0 -539.5 283.5 -533.5 L135.0 -533.5 Q120.0 -607.0 120.0 -681.0 120.0 -718.0 123.5 -755.0 127.5 -792.0 135.0 -829.5" fill-rule="evenodd" stroke="none"/>
    </g>
    <g id="font_DFPOP3_Std_W12__3">
      <path d="M406.5 -21.5 Q427.5 -23.0 447.0 -24.5 467.0 -25.5 486.5 -25.5 488.5 -75.0 490.0 -118.0 491.5 -161.0 491.5 -197.5 491.0 -243.5 487.5 -272.0 484.5 -300.5 478.0 -311.5 476.0 -318.0 468.0 -322.0 460.5 -325.5 447.5 -325.5 442.0 -325.5 433.0 -323.0 423.5 -320.0 409.5 -315.5 403.5 -231.0 403.5 -149.5 403.5 -116.5 404.0 -84.5 405.0 -52.5 406.5 -21.5 M771.0 -637.0 Q772.5 -579.5 781.5 -522.5 791.0 -465.5 807.0 -408.5 822.0 -460.5 830.0 -518.5 838.0 -576.5 838.5 -641.0 820.0 -641.0 803.5 -639.5 786.5 -638.5 771.0 -637.0 M640.0 18.5 Q670.0 -42.0 695.5 -100.0 721.0 -157.5 742.5 -212.0 728.0 -255.0 716.5 -294.5 705.0 -333.5 697.5 -369.5 695.0 -379.0 693.0 -387.5 690.5 -396.0 689.0 -404.5 686.0 -394.5 682.5 -385.5 679.0 -376.5 676.0 -368.5 L552.0 -401.5 Q571.0 -454.5 588.0 -507.5 605.0 -560.5 620.5 -614.5 596.0 -617.5 571.5 -619.5 547.0 -621.0 523.5 -622.5 L523.5 -384.0 Q557.0 -380.0 578.5 -370.0 599.5 -360.0 607.0 -344.0 615.0 -325.5 619.5 -289.0 623.5 -252.0 623.5 -197.5 623.5 -114.5 617.5 -16.5 623.5 -15.5 629.0 -15.0 634.5 -14.0 640.0 -13.5 L640.0 18.5 M384.0 -682.0 L384.0 -833.5 523.5 -833.5 523.5 -683.0 Q549.5 -681.5 575.5 -678.5 601.5 -676.0 627.5 -673.0 L627.5 -642.0 Q640.5 -691.0 651.5 -740.0 662.5 -788.5 671.5 -837.5 L811.0 -821.0 Q805.0 -790.5 797.5 -760.0 790.0 -729.5 782.5 -699.5 797.0 -700.0 811.5 -701.0 826.5 -701.5 841.5 -701.5 909.5 -701.5 980.0 -689.0 L980.0 -628.5 Q977.0 -629.0 974.0 -629.5 971.0 -630.0 967.5 -631.0 966.0 -558.5 956.0 -488.0 946.0 -418.0 927.5 -350.0 917.5 -313.5 905.5 -275.0 893.5 -237.0 879.5 -197.5 901.0 -144.0 926.5 -88.0 952.5 -31.5 983.0 26.5 L867.5 95.0 Q836.5 29.0 812.0 -30.5 797.5 0.5 782.0 33.0 767.0 65.5 751.5 99.5 L640.0 29.5 640.0 47.0 Q603.0 41.0 566.5 38.0 529.5 35.0 493.5 35.0 472.0 35.0 451.5 35.5 430.5 36.5 410.5 39.0 411.5 52.5 413.0 66.0 414.0 79.0 415.5 91.0 L292.0 91.0 Q285.5 31.5 282.5 -29.0 279.5 -89.0 279.5 -149.5 279.5 -269.5 292.0 -389.0 L384.0 -389.0 384.0 -622.5 Q338.0 -619.5 292.0 -613.5 L292.0 -673.0 Q338.0 -679.0 384.0 -682.0 M204.0 -840.5 L327.5 -773.0 Q309.5 -731.5 290.5 -690.0 272.0 -648.5 252.0 -607.0 L252.0 99.5 111.5 99.5 111.5 -417.0 31.5 -465.0 Q81.5 -562.5 124.5 -656.5 167.5 -750.0 204.0 -840.5" fill-rule="evenodd" stroke="none"/>
    </g>
    <g id="font_DFPOP3_Std_W12__4">
      <path d="M804.0 -833.5 L955.5 -833.5 955.5 -41.0 Q955.5 22.0 934.0 57.5 920.0 76.0 892.5 85.5 865.0 95.0 823.5 95.0 792.5 95.0 748.0 90.0 703.0 85.0 643.0 75.0 L643.0 15.5 Q684.0 24.5 716.0 29.5 748.0 35.0 771.0 35.0 787.0 35.0 795.5 25.0 804.0 15.0 804.0 -5.0 L804.0 -833.5 M611.5 -752.5 L751.5 -752.5 751.5 -72.5 611.5 -72.5 611.5 -752.5 M223.0 -267.5 L223.0 -393.0 387.0 -393.0 387.0 -268.5 Q430.0 -266.5 473.0 -264.0 516.0 -261.0 559.0 -257.0 L559.0 -197.5 Q516.0 -201.5 473.0 -204.0 430.0 -206.5 387.0 -208.0 L387.0 -28.5 Q432.5 -38.0 481.5 -52.0 530.5 -66.5 583.5 -85.0 L596.0 -33.0 Q519.0 -6.5 452.0 11.0 385.0 28.5 327.5 38.0 268.5 46.5 198.5 51.5 128.5 57.0 47.0 58.5 L47.0 7.0 Q97.0 5.5 141.0 3.0 185.0 0.5 223.0 -3.0 L223.0 -207.0 Q184.0 -205.5 145.0 -203.0 106.0 -200.5 67.5 -197.5 L67.5 -257.0 Q107.0 -261.0 146.0 -263.5 185.0 -266.0 223.0 -267.5 M313.5 -805.0 Q376.5 -805.0 440.0 -802.0 503.5 -799.0 567.5 -793.5 L567.5 -733.0 Q506.0 -739.5 444.5 -742.5 383.5 -745.5 322.5 -745.5 272.5 -658.5 248.0 -603.5 223.0 -548.5 223.0 -525.5 223.0 -503.0 230.5 -492.0 237.5 -481.0 252.0 -481.5 287.5 -481.0 330.0 -487.0 373.0 -492.5 423.0 -504.0 409.0 -531.5 396.5 -560.0 384.0 -588.5 371.5 -617.5 L499.5 -673.0 Q519.5 -626.5 546.5 -574.5 573.5 -522.5 607.0 -465.0 L479.0 -397.5 Q464.0 -425.0 448.5 -452.5 376.5 -436.5 315.5 -428.5 254.5 -421.0 204.0 -421.0 165.5 -421.0 137.0 -426.5 109.0 -432.0 91.0 -444.5 74.5 -456.0 65.5 -472.0 57.0 -488.0 55.5 -509.0 55.0 -534.0 79.5 -592.0 103.5 -650.0 152.5 -740.5 129.0 -739.0 105.5 -737.0 82.5 -735.0 59.5 -733.0 L59.5 -793.5 Q122.5 -799.0 186.0 -802.0 249.5 -805.0 313.5 -805.0" fill-rule="evenodd" stroke="none"/>
    </g>
    <g id="font_DFPOP3_Std_W12__5">
      <path d="M787.5 -305.0 L808.0 -249.0 Q736.5 -201.0 647.5 -155.5 558.5 -109.5 451.5 -65.5 L439.5 -125.0 Q533.0 -159.0 620.0 -204.0 707.0 -249.0 787.5 -305.0 M647.0 -456.5 Q680.0 -456.5 713.0 -454.0 746.0 -451.0 779.5 -445.5 L779.5 -385.0 Q713.0 -397.5 647.0 -397.5 581.0 -397.5 515.0 -385.0 L515.0 -445.5 Q548.0 -451.0 581.0 -454.0 614.0 -456.5 647.0 -456.5 M147.5 -651.5 L147.5 -837.5 307.0 -837.5 307.0 -651.5 Q334.0 -649.5 361.0 -647.0 388.0 -644.0 415.5 -641.0 L415.5 -596.0 Q419.0 -602.0 422.0 -609.0 425.0 -615.5 428.0 -621.5 448.0 -664.5 470.0 -720.0 492.0 -775.5 515.0 -845.0 L659.5 -796.5 Q652.0 -773.5 644.5 -753.0 637.5 -732.0 631.0 -712.5 672.5 -722.5 710.5 -729.0 748.5 -735.0 782.5 -737.5 L788.5 -737.5 Q847.0 -737.0 884.0 -720.5 921.0 -704.0 938.0 -671.5 953.5 -650.5 962.0 -577.0 970.0 -504.0 972.0 -379.0 971.5 -265.0 969.0 -183.5 966.0 -101.5 960.5 -52.0 951.5 15.5 911.0 49.0 871.0 83.0 799.5 83.0 757.0 83.0 705.0 77.5 653.0 72.5 592.0 62.5 L592.0 3.0 Q644.0 12.5 683.0 17.5 721.5 22.5 747.5 22.5 807.5 22.5 815.0 -76.0 819.0 -142.5 821.0 -218.5 823.5 -294.5 823.5 -379.0 822.0 -449.5 820.0 -504.5 818.5 -560.0 817.0 -599.0 815.0 -628.0 809.5 -645.5 804.0 -662.5 794.5 -668.5 786.0 -672.5 777.0 -674.5 767.5 -677.0 758.0 -677.0 721.0 -672.5 683.0 -665.0 645.5 -658.0 606.0 -648.0 598.0 -626.5 590.0 -608.0 582.5 -589.5 575.5 -573.5 554.0 -527.5 529.0 -479.5 503.5 -431.5 475.0 -381.0 L340.0 -449.5 Q359.0 -482.5 376.5 -515.5 394.0 -549.0 409.5 -582.5 383.5 -585.5 357.5 -587.5 332.0 -589.5 307.0 -591.0 L307.0 -163.0 Q337.0 -177.5 366.5 -193.0 395.5 -208.5 424.0 -225.5 L443.5 -169.0 Q365.0 -124.5 267.0 -81.5 168.5 -38.5 51.0 3.0 L40.0 -57.5 Q95.0 -72.5 147.5 -94.0 L147.5 -591.0 Q93.5 -588.0 43.0 -581.5 L43.0 -641.0 Q69.0 -644.0 95.0 -647.0 121.5 -649.5 147.5 -651.5" fill-rule="evenodd" stroke="none"/>
    </g>
    <g id="font_DFPOP3_Std_W12__6">
      <path d="M855.0 -769.0 Q885.0 -769.0 915.0 -766.0 945.0 -763.0 976.0 -756.5 L976.0 -697.5 Q945.0 -703.5 915.0 -706.5 885.0 -709.5 855.0 -709.5 795.0 -709.5 735.0 -697.5 L735.0 -756.5 Q795.0 -769.0 855.0 -769.0 M563.0 -528.5 L563.0 -428.0 Q572.5 -427.0 581.0 -426.5 590.0 -426.0 599.0 -426.0 L599.0 -481.5 Q599.0 -502.0 590.0 -513.5 581.0 -525.5 563.0 -528.5 M417.0 -423.0 Q425.0 -423.5 434.0 -424.5 442.5 -425.0 451.5 -426.0 L451.5 -511.0 Q444.0 -508.5 436.0 -506.5 428.5 -504.5 421.0 -503.0 419.5 -482.0 418.0 -462.0 417.0 -442.0 417.0 -423.0 M563.0 -269.5 Q571.5 -269.0 580.0 -269.0 588.5 -268.5 596.0 -268.5 596.0 -294.5 596.5 -319.0 597.0 -343.5 598.0 -366.5 588.5 -366.5 580.0 -367.0 571.0 -367.5 563.0 -367.5 L563.0 -269.5 M420.0 -263.0 Q428.5 -263.0 436.0 -264.0 444.0 -264.5 451.5 -265.0 L451.5 -365.5 Q442.5 -365.5 433.5 -365.0 424.0 -364.5 415.5 -363.5 416.0 -337.5 417.0 -312.5 418.0 -287.5 420.0 -263.0 M231.5 -641.0 L340.0 -584.5 Q337.5 -581.5 336.0 -578.5 334.5 -576.0 333.0 -573.5 L427.0 -573.5 Q426.5 -570.5 426.0 -567.5 426.0 -564.0 426.0 -561.0 443.0 -566.0 458.0 -569.5 473.5 -573.5 486.5 -576.5 502.0 -602.5 518.0 -631.5 533.5 -660.0 550.0 -692.0 556.0 -707.5 559.0 -717.0 559.0 -718.5 545.5 -719.5 531.5 -721.0 504.0 -721.0 499.0 -719.5 492.0 -715.5 484.5 -711.5 475.0 -705.5 459.5 -672.5 444.0 -641.5 428.0 -611.0 411.5 -581.5 L299.0 -637.0 Q360.5 -743.0 403.5 -849.0 L515.0 -796.5 Q511.0 -787.5 507.5 -779.0 504.0 -770.5 500.5 -763.0 547.0 -781.5 571.5 -781.5 L591.0 -781.5 Q643.0 -781.0 669.0 -764.0 695.5 -746.5 695.5 -712.5 695.0 -708.0 691.5 -697.5 688.0 -687.0 682.0 -670.5 662.0 -624.5 642.0 -584.5 659.0 -581.0 672.5 -575.0 686.5 -569.0 696.5 -561.0 711.5 -547.5 719.5 -528.5 727.0 -509.0 727.0 -485.5 727.0 -384.0 724.0 -258.0 727.0 -258.0 729.5 -257.5 732.0 -257.0 735.0 -257.0 L735.0 -197.5 Q700.0 -201.5 665.5 -204.0 631.0 -206.5 598.0 -208.0 589.0 -188.5 581.0 -172.0 573.0 -155.0 565.0 -140.5 613.0 -139.5 660.5 -136.5 708.0 -133.5 755.5 -129.0 L755.5 -69.5 Q731.0 -71.0 706.5 -73.0 682.5 -75.0 658.5 -77.0 672.0 -52.0 688.5 -27.0 705.0 -1.5 724.0 24.5 L724.0 11.5 Q741.0 20.5 754.5 25.5 768.5 30.5 779.5 30.5 797.0 30.5 806.0 22.5 815.0 14.5 815.0 -1.0 L815.0 -487.5 Q795.0 -486.0 775.0 -483.5 755.0 -481.0 735.0 -477.0 L735.0 -537.5 Q766.0 -543.0 797.0 -546.0 828.5 -549.0 859.0 -549.0 890.0 -549.0 921.0 -546.0 952.5 -543.0 983.0 -537.5 L983.0 -477.0 Q974.5 -478.5 967.0 -479.5 959.0 -481.0 951.5 -482.5 L951.5 -37.0 Q951.0 -7.0 946.0 16.5 941.0 39.5 932.0 56.5 919.0 73.5 892.5 82.0 866.5 91.0 827.5 91.0 809.5 91.0 783.5 86.0 758.0 80.5 724.0 70.5 L724.0 39.0 611.5 99.5 Q588.0 58.0 567.0 15.5 546.0 -27.0 527.5 -71.5 506.5 -34.0 479.0 9.0 451.0 52.5 415.5 102.5 L292.0 35.0 Q315.0 7.0 336.0 -21.0 357.5 -49.0 376.0 -77.0 351.0 -75.0 327.0 -73.0 302.5 -71.0 279.5 -69.5 L279.5 -129.0 Q314.0 -132.0 348.5 -135.0 383.0 -137.5 417.0 -139.5 426.0 -154.5 435.5 -171.0 445.5 -187.5 454.5 -206.0 447.0 -205.0 439.5 -204.5 431.5 -204.0 424.0 -204.0 424.5 -196.0 425.5 -189.5 426.0 -183.0 427.0 -177.0 L299.0 -177.0 Q293.0 -226.5 290.5 -276.0 287.5 -325.5 287.5 -375.0 287.5 -408.5 289.0 -442.0 290.0 -475.0 293.0 -509.0 281.5 -491.5 270.0 -474.0 258.5 -457.0 248.0 -440.5 L248.0 99.5 120.0 99.5 120.0 -301.0 27.5 -357.5 Q87.5 -431.0 138.5 -502.0 189.0 -572.5 231.5 -641.0 M183.5 -840.5 L299.0 -781.5 Q262.0 -722.0 221.5 -664.0 180.5 -605.5 135.0 -549.0 L31.5 -613.5 Q76.5 -672.5 114.0 -729.5 152.0 -786.0 183.5 -840.5" fill-rule="evenodd" stroke="none"/>
    </g>
    <g id="font_DFPOP3_Std_W12__7">
      <path d="M204.0 -565.0 L235.5 -565.0 Q235.0 -559.0 234.5 -553.5 234.5 -548.5 234.5 -543.5 243.5 -547.0 253.0 -550.0 262.0 -553.0 270.5 -556.0 265.5 -559.0 261.5 -562.5 257.0 -566.0 254.0 -570.5 244.5 -581.0 240.0 -593.0 235.5 -604.5 235.5 -617.5 235.5 -631.5 239.5 -644.0 243.5 -657.0 252.0 -667.5 273.5 -689.0 307.0 -689.0 321.0 -689.0 333.5 -684.5 346.0 -680.0 358.5 -671.5 369.0 -661.0 374.5 -647.5 380.0 -634.5 380.0 -617.5 380.0 -601.5 373.0 -588.0 366.5 -575.0 354.5 -564.0 374.5 -563.0 391.0 -560.0 408.0 -557.5 422.0 -553.0 394.0 -610.5 371.5 -654.5 348.5 -698.0 332.0 -728.0 327.0 -734.5 323.0 -738.0 318.5 -741.5 315.5 -741.5 309.0 -741.5 291.0 -737.0 272.5 -732.5 242.5 -725.0 234.0 -685.0 224.5 -645.0 214.5 -605.0 204.0 -565.0 M223.0 -338.0 Q221.0 -304.0 219.5 -275.0 217.5 -245.5 216.0 -220.0 243.5 -222.5 271.0 -224.0 298.0 -225.0 325.5 -225.5 L355.5 -225.5 Q358.5 -256.0 360.5 -284.0 363.0 -312.0 364.5 -338.0 347.0 -339.5 330.0 -340.0 313.5 -341.0 298.0 -341.0 279.0 -341.0 260.0 -340.0 241.5 -339.5 223.0 -338.0 M231.5 -488.5 Q230.0 -464.0 228.5 -441.0 227.0 -418.5 226.5 -398.5 244.0 -400.0 262.0 -400.5 279.5 -401.5 298.0 -401.5 315.5 -401.5 332.5 -400.5 349.5 -400.0 366.5 -398.5 366.5 -410.5 367.0 -422.5 367.5 -434.5 367.5 -445.5 367.5 -474.5 348.5 -489.5 329.5 -505.0 292.0 -505.0 277.0 -503.0 262.0 -499.0 247.0 -494.5 231.5 -488.5 M494.5 -466.0 Q505.5 -503.5 516.0 -541.0 526.5 -579.0 535.5 -616.5 L427.0 -551.0 Q436.5 -547.0 444.5 -542.5 452.5 -538.0 459.0 -533.5 474.0 -520.5 483.0 -503.5 491.5 -486.5 494.5 -466.0 M499.5 9.0 Q562.5 -167.5 616.5 -343.5 671.0 -519.5 717.0 -695.5 710.0 -692.0 703.0 -688.5 696.0 -685.0 688.0 -682.0 674.0 -614.5 657.0 -546.0 639.5 -478.0 619.5 -409.5 L495.5 -439.5 Q495.0 -388.5 491.5 -332.5 488.5 -276.5 482.5 -215.0 487.5 -214.0 493.0 -213.5 498.5 -213.0 504.0 -213.0 L504.0 -153.5 Q459.5 -159.0 414.5 -162.0 370.0 -165.0 325.5 -165.0 296.5 -165.0 268.5 -163.5 240.5 -162.0 213.0 -159.5 210.0 -112.0 209.0 -84.5 208.0 -57.0 208.0 -49.0 208.0 -5.5 223.5 17.0 239.0 39.0 271.5 39.0 284.5 39.0 307.5 34.0 330.0 28.5 362.5 19.5 346.5 -16.5 333.5 -49.5 320.5 -82.5 311.5 -112.5 L439.5 -149.5 Q451.0 -110.5 466.0 -70.5 481.0 -31.0 499.5 9.0 M128.0 -840.5 L263.0 -825.5 Q261.5 -816.0 260.0 -808.0 258.5 -800.0 257.0 -792.5 294.0 -806.5 317.0 -814.0 340.5 -821.0 350.0 -821.0 L359.5 -821.0 Q381.0 -821.0 402.5 -803.0 414.5 -790.5 449.0 -748.5 483.0 -706.5 539.5 -635.0 562.5 -738.0 579.5 -840.5 L716.0 -825.5 Q712.5 -805.5 709.0 -785.5 705.5 -765.5 701.5 -746.5 740.5 -763.5 769.0 -772.5 797.5 -781.0 815.0 -781.5 L839.5 -780.5 Q912.0 -780.0 948.5 -751.5 985.5 -722.5 987.0 -665.5 987.0 -621.0 978.0 -549.0 969.0 -476.5 951.5 -377.0 L819.0 -397.5 Q830.0 -454.0 837.0 -498.5 844.0 -543.0 848.0 -575.5 851.0 -603.0 852.5 -626.5 854.5 -649.5 855.0 -668.5 855.0 -675.0 854.5 -680.0 853.5 -685.5 852.0 -689.0 832.0 -612.5 812.5 -539.0 793.5 -466.0 774.0 -395.5 851.0 -208.0 980.0 22.5 L848.0 91.0 Q812.5 23.0 779.0 -48.0 745.5 -119.0 715.0 -192.5 692.0 -118.0 669.0 -47.0 646.5 23.5 623.5 91.0 L510.0 29.5 Q513.0 37.5 516.0 44.5 519.5 51.5 523.5 58.5 L403.5 106.5 Q399.0 97.0 394.5 88.5 390.0 79.5 386.0 71.5 331.5 85.5 291.5 92.5 252.0 99.5 227.5 99.5 L199.5 99.5 Q67.5 99.5 67.5 -33.0 67.5 -57.5 72.5 -159.0 77.5 -260.5 88.0 -439.5 L19.5 -456.5 Q55.0 -552.0 82.0 -648.0 109.5 -744.0 128.0 -840.5" fill-rule="evenodd" stroke="none"/>
    </g>
    <g id="font_DFPOP3_Std_W12__8">
      <path d="M255.0 -569.5 L311.5 -569.5 311.5 -560.0 Q345.0 -564.5 375.5 -568.5 406.0 -572.5 433.0 -575.5 422.5 -589.5 417.0 -604.0 411.5 -618.0 411.5 -633.0 411.5 -651.5 416.5 -667.5 421.5 -683.5 432.0 -697.5 446.0 -711.0 464.0 -718.0 482.0 -725.0 504.0 -725.0 537.5 -725.0 568.5 -703.5 596.0 -676.0 596.0 -633.0 596.0 -619.0 592.0 -607.0 588.5 -594.5 580.5 -584.5 L588.0 -584.5 Q641.5 -584.5 683.0 -576.5 724.0 -568.5 752.5 -553.0 715.0 -602.0 681.5 -643.0 647.5 -683.5 618.5 -716.0 598.5 -734.0 575.5 -743.5 552.5 -752.5 527.5 -752.5 499.5 -752.0 459.0 -741.0 418.5 -730.0 365.5 -708.5 338.5 -672.5 311.0 -638.0 283.5 -603.0 255.0 -569.5 M304.0 -352.5 Q302.5 -322.5 302.0 -296.0 301.0 -270.0 301.0 -247.0 355.0 -250.0 408.5 -251.5 462.0 -253.0 515.0 -253.0 548.0 -253.0 581.0 -252.5 614.0 -251.5 646.0 -251.0 660.0 -306.0 664.5 -352.5 620.0 -354.5 576.5 -356.0 532.5 -357.5 489.5 -357.5 442.0 -357.5 395.5 -356.0 349.5 -354.5 304.0 -352.5 M309.0 -503.0 Q307.5 -478.0 307.0 -455.5 306.0 -432.5 306.0 -411.5 352.0 -414.0 398.0 -415.5 443.5 -416.5 489.5 -417.0 534.0 -416.5 578.5 -415.5 623.0 -414.0 667.5 -411.5 664.0 -468.5 625.0 -497.0 586.0 -525.5 512.0 -525.5 467.5 -523.0 417.0 -517.5 366.0 -512.0 309.0 -503.0 M605.0 -192.5 Q639.0 -172.5 674.0 -154.0 709.0 -135.5 744.5 -119.0 746.0 -132.5 750.5 -145.5 755.5 -158.0 764.0 -169.0 768.5 -173.5 774.0 -177.5 779.0 -181.0 784.5 -184.5 739.0 -187.5 694.5 -189.0 649.5 -191.0 605.0 -192.5 M624.5 -21.5 Q488.0 -101.5 360.5 -190.5 329.5 -189.0 299.0 -187.5 296.0 -86.0 296.0 -77.0 296.0 -51.0 301.5 -33.5 307.0 -16.5 318.5 -7.0 329.5 3.0 346.5 8.5 364.0 14.0 387.0 15.5 427.0 15.5 486.5 6.0 545.5 -3.0 624.5 -21.5 M263.0 -840.5 L390.0 -774.0 Q447.0 -792.5 498.5 -802.5 550.0 -812.5 596.0 -813.0 L606.0 -813.0 Q641.5 -813.0 673.5 -804.0 706.0 -794.5 734.0 -776.0 772.5 -751.0 839.0 -690.0 905.0 -629.5 999.5 -533.5 L835.5 -441.5 Q832.5 -444.5 830.5 -447.5 829.0 -450.5 827.5 -453.5 829.0 -443.0 830.0 -431.5 831.5 -420.5 831.5 -409.5 831.5 -372.5 825.5 -331.0 819.5 -289.0 808.0 -242.5 814.0 -242.0 819.5 -241.5 825.5 -240.5 831.5 -240.5 L831.5 -197.5 835.5 -197.5 Q852.5 -197.5 868.5 -191.5 884.5 -186.0 900.0 -175.0 914.0 -161.5 921.0 -144.0 927.5 -127.0 927.5 -105.5 927.5 -85.5 921.0 -70.0 914.0 -54.0 901.0 -42.0 921.0 -32.0 941.5 -23.0 962.5 -13.5 983.0 -5.0 L859.0 110.5 Q802.5 80.5 747.5 50.0 692.5 19.0 639.0 -13.5 L636.0 39.0 Q537.5 56.5 457.0 65.5 377.0 74.5 315.5 75.0 L281.5 75.0 Q245.5 75.0 216.5 61.5 187.5 48.5 166.0 22.5 148.5 5.0 139.5 -22.0 131.0 -49.0 131.0 -85.0 131.0 -107.5 134.0 -204.0 137.0 -300.5 143.5 -471.0 L19.5 -549.0 Q90.0 -625.0 151.5 -698.0 212.5 -771.0 263.0 -840.5" fill-rule="evenodd" stroke="none"/>
    </g>
    <g id="font_DFPOP3_Std_W12__9">
      <path d="M614.5 -391.0 Q614.5 -361.0 601.5 -334.5 589.0 -307.5 564.0 -284.5 541.0 -263.0 514.5 -249.5 487.5 -236.0 456.5 -231.5 L423.0 -265.0 Q450.5 -280.5 468.5 -296.0 487.0 -311.5 494.5 -327.5 451.5 -332.5 430.5 -354.5 409.5 -376.5 409.5 -415.5 409.5 -436.0 416.0 -452.5 422.5 -469.0 436.0 -481.5 462.5 -506.0 504.0 -506.0 527.5 -506.0 547.5 -497.5 567.5 -489.0 583.5 -473.0 599.0 -456.5 606.5 -436.0 614.5 -415.5 614.5 -391.0" fill-rule="evenodd" stroke="none"/>
    </g>
    <g id="font_DFPOP3_Std_W12__10">
      <path d="M779.5 -247.0 Q787.0 -247.5 795.0 -248.0 803.5 -249.0 811.0 -249.0 817.0 -249.0 823.5 -248.5 829.5 -248.0 835.5 -248.0 L835.5 -301.0 810.0 -301.0 Q801.5 -301.0 794.0 -300.5 786.0 -300.0 779.5 -300.0 L779.5 -247.0 M779.5 -135.0 Q787.5 -136.0 796.0 -136.5 804.5 -137.0 813.0 -137.0 818.5 -137.0 824.0 -136.5 829.5 -136.5 835.5 -136.0 L835.5 -188.5 Q829.5 -188.5 823.5 -189.0 817.0 -189.5 811.0 -189.5 802.0 -189.5 794.0 -189.0 786.0 -188.0 779.5 -187.5 L779.5 -135.0 M779.5 0.0 Q788.5 -1.5 796.5 -3.0 804.5 -4.5 812.0 -6.0 818.0 -7.0 824.0 -8.5 829.5 -9.5 835.5 -11.5 L835.5 -76.0 Q829.5 -76.0 823.5 -76.5 817.5 -76.5 813.0 -77.0 804.0 -77.0 795.5 -76.0 787.0 -75.5 779.5 -75.0 L779.5 0.0 M810.0 -361.5 Q849.0 -361.5 888.5 -358.5 928.0 -355.5 967.5 -349.0 L967.5 -289.0 Q963.0 -289.0 959.0 -289.5 955.0 -290.0 951.5 -291.0 L951.5 -44.0 Q963.5 -48.5 976.0 -53.0 L987.0 -1.0 Q978.0 2.0 969.0 5.5 960.0 9.0 951.5 12.5 L951.5 95.0 835.5 95.0 835.5 45.0 Q829.5 46.0 824.5 46.5 819.5 47.5 815.0 49.0 777.5 54.5 733.0 57.5 688.0 61.0 636.0 62.5 L636.0 11.5 Q643.5 11.0 652.0 11.0 660.0 10.5 667.5 10.0 L667.5 -291.0 Q663.0 -290.0 658.5 -289.5 654.5 -289.0 651.5 -289.0 L651.5 -349.0 Q690.5 -355.5 730.0 -358.5 770.0 -361.5 810.0 -361.5 M548.0 -700.5 Q574.0 -703.0 600.5 -704.0 627.0 -705.5 653.5 -705.5 675.5 -705.5 698.0 -704.5 720.5 -703.0 743.5 -701.5 L743.5 -764.0 Q722.0 -764.0 701.0 -764.5 680.0 -765.0 659.5 -765.0 631.0 -765.0 603.5 -764.5 575.5 -763.5 548.0 -763.0 L548.0 -700.5 M548.0 -583.5 Q574.0 -586.0 600.5 -587.5 627.0 -589.0 653.5 -589.0 675.5 -589.0 698.0 -588.0 720.5 -587.5 743.5 -585.5 L743.5 -641.0 Q720.5 -642.5 697.5 -644.0 675.0 -645.0 653.5 -645.0 626.5 -645.0 600.0 -643.5 574.0 -642.5 548.0 -640.0 L548.0 -583.5 M548.0 -459.0 Q583.0 -460.5 614.5 -462.5 645.5 -465.0 671.5 -469.0 688.5 -470.5 707.0 -472.5 725.0 -474.0 743.5 -477.0 L743.5 -525.5 Q720.5 -527.0 697.5 -528.0 675.0 -529.5 653.5 -529.5 626.5 -529.5 600.0 -528.0 574.0 -526.5 548.0 -524.5 L548.0 -459.0 M659.5 -825.5 Q727.0 -825.5 795.5 -822.5 863.5 -819.0 932.0 -813.0 L932.0 -752.5 Q918.0 -753.5 905.0 -754.5 892.0 -755.0 879.5 -756.5 L879.5 -500.5 Q893.5 -504.0 907.5 -507.0 921.5 -510.0 936.0 -513.0 L947.0 -461.0 Q929.5 -456.5 912.5 -453.0 895.5 -449.5 879.5 -446.5 L879.5 -381.0 743.5 -381.0 743.5 -424.0 Q725.0 -421.0 707.5 -418.5 690.0 -416.5 674.0 -414.5 614.0 -408.5 542.0 -405.5 470.0 -402.0 387.0 -401.5 L387.0 -453.5 415.5 -453.5 415.5 -754.5 Q408.0 -754.0 401.0 -753.5 394.0 -752.5 387.0 -752.5 L387.0 -813.0 Q454.5 -819.0 523.0 -822.5 591.0 -825.5 659.5 -825.5 M451.5 -246.0 Q471.5 -249.0 491.5 -249.0 L499.5 -249.0 499.5 -301.0 451.5 -301.0 451.5 -246.0 M451.5 -134.0 Q471.5 -137.0 491.5 -137.0 L499.5 -137.0 499.5 -189.5 491.5 -189.5 Q470.0 -189.5 451.5 -186.5 L451.5 -134.0 M451.5 -2.0 Q463.0 -3.5 475.5 -6.5 487.5 -9.5 499.5 -13.5 L499.5 -77.0 491.5 -77.0 Q470.0 -77.0 451.5 -73.5 L451.5 -2.0 M151.5 -694.5 L151.5 -833.5 287.5 -833.5 287.5 -694.5 Q309.0 -692.5 330.0 -690.5 351.0 -688.0 371.5 -685.0 L371.5 -624.5 Q350.0 -627.5 329.0 -630.0 308.0 -632.5 287.5 -634.0 L287.5 -445.5 Q294.0 -448.5 299.5 -452.5 305.0 -456.0 311.5 -461.0 L367.5 -365.5 Q358.5 -359.5 352.5 -353.5 384.0 -357.0 415.0 -359.5 446.5 -361.5 477.0 -361.5 516.5 -361.5 556.0 -358.5 596.0 -355.5 636.0 -349.0 L636.0 -289.0 Q630.5 -289.5 625.5 -290.0 620.0 -291.0 615.5 -291.0 L615.5 95.0 499.5 95.0 499.5 42.0 Q486.0 45.0 473.0 48.0 460.0 51.0 448.5 53.0 420.0 56.5 387.0 58.5 354.0 61.0 315.5 62.5 L315.5 11.5 Q322.5 11.0 328.5 11.0 334.5 10.5 340.0 10.0 L340.0 -292.0 Q334.5 -290.5 329.5 -289.5 324.0 -289.0 319.5 -289.0 L319.5 -328.5 Q310.5 -322.0 302.5 -316.0 294.5 -310.0 287.5 -305.0 L287.5 -41.0 Q287.5 -9.5 282.5 15.0 277.5 39.5 267.5 57.5 254.0 76.0 228.0 85.5 202.5 95.0 164.0 95.0 145.5 95.0 118.0 92.0 90.5 89.0 55.5 83.0 L55.5 22.5 Q73.0 28.5 87.0 31.5 101.0 35.0 111.5 35.0 151.5 35.0 151.5 -5.0 L151.5 -227.5 Q135.5 -219.5 119.5 -213.0 103.0 -207.0 87.0 -200.5 L43.0 -325.5 Q75.0 -335.0 102.5 -345.5 129.5 -356.0 151.5 -366.5 L151.5 -634.0 Q130.0 -632.5 109.0 -630.0 87.5 -627.5 67.5 -624.5 L67.5 -685.0 Q89.0 -688.0 110.0 -690.5 131.0 -692.5 151.5 -694.5" fill-rule="evenodd" stroke="none"/>
    </g>
    <g id="font_DFPOP3_Std_W12__11">
      <path d="M808.0 -769.0 Q894.0 -769.0 937.0 -743.0 980.0 -717.0 980.0 -665.5 980.0 -649.0 971.0 -614.5 962.0 -580.5 944.0 -528.5 921.0 -457.5 896.0 -390.5 871.0 -323.0 845.0 -259.0 881.5 -184.0 917.5 -116.0 953.5 -48.5 987.0 11.5 L863.0 95.0 Q838.5 53.0 814.5 7.5 790.5 -38.0 766.0 -87.0 744.5 -43.5 721.0 2.0 697.0 47.5 671.5 95.0 L519.0 -1.0 Q614.5 -167.0 669.5 -283.5 639.5 -347.5 609.0 -415.5 578.5 -484.0 548.0 -557.0 L659.5 -645.0 Q681.5 -596.0 703.0 -550.5 724.5 -505.0 745.5 -462.0 771.5 -529.5 797.5 -603.0 808.5 -631.5 814.0 -649.0 819.0 -666.5 819.0 -673.0 819.0 -691.0 800.0 -700.5 781.0 -709.5 743.5 -709.5 704.0 -702.5 652.0 -684.5 600.0 -666.0 535.5 -637.0 L535.5 -697.5 Q624.0 -732.5 692.0 -751.0 760.5 -769.0 808.0 -769.0 M227.5 -558.0 Q264.0 -561.0 301.0 -561.0 318.0 -561.0 334.5 -560.5 351.5 -560.0 367.5 -559.0 L367.5 -732.0 Q352.0 -732.0 337.0 -732.5 322.0 -733.0 307.0 -733.0 286.5 -733.0 266.5 -732.5 246.5 -732.0 227.5 -732.0 L227.5 -558.0 M227.5 -335.0 Q246.0 -335.5 264.0 -336.5 282.5 -337.0 301.0 -337.0 318.0 -337.0 334.5 -336.5 351.5 -335.5 367.5 -335.0 L367.5 -498.5 Q351.0 -499.5 334.5 -500.0 318.0 -500.5 301.0 -500.5 282.0 -500.5 263.5 -500.0 245.0 -499.5 227.5 -498.5 L227.5 -335.0 M227.5 -83.0 Q232.5 -83.5 237.5 -84.5 242.0 -85.5 247.0 -87.0 275.0 -91.5 305.5 -98.5 335.5 -106.0 367.5 -115.5 L367.5 -275.5 Q351.0 -276.5 334.5 -277.0 318.0 -277.5 301.0 -277.5 262.5 -277.5 227.5 -274.5 L227.5 -83.0 M307.0 -793.5 Q371.0 -793.5 435.0 -790.5 498.5 -787.5 563.0 -781.5 L563.0 -721.0 Q548.5 -722.5 535.0 -723.5 521.0 -724.5 508.0 -725.0 L508.0 91.0 367.5 91.0 367.5 -60.5 Q335.5 -50.5 305.5 -43.5 276.0 -36.5 250.0 -31.5 207.0 -25.5 156.0 -22.5 105.5 -19.0 47.0 -17.5 L47.0 -69.5 Q57.0 -69.5 67.0 -70.0 77.0 -70.0 87.0 -70.5 L87.0 -724.0 Q78.0 -723.0 68.5 -722.5 59.5 -721.5 51.0 -721.0 L51.0 -781.5 Q115.0 -787.5 179.0 -790.5 242.5 -793.5 307.0 -793.5" fill-rule="evenodd" stroke="none"/>
    </g>
    <g id="font_DFPOP3_Std_W12__12">
      <path d="M819.0 -477.0 Q852.5 -354.0 894.5 -231.0 936.5 -107.5 987.0 15.5 L823.5 51.0 Q775.5 -75.5 737.0 -200.0 698.5 -324.0 667.5 -445.5 L819.0 -477.0 M204.0 -473.0 L359.5 -453.5 Q329.5 -330.0 285.5 -204.0 241.5 -78.0 183.5 51.0 L31.5 11.5 Q88.5 -108.5 131.5 -230.0 174.5 -351.0 204.0 -473.0 M420.0 -648.0 L420.0 -805.0 588.0 -805.0 588.0 -649.0 Q780.0 -646.0 972.0 -637.0 L972.0 -577.5 Q856.5 -583.0 741.5 -586.0 626.5 -589.0 512.0 -589.0 397.0 -589.0 281.5 -586.0 166.5 -583.0 51.0 -577.5 L51.0 -637.0 Q143.5 -641.5 235.5 -644.5 327.5 -647.5 420.0 -648.0" fill-rule="evenodd" stroke="none"/>
    </g>
    <g id="font_DFPOP3_Std_W12__13">
      <path d="M392.0 -608.5 Q415.0 -659.5 439.0 -716.0 463.0 -772.0 487.5 -833.5 L647.0 -781.5 Q612.0 -687.5 579.5 -609.5 673.5 -607.5 767.5 -604.5 861.5 -601.5 955.5 -597.0 L955.5 -537.5 Q877.0 -541.5 799.0 -544.0 721.0 -546.5 644.0 -548.0 705.5 -425.0 786.5 -288.5 867.0 -151.5 967.5 -1.0 L795.5 91.0 Q719.0 -35.5 647.5 -169.5 576.0 -303.0 510.0 -444.5 493.0 -407.5 477.5 -374.0 462.0 -340.5 446.5 -311.5 342.0 -121.0 204.0 91.0 L43.0 11.5 Q106.0 -79.5 162.5 -171.5 219.0 -263.0 268.5 -355.5 291.5 -397.5 315.5 -446.0 340.0 -494.0 364.5 -548.0 290.0 -546.0 215.5 -543.5 141.5 -540.5 67.5 -537.5 L67.5 -597.0 Q149.0 -601.5 230.0 -604.0 311.0 -607.0 392.0 -608.5" fill-rule="evenodd" stroke="none"/>
    </g>
    <g id="font_DFPOP3_Std_W12__14">
      <path d="M892.0 -97.5 Q910.5 -61.0 932.5 -25.0 954.5 11.0 980.0 47.0 L859.0 102.5 Q836.0 68.0 815.0 32.0 794.5 -4.0 775.0 -41.0 L892.0 -97.5 M180.0 -215.0 Q189.5 -238.0 199.5 -262.5 209.0 -287.0 219.0 -313.5 L343.0 -261.0 Q338.5 -249.0 334.0 -238.0 329.5 -227.0 325.5 -216.0 361.0 -214.5 397.0 -211.5 432.5 -208.5 468.0 -205.0 L468.0 -145.5 Q442.0 -147.5 416.5 -150.0 391.0 -152.0 366.5 -153.5 389.5 -113.5 419.0 -69.5 448.0 -25.0 483.5 22.5 L355.5 91.0 Q332.0 48.5 310.5 4.5 288.5 -39.0 268.5 -85.0 249.0 -44.5 224.0 2.0 198.5 48.5 168.0 102.5 L47.0 39.0 Q74.0 -4.0 97.5 -47.0 121.5 -90.0 141.5 -132.0 143.5 -136.5 146.0 -142.0 148.5 -147.5 151.5 -153.5 126.0 -152.0 101.0 -150.0 76.0 -147.5 51.0 -145.5 L51.0 -205.0 Q83.5 -208.0 115.5 -210.5 148.0 -213.5 180.0 -215.0 M610.5 -491.5 Q635.5 -494.0 661.5 -495.0 687.5 -496.5 713.5 -496.5 733.0 -496.5 752.5 -496.0 771.5 -495.0 791.5 -493.5 L791.5 -533.5 Q791.5 -561.0 776.5 -575.0 761.0 -589.0 731.0 -589.0 705.0 -587.0 676.0 -583.0 646.5 -578.5 614.5 -572.5 613.0 -551.5 611.5 -531.5 610.5 -511.5 610.5 -491.5 M607.0 -327.5 Q635.0 -330.0 662.0 -331.5 689.0 -333.0 716.0 -333.0 735.0 -333.0 754.0 -332.0 773.0 -331.5 791.5 -331.0 L791.5 -434.0 Q771.5 -435.5 752.0 -436.5 732.0 -437.0 713.5 -437.0 687.0 -437.0 660.5 -436.0 634.5 -434.5 608.5 -432.0 607.5 -415.0 607.5 -399.0 607.0 -383.0 607.0 -367.5 L607.0 -327.5 M614.5 -167.0 Q649.0 -170.0 683.5 -171.5 718.5 -173.0 753.5 -173.0 763.0 -173.0 772.5 -172.5 782.5 -172.0 791.5 -172.0 L791.5 -270.5 Q771.5 -272.0 753.0 -272.5 734.0 -273.5 716.0 -273.5 689.0 -273.5 662.0 -272.0 635.5 -270.5 609.5 -268.5 610.0 -242.0 611.5 -217.0 613.0 -191.5 614.5 -167.0 M143.5 -801.0 Q158.5 -801.0 172.5 -796.0 186.5 -791.5 199.5 -782.5 203.5 -778.0 206.5 -774.0 209.5 -770.0 212.0 -766.0 L212.0 -837.5 332.0 -837.5 332.0 -671.5 Q345.0 -707.0 357.0 -741.5 369.0 -776.0 380.0 -809.0 L487.5 -752.5 Q470.5 -718.0 452.5 -684.5 435.0 -651.0 415.5 -618.5 431.0 -617.0 446.0 -616.0 460.5 -615.0 475.0 -613.5 L475.0 -553.0 Q449.0 -556.0 423.0 -558.5 397.0 -560.5 371.5 -562.0 396.0 -539.0 423.5 -516.0 450.5 -493.5 481.5 -471.0 482.0 -515.5 484.5 -560.0 487.0 -604.5 491.5 -649.0 L605.0 -649.0 Q610.5 -670.0 615.0 -692.5 620.0 -715.0 623.5 -739.5 590.5 -737.5 557.5 -735.0 524.5 -732.0 491.5 -729.0 L491.5 -789.5 Q550.0 -795.0 609.0 -798.0 668.0 -800.5 727.0 -801.0 786.0 -800.5 845.5 -798.0 904.5 -795.0 963.5 -789.5 L963.5 -729.0 Q862.0 -738.5 764.0 -741.5 758.5 -715.0 752.5 -691.5 746.0 -668.0 738.5 -648.0 747.5 -648.5 755.5 -648.5 763.5 -649.0 771.0 -649.0 L783.5 -649.0 Q825.5 -649.0 855.5 -641.5 886.0 -634.0 904.0 -618.5 921.0 -604.0 930.0 -584.0 939.0 -563.5 939.0 -537.5 L939.0 -162.0 Q942.0 -161.5 945.0 -161.5 948.0 -161.0 951.5 -161.0 L951.5 -101.5 Q902.0 -107.0 852.5 -109.5 803.0 -112.5 753.5 -112.5 719.0 -112.5 685.0 -111.0 651.0 -110.0 617.5 -107.5 617.5 -101.5 618.0 -96.0 618.5 -90.5 619.5 -85.0 L615.5 -85.0 683.0 -53.0 Q662.5 -11.5 640.5 26.5 619.0 64.5 596.0 99.5 L487.5 43.0 Q509.0 11.0 527.5 -21.0 546.0 -53.0 561.0 -85.0 L491.5 -85.0 Q479.0 -226.5 479.0 -367.5 479.0 -386.0 479.5 -405.0 479.5 -424.0 480.5 -443.5 L415.5 -368.5 Q392.5 -391.0 372.0 -414.0 351.0 -436.5 332.0 -460.0 L332.0 -325.5 212.0 -325.5 212.0 -564.0 205.0 -564.0 Q195.5 -506.0 183.5 -447.0 171.0 -388.0 155.5 -328.5 L36.0 -361.5 Q54.5 -410.0 69.5 -459.0 84.5 -508.0 95.0 -557.0 83.0 -556.5 71.0 -555.5 58.5 -554.5 47.0 -553.0 L47.0 -613.5 Q88.5 -618.0 129.5 -620.5 170.5 -623.0 212.0 -623.5 L212.0 -682.0 Q208.0 -676.0 204.0 -671.0 200.0 -666.5 195.5 -662.5 169.5 -641.0 143.5 -641.0 125.5 -641.0 111.0 -648.0 96.0 -655.0 84.0 -668.5 73.5 -681.0 68.5 -694.0 63.5 -707.0 63.5 -721.0 63.5 -753.0 82.0 -776.0 106.5 -801.0 143.5 -801.0" fill-rule="evenodd" stroke="none"/>
    </g>
    <g id="font_DFPOP3_Std_W12__15">
      <path d="M316.5 -244.5 Q374.0 -248.5 431.5 -251.0 489.5 -253.0 548.0 -253.0 577.0 -253.0 606.5 -252.5 636.5 -251.5 665.5 -251.0 666.5 -266.0 667.0 -278.0 667.5 -289.5 667.5 -297.0 667.5 -311.0 654.5 -318.0 641.5 -325.0 615.5 -325.5 555.0 -324.0 480.0 -315.0 405.5 -306.0 316.5 -290.0 315.5 -283.5 315.5 -277.5 315.5 -271.5 315.5 -265.0 315.5 -260.0 315.5 -254.5 315.5 -249.5 316.5 -244.5 M244.5 8.0 Q321.5 3.5 399.0 1.5 476.5 -1.0 554.0 -1.0 651.0 -1.0 747.5 2.0 749.0 -15.0 750.5 -27.5 751.5 -40.0 751.5 -49.0 751.5 -64.5 739.5 -72.5 727.5 -80.0 703.5 -81.0 613.0 -79.5 498.0 -69.5 383.0 -59.5 244.5 -41.0 244.0 -34.0 244.0 -28.0 243.5 -22.0 243.5 -17.5 243.5 -10.5 244.0 -4.0 244.0 2.0 244.5 8.0 M40.0 -456.5 L179.0 -456.5 Q177.0 -448.5 175.0 -440.5 173.5 -432.5 172.0 -425.0 321.0 -452.5 439.5 -467.0 557.5 -481.0 645.0 -481.5 L660.5 -481.5 Q745.0 -481.5 805.0 -474.5 865.0 -467.5 901.0 -453.5 940.5 -437.5 960.0 -411.5 980.0 -385.5 980.0 -349.0 L980.0 -225.5 839.5 -225.5 839.5 -181.0 Q692.0 -193.5 548.0 -193.5 L509.0 -193.5 Q503.0 -175.0 496.0 -158.5 489.0 -141.5 482.5 -127.0 557.5 -133.0 630.5 -137.0 704.0 -140.5 775.0 -141.5 836.5 -141.5 868.0 -119.0 899.0 -97.0 899.0 -53.0 899.0 -44.0 898.0 -28.5 896.5 -13.0 895.0 9.0 901.0 9.0 907.5 10.0 913.5 10.5 919.5 11.5 L919.5 70.5 Q735.0 58.5 554.0 58.5 478.5 58.5 403.5 60.0 328.5 62.0 254.0 66.5 254.0 69.5 254.5 72.5 255.0 76.0 256.0 79.0 L124.0 79.0 Q118.0 54.5 114.5 30.5 111.5 6.5 111.5 -17.5 111.5 -65.0 124.0 -112.5 L256.0 -112.5 Q255.0 -109.5 254.5 -107.0 254.0 -104.0 254.0 -102.5 304.5 -108.5 352.5 -114.5 360.0 -131.5 366.0 -150.0 372.5 -168.5 378.0 -189.5 364.0 -188.5 350.5 -188.0 337.0 -187.0 324.5 -186.5 324.5 -181.5 325.5 -177.5 326.0 -173.0 327.5 -169.0 L199.5 -169.0 Q193.5 -192.5 190.5 -216.5 187.5 -240.5 187.5 -265.0 187.5 -289.0 190.5 -313.0 193.5 -337.0 199.5 -361.5 L327.5 -361.5 Q327.0 -358.5 326.5 -355.5 325.5 -353.0 325.5 -351.0 418.0 -366.5 507.0 -375.0 596.5 -383.5 683.0 -385.0 745.0 -385.0 776.5 -363.0 808.0 -341.0 808.0 -297.0 808.0 -289.5 807.5 -276.0 806.5 -262.5 806.0 -242.5 813.5 -242.0 820.5 -241.5 828.0 -240.5 835.5 -240.5 L835.5 -349.0 Q835.5 -398.5 774.0 -410.5 746.0 -415.5 705.5 -418.0 665.5 -421.0 613.5 -421.0 532.5 -421.0 420.5 -406.5 308.5 -392.5 165.0 -364.5 164.0 -358.5 164.0 -353.0 164.0 -347.0 164.0 -341.0 164.0 -312.0 167.5 -283.0 171.5 -254.5 179.0 -225.5 L40.0 -225.5 Q31.5 -254.5 27.5 -283.0 23.5 -312.0 23.5 -341.0 23.5 -370.0 27.5 -399.0 31.5 -427.5 40.0 -456.5 M883.5 -801.0 L987.0 -745.5 Q938.0 -698.0 879.5 -653.5 L779.5 -717.0 Q809.0 -738.5 835.5 -759.5 861.5 -780.5 883.5 -801.0 M403.5 -789.5 L489.5 -743.5 Q485.0 -752.5 481.5 -762.5 478.0 -772.0 475.0 -781.5 L588.0 -813.0 Q596.0 -789.5 607.0 -765.5 618.0 -741.5 632.0 -717.0 648.0 -744.5 662.0 -771.5 675.5 -798.5 687.0 -825.5 L811.0 -809.0 Q792.0 -764.5 768.0 -719.5 744.0 -674.5 715.0 -630.0 L819.0 -661.5 Q836.0 -628.5 860.5 -594.5 884.5 -560.5 915.5 -525.5 L804.0 -481.5 Q773.0 -522.0 750.0 -558.0 727.5 -594.5 712.5 -626.5 671.0 -562.0 623.5 -500.5 L499.5 -533.5 Q532.5 -572.0 561.0 -610.0 589.5 -647.5 613.5 -686.0 L531.5 -653.5 Q522.0 -670.0 514.0 -687.0 505.5 -703.5 498.5 -720.0 468.0 -670.5 431.0 -624.5 L332.0 -689.0 Q352.5 -715.0 370.5 -740.0 388.0 -765.0 403.5 -789.5 M151.5 -789.5 Q158.0 -766.5 166.0 -743.0 174.0 -719.0 183.5 -695.5 197.0 -729.0 209.5 -762.5 221.5 -795.5 231.5 -829.5 L355.5 -813.0 Q341.5 -767.0 324.5 -720.5 307.5 -674.0 287.5 -627.5 L359.5 -657.5 Q380.0 -628.5 408.0 -596.5 435.5 -564.5 471.0 -529.5 L363.5 -473.0 Q337.5 -501.0 313.5 -530.0 290.0 -559.0 269.5 -589.0 254.5 -556.5 239.5 -525.5 224.0 -495.0 208.0 -465.0 L84.0 -496.5 Q107.0 -536.0 127.5 -575.0 148.0 -614.5 166.0 -654.5 L84.0 -621.5 Q68.5 -658.5 57.5 -692.0 47.0 -726.0 40.0 -756.5 L151.5 -789.5" fill-rule="evenodd" stroke="none"/>
    </g>
    <g id="font_DFPOP3_Std_W12__16">
      <path d="M513.0 -449.5 Q561.5 -449.5 610.0 -446.5 658.5 -443.5 707.5 -437.0 L707.5 -377.0 Q658.5 -383.0 610.0 -386.0 561.5 -389.0 513.0 -389.0 416.5 -389.0 319.5 -377.0 L319.5 -437.0 Q416.5 -449.5 513.0 -449.5 M335.0 -184.5 Q333.5 -170.0 332.5 -156.5 332.0 -143.5 332.0 -131.0 382.5 -134.0 433.5 -135.5 484.0 -137.0 535.5 -137.0 568.0 -137.0 599.5 -136.5 631.0 -136.0 662.5 -135.0 663.5 -148.5 664.0 -160.5 665.0 -172.5 665.5 -183.5 622.5 -186.5 581.0 -188.0 539.0 -189.5 497.5 -189.5 456.0 -189.5 415.5 -188.0 375.0 -186.5 335.0 -184.5 M342.0 -290.0 Q339.0 -265.0 339.0 -243.5 379.0 -246.0 418.5 -247.5 458.0 -249.0 497.5 -249.0 540.5 -249.0 583.0 -247.5 625.5 -246.0 667.5 -243.5 L667.5 -257.0 Q667.5 -281.0 658.5 -293.0 649.5 -305.0 632.0 -305.0 569.5 -303.5 497.5 -300.0 425.0 -296.0 342.0 -290.0 M701.5 -72.5 Q729.0 -63.5 756.5 -55.5 784.5 -47.5 812.0 -40.0 811.5 -41.5 811.0 -44.0 811.0 -46.0 811.0 -49.0 811.0 -53.5 811.5 -58.0 811.5 -62.0 813.0 -66.5 784.5 -68.0 757.0 -69.5 729.0 -71.0 701.5 -72.5 M311.5 -845.0 Q326.5 -845.0 340.5 -840.0 354.5 -835.5 367.5 -826.5 379.0 -814.0 385.0 -798.5 391.0 -783.5 391.0 -765.0 391.0 -757.0 390.0 -751.0 388.5 -745.0 387.0 -740.5 417.0 -740.5 447.0 -741.0 477.0 -741.5 508.0 -741.5 538.5 -741.5 569.5 -741.0 600.0 -740.5 631.0 -740.5 645.5 -765.0 658.5 -789.0 671.5 -813.0 683.0 -837.5 L827.5 -773.0 Q819.0 -762.5 810.5 -753.0 802.5 -744.0 794.5 -736.5 833.0 -734.5 871.0 -732.5 909.0 -730.5 947.0 -729.0 L947.0 -677.0 Q854.0 -681.5 762.0 -684.5 670.0 -687.5 579.5 -689.0 L579.5 -633.0 Q663.5 -631.5 747.0 -628.5 831.0 -626.0 915.5 -621.5 L915.5 -561.0 Q831.0 -566.0 747.0 -568.5 662.5 -571.5 579.5 -572.5 L579.5 -525.5 Q677.0 -524.0 775.5 -520.5 873.5 -517.5 972.0 -513.0 L972.0 -453.5 Q948.5 -454.5 925.5 -455.5 902.5 -456.0 879.5 -457.5 901.0 -434.5 926.5 -411.0 952.5 -387.0 983.0 -361.5 L844.0 -289.0 Q808.5 -330.0 776.5 -373.5 745.0 -417.0 716.0 -463.0 664.5 -463.5 613.5 -464.5 562.5 -465.0 512.0 -465.0 460.0 -465.0 409.0 -464.0 358.0 -463.5 307.0 -462.0 291.0 -438.0 275.0 -415.0 259.0 -391.5 242.5 -368.5 L347.0 -368.5 Q346.5 -362.5 346.0 -358.0 346.0 -353.0 346.0 -349.0 451.5 -357.0 530.0 -361.0 608.5 -365.5 660.5 -365.5 L683.0 -365.5 Q721.5 -365.5 748.5 -358.0 775.5 -351.0 791.5 -337.0 807.0 -323.0 815.0 -304.0 823.0 -285.0 823.5 -261.0 823.5 -199.5 817.0 -126.0 822.0 -126.0 826.5 -125.5 831.0 -125.0 835.5 -125.0 L835.5 -107.5 Q846.5 -116.0 859.5 -120.5 872.5 -125.0 888.0 -125.0 901.5 -125.0 914.5 -120.5 927.5 -116.0 940.0 -107.5 951.5 -96.0 957.5 -81.5 963.5 -67.0 963.5 -49.0 963.5 -34.0 959.0 -22.0 954.5 -10.5 945.0 -2.0 960.5 2.5 976.0 7.0 L899.0 110.5 Q760.0 60.0 641.5 13.5 523.0 -33.0 425.0 -76.0 400.5 -74.5 376.0 -73.5 351.5 -72.5 327.5 -71.5 325.5 -41.0 324.5 -24.5 323.5 -8.0 323.5 -5.0 323.5 19.5 329.5 28.5 332.5 33.0 337.0 35.5 341.0 38.0 347.0 39.0 433.0 39.0 611.5 11.5 L607.0 75.0 Q511.5 87.0 433.5 93.0 356.0 99.5 296.0 99.5 L272.5 99.5 Q248.0 99.5 228.5 90.0 209.0 81.0 194.5 63.5 182.5 51.0 176.5 33.0 171.0 14.5 171.0 -9.0 171.0 -26.0 175.5 -98.5 180.5 -171.0 190.5 -299.0 183.5 -290.0 177.0 -281.5 170.0 -273.0 164.0 -265.0 L36.0 -345.0 Q69.5 -374.0 99.5 -402.0 129.0 -430.0 154.5 -457.5 128.5 -456.0 102.5 -455.5 76.5 -454.5 51.0 -453.5 L51.0 -513.0 Q143.5 -517.5 235.5 -520.5 327.5 -523.5 420.0 -524.5 L420.0 -572.5 Q340.0 -571.0 261.0 -568.5 182.0 -565.5 103.5 -561.0 L103.5 -621.5 Q182.5 -626.0 261.5 -628.5 340.5 -631.0 420.0 -632.0 L420.0 -688.0 Q396.0 -688.0 372.5 -687.5 348.5 -687.0 325.5 -687.0 322.0 -685.5 318.0 -685.5 314.5 -685.0 311.5 -685.0 308.0 -685.0 305.0 -685.0 302.0 -685.5 299.0 -686.0 240.5 -684.5 183.0 -682.0 125.0 -680.0 67.5 -677.0 L67.5 -729.0 Q110.0 -731.5 152.0 -733.0 194.5 -735.0 237.5 -736.5 234.5 -743.0 233.0 -750.0 231.5 -757.5 231.5 -765.0 231.5 -797.0 250.0 -820.0 274.5 -845.0 311.5 -845.0" fill-rule="evenodd" stroke="none"/>
    </g>
    <g id="font_DFPOP3_Std_W12__17">
      <path d="M819.0 -125.0 Q836.0 -86.0 860.5 -45.0 884.5 -4.0 915.5 39.0 L775.0 95.0 Q746.0 44.0 724.0 -2.0 701.5 -47.5 687.0 -89.0 L819.0 -125.0 M159.5 -97.5 L299.0 -81.0 Q283.5 -39.5 260.5 3.5 238.0 46.5 208.0 91.0 L63.5 55.5 Q95.5 17.0 119.5 -21.0 143.5 -59.0 159.5 -97.5 M431.0 -795.5 L431.0 -837.5 592.0 -837.5 592.0 -795.5 Q676.5 -795.0 761.5 -792.5 846.5 -790.0 932.0 -785.5 L932.0 -725.0 Q846.0 -729.5 761.0 -732.5 676.5 -735.5 592.0 -736.5 L592.0 -676.0 Q674.0 -675.0 756.0 -672.5 838.0 -670.0 919.5 -665.5 L919.5 -605.0 Q837.5 -610.0 755.5 -612.5 673.5 -615.5 592.0 -616.5 L592.0 -556.0 Q685.5 -555.0 779.5 -552.5 873.0 -549.5 967.5 -545.0 L967.5 -485.5 Q882.5 -489.0 798.0 -491.5 714.0 -494.0 631.0 -495.5 L676.0 -409.5 Q575.0 -399.0 498.0 -388.5 420.5 -378.5 366.5 -367.5 314.5 -358.5 289.0 -351.5 263.0 -345.0 263.0 -341.0 263.0 -339.5 272.5 -338.0 281.5 -337.0 299.0 -337.0 316.5 -337.0 338.5 -337.0 360.0 -337.5 386.0 -339.0 393.5 -339.0 402.0 -339.5 410.5 -340.0 420.0 -340.0 486.0 -354.5 562.5 -369.0 639.5 -383.5 727.0 -397.5 L787.5 -281.5 Q655.5 -266.0 553.5 -251.0 452.0 -235.5 380.0 -220.0 311.5 -206.5 277.5 -197.0 243.5 -187.5 243.5 -181.0 243.5 -177.5 253.5 -175.0 263.5 -173.0 283.5 -173.0 329.0 -173.0 385.0 -177.0 441.0 -180.5 507.0 -188.5 626.5 -199.0 802.0 -228.5 797.0 -239.0 792.5 -250.5 788.0 -262.0 783.5 -273.5 L903.0 -325.5 Q919.5 -285.5 941.5 -242.0 963.5 -198.0 991.0 -149.5 L871.5 -85.0 Q847.0 -128.0 828.5 -171.0 759.5 -157.0 698.5 -147.0 637.5 -137.0 583.5 -130.0 L583.5 91.0 424.0 91.0 424.0 -114.5 Q407.0 -113.0 392.0 -113.0 376.5 -112.5 363.5 -112.5 L317.5 -112.5 Q260.5 -112.5 217.0 -118.0 173.5 -123.5 143.5 -135.0 113.5 -146.5 98.5 -163.0 84.0 -179.0 84.0 -200.5 84.0 -234.5 204.0 -280.5 188.5 -282.0 175.5 -286.0 163.0 -290.0 153.5 -296.0 138.5 -306.0 131.0 -320.5 124.0 -335.0 124.0 -353.5 124.0 -368.5 154.0 -386.5 184.0 -404.5 244.5 -426.0 300.0 -444.5 376.5 -462.0 453.0 -479.5 550.0 -496.5 L512.0 -496.5 Q397.5 -496.5 283.5 -493.5 169.0 -491.0 55.5 -485.5 L55.5 -545.0 Q149.0 -549.5 243.0 -552.5 337.5 -555.0 431.0 -556.0 L431.0 -616.5 Q347.5 -615.5 264.5 -612.5 181.5 -610.0 99.5 -605.0 L99.5 -665.5 Q182.5 -670.0 265.0 -672.5 348.0 -675.0 431.0 -676.0 L431.0 -736.5 Q345.0 -735.5 260.5 -732.5 175.5 -729.5 91.0 -725.0 L91.0 -785.5 Q175.5 -790.0 260.5 -792.5 346.0 -795.0 431.0 -795.5" fill-rule="evenodd" stroke="none"/>
    </g>
    <g id="font_DFPOP3_Std_W12__18">
      <path d="M584.5 -368.5 Q584.5 -382.5 579.5 -395.5 574.0 -408.5 563.0 -420.0 551.5 -430.5 539.0 -436.0 526.0 -441.5 512.0 -441.5 496.0 -441.5 483.0 -436.0 470.0 -431.0 460.0 -421.0 449.0 -410.0 444.0 -397.0 439.0 -384.0 439.5 -368.5 439.5 -353.5 444.5 -340.5 450.0 -328.0 461.0 -317.5 471.5 -306.0 484.0 -300.5 496.5 -295.0 512.0 -295.0 526.0 -295.0 539.0 -300.5 551.5 -306.0 563.0 -317.5 574.0 -328.0 579.5 -341.0 584.5 -354.0 584.5 -368.5 M665.5 -368.5 Q665.5 -338.0 654.0 -310.5 642.5 -283.0 619.5 -260.0 573.5 -214.0 512.0 -214.0 480.0 -214.0 452.5 -225.5 425.5 -237.0 403.5 -260.0 380.5 -282.5 369.5 -309.5 358.5 -336.5 358.5 -368.5 358.5 -434.5 401.5 -479.0 444.5 -522.0 512.0 -522.0 543.5 -522.0 570.5 -511.0 597.5 -499.5 620.5 -477.0 643.0 -454.0 654.0 -427.0 665.5 -400.0 665.5 -368.5" fill-rule="evenodd" stroke="none"/>
    </g>
  </defs>
</svg>
