<?xml version="1.0" encoding="UTF-8" standalone="no"?>
<svg xmlns:xlink="http://www.w3.org/1999/xlink" height="17.4px" width="295.55px" xmlns="http://www.w3.org/2000/svg">
  <g transform="matrix(1.0, 0.0, 0.0, 1.0, 77.5, 1.5)">
    <g transform="matrix(1.0, 0.0, 0.0, 1.0, -78.4, 0.0)">
      <use fill="#000000" height="17.4" transform="matrix(0.0146, 0.0, 0.0, 0.0146, 0.0, 13.0)" width="295.55" xlink:href="#font_DFPOP3_Std_W12__0"/>
      <use fill="#000000" height="17.4" transform="matrix(0.0146, 0.0, 0.0, 0.0146, 15.0, 13.0)" width="295.55" xlink:href="#font_DFPOP3_Std_W12__1"/>
      <use fill="#000000" height="17.4" transform="matrix(0.0146, 0.0, 0.0, 0.0146, 30.0, 13.0)" width="295.55" xlink:href="#font_DFPOP3_Std_W12__2"/>
      <use fill="#000000" height="17.4" transform="matrix(0.0146, 0.0, 0.0, 0.0146, 45.0, 13.0)" width="295.55" xlink:href="#font_DFPOP3_Std_W12__3"/>
    </g>
    <g transform="matrix(1.0, 0.0, 0.0, 1.0, -78.4, 0.0)">
      <use fill="#000000" height="17.4" transform="matrix(0.0146, 0.0, 0.0, 0.0146, 60.0, 13.0)" width="295.55" xlink:href="#font_DFPOP3_Std_W12__4"/>
    </g>
    <g transform="matrix(1.0, 0.0, 0.0, 1.0, -78.4, 0.0)">
      <use fill="#000000" height="17.4" transform="matrix(0.0146, 0.0, 0.0, 0.0146, 65.0, 13.0)" width="295.55" xlink:href="#font_DFPOP3_Std_W12__5"/>
      <use fill="#000000" height="17.4" transform="matrix(0.0146, 0.0, 0.0, 0.0146, 80.0, 13.0)" width="295.55" xlink:href="#font_DFPOP3_Std_W12__6"/>
    </g>
    <g transform="matrix(1.0, 0.0, 0.0, 1.0, -78.4, 0.0)">
      <use fill="#000000" height="17.4" transform="matrix(0.0146, 0.0, 0.0, 0.0146, 95.0, 13.0)" width="295.55" xlink:href="#font_DFPOP3_Std_W12_10"/>
    </g>
    <g transform="matrix(1.0, 0.0, 0.0, 1.0, -78.4, 0.0)">
      <use fill="#000000" height="17.4" transform="matrix(0.0146, 0.0, 0.0, 0.0146, 105.3, 13.0)" width="295.55" xlink:href="#font_DFPOP3_Std_W12__7"/>
    </g>
    <g transform="matrix(1.0, 0.0, 0.0, 1.0, -78.4, 0.0)">
      <use fill="#000000" height="17.4" transform="matrix(0.0146, 0.0, 0.0, 0.0146, 120.3, 13.0)" width="295.55" xlink:href="#font_DFPOP3_Std_W12_10"/>
    </g>
    <g transform="matrix(1.0, 0.0, 0.0, 1.0, -78.4, 0.0)">
      <use fill="#000000" height="17.4" transform="matrix(0.0146, 0.0, 0.0, 0.0146, 130.6, 13.0)" width="295.55" xlink:href="#font_DFPOP3_Std_W12__8"/>
    </g>
    <g transform="matrix(1.0, 0.0, 0.0, 1.0, -78.4, 0.0)">
      <use fill="#000000" height="17.4" transform="matrix(0.0146, 0.0, 0.0, 0.0146, 145.6, 13.0)" width="295.55" xlink:href="#font_DFPOP3_Std_W12__9"/>
    </g>
    <g transform="matrix(1.0, 0.0, 0.0, 1.0, -78.4, 0.0)">
      <use fill="#000000" height="17.4" transform="matrix(0.0146, 0.0, 0.0, 0.0146, 150.6, 13.0)" width="295.55" xlink:href="#font_DFPOP3_Std_W12__10"/>
      <use fill="#000000" height="17.4" transform="matrix(0.0146, 0.0, 0.0, 0.0146, 165.6, 13.0)" width="295.55" xlink:href="#font_DFPOP3_Std_W12__11"/>
      <use fill="#000000" height="17.4" transform="matrix(0.0146, 0.0, 0.0, 0.0146, 180.6, 13.0)" width="295.55" xlink:href="#font_DFPOP3_Std_W12__12"/>
      <use fill="#000000" height="17.4" transform="matrix(0.0146, 0.0, 0.0, 0.0146, 195.6, 13.0)" width="295.55" xlink:href="#font_DFPOP3_Std_W12__13"/>
      <use fill="#000000" height="17.4" transform="matrix(0.0146, 0.0, 0.0, 0.0146, 210.6, 13.0)" width="295.55" xlink:href="#font_DFPOP3_Std_W12__14"/>
      <use fill="#000000" height="17.4" transform="matrix(0.0146, 0.0, 0.0, 0.0146, 225.6, 13.0)" width="295.55" xlink:href="#font_DFPOP3_Std_W12__15"/>
      <use fill="#000000" height="17.4" transform="matrix(0.0146, 0.0, 0.0, 0.0146, 240.6, 13.0)" width="295.55" xlink:href="#font_DFPOP3_Std_W12__16"/>
      <use fill="#000000" height="17.4" transform="matrix(0.0146, 0.0, 0.0, 0.0146, 255.6, 13.0)" width="295.55" xlink:href="#font_DFPOP3_Std_W12__11"/>
      <use fill="#000000" height="17.4" transform="matrix(0.0146, 0.0, 0.0, 0.0146, 270.6, 13.0)" width="295.55" xlink:href="#font_DFPOP3_Std_W12__17"/>
      <use fill="#000000" height="17.4" transform="matrix(0.0146, 0.0, 0.0, 0.0146, 285.6, 13.0)" width="295.55" xlink:href="#font_DFPOP3_Std_W12__18"/>
    </g>
  </g>
  <defs>
    <g id="font_DFPOP3_Std_W12__0">
      <path d="M867.5 -789.5 Q887.0 -789.5 905.0 -783.0 923.0 -776.5 940.0 -764.0 955.5 -748.5 963.5 -729.0 971.5 -709.5 972.0 -685.0 971.5 -662.0 962.5 -643.0 953.5 -623.5 936.0 -608.5 919.0 -594.5 901.5 -588.0 884.5 -581.5 867.5 -581.5 844.5 -581.5 825.0 -590.5 805.5 -599.0 789.5 -617.5 776.5 -633.0 770.0 -649.5 764.0 -666.5 764.0 -685.0 764.0 -706.0 769.5 -723.5 775.0 -741.5 787.5 -756.5 803.0 -773.0 823.0 -781.0 843.0 -789.5 867.5 -789.5 M515.0 -817.0 L531.5 -752.5 Q490.0 -740.5 452.0 -731.0 414.5 -722.0 380.0 -716.0 L380.0 -536.5 Q413.0 -536.5 446.0 -537.0 479.5 -537.5 513.0 -537.5 536.0 -537.5 559.5 -537.0 583.5 -536.5 607.0 -536.5 592.0 -596.5 578.0 -658.0 564.0 -719.0 552.0 -781.5 L699.5 -829.5 Q716.5 -750.5 734.5 -676.5 753.0 -602.5 773.0 -533.5 821.5 -532.0 870.0 -530.0 918.5 -527.5 967.5 -525.5 L967.5 -465.0 Q923.0 -467.0 878.5 -469.0 834.5 -470.5 790.5 -472.0 796.5 -448.0 803.5 -425.5 810.5 -402.5 818.0 -381.0 819.0 -377.0 820.0 -374.0 821.0 -370.5 822.5 -367.5 833.0 -380.5 843.0 -394.0 853.5 -407.0 863.0 -421.0 L991.0 -328.5 Q966.0 -295.0 939.0 -261.0 912.5 -227.0 884.5 -191.5 906.0 -134.5 929.0 -80.0 951.5 -25.5 976.0 26.5 L823.5 102.5 Q807.0 65.5 792.5 29.5 777.5 -7.0 764.0 -43.0 736.5 -10.5 708.5 23.0 680.5 56.5 651.5 91.0 L523.5 -9.0 Q569.5 -60.0 614.0 -111.0 658.5 -162.0 701.5 -213.0 690.0 -245.5 679.5 -278.0 668.5 -310.5 659.5 -343.0 649.5 -376.0 640.5 -409.0 631.0 -442.5 622.5 -476.0 595.0 -476.0 567.5 -476.5 540.0 -477.0 513.0 -477.0 479.5 -477.0 446.0 -476.5 413.0 -476.0 380.0 -476.0 L380.0 -249.0 Q412.0 -268.0 448.0 -291.0 484.0 -314.0 523.5 -341.0 L555.0 -284.5 Q506.0 -251.0 462.0 -222.5 418.5 -194.5 380.0 -173.0 L380.0 99.5 219.0 99.5 219.0 -95.0 Q185.5 -81.5 150.0 -69.0 114.0 -56.5 76.0 -45.0 L55.5 -105.5 Q102.0 -120.0 143.0 -135.0 184.0 -149.5 219.0 -165.0 L219.0 -472.0 Q178.5 -470.5 138.5 -468.5 98.5 -466.5 59.5 -465.0 L59.5 -525.5 Q99.5 -527.0 139.5 -529.0 179.0 -531.0 219.0 -532.5 L219.0 -695.5 Q185.5 -692.0 150.0 -690.5 114.0 -689.0 76.0 -689.0 L76.0 -741.5 Q147.0 -743.0 204.0 -747.5 261.0 -752.5 304.0 -761.0 351.0 -767.5 404.0 -781.5 456.5 -795.5 515.0 -817.0" fill-rule="evenodd" stroke="none"/>
    </g>
    <g id="font_DFPOP3_Std_W12__1">
      <path d="M272.5 -116.5 Q334.0 -120.5 396.0 -123.0 457.5 -125.0 519.0 -125.0 625.0 -125.0 731.0 -119.0 L731.0 -125.0 Q731.0 -155.0 720.0 -170.0 708.5 -185.5 687.0 -185.5 600.5 -183.0 497.5 -174.5 394.0 -166.5 274.5 -152.5 273.5 -143.5 273.0 -134.5 272.5 -125.0 272.5 -116.5 M273.5 3.0 Q344.0 -1.0 414.0 -3.0 484.0 -5.0 554.0 -5.0 598.5 -5.0 642.5 -4.5 686.5 -3.5 731.0 -2.0 L731.0 -59.5 Q623.5 -65.5 519.0 -65.5 456.5 -65.5 394.5 -63.5 332.5 -61.0 271.5 -57.5 271.5 -42.0 271.5 -27.0 272.0 -11.5 273.5 3.0 M139.5 -237.5 L283.5 -237.5 Q280.5 -223.5 280.5 -213.0 423.5 -228.5 528.5 -236.5 634.0 -244.5 701.5 -244.5 L727.0 -244.5 Q771.5 -244.5 803.5 -237.0 835.5 -229.5 854.0 -214.0 872.5 -198.5 882.0 -177.5 892.0 -156.0 892.0 -129.0 L892.0 7.0 Q893.5 7.0 894.5 7.0 895.5 7.0 896.0 7.0 L896.0 66.5 Q810.0 60.5 724.5 58.0 639.0 55.0 554.0 55.5 485.0 55.5 416.5 57.0 347.5 58.5 278.5 62.5 279.5 71.5 280.5 81.0 282.0 90.0 283.5 99.5 L139.5 99.5 Q133.0 57.0 130.5 15.0 128.0 -26.5 128.0 -69.5 128.0 -111.0 130.5 -153.0 133.0 -195.5 139.5 -237.5 M314.5 -684.0 Q364.5 -688.5 414.5 -691.0 464.5 -693.0 515.0 -693.0 564.0 -693.0 612.5 -691.0 661.0 -689.0 708.5 -685.0 699.5 -697.5 691.5 -709.5 683.5 -721.5 676.0 -733.0 642.0 -773.0 599.0 -773.0 557.5 -772.5 493.0 -760.0 428.5 -747.5 341.0 -723.0 334.0 -713.0 327.5 -703.0 320.5 -693.5 314.5 -684.0 M256.0 -540.5 Q411.0 -557.0 525.0 -565.0 639.0 -573.5 711.5 -573.5 L739.5 -573.5 Q751.0 -573.5 761.0 -573.0 771.0 -572.0 780.5 -571.5 772.5 -584.5 765.0 -597.5 757.0 -610.5 749.5 -622.5 690.5 -627.5 632.0 -630.0 573.5 -633.0 515.0 -633.0 455.0 -633.0 395.5 -630.0 335.5 -627.0 275.5 -621.5 L275.5 -628.5 Q263.0 -612.0 251.0 -595.0 239.0 -578.0 227.5 -561.0 L259.0 -561.0 Q257.5 -555.5 257.0 -550.5 256.0 -545.5 256.0 -540.5 M694.5 -359.5 Q705.0 -358.5 716.0 -358.0 726.5 -357.5 737.5 -357.5 742.0 -387.5 744.5 -413.5 747.5 -439.5 747.5 -461.0 747.5 -487.0 736.5 -500.0 725.0 -513.0 703.5 -513.0 639.0 -510.0 571.5 -507.0 L571.5 -361.5 579.5 -361.5 Q592.0 -393.0 602.0 -425.0 612.0 -457.0 619.5 -489.5 L739.5 -477.0 Q731.0 -448.0 719.5 -418.5 708.0 -388.5 694.5 -359.5 M250.0 -352.5 Q262.0 -352.5 274.0 -353.0 285.5 -353.5 297.0 -354.5 288.0 -382.0 280.5 -408.5 273.5 -435.0 267.5 -461.0 L387.0 -485.5 Q402.5 -421.0 424.0 -359.5 428.5 -359.5 432.5 -360.0 436.0 -360.5 439.5 -360.5 L439.5 -497.5 Q394.0 -493.0 346.5 -488.5 299.0 -484.0 250.0 -479.0 248.5 -461.5 248.0 -444.5 247.5 -428.0 248.0 -411.5 247.5 -396.5 248.0 -381.5 248.5 -367.0 250.0 -352.5 M239.5 -845.0 L331.0 -780.5 Q423.5 -806.5 505.0 -819.5 586.0 -833.0 655.5 -833.5 L664.5 -833.5 Q695.5 -833.5 723.0 -823.0 750.5 -812.5 775.0 -792.5 808.0 -765.0 865.0 -698.0 922.0 -631.5 1003.5 -525.5 L892.0 -462.0 Q892.0 -435.5 889.0 -408.0 886.0 -380.0 880.5 -350.0 884.5 -349.5 888.5 -349.5 892.0 -349.0 896.0 -349.0 L896.0 -289.0 Q807.5 -295.0 719.5 -298.0 631.5 -301.0 543.5 -301.0 471.5 -301.0 399.5 -299.0 327.0 -296.5 255.0 -293.0 255.5 -284.5 256.5 -276.5 257.5 -269.0 259.0 -261.0 L128.0 -261.0 Q115.5 -335.0 115.5 -411.5 115.5 -427.5 116.0 -444.0 116.5 -460.5 118.0 -477.0 L27.5 -549.0 Q86.0 -622.5 139.0 -697.0 192.0 -771.0 239.5 -845.0" fill-rule="evenodd" stroke="none"/>
    </g>
    <g id="font_DFPOP3_Std_W12__2">
      <path d="M506.0 -537.5 Q576.0 -537.5 646.5 -534.5 717.0 -531.5 787.5 -525.5 L787.5 -465.0 Q736.0 -469.5 685.0 -472.0 634.5 -474.5 583.5 -476.0 L583.5 -312.5 Q614.5 -314.5 645.5 -316.0 677.0 -317.5 707.5 -317.5 756.5 -317.5 805.5 -314.5 854.0 -311.5 903.0 -305.0 L903.0 -244.5 Q854.0 -251.0 805.5 -254.0 756.5 -257.0 707.5 -257.0 676.0 -257.0 645.0 -255.5 614.5 -254.0 583.5 -252.0 L583.5 -96.5 Q584.5 -95.5 585.0 -95.5 586.0 -95.0 587.0 -95.0 765.0 -55.5 980.0 -37.0 L955.5 95.0 Q845.0 87.5 735.0 72.0 625.0 56.5 516.0 31.5 448.5 16.5 379.5 -3.0 310.0 -22.0 238.5 -45.0 228.0 -11.5 216.0 22.5 204.0 56.5 191.5 91.0 L40.0 51.0 Q80.0 -51.0 110.0 -154.0 140.0 -257.0 159.5 -361.5 L315.5 -341.0 Q307.0 -300.5 297.5 -259.5 288.0 -219.0 277.5 -178.0 314.5 -166.0 350.5 -155.0 387.0 -144.5 424.0 -135.0 L424.0 -476.0 Q373.0 -474.5 323.0 -471.5 272.5 -469.0 223.0 -465.0 L223.0 -525.5 Q364.5 -537.5 506.0 -537.5 M427.0 -837.5 L599.0 -837.5 599.0 -732.0 Q610.0 -732.0 620.5 -732.5 631.0 -733.0 641.0 -733.0 L656.5 -733.0 Q738.0 -733.0 796.5 -725.5 855.5 -718.0 891.0 -702.5 929.5 -684.0 948.5 -654.5 967.5 -625.5 967.5 -584.5 966.0 -531.0 963.0 -483.0 960.0 -435.5 955.5 -393.0 L791.5 -393.0 Q798.5 -448.5 802.5 -496.5 806.5 -544.0 808.0 -584.5 808.0 -615.5 793.5 -634.0 779.5 -652.5 751.5 -659.5 725.5 -665.5 689.0 -669.0 652.0 -672.5 605.0 -673.0 531.5 -672.5 430.5 -660.5 329.5 -649.0 201.5 -625.5 200.5 -608.0 200.0 -591.0 199.5 -574.5 199.5 -559.0 199.5 -470.0 212.0 -381.0 L59.5 -381.0 Q47.0 -470.0 47.0 -559.0 47.0 -648.0 59.5 -737.5 L212.0 -737.5 Q207.5 -709.5 206.0 -685.0 327.0 -706.5 427.0 -719.0 L427.0 -837.5" fill-rule="evenodd" stroke="none"/>
    </g>
    <g id="font_DFPOP3_Std_W12__3">
      <path d="M227.5 -557.0 Q247.5 -558.5 267.5 -560.0 287.0 -561.0 307.0 -561.0 339.5 -561.0 371.5 -558.0 L371.5 -671.5 Q353.5 -672.0 335.5 -672.5 318.0 -672.5 301.0 -673.0 282.5 -672.5 264.0 -672.5 246.0 -672.0 227.5 -671.5 L227.5 -557.0 M227.5 -377.0 Q247.5 -378.5 267.5 -379.5 287.0 -381.0 307.0 -381.0 339.5 -381.0 371.5 -378.0 L371.5 -498.5 Q355.0 -499.5 338.5 -500.0 322.5 -500.5 307.0 -500.5 287.0 -500.5 267.5 -499.5 247.5 -498.0 227.5 -496.5 L227.5 -377.0 M227.5 -192.5 Q245.0 -192.5 263.0 -193.0 280.5 -193.5 299.0 -193.5 317.5 -193.5 335.5 -193.0 353.5 -192.5 371.5 -192.5 L371.5 -318.5 Q338.0 -321.5 307.0 -321.5 287.0 -321.5 267.5 -320.5 247.5 -319.0 227.5 -317.5 L227.5 -192.5 M547.0 -182.5 Q545.5 -229.0 544.5 -276.0 543.5 -322.5 543.5 -368.5 543.5 -442.5 545.5 -515.5 547.0 -588.5 550.0 -661.5 525.5 -663.0 504.0 -664.5 L504.0 -185.5 Q525.5 -182.5 547.0 -182.5 M553.0 -9.0 Q551.5 -37.0 550.0 -65.0 548.5 -93.5 548.0 -122.0 503.5 -125.0 465.0 -128.0 485.0 -97.0 506.5 -67.5 528.5 -37.5 553.0 -9.0 M685.0 -533.5 Q705.0 -535.0 724.5 -536.5 744.0 -537.5 764.0 -537.5 776.0 -537.5 788.5 -537.0 801.0 -536.5 813.0 -535.5 809.0 -577.0 804.5 -621.0 800.0 -665.0 794.5 -711.5 782.5 -761.0 727.0 -761.0 721.0 -759.0 713.0 -756.5 705.0 -753.5 694.5 -750.5 691.0 -695.5 689.0 -641.5 686.5 -587.0 685.0 -533.5 M684.0 -273.5 Q705.0 -275.0 725.5 -276.0 746.0 -277.5 766.0 -277.5 780.0 -277.5 794.0 -277.0 808.5 -276.5 822.5 -275.5 822.5 -297.5 823.0 -320.0 823.0 -342.5 823.5 -365.5 822.5 -391.0 821.0 -418.5 819.5 -446.0 818.0 -475.0 804.5 -476.0 790.5 -476.5 777.0 -477.0 764.0 -477.0 743.0 -477.0 723.0 -476.0 703.0 -474.5 684.0 -473.0 683.5 -445.5 683.0 -419.5 683.0 -393.0 683.0 -368.5 683.0 -344.0 683.0 -320.5 683.5 -296.5 684.0 -273.5 M301.0 -733.0 Q318.5 -733.0 336.5 -732.5 354.0 -732.0 371.5 -732.0 L371.5 -825.5 504.0 -825.5 504.0 -725.0 Q516.0 -723.5 528.0 -722.5 539.5 -721.5 552.0 -721.0 L552.0 -707.5 Q553.5 -740.0 555.0 -771.5 557.0 -803.0 559.0 -833.5 L699.5 -833.5 Q698.5 -826.0 698.0 -818.5 697.5 -811.0 697.5 -804.0 726.0 -812.5 748.0 -817.0 770.5 -821.0 786.5 -821.0 L795.5 -821.0 Q866.0 -821.0 903.5 -798.0 940.5 -775.0 945.0 -729.0 953.0 -655.5 957.5 -564.0 962.0 -473.0 963.5 -365.5 963.5 -222.5 961.0 -129.0 958.0 -35.5 953.5 9.0 948.5 50.0 916.0 70.5 883.5 91.0 823.5 91.0 L760.0 91.0 760.0 30.5 779.5 30.5 Q792.5 30.5 800.0 23.0 808.0 15.5 811.0 1.0 814.0 -49.5 817.0 -103.5 819.5 -157.5 821.0 -215.0 807.5 -216.0 793.5 -216.5 780.0 -217.0 766.0 -217.0 745.0 -217.0 725.0 -216.0 705.0 -214.5 685.0 -213.0 686.5 -135.5 690.0 -58.5 693.5 18.5 699.5 95.0 L559.0 95.0 Q557.5 73.5 556.0 52.5 555.0 31.0 554.0 10.0 L460.0 91.0 Q430.0 56.0 403.5 21.0 377.5 -14.0 355.5 -49.0 L463.0 -128.0 Q421.5 -130.5 380.0 -131.5 339.0 -133.0 299.0 -133.0 259.0 -133.0 219.5 -131.5 180.0 -130.5 141.5 -128.0 L263.0 -61.5 Q240.0 -23.0 214.0 15.0 188.0 53.0 159.5 91.0 L40.0 15.5 Q69.0 -22.5 93.5 -58.0 118.5 -94.0 138.0 -128.0 113.5 -126.5 90.0 -124.5 66.0 -122.5 43.0 -121.0 L43.0 -181.0 Q56.0 -183.0 69.0 -183.5 82.0 -184.5 95.0 -185.5 L95.0 -664.5 Q83.5 -664.0 73.0 -663.0 62.0 -662.5 51.0 -661.5 L51.0 -721.0 Q62.0 -721.5 73.0 -722.5 84.5 -723.5 95.0 -725.0 L95.0 -825.5 227.5 -825.5 227.5 -732.0 Q246.0 -732.0 264.0 -732.5 282.5 -733.0 301.0 -733.0" fill-rule="evenodd" stroke="none"/>
    </g>
    <g id="font_DFPOP3_Std_W12__4">
      <path d="M307.0 96.5 L189.5 135.0 Q163.5 107.5 137.0 64.5 85.0 -22.5 59.5 -126.5 33.5 -231.0 34.0 -352.5 33.5 -473.5 59.5 -577.5 85.0 -681.5 137.0 -769.0 163.5 -813.5 189.5 -839.5 L307.0 -802.0 Q295.5 -789.5 283.5 -772.5 271.0 -755.0 258.0 -732.0 213.0 -652.5 190.5 -557.5 168.0 -463.0 168.0 -352.5 168.0 -241.5 190.5 -147.0 213.0 -52.0 258.0 27.5 271.0 50.0 283.5 67.0 295.5 84.0 307.0 96.5" fill-rule="evenodd" stroke="none"/>
    </g>
    <g id="font_DFPOP3_Std_W12__5">
      <path d="M427.0 -287.5 L427.0 -393.0 596.0 -393.0 596.0 -287.5 Q682.0 -287.0 769.0 -284.5 855.5 -282.0 943.0 -277.5 L943.0 -217.0 Q855.5 -221.5 769.0 -224.5 682.0 -227.5 596.0 -228.5 L596.0 -24.5 Q687.5 -24.0 779.5 -21.0 871.5 -18.0 963.5 -13.5 L963.5 47.0 Q736.5 35.0 512.0 35.0 398.5 35.0 285.5 38.0 172.5 41.0 59.5 47.0 L59.5 -13.5 Q151.5 -18.0 243.0 -21.0 335.0 -24.0 427.0 -24.5 L427.0 -228.5 Q339.5 -227.5 252.5 -224.5 166.0 -221.5 80.0 -217.0 L80.0 -277.5 Q166.5 -282.0 253.5 -284.5 340.0 -287.0 427.0 -287.5 M512.0 -813.0 Q623.5 -813.0 735.5 -810.0 847.5 -807.0 959.5 -801.0 L959.5 -741.5 Q849.5 -747.0 740.5 -749.5 631.5 -752.5 523.5 -752.5 403.5 -648.0 280.5 -525.5 274.5 -516.0 271.0 -508.5 267.5 -501.5 267.5 -496.5 267.5 -469.0 347.0 -469.0 400.0 -469.0 500.0 -480.0 600.0 -491.0 746.5 -514.0 730.5 -546.0 715.5 -579.0 701.0 -611.5 687.0 -645.0 L831.5 -705.5 Q856.0 -646.5 890.5 -580.5 924.5 -514.5 967.5 -441.5 L823.5 -365.5 Q809.5 -389.5 796.5 -414.0 783.5 -438.0 771.0 -463.0 600.0 -436.0 475.0 -423.0 349.5 -409.5 271.5 -409.5 148.5 -409.5 121.0 -428.0 100.0 -437.0 90.0 -453.5 80.0 -470.0 80.0 -493.5 80.0 -501.5 81.5 -509.5 83.0 -518.0 86.0 -526.5 92.0 -540.0 102.5 -555.5 113.0 -570.5 127.0 -585.5 171.5 -633.5 214.5 -674.5 257.5 -715.5 299.0 -749.5 240.0 -748.0 181.0 -746.0 122.0 -744.5 63.5 -741.5 L63.5 -801.0 Q287.5 -813.0 512.0 -813.0" fill-rule="evenodd" stroke="none"/>
    </g>
    <g id="font_DFPOP3_Std_W12__6">
      <path d="M212.0 -765.0 L363.5 -749.5 Q333.5 -614.5 289.5 -476.5 245.5 -338.0 187.5 -197.5 L36.0 -237.5 Q94.0 -368.0 138.0 -499.5 182.0 -631.5 212.0 -765.0 M431.0 -833.5 L592.0 -833.5 592.0 -349.0 Q592.0 -317.0 586.0 -292.0 580.0 -267.0 569.5 -250.0 615.5 -276.0 665.5 -306.0 715.5 -336.0 769.0 -370.5 707.5 -555.0 655.5 -745.5 L804.0 -777.0 Q842.5 -648.0 886.5 -512.5 931.0 -376.5 980.0 -233.5 L831.5 -185.5 Q827.5 -195.5 824.5 -205.0 821.0 -215.0 818.0 -224.5 731.5 -169.0 657.0 -125.5 582.0 -82.0 519.0 -51.0 439.0 -13.0 341.0 24.0 243.5 60.5 128.0 95.0 L80.0 -45.0 Q185.0 -76.5 272.0 -109.5 359.0 -142.5 428.0 -177.0 448.0 -186.5 469.0 -196.5 490.5 -207.0 512.0 -219.0 499.0 -216.0 483.5 -214.5 468.5 -213.0 451.5 -213.0 388.5 -213.0 267.5 -237.5 L267.5 -297.0 Q308.0 -284.5 340.0 -279.0 372.0 -273.5 395.5 -273.5 413.0 -273.5 422.0 -285.0 431.0 -297.0 431.0 -321.5 L431.0 -833.5" fill-rule="evenodd" stroke="none"/>
    </g>
    <g id="font_DFPOP3_Std_W12_10">
      <path d="M476.0 -680.0 L407.5 -10.0 276.5 -16.5 322.5 -462.0 228.5 -475.0 379.0 -693.0 476.0 -680.0" fill-rule="evenodd" stroke="none"/>
    </g>
    <g id="font_DFPOP3_Std_W12__7">
      <path d="M531.5 -472.0 L531.5 -671.5 Q471.5 -671.5 413.0 -670.5 355.0 -669.0 298.0 -666.5 289.0 -643.5 281.0 -623.5 273.0 -603.5 265.0 -587.0 251.5 -559.0 237.0 -532.0 222.0 -505.0 207.0 -477.0 L340.0 -477.0 340.0 -466.0 Q388.5 -468.0 436.0 -470.0 484.0 -471.5 531.5 -472.0 M531.5 -177.0 L531.5 -411.5 Q483.0 -411.0 435.5 -409.5 387.5 -408.0 340.0 -406.5 L340.0 -175.0 Q383.0 -176.0 426.0 -176.5 469.0 -177.0 512.0 -177.0 516.5 -177.0 521.5 -177.0 527.0 -177.0 531.5 -177.0 M195.5 -837.5 L343.0 -789.5 Q337.0 -772.5 331.5 -756.5 326.0 -741.0 321.5 -727.0 387.0 -730.0 452.0 -731.5 517.5 -733.0 583.5 -733.0 677.5 -733.0 771.0 -730.0 865.0 -727.0 959.5 -721.0 L959.5 -661.5 Q889.0 -665.5 819.5 -668.0 750.5 -670.0 683.0 -671.5 L683.0 -472.0 Q747.5 -470.5 812.5 -468.0 878.0 -465.5 943.0 -461.0 L943.0 -401.5 Q877.0 -405.0 812.5 -407.5 747.5 -410.0 683.0 -411.5 L683.0 -175.0 Q753.0 -173.5 823.0 -171.0 893.0 -168.0 963.5 -165.0 L963.5 -105.5 Q893.0 -108.5 822.5 -111.0 752.0 -113.0 683.0 -114.5 L683.0 87.0 531.5 87.0 531.5 -116.5 Q526.0 -116.5 521.5 -116.5 516.5 -116.5 512.0 -116.5 398.5 -116.5 285.5 -114.0 172.5 -111.0 59.5 -105.5 L59.5 -165.0 Q125.5 -168.0 191.5 -171.0 L191.5 -448.5 Q186.0 -439.5 181.0 -430.0 175.5 -421.0 171.0 -412.5 L40.0 -481.5 Q61.5 -519.5 81.5 -558.0 101.0 -597.0 119.0 -636.0 135.5 -674.5 155.0 -725.0 174.0 -775.5 195.5 -837.5" fill-rule="evenodd" stroke="none"/>
    </g>
    <g id="font_DFPOP3_Std_W12__8">
      <path d="M191.5 -796.5 Q233.0 -744.5 263.5 -699.5 294.0 -654.5 313.5 -617.5 328.0 -587.0 335.5 -560.0 343.0 -533.0 343.0 -510.0 380.0 -594.5 412.0 -678.0 444.0 -762.0 471.0 -845.0 L615.5 -781.5 Q609.5 -766.0 606.0 -753.5 654.5 -764.5 708.0 -770.0 762.0 -775.5 820.0 -777.0 L835.5 -777.0 Q908.0 -777.0 944.0 -750.0 980.0 -722.5 980.0 -668.5 980.0 -658.5 974.5 -635.0 969.5 -611.5 959.5 -574.5 947.5 -523.5 932.5 -470.5 917.5 -417.0 899.0 -361.5 L755.5 -409.5 Q773.5 -464.0 789.5 -521.5 805.5 -579.5 819.0 -640.0 823.0 -657.0 825.0 -669.0 827.5 -681.5 827.5 -689.0 827.5 -704.5 796.5 -710.5 730.5 -517.0 674.0 -379.0 737.5 -294.5 813.0 -208.5 888.5 -123.0 976.0 -37.0 L863.0 95.0 Q792.5 21.5 728.0 -55.5 663.0 -132.5 603.0 -213.0 571.0 -142.5 533.0 -64.0 495.5 14.0 451.5 99.5 L299.0 15.5 Q356.0 -79.0 406.0 -172.0 455.5 -265.0 498.5 -357.5 571.0 -498.5 646.0 -704.5 630.0 -700.5 614.5 -697.0 599.0 -693.0 583.5 -689.0 554.5 -606.0 523.5 -530.0 492.0 -454.0 460.0 -385.0 L337.0 -447.5 Q331.5 -414.0 321.5 -372.5 312.0 -331.5 298.0 -282.5 250.5 -113.5 187.5 55.5 L40.0 3.0 Q83.0 -104.5 113.5 -191.5 144.5 -278.5 163.0 -346.0 179.0 -401.5 187.5 -440.5 195.5 -479.0 195.5 -500.5 195.5 -517.5 188.0 -538.0 181.0 -558.5 167.0 -581.5 150.0 -606.0 120.0 -639.0 90.0 -672.0 47.0 -712.5 L191.5 -796.5" fill-rule="evenodd" stroke="none"/>
    </g>
    <g id="font_DFPOP3_Std_W12__9">
      <path d="M307.0 -352.5 Q307.0 -231.0 281.0 -126.5 255.5 -22.5 204.0 64.5 176.0 107.5 151.5 135.0 L34.0 96.5 Q44.5 84.0 57.0 67.0 69.0 50.0 83.0 27.5 127.5 -52.0 150.5 -147.0 173.0 -241.5 173.0 -352.5 173.0 -463.0 150.5 -557.5 127.5 -652.5 83.0 -732.0 69.0 -755.0 57.0 -772.5 44.5 -789.5 34.0 -802.0 L151.5 -839.5 Q176.0 -813.5 204.0 -769.0 255.5 -681.5 281.0 -577.5 307.0 -473.5 307.0 -352.5" fill-rule="evenodd" stroke="none"/>
    </g>
    <g id="font_DFPOP3_Std_W12__10">
      <path d="M811.0 -837.5 Q828.5 -837.5 845.0 -831.5 861.0 -826.0 875.5 -815.0 889.5 -801.5 896.5 -784.0 903.0 -767.0 903.0 -745.5 903.0 -725.0 895.0 -707.5 887.0 -690.5 871.5 -677.0 857.0 -664.5 841.5 -659.0 826.5 -653.0 811.0 -653.5 791.0 -653.5 773.5 -661.0 756.5 -669.0 742.5 -685.0 731.0 -699.0 725.5 -714.0 720.0 -729.5 720.0 -745.5 720.0 -764.0 724.5 -779.5 729.5 -795.0 740.5 -809.0 754.0 -823.0 772.0 -830.0 789.5 -837.5 811.0 -837.5 M955.5 -677.0 L972.0 -617.5 Q913.5 -594.5 855.5 -575.0 797.5 -555.5 739.5 -539.5 727.0 -536.5 718.0 -533.5 731.5 -495.0 745.5 -458.5 759.5 -421.5 774.0 -387.0 775.0 -385.0 775.5 -383.0 776.5 -381.5 777.0 -380.0 804.0 -414.0 828.0 -447.0 851.5 -480.5 871.5 -513.0 L983.0 -433.0 Q927.5 -336.5 841.5 -236.5 873.0 -167.5 908.0 -102.0 942.5 -36.5 980.0 26.5 L839.5 95.0 Q809.5 42.5 782.0 -9.5 754.5 -61.5 730.0 -113.5 676.5 -60.0 619.0 -10.0 561.0 40.0 499.5 87.0 L403.5 -17.5 Q482.5 -79.0 548.0 -137.5 613.5 -196.0 665.5 -252.0 654.0 -277.0 643.5 -302.5 632.5 -328.0 622.5 -354.5 609.0 -389.5 595.5 -425.5 582.5 -461.5 570.5 -497.5 536.0 -490.0 500.0 -483.0 464.0 -476.0 427.0 -469.0 L420.0 -529.5 Q455.0 -536.5 488.0 -543.0 520.5 -550.0 550.0 -556.0 530.0 -615.0 512.5 -675.0 494.5 -735.5 479.0 -796.5 L619.5 -840.5 Q638.0 -774.5 657.5 -713.0 677.5 -651.0 697.5 -593.0 708.0 -595.0 718.0 -598.0 728.0 -601.0 737.5 -604.0 792.0 -619.5 846.5 -637.5 901.0 -655.5 955.5 -677.0 M187.5 -680.0 L187.5 -825.5 332.0 -825.5 332.0 -678.0 Q358.0 -676.5 383.5 -674.0 409.0 -671.5 435.0 -668.5 L435.0 -609.5 Q409.0 -612.5 383.0 -614.5 357.0 -617.0 332.0 -618.5 L332.0 -452.5 Q342.5 -460.5 352.5 -468.5 362.5 -477.0 371.5 -485.5 L464.0 -389.0 Q433.0 -361.5 400.0 -333.5 367.0 -306.0 332.0 -277.5 L332.0 -45.0 Q332.0 -13.0 325.5 11.5 319.5 36.0 307.0 54.5 292.0 72.5 259.5 82.0 227.5 91.0 179.0 91.0 162.0 91.0 137.0 89.0 112.0 87.0 80.0 83.0 L80.0 22.5 Q94.5 26.5 106.5 28.5 119.0 30.5 128.0 30.5 157.0 30.5 172.5 20.5 187.5 11.0 187.5 -9.0 L187.5 -169.0 Q173.0 -158.0 159.0 -148.0 145.0 -138.0 131.0 -129.0 L36.0 -240.5 Q75.5 -265.0 113.5 -290.5 151.5 -316.0 187.5 -342.0 L187.5 -620.5 Q152.0 -619.0 117.0 -616.5 81.5 -614.0 47.0 -609.5 L47.0 -668.5 Q82.5 -673.0 117.5 -676.0 153.0 -678.5 187.5 -680.0" fill-rule="evenodd" stroke="none"/>
    </g>
    <g id="font_DFPOP3_Std_W12__11">
      <path d="M606.0 -550.0 Q603.0 -471.5 603.0 -405.5 632.5 -407.0 661.5 -408.5 690.5 -409.5 720.0 -409.5 732.0 -409.5 744.0 -409.0 756.0 -408.5 768.0 -408.5 772.0 -447.0 775.0 -482.5 777.5 -517.5 779.5 -550.0 757.0 -551.5 735.0 -552.0 712.5 -553.0 691.0 -553.0 669.0 -553.0 647.5 -552.0 626.0 -551.5 606.0 -550.0 M610.5 -747.5 Q609.0 -710.5 608.0 -676.0 607.0 -642.0 607.0 -610.5 628.5 -612.0 649.5 -612.5 670.5 -613.5 691.0 -613.5 714.5 -613.5 737.0 -612.5 760.0 -612.0 782.5 -610.5 782.5 -624.0 783.0 -638.0 783.5 -652.0 783.5 -665.5 783.5 -711.0 756.5 -734.0 729.5 -756.5 676.0 -756.5 660.5 -755.0 644.0 -753.0 628.0 -750.5 610.5 -747.5 M724.0 -817.0 Q779.0 -817.0 818.5 -807.0 858.0 -797.0 881.5 -777.0 904.5 -757.5 916.0 -730.0 927.5 -703.0 927.5 -668.5 927.5 -609.5 923.5 -542.0 919.0 -474.5 910.5 -399.5 915.5 -398.5 921.0 -398.0 926.5 -397.5 932.0 -397.5 L932.0 -337.0 Q887.5 -341.5 844.0 -344.5 800.5 -347.5 758.0 -348.0 771.5 -320.5 787.0 -291.5 802.5 -262.5 819.0 -233.5 820.5 -242.5 824.5 -250.5 828.5 -258.5 834.5 -266.0 848.5 -279.5 866.0 -286.0 883.0 -293.0 903.0 -293.0 920.0 -293.0 935.5 -287.5 951.0 -282.5 964.5 -272.5 977.5 -259.5 984.5 -242.5 991.0 -225.5 991.0 -205.0 991.0 -166.5 960.5 -140.5 946.5 -128.0 932.0 -122.5 918.0 -116.5 903.0 -116.5 898.5 -116.5 894.0 -117.0 889.5 -117.5 886.0 -119.0 907.5 -82.0 931.0 -45.0 954.5 -7.5 980.0 30.5 L848.0 99.5 Q783.5 -6.0 725.0 -117.0 666.5 -228.5 613.5 -346.0 610.5 -345.5 607.5 -345.0 604.5 -345.0 602.0 -345.0 599.0 -211.5 597.5 -139.5 596.0 -67.5 596.0 -57.5 596.0 -36.5 599.5 -23.0 602.5 -9.0 610.5 -3.0 618.0 4.5 629.0 9.0 640.0 14.0 655.5 15.5 675.5 15.5 706.5 10.0 737.5 5.0 779.5 -5.0 L775.0 62.5 Q723.0 70.0 681.0 74.5 639.5 79.0 607.0 79.0 L577.5 79.0 Q546.0 79.0 521.0 67.5 495.5 56.0 477.0 33.0 462.0 16.5 454.5 -6.5 447.5 -30.0 447.5 -61.5 447.5 -101.5 451.5 -291.0 455.5 -481.0 464.0 -821.0 L611.5 -821.0 611.5 -804.0 Q643.5 -810.0 669.0 -813.5 694.5 -817.0 712.5 -817.0 L724.0 -817.0 M182.5 -542.5 Q195.5 -543.5 208.5 -544.0 221.5 -544.5 235.5 -545.0 241.5 -544.5 248.5 -544.5 255.0 -544.0 262.0 -543.5 260.5 -603.5 257.5 -643.5 254.5 -683.0 250.0 -701.5 247.0 -717.0 238.0 -725.0 229.5 -733.0 215.0 -733.0 207.5 -733.0 190.5 -724.0 187.5 -678.0 185.0 -632.5 183.0 -587.5 182.5 -542.5 M180.0 -306.0 Q193.0 -307.5 206.5 -308.5 219.5 -309.0 233.5 -309.0 240.5 -309.0 247.5 -308.5 254.5 -308.5 262.0 -308.0 262.0 -343.0 262.5 -375.0 263.0 -407.0 263.0 -436.0 L263.0 -484.5 Q255.5 -484.5 248.5 -485.0 241.5 -485.5 235.5 -485.5 206.5 -485.5 180.0 -482.5 179.5 -454.5 179.5 -428.0 179.0 -401.0 179.0 -375.0 179.0 -357.0 179.5 -340.0 179.5 -323.0 180.0 -306.0 M189.5 -54.5 Q205.5 -56.0 221.5 -56.5 237.5 -57.5 253.0 -57.5 255.0 -108.0 257.0 -155.5 258.5 -203.5 260.0 -248.0 252.5 -248.0 246.0 -248.5 239.5 -249.0 233.5 -249.0 219.5 -249.0 206.5 -248.0 193.5 -247.5 181.0 -247.0 182.0 -197.5 184.0 -150.0 186.5 -102.0 189.5 -54.5 M55.5 -801.0 L195.5 -801.0 Q195.0 -794.5 194.5 -789.0 194.5 -784.0 194.5 -779.5 210.0 -785.5 224.5 -788.5 239.0 -792.0 252.0 -793.5 L263.0 -793.5 Q314.5 -793.5 345.5 -774.0 376.0 -754.0 386.0 -715.0 394.5 -679.5 399.0 -609.5 403.5 -540.0 403.5 -436.0 403.5 -350.0 400.5 -253.5 397.5 -156.5 392.0 -49.0 400.5 -47.5 408.5 -46.5 416.5 -46.0 424.0 -45.0 L424.0 15.5 Q344.0 3.0 267.5 3.0 248.0 3.0 229.5 4.0 211.0 4.5 192.5 6.0 192.5 17.0 193.5 28.5 194.0 39.5 195.5 51.0 L55.5 51.0 Q47.5 -55.0 44.0 -161.5 40.0 -268.0 40.0 -375.0 40.0 -481.0 44.0 -587.5 47.5 -694.0 55.5 -801.0" fill-rule="evenodd" stroke="none"/>
    </g>
    <g id="font_DFPOP3_Std_W12__12">
      <path d="M206.0 -392.0 L256.0 -448.5 256.0 -537.5 Q245.0 -537.5 234.5 -537.0 224.0 -536.5 214.0 -536.5 211.5 -498.0 209.5 -462.0 207.5 -426.0 206.0 -392.0 M455.5 -817.0 L468.0 -765.0 Q448.0 -760.5 429.5 -756.5 411.5 -752.5 395.5 -749.5 L395.5 -592.0 Q416.0 -590.5 437.0 -588.5 458.0 -587.0 479.0 -584.5 L479.0 -525.5 Q458.0 -527.5 437.0 -529.5 416.0 -531.0 395.5 -532.5 L395.5 -337.0 Q426.5 -311.0 460.5 -285.0 494.5 -259.0 531.5 -233.5 L439.5 -125.0 Q428.0 -133.5 417.0 -142.0 406.0 -150.5 395.5 -158.5 L395.5 91.0 256.0 91.0 256.0 -278.5 Q241.5 -291.0 227.5 -304.0 214.0 -317.0 201.5 -331.0 194.0 -209.5 186.5 -113.0 178.5 -17.0 171.0 55.5 L40.0 43.0 Q55.5 -73.0 68.5 -216.5 81.5 -360.0 93.0 -530.5 80.0 -529.0 67.5 -528.0 55.5 -527.0 43.0 -525.5 L43.0 -584.5 Q96.0 -591.0 149.0 -594.0 202.5 -597.0 256.0 -597.0 L256.0 -729.0 Q219.0 -726.0 177.0 -724.0 134.5 -721.5 87.0 -721.0 L87.0 -773.0 Q147.0 -774.0 195.0 -777.0 243.0 -779.5 278.5 -784.5 317.5 -789.0 362.0 -797.0 406.5 -805.0 455.5 -817.0 M951.5 -209.0 L963.5 -156.5 Q914.5 -138.0 871.5 -126.0 L871.5 91.0 727.0 91.0 727.0 -89.0 Q722.5 -87.5 718.0 -87.0 713.5 -86.0 709.5 -86.0 653.0 -77.5 586.5 -72.5 520.0 -67.0 443.5 -65.5 L443.5 -116.5 Q526.5 -118.5 592.5 -124.5 658.0 -130.5 706.5 -141.5 711.0 -142.0 716.5 -143.0 721.5 -144.0 727.0 -145.5 L727.0 -833.5 871.5 -833.5 871.5 -182.5 Q891.5 -188.5 911.5 -195.0 931.5 -201.5 951.5 -209.0 M599.0 -437.0 Q619.0 -437.0 637.5 -430.5 656.0 -424.0 673.0 -411.5 688.0 -396.5 696.0 -377.0 703.5 -357.5 703.5 -333.0 703.5 -310.0 694.5 -290.5 685.5 -271.5 667.5 -256.0 651.0 -242.0 633.5 -236.0 616.5 -229.5 599.0 -229.5 576.0 -229.5 556.5 -238.0 537.5 -247.0 521.0 -265.0 508.0 -280.5 502.0 -297.5 495.5 -314.5 495.5 -333.0 495.5 -353.5 501.0 -372.0 507.0 -390.0 519.0 -405.5 535.5 -421.0 555.5 -429.0 575.0 -437.0 599.0 -437.0 M607.0 -733.0 Q647.0 -733.0 681.0 -708.5 711.5 -678.0 711.5 -628.5 711.5 -605.5 702.5 -586.5 693.5 -567.5 676.0 -552.0 659.0 -538.0 641.5 -531.5 624.0 -525.0 607.0 -525.5 584.0 -525.0 565.0 -534.0 545.5 -543.0 529.5 -561.0 516.5 -576.5 510.0 -593.5 504.0 -610.5 504.0 -628.5 503.5 -649.5 509.5 -668.0 515.0 -686.0 527.5 -701.5 542.5 -717.0 562.5 -725.0 582.5 -733.0 607.0 -733.0" fill-rule="evenodd" stroke="none"/>
    </g>
    <g id="font_DFPOP3_Std_W12__13">
      <path d="M662.5 -540.5 Q680.0 -533.0 698.0 -526.0 715.5 -519.0 733.0 -512.0 747.0 -518.0 760.5 -524.5 773.5 -530.5 787.5 -536.5 799.5 -542.0 806.5 -547.0 813.5 -552.5 815.0 -557.0 L791.5 -557.0 Q765.5 -556.5 733.0 -552.5 701.0 -548.5 662.5 -540.5 M685.0 -366.5 Q731.0 -366.0 777.5 -364.5 824.5 -363.0 870.5 -361.5 812.0 -383.0 756.5 -407.5 739.0 -397.0 721.5 -386.5 703.5 -376.5 685.0 -366.5 M543.5 -259.0 L543.5 -309.0 490.5 -309.0 Q486.0 -295.5 480.5 -282.0 475.0 -268.5 469.0 -255.0 489.0 -255.5 507.5 -256.5 526.0 -257.5 543.5 -259.0 M680.0 -204.0 L680.0 -185.5 Q680.0 -174.5 697.0 -169.5 713.5 -165.0 747.5 -165.0 752.0 -165.0 759.0 -165.0 765.5 -165.5 773.0 -167.0 768.5 -185.5 756.0 -195.0 744.0 -204.5 724.0 -205.0 712.5 -204.0 701.5 -204.0 690.5 -203.5 680.0 -204.0 M243.5 -85.0 Q312.0 -89.0 380.5 -91.0 449.0 -93.0 517.0 -93.0 581.5 -93.0 646.0 -91.0 710.5 -89.0 775.0 -86.0 L775.0 -110.5 Q753.0 -107.5 737.0 -106.5 721.0 -105.5 711.5 -105.5 L677.0 -105.5 Q610.0 -105.5 577.0 -128.5 543.5 -151.5 543.5 -197.5 L543.5 -198.5 Q518.5 -197.0 493.0 -196.0 467.5 -195.0 441.5 -193.5 429.0 -168.0 415.5 -143.0 401.5 -118.0 387.0 -93.0 L263.0 -125.0 Q273.0 -139.5 282.5 -154.0 292.0 -169.0 301.0 -184.5 287.0 -183.0 273.5 -182.0 260.0 -181.0 247.0 -180.0 243.5 -134.0 243.5 -91.0 L243.5 -85.0 M249.0 18.5 Q325.0 14.5 401.0 13.0 477.0 11.0 554.0 11.5 609.5 11.0 664.5 12.0 720.0 13.0 775.0 15.5 L775.0 -26.5 Q644.5 -33.0 517.0 -33.0 449.0 -32.5 381.0 -30.5 313.5 -28.5 246.0 -25.5 246.0 -14.0 246.5 -3.0 247.5 7.5 249.0 18.5 M855.0 -617.5 Q907.5 -617.5 933.5 -602.0 959.5 -587.0 959.5 -557.0 959.5 -547.0 952.0 -537.0 944.5 -527.5 931.0 -518.0 913.0 -506.0 894.0 -493.0 875.0 -480.5 854.0 -468.0 881.5 -457.5 910.0 -447.5 938.5 -438.0 967.5 -429.0 L899.0 -360.5 Q937.5 -359.0 976.0 -357.5 L976.0 -297.0 Q900.5 -301.0 827.0 -303.0 753.0 -305.5 680.0 -307.0 L680.0 -264.0 Q694.0 -264.5 707.5 -264.5 721.0 -265.0 733.0 -265.0 L764.0 -265.0 Q808.5 -265.0 840.0 -257.0 871.5 -249.0 891.0 -233.5 909.5 -218.0 918.5 -197.0 927.5 -175.5 927.5 -149.5 L927.5 21.5 Q931.0 21.5 933.5 22.0 936.0 22.5 939.0 22.5 L939.0 83.0 Q842.5 77.0 746.0 73.5 650.0 70.5 554.0 70.5 478.0 70.5 403.0 72.5 327.5 74.0 254.0 78.0 254.0 81.5 254.5 85.0 255.0 88.0 256.0 91.0 L111.5 91.0 Q105.5 45.0 102.5 0.0 99.5 -45.0 99.5 -91.0 99.5 -136.5 102.5 -182.0 105.5 -227.5 111.5 -273.5 L256.0 -273.5 Q254.5 -264.5 253.5 -256.5 252.5 -248.5 252.0 -240.5 295.0 -243.5 335.0 -247.0 342.5 -262.0 349.0 -277.5 355.5 -293.0 361.5 -308.0 283.0 -306.5 205.5 -303.5 128.0 -301.0 51.0 -297.0 L51.0 -357.5 Q166.5 -363.0 282.0 -365.5 398.0 -368.5 513.0 -368.5 540.5 -368.5 569.0 -368.0 597.0 -367.5 624.5 -367.5 L555.0 -437.0 Q573.5 -445.0 591.0 -452.0 609.0 -459.0 625.5 -466.0 609.5 -473.5 594.0 -481.5 578.5 -489.0 563.0 -496.5 L602.0 -528.5 Q590.0 -525.5 577.0 -523.0 564.5 -520.0 552.0 -517.0 L552.0 -577.5 Q636.5 -597.5 712.0 -607.5 787.5 -617.5 855.0 -617.5 M583.5 -833.5 L699.5 -829.5 Q698.5 -823.5 698.0 -818.5 697.5 -813.5 697.5 -809.0 748.0 -816.5 787.5 -821.0 826.5 -825.5 855.0 -825.5 L870.5 -825.5 Q904.5 -825.5 921.5 -813.0 939.0 -801.0 939.0 -777.0 L939.0 -701.5 Q939.0 -691.0 943.0 -686.0 947.0 -681.0 955.5 -681.0 L980.0 -681.0 976.0 -621.5 868.5 -621.5 Q841.5 -621.5 828.5 -640.5 815.0 -659.0 815.0 -697.5 L815.0 -769.0 Q814.5 -770.5 810.5 -772.0 806.5 -773.0 799.5 -773.0 782.0 -773.0 755.0 -770.0 728.0 -767.5 691.0 -762.0 684.5 -714.0 677.5 -677.0 670.5 -639.5 663.5 -613.5 L543.5 -624.5 Q565.0 -707.5 583.5 -833.5 M195.5 -689.0 Q220.0 -727.5 238.5 -766.0 228.0 -765.0 217.5 -764.5 207.0 -763.5 197.5 -763.0 197.0 -743.0 196.0 -724.5 195.5 -706.0 195.5 -689.0 M301.0 -615.5 Q308.0 -627.0 315.0 -640.0 322.0 -653.0 329.5 -666.5 323.0 -666.0 316.5 -665.0 310.0 -664.5 304.0 -664.5 292.0 -641.5 279.5 -621.5 L194.5 -643.0 Q194.5 -632.5 194.0 -623.0 193.5 -613.5 193.5 -605.0 221.0 -608.5 248.0 -611.0 275.0 -614.0 301.0 -615.5 M260.0 -445.5 L204.0 -477.0 Q219.0 -495.5 233.0 -514.5 247.0 -533.5 259.0 -552.0 242.0 -550.5 225.5 -548.5 208.5 -546.5 192.5 -545.0 192.0 -525.0 191.5 -514.0 191.5 -503.0 191.5 -500.5 191.5 -485.5 195.0 -475.0 198.0 -464.0 206.0 -459.0 212.0 -452.5 222.5 -449.0 233.0 -445.5 248.0 -445.5 L260.0 -445.5 M422.0 -459.0 Q396.0 -488.0 372.5 -520.0 363.5 -503.5 353.0 -485.5 342.5 -468.0 332.0 -449.5 352.0 -451.0 374.5 -453.5 397.0 -455.5 422.0 -459.0 M340.0 -829.5 Q390.5 -829.5 441.5 -826.5 492.5 -823.5 543.5 -817.0 L543.5 -756.5 Q447.0 -767.5 353.5 -769.0 348.5 -758.0 344.5 -747.5 340.5 -737.0 336.0 -727.0 349.5 -728.0 363.5 -728.5 377.5 -729.0 391.0 -729.0 426.5 -729.0 461.5 -726.0 496.0 -723.0 531.5 -717.0 L531.5 -657.5 Q510.0 -660.5 488.0 -663.0 466.0 -665.0 444.5 -666.5 438.5 -652.5 433.0 -640.0 427.0 -627.5 422.0 -616.5 453.5 -615.0 485.0 -612.0 516.5 -609.0 548.0 -605.0 L548.0 -545.0 Q526.5 -547.0 505.0 -549.0 484.0 -551.5 464.0 -553.0 478.0 -541.5 493.0 -530.5 508.0 -519.5 523.5 -509.0 L478.0 -466.0 Q496.0 -468.5 514.5 -471.0 532.5 -474.0 552.0 -477.0 L548.0 -412.5 Q443.5 -399.0 358.5 -392.0 273.0 -385.0 208.0 -385.0 L182.5 -385.0 Q155.5 -385.0 134.0 -395.0 112.5 -405.0 97.5 -425.0 84.5 -438.0 78.0 -458.0 71.5 -478.0 71.5 -505.0 71.5 -521.5 73.5 -604.0 75.5 -686.0 80.0 -833.5 L199.5 -833.5 199.5 -823.5 Q235.0 -826.5 270.0 -828.0 304.5 -829.5 340.0 -829.5" fill-rule="evenodd" stroke="none"/>
    </g>
    <g id="font_DFPOP3_Std_W12__14">
      <path d="M722.0 -796.5 Q786.5 -796.5 851.0 -793.5 915.5 -791.0 980.0 -785.5 L980.0 -725.0 Q931.0 -729.5 881.5 -732.0 832.5 -735.0 783.5 -736.5 L783.5 -628.5 Q797.0 -630.0 809.0 -631.0 821.0 -632.0 831.5 -633.0 L839.5 -633.0 Q865.0 -633.0 884.0 -631.0 903.5 -629.0 916.5 -625.5 947.0 -612.0 962.5 -576.5 970.0 -565.0 974.5 -506.0 978.5 -447.0 980.0 -341.0 980.0 -193.5 974.0 -70.5 972.5 -34.5 966.5 -12.0 960.5 10.5 950.5 20.5 939.0 33.5 920.0 40.5 901.5 47.0 875.5 47.0 L791.5 47.0 791.5 -13.5 811.0 -13.5 Q814.0 -13.5 817.5 -15.5 821.0 -18.0 824.5 -23.5 826.0 -26.5 827.0 -35.0 828.5 -43.0 828.5 -55.5 831.5 -190.5 831.5 -341.0 830.0 -388.0 829.0 -428.5 828.0 -469.0 827.5 -504.0 826.5 -526.0 822.0 -540.0 817.5 -553.5 810.0 -558.0 805.5 -560.5 798.5 -562.0 792.0 -563.5 783.5 -564.0 L783.5 95.0 643.0 95.0 643.0 -541.5 Q634.0 -539.5 624.0 -537.0 614.0 -535.0 604.0 -533.5 599.5 -472.0 598.0 -411.5 596.0 -350.5 596.0 -291.0 596.0 -205.0 600.0 -119.5 603.5 -34.0 611.5 51.0 L471.0 51.0 Q463.5 -34.0 459.5 -119.5 455.5 -205.0 455.5 -291.0 455.5 -376.0 459.5 -461.5 463.5 -547.0 471.0 -633.0 L611.5 -633.0 Q610.0 -623.5 609.0 -614.5 608.5 -605.5 608.5 -597.0 617.5 -598.5 626.0 -600.5 634.5 -602.5 643.0 -604.0 L643.0 -736.5 Q598.0 -734.5 553.0 -732.0 508.5 -729.0 464.0 -725.0 L464.0 -785.5 Q528.5 -791.0 593.0 -793.5 657.5 -796.5 722.0 -796.5 M187.5 -469.0 Q206.0 -470.5 223.5 -471.5 241.5 -472.5 259.0 -473.0 267.0 -514.5 271.0 -550.5 275.5 -587.0 275.5 -617.5 275.5 -643.0 265.5 -655.5 255.5 -668.5 235.5 -668.5 224.0 -667.0 212.0 -664.5 199.5 -662.0 187.5 -657.5 L187.5 -469.0 M187.5 -17.5 Q207.5 -19.0 227.5 -20.0 247.5 -21.0 267.5 -21.5 279.5 -130.5 279.5 -209.0 279.5 -261.0 239.5 -261.0 227.5 -259.5 214.5 -257.0 201.0 -254.5 187.5 -251.0 L187.5 -17.5 M195.5 -829.5 L343.0 -813.0 Q337.5 -788.5 331.0 -767.0 324.0 -745.0 316.5 -726.0 340.5 -723.0 358.5 -716.0 377.0 -709.5 389.0 -699.5 406.0 -685.5 415.0 -666.0 424.0 -646.0 424.0 -621.5 424.0 -586.5 419.0 -547.0 414.0 -507.5 404.5 -464.0 409.0 -462.5 414.0 -461.5 419.5 -461.0 424.0 -461.0 L424.0 -401.5 Q385.5 -407.0 348.0 -409.5 310.5 -412.5 273.5 -412.5 252.0 -412.5 230.5 -411.5 209.0 -410.0 187.5 -408.5 L187.5 -308.0 Q212.0 -314.5 232.0 -318.0 251.5 -321.5 266.0 -321.5 L275.5 -321.5 Q317.0 -321.5 346.0 -314.0 375.5 -306.5 393.0 -292.0 410.0 -277.0 418.5 -257.5 427.0 -237.5 427.0 -213.0 427.0 -168.5 424.0 -118.0 421.0 -67.5 414.5 -12.5 427.0 -11.0 439.5 -9.0 L439.5 51.0 Q399.5 45.0 360.0 42.0 320.5 39.0 281.5 39.0 257.0 39.0 233.5 40.0 210.5 40.5 187.5 43.0 L187.5 95.0 47.0 95.0 47.0 -741.5 177.0 -741.5 Q182.5 -761.5 187.0 -783.0 191.5 -805.0 195.5 -829.5" fill-rule="evenodd" stroke="none"/>
    </g>
    <g id="font_DFPOP3_Std_W12__15">
      <path d="M523.5 -217.0 L640.0 -156.5 Q621.5 -126.0 603.0 -95.0 621.5 -74.0 641.5 -53.5 661.5 -33.0 683.0 -13.5 L583.5 70.5 Q570.0 56.0 557.0 41.5 544.0 27.0 532.5 13.5 502.0 56.5 471.0 99.5 L351.0 22.5 Q451.0 -102.0 523.5 -217.0 M539.5 -619.5 Q573.5 -624.0 607.5 -626.5 641.5 -628.5 676.0 -628.5 742.0 -628.5 808.0 -619.5 792.5 -647.0 779.0 -670.5 765.0 -694.0 752.5 -712.5 746.5 -720.5 741.0 -724.5 735.5 -729.0 731.0 -729.0 719.5 -729.0 680.5 -722.5 641.0 -715.5 573.5 -702.5 566.0 -682.5 559.0 -665.0 552.0 -647.5 546.0 -633.0 544.5 -629.0 542.5 -626.0 541.0 -622.5 539.5 -619.5 M497.5 -297.0 Q508.5 -298.5 518.5 -299.5 529.0 -300.0 539.5 -300.0 L539.5 -445.5 Q539.5 -453.0 537.5 -457.0 535.5 -461.0 531.5 -461.0 524.0 -459.5 516.0 -457.0 508.0 -454.5 499.5 -451.5 497.5 -428.0 496.5 -404.5 495.5 -381.5 495.5 -359.5 495.5 -343.5 496.0 -328.0 496.0 -312.5 497.5 -297.0 M797.5 -294.0 Q807.5 -294.5 817.0 -295.5 826.5 -296.0 835.5 -296.0 L835.5 -433.0 Q835.5 -441.0 834.5 -445.0 833.0 -449.5 831.5 -449.5 816.0 -446.5 797.5 -440.5 796.0 -419.0 796.0 -398.0 795.5 -377.5 795.5 -357.5 795.5 -341.0 796.0 -325.0 796.0 -309.5 797.5 -294.0 M219.0 -505.0 L219.0 -653.5 Q215.5 -653.0 212.0 -653.0 209.0 -652.5 207.0 -652.5 200.5 -560.0 194.5 -477.0 L219.0 -505.0 M219.0 -712.5 L219.0 -833.5 347.0 -833.5 347.0 -706.5 Q360.0 -705.0 373.0 -704.0 386.5 -703.0 399.5 -701.5 L399.5 -641.0 Q371.5 -644.0 347.0 -647.0 L347.0 -371.5 Q355.5 -363.0 364.0 -355.0 372.5 -346.5 381.0 -339.0 380.0 -344.5 380.0 -349.5 380.0 -355.0 380.0 -359.5 380.0 -398.5 382.5 -438.0 385.0 -477.0 391.0 -517.0 L415.5 -517.0 351.0 -549.0 Q370.5 -580.5 388.0 -612.0 405.5 -643.5 421.0 -676.0 435.5 -707.5 452.0 -748.5 469.0 -790.0 487.5 -840.5 L607.0 -801.0 Q605.5 -795.5 604.0 -790.5 602.5 -786.0 601.0 -781.5 725.5 -821.0 754.5 -821.0 L768.0 -821.0 Q780.5 -821.0 793.5 -815.0 806.5 -809.0 820.0 -797.5 836.5 -780.5 881.0 -723.5 925.5 -666.0 999.5 -569.5 L899.0 -508.0 Q929.0 -505.0 944.5 -489.5 959.5 -474.0 959.5 -445.5 L959.5 -286.5 Q962.5 -286.0 965.5 -285.5 968.5 -284.5 972.0 -284.5 L972.0 -225.5 Q942.5 -231.5 914.0 -234.5 885.5 -237.5 857.0 -237.5 842.5 -237.5 828.5 -237.0 814.5 -236.0 801.0 -234.5 801.0 -226.0 801.5 -218.5 802.0 -210.5 803.0 -204.0 804.5 -207.0 806.0 -209.0 807.0 -211.5 808.0 -213.0 L923.5 -153.5 Q908.5 -126.0 896.0 -101.5 917.5 -72.0 941.5 -44.0 965.0 -15.5 991.0 11.5 L892.0 95.0 Q855.0 55.5 827.5 18.5 815.0 37.5 803.5 57.0 791.5 76.0 779.5 95.0 L667.5 26.5 Q705.0 -30.0 737.5 -85.5 770.0 -140.5 797.5 -193.5 L691.0 -193.5 Q686.5 -234.0 685.0 -275.0 683.0 -316.0 683.0 -357.5 683.0 -398.0 685.0 -439.0 686.5 -480.0 691.0 -521.0 L804.0 -521.0 Q803.0 -514.5 802.5 -508.5 802.0 -502.5 802.0 -497.5 818.5 -501.5 835.0 -504.0 851.5 -506.5 868.5 -508.0 857.5 -529.5 847.0 -548.5 836.5 -568.0 827.5 -584.5 L827.5 -557.0 Q789.0 -563.0 751.0 -566.5 713.5 -569.5 676.0 -569.5 637.5 -569.5 599.0 -566.5 561.0 -563.0 523.5 -557.0 L523.5 -588.0 Q505.0 -551.0 486.5 -517.0 L508.0 -517.0 Q507.0 -514.0 507.0 -512.5 507.0 -510.5 507.0 -509.0 527.0 -514.5 547.0 -517.5 567.0 -520.5 588.0 -521.0 623.0 -521.0 641.5 -505.0 659.5 -489.0 659.5 -456.5 L659.5 -291.0 Q662.5 -290.0 665.5 -289.5 668.5 -289.0 671.5 -289.0 L671.5 -229.5 Q644.0 -235.0 616.5 -237.5 589.0 -240.5 561.0 -240.5 530.5 -240.5 503.0 -237.5 503.5 -227.5 505.0 -218.5 506.5 -209.0 508.0 -200.5 L391.0 -200.5 Q389.5 -207.0 389.0 -213.5 388.0 -220.0 388.0 -226.5 L359.5 -193.5 Q355.5 -196.5 352.5 -199.0 349.5 -201.5 347.0 -204.0 L347.0 95.0 219.0 95.0 219.0 -320.5 Q210.0 -329.0 201.5 -337.5 193.0 -346.0 185.5 -355.5 175.5 -236.5 164.0 -128.0 152.5 -19.5 139.5 79.0 L23.5 58.5 Q60.5 -236.5 85.0 -645.0 76.0 -643.5 67.5 -642.5 59.0 -642.0 51.0 -641.0 L51.0 -701.5 Q92.5 -707.0 135.0 -710.0 177.0 -712.5 219.0 -712.5" fill-rule="evenodd" stroke="none"/>
    </g>
    <g id="font_DFPOP3_Std_W12__16">
      <path d="M527.5 7.0 Q640.0 7.0 753.5 9.5 866.5 12.5 980.0 18.5 L980.0 79.0 Q866.5 72.5 753.5 69.5 640.0 66.5 527.5 66.5 300.0 66.5 76.0 79.0 L76.0 18.5 Q188.0 12.5 301.0 9.5 413.5 7.0 527.5 7.0 M575.5 -427.0 Q624.5 -428.0 673.5 -428.5 722.0 -429.0 771.0 -429.0 L774.0 -429.0 Q723.5 -493.5 677.5 -561.5 631.5 -629.0 591.0 -700.5 L575.5 -700.5 575.5 -427.0 M277.5 -414.5 Q311.5 -416.5 346.0 -418.5 380.5 -420.5 415.5 -422.0 L415.5 -700.5 406.5 -700.5 Q362.0 -630.5 315.0 -563.0 267.5 -495.0 217.0 -429.0 L279.5 -429.0 Q279.0 -425.0 278.0 -421.5 277.5 -418.0 277.5 -414.5 M264.0 -258.0 Q324.0 -261.0 383.5 -263.0 442.5 -265.0 502.0 -265.0 564.5 -265.0 627.0 -263.0 689.5 -261.0 751.5 -257.0 L751.5 -325.5 Q751.5 -347.0 742.5 -358.0 733.5 -368.5 716.0 -368.5 531.5 -365.5 270.5 -353.5 264.0 -304.0 264.0 -258.0 M271.5 -82.0 Q345.0 -85.0 418.5 -87.0 492.5 -89.0 565.0 -89.0 613.0 -89.0 659.0 -88.5 705.5 -87.5 751.5 -86.0 L751.5 -197.5 Q688.5 -201.0 626.5 -203.0 564.0 -204.5 502.0 -205.0 442.0 -205.0 382.0 -203.5 322.5 -201.5 263.0 -198.5 263.0 -168.0 265.5 -139.0 267.5 -109.5 271.5 -82.0 M415.5 -761.0 L415.5 -829.5 575.5 -829.5 575.5 -760.0 Q657.5 -759.0 739.5 -756.5 821.5 -754.0 903.0 -749.5 L903.0 -689.0 Q866.0 -691.0 829.5 -692.5 793.0 -694.5 758.0 -696.5 796.0 -648.5 844.5 -597.0 893.0 -545.5 951.5 -489.5 L823.5 -422.0 Q859.5 -411.0 877.5 -385.0 896.0 -359.0 896.0 -317.5 L896.0 -80.0 Q908.5 -78.5 920.0 -77.5 931.5 -77.0 943.0 -77.0 L943.0 -17.5 Q848.5 -23.0 754.0 -25.5 659.5 -28.5 565.0 -28.5 493.0 -28.5 421.0 -27.0 349.0 -25.5 278.5 -22.5 278.5 -21.0 279.0 -19.5 279.5 -18.0 279.5 -17.5 L139.5 -17.5 Q124.0 -119.0 124.0 -223.0 124.0 -326.0 139.5 -429.0 L151.5 -429.0 55.5 -489.5 Q106.0 -543.5 150.5 -595.0 195.0 -647.0 232.5 -696.5 191.0 -695.0 151.0 -693.0 111.0 -691.5 71.5 -689.0 L71.5 -749.5 Q157.5 -754.0 243.5 -756.5 329.5 -759.5 415.5 -761.0" fill-rule="evenodd" stroke="none"/>
    </g>
    <g id="font_DFPOP3_Std_W12__17">
      <path d="M587.0 -244.5 Q616.0 -246.5 646.0 -247.5 675.5 -249.0 705.5 -249.0 730.0 -249.0 754.5 -248.0 779.5 -247.5 804.0 -247.0 800.0 -271.5 793.0 -286.5 786.5 -302.0 777.0 -308.0 763.5 -316.5 749.0 -321.0 734.5 -325.5 720.0 -325.5 690.5 -325.0 658.5 -321.0 626.0 -317.0 591.0 -309.0 589.0 -292.5 588.0 -276.0 587.0 -260.0 587.0 -244.5 M583.5 -121.0 Q613.0 -122.5 641.5 -123.5 670.5 -125.0 699.5 -125.0 726.0 -125.0 753.5 -124.0 780.5 -123.5 808.0 -122.0 808.0 -135.5 808.0 -151.0 808.0 -166.0 808.0 -182.5 L808.0 -186.5 Q782.0 -188.0 756.5 -188.5 731.0 -189.5 705.5 -189.5 675.0 -189.5 644.5 -188.0 614.0 -187.0 584.5 -185.5 584.0 -176.0 584.0 -167.0 583.5 -158.0 583.5 -149.5 583.5 -142.0 583.5 -135.0 583.5 -127.5 583.5 -121.0 M451.5 -393.0 L599.0 -393.0 Q597.5 -385.5 596.5 -379.0 596.0 -372.5 596.0 -366.5 644.5 -375.0 690.5 -379.5 736.0 -384.5 779.5 -385.0 L802.0 -385.0 Q843.0 -385.0 872.0 -378.0 900.5 -371.0 916.5 -357.5 959.5 -320.5 959.5 -182.5 959.5 -126.0 957.5 -78.5 955.0 -31.0 951.5 8.0 948.0 30.5 940.5 47.0 933.0 64.0 920.5 75.0 908.0 83.0 888.0 88.5 867.5 93.5 839.5 95.0 L819.0 95.0 Q791.5 95.0 757.0 93.0 722.0 91.0 680.0 87.0 L680.0 26.5 Q707.0 30.5 730.5 32.5 754.5 35.0 775.0 35.0 801.5 35.0 803.0 4.0 803.5 -10.0 804.5 -26.5 805.0 -43.0 806.0 -62.5 779.0 -64.0 752.5 -65.0 725.5 -65.5 699.5 -65.5 670.0 -65.5 642.0 -64.5 613.5 -63.0 585.5 -61.5 587.5 -21.5 591.0 17.5 594.5 56.0 599.0 95.0 L451.5 95.0 Q443.0 34.0 439.0 -27.0 435.0 -88.0 435.0 -149.5 435.0 -210.0 439.0 -271.0 443.0 -332.0 451.5 -393.0 M611.5 -768.0 L611.5 -833.5 764.0 -833.5 764.0 -768.0 Q814.5 -766.5 866.0 -764.0 917.0 -761.5 967.5 -756.5 L967.5 -697.5 Q916.5 -702.0 865.5 -704.5 814.5 -707.0 764.0 -708.5 L764.0 -632.0 Q811.0 -630.5 857.5 -628.0 904.5 -625.5 951.5 -621.5 L951.5 -561.0 Q903.5 -565.5 857.0 -568.5 810.0 -571.0 764.0 -572.5 L764.0 -495.5 Q816.0 -494.0 868.0 -491.5 919.5 -489.0 972.0 -485.5 L972.0 -425.0 Q836.5 -437.0 701.5 -437.0 566.5 -437.0 431.0 -425.0 L431.0 -485.5 Q476.5 -488.5 521.5 -491.5 567.0 -494.0 611.5 -495.5 L611.5 -571.5 Q570.5 -570.0 530.5 -567.5 491.0 -565.0 451.5 -561.0 L451.5 -621.5 Q531.5 -627.5 611.5 -631.0 L611.5 -708.5 Q565.5 -707.0 520.5 -704.0 475.5 -701.0 431.0 -697.5 L431.0 -756.5 Q475.5 -760.5 521.0 -763.5 566.0 -766.5 611.5 -768.0 M185.5 -538.5 Q199.0 -539.5 212.5 -540.0 226.0 -540.5 239.5 -540.5 247.5 -540.5 255.0 -540.0 262.5 -539.5 270.5 -539.5 268.0 -598.0 263.5 -636.5 259.0 -675.0 253.0 -693.0 249.0 -708.5 237.5 -717.0 226.5 -725.0 208.0 -725.0 201.5 -725.0 192.5 -719.0 189.5 -672.5 188.0 -627.5 186.0 -582.5 185.5 -538.5 M183.5 -310.5 Q197.0 -312.0 211.5 -312.5 225.5 -313.5 239.5 -313.5 247.0 -313.5 254.5 -313.0 261.5 -312.5 269.5 -312.5 270.0 -344.5 270.5 -374.5 271.5 -404.5 271.5 -432.0 L271.5 -480.5 Q263.0 -480.5 255.0 -481.0 247.5 -481.0 239.5 -481.5 210.5 -481.5 184.5 -478.0 183.5 -450.0 183.5 -422.5 183.5 -395.0 183.5 -368.5 L183.5 -310.5 M190.5 -61.5 Q207.5 -63.0 224.5 -64.0 241.0 -65.0 258.0 -65.5 261.0 -115.5 263.5 -162.0 265.5 -209.0 267.5 -252.0 259.5 -252.0 252.5 -252.5 246.0 -253.0 239.5 -253.0 210.5 -253.0 184.5 -250.0 185.0 -202.5 186.5 -155.5 188.0 -108.5 190.5 -61.5 M67.5 -785.5 L195.5 -785.5 Q195.5 -781.5 195.0 -778.0 194.5 -774.0 194.5 -771.0 207.5 -776.5 220.0 -780.0 232.0 -784.0 243.5 -785.5 L256.0 -785.5 Q310.0 -785.5 342.5 -766.0 375.0 -747.0 386.0 -708.5 394.5 -673.5 399.0 -604.0 403.5 -535.0 403.5 -432.0 403.5 -348.5 399.5 -254.5 396.0 -161.0 389.0 -57.5 397.0 -56.0 404.5 -55.0 412.0 -54.0 420.0 -53.0 L420.0 7.0 Q382.0 1.0 345.0 -2.0 308.0 -5.0 271.5 -5.0 251.5 -5.0 232.0 -4.5 212.5 -3.5 193.5 -2.0 193.5 10.0 194.0 22.5 195.0 35.0 195.5 47.0 L67.5 47.0 Q61.5 -56.5 58.5 -160.5 55.5 -264.0 55.5 -368.5 55.5 -473.0 58.5 -577.0 61.5 -681.0 67.5 -785.5" fill-rule="evenodd" stroke="none"/>
    </g>
    <g id="font_DFPOP3_Std_W12__18">
      <path d="M584.5 -368.5 Q584.5 -382.5 579.5 -395.5 574.0 -408.5 563.0 -420.0 551.5 -430.5 539.0 -436.0 526.0 -441.5 512.0 -441.5 496.0 -441.5 483.0 -436.0 470.0 -431.0 460.0 -421.0 449.0 -410.0 444.0 -397.0 439.0 -384.0 439.5 -368.5 439.5 -353.5 444.5 -340.5 450.0 -328.0 461.0 -317.5 471.5 -306.0 484.0 -300.5 496.5 -295.0 512.0 -295.0 526.0 -295.0 539.0 -300.5 551.5 -306.0 563.0 -317.5 574.0 -328.0 579.5 -341.0 584.5 -354.0 584.5 -368.5 M665.5 -368.5 Q665.5 -338.0 654.0 -310.5 642.5 -283.0 619.5 -260.0 573.5 -214.0 512.0 -214.0 480.0 -214.0 452.5 -225.5 425.5 -237.0 403.5 -260.0 380.5 -282.5 369.5 -309.5 358.5 -336.5 358.5 -368.5 358.5 -434.5 401.5 -479.0 444.5 -522.0 512.0 -522.0 543.5 -522.0 570.5 -511.0 597.5 -499.5 620.5 -477.0 643.0 -454.0 654.0 -427.0 665.5 -400.0 665.5 -368.5" fill-rule="evenodd" stroke="none"/>
    </g>
  </defs>
</svg>
