<?xml version="1.0" encoding="UTF-8" standalone="no"?>
<svg xmlns:xlink="http://www.w3.org/1999/xlink" height="33.9px" width="325.85px" xmlns="http://www.w3.org/2000/svg">
  <g transform="matrix(1.0, 0.0, 0.0, 1.0, 92.65, 1.5)">
    <g transform="matrix(1.0, 0.0, 0.0, 1.0, -93.55, 0.0)">
      <use fill="#000000" height="33.9" transform="matrix(0.0146, 0.0, 0.0, 0.0146, 83.0, 13.0)" width="325.85" xlink:href="#font_DFPOP3_Std_W12__0"/>
      <use fill="#000000" height="33.9" transform="matrix(0.0146, 0.0, 0.0, 0.0146, 98.0, 13.0)" width="325.85" xlink:href="#font_DFPOP3_Std_W12__1"/>
      <use fill="#000000" height="33.9" transform="matrix(0.0146, 0.0, 0.0, 0.0146, 113.0, 13.0)" width="325.85" xlink:href="#font_DFPOP3_Std_W12__2"/>
      <use fill="#000000" height="33.9" transform="matrix(0.0146, 0.0, 0.0, 0.0146, 128.0, 13.0)" width="325.85" xlink:href="#font_DFPOP3_Std_W12__3"/>
      <use fill="#000000" height="33.9" transform="matrix(0.0146, 0.0, 0.0, 0.0146, 143.0, 13.0)" width="325.85" xlink:href="#font_DFPOP3_Std_W12__4"/>
      <use fill="#000000" height="33.9" transform="matrix(0.0146, 0.0, 0.0, 0.0146, 158.0, 13.0)" width="325.85" xlink:href="#font_DFPOP3_Std_W12__5"/>
      <use fill="#000000" height="33.9" transform="matrix(0.0146, 0.0, 0.0, 0.0146, 173.0, 13.0)" width="325.85" xlink:href="#font_DFPOP3_Std_W12__6"/>
      <use fill="#000000" height="33.9" transform="matrix(0.0146, 0.0, 0.0, 0.0146, 188.0, 13.0)" width="325.85" xlink:href="#font_DFPOP3_Std_W12__7"/>
      <use fill="#000000" height="33.9" transform="matrix(0.0146, 0.0, 0.0, 0.0146, 203.0, 13.0)" width="325.85" xlink:href="#font_DFPOP3_Std_W12__8"/>
      <use fill="#000000" height="33.9" transform="matrix(0.0146, 0.0, 0.0, 0.0146, 218.0, 13.0)" width="325.85" xlink:href="#font_DFPOP3_Std_W12__9"/>
      <use fill="#000000" height="33.9" transform="matrix(0.0146, 0.0, 0.0, 0.0146, 233.0, 13.0)" width="325.85" xlink:href="#font_DFPOP3_Std_W12__10"/>
    </g>
    <g transform="matrix(1.0, 0.0, 0.0, 1.0, -93.55, 0.0)">
      <use fill="#000000" height="33.9" transform="matrix(0.0146, 0.0, 0.0, 0.0146, 0.0, 30.0)" width="325.85" xlink:href="#font_DFPOP3_Std_W12__11"/>
      <use fill="#000000" height="33.9" transform="matrix(0.0146, 0.0, 0.0, 0.0146, 15.0, 30.0)" width="325.85" xlink:href="#font_DFPOP3_Std_W12__12"/>
      <use fill="#000000" height="33.9" transform="matrix(0.0146, 0.0, 0.0, 0.0146, 30.0, 30.0)" width="325.85" xlink:href="#font_DFPOP3_Std_W12__13"/>
      <use fill="#000000" height="33.9" transform="matrix(0.0146, 0.0, 0.0, 0.0146, 45.0, 30.0)" width="325.85" xlink:href="#font_DFPOP3_Std_W12__14"/>
      <use fill="#000000" height="33.9" transform="matrix(0.0146, 0.0, 0.0, 0.0146, 60.0, 30.0)" width="325.85" xlink:href="#font_DFPOP3_Std_W12__15"/>
      <use fill="#000000" height="33.9" transform="matrix(0.0146, 0.0, 0.0, 0.0146, 75.0, 30.0)" width="325.85" xlink:href="#font_DFPOP3_Std_W12__16"/>
      <use fill="#000000" height="33.9" transform="matrix(0.0146, 0.0, 0.0, 0.0146, 90.0, 30.0)" width="325.85" xlink:href="#font_DFPOP3_Std_W12__17"/>
      <use fill="#000000" height="33.9" transform="matrix(0.0146, 0.0, 0.0, 0.0146, 105.0, 30.0)" width="325.85" xlink:href="#font_DFPOP3_Std_W12__18"/>
    </g>
    <g transform="matrix(1.0, 0.0, 0.0, 1.0, -93.55, 0.0)">
      <use fill="#000000" height="33.9" transform="matrix(0.0146, 0.0, 0.0, 0.0146, 120.0, 30.0)" width="325.85" xlink:href="#font_DFPOP3_Std_W12_60"/>
    </g>
    <g transform="matrix(1.0, 0.0, 0.0, 1.0, -93.55, 0.0)">
      <use fill="#000000" height="33.9" transform="matrix(0.0146, 0.0, 0.0, 0.0146, 130.3, 30.0)" width="325.85" xlink:href="#font_DFPOP3_Std_W12__19"/>
      <use fill="#000000" height="33.9" transform="matrix(0.0146, 0.0, 0.0, 0.0146, 145.3, 30.0)" width="325.85" xlink:href="#font_DFPOP3_Std_W12__20"/>
      <use fill="#000000" height="33.9" transform="matrix(0.0146, 0.0, 0.0, 0.0146, 160.3, 30.0)" width="325.85" xlink:href="#font_DFPOP3_Std_W12__21"/>
      <use fill="#000000" height="33.9" transform="matrix(0.0146, 0.0, 0.0, 0.0146, 175.3, 30.0)" width="325.85" xlink:href="#font_DFPOP3_Std_W12__22"/>
      <use fill="#000000" height="33.9" transform="matrix(0.0146, 0.0, 0.0, 0.0146, 190.3, 30.0)" width="325.85" xlink:href="#font_DFPOP3_Std_W12__17"/>
      <use fill="#000000" height="33.9" transform="matrix(0.0146, 0.0, 0.0, 0.0146, 205.3, 30.0)" width="325.85" xlink:href="#font_DFPOP3_Std_W12__23"/>
      <use fill="#000000" height="33.9" transform="matrix(0.0146, 0.0, 0.0, 0.0146, 220.3, 30.0)" width="325.85" xlink:href="#font_DFPOP3_Std_W12__24"/>
    </g>
    <g transform="matrix(1.0, 0.0, 0.0, 1.0, -93.55, 0.0)">
      <use fill="#000000" height="33.9" transform="matrix(0.0146, 0.0, 0.0, 0.0146, 235.3, 30.0)" width="325.85" xlink:href="#font_DFPOP3_Std_W12_10"/>
      <use fill="#000000" height="33.9" transform="matrix(0.0146, 0.0, 0.0, 0.0146, 245.6, 30.0)" width="325.85" xlink:href="#font_DFPOP3_Std_W12_00"/>
    </g>
    <g transform="matrix(1.0, 0.0, 0.0, 1.0, -93.55, 0.0)">
      <use fill="#000000" height="33.9" transform="matrix(0.0146, 0.0, 0.0, 0.0146, 255.9, 30.0)" width="325.85" xlink:href="#font_DFPOP3_Std_W12__25"/>
      <use fill="#000000" height="33.9" transform="matrix(0.0146, 0.0, 0.0, 0.0146, 270.9, 30.0)" width="325.85" xlink:href="#font_DFPOP3_Std_W12__26"/>
      <use fill="#000000" height="33.9" transform="matrix(0.0146, 0.0, 0.0, 0.0146, 285.9, 30.0)" width="325.85" xlink:href="#font_DFPOP3_Std_W12__21"/>
      <use fill="#000000" height="33.9" transform="matrix(0.0146, 0.0, 0.0, 0.0146, 300.9, 30.0)" width="325.85" xlink:href="#font_DFPOP3_Std_W12__27"/>
      <use fill="#000000" height="33.9" transform="matrix(0.0146, 0.0, 0.0, 0.0146, 315.9, 30.0)" width="325.85" xlink:href="#font_DFPOP3_Std_W12__28"/>
    </g>
  </g>
  <defs>
    <g id="font_DFPOP3_Std_W12__0">
      <path d="M867.5 -789.5 Q887.0 -789.5 905.0 -783.0 923.0 -776.5 940.0 -764.0 955.5 -748.5 963.5 -729.0 971.5 -709.5 972.0 -685.0 971.5 -662.0 962.5 -643.0 953.5 -623.5 936.0 -608.5 919.0 -594.5 901.5 -588.0 884.5 -581.5 867.5 -581.5 844.5 -581.5 825.0 -590.5 805.5 -599.0 789.5 -617.5 776.5 -633.0 770.0 -649.5 764.0 -666.5 764.0 -685.0 764.0 -706.0 769.5 -723.5 775.0 -741.5 787.5 -756.5 803.0 -773.0 823.0 -781.0 843.0 -789.5 867.5 -789.5 M515.0 -817.0 L531.5 -752.5 Q490.0 -740.5 452.0 -731.0 414.5 -722.0 380.0 -716.0 L380.0 -536.5 Q413.0 -536.5 446.0 -537.0 479.5 -537.5 513.0 -537.5 536.0 -537.5 559.5 -537.0 583.5 -536.5 607.0 -536.5 592.0 -596.5 578.0 -658.0 564.0 -719.0 552.0 -781.5 L699.5 -829.5 Q716.5 -750.5 734.5 -676.5 753.0 -602.5 773.0 -533.5 821.5 -532.0 870.0 -530.0 918.5 -527.5 967.5 -525.5 L967.5 -465.0 Q923.0 -467.0 878.5 -469.0 834.5 -470.5 790.5 -472.0 796.5 -448.0 803.5 -425.5 810.5 -402.5 818.0 -381.0 819.0 -377.0 820.0 -374.0 821.0 -370.5 822.5 -367.5 833.0 -380.5 843.0 -394.0 853.5 -407.0 863.0 -421.0 L991.0 -328.5 Q966.0 -295.0 939.0 -261.0 912.5 -227.0 884.5 -191.5 906.0 -134.5 929.0 -80.0 951.5 -25.5 976.0 26.5 L823.5 102.5 Q807.0 65.5 792.5 29.5 777.5 -7.0 764.0 -43.0 736.5 -10.5 708.5 23.0 680.5 56.5 651.5 91.0 L523.5 -9.0 Q569.5 -60.0 614.0 -111.0 658.5 -162.0 701.5 -213.0 690.0 -245.5 679.5 -278.0 668.5 -310.5 659.5 -343.0 649.5 -376.0 640.5 -409.0 631.0 -442.5 622.5 -476.0 595.0 -476.0 567.5 -476.5 540.0 -477.0 513.0 -477.0 479.5 -477.0 446.0 -476.5 413.0 -476.0 380.0 -476.0 L380.0 -249.0 Q412.0 -268.0 448.0 -291.0 484.0 -314.0 523.5 -341.0 L555.0 -284.5 Q506.0 -251.0 462.0 -222.5 418.5 -194.5 380.0 -173.0 L380.0 99.5 219.0 99.5 219.0 -95.0 Q185.5 -81.5 150.0 -69.0 114.0 -56.5 76.0 -45.0 L55.5 -105.5 Q102.0 -120.0 143.0 -135.0 184.0 -149.5 219.0 -165.0 L219.0 -472.0 Q178.5 -470.5 138.5 -468.5 98.5 -466.5 59.5 -465.0 L59.5 -525.5 Q99.5 -527.0 139.5 -529.0 179.0 -531.0 219.0 -532.5 L219.0 -695.5 Q185.5 -692.0 150.0 -690.5 114.0 -689.0 76.0 -689.0 L76.0 -741.5 Q147.0 -743.0 204.0 -747.5 261.0 -752.5 304.0 -761.0 351.0 -767.5 404.0 -781.5 456.5 -795.5 515.0 -817.0" fill-rule="evenodd" stroke="none"/>
    </g>
    <g id="font_DFPOP3_Std_W12__1">
      <path d="M272.5 -116.5 Q334.0 -120.5 396.0 -123.0 457.5 -125.0 519.0 -125.0 625.0 -125.0 731.0 -119.0 L731.0 -125.0 Q731.0 -155.0 720.0 -170.0 708.5 -185.5 687.0 -185.5 600.5 -183.0 497.5 -174.5 394.0 -166.5 274.5 -152.5 273.5 -143.5 273.0 -134.5 272.5 -125.0 272.5 -116.5 M273.5 3.0 Q344.0 -1.0 414.0 -3.0 484.0 -5.0 554.0 -5.0 598.5 -5.0 642.5 -4.5 686.5 -3.5 731.0 -2.0 L731.0 -59.5 Q623.5 -65.5 519.0 -65.5 456.5 -65.5 394.5 -63.5 332.5 -61.0 271.5 -57.5 271.5 -42.0 271.5 -27.0 272.0 -11.5 273.5 3.0 M139.5 -237.5 L283.5 -237.5 Q280.5 -223.5 280.5 -213.0 423.5 -228.5 528.5 -236.5 634.0 -244.5 701.5 -244.5 L727.0 -244.5 Q771.5 -244.5 803.5 -237.0 835.5 -229.5 854.0 -214.0 872.5 -198.5 882.0 -177.5 892.0 -156.0 892.0 -129.0 L892.0 7.0 Q893.5 7.0 894.5 7.0 895.5 7.0 896.0 7.0 L896.0 66.5 Q810.0 60.5 724.5 58.0 639.0 55.0 554.0 55.5 485.0 55.5 416.5 57.0 347.5 58.5 278.5 62.5 279.5 71.5 280.5 81.0 282.0 90.0 283.5 99.5 L139.5 99.5 Q133.0 57.0 130.5 15.0 128.0 -26.5 128.0 -69.5 128.0 -111.0 130.5 -153.0 133.0 -195.5 139.5 -237.5 M314.5 -684.0 Q364.5 -688.5 414.5 -691.0 464.5 -693.0 515.0 -693.0 564.0 -693.0 612.5 -691.0 661.0 -689.0 708.5 -685.0 699.5 -697.5 691.5 -709.5 683.5 -721.5 676.0 -733.0 642.0 -773.0 599.0 -773.0 557.5 -772.5 493.0 -760.0 428.5 -747.5 341.0 -723.0 334.0 -713.0 327.5 -703.0 320.5 -693.5 314.5 -684.0 M256.0 -540.5 Q411.0 -557.0 525.0 -565.0 639.0 -573.5 711.5 -573.5 L739.5 -573.5 Q751.0 -573.5 761.0 -573.0 771.0 -572.0 780.5 -571.5 772.5 -584.5 765.0 -597.5 757.0 -610.5 749.5 -622.5 690.5 -627.5 632.0 -630.0 573.5 -633.0 515.0 -633.0 455.0 -633.0 395.5 -630.0 335.5 -627.0 275.5 -621.5 L275.5 -628.5 Q263.0 -612.0 251.0 -595.0 239.0 -578.0 227.5 -561.0 L259.0 -561.0 Q257.5 -555.5 257.0 -550.5 256.0 -545.5 256.0 -540.5 M694.5 -359.5 Q705.0 -358.5 716.0 -358.0 726.5 -357.5 737.5 -357.5 742.0 -387.5 744.5 -413.5 747.5 -439.5 747.5 -461.0 747.5 -487.0 736.5 -500.0 725.0 -513.0 703.5 -513.0 639.0 -510.0 571.5 -507.0 L571.5 -361.5 579.5 -361.5 Q592.0 -393.0 602.0 -425.0 612.0 -457.0 619.5 -489.5 L739.5 -477.0 Q731.0 -448.0 719.5 -418.5 708.0 -388.5 694.5 -359.5 M250.0 -352.5 Q262.0 -352.5 274.0 -353.0 285.5 -353.5 297.0 -354.5 288.0 -382.0 280.5 -408.5 273.5 -435.0 267.5 -461.0 L387.0 -485.5 Q402.5 -421.0 424.0 -359.5 428.5 -359.5 432.5 -360.0 436.0 -360.5 439.5 -360.5 L439.5 -497.5 Q394.0 -493.0 346.5 -488.5 299.0 -484.0 250.0 -479.0 248.5 -461.5 248.0 -444.5 247.5 -428.0 248.0 -411.5 247.5 -396.5 248.0 -381.5 248.5 -367.0 250.0 -352.5 M239.5 -845.0 L331.0 -780.5 Q423.5 -806.5 505.0 -819.5 586.0 -833.0 655.5 -833.5 L664.5 -833.5 Q695.5 -833.5 723.0 -823.0 750.5 -812.5 775.0 -792.5 808.0 -765.0 865.0 -698.0 922.0 -631.5 1003.5 -525.5 L892.0 -462.0 Q892.0 -435.5 889.0 -408.0 886.0 -380.0 880.5 -350.0 884.5 -349.5 888.5 -349.5 892.0 -349.0 896.0 -349.0 L896.0 -289.0 Q807.5 -295.0 719.5 -298.0 631.5 -301.0 543.5 -301.0 471.5 -301.0 399.5 -299.0 327.0 -296.5 255.0 -293.0 255.5 -284.5 256.5 -276.5 257.5 -269.0 259.0 -261.0 L128.0 -261.0 Q115.5 -335.0 115.5 -411.5 115.5 -427.5 116.0 -444.0 116.5 -460.5 118.0 -477.0 L27.5 -549.0 Q86.0 -622.5 139.0 -697.0 192.0 -771.0 239.5 -845.0" fill-rule="evenodd" stroke="none"/>
    </g>
    <g id="font_DFPOP3_Std_W12__2">
      <path d="M583.5 -312.5 Q618.5 -312.5 652.5 -312.0 687.0 -311.5 721.0 -311.5 724.0 -351.0 725.5 -388.5 727.0 -425.5 727.0 -461.0 727.0 -525.5 671.5 -525.5 638.0 -523.5 601.0 -520.0 564.0 -516.5 524.5 -511.0 550.5 -480.0 581.0 -449.5 612.0 -419.0 647.0 -389.0 L583.5 -312.5 M331.0 -311.5 Q380.0 -312.0 428.5 -312.5 477.0 -313.5 525.5 -313.5 L534.5 -313.5 Q504.0 -339.5 476.0 -367.5 448.5 -395.5 424.0 -425.0 L496.5 -507.0 Q467.5 -502.5 436.5 -497.5 406.0 -492.5 374.0 -486.5 347.5 -385.0 331.0 -311.5 M683.0 -26.5 Q693.0 -86.5 701.0 -142.5 708.5 -198.5 715.0 -251.0 666.5 -251.5 619.0 -252.5 571.5 -253.0 525.5 -253.0 473.0 -253.0 421.0 -252.0 369.0 -251.5 317.5 -250.0 306.5 -197.5 301.5 -160.5 296.0 -123.0 296.0 -101.5 296.0 -51.0 313.5 -26.0 331.5 -1.0 367.5 -1.0 402.0 -1.0 440.0 -2.5 477.5 -4.5 519.0 -8.0 484.0 -38.0 451.5 -70.5 419.5 -102.5 391.0 -137.0 L479.0 -237.5 Q505.5 -204.0 538.5 -170.0 571.5 -136.0 611.5 -101.5 L534.5 -9.0 Q570.0 -12.0 607.0 -16.5 644.0 -20.5 683.0 -26.5 M248.0 -581.5 L399.5 -581.5 Q396.5 -572.5 394.0 -564.0 391.5 -556.0 390.0 -549.0 490.0 -566.5 564.5 -575.5 639.5 -584.5 689.0 -584.5 L711.5 -584.5 Q757.0 -584.5 789.5 -576.5 822.0 -568.5 841.5 -553.0 860.0 -537.0 870.0 -514.5 879.5 -492.5 879.5 -465.0 879.5 -426.5 877.5 -386.5 875.5 -347.0 872.5 -306.0 900.0 -304.5 927.5 -303.5 955.5 -302.5 983.0 -301.0 L983.0 -240.5 Q954.0 -242.0 925.0 -243.0 896.0 -244.5 867.5 -246.0 862.0 -199.0 855.0 -150.5 848.0 -102.0 839.5 -51.0 853.5 -53.5 867.5 -56.0 881.5 -58.5 896.0 -61.5 L896.0 -1.0 Q878.5 2.0 861.5 4.5 844.5 7.0 828.5 10.0 824.0 31.5 819.5 52.5 815.5 74.0 811.0 95.0 L659.5 95.0 Q662.5 78.5 665.5 63.0 668.5 47.5 671.5 33.0 572.5 45.0 486.5 51.5 400.5 58.5 327.5 58.5 279.5 58.5 244.5 48.5 210.0 38.5 188.5 19.5 167.5 0.5 156.5 -27.0 145.0 -54.0 143.5 -89.0 143.5 -113.0 148.5 -152.0 154.0 -191.0 165.0 -244.5 140.5 -244.0 116.0 -243.0 91.5 -242.0 67.5 -240.5 L67.5 -301.0 Q95.0 -302.5 123.0 -303.5 150.5 -304.5 178.0 -306.0 190.5 -363.0 208.0 -431.5 225.5 -500.5 248.0 -581.5 M195.5 -833.5 L336.0 -817.0 Q329.0 -795.0 321.5 -773.0 314.0 -751.5 306.0 -730.0 374.5 -733.0 442.0 -735.0 510.0 -737.0 577.5 -737.5 666.5 -737.5 756.5 -734.0 846.0 -731.0 936.0 -725.0 L936.0 -665.5 Q846.0 -671.0 756.5 -674.0 666.5 -677.0 577.5 -677.0 503.0 -677.0 429.0 -674.5 355.5 -672.5 281.5 -668.5 244.5 -579.5 195.5 -493.5 L47.0 -529.5 Q96.5 -604.5 133.5 -680.5 171.0 -756.5 195.5 -833.5" fill-rule="evenodd" stroke="none"/>
    </g>
    <g id="font_DFPOP3_Std_W12__3">
      <path d="M519.0 -785.5 Q626.0 -785.5 733.0 -782.5 839.5 -779.5 947.0 -773.0 L947.0 -712.5 Q869.5 -717.0 792.5 -720.0 715.5 -722.5 639.0 -724.0 601.5 -648.5 567.0 -581.0 532.5 -513.5 502.0 -453.5 L513.0 -453.5 Q628.5 -453.5 744.0 -450.5 860.0 -447.5 976.0 -441.5 L976.0 -381.0 Q913.5 -384.0 852.0 -386.5 790.5 -388.5 729.0 -390.0 786.0 -297.0 849.5 -206.5 913.0 -116.5 983.0 -28.5 L835.5 95.0 Q751.0 -24.5 676.0 -146.5 601.0 -269.0 536.5 -393.0 530.5 -393.0 524.5 -393.0 518.5 -393.0 513.0 -393.0 L470.0 -393.0 Q456.5 -366.5 443.5 -341.5 431.0 -317.0 419.0 -294.0 363.0 -194.0 305.0 -96.5 247.5 0.5 187.5 95.0 L36.0 -13.5 Q92.0 -95.5 144.5 -180.5 196.5 -266.0 246.0 -354.5 250.5 -363.5 255.5 -372.0 260.5 -380.5 265.0 -389.0 211.5 -387.5 158.0 -386.0 104.0 -384.0 51.0 -381.0 L51.0 -441.5 Q175.5 -447.5 300.0 -450.5 336.0 -516.5 371.0 -585.0 405.5 -653.5 439.5 -724.0 352.0 -723.0 265.0 -720.5 178.0 -717.5 91.0 -712.5 L91.0 -773.0 Q198.0 -779.5 305.0 -782.5 411.5 -785.5 519.0 -785.5" fill-rule="evenodd" stroke="none"/>
    </g>
    <g id="font_DFPOP3_Std_W12__4">
      <path d="M607.0 -385.0 L751.5 -385.0 751.5 -274.5 Q782.5 -277.5 813.0 -277.5 845.5 -277.5 878.0 -274.5 911.0 -271.5 943.0 -265.0 L943.0 -205.0 Q911.0 -211.0 878.0 -214.0 845.5 -217.0 813.0 -217.0 781.0 -217.0 751.5 -214.0 L751.5 -72.5 Q805.5 -58.0 864.5 -47.0 923.5 -36.5 987.0 -28.5 L963.5 99.5 Q887.5 92.5 812.0 77.5 736.5 63.0 661.5 40.0 616.0 26.0 569.5 9.0 523.0 -8.0 475.0 -28.5 465.0 2.0 455.0 33.5 445.0 64.5 435.0 95.0 L303.0 62.5 Q344.5 -47.5 375.5 -158.0 406.5 -269.0 427.0 -381.0 L555.0 -365.5 Q546.0 -312.5 534.5 -260.0 523.0 -208.0 510.0 -155.5 534.5 -145.0 558.5 -135.0 582.5 -125.5 607.0 -118.0 L607.0 -385.0 M527.5 -840.5 L651.5 -796.5 Q645.0 -766.0 637.5 -737.5 630.0 -709.0 621.5 -683.0 641.5 -658.5 662.5 -635.0 683.5 -611.0 705.5 -589.0 715.5 -609.0 724.0 -627.0 732.0 -645.5 738.5 -661.5 769.0 -738.5 787.5 -833.5 L919.5 -785.5 Q911.0 -742.5 899.5 -703.0 888.5 -664.0 874.5 -628.5 900.5 -596.5 930.0 -564.5 959.0 -532.5 991.0 -500.5 L883.5 -412.5 Q864.5 -433.5 847.0 -454.5 829.5 -475.0 814.0 -496.5 801.0 -473.0 786.5 -447.0 772.0 -421.0 755.5 -393.0 L643.0 -469.0 Q654.0 -488.0 663.5 -506.5 673.0 -525.0 682.0 -541.5 L615.5 -485.5 Q601.5 -500.5 588.5 -516.0 576.0 -531.5 564.0 -547.0 549.0 -515.5 528.5 -479.0 508.0 -443.0 483.5 -401.5 L380.0 -469.0 Q413.5 -529.0 438.0 -578.0 462.0 -627.0 477.0 -665.5 492.5 -705.5 505.5 -749.5 518.0 -793.0 527.5 -840.5 M319.5 -677.0 L439.5 -613.5 Q405.5 -555.0 369.5 -497.5 333.5 -440.0 296.0 -384.0 L296.0 99.5 164.0 99.5 164.0 -195.5 Q162.5 -193.5 161.5 -191.5 160.5 -190.0 159.5 -189.5 L40.0 -265.0 Q203.0 -478.5 319.5 -677.0 M239.5 -845.0 L359.5 -781.5 Q311.0 -710.5 257.0 -641.5 203.0 -572.5 143.5 -505.0 L27.5 -577.5 Q150.5 -716.0 239.5 -845.0" fill-rule="evenodd" stroke="none"/>
    </g>
    <g id="font_DFPOP3_Std_W12__5">
      <path d="M588.0 -208.0 L588.0 -124.0 Q634.5 -124.0 681.5 -122.5 728.5 -121.5 775.0 -120.0 777.5 -143.0 779.5 -164.0 782.0 -185.5 783.5 -205.0 733.5 -206.5 684.5 -207.0 635.5 -208.0 588.0 -208.0 M588.0 -347.0 L588.0 -268.5 Q687.5 -268.5 787.5 -265.0 L787.5 -289.0 Q787.5 -319.0 770.5 -334.0 753.5 -349.0 720.0 -349.0 686.0 -349.0 653.0 -348.5 620.0 -348.0 588.0 -347.0 M588.0 -614.5 L588.0 -529.5 Q633.0 -528.5 678.5 -527.5 723.5 -527.0 769.0 -525.5 770.0 -545.0 770.5 -560.0 771.0 -575.0 771.0 -584.5 771.0 -600.0 752.0 -608.5 733.0 -616.5 695.5 -617.5 644.5 -617.5 588.0 -614.5 M224.5 -520.0 Q275.0 -523.0 325.5 -525.0 376.5 -527.0 427.0 -528.5 L427.0 -605.0 Q379.5 -601.5 329.0 -597.0 279.0 -592.5 225.5 -588.0 224.0 -577.0 223.5 -567.0 223.0 -557.0 223.0 -547.0 223.0 -540.0 223.5 -533.0 223.5 -526.5 224.5 -520.0 M427.0 -792.5 L427.0 -840.5 588.0 -840.5 588.0 -792.5 Q680.5 -792.0 773.5 -789.0 866.5 -786.0 959.5 -781.5 L959.5 -721.0 Q866.0 -725.5 773.0 -728.5 680.0 -731.5 588.0 -732.0 L588.0 -673.0 Q634.0 -674.5 678.5 -675.0 723.5 -676.0 768.0 -677.0 843.5 -677.0 881.5 -651.0 919.5 -625.0 919.5 -573.5 919.5 -566.0 919.0 -552.0 918.5 -538.0 917.5 -518.0 923.0 -518.0 928.5 -517.5 933.5 -517.0 939.0 -517.0 L939.0 -456.5 Q850.0 -462.0 762.0 -465.0 674.5 -468.0 588.0 -469.0 L588.0 -407.5 Q627.5 -408.5 666.5 -409.0 705.0 -409.5 743.5 -409.5 L779.5 -409.5 Q933.0 -406.5 936.0 -293.0 936.0 -283.5 935.5 -275.0 935.0 -267.0 935.0 -259.0 945.5 -258.5 956.0 -257.5 966.0 -257.0 976.0 -257.0 L976.0 -197.5 Q964.5 -197.5 953.5 -198.5 942.5 -199.0 932.0 -199.5 929.0 -156.5 922.5 -113.5 928.0 -113.5 933.0 -113.0 938.5 -112.5 943.0 -112.5 L943.0 -53.0 Q854.0 -58.0 765.0 -61.0 676.0 -63.5 588.0 -64.5 L588.0 -41.0 Q588.0 22.0 563.0 57.5 548.0 76.0 517.0 85.5 486.0 95.0 439.5 95.0 408.5 95.0 362.5 89.0 316.5 83.0 256.0 70.5 L256.0 11.5 Q297.5 23.0 330.5 29.0 363.0 35.0 387.0 35.0 427.0 35.0 427.0 -5.0 L427.0 -64.5 Q338.5 -63.5 251.0 -61.0 163.5 -58.0 76.0 -53.0 L76.0 -112.5 Q163.5 -117.5 251.5 -120.0 339.5 -123.0 427.0 -124.0 L427.0 -208.0 Q331.5 -207.0 236.5 -204.5 141.5 -202.0 47.0 -197.5 L47.0 -257.0 Q142.5 -261.5 237.0 -264.5 332.0 -267.5 427.0 -268.5 L427.0 -341.0 Q338.0 -336.5 251.0 -331.0 164.5 -325.0 80.0 -317.5 L76.0 -377.0 Q165.5 -385.5 253.5 -391.5 341.0 -397.5 427.0 -401.5 L427.0 -467.0 Q376.5 -466.0 327.0 -464.5 277.5 -463.0 229.5 -461.0 231.0 -439.5 235.5 -421.0 L91.0 -421.0 Q85.0 -452.5 82.5 -484.0 80.0 -515.5 80.0 -547.0 80.0 -578.5 82.5 -610.0 85.0 -641.5 91.0 -673.0 L235.5 -673.0 Q234.0 -666.5 233.0 -660.0 232.0 -653.5 231.5 -647.0 280.5 -652.0 329.5 -656.0 378.5 -660.5 427.0 -663.5 L427.0 -732.0 Q335.5 -731.5 245.0 -728.5 154.0 -725.5 63.5 -721.0 L63.5 -781.5 Q154.0 -786.0 245.0 -789.0 336.5 -792.0 427.0 -792.5" fill-rule="evenodd" stroke="none"/>
    </g>
    <g id="font_DFPOP3_Std_W12__6">
      <path d="M702.5 -728.0 Q722.5 -709.5 741.5 -692.0 760.5 -674.5 777.0 -657.5 779.5 -659.0 781.0 -661.0 783.0 -663.0 784.5 -664.5 812.0 -692.0 815.0 -717.0 815.0 -724.5 797.0 -728.5 779.0 -732.5 743.5 -733.0 734.0 -732.5 723.5 -731.0 713.5 -729.5 702.5 -728.0 M595.0 -615.5 Q615.5 -597.0 635.0 -579.0 654.0 -560.5 670.5 -543.5 680.0 -553.0 688.5 -561.5 697.0 -570.5 705.5 -579.5 685.5 -599.5 665.0 -619.5 644.5 -639.0 623.5 -657.5 616.5 -646.5 609.5 -636.5 602.5 -626.0 595.0 -615.5 M215.0 -825.5 L363.5 -825.5 363.5 -743.5 Q399.5 -742.0 435.5 -739.5 472.0 -737.0 508.0 -733.0 L508.0 -698.5 Q514.0 -706.0 520.0 -713.5 526.0 -721.5 530.5 -729.0 548.0 -756.5 561.5 -784.5 574.5 -812.5 583.5 -840.5 L691.0 -809.0 Q689.5 -801.0 687.5 -793.5 685.5 -786.0 684.0 -779.5 720.0 -786.0 754.0 -790.0 787.5 -793.5 819.0 -793.5 893.0 -793.5 930.5 -772.5 967.5 -751.0 967.5 -709.5 967.5 -690.5 960.0 -672.0 952.5 -653.5 937.0 -635.0 881.5 -569.5 812.0 -495.5 742.0 -422.0 657.5 -339.0 726.5 -337.5 795.0 -335.0 863.5 -332.5 932.0 -328.5 L932.0 -269.5 Q846.0 -274.0 760.0 -277.0 674.0 -280.0 588.0 -280.5 L588.0 -172.0 Q670.0 -171.0 752.0 -168.5 834.0 -165.5 915.5 -161.0 L915.5 -101.5 Q833.0 -106.0 751.0 -108.5 669.0 -111.0 588.0 -111.5 L588.0 4.0 Q681.5 4.0 775.5 7.0 870.0 10.0 963.5 15.5 L963.5 75.0 Q736.5 62.5 512.0 62.5 398.5 62.5 285.5 65.5 172.5 68.5 59.5 75.0 L59.5 15.5 Q153.0 10.0 247.5 7.0 341.5 4.0 435.0 4.0 L435.0 -111.5 Q351.5 -111.0 268.5 -108.5 185.5 -106.0 103.5 -101.5 L103.5 -161.0 Q186.5 -165.5 269.5 -168.5 352.5 -171.0 435.0 -172.0 L435.0 -280.5 Q347.5 -280.0 260.5 -277.0 173.0 -274.0 87.0 -269.5 L87.0 -328.5 Q192.5 -335.0 298.0 -338.0 404.0 -341.0 510.0 -341.0 534.0 -341.0 557.5 -340.5 581.5 -340.0 605.0 -340.0 L535.5 -409.5 Q551.0 -425.0 566.0 -439.5 581.5 -454.5 596.0 -469.0 579.0 -486.0 562.5 -502.0 546.0 -518.0 529.5 -533.5 522.5 -526.0 516.0 -518.5 510.0 -511.0 504.0 -505.0 L399.5 -577.5 Q426.0 -604.5 448.5 -629.0 471.0 -653.5 489.5 -675.0 437.0 -679.5 386.0 -682.0 334.5 -685.0 283.5 -685.0 275.0 -685.0 267.5 -684.5 259.5 -684.0 252.0 -684.0 241.0 -613.5 236.5 -568.5 231.5 -524.0 231.5 -505.0 231.5 -471.0 249.0 -454.0 267.0 -437.0 303.0 -437.0 337.0 -437.0 381.0 -443.0 425.5 -448.5 479.0 -461.0 L479.0 -401.5 Q414.0 -389.0 360.0 -383.0 306.0 -377.0 263.0 -377.0 217.0 -377.0 184.0 -384.5 151.0 -392.5 130.0 -408.5 110.0 -423.0 99.5 -444.5 88.5 -466.0 87.0 -493.5 87.0 -513.5 92.0 -559.5 96.5 -605.5 106.5 -677.0 94.0 -676.0 82.5 -675.0 71.0 -674.5 59.5 -673.0 L59.5 -733.0 Q98.0 -737.0 137.0 -740.0 176.0 -743.0 215.0 -744.5 L215.0 -825.5" fill-rule="evenodd" stroke="none"/>
    </g>
    <g id="font_DFPOP3_Std_W12__7">
      <path d="M191.5 -796.5 Q211.5 -796.5 229.5 -790.5 247.5 -784.5 264.0 -773.0 279.5 -758.5 287.5 -739.5 296.0 -720.5 296.0 -697.5 296.0 -651.5 259.0 -620.5 225.5 -593.0 191.5 -593.0 170.0 -593.0 151.0 -601.5 132.0 -610.5 116.5 -628.5 103.5 -645.0 97.5 -662.0 91.0 -679.0 91.0 -697.5 91.0 -717.0 96.5 -734.5 102.0 -751.5 113.5 -767.0 129.0 -781.5 148.5 -789.0 168.5 -796.5 191.5 -796.5 M473.0 -390.0 Q520.5 -393.5 569.0 -395.5 617.0 -397.0 665.5 -397.5 687.0 -397.5 708.5 -396.5 730.5 -396.0 752.5 -395.5 756.0 -413.5 758.0 -427.0 759.5 -440.5 760.0 -449.5 760.0 -465.0 744.5 -472.5 729.5 -480.5 699.5 -481.5 607.0 -478.0 472.0 -456.5 471.5 -449.0 471.0 -442.0 471.0 -435.0 471.0 -429.0 471.0 -419.0 471.5 -409.0 471.5 -399.5 473.0 -390.0 M618.5 -250.0 Q614.5 -223.5 613.0 -205.5 611.5 -187.0 611.5 -177.0 611.5 -157.0 620.0 -147.0 629.0 -137.0 647.0 -137.0 662.0 -137.0 679.5 -140.0 697.0 -142.5 717.0 -148.5 664.5 -197.5 618.5 -250.0 M347.0 -533.5 L487.5 -533.5 Q486.0 -529.0 485.0 -525.0 484.0 -521.0 483.5 -517.0 556.5 -528.0 627.5 -534.0 699.0 -540.0 768.0 -540.5 839.5 -540.5 875.5 -515.5 911.5 -490.5 911.5 -441.5 911.5 -433.5 909.0 -420.0 907.0 -406.5 903.0 -387.0 908.5 -386.5 914.0 -385.5 919.0 -385.0 923.5 -385.0 L923.5 -325.5 Q866.0 -330.5 808.5 -333.0 751.0 -336.0 694.5 -337.0 729.5 -301.5 768.0 -269.5 771.0 -281.5 780.5 -294.0 792.5 -305.5 807.5 -311.5 822.0 -317.5 839.5 -317.5 853.5 -317.5 867.0 -313.0 880.5 -308.0 893.0 -299.0 903.5 -288.5 909.5 -273.5 915.5 -259.0 915.5 -240.5 915.5 -223.5 908.5 -210.0 902.0 -196.0 889.0 -185.5 885.5 -182.5 883.0 -180.5 880.0 -179.0 878.5 -178.0 891.5 -167.5 905.0 -157.0 918.0 -146.5 932.0 -137.0 L837.5 -46.0 Q875.0 -44.5 914.5 -43.0 954.0 -42.0 995.5 -41.0 L987.0 102.5 Q875.0 99.5 772.5 92.5 670.0 85.0 577.5 73.5 506.0 64.5 426.5 48.5 346.5 32.5 259.0 10.0 L239.5 7.0 Q233.5 7.0 208.5 32.0 183.5 56.5 139.5 106.5 L27.5 -1.0 Q51.0 -13.5 75.0 -28.0 99.5 -42.0 124.0 -58.5 L124.0 -437.0 Q124.0 -459.0 116.5 -470.0 109.0 -481.0 95.0 -481.5 83.0 -477.5 68.0 -467.5 53.5 -457.5 36.0 -441.5 L36.0 -500.5 Q92.5 -539.0 155.5 -540.5 275.5 -540.5 275.5 -433.0 L275.5 -114.5 Q318.5 -103.0 379.0 -92.5 439.0 -82.0 516.0 -72.5 582.0 -63.5 659.0 -57.0 736.5 -51.0 825.5 -47.0 809.0 -61.0 794.0 -75.5 778.5 -89.5 764.0 -103.5 719.5 -89.5 682.0 -83.0 644.5 -76.5 615.5 -77.0 581.5 -76.5 557.5 -82.5 533.5 -88.0 518.0 -100.5 490.5 -123.5 487.5 -165.0 487.5 -171.0 487.5 -180.0 488.0 -189.0 489.5 -199.5 468.5 -174.5 447.0 -149.0 425.5 -123.5 403.5 -97.5 L296.0 -181.0 Q371.0 -255.0 434.0 -325.5 L347.0 -325.5 Q339.5 -351.0 335.5 -377.0 332.0 -403.0 332.0 -429.0 332.0 -481.5 347.0 -533.5 M535.5 -787.5 L535.5 -837.5 695.5 -837.5 695.5 -788.5 Q748.5 -787.0 801.5 -784.5 854.5 -782.0 907.5 -777.0 L907.5 -717.0 Q853.5 -721.5 800.5 -724.0 747.5 -726.5 695.5 -728.0 L695.5 -648.0 Q757.5 -646.5 819.5 -644.0 881.5 -641.5 943.0 -637.0 L943.0 -577.5 Q863.5 -583.0 784.0 -586.0 704.5 -589.0 625.5 -589.0 546.0 -589.0 466.5 -586.0 387.0 -583.0 307.0 -577.5 L307.0 -637.0 Q364.0 -641.5 421.5 -644.0 478.5 -646.5 535.5 -648.0 L535.5 -727.0 Q488.5 -725.5 442.5 -723.0 396.5 -720.5 351.0 -717.0 L351.0 -777.0 Q397.5 -781.0 443.5 -783.5 489.5 -786.0 535.5 -787.5" fill-rule="evenodd" stroke="none"/>
    </g>
    <g id="font_DFPOP3_Std_W12__8">
      <path d="M259.0 -829.5 L391.0 -829.5 391.0 -731.0 Q435.5 -748.0 477.5 -768.5 519.0 -789.0 559.0 -813.0 L579.5 -756.5 Q539.5 -734.0 492.5 -712.0 445.0 -690.0 391.0 -668.5 L391.0 -581.5 Q391.0 -573.0 398.0 -569.0 405.5 -565.0 420.0 -565.0 441.5 -565.0 483.5 -570.0 525.5 -575.0 588.0 -584.5 L588.0 -525.5 Q511.0 -514.5 461.0 -509.5 411.0 -505.0 387.0 -505.0 L361.5 -505.0 Q310.0 -505.0 284.5 -526.5 259.0 -548.5 259.0 -593.0 L259.0 -829.5 M143.5 -785.5 Q171.5 -736.5 192.5 -694.5 213.5 -652.5 227.5 -617.5 237.5 -589.0 242.5 -564.0 248.0 -538.5 248.0 -517.0 248.0 -485.0 243.0 -438.5 238.5 -392.0 229.5 -331.0 258.5 -410.5 275.5 -493.5 L387.0 -481.5 Q384.0 -466.0 381.0 -451.0 378.0 -436.5 375.0 -422.0 391.5 -423.5 409.0 -424.0 426.5 -425.0 443.5 -425.0 477.0 -425.0 511.5 -422.0 545.5 -419.0 579.5 -412.5 L579.5 -353.5 Q562.0 -356.5 544.5 -358.5 527.0 -361.0 510.0 -362.5 500.0 -324.0 489.0 -286.5 478.0 -248.5 466.0 -211.0 490.5 -209.5 515.0 -206.5 539.5 -204.0 563.0 -200.5 L563.0 -141.5 Q518.5 -147.5 477.0 -150.5 492.5 -118.5 511.0 -84.5 530.0 -50.5 553.0 -14.5 567.0 -90.5 578.5 -176.5 590.0 -262.0 599.0 -357.5 L711.5 -345.0 Q707.0 -301.5 702.5 -260.0 698.0 -218.5 693.0 -180.0 699.5 -175.5 706.0 -171.0 713.0 -166.5 720.0 -163.0 L720.0 -468.0 Q687.5 -459.5 655.5 -449.0 623.5 -438.0 592.0 -425.0 L592.0 -485.5 Q615.0 -496.0 639.0 -504.5 663.0 -513.0 689.0 -519.0 670.5 -534.5 653.0 -550.0 635.5 -565.5 619.5 -581.5 L707.5 -681.0 Q719.0 -668.0 731.5 -655.0 744.0 -642.0 758.0 -630.0 776.0 -652.0 795.0 -676.5 813.5 -701.0 833.5 -728.0 839.0 -736.5 842.5 -742.5 846.5 -749.0 848.0 -752.5 848.0 -756.5 838.5 -758.5 829.5 -761.0 811.0 -761.0 788.0 -758.0 733.0 -745.0 678.0 -732.5 592.0 -709.5 L592.0 -769.0 Q802.5 -821.0 883.5 -821.0 L898.0 -821.0 Q939.0 -821.0 959.5 -808.0 980.0 -795.0 980.0 -769.0 980.0 -760.5 972.5 -743.0 964.5 -725.5 949.0 -699.5 925.5 -658.0 901.5 -620.0 878.0 -582.5 854.0 -548.0 855.5 -546.5 856.5 -545.5 857.5 -544.5 859.0 -543.5 865.0 -544.0 871.0 -544.5 876.5 -544.5 881.5 -545.0 L896.0 -545.0 Q941.5 -545.0 964.0 -528.0 987.0 -511.0 987.0 -477.0 987.0 -472.0 985.0 -459.5 983.0 -447.0 979.0 -427.0 966.5 -371.5 951.5 -313.5 L848.0 -349.0 Q854.0 -373.5 860.0 -399.0 866.5 -424.5 872.5 -451.5 875.5 -467.0 875.5 -473.0 875.5 -477.5 866.5 -480.5 857.5 -483.0 839.5 -484.5 L839.5 -279.5 Q848.0 -280.5 856.5 -281.0 865.0 -281.5 873.5 -281.5 896.5 -281.5 920.0 -278.5 944.0 -275.5 967.5 -269.5 L967.5 -209.0 Q944.0 -215.0 920.0 -218.0 896.5 -221.0 873.5 -221.0 864.5 -221.0 856.0 -220.5 847.5 -220.0 839.5 -219.0 L839.5 -92.0 Q872.5 -74.5 910.5 -57.5 948.5 -41.0 991.0 -25.5 L939.0 95.0 Q885.0 73.0 837.0 50.0 789.0 27.0 746.5 4.0 726.5 -6.5 708.0 -17.5 689.5 -28.5 673.0 -40.0 666.5 -4.5 660.0 29.0 653.5 63.0 647.0 95.0 L535.5 75.0 Q540.0 51.5 545.0 28.5 L464.0 70.5 Q447.5 44.0 432.5 16.5 417.5 -10.5 403.5 -39.0 390.5 -6.0 376.5 28.0 362.5 61.5 347.0 95.0 L223.0 62.5 Q250.0 9.0 274.0 -44.5 297.5 -98.0 318.5 -151.5 292.5 -150.0 266.5 -147.0 240.5 -144.5 215.0 -141.5 L215.0 -200.5 Q246.5 -205.0 278.0 -208.0 309.5 -210.5 341.0 -212.0 354.0 -250.5 365.5 -288.0 377.0 -326.0 387.0 -363.5 379.5 -363.0 372.0 -362.0 364.5 -361.0 358.5 -360.5 350.0 -329.5 340.0 -299.0 330.5 -268.5 319.5 -237.5 L218.0 -262.0 Q205.0 -177.5 190.5 -93.5 176.0 -9.0 159.5 75.0 L36.0 30.5 Q63.0 -84.5 82.5 -179.0 102.5 -273.0 114.5 -346.0 124.5 -406.0 130.0 -448.0 135.0 -490.0 135.0 -513.0 135.0 -530.0 130.0 -549.5 125.0 -569.0 115.5 -592.0 92.5 -641.0 36.0 -721.0 L143.5 -785.5" fill-rule="evenodd" stroke="none"/>
    </g>
    <g id="font_DFPOP3_Std_W12__9">
      <path d="M450.5 -327.5 Q449.0 -364.5 448.5 -402.0 447.5 -439.5 447.5 -477.0 447.5 -557.0 450.5 -637.0 444.5 -621.5 434.5 -603.0 425.0 -584.5 412.5 -562.0 399.0 -537.0 383.0 -511.5 367.0 -486.5 350.0 -462.0 373.5 -427.0 398.5 -393.5 423.5 -360.0 450.5 -327.5 M594.0 -608.5 Q622.5 -610.5 651.0 -612.0 679.0 -613.5 707.5 -613.5 729.0 -613.5 751.0 -612.5 773.0 -612.0 794.5 -610.5 792.5 -658.0 788.5 -689.0 785.0 -720.0 780.5 -735.0 777.0 -747.5 768.0 -754.0 759.0 -761.0 743.5 -761.0 728.0 -761.0 692.0 -752.5 655.5 -744.0 598.0 -727.0 596.5 -696.5 595.0 -667.0 594.0 -637.5 594.0 -608.5 M593.0 -407.5 Q621.5 -410.0 649.5 -411.5 678.0 -412.5 705.5 -412.5 728.0 -412.5 750.0 -412.0 772.0 -411.0 793.5 -409.5 794.5 -440.5 795.0 -468.5 795.5 -497.0 795.5 -523.5 L795.5 -550.0 Q773.5 -551.5 751.0 -552.0 729.0 -553.0 707.5 -553.0 678.5 -553.0 650.0 -551.5 621.5 -550.0 593.0 -548.0 592.0 -529.5 592.0 -511.5 592.0 -494.0 592.0 -477.0 592.0 -459.0 592.0 -441.5 592.0 -424.5 593.0 -407.5 M599.0 -215.0 Q634.5 -218.0 670.0 -219.5 706.0 -221.0 741.5 -221.0 752.0 -221.0 763.5 -220.5 774.5 -220.0 785.5 -220.0 787.0 -254.5 788.5 -287.0 790.0 -319.5 791.5 -350.0 747.0 -353.5 705.5 -353.5 676.5 -353.0 648.5 -352.0 621.0 -350.5 594.0 -348.0 594.0 -314.5 595.5 -281.0 596.5 -247.5 599.0 -215.0 M179.0 -840.5 L327.5 -840.5 327.5 -761.0 329.5 -761.0 Q381.0 -761.0 412.0 -746.5 443.0 -732.0 453.5 -703.5 455.0 -762.0 460.0 -817.0 L603.0 -817.0 Q602.5 -808.5 601.5 -801.0 601.0 -793.5 601.0 -786.5 659.5 -802.0 710.0 -810.5 761.0 -819.0 804.0 -821.0 L814.0 -821.0 Q861.5 -821.0 890.0 -804.5 918.5 -788.0 927.5 -755.5 935.5 -726.5 939.5 -668.5 943.0 -610.0 943.0 -523.5 943.0 -452.5 941.0 -375.0 938.5 -297.0 934.0 -211.0 939.5 -210.0 944.5 -209.5 950.0 -209.0 955.5 -209.0 L955.5 -149.5 Q931.0 -152.0 907.0 -154.0 883.0 -156.0 859.0 -157.5 853.0 -104.0 850.5 -70.0 848.0 -36.0 848.0 -21.5 848.0 18.5 888.0 18.5 918.5 18.5 967.5 3.0 L967.5 62.5 Q931.0 70.0 901.0 74.5 871.0 79.0 848.0 79.0 809.5 79.0 782.5 73.0 755.0 67.0 738.5 55.5 721.5 44.0 713.0 27.5 704.0 11.5 703.5 -9.0 703.5 -26.0 706.5 -64.0 710.0 -101.5 717.0 -161.0 705.5 -160.5 694.5 -160.5 684.0 -160.0 674.0 -159.5 644.0 -92.0 612.5 -30.5 581.0 31.0 548.0 87.0 L407.5 15.5 Q437.5 -23.0 463.5 -61.0 490.0 -99.0 513.0 -137.0 L460.0 -137.0 Q457.0 -172.5 455.0 -207.5 453.0 -242.0 451.5 -277.5 L363.5 -205.0 Q353.0 -218.5 343.0 -232.5 333.0 -246.0 323.5 -259.0 L323.5 95.0 171.0 95.0 171.0 -242.5 Q162.5 -233.5 155.0 -225.0 147.0 -216.5 139.5 -209.0 L23.5 -328.5 Q98.0 -400.0 159.0 -472.5 219.5 -545.0 267.5 -618.5 289.0 -651.5 300.0 -671.5 311.0 -691.0 311.5 -697.5 311.5 -699.0 302.0 -700.0 293.0 -701.5 275.5 -701.5 261.0 -701.5 204.0 -677.0 147.0 -653.0 47.0 -605.0 L47.0 -665.5 Q85.5 -683.5 118.5 -697.5 151.5 -712.0 179.0 -723.0 L179.0 -840.5" fill-rule="evenodd" stroke="none"/>
    </g>
    <g id="font_DFPOP3_Std_W12__10">
      <path d="M614.5 -391.0 Q614.5 -361.0 601.5 -334.5 589.0 -307.5 564.0 -284.5 541.0 -263.0 514.5 -249.5 487.5 -236.0 456.5 -231.5 L423.0 -265.0 Q450.5 -280.5 468.5 -296.0 487.0 -311.5 494.5 -327.5 451.5 -332.5 430.5 -354.5 409.5 -376.5 409.5 -415.5 409.5 -436.0 416.0 -452.5 422.5 -469.0 436.0 -481.5 462.5 -506.0 504.0 -506.0 527.5 -506.0 547.5 -497.5 567.5 -489.0 583.5 -473.0 599.0 -456.5 606.5 -436.0 614.5 -415.5 614.5 -391.0" fill-rule="evenodd" stroke="none"/>
    </g>
    <g id="font_DFPOP3_Std_W12__11">
      <path d="M186.5 -19.5 Q197.0 -20.5 208.0 -21.0 218.5 -21.5 229.5 -21.5 235.5 -107.5 235.5 -169.0 235.5 -184.5 226.5 -192.5 217.5 -200.5 199.5 -200.5 196.5 -200.5 193.5 -200.0 190.5 -199.5 187.5 -198.5 185.0 -174.0 184.0 -149.5 183.5 -125.0 183.5 -101.5 183.5 -80.0 184.0 -59.5 185.0 -39.5 186.5 -19.5 M76.0 -273.5 L195.5 -273.5 Q195.0 -269.0 194.0 -264.5 193.5 -260.0 193.5 -256.0 206.0 -258.5 216.0 -259.5 226.0 -261.0 233.5 -261.0 L239.5 -261.0 Q272.0 -261.0 295.5 -255.0 319.0 -249.0 333.0 -237.5 346.0 -225.5 352.5 -209.0 359.5 -193.0 359.5 -173.0 359.5 -137.5 358.0 -97.5 356.5 -57.0 353.5 -12.5 362.5 -9.0 371.5 -9.0 L371.5 51.0 Q304.0 39.0 239.5 39.0 227.5 39.0 215.0 39.0 203.0 39.5 191.5 41.0 192.0 48.5 193.0 56.0 194.0 63.5 195.5 70.5 L76.0 70.5 Q63.5 -15.5 63.5 -101.5 63.5 -187.5 76.0 -273.5 M215.0 -421.0 Q249.0 -421.0 283.0 -418.0 317.5 -415.0 351.0 -409.5 L351.0 -349.0 Q317.5 -355.5 283.0 -358.5 249.0 -361.5 215.0 -361.5 147.5 -361.5 80.0 -349.0 L80.0 -409.5 Q113.5 -415.0 147.5 -418.0 181.0 -421.0 215.0 -421.0 M215.0 -581.5 Q249.0 -581.5 283.0 -578.5 317.5 -575.5 351.0 -569.5 L351.0 -509.0 Q317.5 -515.0 283.0 -518.0 249.0 -521.0 215.0 -521.0 147.5 -521.0 80.0 -509.0 L80.0 -569.5 Q147.5 -581.5 215.0 -581.5 M155.5 -833.5 L283.5 -833.5 283.5 -742.5 Q305.0 -741.0 326.0 -738.5 347.0 -736.5 367.5 -733.0 L367.5 -673.0 Q328.5 -679.0 289.5 -682.0 250.5 -685.0 212.0 -685.0 132.0 -685.0 55.5 -673.0 L55.5 -733.0 Q80.5 -737.0 106.0 -739.5 131.0 -742.0 155.5 -743.5 L155.5 -833.5 M735.0 -320.5 L735.0 -376.0 Q721.5 -376.0 708.0 -376.5 695.0 -377.0 682.0 -377.0 665.0 -377.0 649.5 -376.5 634.0 -376.0 619.5 -376.0 L619.5 -320.5 Q635.0 -320.5 651.0 -321.0 666.5 -321.5 682.0 -321.5 695.0 -321.5 708.0 -321.0 721.5 -320.5 735.0 -320.5 M852.0 -561.0 Q855.0 -587.5 855.0 -601.0 855.0 -608.5 846.0 -612.5 837.0 -616.5 819.0 -617.5 811.5 -616.5 804.0 -615.5 796.0 -614.0 788.5 -612.5 787.5 -603.0 787.5 -594.5 787.5 -586.0 787.5 -577.5 787.5 -571.5 787.5 -566.0 787.5 -560.5 788.5 -556.0 804.5 -558.5 820.5 -559.5 836.5 -561.0 852.0 -561.0 M619.5 -204.0 Q635.0 -204.0 651.0 -204.5 666.5 -204.5 682.0 -205.0 L735.0 -205.0 735.0 -260.0 Q721.5 -260.0 708.0 -260.5 694.5 -261.0 682.0 -261.0 665.0 -261.0 649.5 -260.5 634.0 -260.0 619.5 -260.0 L619.5 -204.0 M785.5 -144.5 Q813.0 -116.5 840.5 -92.0 842.0 -101.5 845.5 -109.5 848.5 -117.5 854.0 -125.0 859.5 -129.5 865.5 -133.5 871.5 -137.0 877.5 -140.5 854.0 -141.0 830.5 -142.0 807.5 -143.0 785.5 -144.5 M691.0 -685.0 L795.5 -685.0 Q795.0 -681.0 794.0 -677.5 793.5 -673.5 793.5 -669.5 814.5 -673.0 835.0 -675.0 855.5 -677.0 875.5 -677.0 923.0 -677.0 947.5 -660.0 971.5 -643.0 972.0 -609.5 971.5 -601.0 970.5 -586.0 969.0 -571.5 966.5 -550.0 968.0 -549.0 969.0 -549.0 970.5 -549.0 972.0 -549.0 L972.0 -489.5 Q942.5 -495.0 914.0 -498.0 885.5 -500.5 857.0 -500.5 840.0 -500.5 824.0 -499.5 808.0 -498.0 792.5 -496.5 792.5 -490.5 793.0 -486.0 794.0 -481.0 794.5 -477.0 L859.0 -477.0 859.0 -432.0 Q882.0 -430.5 905.0 -428.5 928.5 -426.5 951.5 -425.0 L951.5 -365.5 Q903.5 -368.5 859.0 -371.5 L859.0 -315.5 Q897.5 -312.5 936.0 -309.0 L936.0 -249.0 Q896.0 -252.0 859.0 -255.0 L859.0 -200.5 Q888.5 -199.0 917.5 -197.0 946.5 -195.0 976.0 -193.5 L976.0 -133.0 Q968.0 -133.0 961.5 -134.0 954.5 -134.5 948.0 -135.0 951.5 -133.5 953.5 -132.0 956.0 -130.5 958.5 -129.0 980.0 -109.0 980.0 -77.0 980.0 -61.5 973.5 -48.5 966.5 -35.5 954.5 -24.5 949.0 -20.0 944.5 -17.0 939.5 -13.5 935.0 -11.5 942.5 -4.5 951.0 2.0 959.0 8.5 967.5 15.5 L863.0 102.5 Q805.5 45.5 755.0 -11.5 704.5 -68.5 660.5 -127.0 651.5 -78.0 647.0 -46.5 643.0 -15.0 643.0 -1.0 643.0 16.5 650.0 25.5 657.0 35.0 671.5 35.0 690.0 35.0 714.0 29.5 738.0 24.5 768.0 15.5 L768.0 75.0 Q729.0 85.0 696.5 90.0 664.5 95.0 640.0 95.0 608.0 95.0 585.0 89.5 562.5 83.5 549.0 72.5 535.0 61.0 527.5 46.0 520.0 30.5 519.0 11.5 519.0 6.5 519.5 0.5 519.5 -5.5 520.0 -13.5 502.0 14.5 483.5 39.0 L367.5 -33.0 Q398.5 -60.5 426.0 -87.0 453.5 -114.0 477.0 -139.5 454.0 -137.5 431.5 -136.0 408.5 -134.5 387.0 -133.0 L387.0 -193.5 Q414.5 -195.0 441.5 -196.5 469.0 -198.0 495.5 -199.5 L495.5 -255.0 Q478.0 -253.5 461.0 -252.0 444.0 -250.5 427.0 -249.0 L427.0 -309.0 Q444.0 -311.0 461.5 -312.5 478.5 -314.0 495.5 -315.5 L495.5 -371.5 Q474.0 -370.0 453.0 -368.5 431.5 -367.0 411.5 -365.5 L411.5 -425.0 Q432.5 -426.5 453.0 -428.0 474.0 -429.5 495.5 -431.0 L495.5 -477.0 619.5 -477.0 619.5 -436.0 Q635.0 -436.5 651.0 -436.5 666.5 -437.0 682.0 -437.0 696.0 -437.0 709.0 -436.5 722.0 -436.5 735.0 -436.0 L735.0 -469.0 691.0 -469.0 Q686.5 -496.0 685.0 -523.0 683.0 -550.0 683.0 -577.5 683.0 -603.5 685.0 -630.5 686.5 -657.5 691.0 -685.0 M547.0 -561.0 Q547.0 -571.0 547.5 -579.0 548.0 -587.0 548.0 -593.0 548.0 -600.5 539.0 -604.5 529.5 -608.5 512.0 -609.5 503.5 -608.5 494.5 -607.0 485.5 -605.5 476.0 -603.0 475.5 -594.5 475.5 -587.0 475.0 -579.5 475.0 -573.5 475.0 -568.0 475.5 -563.5 475.5 -559.0 476.0 -555.0 513.0 -561.0 547.0 -561.0 M380.0 -677.0 L483.5 -677.0 Q482.5 -672.5 482.0 -668.5 481.5 -664.5 481.5 -660.5 503.5 -664.5 525.0 -666.5 546.5 -668.5 567.5 -668.5 615.0 -668.5 639.0 -652.0 663.5 -635.0 663.5 -601.0 663.5 -593.5 663.0 -581.0 662.5 -568.5 661.5 -550.0 663.0 -550.0 664.5 -549.5 666.0 -549.0 667.5 -549.0 L667.5 -489.5 Q638.5 -495.0 610.0 -498.0 581.5 -500.5 554.0 -500.5 535.0 -500.5 516.5 -499.5 498.0 -498.0 480.5 -495.5 480.5 -488.5 481.0 -482.0 482.0 -475.0 483.5 -469.0 L380.0 -469.0 Q375.5 -495.0 373.5 -521.0 371.5 -547.5 371.5 -573.5 371.5 -599.0 373.5 -625.0 375.5 -650.5 380.0 -677.0 M599.0 -833.5 L760.0 -833.5 760.0 -776.0 Q812.0 -774.5 863.5 -772.0 915.5 -769.5 967.5 -765.0 L967.5 -705.5 Q896.0 -711.0 825.0 -714.0 753.5 -717.0 683.0 -717.0 612.5 -717.0 541.0 -714.0 470.0 -711.0 399.5 -705.5 L399.5 -765.0 Q449.5 -769.0 499.0 -771.5 549.0 -774.5 599.0 -776.0 L599.0 -833.5" fill-rule="evenodd" stroke="none"/>
    </g>
    <g id="font_DFPOP3_Std_W12__12">
      <path d="M606.0 -550.0 Q603.0 -471.5 603.0 -405.5 632.5 -407.0 661.5 -408.5 690.5 -409.5 720.0 -409.5 732.0 -409.5 744.0 -409.0 756.0 -408.5 768.0 -408.5 772.0 -447.0 775.0 -482.5 777.5 -517.5 779.5 -550.0 757.0 -551.5 735.0 -552.0 712.5 -553.0 691.0 -553.0 669.0 -553.0 647.5 -552.0 626.0 -551.5 606.0 -550.0 M610.5 -747.5 Q609.0 -710.5 608.0 -676.0 607.0 -642.0 607.0 -610.5 628.5 -612.0 649.5 -612.5 670.5 -613.5 691.0 -613.5 714.5 -613.5 737.0 -612.5 760.0 -612.0 782.5 -610.5 782.5 -624.0 783.0 -638.0 783.5 -652.0 783.5 -665.5 783.5 -711.0 756.5 -734.0 729.5 -756.5 676.0 -756.5 660.5 -755.0 644.0 -753.0 628.0 -750.5 610.5 -747.5 M724.0 -817.0 Q779.0 -817.0 818.5 -807.0 858.0 -797.0 881.5 -777.0 904.5 -757.5 916.0 -730.0 927.5 -703.0 927.5 -668.5 927.5 -609.5 923.5 -542.0 919.0 -474.5 910.5 -399.5 915.5 -398.5 921.0 -398.0 926.5 -397.5 932.0 -397.5 L932.0 -337.0 Q887.5 -341.5 844.0 -344.5 800.5 -347.5 758.0 -348.0 771.5 -320.5 787.0 -291.5 802.5 -262.5 819.0 -233.5 820.5 -242.5 824.5 -250.5 828.5 -258.5 834.5 -266.0 848.5 -279.5 866.0 -286.0 883.0 -293.0 903.0 -293.0 920.0 -293.0 935.5 -287.5 951.0 -282.5 964.5 -272.5 977.5 -259.5 984.5 -242.5 991.0 -225.5 991.0 -205.0 991.0 -166.5 960.5 -140.5 946.5 -128.0 932.0 -122.5 918.0 -116.5 903.0 -116.5 898.5 -116.5 894.0 -117.0 889.5 -117.5 886.0 -119.0 907.5 -82.0 931.0 -45.0 954.5 -7.5 980.0 30.5 L848.0 99.5 Q783.5 -6.0 725.0 -117.0 666.5 -228.5 613.5 -346.0 610.5 -345.5 607.5 -345.0 604.5 -345.0 602.0 -345.0 599.0 -211.5 597.5 -139.5 596.0 -67.5 596.0 -57.5 596.0 -36.5 599.5 -23.0 602.5 -9.0 610.5 -3.0 618.0 4.5 629.0 9.0 640.0 14.0 655.5 15.5 675.5 15.5 706.5 10.0 737.5 5.0 779.5 -5.0 L775.0 62.5 Q723.0 70.0 681.0 74.5 639.5 79.0 607.0 79.0 L577.5 79.0 Q546.0 79.0 521.0 67.5 495.5 56.0 477.0 33.0 462.0 16.5 454.5 -6.5 447.5 -30.0 447.5 -61.5 447.5 -101.5 451.5 -291.0 455.5 -481.0 464.0 -821.0 L611.5 -821.0 611.5 -804.0 Q643.5 -810.0 669.0 -813.5 694.5 -817.0 712.5 -817.0 L724.0 -817.0 M182.5 -542.5 Q195.5 -543.5 208.5 -544.0 221.5 -544.5 235.5 -545.0 241.5 -544.5 248.5 -544.5 255.0 -544.0 262.0 -543.5 260.5 -603.5 257.5 -643.5 254.5 -683.0 250.0 -701.5 247.0 -717.0 238.0 -725.0 229.5 -733.0 215.0 -733.0 207.5 -733.0 190.5 -724.0 187.5 -678.0 185.0 -632.5 183.0 -587.5 182.5 -542.5 M180.0 -306.0 Q193.0 -307.5 206.5 -308.5 219.5 -309.0 233.5 -309.0 240.5 -309.0 247.5 -308.5 254.5 -308.5 262.0 -308.0 262.0 -343.0 262.5 -375.0 263.0 -407.0 263.0 -436.0 L263.0 -484.5 Q255.5 -484.5 248.5 -485.0 241.5 -485.5 235.5 -485.5 206.5 -485.5 180.0 -482.5 179.5 -454.5 179.5 -428.0 179.0 -401.0 179.0 -375.0 179.0 -357.0 179.5 -340.0 179.5 -323.0 180.0 -306.0 M189.5 -54.5 Q205.5 -56.0 221.5 -56.5 237.5 -57.5 253.0 -57.5 255.0 -108.0 257.0 -155.5 258.5 -203.5 260.0 -248.0 252.5 -248.0 246.0 -248.5 239.5 -249.0 233.5 -249.0 219.5 -249.0 206.5 -248.0 193.5 -247.5 181.0 -247.0 182.0 -197.5 184.0 -150.0 186.5 -102.0 189.5 -54.5 M55.5 -801.0 L195.5 -801.0 Q195.0 -794.5 194.5 -789.0 194.5 -784.0 194.5 -779.5 210.0 -785.5 224.5 -788.5 239.0 -792.0 252.0 -793.5 L263.0 -793.5 Q314.5 -793.5 345.5 -774.0 376.0 -754.0 386.0 -715.0 394.5 -679.5 399.0 -609.5 403.5 -540.0 403.5 -436.0 403.5 -350.0 400.5 -253.5 397.5 -156.5 392.0 -49.0 400.5 -47.5 408.5 -46.5 416.5 -46.0 424.0 -45.0 L424.0 15.5 Q344.0 3.0 267.5 3.0 248.0 3.0 229.5 4.0 211.0 4.5 192.5 6.0 192.5 17.0 193.5 28.5 194.0 39.5 195.5 51.0 L55.5 51.0 Q47.5 -55.0 44.0 -161.5 40.0 -268.0 40.0 -375.0 40.0 -481.0 44.0 -587.5 47.5 -694.0 55.5 -801.0" fill-rule="evenodd" stroke="none"/>
    </g>
    <g id="font_DFPOP3_Std_W12__13">
      <path d="M587.0 -244.5 Q616.0 -246.5 646.0 -247.5 675.5 -249.0 705.5 -249.0 730.0 -249.0 754.5 -248.0 779.5 -247.5 804.0 -247.0 800.0 -271.5 793.0 -286.5 786.5 -302.0 777.0 -308.0 763.5 -316.5 749.0 -321.0 734.5 -325.5 720.0 -325.5 690.5 -325.0 658.5 -321.0 626.0 -317.0 591.0 -309.0 589.0 -292.5 588.0 -276.0 587.0 -260.0 587.0 -244.5 M583.5 -121.0 Q613.0 -122.5 641.5 -123.5 670.5 -125.0 699.5 -125.0 726.0 -125.0 753.5 -124.0 780.5 -123.5 808.0 -122.0 808.0 -135.5 808.0 -151.0 808.0 -166.0 808.0 -182.5 L808.0 -186.5 Q782.0 -188.0 756.5 -188.5 731.0 -189.5 705.5 -189.5 675.0 -189.5 644.5 -188.0 614.0 -187.0 584.5 -185.5 584.0 -176.0 584.0 -167.0 583.5 -158.0 583.5 -149.5 583.5 -142.0 583.5 -135.0 583.5 -127.5 583.5 -121.0 M451.5 -393.0 L599.0 -393.0 Q597.5 -385.5 596.5 -379.0 596.0 -372.5 596.0 -366.5 644.5 -375.0 690.5 -379.5 736.0 -384.5 779.5 -385.0 L802.0 -385.0 Q843.0 -385.0 872.0 -378.0 900.5 -371.0 916.5 -357.5 959.5 -320.5 959.5 -182.5 959.5 -126.0 957.5 -78.5 955.0 -31.0 951.5 8.0 948.0 30.5 940.5 47.0 933.0 64.0 920.5 75.0 908.0 83.0 888.0 88.5 867.5 93.5 839.5 95.0 L819.0 95.0 Q791.5 95.0 757.0 93.0 722.0 91.0 680.0 87.0 L680.0 26.5 Q707.0 30.5 730.5 32.5 754.5 35.0 775.0 35.0 801.5 35.0 803.0 4.0 803.5 -10.0 804.5 -26.5 805.0 -43.0 806.0 -62.5 779.0 -64.0 752.5 -65.0 725.5 -65.5 699.5 -65.5 670.0 -65.5 642.0 -64.5 613.5 -63.0 585.5 -61.5 587.5 -21.5 591.0 17.5 594.5 56.0 599.0 95.0 L451.5 95.0 Q443.0 34.0 439.0 -27.0 435.0 -88.0 435.0 -149.5 435.0 -210.0 439.0 -271.0 443.0 -332.0 451.5 -393.0 M611.5 -768.0 L611.5 -833.5 764.0 -833.5 764.0 -768.0 Q814.5 -766.5 866.0 -764.0 917.0 -761.5 967.5 -756.5 L967.5 -697.5 Q916.5 -702.0 865.5 -704.5 814.5 -707.0 764.0 -708.5 L764.0 -632.0 Q811.0 -630.5 857.5 -628.0 904.5 -625.5 951.5 -621.5 L951.5 -561.0 Q903.5 -565.5 857.0 -568.5 810.0 -571.0 764.0 -572.5 L764.0 -495.5 Q816.0 -494.0 868.0 -491.5 919.5 -489.0 972.0 -485.5 L972.0 -425.0 Q836.5 -437.0 701.5 -437.0 566.5 -437.0 431.0 -425.0 L431.0 -485.5 Q476.5 -488.5 521.5 -491.5 567.0 -494.0 611.5 -495.5 L611.5 -571.5 Q570.5 -570.0 530.5 -567.5 491.0 -565.0 451.5 -561.0 L451.5 -621.5 Q531.5 -627.5 611.5 -631.0 L611.5 -708.5 Q565.5 -707.0 520.5 -704.0 475.5 -701.0 431.0 -697.5 L431.0 -756.5 Q475.5 -760.5 521.0 -763.5 566.0 -766.5 611.5 -768.0 M185.5 -538.5 Q199.0 -539.5 212.5 -540.0 226.0 -540.5 239.5 -540.5 247.5 -540.5 255.0 -540.0 262.5 -539.5 270.5 -539.5 268.0 -598.0 263.5 -636.5 259.0 -675.0 253.0 -693.0 249.0 -708.5 237.5 -717.0 226.5 -725.0 208.0 -725.0 201.5 -725.0 192.5 -719.0 189.5 -672.5 188.0 -627.5 186.0 -582.5 185.5 -538.5 M183.5 -310.5 Q197.0 -312.0 211.5 -312.5 225.5 -313.5 239.5 -313.5 247.0 -313.5 254.5 -313.0 261.5 -312.5 269.5 -312.5 270.0 -344.5 270.5 -374.5 271.5 -404.5 271.5 -432.0 L271.5 -480.5 Q263.0 -480.5 255.0 -481.0 247.5 -481.0 239.5 -481.5 210.5 -481.5 184.5 -478.0 183.5 -450.0 183.5 -422.5 183.5 -395.0 183.5 -368.5 L183.5 -310.5 M190.5 -61.5 Q207.5 -63.0 224.5 -64.0 241.0 -65.0 258.0 -65.5 261.0 -115.5 263.5 -162.0 265.5 -209.0 267.5 -252.0 259.5 -252.0 252.5 -252.5 246.0 -253.0 239.5 -253.0 210.5 -253.0 184.5 -250.0 185.0 -202.5 186.5 -155.5 188.0 -108.5 190.5 -61.5 M67.5 -785.5 L195.5 -785.5 Q195.5 -781.5 195.0 -778.0 194.5 -774.0 194.5 -771.0 207.5 -776.5 220.0 -780.0 232.0 -784.0 243.5 -785.5 L256.0 -785.5 Q310.0 -785.5 342.5 -766.0 375.0 -747.0 386.0 -708.5 394.5 -673.5 399.0 -604.0 403.5 -535.0 403.5 -432.0 403.5 -348.5 399.5 -254.5 396.0 -161.0 389.0 -57.5 397.0 -56.0 404.5 -55.0 412.0 -54.0 420.0 -53.0 L420.0 7.0 Q382.0 1.0 345.0 -2.0 308.0 -5.0 271.5 -5.0 251.5 -5.0 232.0 -4.5 212.5 -3.5 193.5 -2.0 193.5 10.0 194.0 22.5 195.0 35.0 195.5 47.0 L67.5 47.0 Q61.5 -56.5 58.5 -160.5 55.5 -264.0 55.5 -368.5 55.5 -473.0 58.5 -577.0 61.5 -681.0 67.5 -785.5" fill-rule="evenodd" stroke="none"/>
    </g>
    <g id="font_DFPOP3_Std_W12__14">
      <path d="M673.0 -657.5 Q675.0 -595.0 689.5 -533.5 704.5 -472.0 731.0 -410.5 732.5 -406.0 735.0 -401.5 737.0 -397.0 739.5 -393.0 742.5 -400.0 745.0 -407.0 747.5 -413.5 750.5 -420.0 776.5 -481.0 793.0 -541.5 809.5 -601.5 817.0 -660.5 807.0 -660.5 798.0 -661.0 788.5 -661.5 779.5 -661.5 752.5 -661.5 725.5 -660.0 699.0 -659.0 673.0 -657.5 M204.0 -825.5 L347.0 -825.5 347.0 -711.5 Q384.0 -710.0 421.5 -707.5 458.5 -704.5 495.5 -701.5 L495.5 -641.0 Q391.0 -652.0 290.0 -653.5 286.0 -624.0 282.0 -595.0 278.5 -566.0 274.5 -537.5 282.0 -538.5 289.5 -539.0 297.0 -540.0 303.0 -540.5 L312.5 -540.5 Q338.5 -540.5 358.0 -539.0 377.0 -537.5 390.0 -534.5 406.5 -528.5 418.5 -517.0 430.5 -505.5 438.5 -488.5 440.0 -486.0 441.5 -482.0 443.0 -478.0 444.5 -472.0 483.0 -561.0 512.5 -651.5 542.0 -742.0 563.0 -833.5 L699.5 -817.0 Q693.0 -792.0 686.5 -767.0 679.5 -742.5 671.5 -718.0 725.5 -721.0 779.5 -721.0 828.5 -721.0 877.5 -718.0 926.5 -715.0 976.0 -709.5 L976.0 -649.0 Q969.0 -650.0 962.0 -651.0 955.5 -651.5 949.0 -652.5 942.5 -584.5 926.0 -517.0 910.0 -449.5 883.5 -382.0 870.0 -347.5 853.0 -311.5 836.5 -275.0 818.0 -237.5 853.5 -176.0 896.5 -112.5 940.0 -48.5 991.0 18.5 L863.0 95.0 Q828.0 44.5 797.0 -2.0 766.5 -49.0 740.5 -93.0 714.0 -48.0 685.0 -1.0 656.0 46.0 623.5 95.0 L495.5 22.5 Q544.0 -45.0 585.5 -110.0 627.0 -175.0 661.5 -236.5 641.5 -275.5 625.5 -312.5 609.5 -349.5 598.0 -384.0 591.0 -402.5 585.5 -420.0 580.0 -438.0 575.5 -454.5 567.5 -436.5 559.5 -419.0 551.5 -402.0 543.5 -385.0 L451.5 -408.5 Q453.0 -381.5 454.0 -347.5 455.0 -313.0 455.5 -271.5 455.5 -203.5 453.5 -141.0 451.5 -78.5 448.5 -21.5 447.0 11.0 440.5 32.0 434.0 53.0 422.0 62.5 394.0 87.0 336.0 87.0 303.5 87.0 272.5 84.0 241.0 81.0 212.0 75.0 L212.0 15.5 Q232.5 21.0 248.5 23.5 264.5 26.5 275.5 26.5 289.5 26.5 300.0 17.5 304.5 13.5 307.0 6.5 309.5 -0.5 310.5 -11.5 312.0 -72.5 313.0 -137.5 314.5 -202.5 315.5 -271.5 314.0 -314.5 313.0 -350.5 312.0 -387.0 311.5 -418.0 310.5 -438.0 306.0 -450.0 301.5 -462.0 294.0 -466.0 289.0 -468.0 281.5 -470.0 274.0 -471.5 264.0 -473.0 243.5 -334.0 217.5 -194.0 191.0 -54.0 159.5 87.0 L23.5 51.0 Q102.0 -296.0 143.5 -649.0 119.5 -647.5 96.5 -645.5 73.5 -643.5 51.0 -641.0 L51.0 -701.5 Q89.5 -705.0 127.5 -707.5 165.5 -710.0 204.0 -711.5 L204.0 -825.5" fill-rule="evenodd" stroke="none"/>
    </g>
    <g id="font_DFPOP3_Std_W12__15">
      <path d="M311.5 -552.0 L311.5 -436.0 Q320.5 -435.5 329.0 -435.0 337.5 -434.0 346.0 -434.0 346.0 -454.0 346.5 -472.5 347.0 -491.5 347.0 -509.0 347.0 -527.5 338.0 -538.0 329.0 -549.0 311.5 -552.0 M165.0 -432.0 Q173.5 -433.0 182.0 -433.5 190.5 -434.5 199.5 -435.0 L199.5 -542.5 Q192.0 -541.0 184.5 -540.0 176.5 -539.0 169.0 -537.5 166.5 -510.0 166.0 -483.5 165.0 -457.5 165.0 -432.0 M311.5 -376.0 L311.5 -249.0 Q319.0 -249.0 326.5 -248.5 334.5 -248.0 342.0 -248.0 343.5 -317.0 345.0 -374.0 336.0 -374.0 327.5 -374.5 319.0 -375.0 311.5 -376.0 M168.0 -243.5 Q175.5 -243.5 184.0 -244.5 192.0 -245.0 199.5 -246.0 L199.5 -375.0 Q190.5 -374.0 181.5 -373.0 172.5 -372.5 164.0 -371.5 164.0 -339.5 165.0 -307.5 166.5 -275.0 168.0 -243.5 M199.5 -751.5 L199.5 -837.5 311.5 -837.5 311.5 -751.5 Q354.5 -751.0 397.5 -748.5 440.5 -746.0 483.5 -741.5 L483.5 -681.0 Q440.5 -685.5 397.5 -688.0 354.5 -691.0 311.5 -692.0 L311.5 -613.5 Q317.5 -613.5 323.5 -613.5 L336.0 -613.5 Q372.5 -613.5 399.0 -606.5 425.0 -599.5 441.5 -585.5 456.0 -572.5 463.5 -554.5 471.0 -536.0 471.0 -513.0 471.0 -453.0 469.5 -384.5 468.0 -315.5 465.0 -238.5 469.0 -238.5 472.5 -238.0 476.0 -237.5 479.0 -237.5 L479.0 -177.0 Q437.0 -182.5 395.0 -185.5 353.0 -188.5 311.5 -189.5 L311.5 -108.5 Q356.0 -107.5 401.0 -105.0 446.0 -102.0 491.5 -97.5 L491.5 -37.0 Q445.5 -41.5 400.5 -44.5 356.0 -47.5 311.5 -48.0 L311.5 87.0 199.5 87.0 199.5 -48.0 Q159.0 -46.5 119.0 -43.5 79.0 -40.5 40.0 -37.0 L40.0 -97.5 Q80.0 -102.0 120.0 -104.5 159.5 -107.0 199.5 -108.5 L199.5 -186.5 Q192.0 -185.5 185.0 -185.0 178.0 -184.5 172.0 -184.5 173.0 -173.5 173.5 -164.0 174.5 -154.5 175.0 -145.5 L55.5 -145.5 Q43.0 -265.0 43.0 -385.0 43.0 -505.0 55.5 -624.5 L175.0 -624.5 Q174.5 -617.0 173.5 -610.0 173.0 -603.0 173.0 -597.0 180.0 -597.5 187.0 -598.5 193.5 -599.5 199.5 -601.0 L199.5 -692.0 Q159.5 -690.5 120.5 -687.5 81.5 -685.0 43.0 -681.0 L43.0 -741.5 Q82.0 -745.0 121.5 -747.5 160.5 -750.0 199.5 -751.5 M745.5 -269.5 Q798.0 -269.5 850.5 -266.0 903.0 -263.0 955.5 -257.0 L955.5 -197.5 Q918.0 -201.5 881.0 -204.0 844.0 -206.5 808.0 -208.0 L808.0 -8.0 Q851.5 -6.5 895.5 -4.0 939.5 -1.5 983.0 3.0 L983.0 62.5 Q921.5 56.5 860.0 54.0 798.5 51.0 737.5 51.0 676.0 51.0 614.5 54.0 553.0 56.5 491.5 62.5 L491.5 3.0 Q535.5 -1.5 579.0 -4.0 623.0 -6.5 667.5 -8.0 L667.5 -207.0 Q600.0 -204.0 535.5 -197.5 L535.5 -257.0 Q587.5 -263.0 640.0 -266.0 692.5 -269.5 745.5 -269.5 M871.5 -689.0 L976.0 -621.5 Q959.0 -598.5 943.5 -576.5 928.5 -554.5 914.5 -534.5 910.5 -528.5 909.0 -521.5 907.0 -515.0 907.5 -509.0 907.5 -505.0 910.5 -498.5 913.5 -491.5 919.5 -482.5 933.5 -460.0 948.0 -435.5 963.0 -411.0 980.0 -385.0 L879.5 -313.5 Q856.5 -355.5 836.5 -392.5 816.5 -429.5 799.5 -462.0 791.5 -476.5 787.5 -488.0 783.5 -499.5 783.5 -509.0 783.5 -519.5 788.5 -534.0 794.0 -548.0 805.0 -566.5 815.5 -585.5 832.0 -616.0 848.5 -647.0 871.5 -689.0 M720.0 -689.0 L823.5 -621.5 Q805.5 -597.0 789.5 -573.5 773.5 -550.0 759.0 -528.5 755.0 -521.5 753.5 -514.5 751.5 -507.5 751.5 -500.5 751.5 -497.0 754.5 -490.5 758.0 -484.5 764.0 -475.0 777.5 -453.5 792.5 -430.5 807.0 -407.0 823.5 -381.0 L724.0 -309.0 Q701.0 -350.5 681.0 -387.0 661.0 -423.0 644.0 -454.5 635.5 -469.0 631.5 -481.0 627.5 -492.5 627.5 -500.5 627.5 -511.5 633.0 -526.5 638.5 -542.0 649.0 -561.0 660.0 -581.0 677.5 -613.0 695.5 -644.5 720.0 -689.0 M563.0 -697.5 L667.5 -628.5 Q651.5 -602.0 637.0 -576.5 622.5 -551.0 610.5 -527.5 606.5 -519.5 605.0 -512.0 603.0 -504.5 603.0 -496.5 603.0 -493.0 606.0 -486.0 609.5 -479.5 615.5 -470.0 628.0 -448.5 642.0 -424.0 656.5 -399.5 671.5 -372.5 L571.5 -301.0 Q550.0 -343.5 531.0 -381.0 512.0 -418.5 495.5 -450.5 487.0 -464.5 483.0 -476.0 479.0 -487.5 479.0 -496.5 479.0 -508.0 484.0 -524.5 489.0 -540.5 499.5 -561.0 509.5 -582.5 525.5 -616.5 541.5 -650.5 563.0 -697.5 M739.5 -801.0 Q800.0 -800.5 861.0 -798.0 921.5 -795.0 983.0 -789.5 L983.0 -729.0 Q921.5 -735.0 861.0 -738.5 800.0 -741.5 739.5 -741.5 678.0 -741.5 617.0 -738.5 556.5 -735.0 495.5 -729.0 L495.5 -789.5 Q556.5 -795.0 617.0 -798.0 678.0 -800.5 739.5 -801.0" fill-rule="evenodd" stroke="none"/>
    </g>
    <g id="font_DFPOP3_Std_W12__16">
      <path d="M915.5 -577.5 L955.5 -473.0 Q812.5 -418.0 599.0 -368.5 L571.5 -485.5 Q755.5 -519.0 915.5 -577.5 M892.0 -712.5 L932.0 -613.5 Q866.0 -588.0 783.5 -564.0 701.5 -540.0 603.0 -517.0 L579.5 -628.5 Q663.5 -645.0 741.5 -665.5 819.5 -686.5 892.0 -712.5 M867.5 -840.5 L907.5 -741.5 Q842.5 -720.0 761.5 -700.0 680.5 -680.0 583.5 -661.5 L559.0 -773.0 Q642.0 -785.5 719.0 -802.5 796.0 -819.0 867.5 -840.5 M615.5 -205.0 L755.5 -205.0 Q731.0 -165.5 711.5 -130.0 692.0 -94.5 678.0 -62.5 666.5 -36.5 661.0 -19.5 655.5 -3.0 655.5 3.0 655.5 7.0 656.5 9.0 657.0 11.0 659.5 11.5 678.0 11.0 701.5 8.5 725.0 5.5 753.5 0.0 729.0 -43.0 707.5 -89.0 L819.0 -137.0 Q840.0 -97.0 868.0 -52.0 896.5 -7.0 932.0 43.0 L815.0 102.5 Q806.5 90.0 799.0 77.0 791.0 64.5 783.5 51.0 736.5 60.5 696.5 65.5 656.5 70.5 623.5 70.5 L607.0 70.5 Q583.5 70.5 565.0 64.5 546.5 58.5 533.5 47.0 524.5 38.5 519.5 24.5 515.0 10.5 515.0 -9.0 515.0 -18.5 522.0 -37.0 529.0 -56.0 542.5 -85.0 556.0 -113.5 574.0 -143.5 592.5 -173.5 615.5 -205.0 M808.0 -377.0 Q818.0 -377.0 828.0 -372.0 838.0 -367.5 849.0 -358.5 861.0 -344.5 897.0 -298.0 933.0 -251.5 991.0 -173.0 L867.5 -97.5 Q832.0 -158.5 803.5 -205.0 774.5 -251.5 751.5 -283.5 746.0 -290.0 741.0 -293.5 736.0 -297.0 731.0 -297.0 725.0 -297.0 702.5 -288.0 680.0 -279.0 640.0 -261.0 L640.0 -313.5 Q707.0 -345.0 747.0 -361.0 786.5 -377.0 799.5 -377.0 L808.0 -377.0 M218.0 -137.0 L248.0 -171.0 248.0 -240.5 Q242.5 -240.5 238.0 -240.0 233.0 -239.5 229.5 -239.5 226.5 -212.0 223.5 -186.0 221.0 -160.5 218.0 -137.0 M248.0 -301.0 L248.0 -361.5 380.0 -361.5 380.0 -297.0 Q403.0 -295.5 425.5 -293.0 448.0 -291.0 471.0 -289.0 L471.0 -258.0 Q480.5 -279.5 488.5 -301.5 497.0 -323.5 504.0 -345.0 L632.0 -328.5 Q614.0 -274.0 589.0 -218.0 563.5 -162.5 531.5 -105.5 L407.5 -137.0 Q421.5 -160.5 434.0 -184.0 447.0 -207.5 457.5 -230.5 437.5 -232.0 418.0 -234.0 398.5 -236.0 380.0 -237.5 L380.0 -137.0 Q407.5 -123.5 437.5 -109.0 467.5 -95.0 499.5 -81.0 L415.5 18.5 Q406.5 14.0 397.5 10.0 388.5 6.0 380.0 2.0 L380.0 95.0 248.0 95.0 248.0 -65.5 Q238.5 -71.0 229.5 -76.5 220.5 -81.5 212.0 -87.0 206.0 -39.5 199.5 0.0 193.5 39.0 187.5 70.5 L55.5 58.5 Q69.0 -1.0 81.0 -73.5 92.5 -146.5 103.5 -233.5 94.0 -232.0 85.0 -231.0 76.0 -230.0 67.5 -229.5 L67.5 -289.0 Q113.0 -294.0 158.0 -297.0 203.0 -300.5 248.0 -301.0 M361.5 -447.5 Q355.5 -456.5 349.5 -466.0 343.5 -475.0 338.0 -484.5 324.0 -484.5 310.5 -485.0 296.5 -485.5 283.5 -485.5 265.0 -485.5 247.5 -485.0 230.0 -484.5 213.0 -484.5 206.0 -470.5 203.0 -462.0 199.5 -453.5 199.5 -449.5 199.5 -441.0 203.5 -437.0 207.5 -433.0 215.0 -433.0 246.0 -433.0 282.5 -436.5 319.0 -440.0 361.5 -447.5 M340.0 -833.5 Q385.5 -833.5 431.0 -830.5 477.0 -827.5 523.5 -821.0 L523.5 -761.0 Q477.0 -767.0 431.0 -770.0 385.5 -773.0 340.0 -773.0 313.0 -773.0 287.0 -772.0 261.0 -770.5 235.5 -769.0 L235.5 -729.0 Q259.5 -730.5 283.5 -732.0 307.0 -733.0 332.0 -733.0 375.5 -733.0 419.5 -730.0 463.5 -727.0 508.0 -721.0 L508.0 -661.5 Q463.5 -667.0 419.5 -670.0 375.5 -672.5 332.0 -673.0 307.0 -673.0 283.0 -672.0 258.5 -671.0 235.5 -669.5 L235.5 -633.0 Q259.5 -634.5 283.5 -635.5 307.0 -637.0 332.0 -637.0 375.5 -637.0 419.5 -634.0 463.5 -631.0 508.0 -624.5 L508.0 -565.0 Q463.5 -571.5 419.5 -574.5 375.5 -577.5 332.0 -577.5 307.0 -577.5 283.0 -576.5 258.5 -575.0 235.5 -573.5 L235.5 -543.5 Q247.5 -544.0 259.5 -544.5 271.5 -544.5 283.5 -545.0 346.5 -544.5 409.5 -542.0 472.5 -539.0 535.5 -533.5 L535.5 -473.0 Q520.0 -474.5 505.0 -475.5 490.0 -476.5 476.0 -477.0 487.0 -463.5 499.0 -450.5 511.0 -437.0 523.5 -425.0 L431.0 -349.0 Q422.0 -360.5 413.0 -372.5 404.0 -384.0 396.5 -396.5 332.0 -384.0 276.5 -378.5 221.0 -372.5 175.0 -372.5 144.5 -372.5 122.5 -377.0 101.0 -381.0 87.0 -390.0 74.0 -398.5 67.0 -410.0 60.0 -422.0 59.5 -437.0 59.5 -442.0 62.5 -451.5 65.5 -461.5 71.5 -476.0 50.0 -474.5 31.5 -473.0 L31.5 -533.5 Q48.0 -535.0 64.0 -536.0 80.0 -537.0 95.0 -538.5 L95.0 -829.5 235.5 -829.5 Q261.5 -831.0 287.5 -832.5 314.0 -833.5 340.0 -833.5" fill-rule="evenodd" stroke="none"/>
    </g>
    <g id="font_DFPOP3_Std_W12__17">
      <path d="M632.0 -425.0 Q673.5 -374.5 710.0 -325.5 747.0 -277.0 779.5 -229.5 L659.5 -145.5 Q627.0 -194.0 591.0 -241.5 555.0 -289.5 515.0 -337.0 L632.0 -425.0 M188.5 -374.0 Q207.0 -375.5 226.0 -376.0 244.5 -377.0 263.0 -377.0 278.5 -377.0 294.0 -376.0 309.0 -375.5 324.5 -375.0 327.5 -479.0 327.5 -565.0 327.5 -603.0 307.5 -622.0 287.5 -641.0 248.0 -641.0 223.0 -638.0 195.5 -632.0 192.5 -566.5 190.5 -502.0 188.5 -437.5 188.5 -374.0 M193.5 -21.5 Q219.5 -23.0 246.0 -24.5 272.0 -25.5 298.0 -25.5 L309.0 -25.5 Q313.0 -104.0 316.5 -176.5 319.5 -248.5 322.5 -315.5 307.0 -316.0 292.5 -317.0 277.5 -317.5 263.0 -317.5 244.0 -317.5 225.0 -316.0 206.0 -315.0 187.5 -313.5 L187.5 -301.0 Q187.5 -159.5 193.5 -21.5 M219.0 -829.5 L363.5 -813.0 Q357.5 -785.5 349.0 -757.0 341.0 -728.5 331.0 -699.5 366.0 -696.5 391.5 -688.0 417.5 -679.5 434.0 -665.5 454.0 -648.0 464.5 -624.0 475.0 -600.0 475.0 -569.5 L475.0 -536.5 Q502.0 -610.0 523.0 -684.5 544.0 -758.5 559.0 -833.5 L707.5 -817.0 Q702.0 -793.5 696.0 -769.5 690.0 -746.0 684.0 -723.0 721.0 -729.0 751.5 -729.0 831.5 -729.0 880.0 -707.0 928.5 -685.0 945.0 -642.0 969.5 -568.5 976.0 -362.5 976.0 -195.0 957.5 -34.0 951.5 30.5 914.0 63.0 876.5 95.0 808.0 95.0 754.0 95.0 690.5 89.0 626.5 83.0 552.0 70.5 L552.0 11.5 Q605.5 23.0 645.5 29.0 685.5 35.0 711.5 35.0 753.0 32.0 776.0 17.5 799.0 3.5 803.0 -22.5 806.0 -62.5 808.0 -107.5 810.5 -153.0 812.0 -203.0 815.0 -295.0 815.0 -362.5 813.0 -464.0 806.5 -530.0 800.5 -596.5 790.5 -628.5 783.5 -648.5 760.5 -658.5 738.0 -668.5 699.5 -668.5 691.5 -668.0 683.5 -667.0 675.5 -666.0 667.5 -664.5 650.0 -606.0 629.0 -547.0 608.0 -488.0 583.5 -429.0 L474.0 -457.5 Q472.5 -357.0 468.0 -246.5 463.5 -136.0 456.5 -15.5 460.5 -14.5 464.5 -14.0 468.0 -13.5 471.0 -13.5 L471.0 47.0 Q427.5 41.0 384.0 38.0 341.0 35.0 298.0 35.0 272.0 35.0 246.5 35.5 221.0 36.5 196.5 39.0 197.5 53.0 198.0 67.0 199.0 81.5 199.5 95.0 L55.5 95.0 Q43.0 -103.0 43.0 -301.0 43.0 -497.5 55.5 -697.5 L188.5 -697.5 Q207.0 -763.5 219.0 -829.5" fill-rule="evenodd" stroke="none"/>
    </g>
    <g id="font_DFPOP3_Std_W12__18">
      <path d="M331.0 -249.0 Q389.0 -252.5 447.0 -255.0 505.0 -257.0 563.0 -257.0 613.0 -257.0 663.0 -255.5 713.0 -254.0 764.0 -251.0 L764.0 -253.0 Q764.0 -290.5 743.5 -309.5 723.0 -328.5 683.0 -328.5 609.5 -326.5 521.5 -318.0 434.0 -309.0 333.0 -294.0 332.0 -281.5 331.5 -270.5 331.0 -259.5 331.0 -249.0 M327.5 -121.0 Q387.0 -124.5 446.0 -127.0 505.0 -129.0 563.0 -129.0 663.0 -129.0 763.0 -123.0 763.0 -141.5 763.0 -158.5 763.0 -175.5 764.0 -191.5 713.0 -194.5 663.0 -196.0 612.5 -197.5 563.0 -197.5 504.0 -197.5 445.5 -195.5 387.0 -193.5 328.5 -189.5 328.0 -175.5 328.0 -162.5 327.5 -149.5 327.5 -137.0 L327.5 -121.0 M333.0 11.5 Q399.5 6.5 466.5 5.0 533.5 3.0 601.0 3.0 681.0 3.0 761.0 6.0 761.0 -12.0 761.0 -29.5 761.0 -46.5 762.0 -63.5 712.0 -66.5 662.0 -68.0 612.5 -69.5 563.0 -69.5 505.0 -69.5 446.0 -67.5 387.0 -65.5 328.5 -61.5 329.0 -43.0 330.0 -24.5 331.0 -6.5 333.0 11.5 M936.0 -821.0 L947.0 -769.0 Q709.0 -737.0 529.5 -726.0 518.0 -725.0 506.5 -724.5 495.0 -724.0 484.5 -724.0 476.0 -705.5 468.0 -688.0 460.5 -670.0 452.5 -653.5 L512.0 -653.5 Q619.5 -653.5 727.0 -650.0 835.0 -647.0 943.0 -641.0 L943.0 -581.5 Q835.0 -587.0 727.0 -590.0 619.5 -593.0 512.0 -593.0 490.0 -593.0 468.0 -592.5 446.5 -592.0 425.0 -592.0 416.0 -572.5 408.0 -555.0 400.0 -537.0 392.0 -520.0 421.5 -520.5 451.5 -520.5 481.5 -521.0 512.0 -521.0 625.5 -521.0 739.5 -518.0 853.5 -515.0 967.5 -509.0 L967.5 -449.5 Q853.5 -455.0 739.5 -458.0 625.5 -461.0 512.0 -461.0 474.5 -460.5 437.5 -460.5 400.5 -460.0 363.5 -460.0 354.5 -440.5 346.5 -423.0 338.5 -405.5 331.0 -390.0 329.0 -386.5 327.0 -383.0 325.0 -380.0 323.5 -377.0 L340.0 -377.0 Q339.0 -370.5 338.5 -365.0 338.0 -359.5 338.0 -354.5 461.5 -371.5 553.0 -380.0 644.5 -389.0 703.5 -389.0 L727.0 -389.0 Q777.5 -389.0 813.5 -380.0 849.0 -371.0 870.5 -353.5 890.5 -335.5 901.0 -311.5 911.5 -287.5 911.5 -257.0 911.5 -197.0 910.5 -129.5 910.0 -61.5 908.5 14.5 913.5 14.5 919.5 14.5 925.5 14.5 932.0 15.5 L932.0 75.0 Q849.0 68.5 766.5 65.5 684.0 62.5 601.0 62.5 534.0 62.5 468.5 64.5 402.5 66.0 338.0 70.5 338.0 78.5 338.5 86.5 339.0 94.5 340.0 102.5 L208.0 102.5 Q201.5 42.5 198.5 -16.5 195.5 -75.5 195.5 -135.0 188.0 -120.0 179.5 -105.0 171.5 -90.5 164.0 -77.0 L43.0 -161.0 Q126.0 -294.5 196.5 -437.0 201.0 -446.5 206.0 -455.5 129.0 -452.5 55.5 -449.5 L55.5 -509.0 Q100.5 -511.0 146.0 -513.0 191.5 -514.5 237.5 -516.0 246.0 -534.5 254.5 -552.5 263.0 -570.5 271.5 -589.0 223.0 -587.5 175.0 -585.5 127.5 -584.0 80.0 -581.5 L80.0 -641.0 Q135.0 -644.0 190.0 -646.5 245.0 -648.5 300.0 -650.0 307.5 -667.0 315.0 -684.0 322.0 -701.0 329.5 -718.0 273.5 -715.5 214.0 -714.0 154.0 -712.5 91.0 -712.5 L91.0 -765.0 Q229.5 -766.5 338.5 -770.0 448.0 -773.0 529.5 -779.5 620.0 -784.5 721.5 -795.5 823.0 -806.0 936.0 -821.0" fill-rule="evenodd" stroke="none"/>
    </g>
    <g id="font_DFPOP3_Std_W12_60">
      <path d="M508.0 -247.0 Q508.0 -277.0 499.5 -302.0 491.0 -327.0 474.0 -347.0 454.0 -369.5 425.0 -381.0 396.0 -392.0 358.5 -392.0 294.0 -392.0 248.0 -346.0 223.0 -321.5 211.0 -291.5 198.5 -262.0 198.5 -227.5 198.5 -182.0 210.5 -149.0 222.5 -115.5 247.0 -94.0 265.5 -77.5 290.5 -69.0 315.5 -60.5 346.0 -60.5 380.0 -60.5 408.0 -70.5 436.0 -80.5 457.5 -101.5 482.5 -126.0 495.0 -162.0 508.0 -198.5 508.0 -247.0 M632.0 -247.0 Q632.0 -190.0 609.0 -144.5 585.5 -99.0 539.5 -64.5 497.5 -32.5 446.0 -16.0 395.0 0.0 335.0 0.0 279.5 0.0 234.0 -15.5 188.5 -30.5 151.5 -61.5 111.5 -94.0 92.0 -136.5 72.5 -179.0 72.5 -231.5 72.5 -353.0 159.5 -469.5 247.0 -586.0 422.0 -697.5 L547.0 -622.5 Q481.5 -583.5 427.0 -541.5 372.5 -499.0 328.5 -454.5 345.5 -457.5 365.0 -459.5 384.5 -461.0 406.5 -461.0 455.5 -461.0 496.5 -446.5 537.0 -432.0 569.5 -403.5 600.0 -374.5 616.0 -335.0 631.5 -296.0 632.0 -247.0" fill-rule="evenodd" stroke="none"/>
    </g>
    <g id="font_DFPOP3_Std_W12__19">
      <path d="M443.5 -533.5 L575.5 -437.0 Q441.0 -257.5 367.0 -147.0 293.5 -37.0 279.5 3.0 279.5 12.5 287.5 17.5 295.0 22.5 311.5 22.5 346.5 22.5 445.0 7.5 544.0 -8.0 706.5 -38.0 648.0 -139.5 583.5 -265.0 L707.5 -361.5 Q770.5 -252.5 827.5 -162.5 884.5 -72.5 936.0 -1.0 L791.5 99.5 Q778.5 80.0 765.5 59.5 752.5 39.0 739.5 17.5 552.0 49.5 433.0 66.5 314.0 83.0 263.0 83.0 187.0 83.0 149.5 55.5 111.5 28.0 111.5 -25.5 111.5 -43.0 120.5 -68.0 129.0 -92.5 147.5 -125.0 224.5 -239.5 298.5 -341.5 372.5 -443.5 443.5 -533.5 M643.0 -821.0 Q662.0 -821.0 681.5 -812.0 701.0 -803.0 721.0 -784.5 744.0 -758.0 809.5 -669.5 875.5 -580.5 983.0 -429.0 L815.0 -325.5 Q744.5 -453.0 685.5 -549.5 626.5 -645.5 579.5 -711.5 569.0 -726.5 559.0 -734.0 549.0 -741.5 539.5 -741.5 531.0 -741.5 499.0 -728.5 467.0 -715.5 411.5 -689.0 L411.5 -741.5 Q597.5 -821.0 633.0 -821.0 L643.0 -821.0 M259.0 -829.5 L403.5 -752.5 Q355.0 -643.5 301.0 -535.5 247.5 -427.5 187.5 -321.5 L40.0 -412.5 Q103.5 -521.0 158.5 -625.5 213.0 -729.5 259.0 -829.5" fill-rule="evenodd" stroke="none"/>
    </g>
    <g id="font_DFPOP3_Std_W12__20">
      <path d="M267.5 -736.5 Q262.5 -665.0 259.0 -598.0 255.0 -531.5 252.0 -470.0 325.5 -473.0 399.0 -475.0 472.0 -477.0 546.0 -477.0 641.0 -477.0 739.5 -474.0 751.5 -591.0 751.5 -661.5 751.5 -710.5 715.5 -735.5 679.5 -761.0 607.0 -761.0 519.5 -759.5 434.5 -753.0 349.5 -747.0 267.5 -736.5 M707.5 -821.0 Q810.5 -819.0 862.0 -780.0 914.0 -741.0 915.5 -665.5 915.5 -619.5 912.0 -569.5 908.5 -519.5 902.0 -466.0 909.0 -466.0 915.5 -465.5 921.5 -465.0 927.5 -465.0 L927.5 -405.5 Q867.0 -408.5 807.0 -411.0 747.0 -413.0 687.0 -414.5 736.5 -316.5 801.5 -208.0 866.5 -100.0 947.0 18.5 L783.5 102.5 Q706.0 -19.5 635.0 -149.5 564.5 -279.0 500.5 -415.5 436.5 -415.5 373.0 -414.0 310.0 -412.5 248.0 -409.5 237.0 -251.5 227.0 -124.5 217.0 2.5 208.0 99.5 L43.0 83.0 Q61.5 -100.0 77.5 -329.0 93.5 -558.0 107.5 -833.5 L271.5 -825.5 Q270.5 -817.5 270.5 -810.0 270.5 -803.0 270.5 -796.5 376.5 -809.0 478.5 -815.0 581.0 -821.0 681.0 -821.0 L707.5 -821.0" fill-rule="evenodd" stroke="none"/>
    </g>
    <g id="font_DFPOP3_Std_W12__21">
      <path d="M731.0 -821.0 L888.0 -801.0 Q854.0 -628.5 808.0 -456.5 841.5 -338.5 886.5 -215.5 931.0 -92.5 987.0 35.0 L839.5 95.0 Q809.0 18.5 782.0 -55.0 755.0 -128.5 732.0 -197.5 709.0 -124.0 684.0 -51.0 658.5 22.5 632.0 95.0 L479.0 55.5 Q563.0 -162.0 626.0 -381.0 689.0 -600.0 731.0 -821.0 M403.5 -705.5 Q439.0 -645.5 478.5 -587.5 518.5 -529.0 563.0 -473.0 L439.5 -368.5 Q395.0 -428.5 356.0 -490.0 317.5 -551.0 283.5 -613.5 L403.5 -705.5 M115.5 -821.0 L263.0 -821.0 Q208.0 -147.0 208.0 -93.0 208.0 -41.0 229.5 -15.0 251.5 11.5 296.0 11.5 317.5 11.5 363.0 -2.0 408.5 -15.0 479.0 -41.0 L479.0 22.5 Q399.5 46.5 342.5 58.5 285.5 70.5 252.0 70.5 L218.0 70.5 Q138.5 70.5 99.0 34.0 59.5 -3.0 59.5 -77.0 59.5 -116.0 73.5 -302.0 87.5 -488.0 115.5 -821.0" fill-rule="evenodd" stroke="none"/>
    </g>
    <g id="font_DFPOP3_Std_W12__22">
      <path d="M687.0 -833.5 L852.0 -833.5 852.0 -375.0 Q885.5 -350.0 921.5 -326.0 957.0 -301.5 995.5 -277.5 L888.0 -149.5 Q878.5 -155.5 869.5 -161.5 860.5 -167.0 852.0 -173.0 L852.0 91.0 687.0 91.0 687.0 -293.0 Q651.0 -320.0 617.0 -348.0 583.5 -376.5 552.0 -405.5 L659.5 -529.5 Q673.5 -517.0 687.0 -505.0 L687.0 -833.5 M249.0 -489.5 Q272.0 -470.5 296.0 -452.0 320.0 -433.5 345.0 -415.5 397.5 -502.0 426.0 -560.0 455.0 -618.5 460.0 -649.0 460.0 -658.5 433.5 -663.5 407.5 -668.5 355.5 -668.5 354.0 -668.0 352.5 -667.5 350.5 -666.5 349.0 -666.5 324.5 -621.5 300.0 -577.0 275.0 -532.5 249.0 -489.5 M267.5 -840.5 L403.5 -769.0 Q397.5 -757.5 391.5 -746.0 386.0 -735.0 380.0 -724.0 390.5 -726.5 399.5 -727.5 408.0 -729.0 415.5 -729.0 L446.5 -729.0 Q527.0 -729.0 568.5 -703.0 610.0 -677.0 611.5 -624.5 611.5 -606.0 602.0 -579.0 593.0 -552.0 574.5 -516.0 529.0 -422.5 480.0 -333.5 430.5 -244.5 377.0 -161.0 339.0 -98.0 298.0 -35.0 256.5 28.0 212.0 91.0 L71.5 -1.0 Q120.0 -67.0 170.0 -140.5 219.5 -214.0 270.5 -294.0 244.0 -311.5 219.5 -330.0 195.0 -348.0 172.0 -366.5 166.0 -356.5 159.5 -347.5 153.5 -338.0 147.5 -328.5 L27.5 -405.5 Q97.5 -518.5 157.5 -627.5 217.5 -736.0 267.5 -840.5" fill-rule="evenodd" stroke="none"/>
    </g>
    <g id="font_DFPOP3_Std_W12__23">
      <path d="M76.0 -785.5 L212.0 -769.0 Q208.0 -738.5 204.0 -707.5 200.0 -677.0 195.5 -646.0 200.5 -646.0 205.5 -646.5 210.5 -647.0 215.0 -647.0 L215.0 -825.5 359.5 -825.5 359.5 -645.0 Q377.0 -643.5 395.0 -641.5 412.5 -639.5 431.0 -637.0 L431.0 -613.5 Q451.0 -668.5 467.0 -723.5 483.5 -778.5 495.5 -833.5 L636.0 -817.0 Q628.5 -786.5 620.5 -756.5 612.5 -726.5 603.0 -697.5 664.5 -709.5 716.5 -716.5 768.5 -723.5 811.0 -725.0 869.5 -725.0 905.0 -703.5 941.0 -682.0 953.5 -639.0 962.5 -602.0 968.0 -533.0 973.5 -464.0 976.0 -362.5 976.0 -279.5 972.0 -198.0 968.5 -116.5 961.5 -37.0 957.0 27.0 930.0 59.0 902.5 91.0 852.0 91.0 818.0 91.0 778.0 89.0 738.0 87.0 691.0 83.0 L691.0 22.5 Q715.0 26.5 733.5 28.5 751.5 30.5 764.0 30.5 791.0 27.5 805.5 13.5 820.5 -0.5 823.5 -26.5 825.5 -66.5 827.0 -110.5 828.5 -154.5 829.5 -204.0 830.0 -249.0 831.0 -289.0 831.5 -328.5 831.5 -362.5 831.5 -371.0 831.5 -379.5 831.5 -387.5 831.5 -395.5 793.0 -283.0 747.0 -171.0 701.0 -58.5 647.0 55.5 L512.0 18.5 Q600.5 -150.5 667.0 -321.0 733.5 -491.5 778.0 -663.5 772.0 -664.5 766.5 -665.0 761.0 -665.5 755.5 -665.5 752.5 -665.5 750.0 -665.0 747.0 -664.5 745.5 -664.5 722.5 -581.5 698.0 -509.5 674.0 -437.5 649.0 -377.0 614.5 -294.5 576.5 -214.0 538.0 -133.0 495.5 -53.0 L376.0 -93.0 Q416.5 -165.5 452.5 -238.0 488.5 -310.5 519.0 -383.0 545.0 -444.5 569.0 -509.5 593.0 -574.5 615.5 -643.0 607.0 -641.5 599.0 -639.5 591.5 -637.5 583.5 -636.0 565.5 -582.0 544.5 -528.5 523.5 -474.5 499.5 -421.0 L367.5 -453.5 Q381.5 -485.0 394.5 -516.5 407.5 -548.0 419.0 -578.5 403.5 -581.0 388.5 -582.5 373.5 -584.0 359.5 -585.5 L359.5 -369.5 Q369.5 -374.0 379.5 -379.0 389.5 -384.0 399.5 -389.0 L451.5 -261.0 Q429.5 -249.5 406.5 -238.5 383.0 -228.0 359.5 -217.0 L359.5 95.0 215.0 95.0 215.0 -158.5 Q183.5 -146.5 150.5 -135.0 118.0 -123.5 84.0 -112.5 L51.0 -257.0 Q93.5 -268.0 134.5 -281.0 175.0 -294.0 215.0 -309.0 L215.0 -587.0 Q207.5 -586.5 200.0 -586.0 192.5 -586.0 186.5 -585.5 178.0 -533.5 168.0 -481.5 158.0 -429.0 147.5 -377.0 L15.5 -409.5 Q35.5 -502.5 50.0 -596.5 65.0 -690.0 76.0 -785.5" fill-rule="evenodd" stroke="none"/>
    </g>
    <g id="font_DFPOP3_Std_W12__24">
      <path d="M311.5 -520.0 Q318.0 -520.5 324.5 -520.5 331.0 -521.0 337.0 -521.0 337.5 -546.0 338.5 -569.0 339.5 -592.0 341.0 -613.5 L332.0 -613.5 Q326.5 -613.5 321.0 -612.5 316.0 -612.0 311.5 -611.5 L311.5 -520.0 M199.5 -505.0 Q204.5 -505.5 209.5 -506.5 214.5 -507.0 219.0 -508.0 L219.0 -705.5 311.5 -705.5 311.5 -671.5 Q316.5 -672.0 322.0 -672.5 327.0 -672.5 332.0 -673.0 L342.0 -673.0 Q342.0 -686.5 342.5 -699.5 343.0 -712.5 343.0 -725.0 343.0 -746.5 326.0 -758.0 309.0 -769.0 275.5 -769.0 257.0 -767.5 237.0 -763.0 217.0 -758.5 195.5 -751.5 193.5 -725.5 192.5 -699.5 191.5 -674.0 191.5 -649.0 191.5 -612.5 193.5 -576.5 195.0 -540.0 199.5 -505.0 M616.5 -175.0 Q653.5 -178.0 689.5 -179.5 726.0 -181.0 762.0 -181.0 775.5 -181.0 790.0 -180.5 804.5 -180.5 819.0 -180.0 821.0 -203.5 822.0 -220.5 823.0 -238.0 823.5 -249.0 823.5 -272.0 771.0 -273.5 739.5 -272.0 701.0 -266.5 663.0 -261.0 617.5 -251.0 616.0 -240.0 615.5 -230.0 615.5 -220.0 615.5 -211.0 615.5 -201.5 615.5 -192.5 615.5 -183.5 616.5 -175.0 M508.0 -333.0 L627.5 -333.0 Q626.0 -326.5 625.5 -321.0 624.5 -315.0 623.5 -310.5 678.0 -320.0 731.0 -326.0 784.0 -331.5 835.5 -333.0 893.0 -332.5 922.0 -311.5 951.5 -290.5 951.5 -249.0 951.5 -238.0 950.0 -219.0 948.5 -199.5 946.0 -171.0 951.5 -170.0 957.0 -169.5 962.5 -169.0 967.5 -169.0 L967.5 -109.5 Q915.5 -115.0 864.0 -118.0 812.5 -121.0 762.0 -121.0 726.5 -121.0 692.0 -119.5 657.5 -118.0 623.5 -115.5 623.5 -105.0 626.5 -97.5 640.5 -96.5 653.0 -92.0 665.5 -87.5 677.0 -79.0 687.5 -68.0 693.5 -53.5 699.5 -39.0 699.5 -21.5 699.5 -8.0 695.5 3.0 691.5 13.5 684.0 22.5 L718.0 22.5 Q730.0 22.5 742.0 22.5 753.5 23.0 765.0 23.5 775.5 -2.5 785.5 -33.0 795.5 -63.5 804.0 -97.5 L936.0 -85.0 Q926.0 -53.0 913.5 -25.0 901.0 3.0 886.0 27.5 909.0 29.0 931.0 31.0 953.5 32.5 976.0 35.0 L976.0 95.0 Q847.0 83.0 718.0 83.0 589.0 83.0 460.0 95.0 L460.0 35.0 Q486.0 32.0 512.5 30.0 539.0 28.0 565.0 26.5 556.0 14.5 552.0 2.5 548.0 -9.5 548.0 -21.5 548.0 -37.0 552.0 -50.0 556.0 -63.0 564.0 -73.5 569.5 -78.5 575.0 -82.0 580.5 -86.0 587.0 -89.0 L508.0 -89.0 Q502.0 -119.5 498.5 -150.0 495.5 -180.5 495.5 -211.0 495.5 -241.5 498.5 -272.0 502.0 -302.0 508.0 -333.0 M237.5 -397.5 Q262.0 -404.0 283.5 -408.0 305.0 -412.0 322.5 -412.5 L343.0 -412.5 Q355.5 -412.5 366.0 -409.5 376.5 -407.0 384.0 -401.5 384.0 -419.0 379.5 -430.5 375.5 -442.0 367.5 -447.5 355.5 -453.5 341.5 -457.0 327.5 -460.5 311.5 -461.0 277.5 -461.0 233.0 -453.0 188.0 -445.5 132.0 -430.0 L132.0 -417.0 239.5 -417.0 Q239.0 -411.5 238.0 -406.5 237.5 -402.0 237.5 -397.5 M226.5 -259.0 Q238.0 -260.0 249.5 -260.5 261.0 -261.0 273.5 -261.0 284.0 -261.0 295.5 -260.5 307.0 -260.0 318.5 -259.0 317.0 -283.5 315.0 -301.5 313.0 -319.5 311.5 -331.0 308.0 -340.0 303.0 -345.5 297.5 -351.0 290.0 -353.5 L282.5 -353.5 Q272.5 -352.0 259.5 -348.5 247.0 -345.5 231.5 -340.0 229.0 -318.5 227.5 -298.5 226.5 -278.0 226.5 -259.0 M224.5 -114.5 Q236.5 -115.5 249.0 -116.0 261.0 -116.5 273.5 -116.5 285.0 -116.5 296.5 -116.0 307.5 -115.5 318.5 -114.5 318.5 -130.0 319.0 -145.0 319.5 -160.0 319.5 -175.0 L319.5 -198.5 Q307.0 -199.5 295.5 -200.0 284.0 -200.5 273.5 -200.5 261.0 -200.5 249.0 -200.0 236.5 -199.5 224.5 -198.5 223.5 -189.5 223.5 -180.5 223.0 -171.5 223.0 -163.0 223.0 -150.5 223.5 -138.5 223.5 -126.0 224.5 -114.5 M709.5 -433.0 Q772.5 -433.0 836.0 -430.0 900.0 -427.0 963.5 -421.0 L963.5 -361.5 Q900.0 -367.0 836.0 -370.0 772.5 -372.5 709.5 -372.5 654.5 -372.5 600.0 -370.5 545.5 -368.5 491.5 -364.5 489.0 -347.5 485.0 -331.0 481.0 -314.0 475.0 -297.0 L422.0 -297.0 Q424.0 -272.5 425.5 -242.0 427.0 -211.0 427.0 -175.0 427.0 -129.0 425.0 -81.5 422.5 -34.0 419.0 14.5 413.5 50.5 393.5 68.5 374.0 87.0 340.0 87.0 L271.5 87.0 271.5 26.5 287.5 26.5 Q301.0 24.5 307.5 12.0 314.5 0.0 315.5 -21.5 315.5 -30.0 316.0 -38.5 316.5 -47.0 316.5 -55.5 305.5 -56.0 295.0 -56.5 284.0 -57.5 273.5 -57.5 261.0 -57.5 249.0 -56.5 237.0 -56.0 225.5 -55.5 226.0 -17.5 227.5 18.5 229.0 55.0 231.5 91.0 L120.0 91.0 Q115.5 27.5 113.5 -36.0 111.5 -99.0 111.5 -163.0 111.5 -193.5 112.5 -223.5 113.5 -254.0 115.5 -284.5 L43.0 -284.5 Q37.0 -312.5 34.5 -340.5 31.5 -369.0 31.5 -397.5 31.5 -425.0 34.5 -453.0 37.0 -481.0 43.0 -509.0 L98.5 -509.0 Q94.5 -544.5 93.0 -579.5 91.0 -614.5 91.0 -649.0 91.0 -694.0 94.0 -739.0 97.5 -784.0 103.5 -829.5 L204.0 -829.5 Q203.0 -824.0 202.5 -819.5 202.0 -815.0 201.5 -811.0 269.5 -829.5 306.0 -829.5 L315.5 -829.5 Q352.0 -829.5 378.5 -822.5 405.0 -815.5 421.0 -802.0 436.0 -788.0 444.0 -770.0 451.5 -752.0 451.5 -729.0 451.5 -680.0 449.5 -625.0 447.5 -570.5 444.5 -509.0 446.5 -507.5 449.0 -506.5 451.5 -505.5 454.5 -504.0 491.5 -482.5 494.5 -424.0 602.0 -433.0 709.5 -433.0 M831.5 -717.0 L831.5 -661.5 Q839.0 -660.5 847.5 -660.0 855.5 -659.5 863.0 -659.5 L863.0 -681.0 Q863.0 -695.0 855.0 -704.0 847.0 -713.0 831.5 -717.0 M707.5 -713.5 L707.5 -665.5 743.5 -665.5 743.5 -717.0 Q734.0 -716.0 725.0 -715.5 716.0 -714.5 707.5 -713.5 M589.0 -659.5 Q596.5 -659.5 604.0 -660.0 612.0 -660.5 619.5 -661.5 L619.5 -702.5 Q612.0 -701.0 605.0 -700.0 597.5 -699.0 591.0 -698.5 589.5 -687.5 589.0 -678.0 588.5 -668.5 589.0 -659.5 M831.5 -601.0 L831.5 -547.0 Q837.5 -547.0 844.0 -546.5 850.0 -546.0 856.0 -546.0 857.5 -560.5 858.5 -573.5 859.5 -587.0 860.0 -599.0 852.5 -599.0 845.0 -599.5 837.5 -600.5 831.5 -601.0 M707.5 -605.0 L707.5 -548.0 Q716.5 -548.0 725.5 -548.5 734.5 -549.0 743.5 -549.0 L743.5 -605.0 707.5 -605.0 M591.0 -542.5 Q598.5 -543.0 605.5 -543.5 612.5 -544.0 619.5 -545.0 L619.5 -601.0 Q610.5 -600.5 602.5 -599.5 594.5 -599.0 588.0 -599.0 588.0 -584.5 588.5 -570.5 589.5 -556.5 591.0 -542.5 M491.5 -785.5 L599.0 -785.5 Q597.5 -778.5 596.5 -771.5 596.0 -765.0 596.0 -759.0 602.0 -759.5 607.5 -760.5 613.5 -761.0 619.5 -762.0 L619.5 -833.5 707.5 -833.5 707.5 -774.0 Q717.0 -775.0 726.0 -775.5 735.0 -776.5 743.5 -777.0 L743.5 -833.5 831.5 -833.5 831.5 -781.5 Q867.0 -781.5 892.5 -774.5 918.5 -768.0 934.0 -754.5 948.5 -742.5 956.0 -725.0 963.5 -707.5 963.5 -685.0 963.5 -652.0 961.5 -615.5 959.5 -578.5 955.5 -538.5 958.5 -538.5 961.5 -538.0 964.5 -537.5 967.5 -537.5 L967.5 -477.0 Q913.0 -483.5 859.5 -486.5 805.5 -489.5 751.5 -489.5 712.5 -489.5 674.0 -488.0 635.5 -486.5 597.0 -483.5 597.0 -478.0 597.5 -473.5 598.0 -468.5 599.0 -465.0 L491.5 -465.0 Q479.0 -545.0 479.0 -624.5 479.0 -664.5 482.5 -705.0 485.5 -745.5 491.5 -785.5" fill-rule="evenodd" stroke="none"/>
    </g>
    <g id="font_DFPOP3_Std_W12_10">
      <path d="M476.0 -680.0 L407.5 -10.0 276.5 -16.5 322.5 -462.0 228.5 -475.0 379.0 -693.0 476.0 -680.0" fill-rule="evenodd" stroke="none"/>
    </g>
    <g id="font_DFPOP3_Std_W12_00">
      <path d="M540.5 -348.0 Q540.5 -493.5 500.5 -566.0 461.0 -639.0 381.0 -639.0 327.0 -639.0 285.0 -610.5 243.5 -582.0 214.0 -525.5 168.0 -433.0 168.0 -316.5 168.0 -255.0 181.0 -206.5 194.5 -158.0 222.0 -123.0 246.0 -91.5 275.0 -76.0 304.5 -60.5 339.0 -60.5 372.5 -60.5 403.5 -75.0 435.0 -89.5 464.0 -119.0 502.5 -158.0 521.5 -215.5 540.5 -273.0 540.5 -348.0 M683.0 -374.0 Q683.0 -297.5 657.0 -232.5 631.5 -167.0 580.5 -112.5 528.5 -56.0 464.0 -28.0 400.0 0.0 324.5 0.0 255.0 0.0 199.5 -22.5 144.0 -45.0 102.5 -91.0 61.5 -134.0 41.5 -190.5 21.5 -247.0 21.5 -316.5 21.5 -477.5 120.0 -587.0 170.5 -643.0 237.0 -671.0 303.5 -699.5 385.0 -699.5 450.5 -699.5 504.0 -675.0 558.0 -650.5 601.0 -602.0 642.0 -555.5 662.5 -498.5 683.0 -441.5 683.0 -374.0" fill-rule="evenodd" stroke="none"/>
    </g>
    <g id="font_DFPOP3_Std_W12__25">
      <path d="M680.0 -445.5 L701.5 -445.5 Q741.5 -445.5 769.5 -437.0 798.0 -429.0 814.0 -413.5 834.0 -393.5 844.5 -345.5 855.0 -297.0 855.0 -221.0 855.0 -95.0 846.0 -9.0 838.0 40.0 806.0 64.5 789.0 74.0 763.0 79.5 737.0 85.5 701.5 87.0 L676.0 87.0 Q643.0 87.0 600.5 84.0 558.5 81.0 508.0 75.0 L508.0 15.5 Q541.5 21.0 571.5 23.5 601.5 26.5 627.5 26.5 655.5 26.5 670.0 17.5 684.5 9.0 686.0 -8.0 690.5 -46.5 693.0 -100.0 695.5 -153.5 695.5 -221.0 695.0 -282.0 689.5 -318.0 683.5 -354.5 673.0 -366.5 662.0 -376.0 650.5 -380.5 639.5 -385.0 627.5 -385.0 595.5 -384.5 562.0 -382.0 529.0 -379.5 493.5 -376.0 453.5 -250.0 413.5 -161.0 384.5 -98.0 351.5 -36.0 319.0 25.5 283.5 87.0 L131.0 43.0 Q165.0 -9.0 194.5 -61.5 224.5 -113.5 250.0 -166.0 271.5 -209.5 290.5 -255.5 310.0 -301.5 327.5 -349.0 279.5 -339.0 228.5 -327.0 177.5 -315.0 124.0 -301.0 L124.0 -361.5 Q275.0 -402.0 414.0 -423.0 553.0 -444.0 680.0 -445.5 M627.5 -801.0 L637.0 -801.0 Q669.0 -800.5 698.0 -790.5 726.5 -780.0 752.5 -760.0 787.0 -730.5 847.0 -662.0 906.5 -593.5 991.0 -485.5 L839.5 -401.5 Q784.5 -496.5 737.5 -571.5 690.5 -646.5 651.5 -700.5 633.5 -720.5 613.5 -731.0 593.5 -741.5 571.5 -741.5 528.5 -740.0 427.0 -689.0 L427.0 -749.5 Q485.5 -775.0 536.0 -788.0 586.0 -800.5 627.5 -801.0 M271.5 -809.0 L407.5 -737.5 Q357.0 -650.5 301.0 -565.5 244.5 -480.5 183.5 -397.5 L47.0 -481.5 Q112.5 -566.0 168.5 -648.0 224.5 -730.0 271.5 -809.0" fill-rule="evenodd" stroke="none"/>
    </g>
    <g id="font_DFPOP3_Std_W12__26">
      <path d="M653.5 -616.5 Q670.0 -616.5 686.5 -617.0 703.0 -617.5 720.0 -617.5 733.0 -617.5 746.0 -617.0 759.5 -616.5 773.0 -616.5 778.5 -642.0 781.5 -665.0 785.0 -688.0 786.5 -708.5 768.0 -708.5 750.5 -709.0 732.5 -709.5 716.0 -709.5 696.0 -709.5 676.0 -709.0 656.0 -708.5 636.0 -707.5 L653.5 -616.5 M195.5 -578.5 Q213.5 -580.0 231.0 -581.0 248.5 -581.5 265.0 -581.5 279.0 -581.5 293.5 -581.0 307.5 -580.5 321.5 -579.5 311.0 -616.5 301.5 -646.5 292.5 -677.0 284.5 -701.5 281.0 -710.5 277.5 -716.0 274.5 -721.0 271.5 -721.0 267.0 -721.0 255.5 -718.5 244.5 -716.5 226.5 -711.5 218.5 -678.0 211.0 -644.5 203.5 -611.5 195.5 -578.5 M455.5 -235.5 Q453.5 -260.0 452.5 -285.0 451.5 -310.0 451.5 -335.0 451.5 -377.0 454.5 -418.5 457.5 -460.5 464.0 -502.0 L359.5 -437.0 Q353.5 -458.5 348.0 -479.0 342.5 -499.0 338.0 -518.0 L332.0 -518.0 332.0 -394.0 Q378.0 -391.0 424.0 -385.0 L424.0 -325.5 Q376.5 -332.0 332.0 -335.0 L332.0 -248.0 Q353.5 -269.5 387.0 -269.5 402.5 -269.5 416.5 -264.5 430.5 -260.0 443.5 -251.0 451.0 -243.0 455.5 -235.5 M771.0 -444.5 L771.0 -380.0 Q787.0 -379.0 803.5 -378.0 819.5 -377.5 835.5 -376.0 L835.5 -381.0 Q835.5 -411.0 819.5 -427.0 803.5 -443.0 771.0 -444.5 M584.5 -375.0 Q598.5 -376.5 612.5 -377.0 626.0 -378.0 640.0 -379.0 L640.0 -434.0 Q626.0 -432.5 613.0 -430.5 600.0 -428.5 588.0 -427.0 584.5 -399.5 584.5 -375.0 M771.0 -320.5 L771.0 -265.0 Q788.0 -265.0 804.0 -264.5 820.0 -264.0 835.5 -263.0 L835.5 -316.5 Q818.5 -318.0 802.5 -319.0 786.5 -320.0 771.0 -320.5 M587.0 -258.0 Q600.0 -259.0 613.0 -259.5 626.0 -260.5 640.0 -261.0 L640.0 -319.5 Q625.5 -319.0 611.5 -318.0 597.5 -317.0 583.5 -315.5 583.5 -300.0 584.5 -286.0 585.0 -272.0 587.0 -258.0 M115.5 -817.0 L243.5 -801.0 Q242.0 -795.5 241.5 -790.5 240.5 -786.0 239.5 -781.5 264.0 -790.5 280.5 -795.5 296.5 -800.5 304.0 -801.0 L311.5 -801.0 Q320.5 -800.5 330.5 -794.0 340.5 -787.0 351.0 -774.0 362.0 -757.0 391.0 -702.0 420.5 -647.0 468.0 -555.0 L468.0 -605.0 Q483.5 -606.5 499.0 -607.5 515.0 -609.0 530.5 -610.5 L513.0 -700.5 Q503.0 -699.5 493.5 -699.0 484.5 -698.0 475.0 -697.5 L475.0 -756.5 Q514.5 -760.5 553.5 -763.0 592.5 -765.5 632.0 -767.0 L632.0 -837.5 779.5 -837.5 779.5 -768.0 Q823.0 -766.5 867.0 -764.0 911.0 -761.5 955.5 -756.5 L955.5 -697.5 Q935.5 -699.0 918.5 -700.5 917.0 -677.5 913.0 -655.0 909.5 -632.5 903.0 -610.5 920.0 -609.0 937.5 -607.5 955.0 -606.5 972.0 -605.0 L972.0 -545.0 Q846.0 -557.0 720.0 -557.0 657.5 -557.0 596.0 -554.0 534.5 -551.0 473.0 -545.0 476.0 -537.0 480.0 -530.0 483.5 -523.5 487.5 -517.0 L469.0 -505.0 596.0 -505.0 Q595.0 -500.0 594.5 -495.5 594.0 -491.5 594.0 -487.5 657.5 -496.0 705.5 -500.5 753.0 -505.0 785.5 -505.0 L799.5 -505.0 Q845.0 -505.0 877.5 -496.5 910.0 -488.5 930.0 -473.0 948.5 -457.0 958.0 -435.0 967.5 -412.5 967.5 -385.0 L967.5 -255.0 Q972.5 -254.0 977.5 -253.5 982.5 -253.0 987.0 -253.0 L987.0 -193.5 Q932.5 -198.0 878.5 -201.0 825.0 -204.0 771.0 -205.0 L771.0 -128.0 Q818.5 -126.5 865.5 -124.0 912.5 -121.5 959.5 -116.5 L959.5 -57.5 Q912.0 -62.0 865.0 -64.5 818.0 -67.0 771.0 -68.5 L771.0 0.0 Q822.5 1.0 874.0 3.5 925.0 6.5 976.0 11.5 L976.0 70.5 Q910.0 64.5 844.5 61.5 779.0 58.5 713.5 58.5 647.5 58.5 582.5 61.5 517.0 64.5 451.5 70.5 L451.5 11.5 Q499.0 6.5 546.0 3.5 593.0 1.0 640.0 0.0 L640.0 -68.5 Q599.5 -67.0 559.0 -64.0 519.0 -61.0 479.0 -57.5 L479.0 -116.5 Q519.0 -120.5 559.5 -123.5 600.0 -126.5 640.0 -128.0 L640.0 -201.5 Q627.5 -201.0 615.5 -200.0 603.5 -199.5 592.0 -198.5 592.5 -189.5 593.5 -181.0 594.5 -172.5 596.0 -165.0 L464.0 -165.0 464.0 -168.0 Q460.0 -158.0 454.0 -149.5 448.0 -141.0 440.5 -134.0 427.5 -123.5 414.0 -118.0 401.0 -112.5 387.0 -112.5 370.0 -112.5 356.5 -119.0 342.5 -125.5 332.0 -139.5 L332.0 -35.0 Q358.0 -41.5 385.5 -51.0 413.5 -60.5 443.5 -72.5 L455.5 -21.5 Q400.5 0.0 352.0 15.0 303.5 30.0 262.0 38.0 219.0 45.0 168.5 49.5 118.0 53.5 59.5 55.5 L59.5 3.0 Q73.5 2.5 87.0 1.5 100.5 1.0 112.5 1.0 92.5 -50.5 74.5 -105.0 56.0 -159.5 40.0 -217.0 L151.5 -265.0 Q161.0 -220.5 173.0 -173.5 185.0 -126.5 199.5 -76.0 L199.5 -336.0 Q172.0 -334.5 144.5 -331.5 117.5 -329.0 91.0 -325.5 L91.0 -385.0 Q118.0 -389.0 145.0 -391.5 172.0 -394.0 199.5 -395.5 L199.5 -518.0 Q193.5 -517.5 188.0 -516.5 183.0 -516.0 178.0 -516.0 170.5 -490.0 163.0 -464.5 155.0 -438.5 147.5 -412.5 L27.5 -445.5 Q57.0 -537.5 78.5 -630.5 100.5 -723.5 115.5 -817.0" fill-rule="evenodd" stroke="none"/>
    </g>
    <g id="font_DFPOP3_Std_W12__27">
      <path d="M311.5 -829.5 L479.0 -829.5 479.0 -456.5 Q547.0 -475.0 602.5 -492.5 658.5 -509.5 701.5 -526.5 757.5 -546.5 814.0 -570.0 871.0 -594.0 927.5 -621.5 L943.0 -561.0 Q823.5 -503.0 703.5 -460.0 653.5 -443.0 597.5 -426.0 541.5 -409.5 479.0 -393.0 L479.0 -41.0 Q494.5 -41.0 510.0 -41.0 625.0 -41.0 740.5 -38.0 856.0 -35.0 972.0 -28.5 L972.0 30.5 Q856.0 24.5 740.5 21.5 625.0 18.5 510.0 18.5 394.0 18.5 278.0 21.5 162.5 24.5 47.0 30.5 L47.0 -28.5 Q113.0 -32.0 179.0 -34.5 245.0 -37.5 311.5 -39.0 L311.5 -829.5" fill-rule="evenodd" stroke="none"/>
    </g>
    <g id="font_DFPOP3_Std_W12__28">
      <path d="M584.5 -368.5 Q584.5 -382.5 579.5 -395.5 574.0 -408.5 563.0 -420.0 551.5 -430.5 539.0 -436.0 526.0 -441.5 512.0 -441.5 496.0 -441.5 483.0 -436.0 470.0 -431.0 460.0 -421.0 449.0 -410.0 444.0 -397.0 439.0 -384.0 439.5 -368.5 439.5 -353.5 444.5 -340.5 450.0 -328.0 461.0 -317.5 471.5 -306.0 484.0 -300.5 496.5 -295.0 512.0 -295.0 526.0 -295.0 539.0 -300.5 551.5 -306.0 563.0 -317.5 574.0 -328.0 579.5 -341.0 584.5 -354.0 584.5 -368.5 M665.5 -368.5 Q665.5 -338.0 654.0 -310.5 642.5 -283.0 619.5 -260.0 573.5 -214.0 512.0 -214.0 480.0 -214.0 452.5 -225.5 425.5 -237.0 403.5 -260.0 380.5 -282.5 369.5 -309.5 358.5 -336.5 358.5 -368.5 358.5 -434.5 401.5 -479.0 444.5 -522.0 512.0 -522.0 543.5 -522.0 570.5 -511.0 597.5 -499.5 620.5 -477.0 643.0 -454.0 654.0 -427.0 665.5 -400.0 665.5 -368.5" fill-rule="evenodd" stroke="none"/>
    </g>
  </defs>
</svg>
