<?xml version="1.0" encoding="UTF-8" standalone="no"?>
<svg xmlns:xlink="http://www.w3.org/1999/xlink" height="17.05px" width="174.95px" xmlns="http://www.w3.org/2000/svg">
  <g transform="matrix(1.0, 0.0, 0.0, 1.0, 17.2, 1.55)">
    <g transform="matrix(1.0, 0.0, 0.0, 1.0, -18.1, 0.0)">
      <use fill="#000000" height="17.05" transform="matrix(0.0146, 0.0, 0.0, 0.0146, 0.0, 13.0)" width="174.95" xlink:href="#font_DFPOP3_Std_W12__0"/>
      <use fill="#000000" height="17.05" transform="matrix(0.0146, 0.0, 0.0, 0.0146, 15.0, 13.0)" width="174.95" xlink:href="#font_DFPOP3_Std_W12__1"/>
      <use fill="#000000" height="17.05" transform="matrix(0.0146, 0.0, 0.0, 0.0146, 30.0, 13.0)" width="174.95" xlink:href="#font_DFPOP3_Std_W12__2"/>
      <use fill="#000000" height="17.05" transform="matrix(0.0146, 0.0, 0.0, 0.0146, 45.0, 13.0)" width="174.95" xlink:href="#font_DFPOP3_Std_W12__3"/>
      <use fill="#000000" height="17.05" transform="matrix(0.0146, 0.0, 0.0, 0.0146, 60.0, 13.0)" width="174.95" xlink:href="#font_DFPOP3_Std_W12__4"/>
      <use fill="#000000" height="17.05" transform="matrix(0.0146, 0.0, 0.0, 0.0146, 75.0, 13.0)" width="174.95" xlink:href="#font_DFPOP3_Std_W12__5"/>
      <use fill="#000000" height="17.05" transform="matrix(0.0146, 0.0, 0.0, 0.0146, 90.0, 13.0)" width="174.95" xlink:href="#font_DFPOP3_Std_W12__6"/>
      <use fill="#000000" height="17.05" transform="matrix(0.0146, 0.0, 0.0, 0.0146, 105.0, 13.0)" width="174.95" xlink:href="#font_DFPOP3_Std_W12__7"/>
      <use fill="#000000" height="17.05" transform="matrix(0.0146, 0.0, 0.0, 0.0146, 120.0, 13.0)" width="174.95" xlink:href="#font_DFPOP3_Std_W12__8"/>
      <use fill="#000000" height="17.05" transform="matrix(0.0146, 0.0, 0.0, 0.0146, 135.0, 13.0)" width="174.95" xlink:href="#font_DFPOP3_Std_W12__9"/>
      <use fill="#000000" height="17.05" transform="matrix(0.0146, 0.0, 0.0, 0.0146, 150.0, 13.0)" width="174.95" xlink:href="#font_DFPOP3_Std_W12__10"/>
      <use fill="#000000" height="17.05" transform="matrix(0.0146, 0.0, 0.0, 0.0146, 165.0, 13.0)" width="174.95" xlink:href="#font_DFPOP3_Std_W12__11"/>
    </g>
  </g>
  <defs>
    <g id="font_DFPOP3_Std_W12__0">
      <path d="M867.5 -789.5 Q887.0 -789.5 905.0 -783.0 923.0 -776.5 940.0 -764.0 955.5 -748.5 963.5 -729.0 971.5 -709.5 972.0 -685.0 971.5 -662.0 962.5 -643.0 953.5 -623.5 936.0 -608.5 919.0 -594.5 901.5 -588.0 884.5 -581.5 867.5 -581.5 844.5 -581.5 825.0 -590.5 805.5 -599.0 789.5 -617.5 776.5 -633.0 770.0 -649.5 764.0 -666.5 764.0 -685.0 764.0 -706.0 769.5 -723.5 775.0 -741.5 787.5 -756.5 803.0 -773.0 823.0 -781.0 843.0 -789.5 867.5 -789.5 M515.0 -817.0 L531.5 -752.5 Q490.0 -740.5 452.0 -731.0 414.5 -722.0 380.0 -716.0 L380.0 -536.5 Q413.0 -536.5 446.0 -537.0 479.5 -537.5 513.0 -537.5 536.0 -537.5 559.5 -537.0 583.5 -536.5 607.0 -536.5 592.0 -596.5 578.0 -658.0 564.0 -719.0 552.0 -781.5 L699.5 -829.5 Q716.5 -750.5 734.5 -676.5 753.0 -602.5 773.0 -533.5 821.5 -532.0 870.0 -530.0 918.5 -527.5 967.5 -525.5 L967.5 -465.0 Q923.0 -467.0 878.5 -469.0 834.5 -470.5 790.5 -472.0 796.5 -448.0 803.5 -425.5 810.5 -402.5 818.0 -381.0 819.0 -377.0 820.0 -374.0 821.0 -370.5 822.5 -367.5 833.0 -380.5 843.0 -394.0 853.5 -407.0 863.0 -421.0 L991.0 -328.5 Q966.0 -295.0 939.0 -261.0 912.5 -227.0 884.5 -191.5 906.0 -134.5 929.0 -80.0 951.5 -25.5 976.0 26.5 L823.5 102.5 Q807.0 65.5 792.5 29.5 777.5 -7.0 764.0 -43.0 736.5 -10.5 708.5 23.0 680.5 56.5 651.5 91.0 L523.5 -9.0 Q569.5 -60.0 614.0 -111.0 658.5 -162.0 701.5 -213.0 690.0 -245.5 679.5 -278.0 668.5 -310.5 659.5 -343.0 649.5 -376.0 640.5 -409.0 631.0 -442.5 622.5 -476.0 595.0 -476.0 567.5 -476.5 540.0 -477.0 513.0 -477.0 479.5 -477.0 446.0 -476.5 413.0 -476.0 380.0 -476.0 L380.0 -249.0 Q412.0 -268.0 448.0 -291.0 484.0 -314.0 523.5 -341.0 L555.0 -284.5 Q506.0 -251.0 462.0 -222.5 418.5 -194.5 380.0 -173.0 L380.0 99.5 219.0 99.5 219.0 -95.0 Q185.5 -81.5 150.0 -69.0 114.0 -56.5 76.0 -45.0 L55.5 -105.5 Q102.0 -120.0 143.0 -135.0 184.0 -149.5 219.0 -165.0 L219.0 -472.0 Q178.5 -470.5 138.5 -468.5 98.5 -466.5 59.5 -465.0 L59.5 -525.5 Q99.5 -527.0 139.5 -529.0 179.0 -531.0 219.0 -532.5 L219.0 -695.5 Q185.5 -692.0 150.0 -690.5 114.0 -689.0 76.0 -689.0 L76.0 -741.5 Q147.0 -743.0 204.0 -747.5 261.0 -752.5 304.0 -761.0 351.0 -767.5 404.0 -781.5 456.5 -795.5 515.0 -817.0" fill-rule="evenodd" stroke="none"/>
    </g>
    <g id="font_DFPOP3_Std_W12__1">
      <path d="M768.0 -553.0 Q805.0 -477.5 856.0 -392.5 907.0 -307.5 972.0 -213.0 L823.5 -137.0 Q769.5 -220.0 720.5 -309.0 671.5 -398.5 627.5 -493.5 L768.0 -553.0 M512.0 -781.5 Q736.5 -781.5 963.5 -769.0 L963.5 -709.5 Q874.5 -714.0 785.5 -716.5 696.5 -719.0 608.5 -720.0 571.5 -670.5 536.5 -624.0 501.5 -577.5 468.0 -533.5 L583.5 -533.5 583.5 99.5 415.5 99.5 415.5 -465.0 Q351.0 -382.0 292.0 -307.5 233.0 -233.5 179.0 -169.0 L47.0 -273.5 Q136.0 -368.0 229.0 -479.5 322.0 -591.0 419.0 -720.0 328.0 -719.0 238.5 -716.5 148.5 -714.0 59.5 -709.5 L59.5 -769.0 Q172.5 -775.0 285.5 -778.0 398.5 -781.5 512.0 -781.5" fill-rule="evenodd" stroke="none"/>
    </g>
    <g id="font_DFPOP3_Std_W12__2">
      <path d="M272.5 -116.5 Q334.0 -120.5 396.0 -123.0 457.5 -125.0 519.0 -125.0 625.0 -125.0 731.0 -119.0 L731.0 -125.0 Q731.0 -155.0 720.0 -170.0 708.5 -185.5 687.0 -185.5 600.5 -183.0 497.5 -174.5 394.0 -166.5 274.5 -152.5 273.5 -143.5 273.0 -134.5 272.5 -125.0 272.5 -116.5 M273.5 3.0 Q344.0 -1.0 414.0 -3.0 484.0 -5.0 554.0 -5.0 598.5 -5.0 642.5 -4.5 686.5 -3.5 731.0 -2.0 L731.0 -59.5 Q623.5 -65.5 519.0 -65.5 456.5 -65.5 394.5 -63.5 332.5 -61.0 271.5 -57.5 271.5 -42.0 271.5 -27.0 272.0 -11.5 273.5 3.0 M139.5 -237.5 L283.5 -237.5 Q280.5 -223.5 280.5 -213.0 423.5 -228.5 528.5 -236.5 634.0 -244.5 701.5 -244.5 L727.0 -244.5 Q771.5 -244.5 803.5 -237.0 835.5 -229.5 854.0 -214.0 872.5 -198.5 882.0 -177.5 892.0 -156.0 892.0 -129.0 L892.0 7.0 Q893.5 7.0 894.5 7.0 895.5 7.0 896.0 7.0 L896.0 66.5 Q810.0 60.5 724.5 58.0 639.0 55.0 554.0 55.5 485.0 55.5 416.5 57.0 347.5 58.5 278.5 62.5 279.5 71.5 280.5 81.0 282.0 90.0 283.5 99.5 L139.5 99.5 Q133.0 57.0 130.5 15.0 128.0 -26.5 128.0 -69.5 128.0 -111.0 130.5 -153.0 133.0 -195.5 139.5 -237.5 M314.5 -684.0 Q364.5 -688.5 414.5 -691.0 464.5 -693.0 515.0 -693.0 564.0 -693.0 612.5 -691.0 661.0 -689.0 708.5 -685.0 699.5 -697.5 691.5 -709.5 683.5 -721.5 676.0 -733.0 642.0 -773.0 599.0 -773.0 557.5 -772.5 493.0 -760.0 428.5 -747.5 341.0 -723.0 334.0 -713.0 327.5 -703.0 320.5 -693.5 314.5 -684.0 M256.0 -540.5 Q411.0 -557.0 525.0 -565.0 639.0 -573.5 711.5 -573.5 L739.5 -573.5 Q751.0 -573.5 761.0 -573.0 771.0 -572.0 780.5 -571.5 772.5 -584.5 765.0 -597.5 757.0 -610.5 749.5 -622.5 690.5 -627.5 632.0 -630.0 573.5 -633.0 515.0 -633.0 455.0 -633.0 395.5 -630.0 335.5 -627.0 275.5 -621.5 L275.5 -628.5 Q263.0 -612.0 251.0 -595.0 239.0 -578.0 227.5 -561.0 L259.0 -561.0 Q257.5 -555.5 257.0 -550.5 256.0 -545.5 256.0 -540.5 M694.5 -359.5 Q705.0 -358.5 716.0 -358.0 726.5 -357.5 737.5 -357.5 742.0 -387.5 744.5 -413.5 747.5 -439.5 747.5 -461.0 747.5 -487.0 736.5 -500.0 725.0 -513.0 703.5 -513.0 639.0 -510.0 571.5 -507.0 L571.5 -361.5 579.5 -361.5 Q592.0 -393.0 602.0 -425.0 612.0 -457.0 619.5 -489.5 L739.5 -477.0 Q731.0 -448.0 719.5 -418.5 708.0 -388.5 694.5 -359.5 M250.0 -352.5 Q262.0 -352.5 274.0 -353.0 285.5 -353.5 297.0 -354.5 288.0 -382.0 280.5 -408.5 273.5 -435.0 267.5 -461.0 L387.0 -485.5 Q402.5 -421.0 424.0 -359.5 428.5 -359.5 432.5 -360.0 436.0 -360.5 439.5 -360.5 L439.5 -497.5 Q394.0 -493.0 346.5 -488.5 299.0 -484.0 250.0 -479.0 248.5 -461.5 248.0 -444.5 247.5 -428.0 248.0 -411.5 247.5 -396.5 248.0 -381.5 248.5 -367.0 250.0 -352.5 M239.5 -845.0 L331.0 -780.5 Q423.5 -806.5 505.0 -819.5 586.0 -833.0 655.5 -833.5 L664.5 -833.5 Q695.5 -833.5 723.0 -823.0 750.5 -812.5 775.0 -792.5 808.0 -765.0 865.0 -698.0 922.0 -631.5 1003.5 -525.5 L892.0 -462.0 Q892.0 -435.5 889.0 -408.0 886.0 -380.0 880.5 -350.0 884.5 -349.5 888.5 -349.5 892.0 -349.0 896.0 -349.0 L896.0 -289.0 Q807.5 -295.0 719.5 -298.0 631.5 -301.0 543.5 -301.0 471.5 -301.0 399.5 -299.0 327.0 -296.5 255.0 -293.0 255.5 -284.5 256.5 -276.5 257.5 -269.0 259.0 -261.0 L128.0 -261.0 Q115.5 -335.0 115.5 -411.5 115.5 -427.5 116.0 -444.0 116.5 -460.5 118.0 -477.0 L27.5 -549.0 Q86.0 -622.5 139.0 -697.0 192.0 -771.0 239.5 -845.0" fill-rule="evenodd" stroke="none"/>
    </g>
    <g id="font_DFPOP3_Std_W12__3">
      <path d="M674.0 -333.0 Q695.5 -334.5 717.0 -335.5 738.5 -337.0 760.0 -337.0 776.5 -337.0 793.5 -336.5 810.5 -335.5 827.5 -335.0 821.0 -362.5 812.0 -371.5 803.0 -378.0 793.5 -381.5 784.5 -385.0 775.0 -385.0 752.0 -384.5 727.5 -380.5 702.5 -376.5 676.0 -368.5 675.0 -359.5 674.5 -350.5 674.0 -341.5 674.0 -333.0 M671.5 -221.0 Q692.5 -223.0 713.5 -224.0 734.0 -225.0 755.5 -225.5 774.0 -225.0 793.0 -224.0 812.0 -223.0 830.5 -221.0 830.5 -233.5 831.0 -246.0 831.5 -258.5 831.5 -271.5 L831.5 -274.5 Q813.0 -276.0 795.0 -276.5 777.0 -277.5 760.0 -277.5 737.5 -277.5 715.5 -276.0 693.5 -274.5 671.5 -272.5 L671.5 -221.0 M614.5 -538.5 Q637.5 -541.5 661.0 -543.5 684.5 -545.5 707.5 -547.0 L707.5 -611.5 Q689.0 -610.5 672.0 -609.0 655.0 -608.0 639.0 -606.0 626.5 -572.5 614.5 -538.5 M159.5 -409.5 L159.5 -6.0 Q172.0 -7.0 179.5 -13.5 187.5 -20.5 190.5 -33.0 215.0 -223.0 215.0 -377.0 215.0 -394.5 207.0 -403.5 198.5 -412.5 183.5 -412.5 179.0 -412.5 173.0 -412.0 167.5 -411.0 159.5 -409.5 M159.5 -751.5 L159.5 -467.0 Q162.0 -467.0 164.0 -467.0 166.5 -467.0 168.0 -468.0 182.0 -522.0 194.5 -577.5 207.5 -633.5 219.0 -691.0 223.0 -709.5 225.0 -723.5 227.5 -737.0 227.5 -745.5 227.5 -748.5 212.0 -750.5 197.0 -752.5 168.0 -752.5 165.5 -752.5 163.5 -752.0 161.5 -751.5 159.5 -751.5 M256.0 -813.0 Q336.0 -813.0 348.0 -764.0 349.0 -765.5 350.0 -767.0 351.0 -768.5 352.5 -770.0 364.5 -781.5 379.5 -787.5 394.0 -793.5 411.5 -793.5 427.0 -793.5 441.0 -789.0 455.0 -784.5 468.0 -775.0 479.5 -763.5 485.5 -749.0 491.5 -734.5 491.5 -717.0 491.5 -681.5 464.0 -658.5 438.0 -637.0 411.5 -637.0 395.0 -637.0 380.5 -644.0 366.5 -651.0 354.5 -664.5 350.5 -669.0 347.5 -674.5 344.5 -679.5 343.0 -685.0 341.5 -676.0 339.5 -666.5 337.0 -657.0 335.0 -647.0 325.5 -602.5 314.0 -556.0 303.0 -509.0 290.0 -461.0 312.0 -449.5 323.5 -428.5 335.0 -407.5 336.0 -377.0 336.0 -306.0 330.0 -218.0 324.0 -130.0 312.5 -24.5 311.5 -20.0 311.0 -16.5 310.0 -13.0 309.0 -10.0 343.0 -35.0 380.0 -62.5 L380.0 -441.5 Q380.0 -469.0 355.5 -469.0 346.0 -467.5 335.0 -462.5 324.5 -457.5 311.5 -449.5 L311.5 -509.0 Q332.5 -518.0 354.5 -523.5 376.5 -528.5 399.5 -529.5 424.0 -529.5 443.0 -524.0 462.0 -519.0 474.0 -509.0 496.5 -559.0 515.5 -609.0 534.5 -659.0 550.0 -709.5 539.0 -708.0 528.5 -707.0 518.0 -706.5 508.0 -705.5 L508.0 -765.0 Q522.5 -766.5 537.0 -767.5 552.0 -768.5 567.5 -770.0 572.0 -787.0 576.0 -804.0 580.0 -820.5 583.5 -837.5 L703.5 -825.5 Q697.5 -801.0 691.0 -776.0 702.5 -776.5 713.5 -776.5 724.5 -777.0 735.0 -777.0 792.0 -777.0 849.5 -774.0 906.5 -771.0 963.5 -765.0 L963.5 -705.5 Q906.5 -711.0 849.5 -714.0 792.0 -717.0 735.0 -717.0 719.0 -716.5 703.5 -716.5 688.5 -716.0 674.0 -716.0 670.0 -703.5 666.0 -691.5 662.5 -679.0 659.5 -667.5 687.0 -670.0 715.5 -671.5 743.5 -672.5 771.0 -673.0 814.0 -672.5 857.0 -670.0 900.0 -667.0 943.0 -661.5 L943.0 -601.0 Q916.0 -604.0 889.5 -607.0 862.5 -609.5 835.5 -611.5 L835.5 -548.0 Q866.5 -546.5 897.5 -544.0 928.5 -541.5 959.5 -537.5 L959.5 -477.0 Q870.5 -489.5 781.5 -489.5 692.0 -489.5 603.0 -477.0 L603.0 -512.0 Q598.0 -499.5 593.0 -487.5 588.5 -475.5 583.5 -465.0 L491.5 -487.5 Q497.5 -476.5 500.5 -464.5 504.0 -452.0 504.0 -437.0 L504.0 -96.5 Q516.0 -91.0 530.5 -86.0 545.0 -81.5 561.0 -77.0 556.5 -121.5 554.0 -165.0 552.0 -209.0 552.0 -253.0 552.0 -300.5 554.5 -349.0 557.0 -397.0 563.0 -445.5 L683.0 -445.5 Q682.0 -441.0 681.5 -436.0 681.0 -431.5 681.0 -427.0 754.5 -444.0 819.0 -445.5 L836.5 -445.5 Q869.0 -445.5 891.5 -439.5 913.5 -433.0 926.5 -421.0 943.0 -405.5 951.0 -368.0 959.5 -330.5 959.5 -271.5 959.5 -223.0 957.5 -182.5 955.5 -141.5 952.5 -108.5 949.5 -88.5 942.0 -74.0 935.0 -59.5 922.5 -50.0 910.5 -42.5 891.5 -38.0 873.0 -33.5 847.0 -33.0 L827.5 -33.0 Q815.0 -32.5 799.0 -34.5 783.0 -36.5 764.0 -41.0 L764.0 -101.5 Q770.0 -97.0 776.0 -95.0 782.0 -93.0 787.5 -93.0 805.0 -93.0 814.5 -99.5 824.0 -106.0 825.5 -119.0 827.0 -137.0 828.5 -162.0 810.0 -163.5 791.5 -164.0 773.5 -165.0 755.5 -165.0 735.0 -165.0 715.0 -163.5 695.0 -162.5 675.0 -161.0 675.5 -135.5 678.0 -110.5 680.0 -86.0 683.0 -61.5 L616.5 -61.5 Q624.0 -59.0 632.5 -57.0 640.5 -55.0 649.0 -53.0 715.5 -36.5 799.0 -26.5 882.5 -16.5 983.0 -13.5 L976.0 110.5 Q897.5 107.5 826.0 100.5 755.0 93.5 691.0 83.0 641.5 73.5 586.0 58.5 530.5 43.5 469.0 22.5 L455.5 18.5 Q451.0 18.5 435.0 38.5 419.0 58.5 391.0 99.5 L301.0 11.5 Q289.0 32.0 265.5 43.0 242.5 54.0 208.0 55.5 L159.5 55.5 159.5 99.5 47.0 99.5 47.0 -829.5 159.5 -829.5 159.5 -807.0 Q201.0 -811.5 249.0 -813.0 L256.0 -813.0" fill-rule="evenodd" stroke="none"/>
    </g>
    <g id="font_DFPOP3_Std_W12__4">
      <path d="M896.0 -153.5 Q919.0 -64.5 963.5 30.5 L831.5 83.0 Q810.0 27.5 794.0 -22.5 778.0 -72.0 768.0 -116.5 L896.0 -153.5 M263.0 -153.5 L411.5 -153.5 Q399.5 -103.5 393.0 -72.5 387.0 -41.0 387.0 -28.5 387.0 -1.0 399.0 13.0 410.5 26.5 435.0 26.5 463.0 26.5 494.0 25.0 525.5 23.5 560.0 20.5 546.0 16.5 534.5 9.0 522.5 1.5 513.0 -9.0 502.5 -23.0 497.0 -38.5 491.5 -53.5 491.5 -69.5 491.5 -86.5 496.5 -102.0 501.0 -117.0 511.0 -130.0 525.0 -143.0 542.0 -150.0 559.0 -156.5 579.5 -156.5 596.5 -156.5 612.5 -151.5 628.5 -146.0 644.0 -136.0 658.0 -123.0 665.0 -106.5 671.5 -89.5 671.5 -69.5 671.5 -49.0 663.5 -32.0 655.5 -15.0 640.0 -1.0 633.0 3.5 627.0 7.5 620.5 11.5 614.5 14.5 652.5 10.0 694.0 4.0 735.0 -1.5 779.5 -9.0 L779.5 51.0 Q664.0 69.0 568.0 78.0 472.0 87.0 395.5 87.0 354.5 87.0 324.5 79.5 295.0 72.5 276.5 58.5 259.5 44.5 250.5 26.0 241.0 7.0 239.5 -17.5 239.5 -31.5 245.0 -65.5 251.0 -100.0 263.0 -153.5 M91.0 -125.0 L223.0 -112.5 Q215.0 -57.5 204.0 -8.5 193.0 40.0 179.0 83.0 L47.0 58.5 Q61.0 20.0 72.0 -25.5 82.5 -71.0 91.0 -125.0 M249.0 -353.5 Q315.5 -357.0 382.5 -359.5 449.5 -361.5 517.0 -361.5 577.0 -361.5 637.5 -360.0 698.0 -358.5 759.0 -355.5 759.0 -361.5 759.5 -368.0 759.5 -374.5 760.0 -381.0 760.0 -433.0 707.5 -433.0 611.0 -431.0 496.5 -422.0 382.0 -412.5 250.0 -397.5 249.0 -386.0 249.0 -375.0 249.0 -364.0 249.0 -353.5 M251.0 -236.5 Q326.0 -240.5 401.0 -242.5 475.5 -244.5 550.0 -244.5 599.0 -244.5 647.5 -244.0 696.5 -243.0 745.5 -241.5 748.0 -255.5 750.0 -269.0 752.0 -282.5 753.5 -295.0 634.0 -301.0 517.0 -301.0 449.5 -301.0 382.0 -299.0 314.5 -296.5 248.0 -293.0 248.0 -278.5 248.5 -264.5 249.5 -250.5 251.0 -236.5 M115.5 -489.5 L259.0 -489.5 Q257.5 -482.0 256.5 -474.0 255.5 -466.5 255.0 -459.0 413.0 -475.5 530.0 -484.5 646.5 -493.5 722.0 -493.5 L751.5 -493.5 Q793.0 -493.5 822.5 -486.0 851.5 -478.5 869.5 -464.0 886.5 -449.0 894.5 -429.5 903.0 -409.5 903.0 -385.0 903.0 -317.5 888.0 -234.5 894.0 -234.5 899.5 -234.0 905.5 -233.5 911.5 -233.5 L911.5 -173.0 Q820.5 -179.0 730.0 -182.5 640.0 -185.5 550.0 -185.5 476.0 -185.5 402.5 -183.0 329.5 -181.0 257.0 -177.0 257.0 -171.0 257.5 -165.0 258.5 -159.0 259.0 -153.5 L115.5 -153.5 Q109.5 -195.0 106.5 -237.0 103.5 -279.5 103.5 -321.5 103.5 -363.0 106.5 -405.0 109.5 -447.0 115.5 -489.5 M344.0 -603.0 Q385.5 -604.0 427.0 -604.5 468.5 -605.0 510.0 -605.0 551.5 -605.0 593.0 -604.5 634.5 -604.0 676.0 -603.0 682.0 -632.5 685.5 -658.5 688.5 -684.5 690.0 -707.5 644.0 -708.5 598.5 -709.0 553.0 -709.5 508.0 -709.5 465.0 -709.5 422.0 -709.0 379.5 -708.5 338.0 -707.5 336.5 -700.5 336.0 -694.5 336.0 -688.5 336.0 -683.0 336.0 -662.5 337.5 -642.5 339.5 -622.5 344.0 -603.0 M427.0 -837.5 L588.0 -837.5 588.0 -768.0 Q670.5 -767.0 753.5 -764.5 836.5 -761.5 919.5 -756.5 L919.5 -697.5 Q896.5 -699.0 874.0 -700.0 852.0 -701.0 830.5 -702.5 828.0 -676.5 823.5 -650.5 819.0 -624.5 813.0 -599.0 847.0 -597.5 880.0 -596.0 913.5 -594.5 947.0 -593.0 L947.0 -533.5 Q837.5 -539.0 728.0 -542.0 619.0 -544.5 510.0 -545.0 400.0 -544.5 290.5 -542.0 181.0 -539.0 71.5 -533.5 L71.5 -593.0 Q106.5 -594.5 140.5 -596.0 175.0 -597.5 209.0 -599.0 202.0 -620.5 199.0 -642.0 195.5 -663.0 195.5 -683.0 195.5 -687.5 196.0 -692.5 196.0 -698.0 197.5 -702.5 171.5 -701.0 145.5 -700.0 120.0 -699.0 95.0 -697.5 L95.0 -756.5 Q178.0 -761.5 261.0 -764.5 344.0 -767.0 427.0 -768.0 L427.0 -837.5" fill-rule="evenodd" stroke="none"/>
    </g>
    <g id="font_DFPOP3_Std_W12__5">
      <path d="M731.0 -781.5 Q770.5 -781.5 798.5 -740.5 827.0 -700.0 844.0 -619.5 870.0 -513.5 901.5 -351.0 933.5 -188.0 972.0 30.5 L839.5 87.0 Q806.0 -161.0 779.5 -337.0 752.5 -513.0 734.0 -617.5 725.0 -669.0 716.0 -695.0 707.0 -721.0 699.5 -721.0 679.5 -715.5 641.5 -704.5 604.0 -693.5 548.0 -677.0 L548.0 -737.5 Q615.5 -758.0 659.5 -769.0 703.5 -780.0 725.0 -781.5 L731.0 -781.5 M186.5 -476.0 Q210.0 -478.5 234.5 -480.0 259.0 -481.0 283.5 -481.5 L293.0 -481.5 Q296.0 -589.0 296.0 -665.5 296.0 -688.5 281.5 -700.5 267.5 -712.5 239.5 -712.5 227.5 -711.0 215.0 -709.0 202.0 -706.5 188.5 -703.5 185.5 -671.0 184.5 -639.5 183.0 -608.5 183.5 -577.5 183.5 -525.5 186.5 -476.0 M67.5 -781.5 L195.5 -781.5 Q195.0 -776.0 194.0 -770.5 193.5 -765.5 193.5 -761.0 239.5 -773.0 267.5 -773.0 L275.5 -773.0 Q315.5 -773.0 344.5 -766.0 373.0 -759.5 390.0 -745.5 424.0 -718.0 424.0 -668.5 424.0 -581.0 421.0 -472.0 427.0 -471.5 432.5 -470.5 438.0 -470.0 443.5 -469.0 L443.5 -409.5 Q415.5 -413.5 389.0 -416.0 362.0 -418.5 336.0 -420.0 L336.0 -257.0 341.0 -257.0 Q384.0 -257.0 427.0 -244.5 L427.0 -185.5 Q384.0 -197.5 341.0 -197.5 L336.0 -197.5 336.0 15.5 Q350.5 12.5 366.0 9.0 381.5 6.0 398.5 3.0 435.0 -156.0 463.5 -316.0 492.0 -475.5 512.0 -637.0 L643.0 -621.5 Q621.5 -449.5 590.5 -273.0 560.0 -97.0 519.0 83.0 L415.5 58.5 415.5 62.5 Q345.0 75.0 288.0 81.0 231.0 87.0 187.5 87.0 L159.5 87.0 Q130.5 87.0 107.5 76.5 84.0 66.0 66.5 45.0 53.0 30.5 46.5 9.5 40.0 -12.0 40.0 -41.0 40.0 -55.5 38.5 -125.5 37.5 -195.5 36.0 -321.5 L164.0 -321.5 Q165.5 -185.0 166.5 -114.0 168.0 -43.0 168.0 -37.0 168.0 -18.5 172.0 -6.5 175.5 5.0 183.5 11.5 192.5 19.0 208.0 23.5 L208.0 -418.0 Q203.0 -417.5 199.0 -417.5 194.5 -417.0 190.5 -417.0 191.5 -405.5 192.5 -394.5 194.0 -383.5 195.5 -372.5 L67.5 -372.5 Q61.5 -423.5 58.5 -475.0 55.5 -526.0 55.5 -577.5 55.5 -628.0 58.5 -679.0 61.5 -730.0 67.5 -781.5" fill-rule="evenodd" stroke="none"/>
    </g>
    <g id="font_DFPOP3_Std_W12__6">
      <path d="M548.0 -367.5 L548.0 -557.0 707.5 -557.0 707.5 -367.5 Q767.5 -367.0 827.5 -364.5 887.5 -362.0 947.0 -357.5 L947.0 -297.0 Q887.5 -301.5 827.5 -304.0 767.5 -307.0 707.5 -308.0 L707.5 -20.5 Q773.0 -19.5 838.0 -17.0 903.0 -14.0 967.5 -9.0 L967.5 51.0 Q886.5 45.0 805.5 42.0 724.5 39.0 643.0 39.0 561.5 39.0 481.0 42.0 400.0 45.0 319.5 51.0 L319.5 -9.0 Q376.5 -14.0 433.5 -16.5 491.0 -19.0 548.0 -20.5 L548.0 -308.0 Q492.5 -306.5 438.5 -303.5 384.5 -301.0 332.0 -297.0 L332.0 -357.5 Q385.5 -361.0 439.5 -363.5 493.5 -366.0 548.0 -367.5 M512.0 -689.0 Q736.5 -689.0 963.5 -677.0 L963.5 -617.5 Q850.0 -623.0 737.0 -626.0 624.0 -628.5 512.0 -628.5 485.0 -628.5 459.0 -628.0 433.0 -628.0 407.5 -627.5 388.5 -595.5 371.5 -566.0 354.5 -536.0 339.0 -510.0 329.5 -495.5 320.5 -481.5 311.5 -467.5 303.0 -454.5 L303.0 95.0 151.5 95.0 151.5 -264.0 27.5 -353.5 Q70.5 -408.5 112.0 -466.0 153.0 -524.0 191.5 -583.5 197.5 -593.5 204.5 -603.5 211.0 -613.5 218.0 -623.5 178.0 -622.0 138.5 -620.5 98.5 -619.0 59.5 -617.5 L59.5 -677.0 Q108.5 -679.0 157.5 -681.5 207.0 -683.5 256.0 -685.0 279.0 -723.5 302.0 -763.5 325.0 -803.5 347.0 -845.0 L508.0 -805.0 Q490.5 -774.0 474.0 -745.0 457.5 -716.0 442.5 -688.0 459.5 -688.0 477.0 -688.5 494.5 -689.0 512.0 -689.0" fill-rule="evenodd" stroke="none"/>
    </g>
    <g id="font_DFPOP3_Std_W12__7">
      <path d="M252.0 -499.5 Q385.5 -509.0 519.0 -509.0 653.0 -509.0 786.5 -499.5 786.5 -510.5 787.0 -520.5 787.5 -530.5 787.5 -540.5 787.5 -564.5 777.5 -576.5 767.5 -589.0 747.5 -589.0 644.5 -587.5 521.5 -584.0 399.0 -581.0 256.0 -575.5 254.5 -555.5 253.0 -537.0 252.0 -518.0 252.0 -499.5 M257.0 -368.5 Q335.5 -372.5 413.5 -374.5 491.5 -377.0 569.5 -377.0 621.0 -377.0 672.0 -376.0 723.5 -375.5 774.0 -374.0 776.5 -391.5 778.5 -408.0 781.0 -425.0 782.5 -440.5 716.5 -445.0 651.0 -447.0 585.0 -449.5 519.0 -449.5 451.5 -449.5 385.5 -447.0 319.0 -445.0 253.0 -440.5 253.0 -422.0 254.0 -404.0 255.5 -386.5 257.0 -368.5 M455.5 -249.0 L455.5 -316.5 Q407.5 -315.0 359.5 -313.0 312.0 -311.5 265.0 -309.0 265.0 -304.5 266.0 -300.5 266.5 -296.0 267.5 -293.0 L128.0 -293.0 Q119.5 -339.0 115.5 -385.0 111.5 -431.0 111.5 -477.0 111.5 -523.5 115.5 -569.5 119.5 -615.5 128.0 -661.5 L267.5 -661.5 Q266.0 -654.5 265.0 -648.5 264.0 -642.0 263.0 -636.0 304.0 -637.5 342.0 -639.0 380.5 -640.5 415.5 -642.0 L415.5 -829.5 555.0 -829.5 555.0 -759.0 Q627.0 -765.0 699.5 -765.0 805.5 -765.0 911.5 -752.5 L911.5 -693.0 Q805.5 -705.5 699.5 -705.5 625.5 -705.5 555.0 -699.5 L555.0 -646.0 Q615.5 -647.5 665.5 -648.5 715.0 -649.0 753.5 -649.0 L783.5 -649.0 Q823.5 -649.0 852.0 -642.5 881.0 -635.5 898.0 -621.5 932.0 -594.0 932.0 -545.0 932.0 -505.5 928.0 -461.0 924.0 -417.0 916.5 -367.5 924.0 -367.0 932.0 -366.0 939.5 -365.5 947.0 -365.5 L947.0 -305.0 Q859.5 -310.5 772.5 -313.5 685.0 -316.5 599.0 -317.5 L599.0 -249.0 Q692.5 -247.5 786.0 -244.5 879.0 -242.0 972.0 -237.5 L972.0 -177.0 Q919.5 -179.5 867.5 -181.5 815.5 -184.0 765.0 -185.5 805.0 -144.0 854.5 -99.0 903.5 -54.0 963.5 -5.0 L815.0 70.5 Q762.0 9.0 713.5 -55.5 665.0 -120.0 620.5 -188.5 L599.0 -188.5 599.0 91.0 455.5 91.0 455.5 -189.5 432.0 -189.5 Q377.0 -119.0 318.5 -55.0 260.5 9.0 199.5 66.5 L59.5 -5.0 Q119.5 -49.5 171.5 -95.0 224.0 -140.0 269.5 -185.5 220.0 -184.0 172.0 -181.5 123.5 -179.5 76.0 -177.0 L76.0 -237.5 Q171.0 -242.0 265.5 -244.5 360.5 -247.5 455.5 -249.0" fill-rule="evenodd" stroke="none"/>
    </g>
    <g id="font_DFPOP3_Std_W12__8">
      <path d="M311.5 -829.5 L479.0 -829.5 479.0 -456.5 Q547.0 -475.0 602.5 -492.5 658.5 -509.5 701.5 -526.5 757.5 -546.5 814.0 -570.0 871.0 -594.0 927.5 -621.5 L943.0 -561.0 Q823.5 -503.0 703.5 -460.0 653.5 -443.0 597.5 -426.0 541.5 -409.5 479.0 -393.0 L479.0 -41.0 Q494.5 -41.0 510.0 -41.0 625.0 -41.0 740.5 -38.0 856.0 -35.0 972.0 -28.5 L972.0 30.5 Q856.0 24.5 740.5 21.5 625.0 18.5 510.0 18.5 394.0 18.5 278.0 21.5 162.5 24.5 47.0 30.5 L47.0 -28.5 Q113.0 -32.0 179.0 -34.5 245.0 -37.5 311.5 -39.0 L311.5 -829.5" fill-rule="evenodd" stroke="none"/>
    </g>
    <g id="font_DFPOP3_Std_W12__9">
      <path d="M331.0 -249.0 Q389.0 -252.5 447.0 -255.0 505.0 -257.0 563.0 -257.0 613.0 -257.0 663.0 -255.5 713.0 -254.0 764.0 -251.0 L764.0 -253.0 Q764.0 -290.5 743.5 -309.5 723.0 -328.5 683.0 -328.5 609.5 -326.5 521.5 -318.0 434.0 -309.0 333.0 -294.0 332.0 -281.5 331.5 -270.5 331.0 -259.5 331.0 -249.0 M327.5 -121.0 Q387.0 -124.5 446.0 -127.0 505.0 -129.0 563.0 -129.0 663.0 -129.0 763.0 -123.0 763.0 -141.5 763.0 -158.5 763.0 -175.5 764.0 -191.5 713.0 -194.5 663.0 -196.0 612.5 -197.5 563.0 -197.5 504.0 -197.5 445.5 -195.5 387.0 -193.5 328.5 -189.5 328.0 -175.5 328.0 -162.5 327.5 -149.5 327.5 -137.0 L327.5 -121.0 M333.0 11.5 Q399.5 6.5 466.5 5.0 533.5 3.0 601.0 3.0 681.0 3.0 761.0 6.0 761.0 -12.0 761.0 -29.5 761.0 -46.5 762.0 -63.5 712.0 -66.5 662.0 -68.0 612.5 -69.5 563.0 -69.5 505.0 -69.5 446.0 -67.5 387.0 -65.5 328.5 -61.5 329.0 -43.0 330.0 -24.5 331.0 -6.5 333.0 11.5 M936.0 -821.0 L947.0 -769.0 Q709.0 -737.0 529.5 -726.0 518.0 -725.0 506.5 -724.5 495.0 -724.0 484.5 -724.0 476.0 -705.5 468.0 -688.0 460.5 -670.0 452.5 -653.5 L512.0 -653.5 Q619.5 -653.5 727.0 -650.0 835.0 -647.0 943.0 -641.0 L943.0 -581.5 Q835.0 -587.0 727.0 -590.0 619.5 -593.0 512.0 -593.0 490.0 -593.0 468.0 -592.5 446.5 -592.0 425.0 -592.0 416.0 -572.5 408.0 -555.0 400.0 -537.0 392.0 -520.0 421.5 -520.5 451.5 -520.5 481.5 -521.0 512.0 -521.0 625.5 -521.0 739.5 -518.0 853.5 -515.0 967.5 -509.0 L967.5 -449.5 Q853.5 -455.0 739.5 -458.0 625.5 -461.0 512.0 -461.0 474.5 -460.5 437.5 -460.5 400.5 -460.0 363.5 -460.0 354.5 -440.5 346.5 -423.0 338.5 -405.5 331.0 -390.0 329.0 -386.5 327.0 -383.0 325.0 -380.0 323.5 -377.0 L340.0 -377.0 Q339.0 -370.5 338.5 -365.0 338.0 -359.5 338.0 -354.5 461.5 -371.5 553.0 -380.0 644.5 -389.0 703.5 -389.0 L727.0 -389.0 Q777.5 -389.0 813.5 -380.0 849.0 -371.0 870.5 -353.5 890.5 -335.5 901.0 -311.5 911.5 -287.5 911.5 -257.0 911.5 -197.0 910.5 -129.5 910.0 -61.5 908.5 14.5 913.5 14.5 919.5 14.5 925.5 14.5 932.0 15.5 L932.0 75.0 Q849.0 68.5 766.5 65.5 684.0 62.5 601.0 62.5 534.0 62.5 468.5 64.5 402.5 66.0 338.0 70.5 338.0 78.5 338.5 86.5 339.0 94.5 340.0 102.5 L208.0 102.5 Q201.5 42.5 198.5 -16.5 195.5 -75.5 195.5 -135.0 188.0 -120.0 179.5 -105.0 171.5 -90.5 164.0 -77.0 L43.0 -161.0 Q126.0 -294.5 196.5 -437.0 201.0 -446.5 206.0 -455.5 129.0 -452.5 55.5 -449.5 L55.5 -509.0 Q100.5 -511.0 146.0 -513.0 191.5 -514.5 237.5 -516.0 246.0 -534.5 254.5 -552.5 263.0 -570.5 271.5 -589.0 223.0 -587.5 175.0 -585.5 127.5 -584.0 80.0 -581.5 L80.0 -641.0 Q135.0 -644.0 190.0 -646.5 245.0 -648.5 300.0 -650.0 307.5 -667.0 315.0 -684.0 322.0 -701.0 329.5 -718.0 273.5 -715.5 214.0 -714.0 154.0 -712.5 91.0 -712.5 L91.0 -765.0 Q229.5 -766.5 338.5 -770.0 448.0 -773.0 529.5 -779.5 620.0 -784.5 721.5 -795.5 823.0 -806.0 936.0 -821.0" fill-rule="evenodd" stroke="none"/>
    </g>
    <g id="font_DFPOP3_Std_W12__10">
      <path d="M244.5 -109.5 Q314.5 -112.5 384.5 -114.5 454.5 -116.5 525.5 -116.5 586.0 -116.5 646.5 -115.5 707.0 -114.0 767.0 -111.5 762.5 -173.0 699.5 -173.0 509.0 -170.0 248.0 -151.5 246.5 -140.0 245.5 -129.5 244.5 -119.0 244.5 -109.5 M248.0 11.5 Q326.0 6.5 404.0 5.0 481.5 3.0 559.0 3.0 610.5 3.0 661.5 4.0 712.0 4.5 763.0 6.0 764.5 -9.0 765.5 -23.5 766.0 -38.0 767.0 -51.0 706.5 -54.5 646.0 -56.0 585.0 -57.5 525.5 -57.5 454.5 -57.5 384.0 -55.0 313.5 -53.0 243.5 -49.0 244.0 -34.0 245.0 -18.5 246.0 -3.5 248.0 11.5 M99.5 -229.5 L259.0 -229.5 Q256.0 -218.5 256.0 -211.0 413.5 -222.0 530.0 -227.5 646.5 -233.5 722.0 -233.5 L751.5 -233.5 Q799.5 -233.5 833.5 -224.5 868.0 -215.5 888.0 -198.5 908.0 -181.5 918.0 -158.0 927.5 -134.5 927.5 -105.5 927.5 -51.5 921.5 14.5 928.5 14.5 935.0 14.5 941.0 14.5 947.0 15.5 L947.0 75.0 Q850.5 68.5 753.0 65.5 656.0 62.5 559.0 62.5 482.5 62.5 406.5 64.0 330.0 66.0 255.0 69.5 255.5 77.5 256.5 85.0 257.5 92.5 259.0 99.5 L99.5 99.5 Q91.5 58.0 88.0 17.0 84.0 -24.0 84.0 -65.5 84.0 -106.0 88.0 -147.0 91.5 -188.0 99.5 -229.5 M583.5 -620.5 L583.5 -560.0 Q673.0 -560.0 762.0 -557.0 762.5 -574.0 763.5 -589.0 764.0 -604.5 765.0 -617.5 673.0 -620.5 583.5 -620.5 M583.5 -745.5 L583.5 -680.0 Q676.0 -680.0 768.0 -677.0 L768.0 -697.5 Q768.0 -734.0 712.5 -740.5 696.5 -742.5 670.5 -744.0 644.5 -745.5 608.5 -745.5 L583.5 -745.5 M624.5 -805.0 L647.0 -805.0 Q738.5 -805.0 796.0 -797.5 854.0 -790.0 877.5 -776.0 898.5 -764.5 909.0 -748.0 919.5 -731.0 919.5 -709.5 L919.5 -670.5 Q932.0 -670.0 945.0 -669.5 958.0 -668.5 972.0 -668.5 L972.0 -609.5 Q958.0 -609.5 944.5 -610.0 931.0 -610.5 918.5 -611.5 917.5 -596.0 917.0 -580.5 916.5 -565.0 916.5 -550.0 921.0 -550.0 926.0 -549.5 931.5 -549.0 936.0 -549.0 L936.0 -489.5 Q847.0 -494.0 759.0 -496.5 671.0 -499.5 583.5 -500.5 L583.5 -448.5 Q669.5 -447.5 755.5 -445.0 841.5 -442.0 927.5 -437.0 L927.5 -377.0 Q841.5 -381.5 755.5 -384.5 669.5 -387.5 583.5 -388.0 L583.5 -337.0 Q680.5 -335.5 777.5 -333.0 874.5 -330.0 972.0 -325.5 L972.0 -265.0 Q856.5 -271.5 741.5 -274.5 626.5 -277.5 512.0 -277.5 281.5 -277.5 51.0 -265.0 L51.0 -325.5 Q145.0 -330.0 238.0 -332.5 331.0 -335.0 424.0 -336.0 L424.0 -388.0 Q338.5 -387.5 253.5 -384.5 168.5 -381.5 84.0 -377.0 L84.0 -437.0 Q169.0 -442.0 254.5 -445.0 339.5 -447.5 424.0 -448.5 L424.0 -499.5 Q342.5 -499.0 261.0 -496.5 180.0 -494.0 99.5 -489.5 L99.5 -549.0 Q180.5 -553.5 261.5 -556.0 342.5 -558.5 424.0 -560.0 L424.0 -620.5 Q330.5 -619.5 237.0 -617.0 144.0 -614.0 51.0 -609.5 L51.0 -668.5 Q145.0 -673.5 238.0 -676.0 331.0 -679.0 424.0 -680.0 L424.0 -740.5 Q345.5 -736.5 264.5 -729.5 183.5 -722.5 99.5 -712.5 L99.5 -773.0 Q179.0 -783.0 260.0 -790.0 341.0 -797.0 424.0 -801.0 L424.0 -849.0 583.5 -849.0 583.5 -805.0 624.5 -805.0" fill-rule="evenodd" stroke="none"/>
    </g>
    <g id="font_DFPOP3_Std_W12__11">
      <path d="M584.5 -368.5 Q584.5 -382.5 579.5 -395.5 574.0 -408.5 563.0 -420.0 551.5 -430.5 539.0 -436.0 526.0 -441.5 512.0 -441.5 496.0 -441.5 483.0 -436.0 470.0 -431.0 460.0 -421.0 449.0 -410.0 444.0 -397.0 439.0 -384.0 439.5 -368.5 439.5 -353.5 444.5 -340.5 450.0 -328.0 461.0 -317.5 471.5 -306.0 484.0 -300.5 496.5 -295.0 512.0 -295.0 526.0 -295.0 539.0 -300.5 551.5 -306.0 563.0 -317.5 574.0 -328.0 579.5 -341.0 584.5 -354.0 584.5 -368.5 M665.5 -368.5 Q665.5 -338.0 654.0 -310.5 642.5 -283.0 619.5 -260.0 573.5 -214.0 512.0 -214.0 480.0 -214.0 452.5 -225.5 425.5 -237.0 403.5 -260.0 380.5 -282.5 369.5 -309.5 358.5 -336.5 358.5 -368.5 358.5 -434.5 401.5 -479.0 444.5 -522.0 512.0 -522.0 543.5 -522.0 570.5 -511.0 597.5 -499.5 620.5 -477.0 643.0 -454.0 654.0 -427.0 665.5 -400.0 665.5 -368.5" fill-rule="evenodd" stroke="none"/>
    </g>
  </defs>
</svg>
