<?xml version="1.0" encoding="UTF-8" standalone="no"?>
<svg xmlns:xlink="http://www.w3.org/1999/xlink" height="17.2px" width="309.95px" xmlns="http://www.w3.org/2000/svg">
  <g transform="matrix(1.0, 0.0, 0.0, 1.0, 84.7, 1.8)">
    <g transform="matrix(1.0, 0.0, 0.0, 1.0, -85.6, 0.0)">
      <use fill="#000000" height="17.2" transform="matrix(0.0146, 0.0, 0.0, 0.0146, 0.0, 13.0)" width="309.95" xlink:href="#font_DFPOP3_Std_W12__0"/>
      <use fill="#000000" height="17.2" transform="matrix(0.0146, 0.0, 0.0, 0.0146, 15.0, 13.0)" width="309.95" xlink:href="#font_DFPOP3_Std_W12__1"/>
      <use fill="#000000" height="17.2" transform="matrix(0.0146, 0.0, 0.0, 0.0146, 30.0, 13.0)" width="309.95" xlink:href="#font_DFPOP3_Std_W12__2"/>
      <use fill="#000000" height="17.2" transform="matrix(0.0146, 0.0, 0.0, 0.0146, 45.0, 13.0)" width="309.95" xlink:href="#font_DFPOP3_Std_W12__3"/>
      <use fill="#000000" height="17.2" transform="matrix(0.0146, 0.0, 0.0, 0.0146, 60.0, 13.0)" width="309.95" xlink:href="#font_DFPOP3_Std_W12__4"/>
      <use fill="#000000" height="17.2" transform="matrix(0.0146, 0.0, 0.0, 0.0146, 75.0, 13.0)" width="309.95" xlink:href="#font_DFPOP3_Std_W12__1"/>
      <use fill="#000000" height="17.2" transform="matrix(0.0146, 0.0, 0.0, 0.0146, 90.0, 13.0)" width="309.95" xlink:href="#font_DFPOP3_Std_W12__2"/>
      <use fill="#000000" height="17.2" transform="matrix(0.0146, 0.0, 0.0, 0.0146, 105.0, 13.0)" width="309.95" xlink:href="#font_DFPOP3_Std_W12__5"/>
      <use fill="#000000" height="17.2" transform="matrix(0.0146, 0.0, 0.0, 0.0146, 120.0, 13.0)" width="309.95" xlink:href="#font_DFPOP3_Std_W12__6"/>
      <use fill="#000000" height="17.2" transform="matrix(0.0146, 0.0, 0.0, 0.0146, 135.0, 13.0)" width="309.95" xlink:href="#font_DFPOP3_Std_W12__7"/>
      <use fill="#000000" height="17.2" transform="matrix(0.0146, 0.0, 0.0, 0.0146, 150.0, 13.0)" width="309.95" xlink:href="#font_DFPOP3_Std_W12__8"/>
      <use fill="#000000" height="17.2" transform="matrix(0.0146, 0.0, 0.0, 0.0146, 165.0, 13.0)" width="309.95" xlink:href="#font_DFPOP3_Std_W12__9"/>
      <use fill="#000000" height="17.2" transform="matrix(0.0146, 0.0, 0.0, 0.0146, 180.0, 13.0)" width="309.95" xlink:href="#font_DFPOP3_Std_W12__10"/>
      <use fill="#000000" height="17.2" transform="matrix(0.0146, 0.0, 0.0, 0.0146, 195.0, 13.0)" width="309.95" xlink:href="#font_DFPOP3_Std_W12__11"/>
      <use fill="#000000" height="17.2" transform="matrix(0.0146, 0.0, 0.0, 0.0146, 210.0, 13.0)" width="309.95" xlink:href="#font_DFPOP3_Std_W12__12"/>
      <use fill="#000000" height="17.2" transform="matrix(0.0146, 0.0, 0.0, 0.0146, 225.0, 13.0)" width="309.95" xlink:href="#font_DFPOP3_Std_W12__13"/>
      <use fill="#000000" height="17.2" transform="matrix(0.0146, 0.0, 0.0, 0.0146, 240.0, 13.0)" width="309.95" xlink:href="#font_DFPOP3_Std_W12__14"/>
      <use fill="#000000" height="17.2" transform="matrix(0.0146, 0.0, 0.0, 0.0146, 255.0, 13.0)" width="309.95" xlink:href="#font_DFPOP3_Std_W12__8"/>
      <use fill="#000000" height="17.2" transform="matrix(0.0146, 0.0, 0.0, 0.0146, 270.0, 13.0)" width="309.95" xlink:href="#font_DFPOP3_Std_W12__9"/>
      <use fill="#000000" height="17.2" transform="matrix(0.0146, 0.0, 0.0, 0.0146, 285.0, 13.0)" width="309.95" xlink:href="#font_DFPOP3_Std_W12__10"/>
      <use fill="#000000" height="17.2" transform="matrix(0.0146, 0.0, 0.0, 0.0146, 300.0, 13.0)" width="309.95" xlink:href="#font_DFPOP3_Std_W12__15"/>
    </g>
  </g>
  <defs>
    <g id="font_DFPOP3_Std_W12__0">
      <path d="M867.5 -789.5 Q887.0 -789.5 905.0 -783.0 923.0 -776.5 940.0 -764.0 955.5 -748.5 963.5 -729.0 971.5 -709.5 972.0 -685.0 971.5 -662.0 962.5 -643.0 953.5 -623.5 936.0 -608.5 919.0 -594.5 901.5 -588.0 884.5 -581.5 867.5 -581.5 844.5 -581.5 825.0 -590.5 805.5 -599.0 789.5 -617.5 776.5 -633.0 770.0 -649.5 764.0 -666.5 764.0 -685.0 764.0 -706.0 769.5 -723.5 775.0 -741.5 787.5 -756.5 803.0 -773.0 823.0 -781.0 843.0 -789.5 867.5 -789.5 M515.0 -817.0 L531.5 -752.5 Q490.0 -740.5 452.0 -731.0 414.5 -722.0 380.0 -716.0 L380.0 -536.5 Q413.0 -536.5 446.0 -537.0 479.5 -537.5 513.0 -537.5 536.0 -537.5 559.5 -537.0 583.5 -536.5 607.0 -536.5 592.0 -596.5 578.0 -658.0 564.0 -719.0 552.0 -781.5 L699.5 -829.5 Q716.5 -750.5 734.5 -676.5 753.0 -602.5 773.0 -533.5 821.5 -532.0 870.0 -530.0 918.5 -527.5 967.5 -525.5 L967.5 -465.0 Q923.0 -467.0 878.5 -469.0 834.5 -470.5 790.5 -472.0 796.5 -448.0 803.5 -425.5 810.5 -402.5 818.0 -381.0 819.0 -377.0 820.0 -374.0 821.0 -370.5 822.5 -367.5 833.0 -380.5 843.0 -394.0 853.5 -407.0 863.0 -421.0 L991.0 -328.5 Q966.0 -295.0 939.0 -261.0 912.5 -227.0 884.5 -191.5 906.0 -134.5 929.0 -80.0 951.5 -25.5 976.0 26.5 L823.5 102.5 Q807.0 65.5 792.5 29.5 777.5 -7.0 764.0 -43.0 736.5 -10.5 708.5 23.0 680.5 56.5 651.5 91.0 L523.5 -9.0 Q569.5 -60.0 614.0 -111.0 658.5 -162.0 701.5 -213.0 690.0 -245.5 679.5 -278.0 668.5 -310.5 659.5 -343.0 649.5 -376.0 640.5 -409.0 631.0 -442.5 622.5 -476.0 595.0 -476.0 567.5 -476.5 540.0 -477.0 513.0 -477.0 479.5 -477.0 446.0 -476.5 413.0 -476.0 380.0 -476.0 L380.0 -249.0 Q412.0 -268.0 448.0 -291.0 484.0 -314.0 523.5 -341.0 L555.0 -284.5 Q506.0 -251.0 462.0 -222.5 418.5 -194.5 380.0 -173.0 L380.0 99.5 219.0 99.5 219.0 -95.0 Q185.5 -81.5 150.0 -69.0 114.0 -56.5 76.0 -45.0 L55.5 -105.5 Q102.0 -120.0 143.0 -135.0 184.0 -149.5 219.0 -165.0 L219.0 -472.0 Q178.5 -470.5 138.5 -468.5 98.5 -466.5 59.5 -465.0 L59.5 -525.5 Q99.5 -527.0 139.5 -529.0 179.0 -531.0 219.0 -532.5 L219.0 -695.5 Q185.5 -692.0 150.0 -690.5 114.0 -689.0 76.0 -689.0 L76.0 -741.5 Q147.0 -743.0 204.0 -747.5 261.0 -752.5 304.0 -761.0 351.0 -767.5 404.0 -781.5 456.5 -795.5 515.0 -817.0" fill-rule="evenodd" stroke="none"/>
    </g>
    <g id="font_DFPOP3_Std_W12__1">
      <path d="M331.0 -249.0 Q389.0 -252.5 447.0 -255.0 505.0 -257.0 563.0 -257.0 613.0 -257.0 663.0 -255.5 713.0 -254.0 764.0 -251.0 L764.0 -253.0 Q764.0 -290.5 743.5 -309.5 723.0 -328.5 683.0 -328.5 609.5 -326.5 521.5 -318.0 434.0 -309.0 333.0 -294.0 332.0 -281.5 331.5 -270.5 331.0 -259.5 331.0 -249.0 M327.5 -121.0 Q387.0 -124.5 446.0 -127.0 505.0 -129.0 563.0 -129.0 663.0 -129.0 763.0 -123.0 763.0 -141.5 763.0 -158.5 763.0 -175.5 764.0 -191.5 713.0 -194.5 663.0 -196.0 612.5 -197.5 563.0 -197.5 504.0 -197.5 445.5 -195.5 387.0 -193.5 328.5 -189.5 328.0 -175.5 328.0 -162.5 327.5 -149.5 327.5 -137.0 L327.5 -121.0 M333.0 11.5 Q399.5 6.5 466.5 5.0 533.5 3.0 601.0 3.0 681.0 3.0 761.0 6.0 761.0 -12.0 761.0 -29.5 761.0 -46.5 762.0 -63.5 712.0 -66.5 662.0 -68.0 612.5 -69.5 563.0 -69.5 505.0 -69.5 446.0 -67.5 387.0 -65.5 328.5 -61.5 329.0 -43.0 330.0 -24.5 331.0 -6.5 333.0 11.5 M936.0 -821.0 L947.0 -769.0 Q709.0 -737.0 529.5 -726.0 518.0 -725.0 506.5 -724.5 495.0 -724.0 484.5 -724.0 476.0 -705.5 468.0 -688.0 460.5 -670.0 452.5 -653.5 L512.0 -653.5 Q619.5 -653.5 727.0 -650.0 835.0 -647.0 943.0 -641.0 L943.0 -581.5 Q835.0 -587.0 727.0 -590.0 619.5 -593.0 512.0 -593.0 490.0 -593.0 468.0 -592.5 446.5 -592.0 425.0 -592.0 416.0 -572.5 408.0 -555.0 400.0 -537.0 392.0 -520.0 421.5 -520.5 451.5 -520.5 481.5 -521.0 512.0 -521.0 625.5 -521.0 739.5 -518.0 853.5 -515.0 967.5 -509.0 L967.5 -449.5 Q853.5 -455.0 739.5 -458.0 625.5 -461.0 512.0 -461.0 474.5 -460.5 437.5 -460.5 400.5 -460.0 363.5 -460.0 354.5 -440.5 346.5 -423.0 338.5 -405.5 331.0 -390.0 329.0 -386.5 327.0 -383.0 325.0 -380.0 323.5 -377.0 L340.0 -377.0 Q339.0 -370.5 338.5 -365.0 338.0 -359.5 338.0 -354.5 461.5 -371.5 553.0 -380.0 644.5 -389.0 703.5 -389.0 L727.0 -389.0 Q777.5 -389.0 813.5 -380.0 849.0 -371.0 870.5 -353.5 890.5 -335.5 901.0 -311.5 911.5 -287.5 911.5 -257.0 911.5 -197.0 910.5 -129.5 910.0 -61.5 908.5 14.5 913.5 14.5 919.5 14.5 925.5 14.5 932.0 15.5 L932.0 75.0 Q849.0 68.5 766.5 65.5 684.0 62.5 601.0 62.5 534.0 62.5 468.5 64.5 402.5 66.0 338.0 70.5 338.0 78.5 338.5 86.5 339.0 94.5 340.0 102.5 L208.0 102.5 Q201.5 42.5 198.5 -16.5 195.5 -75.5 195.5 -135.0 188.0 -120.0 179.5 -105.0 171.5 -90.5 164.0 -77.0 L43.0 -161.0 Q126.0 -294.5 196.5 -437.0 201.0 -446.5 206.0 -455.5 129.0 -452.5 55.5 -449.5 L55.5 -509.0 Q100.5 -511.0 146.0 -513.0 191.5 -514.5 237.5 -516.0 246.0 -534.5 254.5 -552.5 263.0 -570.5 271.5 -589.0 223.0 -587.5 175.0 -585.5 127.5 -584.0 80.0 -581.5 L80.0 -641.0 Q135.0 -644.0 190.0 -646.5 245.0 -648.5 300.0 -650.0 307.5 -667.0 315.0 -684.0 322.0 -701.0 329.5 -718.0 273.5 -715.5 214.0 -714.0 154.0 -712.5 91.0 -712.5 L91.0 -765.0 Q229.5 -766.5 338.5 -770.0 448.0 -773.0 529.5 -779.5 620.0 -784.5 721.5 -795.5 823.0 -806.0 936.0 -821.0" fill-rule="evenodd" stroke="none"/>
    </g>
    <g id="font_DFPOP3_Std_W12__2">
      <path d="M570.5 -309.0 Q569.5 -290.0 569.0 -272.5 568.5 -255.0 568.5 -239.5 618.0 -239.5 668.0 -238.0 718.0 -237.0 768.0 -234.5 L768.0 -240.5 Q768.0 -277.0 749.5 -295.0 731.5 -313.5 695.5 -313.5 664.5 -312.5 633.5 -311.5 602.5 -311.0 570.5 -309.0 M224.5 -232.5 Q272.5 -234.5 321.0 -236.5 369.0 -238.0 417.0 -239.5 417.0 -253.5 417.5 -268.5 418.0 -284.0 419.0 -300.0 372.5 -296.0 325.0 -292.0 277.5 -288.0 228.5 -283.5 227.0 -270.0 225.5 -257.5 224.5 -244.5 224.5 -232.5 M567.5 -180.0 Q566.5 -157.0 566.0 -138.0 565.5 -119.5 565.0 -105.5 614.5 -105.5 663.0 -104.0 711.5 -103.0 760.0 -101.5 763.0 -141.5 766.0 -175.0 715.0 -177.5 665.5 -179.0 615.5 -180.0 567.5 -180.0 M227.5 -96.5 Q273.5 -98.5 320.0 -100.0 366.5 -102.0 412.5 -103.5 412.5 -119.0 413.5 -138.0 414.0 -157.0 414.5 -180.0 366.5 -178.5 318.5 -177.0 271.0 -175.5 223.0 -173.0 223.0 -153.0 224.0 -134.0 225.0 -114.5 227.5 -96.5 M655.5 -525.5 Q681.5 -504.5 713.0 -483.5 745.0 -463.0 783.5 -441.5 L726.0 -372.5 743.5 -372.5 Q791.0 -372.5 825.5 -364.0 859.5 -355.0 879.5 -338.0 899.5 -321.0 909.5 -298.0 919.5 -274.5 919.5 -244.5 919.5 -177.0 910.5 -94.0 916.5 -94.0 922.0 -93.5 927.0 -93.0 932.0 -93.0 L932.0 -33.0 Q746.0 -45.0 563.0 -45.0 563.5 -23.0 567.5 -8.0 572.0 6.5 579.5 14.5 587.5 23.5 599.5 29.0 611.5 34.0 627.5 35.0 740.0 35.0 972.0 7.0 L967.5 70.5 Q848.0 83.0 751.0 89.0 654.0 95.0 579.5 95.0 L549.0 95.0 Q516.0 95.0 489.5 83.0 463.5 70.5 443.5 46.0 428.0 30.5 420.0 8.5 412.5 -14.0 411.5 -43.0 367.0 -41.5 322.5 -40.0 278.5 -38.5 234.5 -37.0 235.5 -28.5 236.5 -20.5 238.0 -13.0 239.5 -5.0 L91.0 -5.0 Q83.5 -49.5 79.5 -95.0 76.0 -140.0 76.0 -185.5 76.0 -230.0 79.5 -275.0 83.5 -320.0 91.0 -365.5 L239.5 -365.5 Q238.0 -359.5 237.5 -354.0 236.5 -348.5 236.5 -343.0 395.5 -357.0 513.0 -364.5 631.0 -372.0 707.5 -372.5 675.5 -391.0 646.5 -411.5 618.0 -432.0 592.0 -453.5 L655.5 -525.5 M275.5 -521.0 Q327.5 -481.5 407.5 -441.5 L343.0 -365.5 Q307.0 -384.5 274.0 -405.5 241.0 -426.5 212.0 -449.5 L275.5 -521.0 M512.0 -829.5 Q736.5 -829.5 963.5 -817.0 L963.5 -756.5 Q868.5 -761.5 773.0 -764.5 678.0 -767.5 583.5 -769.0 L583.5 -711.5 Q600.0 -711.5 615.0 -712.0 630.5 -712.5 645.0 -712.5 L660.5 -712.5 Q742.0 -712.5 801.0 -705.5 859.5 -698.0 895.0 -684.0 972.0 -650.0 972.0 -573.5 970.0 -527.5 965.0 -486.5 960.0 -445.5 951.5 -409.5 L795.5 -409.5 Q806.5 -456.5 812.0 -497.5 817.5 -538.0 819.0 -573.5 819.0 -600.5 805.0 -617.0 790.5 -634.0 763.0 -641.0 747.5 -644.0 728.5 -646.5 709.5 -649.0 688.0 -651.5 712.0 -630.5 741.0 -610.0 770.0 -589.5 804.0 -569.5 L743.5 -496.5 Q669.5 -539.5 611.5 -589.0 L667.5 -652.5 Q654.5 -652.5 641.0 -653.0 627.0 -653.0 613.5 -653.5 L583.5 -653.5 583.5 -393.0 435.0 -393.0 435.0 -643.0 Q383.0 -637.0 327.5 -631.0 350.0 -614.0 376.0 -597.5 402.0 -581.5 431.0 -565.0 L371.5 -493.5 Q335.0 -512.5 302.0 -533.5 269.0 -554.5 239.5 -577.5 L281.5 -624.5 Q260.0 -621.5 238.0 -618.5 216.0 -615.5 194.5 -612.5 191.5 -580.0 191.5 -551.0 191.5 -513.0 195.5 -476.0 199.5 -438.5 208.0 -401.5 L59.5 -401.5 Q51.0 -438.5 47.0 -476.0 43.0 -513.0 43.0 -551.0 43.0 -588.0 47.0 -625.5 51.0 -663.0 59.5 -701.5 L208.0 -701.5 Q206.5 -694.0 205.0 -687.0 203.5 -680.0 203.0 -674.0 267.0 -683.0 325.0 -690.0 383.0 -697.0 435.0 -701.5 L435.0 -768.0 Q341.0 -767.0 247.0 -764.5 153.0 -761.5 59.5 -756.5 L59.5 -817.0 Q172.5 -823.5 285.5 -826.5 398.5 -829.5 512.0 -829.5" fill-rule="evenodd" stroke="none"/>
    </g>
    <g id="font_DFPOP3_Std_W12__3">
      <path d="M776.0 -182.5 Q792.5 -170.0 808.5 -158.5 825.0 -147.0 841.5 -136.0 842.0 -174.5 842.5 -209.5 843.0 -244.5 844.0 -275.5 827.5 -250.0 811.0 -227.0 794.0 -203.5 776.0 -182.5 M528.5 -14.5 Q577.5 -17.5 626.0 -19.5 675.0 -21.5 724.0 -21.5 781.0 -21.5 837.5 -18.5 837.5 -61.5 840.5 -101.5 L764.0 -37.0 Q745.5 -50.0 728.0 -63.0 710.5 -76.5 695.5 -90.0 681.5 -75.0 666.5 -59.5 651.5 -44.0 636.0 -28.5 L531.5 -105.5 Q551.5 -124.0 568.5 -140.5 585.5 -156.5 600.0 -172.0 581.5 -188.0 564.0 -204.5 547.0 -220.5 531.5 -237.5 L623.5 -305.0 Q637.5 -293.0 651.5 -280.5 665.5 -268.5 680.0 -257.0 695.5 -275.5 710.0 -295.5 725.0 -315.5 739.5 -337.0 L844.0 -283.5 844.0 -297.0 Q843.5 -327.0 824.5 -342.0 805.5 -357.5 768.0 -357.5 717.5 -354.5 657.5 -345.5 598.0 -337.0 529.5 -322.5 526.5 -282.5 525.0 -243.0 523.5 -203.5 523.5 -165.0 523.0 -126.5 524.5 -89.0 525.5 -51.0 528.5 -14.5 M588.0 -465.0 L703.5 -429.0 Q698.0 -423.0 693.5 -417.5 688.5 -412.0 684.0 -407.5 716.5 -412.0 742.5 -414.5 769.0 -417.0 789.5 -417.0 L808.0 -417.0 Q852.5 -417.0 884.0 -409.0 915.5 -401.5 935.0 -386.0 953.5 -370.5 962.5 -349.5 972.0 -328.0 972.0 -301.0 971.5 -237.5 969.5 -164.5 967.5 -91.5 964.5 -10.0 967.5 -10.0 970.0 -9.5 973.0 -9.5 976.0 -9.0 L976.0 51.0 Q850.0 39.0 724.0 39.0 675.5 39.0 628.0 40.5 580.5 42.5 533.5 46.0 533.5 52.0 534.0 58.5 535.0 64.5 535.5 70.5 L407.5 70.5 Q401.5 12.5 398.5 -46.5 395.5 -105.5 395.5 -165.0 395.5 -283.0 407.5 -401.5 L535.5 -401.5 Q535.0 -398.5 534.5 -395.5 534.5 -392.0 534.5 -389.0 552.0 -409.0 565.5 -428.0 578.5 -446.5 588.0 -465.0 M855.0 -837.5 L967.5 -761.0 Q946.0 -736.5 927.5 -713.0 909.0 -690.0 893.0 -668.5 883.5 -655.0 883.5 -641.0 883.5 -637.0 887.5 -631.0 891.5 -624.5 899.0 -615.5 916.5 -594.0 936.0 -570.5 955.0 -547.5 976.0 -521.0 L867.5 -441.5 Q840.5 -484.5 817.5 -522.5 794.5 -560.5 775.0 -593.0 765.0 -608.0 760.5 -620.0 755.5 -632.0 755.5 -641.0 755.5 -652.5 761.5 -668.0 767.0 -683.5 779.5 -703.5 791.5 -724.5 810.0 -758.0 829.0 -791.5 855.0 -837.5 M667.5 -845.0 L779.5 -777.0 Q756.5 -745.5 737.0 -718.0 717.5 -690.5 701.5 -666.5 695.5 -654.5 695.5 -645.0 695.0 -643.0 697.0 -639.0 699.0 -635.0 703.5 -630.0 719.5 -607.5 738.5 -583.5 757.5 -559.5 779.5 -533.5 L676.0 -449.5 Q648.0 -492.5 623.5 -531.5 599.0 -570.5 577.5 -605.0 572.0 -615.0 569.5 -625.0 567.5 -635.0 567.5 -645.0 567.5 -650.0 569.5 -658.5 572.0 -667.5 577.5 -680.0 596.0 -713.0 619.0 -754.5 641.5 -795.5 667.5 -845.0 M479.0 -840.5 L599.0 -781.5 Q579.0 -747.0 561.5 -715.5 543.5 -684.0 527.5 -655.5 525.0 -652.0 524.0 -649.5 523.0 -646.5 523.5 -645.0 523.0 -642.0 524.0 -638.5 525.0 -635.0 527.5 -632.0 542.5 -604.0 561.5 -570.5 580.0 -536.5 603.0 -496.5 L479.0 -441.5 Q454.5 -496.0 435.5 -540.5 416.5 -584.5 402.5 -618.5 398.5 -625.5 397.0 -632.0 395.0 -639.0 395.5 -645.0 395.0 -650.5 397.0 -657.0 398.5 -663.0 402.5 -670.5 417.0 -703.0 436.0 -745.5 455.5 -788.5 479.0 -840.5 M170.0 -546.0 Q182.5 -547.5 195.0 -548.0 208.0 -549.0 221.0 -549.0 228.0 -549.0 235.0 -548.5 242.0 -548.0 249.0 -548.0 246.5 -584.5 244.0 -624.0 241.5 -663.0 238.5 -704.5 234.5 -728.5 225.0 -740.5 215.0 -752.5 199.5 -752.5 195.0 -752.0 189.0 -751.0 183.0 -750.0 176.0 -748.5 171.5 -647.0 170.0 -546.0 M169.0 -278.5 Q195.0 -281.5 221.0 -281.5 229.5 -281.5 238.0 -281.0 246.5 -280.5 255.0 -280.5 255.0 -300.5 255.5 -321.0 256.0 -341.5 256.0 -361.5 255.5 -390.5 254.5 -422.5 253.5 -454.5 252.0 -488.5 244.0 -488.5 236.5 -489.0 229.0 -489.5 221.0 -489.5 195.0 -489.5 169.0 -486.5 168.0 -457.0 168.0 -429.0 168.0 -400.5 168.0 -372.5 168.0 -349.0 168.0 -325.0 168.0 -301.5 169.0 -278.5 M51.0 -833.5 L179.0 -833.5 Q178.5 -826.0 178.5 -819.0 178.0 -811.5 178.0 -805.0 196.0 -808.5 210.5 -811.0 224.5 -813.0 235.5 -813.0 L243.5 -813.0 Q302.0 -813.0 333.5 -790.0 365.0 -767.5 368.5 -722.0 375.0 -648.0 378.5 -558.0 382.5 -468.0 384.0 -361.5 384.0 -220.0 381.0 -127.5 378.5 -34.5 374.0 9.0 370.0 50.0 340.5 70.5 311.5 91.0 256.0 91.0 L195.5 91.0 195.5 30.5 215.0 30.5 Q226.5 30.5 234.0 23.0 241.5 15.5 244.5 1.0 248.0 -50.5 250.5 -105.5 253.5 -161.0 255.0 -220.0 246.0 -220.0 237.5 -220.5 229.0 -221.0 221.0 -221.0 208.0 -221.0 195.0 -220.5 182.5 -219.5 170.0 -218.0 171.0 -140.5 173.0 -64.5 175.5 12.0 179.0 87.0 L51.0 87.0 Q45.0 -28.0 42.5 -143.0 40.0 -257.5 40.0 -372.5 40.0 -488.0 42.5 -603.0 45.0 -718.5 51.0 -833.5" fill-rule="evenodd" stroke="none"/>
    </g>
    <g id="font_DFPOP3_Std_W12__4">
      <path d="M656.5 -313.5 L537.5 -220.0 Q503.0 -266.0 460.5 -316.5 418.5 -366.5 367.5 -421.0 L481.5 -517.0 Q522.0 -473.5 566.0 -422.5 609.5 -371.5 656.5 -313.5" fill-rule="evenodd" stroke="none"/>
    </g>
    <g id="font_DFPOP3_Std_W12__5">
      <path d="M450.5 -327.5 Q449.0 -364.5 448.5 -402.0 447.5 -439.5 447.5 -477.0 447.5 -557.0 450.5 -637.0 444.5 -621.5 434.5 -603.0 425.0 -584.5 412.5 -562.0 399.0 -537.0 383.0 -511.5 367.0 -486.5 350.0 -462.0 373.5 -427.0 398.5 -393.5 423.5 -360.0 450.5 -327.5 M594.0 -608.5 Q622.5 -610.5 651.0 -612.0 679.0 -613.5 707.5 -613.5 729.0 -613.5 751.0 -612.5 773.0 -612.0 794.5 -610.5 792.5 -658.0 788.5 -689.0 785.0 -720.0 780.5 -735.0 777.0 -747.5 768.0 -754.0 759.0 -761.0 743.5 -761.0 728.0 -761.0 692.0 -752.5 655.5 -744.0 598.0 -727.0 596.5 -696.5 595.0 -667.0 594.0 -637.5 594.0 -608.5 M593.0 -407.5 Q621.5 -410.0 649.5 -411.5 678.0 -412.5 705.5 -412.5 728.0 -412.5 750.0 -412.0 772.0 -411.0 793.5 -409.5 794.5 -440.5 795.0 -468.5 795.5 -497.0 795.5 -523.5 L795.5 -550.0 Q773.5 -551.5 751.0 -552.0 729.0 -553.0 707.5 -553.0 678.5 -553.0 650.0 -551.5 621.5 -550.0 593.0 -548.0 592.0 -529.5 592.0 -511.5 592.0 -494.0 592.0 -477.0 592.0 -459.0 592.0 -441.5 592.0 -424.5 593.0 -407.5 M599.0 -215.0 Q634.5 -218.0 670.0 -219.5 706.0 -221.0 741.5 -221.0 752.0 -221.0 763.5 -220.5 774.5 -220.0 785.5 -220.0 787.0 -254.5 788.5 -287.0 790.0 -319.5 791.5 -350.0 747.0 -353.5 705.5 -353.5 676.5 -353.0 648.5 -352.0 621.0 -350.5 594.0 -348.0 594.0 -314.5 595.5 -281.0 596.5 -247.5 599.0 -215.0 M179.0 -840.5 L327.5 -840.5 327.5 -761.0 329.5 -761.0 Q381.0 -761.0 412.0 -746.5 443.0 -732.0 453.5 -703.5 455.0 -762.0 460.0 -817.0 L603.0 -817.0 Q602.5 -808.5 601.5 -801.0 601.0 -793.5 601.0 -786.5 659.5 -802.0 710.0 -810.5 761.0 -819.0 804.0 -821.0 L814.0 -821.0 Q861.5 -821.0 890.0 -804.5 918.5 -788.0 927.5 -755.5 935.5 -726.5 939.5 -668.5 943.0 -610.0 943.0 -523.5 943.0 -452.5 941.0 -375.0 938.5 -297.0 934.0 -211.0 939.5 -210.0 944.5 -209.5 950.0 -209.0 955.5 -209.0 L955.5 -149.5 Q931.0 -152.0 907.0 -154.0 883.0 -156.0 859.0 -157.5 853.0 -104.0 850.5 -70.0 848.0 -36.0 848.0 -21.5 848.0 18.5 888.0 18.5 918.5 18.5 967.5 3.0 L967.5 62.5 Q931.0 70.0 901.0 74.5 871.0 79.0 848.0 79.0 809.5 79.0 782.5 73.0 755.0 67.0 738.5 55.5 721.5 44.0 713.0 27.5 704.0 11.5 703.5 -9.0 703.5 -26.0 706.5 -64.0 710.0 -101.5 717.0 -161.0 705.5 -160.5 694.5 -160.5 684.0 -160.0 674.0 -159.5 644.0 -92.0 612.5 -30.5 581.0 31.0 548.0 87.0 L407.5 15.5 Q437.5 -23.0 463.5 -61.0 490.0 -99.0 513.0 -137.0 L460.0 -137.0 Q457.0 -172.5 455.0 -207.5 453.0 -242.0 451.5 -277.5 L363.5 -205.0 Q353.0 -218.5 343.0 -232.5 333.0 -246.0 323.5 -259.0 L323.5 95.0 171.0 95.0 171.0 -242.5 Q162.5 -233.5 155.0 -225.0 147.0 -216.5 139.5 -209.0 L23.5 -328.5 Q98.0 -400.0 159.0 -472.5 219.5 -545.0 267.5 -618.5 289.0 -651.5 300.0 -671.5 311.0 -691.0 311.5 -697.5 311.5 -699.0 302.0 -700.0 293.0 -701.5 275.5 -701.5 261.0 -701.5 204.0 -677.0 147.0 -653.0 47.0 -605.0 L47.0 -665.5 Q85.5 -683.5 118.5 -697.5 151.5 -712.0 179.0 -723.0 L179.0 -840.5" fill-rule="evenodd" stroke="none"/>
    </g>
    <g id="font_DFPOP3_Std_W12__6">
      <path d="M583.5 -312.5 Q618.5 -312.5 652.5 -312.0 687.0 -311.5 721.0 -311.5 724.0 -351.0 725.5 -388.5 727.0 -425.5 727.0 -461.0 727.0 -525.5 671.5 -525.5 638.0 -523.5 601.0 -520.0 564.0 -516.5 524.5 -511.0 550.5 -480.0 581.0 -449.5 612.0 -419.0 647.0 -389.0 L583.5 -312.5 M331.0 -311.5 Q380.0 -312.0 428.5 -312.5 477.0 -313.5 525.5 -313.5 L534.5 -313.5 Q504.0 -339.5 476.0 -367.5 448.5 -395.5 424.0 -425.0 L496.5 -507.0 Q467.5 -502.5 436.5 -497.5 406.0 -492.5 374.0 -486.5 347.5 -385.0 331.0 -311.5 M683.0 -26.5 Q693.0 -86.5 701.0 -142.5 708.5 -198.5 715.0 -251.0 666.5 -251.5 619.0 -252.5 571.5 -253.0 525.5 -253.0 473.0 -253.0 421.0 -252.0 369.0 -251.5 317.5 -250.0 306.5 -197.5 301.5 -160.5 296.0 -123.0 296.0 -101.5 296.0 -51.0 313.5 -26.0 331.5 -1.0 367.5 -1.0 402.0 -1.0 440.0 -2.5 477.5 -4.5 519.0 -8.0 484.0 -38.0 451.5 -70.5 419.5 -102.5 391.0 -137.0 L479.0 -237.5 Q505.5 -204.0 538.5 -170.0 571.5 -136.0 611.5 -101.5 L534.5 -9.0 Q570.0 -12.0 607.0 -16.5 644.0 -20.5 683.0 -26.5 M248.0 -581.5 L399.5 -581.5 Q396.5 -572.5 394.0 -564.0 391.5 -556.0 390.0 -549.0 490.0 -566.5 564.5 -575.5 639.5 -584.5 689.0 -584.5 L711.5 -584.5 Q757.0 -584.5 789.5 -576.5 822.0 -568.5 841.5 -553.0 860.0 -537.0 870.0 -514.5 879.5 -492.5 879.5 -465.0 879.5 -426.5 877.5 -386.5 875.5 -347.0 872.5 -306.0 900.0 -304.5 927.5 -303.5 955.5 -302.5 983.0 -301.0 L983.0 -240.5 Q954.0 -242.0 925.0 -243.0 896.0 -244.5 867.5 -246.0 862.0 -199.0 855.0 -150.5 848.0 -102.0 839.5 -51.0 853.5 -53.5 867.5 -56.0 881.5 -58.5 896.0 -61.5 L896.0 -1.0 Q878.5 2.0 861.5 4.5 844.5 7.0 828.5 10.0 824.0 31.5 819.5 52.5 815.5 74.0 811.0 95.0 L659.5 95.0 Q662.5 78.5 665.5 63.0 668.5 47.5 671.5 33.0 572.5 45.0 486.5 51.5 400.5 58.5 327.5 58.5 279.5 58.5 244.5 48.5 210.0 38.5 188.5 19.5 167.5 0.5 156.5 -27.0 145.0 -54.0 143.5 -89.0 143.5 -113.0 148.5 -152.0 154.0 -191.0 165.0 -244.5 140.5 -244.0 116.0 -243.0 91.5 -242.0 67.5 -240.5 L67.5 -301.0 Q95.0 -302.5 123.0 -303.5 150.5 -304.5 178.0 -306.0 190.5 -363.0 208.0 -431.5 225.5 -500.5 248.0 -581.5 M195.5 -833.5 L336.0 -817.0 Q329.0 -795.0 321.5 -773.0 314.0 -751.5 306.0 -730.0 374.5 -733.0 442.0 -735.0 510.0 -737.0 577.5 -737.5 666.5 -737.5 756.5 -734.0 846.0 -731.0 936.0 -725.0 L936.0 -665.5 Q846.0 -671.0 756.5 -674.0 666.5 -677.0 577.5 -677.0 503.0 -677.0 429.0 -674.5 355.5 -672.5 281.5 -668.5 244.5 -579.5 195.5 -493.5 L47.0 -529.5 Q96.5 -604.5 133.5 -680.5 171.0 -756.5 195.5 -833.5" fill-rule="evenodd" stroke="none"/>
    </g>
    <g id="font_DFPOP3_Std_W12__7">
      <path d="M512.0 -57.5 Q736.5 -57.5 963.5 -45.0 L963.5 15.5 Q736.5 3.0 512.0 3.0 398.5 3.0 285.5 6.0 172.5 9.0 59.5 15.5 L59.5 -45.0 Q172.5 -51.0 285.5 -54.5 398.5 -57.5 512.0 -57.5 M513.0 -421.0 Q598.0 -421.0 683.5 -418.0 769.0 -415.0 855.0 -409.5 L855.0 -349.0 Q769.0 -355.5 683.5 -358.5 598.0 -361.5 513.0 -361.5 427.0 -361.5 341.5 -358.5 256.0 -355.5 171.0 -349.0 L171.0 -409.5 Q256.0 -415.0 341.5 -418.0 427.0 -421.0 513.0 -421.0 M504.0 -752.5 Q598.5 -752.5 693.5 -749.5 788.5 -747.0 883.5 -741.5 L883.5 -681.0 Q788.5 -687.0 693.5 -690.0 598.5 -693.0 504.0 -693.0 408.5 -693.0 313.5 -690.0 218.5 -687.0 124.0 -681.0 L124.0 -741.5 Q218.5 -747.0 313.5 -749.5 408.5 -752.5 504.0 -752.5" fill-rule="evenodd" stroke="none"/>
    </g>
    <g id="font_DFPOP3_Std_W12__8">
      <path d="M424.0 -488.5 L424.0 -829.5 603.0 -829.5 603.0 -488.5 Q695.5 -487.5 787.5 -484.5 879.5 -482.0 972.0 -477.0 L972.0 -417.0 Q879.5 -421.5 787.5 -424.5 695.5 -427.0 603.0 -428.0 L603.0 91.0 424.0 91.0 424.0 -428.0 Q332.0 -427.0 239.5 -424.5 147.5 -421.5 55.5 -417.0 L55.5 -477.0 Q147.5 -482.0 239.5 -484.5 332.0 -487.5 424.0 -488.5" fill-rule="evenodd" stroke="none"/>
    </g>
    <g id="font_DFPOP3_Std_W12__9">
      <path d="M680.0 -445.5 L701.5 -445.5 Q741.5 -445.5 769.5 -437.0 798.0 -429.0 814.0 -413.5 834.0 -393.5 844.5 -345.5 855.0 -297.0 855.0 -221.0 855.0 -95.0 846.0 -9.0 838.0 40.0 806.0 64.5 789.0 74.0 763.0 79.5 737.0 85.5 701.5 87.0 L676.0 87.0 Q643.0 87.0 600.5 84.0 558.5 81.0 508.0 75.0 L508.0 15.5 Q541.5 21.0 571.5 23.5 601.5 26.5 627.5 26.5 655.5 26.5 670.0 17.5 684.5 9.0 686.0 -8.0 690.5 -46.5 693.0 -100.0 695.5 -153.5 695.5 -221.0 695.0 -282.0 689.5 -318.0 683.5 -354.5 673.0 -366.5 662.0 -376.0 650.5 -380.5 639.5 -385.0 627.5 -385.0 595.5 -384.5 562.0 -382.0 529.0 -379.5 493.5 -376.0 453.5 -250.0 413.5 -161.0 384.5 -98.0 351.5 -36.0 319.0 25.5 283.5 87.0 L131.0 43.0 Q165.0 -9.0 194.5 -61.5 224.5 -113.5 250.0 -166.0 271.5 -209.5 290.5 -255.5 310.0 -301.5 327.5 -349.0 279.5 -339.0 228.5 -327.0 177.5 -315.0 124.0 -301.0 L124.0 -361.5 Q275.0 -402.0 414.0 -423.0 553.0 -444.0 680.0 -445.5 M627.5 -801.0 L637.0 -801.0 Q669.0 -800.5 698.0 -790.5 726.5 -780.0 752.5 -760.0 787.0 -730.5 847.0 -662.0 906.5 -593.5 991.0 -485.5 L839.5 -401.5 Q784.5 -496.5 737.5 -571.5 690.5 -646.5 651.5 -700.5 633.5 -720.5 613.5 -731.0 593.5 -741.5 571.5 -741.5 528.5 -740.0 427.0 -689.0 L427.0 -749.5 Q485.5 -775.0 536.0 -788.0 586.0 -800.5 627.5 -801.0 M271.5 -809.0 L407.5 -737.5 Q357.0 -650.5 301.0 -565.5 244.5 -480.5 183.5 -397.5 L47.0 -481.5 Q112.5 -566.0 168.5 -648.0 224.5 -730.0 271.5 -809.0" fill-rule="evenodd" stroke="none"/>
    </g>
    <g id="font_DFPOP3_Std_W12__10">
      <path d="M653.5 -616.5 Q670.0 -616.5 686.5 -617.0 703.0 -617.5 720.0 -617.5 733.0 -617.5 746.0 -617.0 759.5 -616.5 773.0 -616.5 778.5 -642.0 781.5 -665.0 785.0 -688.0 786.5 -708.5 768.0 -708.5 750.5 -709.0 732.5 -709.5 716.0 -709.5 696.0 -709.5 676.0 -709.0 656.0 -708.5 636.0 -707.5 L653.5 -616.5 M195.5 -578.5 Q213.5 -580.0 231.0 -581.0 248.5 -581.5 265.0 -581.5 279.0 -581.5 293.5 -581.0 307.5 -580.5 321.5 -579.5 311.0 -616.5 301.5 -646.5 292.5 -677.0 284.5 -701.5 281.0 -710.5 277.5 -716.0 274.5 -721.0 271.5 -721.0 267.0 -721.0 255.5 -718.5 244.5 -716.5 226.5 -711.5 218.5 -678.0 211.0 -644.5 203.5 -611.5 195.5 -578.5 M455.5 -235.5 Q453.5 -260.0 452.5 -285.0 451.5 -310.0 451.5 -335.0 451.5 -377.0 454.5 -418.5 457.5 -460.5 464.0 -502.0 L359.5 -437.0 Q353.5 -458.5 348.0 -479.0 342.5 -499.0 338.0 -518.0 L332.0 -518.0 332.0 -394.0 Q378.0 -391.0 424.0 -385.0 L424.0 -325.5 Q376.5 -332.0 332.0 -335.0 L332.0 -248.0 Q353.5 -269.5 387.0 -269.5 402.5 -269.5 416.5 -264.5 430.5 -260.0 443.5 -251.0 451.0 -243.0 455.5 -235.5 M771.0 -444.5 L771.0 -380.0 Q787.0 -379.0 803.5 -378.0 819.5 -377.5 835.5 -376.0 L835.5 -381.0 Q835.5 -411.0 819.5 -427.0 803.5 -443.0 771.0 -444.5 M584.5 -375.0 Q598.5 -376.5 612.5 -377.0 626.0 -378.0 640.0 -379.0 L640.0 -434.0 Q626.0 -432.5 613.0 -430.5 600.0 -428.5 588.0 -427.0 584.5 -399.5 584.5 -375.0 M771.0 -320.5 L771.0 -265.0 Q788.0 -265.0 804.0 -264.5 820.0 -264.0 835.5 -263.0 L835.5 -316.5 Q818.5 -318.0 802.5 -319.0 786.5 -320.0 771.0 -320.5 M587.0 -258.0 Q600.0 -259.0 613.0 -259.5 626.0 -260.5 640.0 -261.0 L640.0 -319.5 Q625.5 -319.0 611.5 -318.0 597.5 -317.0 583.5 -315.5 583.5 -300.0 584.5 -286.0 585.0 -272.0 587.0 -258.0 M115.5 -817.0 L243.5 -801.0 Q242.0 -795.5 241.5 -790.5 240.5 -786.0 239.5 -781.5 264.0 -790.5 280.5 -795.5 296.5 -800.5 304.0 -801.0 L311.5 -801.0 Q320.5 -800.5 330.5 -794.0 340.5 -787.0 351.0 -774.0 362.0 -757.0 391.0 -702.0 420.5 -647.0 468.0 -555.0 L468.0 -605.0 Q483.5 -606.5 499.0 -607.5 515.0 -609.0 530.5 -610.5 L513.0 -700.5 Q503.0 -699.5 493.5 -699.0 484.5 -698.0 475.0 -697.5 L475.0 -756.5 Q514.5 -760.5 553.5 -763.0 592.5 -765.5 632.0 -767.0 L632.0 -837.5 779.5 -837.5 779.5 -768.0 Q823.0 -766.5 867.0 -764.0 911.0 -761.5 955.5 -756.5 L955.5 -697.5 Q935.5 -699.0 918.5 -700.5 917.0 -677.5 913.0 -655.0 909.5 -632.5 903.0 -610.5 920.0 -609.0 937.5 -607.5 955.0 -606.5 972.0 -605.0 L972.0 -545.0 Q846.0 -557.0 720.0 -557.0 657.5 -557.0 596.0 -554.0 534.5 -551.0 473.0 -545.0 476.0 -537.0 480.0 -530.0 483.5 -523.5 487.5 -517.0 L469.0 -505.0 596.0 -505.0 Q595.0 -500.0 594.5 -495.5 594.0 -491.5 594.0 -487.5 657.5 -496.0 705.5 -500.5 753.0 -505.0 785.5 -505.0 L799.5 -505.0 Q845.0 -505.0 877.5 -496.5 910.0 -488.5 930.0 -473.0 948.5 -457.0 958.0 -435.0 967.5 -412.5 967.5 -385.0 L967.5 -255.0 Q972.5 -254.0 977.5 -253.5 982.5 -253.0 987.0 -253.0 L987.0 -193.5 Q932.5 -198.0 878.5 -201.0 825.0 -204.0 771.0 -205.0 L771.0 -128.0 Q818.5 -126.5 865.5 -124.0 912.5 -121.5 959.5 -116.5 L959.5 -57.5 Q912.0 -62.0 865.0 -64.5 818.0 -67.0 771.0 -68.5 L771.0 0.0 Q822.5 1.0 874.0 3.5 925.0 6.5 976.0 11.5 L976.0 70.5 Q910.0 64.5 844.5 61.5 779.0 58.5 713.5 58.5 647.5 58.5 582.5 61.5 517.0 64.5 451.5 70.5 L451.5 11.5 Q499.0 6.5 546.0 3.5 593.0 1.0 640.0 0.0 L640.0 -68.5 Q599.5 -67.0 559.0 -64.0 519.0 -61.0 479.0 -57.5 L479.0 -116.5 Q519.0 -120.5 559.5 -123.5 600.0 -126.5 640.0 -128.0 L640.0 -201.5 Q627.5 -201.0 615.5 -200.0 603.5 -199.5 592.0 -198.5 592.5 -189.5 593.5 -181.0 594.5 -172.5 596.0 -165.0 L464.0 -165.0 464.0 -168.0 Q460.0 -158.0 454.0 -149.5 448.0 -141.0 440.5 -134.0 427.5 -123.5 414.0 -118.0 401.0 -112.5 387.0 -112.5 370.0 -112.5 356.5 -119.0 342.5 -125.5 332.0 -139.5 L332.0 -35.0 Q358.0 -41.5 385.5 -51.0 413.5 -60.5 443.5 -72.5 L455.5 -21.5 Q400.5 0.0 352.0 15.0 303.5 30.0 262.0 38.0 219.0 45.0 168.5 49.5 118.0 53.5 59.5 55.5 L59.5 3.0 Q73.5 2.5 87.0 1.5 100.5 1.0 112.5 1.0 92.5 -50.5 74.5 -105.0 56.0 -159.5 40.0 -217.0 L151.5 -265.0 Q161.0 -220.5 173.0 -173.5 185.0 -126.5 199.5 -76.0 L199.5 -336.0 Q172.0 -334.5 144.5 -331.5 117.5 -329.0 91.0 -325.5 L91.0 -385.0 Q118.0 -389.0 145.0 -391.5 172.0 -394.0 199.5 -395.5 L199.5 -518.0 Q193.5 -517.5 188.0 -516.5 183.0 -516.0 178.0 -516.0 170.5 -490.0 163.0 -464.5 155.0 -438.5 147.5 -412.5 L27.5 -445.5 Q57.0 -537.5 78.5 -630.5 100.5 -723.5 115.5 -817.0" fill-rule="evenodd" stroke="none"/>
    </g>
    <g id="font_DFPOP3_Std_W12__11">
      <path d="M427.0 -287.5 L427.0 -393.0 596.0 -393.0 596.0 -287.5 Q682.0 -287.0 769.0 -284.5 855.5 -282.0 943.0 -277.5 L943.0 -217.0 Q855.5 -221.5 769.0 -224.5 682.0 -227.5 596.0 -228.5 L596.0 -24.5 Q687.5 -24.0 779.5 -21.0 871.5 -18.0 963.5 -13.5 L963.5 47.0 Q736.5 35.0 512.0 35.0 398.5 35.0 285.5 38.0 172.5 41.0 59.5 47.0 L59.5 -13.5 Q151.5 -18.0 243.0 -21.0 335.0 -24.0 427.0 -24.5 L427.0 -228.5 Q339.5 -227.5 252.5 -224.5 166.0 -221.5 80.0 -217.0 L80.0 -277.5 Q166.5 -282.0 253.5 -284.5 340.0 -287.0 427.0 -287.5 M512.0 -813.0 Q623.5 -813.0 735.5 -810.0 847.5 -807.0 959.5 -801.0 L959.5 -741.5 Q849.5 -747.0 740.5 -749.5 631.5 -752.5 523.5 -752.5 403.5 -648.0 280.5 -525.5 274.5 -516.0 271.0 -508.5 267.5 -501.5 267.5 -496.5 267.5 -469.0 347.0 -469.0 400.0 -469.0 500.0 -480.0 600.0 -491.0 746.5 -514.0 730.5 -546.0 715.5 -579.0 701.0 -611.5 687.0 -645.0 L831.5 -705.5 Q856.0 -646.5 890.5 -580.5 924.5 -514.5 967.5 -441.5 L823.5 -365.5 Q809.5 -389.5 796.5 -414.0 783.5 -438.0 771.0 -463.0 600.0 -436.0 475.0 -423.0 349.5 -409.5 271.5 -409.5 148.5 -409.5 121.0 -428.0 100.0 -437.0 90.0 -453.5 80.0 -470.0 80.0 -493.5 80.0 -501.5 81.5 -509.5 83.0 -518.0 86.0 -526.5 92.0 -540.0 102.5 -555.5 113.0 -570.5 127.0 -585.5 171.5 -633.5 214.5 -674.5 257.5 -715.5 299.0 -749.5 240.0 -748.0 181.0 -746.0 122.0 -744.5 63.5 -741.5 L63.5 -801.0 Q287.5 -813.0 512.0 -813.0" fill-rule="evenodd" stroke="none"/>
    </g>
    <g id="font_DFPOP3_Std_W12__12">
      <path d="M212.0 -765.0 L363.5 -749.5 Q333.5 -614.5 289.5 -476.5 245.5 -338.0 187.5 -197.5 L36.0 -237.5 Q94.0 -368.0 138.0 -499.5 182.0 -631.5 212.0 -765.0 M431.0 -833.5 L592.0 -833.5 592.0 -349.0 Q592.0 -317.0 586.0 -292.0 580.0 -267.0 569.5 -250.0 615.5 -276.0 665.5 -306.0 715.5 -336.0 769.0 -370.5 707.5 -555.0 655.5 -745.5 L804.0 -777.0 Q842.5 -648.0 886.5 -512.5 931.0 -376.5 980.0 -233.5 L831.5 -185.5 Q827.5 -195.5 824.5 -205.0 821.0 -215.0 818.0 -224.5 731.5 -169.0 657.0 -125.5 582.0 -82.0 519.0 -51.0 439.0 -13.0 341.0 24.0 243.5 60.5 128.0 95.0 L80.0 -45.0 Q185.0 -76.5 272.0 -109.5 359.0 -142.5 428.0 -177.0 448.0 -186.5 469.0 -196.5 490.5 -207.0 512.0 -219.0 499.0 -216.0 483.5 -214.5 468.5 -213.0 451.5 -213.0 388.5 -213.0 267.5 -237.5 L267.5 -297.0 Q308.0 -284.5 340.0 -279.0 372.0 -273.5 395.5 -273.5 413.0 -273.5 422.0 -285.0 431.0 -297.0 431.0 -321.5 L431.0 -833.5" fill-rule="evenodd" stroke="none"/>
    </g>
    <g id="font_DFPOP3_Std_W12__13">
      <path d="M552.0 -667.5 L552.0 -833.5 703.5 -833.5 703.5 -668.5 Q769.0 -667.0 834.0 -664.5 899.0 -662.0 963.5 -657.5 L963.5 -597.0 Q934.5 -598.5 905.5 -600.5 876.5 -602.5 849.0 -604.0 898.0 -297.0 959.5 7.0 L819.0 75.0 Q791.5 -89.5 766.5 -260.5 742.0 -431.5 719.0 -608.5 709.5 -608.5 703.5 -608.5 L703.5 95.0 552.0 95.0 552.0 -608.5 Q547.5 -608.0 544.0 -607.5 540.5 -607.5 537.5 -607.0 522.0 -441.5 499.5 -271.5 476.5 -102.0 447.5 70.5 L303.0 35.0 Q337.5 -123.5 364.0 -283.0 390.0 -442.5 408.5 -602.0 388.5 -600.5 369.5 -599.5 350.0 -598.5 332.0 -597.0 L332.0 -657.5 Q387.0 -661.0 442.0 -663.5 496.5 -666.0 552.0 -667.5 M243.5 -837.5 L371.5 -769.0 Q352.5 -729.0 332.5 -690.0 312.5 -650.5 292.0 -611.5 L292.0 95.0 143.5 95.0 143.5 -370.5 31.5 -441.5 Q154.5 -647.0 243.5 -837.5" fill-rule="evenodd" stroke="none"/>
    </g>
    <g id="font_DFPOP3_Std_W12__14">
      <path d="M911.5 -197.5 Q925.0 -150.0 944.0 -97.0 962.5 -43.5 987.0 15.5 L848.0 87.0 Q825.5 34.0 805.5 -21.5 785.5 -77.5 768.0 -137.0 L911.5 -197.5 M607.0 -205.0 Q625.5 -205.0 643.5 -199.0 661.0 -193.0 678.0 -181.0 692.5 -166.5 700.0 -147.5 707.5 -128.5 707.5 -105.5 707.5 -83.0 698.5 -64.5 689.5 -46.0 673.0 -30.5 656.5 -17.5 640.5 -11.5 624.0 -5.0 607.0 -5.0 585.5 -5.0 567.0 -13.5 548.0 -22.5 532.5 -40.0 520.0 -55.5 514.0 -71.5 508.0 -88.0 508.0 -105.5 508.0 -125.5 513.5 -142.5 519.0 -160.0 530.5 -175.0 546.0 -189.5 565.0 -197.0 584.0 -205.0 607.0 -205.0 M87.0 -156.5 L231.5 -141.5 Q222.0 -75.5 210.0 -17.5 198.0 40.5 183.5 91.0 L43.0 66.5 Q57.0 19.0 67.5 -36.5 78.5 -92.0 87.0 -156.5 M271.5 -610.5 Q331.5 -613.5 392.0 -615.5 452.5 -617.5 513.0 -617.5 563.5 -617.5 614.5 -616.0 665.0 -614.5 716.0 -612.5 714.5 -641.5 710.0 -660.5 706.0 -680.0 698.5 -689.0 690.0 -697.0 664.0 -701.0 638.0 -705.5 595.0 -705.5 536.5 -705.5 456.5 -694.5 376.5 -683.0 274.5 -661.5 273.0 -647.5 272.0 -635.0 271.5 -622.5 271.5 -610.5 M267.5 -453.5 Q328.5 -457.0 390.0 -459.0 451.5 -460.5 513.0 -461.0 562.0 -461.0 612.0 -459.5 661.5 -458.0 711.5 -455.5 712.5 -480.5 713.0 -504.5 714.0 -529.0 715.0 -552.0 664.0 -554.5 614.0 -555.5 563.5 -557.0 513.0 -557.0 451.5 -557.0 390.5 -555.0 329.0 -552.5 268.5 -549.0 267.5 -530.5 267.5 -512.5 267.0 -494.0 267.5 -477.0 L267.5 -453.5 M273.5 -297.0 Q342.0 -301.0 410.0 -303.0 478.0 -305.0 546.0 -305.0 622.5 -305.0 699.5 -302.0 701.5 -326.5 704.0 -350.0 706.0 -373.5 707.5 -396.5 658.5 -398.5 610.0 -400.0 561.5 -401.5 513.0 -401.5 451.5 -401.5 390.5 -399.0 329.0 -397.0 268.5 -393.0 269.0 -368.5 270.5 -344.5 272.0 -320.0 273.5 -297.0 M343.0 -865.5 L504.0 -849.0 Q496.0 -822.0 487.5 -798.0 479.0 -774.0 469.0 -752.5 561.0 -765.0 619.5 -765.0 L654.5 -765.0 Q735.5 -765.0 784.5 -755.0 833.0 -745.0 849.0 -725.0 866.0 -712.0 875.0 -679.0 883.5 -645.5 883.5 -592.0 883.5 -527.5 879.0 -453.0 875.0 -378.5 866.5 -294.0 871.5 -294.0 877.0 -293.5 882.5 -293.0 888.0 -293.0 L888.0 -233.5 Q802.0 -239.0 716.5 -242.0 631.0 -244.5 546.0 -244.5 479.0 -244.5 412.0 -242.5 345.5 -240.5 278.5 -237.5 279.5 -227.0 280.5 -216.5 282.0 -206.0 283.5 -196.5 L283.5 -197.5 443.5 -197.5 Q431.0 -128.5 425.5 -85.5 420.0 -42.5 420.0 -25.5 420.0 4.5 432.5 19.5 445.0 35.0 471.0 35.0 531.0 35.0 608.5 25.0 685.5 15.0 779.5 -5.0 L779.5 55.5 Q673.0 75.5 585.0 85.0 497.0 95.0 427.0 95.0 383.5 95.0 351.5 87.5 320.0 80.0 300.0 65.5 281.0 51.5 270.5 32.0 260.5 12.0 259.0 -13.5 259.0 -32.5 264.5 -77.5 270.5 -123.0 282.5 -193.5 L124.0 -193.5 Q115.5 -264.0 111.5 -335.0 107.5 -406.0 107.5 -477.0 107.5 -548.0 111.5 -619.0 115.5 -690.0 124.0 -761.0 L283.5 -761.0 Q282.0 -751.0 281.0 -741.0 280.5 -731.0 279.5 -722.0 285.5 -722.5 291.0 -723.5 296.5 -724.5 302.0 -726.0 314.5 -755.5 324.5 -790.5 334.5 -825.5 343.0 -865.5" fill-rule="evenodd" stroke="none"/>
    </g>
    <g id="font_DFPOP3_Std_W12__15">
      <path d="M584.5 -368.5 Q584.5 -382.5 579.5 -395.5 574.0 -408.5 563.0 -420.0 551.5 -430.5 539.0 -436.0 526.0 -441.5 512.0 -441.5 496.0 -441.5 483.0 -436.0 470.0 -431.0 460.0 -421.0 449.0 -410.0 444.0 -397.0 439.0 -384.0 439.5 -368.5 439.5 -353.5 444.5 -340.5 450.0 -328.0 461.0 -317.5 471.5 -306.0 484.0 -300.5 496.5 -295.0 512.0 -295.0 526.0 -295.0 539.0 -300.5 551.5 -306.0 563.0 -317.5 574.0 -328.0 579.5 -341.0 584.5 -354.0 584.5 -368.5 M665.5 -368.5 Q665.5 -338.0 654.0 -310.5 642.5 -283.0 619.5 -260.0 573.5 -214.0 512.0 -214.0 480.0 -214.0 452.5 -225.5 425.5 -237.0 403.5 -260.0 380.5 -282.5 369.5 -309.5 358.5 -336.5 358.5 -368.5 358.5 -434.5 401.5 -479.0 444.5 -522.0 512.0 -522.0 543.5 -522.0 570.5 -511.0 597.5 -499.5 620.5 -477.0 643.0 -454.0 654.0 -427.0 665.5 -400.0 665.5 -368.5" fill-rule="evenodd" stroke="none"/>
    </g>
  </defs>
</svg>
