<?xml version="1.0" encoding="UTF-8" standalone="no"?>
<svg xmlns:xlink="http://www.w3.org/1999/xlink" height="16.95px" width="280.1px" xmlns="http://www.w3.org/2000/svg">
  <g transform="matrix(1.0, 0.0, 0.0, 1.0, 69.85, 1.5)">
    <g transform="matrix(1.0, 0.0, 0.0, 1.0, -70.6, 0.0)">
      <use fill="#000000" height="16.95" transform="matrix(0.0146, 0.0, 0.0, 0.0146, 0.0, 13.0)" width="280.1" xlink:href="#font_DFPOP3_Std_W12__0"/>
      <use fill="#000000" height="16.95" transform="matrix(0.0146, 0.0, 0.0, 0.0146, 15.0, 13.0)" width="280.1" xlink:href="#font_DFPOP3_Std_W12__1"/>
      <use fill="#000000" height="16.95" transform="matrix(0.0146, 0.0, 0.0, 0.0146, 30.0, 13.0)" width="280.1" xlink:href="#font_DFPOP3_Std_W12__2"/>
      <use fill="#000000" height="16.95" transform="matrix(0.0146, 0.0, 0.0, 0.0146, 45.0, 13.0)" width="280.1" xlink:href="#font_DFPOP3_Std_W12__3"/>
      <use fill="#000000" height="16.95" transform="matrix(0.0146, 0.0, 0.0, 0.0146, 60.0, 13.0)" width="280.1" xlink:href="#font_DFPOP3_Std_W12__0"/>
      <use fill="#000000" height="16.95" transform="matrix(0.0146, 0.0, 0.0, 0.0146, 75.0, 13.0)" width="280.1" xlink:href="#font_DFPOP3_Std_W12__1"/>
      <use fill="#000000" height="16.95" transform="matrix(0.0146, 0.0, 0.0, 0.0146, 90.0, 13.0)" width="280.1" xlink:href="#font_DFPOP3_Std_W12__4"/>
      <use fill="#000000" height="16.95" transform="matrix(0.0146, 0.0, 0.0, 0.0146, 105.0, 13.0)" width="280.1" xlink:href="#font_DFPOP3_Std_W12__5"/>
      <use fill="#000000" height="16.95" transform="matrix(0.0146, 0.0, 0.0, 0.0146, 120.0, 13.0)" width="280.1" xlink:href="#font_DFPOP3_Std_W12__6"/>
      <use fill="#000000" height="16.95" transform="matrix(0.0146, 0.0, 0.0, 0.0146, 135.0, 13.0)" width="280.1" xlink:href="#font_DFPOP3_Std_W12__7"/>
      <use fill="#000000" height="16.95" transform="matrix(0.0146, 0.0, 0.0, 0.0146, 150.0, 13.0)" width="280.1" xlink:href="#font_DFPOP3_Std_W12__8"/>
      <use fill="#000000" height="16.95" transform="matrix(0.0146, 0.0, 0.0, 0.0146, 165.0, 13.0)" width="280.1" xlink:href="#font_DFPOP3_Std_W12__9"/>
      <use fill="#000000" height="16.95" transform="matrix(0.0146, 0.0, 0.0, 0.0146, 180.0, 13.0)" width="280.1" xlink:href="#font_DFPOP3_Std_W12__10"/>
      <use fill="#000000" height="16.95" transform="matrix(0.0146, 0.0, 0.0, 0.0146, 195.0, 13.0)" width="280.1" xlink:href="#font_DFPOP3_Std_W12__11"/>
      <use fill="#000000" height="16.95" transform="matrix(0.0146, 0.0, 0.0, 0.0146, 210.0, 13.0)" width="280.1" xlink:href="#font_DFPOP3_Std_W12__12"/>
      <use fill="#000000" height="16.95" transform="matrix(0.0146, 0.0, 0.0, 0.0146, 225.0, 13.0)" width="280.1" xlink:href="#font_DFPOP3_Std_W12__13"/>
      <use fill="#000000" height="16.95" transform="matrix(0.0146, 0.0, 0.0, 0.0146, 240.0, 13.0)" width="280.1" xlink:href="#font_DFPOP3_Std_W12__14"/>
      <use fill="#000000" height="16.95" transform="matrix(0.0146, 0.0, 0.0, 0.0146, 255.0, 13.0)" width="280.1" xlink:href="#font_DFPOP3_Std_W12__15"/>
      <use fill="#000000" height="16.95" transform="matrix(0.0146, 0.0, 0.0, 0.0146, 270.0, 13.0)" width="280.1" xlink:href="#font_DFPOP3_Std_W12__16"/>
    </g>
  </g>
  <defs>
    <g id="font_DFPOP3_Std_W12__0">
      <path d="M331.0 -249.0 Q389.0 -252.5 447.0 -255.0 505.0 -257.0 563.0 -257.0 613.0 -257.0 663.0 -255.5 713.0 -254.0 764.0 -251.0 L764.0 -253.0 Q764.0 -290.5 743.5 -309.5 723.0 -328.5 683.0 -328.5 609.5 -326.5 521.5 -318.0 434.0 -309.0 333.0 -294.0 332.0 -281.5 331.5 -270.5 331.0 -259.5 331.0 -249.0 M327.5 -121.0 Q387.0 -124.5 446.0 -127.0 505.0 -129.0 563.0 -129.0 663.0 -129.0 763.0 -123.0 763.0 -141.5 763.0 -158.5 763.0 -175.5 764.0 -191.5 713.0 -194.5 663.0 -196.0 612.5 -197.5 563.0 -197.5 504.0 -197.5 445.5 -195.5 387.0 -193.5 328.5 -189.5 328.0 -175.5 328.0 -162.5 327.5 -149.5 327.5 -137.0 L327.5 -121.0 M333.0 11.5 Q399.5 6.5 466.5 5.0 533.5 3.0 601.0 3.0 681.0 3.0 761.0 6.0 761.0 -12.0 761.0 -29.5 761.0 -46.5 762.0 -63.5 712.0 -66.5 662.0 -68.0 612.5 -69.5 563.0 -69.5 505.0 -69.5 446.0 -67.5 387.0 -65.5 328.5 -61.5 329.0 -43.0 330.0 -24.5 331.0 -6.5 333.0 11.5 M936.0 -821.0 L947.0 -769.0 Q709.0 -737.0 529.5 -726.0 518.0 -725.0 506.5 -724.5 495.0 -724.0 484.5 -724.0 476.0 -705.5 468.0 -688.0 460.5 -670.0 452.5 -653.5 L512.0 -653.5 Q619.5 -653.5 727.0 -650.0 835.0 -647.0 943.0 -641.0 L943.0 -581.5 Q835.0 -587.0 727.0 -590.0 619.5 -593.0 512.0 -593.0 490.0 -593.0 468.0 -592.5 446.5 -592.0 425.0 -592.0 416.0 -572.5 408.0 -555.0 400.0 -537.0 392.0 -520.0 421.5 -520.5 451.5 -520.5 481.5 -521.0 512.0 -521.0 625.5 -521.0 739.5 -518.0 853.5 -515.0 967.5 -509.0 L967.5 -449.5 Q853.5 -455.0 739.5 -458.0 625.5 -461.0 512.0 -461.0 474.5 -460.5 437.5 -460.5 400.5 -460.0 363.5 -460.0 354.5 -440.5 346.5 -423.0 338.5 -405.5 331.0 -390.0 329.0 -386.5 327.0 -383.0 325.0 -380.0 323.5 -377.0 L340.0 -377.0 Q339.0 -370.5 338.5 -365.0 338.0 -359.5 338.0 -354.5 461.5 -371.5 553.0 -380.0 644.5 -389.0 703.5 -389.0 L727.0 -389.0 Q777.5 -389.0 813.5 -380.0 849.0 -371.0 870.5 -353.5 890.5 -335.5 901.0 -311.5 911.5 -287.5 911.5 -257.0 911.5 -197.0 910.5 -129.5 910.0 -61.5 908.5 14.5 913.5 14.5 919.5 14.5 925.5 14.5 932.0 15.5 L932.0 75.0 Q849.0 68.5 766.5 65.5 684.0 62.5 601.0 62.5 534.0 62.5 468.5 64.5 402.5 66.0 338.0 70.5 338.0 78.5 338.5 86.5 339.0 94.5 340.0 102.5 L208.0 102.5 Q201.5 42.5 198.5 -16.5 195.5 -75.5 195.5 -135.0 188.0 -120.0 179.5 -105.0 171.5 -90.5 164.0 -77.0 L43.0 -161.0 Q126.0 -294.5 196.5 -437.0 201.0 -446.5 206.0 -455.5 129.0 -452.5 55.5 -449.5 L55.5 -509.0 Q100.5 -511.0 146.0 -513.0 191.5 -514.5 237.5 -516.0 246.0 -534.5 254.5 -552.5 263.0 -570.5 271.5 -589.0 223.0 -587.5 175.0 -585.5 127.5 -584.0 80.0 -581.5 L80.0 -641.0 Q135.0 -644.0 190.0 -646.5 245.0 -648.5 300.0 -650.0 307.5 -667.0 315.0 -684.0 322.0 -701.0 329.5 -718.0 273.5 -715.5 214.0 -714.0 154.0 -712.5 91.0 -712.5 L91.0 -765.0 Q229.5 -766.5 338.5 -770.0 448.0 -773.0 529.5 -779.5 620.0 -784.5 721.5 -795.5 823.0 -806.0 936.0 -821.0" fill-rule="evenodd" stroke="none"/>
    </g>
    <g id="font_DFPOP3_Std_W12__1">
      <path d="M570.5 -309.0 Q569.5 -290.0 569.0 -272.5 568.5 -255.0 568.5 -239.5 618.0 -239.5 668.0 -238.0 718.0 -237.0 768.0 -234.5 L768.0 -240.5 Q768.0 -277.0 749.5 -295.0 731.5 -313.5 695.5 -313.5 664.5 -312.5 633.5 -311.5 602.5 -311.0 570.5 -309.0 M224.5 -232.5 Q272.5 -234.5 321.0 -236.5 369.0 -238.0 417.0 -239.5 417.0 -253.5 417.5 -268.5 418.0 -284.0 419.0 -300.0 372.5 -296.0 325.0 -292.0 277.5 -288.0 228.5 -283.5 227.0 -270.0 225.5 -257.5 224.5 -244.5 224.5 -232.5 M567.5 -180.0 Q566.5 -157.0 566.0 -138.0 565.5 -119.5 565.0 -105.5 614.5 -105.5 663.0 -104.0 711.5 -103.0 760.0 -101.5 763.0 -141.5 766.0 -175.0 715.0 -177.5 665.5 -179.0 615.5 -180.0 567.5 -180.0 M227.5 -96.5 Q273.5 -98.5 320.0 -100.0 366.5 -102.0 412.5 -103.5 412.5 -119.0 413.5 -138.0 414.0 -157.0 414.5 -180.0 366.5 -178.5 318.5 -177.0 271.0 -175.5 223.0 -173.0 223.0 -153.0 224.0 -134.0 225.0 -114.5 227.5 -96.5 M655.5 -525.5 Q681.5 -504.5 713.0 -483.5 745.0 -463.0 783.5 -441.5 L726.0 -372.5 743.5 -372.5 Q791.0 -372.5 825.5 -364.0 859.5 -355.0 879.5 -338.0 899.5 -321.0 909.5 -298.0 919.5 -274.5 919.5 -244.5 919.5 -177.0 910.5 -94.0 916.5 -94.0 922.0 -93.5 927.0 -93.0 932.0 -93.0 L932.0 -33.0 Q746.0 -45.0 563.0 -45.0 563.5 -23.0 567.5 -8.0 572.0 6.5 579.5 14.5 587.5 23.5 599.5 29.0 611.5 34.0 627.5 35.0 740.0 35.0 972.0 7.0 L967.5 70.5 Q848.0 83.0 751.0 89.0 654.0 95.0 579.5 95.0 L549.0 95.0 Q516.0 95.0 489.5 83.0 463.5 70.5 443.5 46.0 428.0 30.5 420.0 8.5 412.5 -14.0 411.5 -43.0 367.0 -41.5 322.5 -40.0 278.5 -38.5 234.5 -37.0 235.5 -28.5 236.5 -20.5 238.0 -13.0 239.5 -5.0 L91.0 -5.0 Q83.5 -49.5 79.5 -95.0 76.0 -140.0 76.0 -185.5 76.0 -230.0 79.5 -275.0 83.5 -320.0 91.0 -365.5 L239.5 -365.5 Q238.0 -359.5 237.5 -354.0 236.5 -348.5 236.5 -343.0 395.5 -357.0 513.0 -364.5 631.0 -372.0 707.5 -372.5 675.5 -391.0 646.5 -411.5 618.0 -432.0 592.0 -453.5 L655.5 -525.5 M275.5 -521.0 Q327.5 -481.5 407.5 -441.5 L343.0 -365.5 Q307.0 -384.5 274.0 -405.5 241.0 -426.5 212.0 -449.5 L275.5 -521.0 M512.0 -829.5 Q736.5 -829.5 963.5 -817.0 L963.5 -756.5 Q868.5 -761.5 773.0 -764.5 678.0 -767.5 583.5 -769.0 L583.5 -711.5 Q600.0 -711.5 615.0 -712.0 630.5 -712.5 645.0 -712.5 L660.5 -712.5 Q742.0 -712.5 801.0 -705.5 859.5 -698.0 895.0 -684.0 972.0 -650.0 972.0 -573.5 970.0 -527.5 965.0 -486.5 960.0 -445.5 951.5 -409.5 L795.5 -409.5 Q806.5 -456.5 812.0 -497.5 817.5 -538.0 819.0 -573.5 819.0 -600.5 805.0 -617.0 790.5 -634.0 763.0 -641.0 747.5 -644.0 728.5 -646.5 709.5 -649.0 688.0 -651.5 712.0 -630.5 741.0 -610.0 770.0 -589.5 804.0 -569.5 L743.5 -496.5 Q669.5 -539.5 611.5 -589.0 L667.5 -652.5 Q654.5 -652.5 641.0 -653.0 627.0 -653.0 613.5 -653.5 L583.5 -653.5 583.5 -393.0 435.0 -393.0 435.0 -643.0 Q383.0 -637.0 327.5 -631.0 350.0 -614.0 376.0 -597.5 402.0 -581.5 431.0 -565.0 L371.5 -493.5 Q335.0 -512.5 302.0 -533.5 269.0 -554.5 239.5 -577.5 L281.5 -624.5 Q260.0 -621.5 238.0 -618.5 216.0 -615.5 194.5 -612.5 191.5 -580.0 191.5 -551.0 191.5 -513.0 195.5 -476.0 199.5 -438.5 208.0 -401.5 L59.5 -401.5 Q51.0 -438.5 47.0 -476.0 43.0 -513.0 43.0 -551.0 43.0 -588.0 47.0 -625.5 51.0 -663.0 59.5 -701.5 L208.0 -701.5 Q206.5 -694.0 205.0 -687.0 203.5 -680.0 203.0 -674.0 267.0 -683.0 325.0 -690.0 383.0 -697.0 435.0 -701.5 L435.0 -768.0 Q341.0 -767.0 247.0 -764.5 153.0 -761.5 59.5 -756.5 L59.5 -817.0 Q172.5 -823.5 285.5 -826.5 398.5 -829.5 512.0 -829.5" fill-rule="evenodd" stroke="none"/>
    </g>
    <g id="font_DFPOP3_Std_W12__2">
      <path d="M776.0 -182.5 Q792.5 -170.0 808.5 -158.5 825.0 -147.0 841.5 -136.0 842.0 -174.5 842.5 -209.5 843.0 -244.5 844.0 -275.5 827.5 -250.0 811.0 -227.0 794.0 -203.5 776.0 -182.5 M528.5 -14.5 Q577.5 -17.5 626.0 -19.5 675.0 -21.5 724.0 -21.5 781.0 -21.5 837.5 -18.5 837.5 -61.5 840.5 -101.5 L764.0 -37.0 Q745.5 -50.0 728.0 -63.0 710.5 -76.5 695.5 -90.0 681.5 -75.0 666.5 -59.5 651.5 -44.0 636.0 -28.5 L531.5 -105.5 Q551.5 -124.0 568.5 -140.5 585.5 -156.5 600.0 -172.0 581.5 -188.0 564.0 -204.5 547.0 -220.5 531.5 -237.5 L623.5 -305.0 Q637.5 -293.0 651.5 -280.5 665.5 -268.5 680.0 -257.0 695.5 -275.5 710.0 -295.5 725.0 -315.5 739.5 -337.0 L844.0 -283.5 844.0 -297.0 Q843.5 -327.0 824.5 -342.0 805.5 -357.5 768.0 -357.5 717.5 -354.5 657.5 -345.5 598.0 -337.0 529.5 -322.5 526.5 -282.5 525.0 -243.0 523.5 -203.5 523.5 -165.0 523.0 -126.5 524.5 -89.0 525.5 -51.0 528.5 -14.5 M588.0 -465.0 L703.5 -429.0 Q698.0 -423.0 693.5 -417.5 688.5 -412.0 684.0 -407.5 716.5 -412.0 742.5 -414.5 769.0 -417.0 789.5 -417.0 L808.0 -417.0 Q852.5 -417.0 884.0 -409.0 915.5 -401.5 935.0 -386.0 953.5 -370.5 962.5 -349.5 972.0 -328.0 972.0 -301.0 971.5 -237.5 969.5 -164.5 967.5 -91.5 964.5 -10.0 967.5 -10.0 970.0 -9.5 973.0 -9.5 976.0 -9.0 L976.0 51.0 Q850.0 39.0 724.0 39.0 675.5 39.0 628.0 40.5 580.5 42.5 533.5 46.0 533.5 52.0 534.0 58.5 535.0 64.5 535.5 70.5 L407.5 70.5 Q401.5 12.5 398.5 -46.5 395.5 -105.5 395.5 -165.0 395.5 -283.0 407.5 -401.5 L535.5 -401.5 Q535.0 -398.5 534.5 -395.5 534.5 -392.0 534.5 -389.0 552.0 -409.0 565.5 -428.0 578.5 -446.5 588.0 -465.0 M855.0 -837.5 L967.5 -761.0 Q946.0 -736.5 927.5 -713.0 909.0 -690.0 893.0 -668.5 883.5 -655.0 883.5 -641.0 883.5 -637.0 887.5 -631.0 891.5 -624.5 899.0 -615.5 916.5 -594.0 936.0 -570.5 955.0 -547.5 976.0 -521.0 L867.5 -441.5 Q840.5 -484.5 817.5 -522.5 794.5 -560.5 775.0 -593.0 765.0 -608.0 760.5 -620.0 755.5 -632.0 755.5 -641.0 755.5 -652.5 761.5 -668.0 767.0 -683.5 779.5 -703.5 791.5 -724.5 810.0 -758.0 829.0 -791.5 855.0 -837.5 M667.5 -845.0 L779.5 -777.0 Q756.5 -745.5 737.0 -718.0 717.5 -690.5 701.5 -666.5 695.5 -654.5 695.5 -645.0 695.0 -643.0 697.0 -639.0 699.0 -635.0 703.5 -630.0 719.5 -607.5 738.5 -583.5 757.5 -559.5 779.5 -533.5 L676.0 -449.5 Q648.0 -492.5 623.5 -531.5 599.0 -570.5 577.5 -605.0 572.0 -615.0 569.5 -625.0 567.5 -635.0 567.5 -645.0 567.5 -650.0 569.5 -658.5 572.0 -667.5 577.5 -680.0 596.0 -713.0 619.0 -754.5 641.5 -795.5 667.5 -845.0 M479.0 -840.5 L599.0 -781.5 Q579.0 -747.0 561.5 -715.5 543.5 -684.0 527.5 -655.5 525.0 -652.0 524.0 -649.5 523.0 -646.5 523.5 -645.0 523.0 -642.0 524.0 -638.5 525.0 -635.0 527.5 -632.0 542.5 -604.0 561.5 -570.5 580.0 -536.5 603.0 -496.5 L479.0 -441.5 Q454.5 -496.0 435.5 -540.5 416.5 -584.5 402.5 -618.5 398.5 -625.5 397.0 -632.0 395.0 -639.0 395.5 -645.0 395.0 -650.5 397.0 -657.0 398.5 -663.0 402.5 -670.5 417.0 -703.0 436.0 -745.5 455.5 -788.5 479.0 -840.5 M170.0 -546.0 Q182.5 -547.5 195.0 -548.0 208.0 -549.0 221.0 -549.0 228.0 -549.0 235.0 -548.5 242.0 -548.0 249.0 -548.0 246.5 -584.5 244.0 -624.0 241.5 -663.0 238.5 -704.5 234.5 -728.5 225.0 -740.5 215.0 -752.5 199.5 -752.5 195.0 -752.0 189.0 -751.0 183.0 -750.0 176.0 -748.5 171.5 -647.0 170.0 -546.0 M169.0 -278.5 Q195.0 -281.5 221.0 -281.5 229.5 -281.5 238.0 -281.0 246.5 -280.5 255.0 -280.5 255.0 -300.5 255.5 -321.0 256.0 -341.5 256.0 -361.5 255.5 -390.5 254.5 -422.5 253.5 -454.5 252.0 -488.5 244.0 -488.5 236.5 -489.0 229.0 -489.5 221.0 -489.5 195.0 -489.5 169.0 -486.5 168.0 -457.0 168.0 -429.0 168.0 -400.5 168.0 -372.5 168.0 -349.0 168.0 -325.0 168.0 -301.5 169.0 -278.5 M51.0 -833.5 L179.0 -833.5 Q178.5 -826.0 178.5 -819.0 178.0 -811.5 178.0 -805.0 196.0 -808.5 210.5 -811.0 224.5 -813.0 235.5 -813.0 L243.5 -813.0 Q302.0 -813.0 333.5 -790.0 365.0 -767.5 368.5 -722.0 375.0 -648.0 378.5 -558.0 382.5 -468.0 384.0 -361.5 384.0 -220.0 381.0 -127.5 378.5 -34.5 374.0 9.0 370.0 50.0 340.5 70.5 311.5 91.0 256.0 91.0 L195.5 91.0 195.5 30.5 215.0 30.5 Q226.5 30.5 234.0 23.0 241.5 15.5 244.5 1.0 248.0 -50.5 250.5 -105.5 253.5 -161.0 255.0 -220.0 246.0 -220.0 237.5 -220.5 229.0 -221.0 221.0 -221.0 208.0 -221.0 195.0 -220.5 182.5 -219.5 170.0 -218.0 171.0 -140.5 173.0 -64.5 175.5 12.0 179.0 87.0 L51.0 87.0 Q45.0 -28.0 42.5 -143.0 40.0 -257.5 40.0 -372.5 40.0 -488.0 42.5 -603.0 45.0 -718.5 51.0 -833.5" fill-rule="evenodd" stroke="none"/>
    </g>
    <g id="font_DFPOP3_Std_W12__3">
      <path d="M656.5 -313.5 L537.5 -220.0 Q503.0 -266.0 460.5 -316.5 418.5 -366.5 367.5 -421.0 L481.5 -517.0 Q522.0 -473.5 566.0 -422.5 609.5 -371.5 656.5 -313.5" fill-rule="evenodd" stroke="none"/>
    </g>
    <g id="font_DFPOP3_Std_W12__4">
      <path d="M450.5 -327.5 Q449.0 -364.5 448.5 -402.0 447.5 -439.5 447.5 -477.0 447.5 -557.0 450.5 -637.0 444.5 -621.5 434.5 -603.0 425.0 -584.5 412.5 -562.0 399.0 -537.0 383.0 -511.5 367.0 -486.5 350.0 -462.0 373.5 -427.0 398.5 -393.5 423.5 -360.0 450.5 -327.5 M594.0 -608.5 Q622.5 -610.5 651.0 -612.0 679.0 -613.5 707.5 -613.5 729.0 -613.5 751.0 -612.5 773.0 -612.0 794.5 -610.5 792.5 -658.0 788.5 -689.0 785.0 -720.0 780.5 -735.0 777.0 -747.5 768.0 -754.0 759.0 -761.0 743.5 -761.0 728.0 -761.0 692.0 -752.5 655.5 -744.0 598.0 -727.0 596.5 -696.5 595.0 -667.0 594.0 -637.5 594.0 -608.5 M593.0 -407.5 Q621.5 -410.0 649.5 -411.5 678.0 -412.5 705.5 -412.5 728.0 -412.5 750.0 -412.0 772.0 -411.0 793.5 -409.5 794.5 -440.5 795.0 -468.5 795.5 -497.0 795.5 -523.5 L795.5 -550.0 Q773.5 -551.5 751.0 -552.0 729.0 -553.0 707.5 -553.0 678.5 -553.0 650.0 -551.5 621.5 -550.0 593.0 -548.0 592.0 -529.5 592.0 -511.5 592.0 -494.0 592.0 -477.0 592.0 -459.0 592.0 -441.5 592.0 -424.5 593.0 -407.5 M599.0 -215.0 Q634.5 -218.0 670.0 -219.5 706.0 -221.0 741.5 -221.0 752.0 -221.0 763.5 -220.5 774.5 -220.0 785.5 -220.0 787.0 -254.5 788.5 -287.0 790.0 -319.5 791.5 -350.0 747.0 -353.5 705.5 -353.5 676.5 -353.0 648.5 -352.0 621.0 -350.5 594.0 -348.0 594.0 -314.5 595.5 -281.0 596.5 -247.5 599.0 -215.0 M179.0 -840.5 L327.5 -840.5 327.5 -761.0 329.5 -761.0 Q381.0 -761.0 412.0 -746.5 443.0 -732.0 453.5 -703.5 455.0 -762.0 460.0 -817.0 L603.0 -817.0 Q602.5 -808.5 601.5 -801.0 601.0 -793.5 601.0 -786.5 659.5 -802.0 710.0 -810.5 761.0 -819.0 804.0 -821.0 L814.0 -821.0 Q861.5 -821.0 890.0 -804.5 918.5 -788.0 927.5 -755.5 935.5 -726.5 939.5 -668.5 943.0 -610.0 943.0 -523.5 943.0 -452.5 941.0 -375.0 938.5 -297.0 934.0 -211.0 939.5 -210.0 944.5 -209.5 950.0 -209.0 955.5 -209.0 L955.5 -149.5 Q931.0 -152.0 907.0 -154.0 883.0 -156.0 859.0 -157.5 853.0 -104.0 850.5 -70.0 848.0 -36.0 848.0 -21.5 848.0 18.5 888.0 18.5 918.5 18.5 967.5 3.0 L967.5 62.5 Q931.0 70.0 901.0 74.5 871.0 79.0 848.0 79.0 809.5 79.0 782.5 73.0 755.0 67.0 738.5 55.5 721.5 44.0 713.0 27.5 704.0 11.5 703.5 -9.0 703.5 -26.0 706.5 -64.0 710.0 -101.5 717.0 -161.0 705.5 -160.5 694.5 -160.5 684.0 -160.0 674.0 -159.5 644.0 -92.0 612.5 -30.5 581.0 31.0 548.0 87.0 L407.5 15.5 Q437.5 -23.0 463.5 -61.0 490.0 -99.0 513.0 -137.0 L460.0 -137.0 Q457.0 -172.5 455.0 -207.5 453.0 -242.0 451.5 -277.5 L363.5 -205.0 Q353.0 -218.5 343.0 -232.5 333.0 -246.0 323.5 -259.0 L323.5 95.0 171.0 95.0 171.0 -242.5 Q162.5 -233.5 155.0 -225.0 147.0 -216.5 139.5 -209.0 L23.5 -328.5 Q98.0 -400.0 159.0 -472.5 219.5 -545.0 267.5 -618.5 289.0 -651.5 300.0 -671.5 311.0 -691.0 311.5 -697.5 311.5 -699.0 302.0 -700.0 293.0 -701.5 275.5 -701.5 261.0 -701.5 204.0 -677.0 147.0 -653.0 47.0 -605.0 L47.0 -665.5 Q85.5 -683.5 118.5 -697.5 151.5 -712.0 179.0 -723.0 L179.0 -840.5" fill-rule="evenodd" stroke="none"/>
    </g>
    <g id="font_DFPOP3_Std_W12__5">
      <path d="M567.5 -229.5 Q587.5 -229.5 606.5 -222.5 625.5 -216.0 643.0 -204.0 659.0 -188.5 667.5 -169.0 676.0 -149.5 676.0 -125.0 676.0 -101.0 666.0 -81.0 656.5 -61.0 638.0 -45.0 604.0 -17.5 567.5 -17.5 544.5 -17.5 525.0 -26.5 505.5 -36.0 489.5 -54.5 476.5 -71.0 470.0 -89.0 464.0 -106.5 464.0 -125.0 464.0 -145.5 469.5 -164.0 475.0 -182.0 487.5 -197.5 503.0 -213.0 523.0 -221.0 542.5 -229.5 567.5 -229.5 M703.5 -325.5 Q719.0 -325.5 733.5 -325.0 748.5 -324.5 764.0 -324.5 L764.0 -433.0 923.5 -433.0 923.5 -317.5 Q939.0 -316.0 953.5 -315.0 968.5 -314.0 983.0 -313.5 L983.0 -253.0 Q967.5 -253.5 953.0 -254.5 938.0 -255.5 923.5 -257.0 L923.5 -57.5 Q923.5 -21.5 917.0 6.5 910.0 34.5 897.0 54.5 881.0 74.5 847.5 84.5 814.5 95.0 764.0 95.0 730.0 95.0 679.5 89.0 629.5 83.0 563.0 70.5 L563.0 11.5 Q604.5 23.0 637.5 29.0 670.5 35.0 695.5 35.0 729.0 35.0 746.5 16.5 764.0 -1.5 764.0 -37.0 L764.0 -264.0 Q748.5 -264.5 733.5 -264.5 718.0 -265.0 703.5 -265.0 562.0 -265.0 424.0 -253.0 L424.0 -313.5 Q562.0 -325.5 703.5 -325.5 M611.5 -527.5 L611.5 -700.5 Q563.0 -699.0 515.0 -696.0 467.5 -693.0 420.0 -689.0 L420.0 -749.5 Q467.5 -753.5 515.5 -756.0 563.5 -758.5 611.5 -760.0 L611.5 -833.5 771.0 -833.5 771.0 -760.0 Q822.0 -758.5 873.0 -756.0 924.5 -753.5 976.0 -749.5 L976.0 -689.0 Q923.5 -693.5 872.5 -696.5 821.5 -699.0 771.0 -700.5 L771.0 -528.5 Q818.5 -527.0 865.5 -524.5 912.5 -521.5 959.5 -517.0 L959.5 -456.5 Q833.5 -469.0 707.5 -469.0 581.5 -469.0 455.5 -456.5 L455.5 -517.0 Q495.0 -520.5 534.0 -523.0 573.0 -526.0 611.5 -527.5 M196.5 -435.0 Q207.5 -436.0 218.0 -436.5 229.0 -437.0 239.5 -437.0 L256.0 -437.0 256.0 -438.5 Q255.0 -536.5 251.5 -598.0 248.0 -659.0 241.5 -683.0 238.5 -697.5 230.0 -705.0 221.5 -712.5 208.0 -712.5 206.5 -712.5 205.0 -712.0 203.5 -711.5 201.5 -711.5 198.5 -642.0 197.5 -572.5 196.5 -503.5 196.5 -435.0 M201.5 -90.0 Q212.5 -91.0 223.5 -91.5 235.0 -92.0 246.0 -92.0 249.5 -172.0 252.0 -243.5 254.5 -314.5 256.0 -377.0 L239.5 -377.0 Q228.0 -377.0 217.0 -376.0 206.5 -375.5 195.5 -375.0 195.5 -302.5 197.0 -231.5 198.5 -160.5 201.5 -90.0 M59.5 -777.0 L204.0 -777.0 204.0 -766.0 Q215.5 -769.0 226.0 -770.5 237.0 -772.5 248.0 -773.0 L259.0 -773.0 Q312.0 -773.0 343.5 -755.0 375.5 -736.5 386.0 -700.5 394.5 -666.5 399.0 -601.0 403.5 -536.0 403.5 -438.5 403.5 -359.0 400.5 -270.5 398.0 -182.0 393.0 -84.0 398.5 -83.0 404.0 -82.5 409.5 -81.5 415.5 -81.0 L415.5 -21.5 Q379.0 -27.0 343.0 -30.0 306.5 -32.5 271.5 -33.0 254.5 -32.5 237.5 -32.0 221.0 -31.5 205.0 -30.5 205.5 -17.0 206.5 -3.5 207.0 9.5 208.0 22.5 L63.5 22.5 Q51.0 -177.0 51.0 -377.0 51.0 -476.5 53.0 -577.0 55.0 -677.5 59.5 -777.0" fill-rule="evenodd" stroke="none"/>
    </g>
    <g id="font_DFPOP3_Std_W12__6">
      <path d="M867.5 -789.5 Q887.0 -789.5 905.0 -783.0 923.0 -776.5 940.0 -764.0 955.5 -748.5 963.5 -729.0 971.5 -709.5 972.0 -685.0 971.5 -662.0 962.5 -643.0 953.5 -623.5 936.0 -608.5 919.0 -594.5 901.5 -588.0 884.5 -581.5 867.5 -581.5 844.5 -581.5 825.0 -590.5 805.5 -599.0 789.5 -617.5 776.5 -633.0 770.0 -649.5 764.0 -666.5 764.0 -685.0 764.0 -706.0 769.5 -723.5 775.0 -741.5 787.5 -756.5 803.0 -773.0 823.0 -781.0 843.0 -789.5 867.5 -789.5 M515.0 -817.0 L531.5 -752.5 Q490.0 -740.5 452.0 -731.0 414.5 -722.0 380.0 -716.0 L380.0 -536.5 Q413.0 -536.5 446.0 -537.0 479.5 -537.5 513.0 -537.5 536.0 -537.5 559.5 -537.0 583.5 -536.5 607.0 -536.5 592.0 -596.5 578.0 -658.0 564.0 -719.0 552.0 -781.5 L699.5 -829.5 Q716.5 -750.5 734.5 -676.5 753.0 -602.5 773.0 -533.5 821.5 -532.0 870.0 -530.0 918.5 -527.5 967.5 -525.5 L967.5 -465.0 Q923.0 -467.0 878.5 -469.0 834.5 -470.5 790.5 -472.0 796.5 -448.0 803.5 -425.5 810.5 -402.5 818.0 -381.0 819.0 -377.0 820.0 -374.0 821.0 -370.5 822.5 -367.5 833.0 -380.5 843.0 -394.0 853.5 -407.0 863.0 -421.0 L991.0 -328.5 Q966.0 -295.0 939.0 -261.0 912.5 -227.0 884.5 -191.5 906.0 -134.5 929.0 -80.0 951.5 -25.5 976.0 26.5 L823.5 102.5 Q807.0 65.5 792.5 29.5 777.5 -7.0 764.0 -43.0 736.5 -10.5 708.5 23.0 680.5 56.5 651.5 91.0 L523.5 -9.0 Q569.5 -60.0 614.0 -111.0 658.5 -162.0 701.5 -213.0 690.0 -245.5 679.5 -278.0 668.5 -310.5 659.5 -343.0 649.5 -376.0 640.5 -409.0 631.0 -442.5 622.5 -476.0 595.0 -476.0 567.5 -476.5 540.0 -477.0 513.0 -477.0 479.5 -477.0 446.0 -476.5 413.0 -476.0 380.0 -476.0 L380.0 -249.0 Q412.0 -268.0 448.0 -291.0 484.0 -314.0 523.5 -341.0 L555.0 -284.5 Q506.0 -251.0 462.0 -222.5 418.5 -194.5 380.0 -173.0 L380.0 99.5 219.0 99.5 219.0 -95.0 Q185.5 -81.5 150.0 -69.0 114.0 -56.5 76.0 -45.0 L55.5 -105.5 Q102.0 -120.0 143.0 -135.0 184.0 -149.5 219.0 -165.0 L219.0 -472.0 Q178.5 -470.5 138.5 -468.5 98.5 -466.5 59.5 -465.0 L59.5 -525.5 Q99.5 -527.0 139.5 -529.0 179.0 -531.0 219.0 -532.5 L219.0 -695.5 Q185.5 -692.0 150.0 -690.5 114.0 -689.0 76.0 -689.0 L76.0 -741.5 Q147.0 -743.0 204.0 -747.5 261.0 -752.5 304.0 -761.0 351.0 -767.5 404.0 -781.5 456.5 -795.5 515.0 -817.0" fill-rule="evenodd" stroke="none"/>
    </g>
    <g id="font_DFPOP3_Std_W12__7">
      <path d="M272.5 -116.5 Q334.0 -120.5 396.0 -123.0 457.5 -125.0 519.0 -125.0 625.0 -125.0 731.0 -119.0 L731.0 -125.0 Q731.0 -155.0 720.0 -170.0 708.5 -185.5 687.0 -185.5 600.5 -183.0 497.5 -174.5 394.0 -166.5 274.5 -152.5 273.5 -143.5 273.0 -134.5 272.5 -125.0 272.5 -116.5 M273.5 3.0 Q344.0 -1.0 414.0 -3.0 484.0 -5.0 554.0 -5.0 598.5 -5.0 642.5 -4.5 686.5 -3.5 731.0 -2.0 L731.0 -59.5 Q623.5 -65.5 519.0 -65.5 456.5 -65.5 394.5 -63.5 332.5 -61.0 271.5 -57.5 271.5 -42.0 271.5 -27.0 272.0 -11.5 273.5 3.0 M139.5 -237.5 L283.5 -237.5 Q280.5 -223.5 280.5 -213.0 423.5 -228.5 528.5 -236.5 634.0 -244.5 701.5 -244.5 L727.0 -244.5 Q771.5 -244.5 803.5 -237.0 835.5 -229.5 854.0 -214.0 872.5 -198.5 882.0 -177.5 892.0 -156.0 892.0 -129.0 L892.0 7.0 Q893.5 7.0 894.5 7.0 895.5 7.0 896.0 7.0 L896.0 66.5 Q810.0 60.5 724.5 58.0 639.0 55.0 554.0 55.5 485.0 55.5 416.5 57.0 347.5 58.5 278.5 62.5 279.5 71.5 280.5 81.0 282.0 90.0 283.5 99.5 L139.5 99.5 Q133.0 57.0 130.5 15.0 128.0 -26.5 128.0 -69.5 128.0 -111.0 130.5 -153.0 133.0 -195.5 139.5 -237.5 M314.5 -684.0 Q364.5 -688.5 414.5 -691.0 464.5 -693.0 515.0 -693.0 564.0 -693.0 612.5 -691.0 661.0 -689.0 708.5 -685.0 699.5 -697.5 691.5 -709.5 683.5 -721.5 676.0 -733.0 642.0 -773.0 599.0 -773.0 557.5 -772.5 493.0 -760.0 428.5 -747.5 341.0 -723.0 334.0 -713.0 327.5 -703.0 320.5 -693.5 314.5 -684.0 M256.0 -540.5 Q411.0 -557.0 525.0 -565.0 639.0 -573.5 711.5 -573.5 L739.5 -573.5 Q751.0 -573.5 761.0 -573.0 771.0 -572.0 780.5 -571.5 772.5 -584.5 765.0 -597.5 757.0 -610.5 749.5 -622.5 690.5 -627.5 632.0 -630.0 573.5 -633.0 515.0 -633.0 455.0 -633.0 395.5 -630.0 335.5 -627.0 275.5 -621.5 L275.5 -628.5 Q263.0 -612.0 251.0 -595.0 239.0 -578.0 227.5 -561.0 L259.0 -561.0 Q257.5 -555.5 257.0 -550.5 256.0 -545.5 256.0 -540.5 M694.5 -359.5 Q705.0 -358.5 716.0 -358.0 726.5 -357.5 737.5 -357.5 742.0 -387.5 744.5 -413.5 747.5 -439.5 747.5 -461.0 747.5 -487.0 736.5 -500.0 725.0 -513.0 703.5 -513.0 639.0 -510.0 571.5 -507.0 L571.5 -361.5 579.5 -361.5 Q592.0 -393.0 602.0 -425.0 612.0 -457.0 619.5 -489.5 L739.5 -477.0 Q731.0 -448.0 719.5 -418.5 708.0 -388.5 694.5 -359.5 M250.0 -352.5 Q262.0 -352.5 274.0 -353.0 285.5 -353.5 297.0 -354.5 288.0 -382.0 280.5 -408.5 273.5 -435.0 267.5 -461.0 L387.0 -485.5 Q402.5 -421.0 424.0 -359.5 428.5 -359.5 432.5 -360.0 436.0 -360.5 439.5 -360.5 L439.5 -497.5 Q394.0 -493.0 346.5 -488.5 299.0 -484.0 250.0 -479.0 248.5 -461.5 248.0 -444.5 247.5 -428.0 248.0 -411.5 247.5 -396.5 248.0 -381.5 248.5 -367.0 250.0 -352.5 M239.5 -845.0 L331.0 -780.5 Q423.5 -806.5 505.0 -819.5 586.0 -833.0 655.5 -833.5 L664.5 -833.5 Q695.5 -833.5 723.0 -823.0 750.5 -812.5 775.0 -792.5 808.0 -765.0 865.0 -698.0 922.0 -631.5 1003.5 -525.5 L892.0 -462.0 Q892.0 -435.5 889.0 -408.0 886.0 -380.0 880.5 -350.0 884.5 -349.5 888.5 -349.5 892.0 -349.0 896.0 -349.0 L896.0 -289.0 Q807.5 -295.0 719.5 -298.0 631.5 -301.0 543.5 -301.0 471.5 -301.0 399.5 -299.0 327.0 -296.5 255.0 -293.0 255.5 -284.5 256.5 -276.5 257.5 -269.0 259.0 -261.0 L128.0 -261.0 Q115.5 -335.0 115.5 -411.5 115.5 -427.5 116.0 -444.0 116.5 -460.5 118.0 -477.0 L27.5 -549.0 Q86.0 -622.5 139.0 -697.0 192.0 -771.0 239.5 -845.0" fill-rule="evenodd" stroke="none"/>
    </g>
    <g id="font_DFPOP3_Std_W12__8">
      <path d="M567.5 -181.0 L567.5 -308.0 Q556.0 -308.5 545.0 -308.5 534.0 -309.0 523.5 -309.0 L496.5 -309.0 Q490.5 -277.0 484.0 -244.5 477.5 -212.5 470.0 -180.0 482.5 -180.5 494.5 -180.5 507.0 -181.0 519.0 -181.0 531.5 -181.0 543.5 -181.0 555.5 -181.0 567.5 -181.0 M523.5 -368.5 Q589.5 -368.5 655.5 -365.5 721.5 -363.0 787.5 -357.5 L787.5 -297.0 Q764.5 -298.5 742.5 -300.0 721.0 -301.5 699.5 -303.0 L699.5 -176.0 Q728.0 -174.5 755.5 -173.0 783.5 -171.0 811.0 -169.0 L811.0 -109.5 Q782.5 -111.0 755.0 -113.0 727.0 -115.0 699.5 -116.5 L699.5 83.0 567.5 83.0 567.5 -121.0 Q554.0 -121.0 542.0 -121.0 530.0 -121.0 519.0 -121.0 502.5 -121.0 486.5 -120.5 471.0 -120.0 455.5 -120.0 442.0 -67.5 427.0 -16.5 412.0 35.0 395.5 87.0 L259.0 51.0 Q275.0 9.5 290.0 -32.5 304.5 -74.0 317.5 -115.5 294.5 -114.0 272.0 -112.5 249.5 -111.0 227.5 -109.5 L227.5 -169.0 Q255.0 -170.5 282.0 -172.5 309.0 -174.5 336.0 -176.0 345.0 -208.5 353.0 -240.5 361.0 -273.0 368.5 -305.0 340.0 -303.5 312.5 -301.5 285.0 -299.5 259.0 -297.0 L259.0 -357.5 Q325.0 -363.0 391.0 -365.5 457.0 -368.5 523.5 -368.5 M644.0 -651.5 Q670.0 -654.5 696.0 -656.0 721.5 -657.5 747.5 -657.5 786.0 -657.5 824.5 -654.5 823.0 -669.5 822.0 -686.0 820.5 -702.0 819.0 -719.0 814.5 -743.5 802.5 -756.0 790.5 -769.0 771.0 -769.0 752.5 -766.0 722.0 -759.5 691.0 -753.5 647.0 -743.5 644.0 -696.0 644.0 -651.5 M647.0 -484.5 Q673.5 -486.5 700.0 -488.0 727.0 -489.5 753.5 -489.5 774.5 -489.5 794.5 -488.5 814.5 -488.0 834.5 -486.5 831.5 -538.5 828.5 -594.0 807.5 -595.5 787.5 -596.0 767.5 -597.0 747.5 -597.0 695.5 -597.0 643.0 -591.0 643.0 -563.5 644.5 -537.0 645.5 -510.5 647.0 -484.5 M527.5 -833.5 L655.5 -833.5 Q652.5 -818.0 652.5 -803.0 703.0 -816.0 742.0 -822.5 781.0 -829.5 808.0 -829.5 L819.0 -829.5 Q883.0 -829.5 917.0 -806.0 951.0 -782.0 955.5 -735.0 961.5 -660.0 966.0 -568.5 970.0 -476.5 972.0 -367.5 971.5 -223.0 969.0 -128.5 966.0 -33.5 961.5 11.5 957.0 53.0 926.5 74.0 896.5 95.0 839.5 95.0 L727.0 95.0 727.0 35.0 799.5 35.0 Q811.0 35.0 818.5 27.5 825.5 19.5 828.5 5.0 834.0 -78.0 836.5 -171.5 839.5 -264.5 839.5 -367.5 839.0 -381.5 838.5 -396.0 837.5 -410.5 837.5 -426.0 816.0 -427.5 795.5 -428.5 774.5 -429.0 753.5 -429.0 727.5 -429.0 702.0 -427.5 677.0 -426.5 652.5 -424.0 652.5 -408.5 655.5 -393.0 L527.5 -393.0 Q521.0 -448.0 518.0 -503.0 515.0 -558.0 515.0 -613.5 515.0 -668.0 518.0 -723.0 521.0 -778.0 527.5 -833.5 M197.5 -653.5 Q219.0 -655.0 240.0 -656.0 261.0 -657.5 281.5 -657.5 320.0 -657.5 358.5 -654.5 358.5 -672.0 359.0 -689.0 359.5 -705.5 359.5 -721.0 359.5 -744.5 347.5 -757.0 335.0 -769.0 311.5 -769.0 287.0 -767.5 259.5 -762.0 232.5 -757.0 203.0 -748.5 201.0 -724.0 200.0 -700.0 198.5 -676.5 197.5 -653.5 M192.5 -480.5 Q223.0 -482.5 253.5 -484.0 283.5 -485.5 313.5 -485.5 322.0 -485.5 330.0 -485.0 338.5 -484.5 346.0 -484.5 349.0 -514.5 351.5 -542.0 354.0 -569.5 355.5 -594.0 317.0 -597.0 281.5 -597.0 260.0 -597.0 238.5 -595.5 217.0 -594.5 195.5 -593.0 194.0 -564.0 193.5 -536.0 192.5 -508.0 192.5 -480.5 M67.5 -833.5 L208.0 -833.5 Q207.0 -826.5 206.5 -820.5 206.0 -814.0 206.0 -808.0 248.0 -818.5 280.5 -824.0 313.0 -829.5 336.0 -829.5 L347.0 -829.5 Q385.5 -829.5 412.5 -822.0 439.5 -814.5 455.5 -801.0 471.0 -787.0 479.0 -768.5 487.5 -749.5 487.5 -725.0 487.5 -669.5 483.5 -607.5 480.0 -545.5 473.0 -476.0 479.0 -474.5 484.5 -474.0 490.5 -473.0 495.5 -473.0 L495.5 -412.5 Q449.5 -419.0 404.0 -422.0 358.5 -425.0 313.5 -425.0 282.5 -425.0 252.0 -423.5 221.5 -422.0 191.5 -420.0 L191.5 -368.5 Q191.5 -252.5 195.5 -136.5 199.5 -20.5 208.0 95.0 L67.5 95.0 Q59.0 -20.5 55.0 -136.5 51.0 -252.5 51.0 -368.5 51.0 -484.5 55.0 -600.5 59.0 -717.0 67.5 -833.5" fill-rule="evenodd" stroke="none"/>
    </g>
    <g id="font_DFPOP3_Std_W12__9">
      <path d="M579.5 -517.0 Q602.5 -518.5 625.5 -520.0 648.5 -521.0 671.5 -521.0 696.5 -521.0 720.5 -520.0 744.5 -518.5 769.0 -516.0 740.0 -556.0 713.0 -596.5 686.0 -637.0 661.5 -677.0 644.5 -634.5 624.0 -594.5 603.5 -555.0 579.5 -517.0 M552.0 -378.0 Q613.5 -389.5 660.0 -395.5 706.5 -401.5 737.5 -401.5 L751.5 -401.5 Q796.0 -401.5 828.0 -393.0 859.5 -385.0 878.5 -369.5 879.5 -368.0 880.0 -368.0 880.5 -367.5 880.5 -367.5 863.5 -388.5 847.5 -409.0 831.5 -430.0 816.0 -451.5 742.5 -461.0 671.5 -461.0 637.0 -461.0 603.0 -458.5 568.5 -456.5 534.5 -452.5 524.0 -438.0 513.0 -424.0 502.0 -410.5 490.5 -397.5 L555.0 -397.5 Q553.5 -392.0 552.5 -387.0 552.0 -382.5 552.0 -378.0 M546.0 -204.0 Q585.5 -206.0 625.5 -207.5 665.5 -209.0 705.5 -209.0 720.0 -209.0 734.5 -208.5 749.5 -208.0 764.0 -208.0 L764.0 -281.5 Q764.0 -311.0 751.0 -326.0 738.0 -341.0 711.5 -341.0 675.0 -338.5 633.5 -332.5 592.0 -326.5 546.0 -317.5 544.5 -302.0 544.0 -287.0 543.5 -271.5 543.5 -257.0 543.5 -243.0 544.0 -229.5 544.5 -216.0 546.0 -204.0 M36.0 -761.0 L143.5 -761.0 Q141.0 -731.5 140.0 -708.0 139.0 -684.0 139.5 -665.5 139.5 -617.0 142.5 -563.5 145.5 -510.0 151.5 -451.5 176.0 -639.0 179.0 -829.5 L296.0 -825.5 Q296.0 -767.0 293.5 -709.0 291.5 -651.5 286.5 -594.0 301.5 -638.5 314.5 -682.0 327.5 -726.0 340.0 -769.0 L443.5 -721.0 Q438.0 -705.5 433.5 -691.5 428.5 -677.5 424.0 -664.5 L487.5 -712.5 Q495.0 -705.0 502.0 -697.0 509.0 -688.5 516.0 -681.0 524.0 -702.5 530.0 -723.5 536.0 -745.0 539.5 -765.0 L504.0 -765.0 Q497.5 -765.0 475.5 -761.0 453.5 -757.0 415.5 -749.5 L415.5 -809.0 Q468.0 -816.5 503.0 -821.0 538.0 -825.5 555.0 -825.5 L575.5 -824.5 Q624.5 -824.5 652.0 -809.0 679.5 -794.0 685.0 -765.0 L724.0 -793.5 Q731.5 -781.5 740.0 -770.0 748.0 -758.5 755.5 -747.5 777.0 -770.5 797.0 -795.0 817.0 -819.5 835.5 -845.0 L923.5 -756.5 Q901.5 -733.5 875.5 -710.0 849.0 -686.0 819.0 -660.5 828.5 -645.0 840.5 -633.0 858.5 -650.5 875.0 -669.0 892.0 -687.0 907.5 -705.5 L995.5 -617.5 Q957.0 -582.0 909.5 -547.0 931.5 -519.0 954.0 -492.5 976.5 -466.0 999.5 -441.5 L893.0 -354.5 Q903.5 -339.0 909.5 -322.0 915.5 -304.5 915.5 -284.5 L915.5 -199.5 Q921.0 -199.0 926.0 -198.5 931.5 -197.5 936.0 -197.5 L936.0 -137.0 Q819.0 -149.5 705.5 -149.5 667.0 -149.5 628.0 -148.0 589.5 -146.5 551.0 -143.5 552.5 -131.0 554.0 -122.0 563.0 -119.5 571.5 -116.0 580.0 -112.0 588.0 -107.5 599.5 -96.0 605.5 -81.5 611.5 -67.0 611.5 -49.0 611.5 -32.0 604.5 -18.0 598.0 -3.5 585.5 8.0 606.5 7.5 627.5 7.5 648.0 7.0 669.5 7.0 674.0 7.0 678.5 7.0 682.5 7.0 687.0 7.0 708.5 -30.0 728.0 -67.0 747.0 -104.5 764.0 -141.5 L899.0 -81.0 Q883.5 -56.5 867.5 -33.5 851.5 -10.5 834.5 10.0 869.0 11.5 903.5 13.5 938.0 15.5 972.0 18.5 L972.0 79.0 Q896.0 72.5 820.5 69.5 745.0 66.5 669.5 66.5 593.5 66.5 518.5 69.5 443.0 72.5 367.5 79.0 L367.5 18.5 Q396.5 16.0 425.5 14.5 454.0 13.0 483.5 11.5 480.5 9.0 478.0 7.0 475.5 4.5 474.0 3.0 455.5 -21.5 455.5 -49.0 455.5 -64.5 459.5 -77.5 463.5 -91.0 472.0 -102.5 477.5 -107.0 483.0 -110.5 488.0 -114.5 493.5 -116.5 L411.5 -116.5 Q405.5 -152.0 402.5 -187.0 399.5 -222.0 399.5 -257.0 399.5 -284.5 401.0 -313.0 403.0 -341.0 407.5 -368.5 L336.0 -417.0 Q373.0 -455.0 403.5 -493.5 434.0 -531.5 457.5 -568.5 445.5 -581.5 432.5 -594.0 419.5 -606.0 406.5 -618.5 387.5 -567.0 367.5 -519.5 347.5 -472.0 327.5 -429.0 L272.5 -457.5 Q272.5 -454.0 272.0 -451.0 271.5 -448.0 271.5 -446.5 268.5 -423.5 265.0 -400.5 262.0 -377.0 259.0 -353.5 L287.5 -361.5 Q331.0 -195.5 407.5 -17.5 L287.5 30.5 Q270.0 -21.5 255.0 -71.5 239.5 -121.5 227.5 -169.0 215.0 -106.0 200.0 -39.5 185.0 27.5 168.0 99.5 L43.0 66.5 Q77.5 -56.5 102.5 -168.5 127.0 -281.0 142.5 -384.0 L51.0 -377.0 Q41.0 -453.5 36.5 -526.0 31.5 -598.0 31.5 -665.5 31.5 -682.5 32.5 -706.5 33.5 -730.0 36.0 -761.0" fill-rule="evenodd" stroke="none"/>
    </g>
    <g id="font_DFPOP3_Std_W12__10">
      <path d="M683.0 -840.5 Q698.5 -813.0 719.5 -782.0 741.0 -751.5 768.0 -717.0 L691.0 -677.0 Q757.0 -675.5 823.5 -673.0 889.5 -670.0 955.5 -665.5 L955.5 -605.0 Q897.0 -609.5 839.5 -612.5 781.5 -615.0 724.0 -616.5 L724.0 -371.5 Q774.5 -370.0 826.0 -367.5 877.0 -365.5 927.5 -361.5 L927.5 -301.0 Q876.5 -305.5 825.5 -308.0 774.5 -311.0 724.0 -312.5 L724.0 -16.5 Q787.0 -15.0 848.5 -12.5 910.5 -9.5 972.0 -5.0 L972.0 55.5 Q889.0 49.0 806.5 46.0 724.0 43.0 641.0 43.0 558.0 43.0 476.0 46.0 393.5 49.0 311.5 55.5 L311.5 -5.0 Q372.0 -9.5 433.0 -12.5 493.5 -15.0 555.0 -16.5 L555.0 -312.5 Q506.5 -311.0 459.0 -308.0 411.0 -305.0 363.5 -301.0 L363.5 -361.5 Q411.0 -364.5 459.5 -367.5 507.5 -370.0 555.0 -371.5 L555.0 -616.5 Q499.5 -615.0 444.5 -612.0 389.5 -609.0 336.0 -605.0 L336.0 -665.5 Q402.0 -670.0 467.5 -673.0 533.0 -675.5 599.0 -677.0 581.5 -701.5 565.5 -726.5 549.5 -751.0 535.5 -777.0 L683.0 -840.5 M143.5 -573.5 Q227.0 -513.5 269.0 -463.0 311.5 -412.5 311.5 -372.5 311.5 -309.0 281.5 -192.0 251.5 -75.0 191.5 95.0 L51.0 30.5 Q107.5 -126.5 135.5 -227.5 164.0 -328.0 164.0 -372.5 164.0 -383.5 133.5 -404.5 103.0 -426.0 43.0 -456.5 L143.5 -573.5 M199.5 -796.5 Q219.5 -796.5 238.5 -790.0 258.0 -783.5 275.5 -771.0 291.0 -755.5 299.0 -735.0 307.0 -714.5 307.0 -689.0 307.0 -641.5 270.5 -609.5 235.0 -581.5 199.5 -581.5 176.0 -581.5 156.0 -591.0 135.5 -600.0 119.0 -618.5 91.0 -651.0 91.0 -689.0 91.0 -710.5 97.5 -729.0 103.5 -748.0 115.5 -764.0 132.5 -780.0 153.5 -788.5 174.5 -796.5 199.5 -796.5" fill-rule="evenodd" stroke="none"/>
    </g>
    <g id="font_DFPOP3_Std_W12__11">
      <path d="M896.0 -153.5 Q919.0 -64.5 963.5 30.5 L831.5 83.0 Q810.0 27.5 794.0 -22.5 778.0 -72.0 768.0 -116.5 L896.0 -153.5 M263.0 -153.5 L411.5 -153.5 Q399.5 -103.5 393.0 -72.5 387.0 -41.0 387.0 -28.5 387.0 -1.0 399.0 13.0 410.5 26.5 435.0 26.5 463.0 26.5 494.0 25.0 525.5 23.5 560.0 20.5 546.0 16.5 534.5 9.0 522.5 1.5 513.0 -9.0 502.5 -23.0 497.0 -38.5 491.5 -53.5 491.5 -69.5 491.5 -86.5 496.5 -102.0 501.0 -117.0 511.0 -130.0 525.0 -143.0 542.0 -150.0 559.0 -156.5 579.5 -156.5 596.5 -156.5 612.5 -151.5 628.5 -146.0 644.0 -136.0 658.0 -123.0 665.0 -106.5 671.5 -89.5 671.5 -69.5 671.5 -49.0 663.5 -32.0 655.5 -15.0 640.0 -1.0 633.0 3.5 627.0 7.5 620.5 11.5 614.5 14.5 652.5 10.0 694.0 4.0 735.0 -1.5 779.5 -9.0 L779.5 51.0 Q664.0 69.0 568.0 78.0 472.0 87.0 395.5 87.0 354.5 87.0 324.5 79.5 295.0 72.5 276.5 58.5 259.5 44.5 250.5 26.0 241.0 7.0 239.5 -17.5 239.5 -31.5 245.0 -65.5 251.0 -100.0 263.0 -153.5 M91.0 -125.0 L223.0 -112.5 Q215.0 -57.5 204.0 -8.5 193.0 40.0 179.0 83.0 L47.0 58.5 Q61.0 20.0 72.0 -25.5 82.5 -71.0 91.0 -125.0 M249.0 -353.5 Q315.5 -357.0 382.5 -359.5 449.5 -361.5 517.0 -361.5 577.0 -361.5 637.5 -360.0 698.0 -358.5 759.0 -355.5 759.0 -361.5 759.5 -368.0 759.5 -374.5 760.0 -381.0 760.0 -433.0 707.5 -433.0 611.0 -431.0 496.5 -422.0 382.0 -412.5 250.0 -397.5 249.0 -386.0 249.0 -375.0 249.0 -364.0 249.0 -353.5 M251.0 -236.5 Q326.0 -240.5 401.0 -242.5 475.5 -244.5 550.0 -244.5 599.0 -244.5 647.5 -244.0 696.5 -243.0 745.5 -241.5 748.0 -255.5 750.0 -269.0 752.0 -282.5 753.5 -295.0 634.0 -301.0 517.0 -301.0 449.5 -301.0 382.0 -299.0 314.5 -296.5 248.0 -293.0 248.0 -278.5 248.5 -264.5 249.5 -250.5 251.0 -236.5 M115.5 -489.5 L259.0 -489.5 Q257.5 -482.0 256.5 -474.0 255.5 -466.5 255.0 -459.0 413.0 -475.5 530.0 -484.5 646.5 -493.5 722.0 -493.5 L751.5 -493.5 Q793.0 -493.5 822.5 -486.0 851.5 -478.5 869.5 -464.0 886.5 -449.0 894.5 -429.5 903.0 -409.5 903.0 -385.0 903.0 -317.5 888.0 -234.5 894.0 -234.5 899.5 -234.0 905.5 -233.5 911.5 -233.5 L911.5 -173.0 Q820.5 -179.0 730.0 -182.5 640.0 -185.5 550.0 -185.5 476.0 -185.5 402.5 -183.0 329.5 -181.0 257.0 -177.0 257.0 -171.0 257.5 -165.0 258.5 -159.0 259.0 -153.5 L115.5 -153.5 Q109.5 -195.0 106.5 -237.0 103.5 -279.5 103.5 -321.5 103.5 -363.0 106.5 -405.0 109.5 -447.0 115.5 -489.5 M344.0 -603.0 Q385.5 -604.0 427.0 -604.5 468.5 -605.0 510.0 -605.0 551.5 -605.0 593.0 -604.5 634.5 -604.0 676.0 -603.0 682.0 -632.5 685.5 -658.5 688.5 -684.5 690.0 -707.5 644.0 -708.5 598.5 -709.0 553.0 -709.5 508.0 -709.5 465.0 -709.5 422.0 -709.0 379.5 -708.5 338.0 -707.5 336.5 -700.5 336.0 -694.5 336.0 -688.5 336.0 -683.0 336.0 -662.5 337.5 -642.5 339.5 -622.5 344.0 -603.0 M427.0 -837.5 L588.0 -837.5 588.0 -768.0 Q670.5 -767.0 753.5 -764.5 836.5 -761.5 919.5 -756.5 L919.5 -697.5 Q896.5 -699.0 874.0 -700.0 852.0 -701.0 830.5 -702.5 828.0 -676.5 823.5 -650.5 819.0 -624.5 813.0 -599.0 847.0 -597.5 880.0 -596.0 913.5 -594.5 947.0 -593.0 L947.0 -533.5 Q837.5 -539.0 728.0 -542.0 619.0 -544.5 510.0 -545.0 400.0 -544.5 290.5 -542.0 181.0 -539.0 71.5 -533.5 L71.5 -593.0 Q106.5 -594.5 140.5 -596.0 175.0 -597.5 209.0 -599.0 202.0 -620.5 199.0 -642.0 195.5 -663.0 195.5 -683.0 195.5 -687.5 196.0 -692.5 196.0 -698.0 197.5 -702.5 171.5 -701.0 145.5 -700.0 120.0 -699.0 95.0 -697.5 L95.0 -756.5 Q178.0 -761.5 261.0 -764.5 344.0 -767.0 427.0 -768.0 L427.0 -837.5" fill-rule="evenodd" stroke="none"/>
    </g>
    <g id="font_DFPOP3_Std_W12__12">
      <path d="M827.5 -781.5 L963.5 -709.5 Q923.5 -633.0 879.5 -558.0 836.0 -483.5 787.5 -409.5 L655.5 -489.5 Q755.0 -640.0 827.5 -781.5 M199.5 -781.5 Q246.0 -694.5 288.0 -622.5 330.0 -550.5 367.5 -493.5 L243.5 -409.5 Q207.0 -463.5 167.0 -534.5 127.0 -605.5 84.0 -693.0 L199.5 -781.5 M424.0 -833.5 L583.5 -833.5 583.5 -409.5 Q678.0 -408.0 773.0 -405.0 868.5 -402.0 963.5 -397.5 L963.5 -337.0 Q909.0 -340.0 855.0 -342.0 801.0 -343.5 747.5 -345.0 731.5 -220.5 723.5 -141.5 715.5 -62.5 716.0 -28.5 715.5 0.5 733.5 15.5 751.5 30.5 787.5 30.5 823.5 30.5 870.5 21.5 917.5 12.5 976.0 -5.0 L976.0 55.5 Q905.5 73.0 847.5 82.0 789.5 91.0 743.5 91.0 694.0 91.0 658.5 83.5 622.5 76.0 601.0 61.5 579.5 47.5 568.0 28.0 556.5 8.0 555.0 -17.5 555.0 -53.5 563.0 -136.5 571.0 -219.0 588.0 -348.0 568.0 -348.0 548.5 -348.5 529.0 -349.0 510.0 -349.0 L456.5 -349.0 Q332.5 -143.5 168.0 99.5 L40.0 -1.0 Q105.0 -87.0 165.0 -173.5 224.5 -260.0 278.5 -346.0 222.0 -344.5 166.0 -342.5 110.5 -340.0 55.5 -337.0 L55.5 -397.5 Q147.5 -402.0 239.5 -405.0 332.0 -408.0 424.0 -408.5 L424.0 -833.5" fill-rule="evenodd" stroke="none"/>
    </g>
    <g id="font_DFPOP3_Std_W12__13">
      <path d="M580.5 -599.0 Q648.0 -605.0 716.0 -605.0 742.0 -605.0 767.5 -604.5 793.0 -603.5 819.0 -602.0 L819.0 -637.0 Q819.0 -673.0 801.0 -691.5 783.0 -709.5 747.5 -709.5 712.5 -707.5 672.0 -701.0 631.5 -695.0 585.5 -684.0 583.5 -662.5 582.0 -641.0 580.5 -620.0 580.5 -599.0 M584.5 -435.0 Q626.0 -438.5 667.0 -440.0 708.0 -441.5 749.5 -441.5 765.5 -441.5 781.5 -441.0 797.5 -440.5 813.0 -440.5 814.5 -468.0 815.5 -493.5 816.5 -518.5 817.0 -541.5 765.0 -545.0 716.0 -545.0 681.0 -544.5 647.5 -543.5 613.5 -542.0 579.5 -539.5 579.5 -513.5 581.0 -487.5 582.5 -461.5 584.5 -435.0 M195.5 -840.5 L307.0 -761.0 Q245.5 -704.0 211.5 -669.0 177.0 -634.0 171.0 -621.5 171.0 -613.0 178.0 -609.0 185.0 -605.0 199.5 -605.0 201.5 -605.0 205.5 -605.5 210.0 -605.5 216.0 -606.0 257.5 -649.0 299.0 -689.0 L411.5 -605.0 Q308.0 -507.0 251.0 -447.0 194.0 -387.0 183.5 -365.5 183.5 -361.0 190.5 -359.0 197.5 -357.5 212.0 -357.5 221.0 -357.5 245.5 -363.0 270.0 -368.0 309.0 -379.0 301.5 -399.0 294.0 -419.5 286.5 -440.0 279.5 -461.0 L391.0 -509.0 Q402.5 -472.0 418.0 -432.0 433.5 -391.5 453.5 -347.0 446.0 -398.0 442.5 -449.0 439.0 -500.0 439.5 -551.0 439.5 -605.5 443.5 -660.0 447.5 -714.5 455.5 -769.0 L591.0 -769.0 Q600.0 -787.5 607.0 -805.0 614.0 -823.0 619.5 -840.5 L783.5 -821.0 Q775.5 -807.5 766.5 -794.0 757.0 -780.5 746.5 -768.0 754.0 -768.0 762.0 -768.5 769.5 -769.0 777.0 -769.0 L791.5 -769.0 Q839.0 -769.0 873.5 -760.0 907.5 -751.0 927.5 -734.0 947.5 -717.0 957.5 -694.0 967.5 -670.5 967.5 -641.0 967.5 -594.0 966.0 -542.0 964.5 -489.5 961.5 -431.0 967.0 -430.5 972.5 -429.5 977.5 -429.0 983.0 -429.0 L983.0 -368.5 Q934.5 -373.5 887.0 -376.0 839.0 -379.0 791.5 -380.0 L791.5 -265.0 Q792.5 -263.5 793.0 -262.5 794.0 -261.0 794.5 -260.0 818.5 -278.5 843.0 -300.0 867.5 -321.0 892.0 -345.0 L983.0 -249.0 Q923.0 -196.5 863.0 -156.5 893.0 -113.5 927.0 -69.0 961.0 -24.5 999.5 22.5 L875.5 87.0 Q853.5 56.5 832.5 25.0 811.5 -6.0 791.5 -37.0 791.5 -5.5 786.5 19.0 781.5 44.0 772.0 61.5 760.0 80.0 736.0 89.5 712.0 99.5 676.0 99.5 653.0 99.5 620.0 95.0 587.0 90.5 543.5 83.0 L543.5 22.5 Q568.5 30.5 588.5 34.5 608.5 39.0 623.5 39.0 651.5 39.0 651.5 -1.0 L651.5 -183.5 Q621.5 -111.0 576.0 -45.5 531.0 19.5 471.0 79.0 L355.5 -1.0 Q429.0 -65.5 472.0 -126.5 515.0 -187.0 527.5 -244.5 L512.0 -244.5 Q503.0 -244.5 472.0 -236.5 441.0 -228.5 387.0 -213.0 L387.0 -273.5 Q451.5 -289.0 494.5 -297.0 537.5 -305.0 559.0 -305.0 L575.5 -304.0 Q602.5 -304.0 621.5 -299.0 640.5 -294.0 651.5 -284.5 L651.5 -378.0 Q636.0 -377.0 620.5 -376.5 605.5 -375.5 591.0 -375.0 591.5 -364.0 593.0 -353.5 594.5 -343.0 596.0 -333.0 L460.0 -333.0 351.0 -277.5 Q345.0 -289.5 339.5 -301.5 334.5 -313.5 329.5 -325.5 319.0 -322.5 311.5 -322.5 L311.5 -180.0 Q322.0 -188.5 335.0 -193.0 348.0 -197.5 363.5 -197.5 379.0 -197.5 393.0 -193.0 407.0 -188.5 420.0 -179.0 431.5 -167.5 437.5 -153.0 443.5 -138.5 443.5 -121.0 443.5 -85.5 415.5 -62.5 389.5 -41.0 363.5 -41.0 348.0 -41.0 335.0 -46.5 322.0 -52.0 311.5 -63.5 L311.5 95.0 183.5 95.0 183.5 -201.5 Q175.5 -122.5 167.0 -52.5 158.0 17.5 147.5 79.0 L31.5 58.5 Q56.5 -73.5 71.5 -261.0 L183.5 -249.0 183.5 -301.0 Q168.0 -299.0 157.0 -298.0 146.0 -297.0 139.5 -297.0 89.5 -297.0 64.5 -320.0 40.0 -343.0 40.0 -389.0 40.0 -400.0 47.0 -414.5 54.0 -429.5 67.5 -448.5 90.5 -474.5 113.0 -498.5 135.5 -523.0 157.5 -546.0 144.0 -545.0 134.5 -545.0 125.0 -544.5 120.0 -545.0 75.5 -544.5 53.5 -568.5 31.5 -592.5 31.5 -641.0 31.5 -648.0 36.0 -658.0 40.0 -668.0 49.0 -681.0 87.5 -725.5 124.0 -765.5 160.5 -805.5 195.5 -840.5" fill-rule="evenodd" stroke="none"/>
    </g>
    <g id="font_DFPOP3_Std_W12__14">
      <path d="M451.5 -837.5 L619.5 -837.5 619.5 -744.5 Q705.5 -743.0 791.5 -740.5 877.5 -737.5 963.5 -733.0 L963.5 -673.0 Q756.0 -683.5 552.0 -685.0 489.0 -630.5 439.0 -583.5 389.0 -536.5 352.5 -496.5 324.0 -464.5 310.0 -446.5 296.0 -429.0 296.0 -425.0 296.0 -409.0 301.5 -401.0 307.5 -393.0 319.5 -393.0 365.5 -393.0 421.5 -396.0 477.5 -398.5 542.5 -404.5 595.0 -407.5 650.0 -413.0 705.0 -418.5 762.0 -426.0 748.0 -455.0 735.5 -485.0 723.0 -515.0 711.5 -545.0 L855.0 -605.0 Q878.0 -548.5 909.0 -484.0 940.0 -420.0 980.0 -349.0 L835.5 -273.5 Q809.5 -321.0 786.5 -371.5 768.0 -368.5 750.0 -367.0 731.5 -365.0 715.0 -363.5 702.5 -237.0 697.0 -157.0 691.0 -77.5 691.0 -45.0 691.0 -9.5 709.0 8.5 727.0 26.5 764.0 26.5 803.0 26.5 854.0 18.5 904.5 10.5 967.5 -5.0 L967.5 55.5 Q894.0 70.5 833.0 79.0 771.5 87.0 724.0 87.0 676.5 87.0 642.5 79.0 608.0 70.5 587.0 55.5 567.0 39.0 556.0 17.0 545.5 -5.0 543.5 -33.0 543.5 -67.5 549.0 -146.5 554.5 -225.0 565.0 -348.0 559.0 -347.5 553.0 -347.0 547.0 -346.0 541.5 -346.0 514.0 -343.0 487.5 -341.5 460.5 -339.5 435.0 -339.0 412.0 -285.0 391.0 -240.0 370.0 -194.5 350.0 -157.5 323.5 -104.0 286.5 -41.0 250.0 22.5 204.0 95.0 L63.5 18.5 Q99.0 -30.0 130.0 -77.5 161.0 -125.5 188.5 -173.0 208.5 -207.0 229.5 -247.0 251.0 -286.5 272.5 -333.0 L236.5 -333.0 Q172.0 -332.5 140.0 -357.5 107.5 -382.5 107.5 -433.0 107.5 -445.5 121.5 -467.0 135.5 -488.0 164.0 -518.0 202.0 -555.0 250.5 -596.5 299.0 -637.5 357.5 -683.0 282.0 -681.5 207.5 -679.0 133.0 -676.5 59.5 -673.0 L59.5 -733.0 Q157.5 -738.0 255.5 -741.0 353.5 -744.0 451.5 -745.5 L451.5 -837.5" fill-rule="evenodd" stroke="none"/>
    </g>
    <g id="font_DFPOP3_Std_W12__15">
      <path d="M252.0 -493.5 Q326.5 -496.5 400.5 -498.5 474.0 -500.5 548.0 -500.5 641.5 -500.5 735.0 -497.5 L735.0 -705.5 Q735.0 -761.0 655.5 -761.0 551.0 -759.0 450.5 -750.5 349.5 -741.5 253.0 -726.0 250.0 -695.5 249.0 -666.0 247.5 -636.5 248.0 -607.0 248.0 -578.0 248.5 -549.5 249.5 -521.0 252.0 -493.5 M99.5 -825.5 L263.0 -825.5 Q261.5 -815.5 260.0 -805.5 259.0 -795.5 258.0 -786.5 376.5 -803.5 491.5 -812.5 606.5 -821.0 718.0 -821.0 L747.5 -821.0 Q820.5 -819.5 857.5 -791.5 894.5 -763.5 896.0 -709.5 L896.0 -490.5 Q901.5 -490.0 906.0 -489.5 911.0 -489.5 915.5 -489.5 L915.5 -429.0 Q755.5 -438.5 599.0 -441.5 L599.0 -283.5 Q633.0 -286.0 667.0 -287.5 701.5 -288.5 735.0 -289.0 786.0 -288.5 837.0 -286.0 888.5 -283.0 939.0 -277.5 L939.0 -217.0 Q888.5 -223.0 837.0 -226.5 786.0 -229.5 735.0 -229.5 700.5 -229.5 667.0 -228.0 633.0 -226.5 599.0 -223.0 L599.0 -100.5 Q771.0 -54.5 980.0 -33.0 L955.5 106.5 Q848.0 98.0 741.0 78.5 634.0 59.5 527.5 28.5 459.5 9.0 389.0 -16.0 319.0 -41.0 246.0 -71.5 234.5 -29.5 222.0 12.0 209.5 54.0 195.5 95.0 L36.0 55.5 Q71.0 -43.5 98.0 -143.5 125.0 -243.5 143.5 -345.0 L303.0 -325.5 Q292.5 -264.0 278.5 -203.0 318.5 -187.5 359.0 -173.0 399.5 -159.0 439.5 -146.5 L439.5 -440.5 Q393.0 -439.0 348.0 -437.0 302.5 -435.5 258.0 -433.0 259.0 -422.5 260.0 -411.0 261.5 -400.0 263.0 -389.0 L99.5 -389.0 Q84.0 -496.5 84.0 -607.0 84.0 -715.0 99.5 -825.5" fill-rule="evenodd" stroke="none"/>
    </g>
    <g id="font_DFPOP3_Std_W12__16">
      <path d="M584.5 -368.5 Q584.5 -382.5 579.5 -395.5 574.0 -408.5 563.0 -420.0 551.5 -430.5 539.0 -436.0 526.0 -441.5 512.0 -441.5 496.0 -441.5 483.0 -436.0 470.0 -431.0 460.0 -421.0 449.0 -410.0 444.0 -397.0 439.0 -384.0 439.5 -368.5 439.5 -353.5 444.5 -340.5 450.0 -328.0 461.0 -317.5 471.5 -306.0 484.0 -300.5 496.5 -295.0 512.0 -295.0 526.0 -295.0 539.0 -300.5 551.5 -306.0 563.0 -317.5 574.0 -328.0 579.5 -341.0 584.5 -354.0 584.5 -368.5 M665.5 -368.5 Q665.5 -338.0 654.0 -310.5 642.5 -283.0 619.5 -260.0 573.5 -214.0 512.0 -214.0 480.0 -214.0 452.5 -225.5 425.5 -237.0 403.5 -260.0 380.5 -282.5 369.5 -309.5 358.5 -336.5 358.5 -368.5 358.5 -434.5 401.5 -479.0 444.5 -522.0 512.0 -522.0 543.5 -522.0 570.5 -511.0 597.5 -499.5 620.5 -477.0 643.0 -454.0 654.0 -427.0 665.5 -400.0 665.5 -368.5" fill-rule="evenodd" stroke="none"/>
    </g>
  </defs>
</svg>
