<?xml version="1.0" encoding="UTF-8" standalone="no"?>
<svg xmlns:xlink="http://www.w3.org/1999/xlink" height="92.05px" width="92.05px" xmlns="http://www.w3.org/2000/svg">
  <g transform="matrix(1.0, 0.0, 0.0, 1.0, 0.0, 0.0)">
    <path d="M62.45 30.7 Q55.85 24.15 46.6 24.15 37.3 24.15 30.7 30.7 24.15 37.3 24.15 46.6 24.15 55.85 30.7 62.45 37.3 69.0 46.6 69.0 55.85 69.0 62.45 62.45 69.0 55.85 69.0 46.6 69.0 37.3 62.45 30.7 M13.5 13.45 Q26.95 0.0 46.05 0.0 65.1 0.0 78.6 13.45 92.05 26.95 92.05 46.0 92.05 65.1 78.6 78.55 65.1 92.05 46.05 92.05 26.95 92.05 13.5 78.55 0.0 65.1 0.0 46.0 0.0 26.95 13.5 13.45" fill="#990000" fill-rule="evenodd" stroke="none"/>
    <path d="M70.3 46.65 Q70.25 36.8 63.35 29.9 56.4 22.95 46.6 22.95 36.75 22.95 29.85 29.9 22.9 36.8 22.9 46.65 22.9 56.45 29.85 63.4 36.75 70.3 46.6 70.3 56.4 70.3 63.35 63.4 70.25 56.45 70.3 46.65 M74.35 17.65 Q86.1 29.4 86.1 46.05 86.1 62.65 74.35 74.4 62.6 86.15 46.0 86.15 29.4 86.15 17.65 74.4 5.9 62.65 5.9 46.05 5.9 29.4 17.65 17.65 29.4 5.9 46.0 5.95 62.6 5.9 74.35 17.65" fill="#ffffff" fill-rule="evenodd" stroke="none"/>
    <path d="M59.75 33.05 Q54.25 27.55 46.45 27.55 38.65 27.55 33.15 33.05 27.65 38.55 27.65 46.35 27.65 54.15 33.15 59.65 38.65 65.15 46.45 65.15 54.25 65.15 59.75 59.65 65.25 54.15 65.25 46.35 65.25 38.55 59.75 33.05 M70.3 46.65 Q70.25 56.45 63.35 63.4 56.4 70.3 46.6 70.3 36.75 70.3 29.85 63.4 22.9 56.45 22.9 46.65 22.9 36.8 29.85 29.9 36.75 22.95 46.6 22.95 56.4 22.95 63.35 29.9 70.25 36.8 70.3 46.65 M32.75 32.8 Q27.05 38.55 27.05 46.65 L27.15 48.6 27.05 46.65 Q27.05 38.55 32.8 32.8 L33.5 32.1 32.75 32.8 M46.6 66.2 L47.95 66.15 46.6 66.15 44.6 66.1 46.6 66.2" fill="#990000" fill-rule="evenodd" stroke="none"/>
  </g>
</svg>
