<?xml version="1.0" encoding="UTF-8" standalone="no"?>
<svg xmlns:xlink="http://www.w3.org/1999/xlink" height="192.8px" width="154.05px" xmlns="http://www.w3.org/2000/svg">
  <g transform="matrix(1.0, 0.0, 0.0, 1.0, -224.55, -65.75)">
    <path d="M323.0 231.6 L314.2 217.45 317.6 209.65 Q330.55 224.65 331.15 226.35 L332.25 229.6 Q332.55 231.9 329.9 233.6 327.35 235.25 324.9 233.6 L323.0 231.6" fill="#ff6648" fill-rule="evenodd" stroke="none"/>
    <path d="M318.75 214.2 L328.1 226.8 328.65 228.2 Q329.05 229.75 328.0 230.55 327.0 231.4 325.6 230.35 L324.4 229.05 317.15 218.2 318.75 214.2" fill="#ffebb3" fill-rule="evenodd" stroke="none"/>
    <path d="M292.5 201.35 L318.5 198.3 320.95 224.5 Q323.35 251.3 322.85 254.2 322.3 257.45 317.95 257.5 313.65 257.5 312.9 255.15 L311.8 247.6 Q310.75 242.3 307.5 242.45 304.15 242.6 303.0 248.35 302.4 251.4 302.25 255.65 301.65 258.55 297.35 258.55 293.05 258.55 292.3 255.8 291.7 253.6 292.05 227.3 L292.5 201.35" fill="#ff6648" fill-rule="evenodd" stroke="none"/>
    <path d="M296.1 210.65 L316.7 208.85 319.85 252.6 319.85 253.6 Q319.55 254.6 318.1 254.8 316.65 254.95 315.8 253.95 L315.2 252.95 Q314.6 241.8 313.95 240.3 313.35 239.15 307.3 239.4 301.25 239.7 300.75 241.0 300.35 242.1 300.15 247.2 L300.0 252.1 299.85 253.05 Q299.45 254.1 297.65 254.4 295.9 254.7 295.3 253.25 L295.1 251.8 296.1 210.65" fill="url(#gradient0)" fill-rule="evenodd" stroke="none"/>
    <path d="M281.85 156.4 L281.55 157.25 280.7 157.6 279.9 157.25 Q279.55 156.9 279.55 156.4 279.55 155.95 279.9 155.65 280.25 155.3 280.7 155.3 281.2 155.3 281.55 155.65 L281.85 156.4" fill="#ffffff" fill-rule="evenodd" stroke="none"/>
    <path d="M332.05 156.6 Q332.05 157.1 331.7 157.4 331.4 157.75 330.9 157.75 L330.1 157.4 Q329.75 157.1 329.75 156.6 329.75 156.1 330.1 155.8 330.4 155.45 330.9 155.45 331.4 155.45 331.7 155.8 332.05 156.1 332.05 156.6" fill="#ffffff" fill-rule="evenodd" stroke="none"/>
    <path d="M295.7 217.1 L317.4 215.75 318.45 234.15 295.7 234.8 295.7 217.1" fill="#ffffff" fill-rule="evenodd" stroke="none"/>
    <path d="M352.65 93.65 Q348.75 100.95 351.8 102.5 L365.5 105.5 Q376.7 107.75 378.5 110.75 370.2 113.55 367.7 115.2 363.95 117.75 363.95 124.5 363.95 131.0 369.55 139.8 372.4 144.2 375.2 147.25 L368.85 145.4 235.6 148.45 Q236.25 142.3 235.15 134.95 233.0 120.25 224.55 114.35 L233.8 113.6 Q243.15 113.15 243.6 114.85 243.4 108.4 244.9 100.6 247.8 85.1 255.95 78.8 L258.15 85.35 Q261.0 91.95 264.15 91.95 L270.85 87.6 Q279.15 82.4 286.9 78.2 311.75 64.65 322.1 65.85 318.9 69.15 316.65 72.9 312.05 80.4 316.6 82.8 L325.8 83.05 339.65 80.75 Q348.5 79.25 353.45 79.4 360.2 79.7 362.55 82.95 356.65 86.25 352.65 93.65" fill="#ff8666" fill-rule="evenodd" stroke="none"/>
    <path d="M254.95 147.2 Q259.85 152.1 259.85 159.05 259.85 165.95 254.95 170.9 250.05 175.8 243.1 175.8 236.15 175.8 231.25 170.9 226.35 165.95 226.35 159.05 226.35 152.1 231.25 147.2 236.15 142.25 243.1 142.25 250.05 142.25 254.95 147.2" fill="#ff6648" fill-rule="evenodd" stroke="none"/>
    <path d="M252.4 149.75 Q256.25 153.6 256.25 159.05 256.25 164.45 252.4 168.3 248.55 172.2 243.1 172.2 237.65 172.2 233.85 168.3 229.95 164.45 229.95 159.05 229.95 153.6 233.85 149.75 237.65 145.9 243.1 145.9 248.55 145.9 252.4 149.75" fill="#ffebb3" fill-rule="evenodd" stroke="none"/>
    <path d="M237.8 168.15 Q234.75 165.95 233.55 162.35 231.15 155.2 240.35 148.25 L237.8 168.15" fill="#ffd984" fill-rule="evenodd" stroke="none"/>
    <path d="M349.95 146.4 Q354.85 141.5 361.8 141.5 368.75 141.5 373.7 146.4 378.6 151.3 378.6 158.3 378.6 165.2 373.7 170.15 368.75 175.05 361.8 175.05 354.85 175.05 349.95 170.15 345.05 165.2 345.05 158.3 345.05 151.3 349.95 146.4" fill="#ff6648" fill-rule="evenodd" stroke="none"/>
    <path d="M352.55 148.95 Q356.35 145.1 361.8 145.1 367.25 145.1 371.1 148.95 375.0 152.85 375.0 158.3 375.0 163.7 371.1 167.55 367.25 171.4 361.8 171.4 356.35 171.4 352.55 167.55 348.7 163.7 348.7 158.3 348.7 152.85 352.55 148.95" fill="#ffebb3" fill-rule="evenodd" stroke="none"/>
    <path d="M367.7 168.15 L365.15 148.25 Q374.35 155.2 371.95 162.35 370.75 165.95 367.7 168.15" fill="#ffd984" fill-rule="evenodd" stroke="none"/>
    <path d="M349.55 119.75 Q358.65 128.25 363.65 139.3 368.85 150.7 368.85 163.2 368.85 188.15 349.55 203.95 330.8 219.25 302.9 219.25 274.9 219.25 256.25 203.95 236.9 188.15 236.9 163.2 236.9 150.7 242.1 139.3 247.1 128.25 256.25 119.75 265.35 111.25 277.2 106.55 289.45 101.75 302.9 101.75 316.3 101.75 328.55 106.55 340.4 111.25 349.55 119.75" fill="#ff6648" fill-rule="evenodd" stroke="none"/>
    <path d="M346.8 119.1 Q355.4 127.25 360.1 137.9 365.0 148.9 365.0 160.95 365.0 184.95 346.8 200.1 329.2 214.75 302.9 214.75 276.55 214.75 258.95 200.1 240.8 184.95 240.8 160.95 240.8 148.9 245.65 137.9 250.35 127.25 258.95 119.1 267.6 110.9 278.7 106.35 290.25 101.75 302.9 101.75 315.5 101.75 327.05 106.35 338.2 110.9 346.8 119.1" fill="url(#gradient1)" fill-rule="evenodd" stroke="none"/>
    <path d="M321.6 144.15 L319.7 141.5 350.85 135.9 353.85 141.15 321.6 144.15" fill="#fcca65" fill-rule="evenodd" stroke="none"/>
    <path d="M289.4 144.15 L257.15 141.15 260.15 135.9 291.3 141.5 289.4 144.15" fill="#fcca65" fill-rule="evenodd" stroke="none"/>
    <path d="M350.85 136.65 L353.85 141.9 321.6 144.9 319.7 142.3 350.85 136.65" fill="#ff6648" fill-rule="evenodd" stroke="none"/>
    <path d="M289.4 144.9 L257.15 141.9 260.15 136.65 291.3 142.3 289.4 144.9" fill="#ff6648" fill-rule="evenodd" stroke="none"/>
    <path d="M248.45 165.4 L252.05 162.3 252.05 170.35 248.45 165.4" fill="#ff8666" fill-rule="evenodd" stroke="none"/>
    <path d="M258.8 163.65 L255.65 170.35 254.3 162.3 258.8 163.65" fill="#ff8666" fill-rule="evenodd" stroke="none"/>
    <path d="M349.85 162.8 L354.8 161.45 352.55 169.5 349.85 162.8" fill="#ff8666" fill-rule="evenodd" stroke="none"/>
    <path d="M354.8 170.0 L357.0 162.8 359.75 165.05 354.8 170.0" fill="#ff8666" fill-rule="evenodd" stroke="none"/>
    <path d="M276.95 152.25 Q276.95 150.8 277.65 149.75 278.3 148.7 279.2 148.7 280.2 148.7 280.85 149.75 281.5 150.8 281.5 152.25 281.5 153.7 280.85 154.8 280.2 155.85 279.2 155.85 278.3 155.85 277.65 154.8 276.95 153.7 276.95 152.25" fill="#ff6648" fill-rule="evenodd" stroke="none"/>
    <path d="M280.3 151.0 L279.95 151.8 Q279.6 152.15 279.15 152.15 278.65 152.15 278.3 151.8 277.95 151.5 277.95 151.0 277.95 150.5 278.3 150.15 278.65 149.8 279.15 149.8 279.6 149.8 279.95 150.15 280.3 150.5 280.3 151.0" fill="#fffdfd" fill-rule="evenodd" stroke="none"/>
    <path d="M318.7 234.0 L319.7 249.1 315.05 249.25 Q314.65 242.85 311.05 240.55 309.9 239.8 308.6 239.55 L307.5 239.45 Q303.0 239.7 301.05 243.95 300.5 245.25 300.2 246.8 L300.05 248.15 295.0 248.5 295.55 234.5 318.7 234.0" fill="#1776ff" fill-rule="evenodd" stroke="none"/>
    <path d="M333.55 89.35 Q347.85 86.35 351.6 86.55 348.7 91.6 347.05 97.0 343.65 107.75 349.7 109.1 L358.2 108.95 Q367.35 109.3 370.5 111.4 365.6 111.65 362.75 115.95 357.55 123.65 365.0 140.75 360.55 132.05 352.25 123.45 331.75 101.9 302.55 102.2 273.4 102.5 254.05 123.35 247.95 129.8 243.6 137.6 L240.5 144.05 Q241.1 139.2 241.1 133.9 241.1 123.3 238.1 121.0 L242.5 120.1 Q247.05 119.45 247.35 120.8 248.65 115.3 250.45 109.5 254.1 97.9 256.95 96.35 L257.35 97.65 258.65 100.3 Q261.2 104.05 265.25 103.0 L269.85 99.65 Q275.6 95.6 281.35 92.0 299.7 80.55 311.0 78.15 L310.1 80.6 Q309.2 83.5 309.35 85.85 309.75 93.35 320.0 92.3 L333.55 89.35" fill="#ff6648" fill-rule="evenodd" stroke="none"/>
    <path d="M257.8 177.5 Q258.6 175.05 272.95 173.1 286.1 171.3 304.4 170.65 323.0 170.0 336.15 171.0 350.9 172.05 352.45 174.8 355.3 179.85 352.35 185.85 351.05 188.55 345.95 194.8 342.55 198.9 329.55 203.8 315.45 209.1 305.0 209.1 296.2 209.1 286.95 207.4 273.75 204.9 266.8 199.85 259.9 194.75 257.8 188.6 255.9 183.15 257.8 177.5" fill="#ff6648" fill-rule="evenodd" stroke="none"/>
    <path d="M274.9 192.7 Q287.45 188.3 303.7 187.65 318.1 187.1 333.3 190.0 347.6 192.8 345.95 194.8 342.55 198.9 329.55 203.8 315.45 209.1 305.0 209.1 296.2 209.1 286.95 207.4 273.75 204.9 266.8 199.85 264.9 198.5 267.3 196.5 269.5 194.6 274.9 192.7" fill="#ef5043" fill-rule="evenodd" stroke="none"/>
    <path d="M264.55 177.25 L269.1 177.45 Q269.75 178.2 269.75 178.9 L269.65 179.95 Q270.2 183.4 268.95 184.5 L267.55 184.9 263.2 185.65 Q260.9 185.0 260.65 181.45 L260.8 178.05 264.55 177.25" fill="#ffffff" fill-rule="evenodd" stroke="none"/>
    <path d="M279.0 176.45 Q279.65 177.2 279.65 177.9 L279.55 178.95 Q280.1 182.4 278.8 183.5 L277.45 183.9 273.05 184.65 Q270.85 184.05 270.5 180.5 L270.7 177.1 274.45 176.25 279.0 176.45" fill="#ffffff" fill-rule="evenodd" stroke="none"/>
    <path d="M290.75 175.65 L294.55 174.85 299.1 175.0 Q299.75 175.8 299.75 176.5 L299.7 177.55 Q300.2 181.0 298.95 182.1 L297.55 182.5 293.2 183.25 Q290.9 182.6 290.6 179.05 L290.75 175.65" fill="#ffffff" fill-rule="evenodd" stroke="none"/>
    <path d="M345.9 174.3 L349.7 174.85 350.1 178.25 Q350.05 181.75 347.85 182.55 L343.45 182.1 Q342.7 182.3 342.0 181.8 340.65 180.85 341.0 177.3 L340.85 176.25 Q340.8 175.6 341.4 174.75 341.95 173.9 345.9 174.3" fill="#ffffff" fill-rule="evenodd" stroke="none"/>
    <path d="M339.75 174.55 L340.15 177.95 Q340.1 181.45 337.9 182.25 L333.45 181.8 Q332.75 182.0 332.1 181.5 330.7 180.5 331.05 177.0 L330.9 175.95 Q330.85 175.25 331.4 174.45 332.05 173.6 335.95 174.0 L339.75 174.55" fill="#ffffff" fill-rule="evenodd" stroke="none"/>
    <path d="M329.85 174.5 L330.2 177.9 Q330.2 181.4 328.0 182.2 L323.55 181.75 Q322.8 181.95 322.1 181.45 320.75 180.5 321.1 176.95 L321.0 175.9 Q320.9 175.25 321.5 174.4 322.1 173.55 326.0 173.95 L329.85 174.5" fill="#ffffff" fill-rule="evenodd" stroke="none"/>
    <path d="M315.8 173.9 L319.65 174.45 320.05 177.85 Q319.95 181.4 317.75 182.2 L313.35 181.7 311.9 181.45 Q310.55 180.45 310.9 176.95 L310.75 175.9 Q310.7 175.2 311.3 174.4 311.9 173.55 315.8 173.9" fill="#ffffff" fill-rule="evenodd" stroke="none"/>
    <path d="M308.85 174.5 Q309.95 175.05 310.05 178.15 310.15 181.05 309.7 181.5 302.7 183.85 301.4 181.5 300.55 179.95 300.7 177.75 300.8 175.9 301.4 174.75 L304.5 174.3 308.85 174.5" fill="#ffffff" fill-rule="evenodd" stroke="none"/>
    <path d="M315.1 205.1 Q314.4 204.35 314.4 203.65 L314.4 202.6 Q313.65 199.15 314.9 198.0 315.5 197.45 316.25 197.55 L320.6 196.6 Q322.9 197.1 323.35 200.65 323.6 202.4 323.35 204.1 L319.65 205.05 Q315.8 205.9 315.1 205.1" fill="#ffffff" fill-rule="evenodd" stroke="none"/>
    <path d="M280.1 203.3 Q279.35 204.0 275.6 202.65 L272.05 201.15 Q272.05 199.5 272.55 197.75 273.45 194.35 275.8 194.1 L279.95 195.65 281.25 196.3 Q282.35 197.6 281.15 200.9 281.0 201.25 281.0 201.95 280.85 202.65 280.1 203.3" fill="#ffffff" fill-rule="evenodd" stroke="none"/>
    <path d="M267.5 197.75 L265.25 196.25 266.0 193.95 Q267.1 191.75 268.75 191.9 L271.4 193.5 272.2 194.1 Q272.75 195.15 271.55 197.3 L271.3 197.95 270.5 198.8 Q269.9 199.15 267.5 197.75" fill="#ffffff" fill-rule="evenodd" stroke="none"/>
    <path d="M282.9 204.55 Q282.55 202.9 282.55 201.15 282.6 197.6 284.8 196.8 L289.2 197.3 290.65 197.6 Q292.0 198.55 291.7 202.05 L291.8 203.1 Q291.85 203.8 291.25 204.6 290.7 205.45 286.75 205.1 L282.9 204.55" fill="#ffffff" fill-rule="evenodd" stroke="none"/>
    <path d="M302.15 203.25 L302.25 204.3 Q302.35 205.0 301.75 205.8 301.2 206.65 297.25 206.35 L293.4 205.85 Q293.0 204.25 293.0 202.45 293.0 198.9 295.2 198.1 L299.65 198.5 301.05 198.8 Q302.4 199.75 302.15 203.25" fill="#ffffff" fill-rule="evenodd" stroke="none"/>
    <path d="M312.6 203.4 L312.75 204.45 Q312.85 205.1 312.3 206.0 311.75 206.9 307.85 206.75 L303.95 206.4 Q303.45 204.8 303.4 203.05 303.25 199.5 305.45 198.55 L309.85 198.8 311.25 199.0 Q312.7 199.9 312.6 203.4" fill="#ffffff" fill-rule="evenodd" stroke="none"/>
    <path d="M333.45 200.65 Q328.1 203.05 326.3 202.65 325.05 202.4 324.25 199.35 323.45 196.6 323.75 196.05 324.25 195.3 327.2 194.15 L331.8 194.05 Q333.0 195.4 333.4 197.55 333.75 199.35 333.45 200.65" fill="#ffffff" fill-rule="evenodd" stroke="none"/>
    <path d="M340.75 197.3 Q337.05 199.0 335.75 198.75 334.9 198.55 334.3 196.45 333.8 194.55 334.0 194.1 334.35 193.55 336.45 192.8 L339.6 192.7 Q340.45 193.65 340.75 195.2 341.0 196.45 340.75 197.3" fill="#ffffff" fill-rule="evenodd" stroke="none"/>
    <path d="M260.65 170.5 Q262.85 170.05 301.75 169.4 L340.2 168.8 305.6 171.3 262.65 173.65 Q254.75 174.45 253.9 179.0 253.7 179.8 253.8 180.65 252.9 176.4 254.95 173.7 256.9 171.15 260.65 170.5" fill="#ffd984" fill-rule="evenodd" stroke="none"/>
    <path d="M299.4 164.55 L306.25 156.15 313.6 164.05 Q311.8 165.25 309.2 165.9 303.85 167.2 299.4 164.55" fill="#fcca65" fill-rule="evenodd" stroke="none"/>
    <path d="M333.15 151.05 Q333.15 152.5 332.5 153.6 331.85 154.65 330.9 154.65 329.95 154.65 329.3 153.6 328.65 152.5 328.65 151.05 328.65 149.6 329.3 148.55 329.95 147.5 330.9 147.5 331.85 147.5 332.5 148.55 333.15 149.6 333.15 151.05" fill="#ff6648" fill-rule="evenodd" stroke="none"/>
    <path d="M332.25 149.65 Q332.25 150.2 331.9 150.55 331.5 150.95 330.95 150.95 330.45 150.95 330.05 150.55 329.7 150.2 329.7 149.65 329.7 149.1 330.05 148.75 330.4 148.35 330.95 148.35 331.5 148.35 331.9 148.75 332.25 149.1 332.25 149.65" fill="#fffdfd" fill-rule="evenodd" stroke="none"/>
    <path d="M259.15 211.85 Q252.85 213.7 249.15 210.0 L292.2 196.25 293.25 199.6 291.9 201.15 Q290.1 202.7 288.0 202.95 285.75 203.25 278.8 205.1 L268.45 208.05 Q262.65 210.8 259.15 211.85 Z" fill="none" stroke="#ffffff" stroke-linecap="butt" stroke-linejoin="round" stroke-width="1.0"/>
    <path d="M296.7 199.35 L296.55 199.9 295.9 200.35 295.2 200.55 294.45 200.6 293.95 200.2 292.8 196.55 292.95 195.95 Q293.2 195.65 293.6 195.55 L294.3 195.3 295.1 195.25 295.6 195.7 296.7 199.35 Z" fill="none" stroke="#ffffff" stroke-linecap="butt" stroke-linejoin="round" stroke-width="1.0"/>
    <path d="M299.9 198.3 Q300.0 198.65 299.75 198.9 L299.1 199.35 298.4 199.55 297.6 199.6 Q297.2 199.5 297.15 199.15 L296.0 195.55 Q295.9 195.25 296.1 194.95 296.4 194.65 296.8 194.55 L297.5 194.3 298.35 194.25 298.75 194.7 299.9 198.3 Z" fill="none" stroke="#ffffff" stroke-linecap="butt" stroke-linejoin="round" stroke-width="1.0"/>
    <path d="M302.05 193.65 L303.2 197.3 303.05 197.85 302.4 198.3 301.7 198.5 300.85 198.55 300.4 198.15 299.25 194.5 Q299.15 194.25 299.4 193.9 L300.05 193.5 300.8 193.25 301.55 193.2 302.05 193.65 Z" fill="none" stroke="#ffffff" stroke-linecap="butt" stroke-linejoin="round" stroke-width="1.0"/>
    <path d="M305.25 192.65 L306.35 196.25 306.2 196.85 305.55 197.3 304.85 197.5 304.1 197.55 303.6 197.1 302.45 193.55 302.6 192.9 303.25 192.5 303.95 192.25 304.75 192.2 305.25 192.65 Z" fill="none" stroke="#ffffff" stroke-linecap="butt" stroke-linejoin="round" stroke-width="1.0"/>
    <path d="M305.7 191.5 L307.65 197.85 Q310.3 197.45 310.35 196.55 L309.65 193.4 Q308.9 190.9 308.55 190.85 L306.95 191.2 305.7 191.5 Z" fill="none" stroke="#ffffff" stroke-linecap="butt" stroke-linejoin="round" stroke-width="1.0"/>
    <path d="M309.55 190.55 L332.75 183.25 Q333.15 183.1 333.5 184.2 333.8 185.25 333.4 185.4 L310.25 192.65 Q309.8 192.8 309.45 191.75 309.15 190.7 309.55 190.55 Z" fill="none" stroke="#ffffff" stroke-linecap="butt" stroke-linejoin="round" stroke-width="1.0"/>
    <path d="M311.65 203.2 Q311.4 203.05 311.75 202.35" fill="none" stroke="#ffffff" stroke-linecap="butt" stroke-linejoin="round" stroke-width="1.0"/>
    <path d="M311.75 202.35 L311.9 199.1 Q311.85 194.7 310.2 193.05 L333.75 185.6 335.25 189.6 Q336.95 193.65 337.85 193.9 336.35 193.75 335.8 192.55 L336.0 194.5 334.85 193.0 334.65 194.75 333.6 193.4 333.25 195.9 332.35 193.9 331.45 196.1 330.8 194.35 330.15 196.45 328.85 194.7 328.55 196.95 327.35 195.15 327.0 197.8 325.8 195.85 325.4 198.15 323.45 196.65 323.4 198.8 322.4 197.1 322.25 199.45 320.7 197.45 320.05 199.7 319.15 198.4 318.8 200.45 318.05 198.75 317.4 201.1 316.25 199.2 315.4 201.85 314.6 199.45 314.25 202.0 313.45 199.9 312.35 201.4 311.75 202.35" fill="none" stroke="#ffffff" stroke-linecap="round" stroke-linejoin="round" stroke-width="1.0"/>
    <path d="M310.9 193.05 L311.9 195.1 Q312.75 197.65 312.25 200.5 312.75 199.5 312.9 198.05 313.3 195.1 312.05 192.75 L310.9 193.05 Z" fill="none" stroke="#ffffff" stroke-linecap="butt" stroke-linejoin="round" stroke-width="1.0"/>
    <path d="M332.75 186.25 L333.45 185.95 334.65 189.2 Q336.0 192.6 336.85 193.15 L335.6 191.95 Q334.1 190.0 332.75 186.25 Z" fill="none" stroke="#ffffff" stroke-linecap="butt" stroke-linejoin="round" stroke-width="1.0"/>
    <path d="M315.45 200.5 L313.0 192.55 314.75 191.95 315.45 200.5 Z" fill="none" stroke="#ffffff" stroke-linecap="butt" stroke-linejoin="round" stroke-width="1.0"/>
    <path d="M313.95 200.25 L313.75 199.5" fill="none" stroke="#ffffff" stroke-linecap="butt" stroke-linejoin="round" stroke-width="1.0"/>
    <path d="M313.75 199.5 L312.05 192.75 313.25 192.5 313.45 196.25 313.75 199.5" fill="none" stroke="#ffffff" stroke-linecap="round" stroke-linejoin="round" stroke-width="1.0"/>
    <path d="M333.1 194.45 L333.1 194.15" fill="none" stroke="#ffffff" stroke-linecap="butt" stroke-linejoin="round" stroke-width="1.0"/>
    <path d="M333.1 194.15 Q332.75 192.65 329.6 187.25 L332.75 186.25 Q332.35 186.45 332.7 190.5 L333.1 194.15" fill="none" stroke="#ffffff" stroke-linecap="round" stroke-linejoin="round" stroke-width="1.0"/>
    <path d="M334.45 193.95 L333.75 190.5 Q333.15 187.0 333.6 187.1 L333.1 186.1 331.4 187.1 334.45 193.95 Z" fill="none" stroke="#ffffff" stroke-linecap="butt" stroke-linejoin="round" stroke-width="1.0"/>
    <path d="M312.1 193.8 L313.7 193.1 Q314.7 198.5 314.35 199.15 L313.65 196.5 Q312.8 193.85 312.1 193.8 Z" fill="none" stroke="#ffffff" stroke-linecap="butt" stroke-linejoin="round" stroke-width="1.0"/>
    <path d="M328.95 187.55 L331.25 186.75 Q332.1 194.25 331.55 194.65 L330.85 191.0 Q329.95 187.4 328.95 187.55 Z" fill="none" stroke="#ffffff" stroke-linecap="butt" stroke-linejoin="round" stroke-width="1.0"/>
    <path d="M329.9 187.15 L324.1 189.15 Q329.9 194.5 329.9 195.2 330.8 187.5 329.9 187.15 Z" fill="none" stroke="#ffffff" stroke-linecap="butt" stroke-linejoin="round" stroke-width="1.0"/>
    <path d="M329.65 190.45 L330.2 191.5 330.7 193.05 330.9 188.4 329.65 190.45 Z" fill="none" stroke="#ffffff" stroke-linecap="butt" stroke-linejoin="round" stroke-width="1.0"/>
    <path d="M314.6 192.05 L326.55 188.2 Q328.9 194.9 328.35 195.6 L328.0 194.65 Q327.55 193.75 326.85 194.0 326.95 195.95 326.65 196.55 325.7 193.95 325.3 194.05 L325.15 197.4 322.65 194.7 Q323.3 197.45 323.1 197.75 321.8 194.95 321.25 195.05 L322.05 198.5 319.95 195.4 319.95 198.65 319.0 196.95 318.75 199.3 317.75 197.45 317.3 200.15 315.2 197.35 314.6 192.05 Z" fill="none" stroke="#ffffff" stroke-linecap="butt" stroke-linejoin="round" stroke-width="1.0"/>
    <path d="M259.15 211.85 Q252.85 213.7 249.15 210.0 L292.2 196.25 293.25 199.6 291.9 201.15 Q290.1 202.7 288.0 202.95 285.75 203.25 278.8 205.1 L268.45 208.05 Q262.65 210.8 259.15 211.85" fill="#93d850" fill-rule="evenodd" stroke="none"/>
    <path d="M296.7 199.35 L296.55 199.9 295.9 200.35 295.2 200.55 294.45 200.6 293.95 200.2 292.8 196.55 292.95 195.95 Q293.2 195.65 293.6 195.55 L294.3 195.3 295.1 195.25 295.6 195.7 296.7 199.35" fill="#1776ff" fill-rule="evenodd" stroke="none"/>
    <path d="M299.9 198.3 Q300.0 198.65 299.75 198.9 L299.1 199.35 298.4 199.55 297.6 199.6 Q297.2 199.5 297.15 199.15 L296.0 195.55 Q295.9 195.25 296.1 194.95 296.4 194.65 296.8 194.55 L297.5 194.3 298.35 194.25 298.75 194.7 299.9 198.3" fill="#1776ff" fill-rule="evenodd" stroke="none"/>
    <path d="M302.05 193.65 L303.2 197.3 303.05 197.85 302.4 198.3 301.7 198.5 300.85 198.55 300.4 198.15 299.25 194.5 Q299.15 194.25 299.4 193.9 L300.05 193.5 300.8 193.25 301.55 193.2 302.05 193.65" fill="#1776ff" fill-rule="evenodd" stroke="none"/>
    <path d="M305.25 192.65 L306.35 196.25 306.2 196.85 305.55 197.3 304.85 197.5 304.1 197.55 303.6 197.1 302.45 193.55 302.6 192.9 303.25 192.5 303.95 192.25 304.75 192.2 305.25 192.65" fill="#1776ff" fill-rule="evenodd" stroke="none"/>
    <path d="M305.7 191.5 L306.95 191.2 308.55 190.85 Q308.9 190.9 309.65 193.4 L310.35 196.55 Q310.3 197.45 307.65 197.85 L305.7 191.5" fill="#93d850" fill-rule="evenodd" stroke="none"/>
    <path d="M309.55 190.55 L332.75 183.25 Q333.15 183.1 333.5 184.2 333.8 185.25 333.4 185.4 L310.25 192.65 Q309.8 192.8 309.45 191.75 309.15 190.7 309.55 190.55" fill="#93d850" fill-rule="evenodd" stroke="none"/>
    <path d="M311.9 199.1 Q311.85 194.7 310.2 193.05 L333.75 185.6 335.25 189.6 Q336.95 193.65 337.85 193.9 336.35 193.75 335.8 192.55 L336.0 194.5 334.85 193.0 334.65 194.75 333.6 193.4 333.25 195.9 332.35 193.9 331.45 196.1 330.8 194.35 330.15 196.45 328.85 194.7 328.55 196.95 327.35 195.15 327.0 197.8 325.8 195.85 325.4 198.15 323.45 196.65 323.4 198.8 322.4 197.1 322.25 199.45 320.7 197.45 320.05 199.7 319.15 198.4 318.8 200.45 318.05 198.75 317.4 201.1 316.25 199.2 315.4 201.85 314.6 199.45 314.25 202.0 313.45 199.9 312.35 201.4 311.75 202.35 311.9 199.1" fill="#ffebb3" fill-rule="evenodd" stroke="none"/>
    <path d="M310.9 193.05 L312.05 192.75 Q313.3 195.1 312.9 198.05 312.75 199.5 312.25 200.5 312.75 197.65 311.9 195.1 L310.9 193.05" fill="#ffd984" fill-rule="evenodd" stroke="none"/>
    <path d="M332.75 186.25 L333.45 185.95 334.65 189.2 Q336.0 192.6 336.85 193.15 L335.6 191.95 Q334.1 190.0 332.75 186.25" fill="#ffd984" fill-rule="evenodd" stroke="none"/>
    <path d="M315.45 200.5 L313.0 192.55 314.75 191.95 315.45 200.5" fill="#ffd984" fill-rule="evenodd" stroke="none"/>
    <path d="M313.75 199.5 L312.05 192.75 313.25 192.5 313.45 196.25 313.75 199.5" fill="#ffd984" fill-rule="evenodd" stroke="none"/>
    <path d="M333.1 194.15 Q332.75 192.65 329.6 187.25 L332.75 186.25 Q332.35 186.45 332.7 190.5 L333.1 194.15" fill="#ffd984" fill-rule="evenodd" stroke="none"/>
    <path d="M334.45 193.95 L331.4 187.1 333.1 186.1 333.6 187.1 Q333.15 187.0 333.75 190.5 L334.45 193.95" fill="#ffd984" fill-rule="evenodd" stroke="none"/>
    <path d="M312.1 193.8 L313.7 193.1 Q314.7 198.5 314.35 199.15 L313.65 196.5 Q312.8 193.85 312.1 193.8" fill="#ffd984" fill-rule="evenodd" stroke="none"/>
    <path d="M328.95 187.55 L331.25 186.75 Q332.1 194.25 331.55 194.65 L330.85 191.0 Q329.95 187.4 328.95 187.55" fill="#ffd984" fill-rule="evenodd" stroke="none"/>
    <path d="M329.9 187.15 Q330.8 187.5 329.9 195.2 329.9 194.5 324.1 189.15 L329.9 187.15" fill="#ffd984" fill-rule="evenodd" stroke="none"/>
    <path d="M329.65 190.45 L330.9 188.4 330.7 193.05 330.2 191.5 329.65 190.45" fill="#ffd984" fill-rule="evenodd" stroke="none"/>
    <path d="M314.6 192.05 L326.55 188.2 Q328.9 194.9 328.35 195.6 L328.0 194.65 Q327.55 193.75 326.85 194.0 326.95 195.95 326.65 196.55 325.7 193.95 325.3 194.05 L325.15 197.4 322.65 194.7 Q323.3 197.45 323.1 197.75 321.8 194.95 321.25 195.05 L322.05 198.5 319.95 195.4 319.95 198.65 319.0 196.95 318.75 199.3 317.75 197.45 317.3 200.15 315.2 197.35 314.6 192.05" fill="#ffd984" fill-rule="evenodd" stroke="none"/>
    <path d="M284.0 199.0 Q286.8 197.75 289.0 199.7 290.05 200.7 290.55 201.95 L297.2 217.25 292.75 224.45 287.35 215.9 Q281.95 207.1 281.75 205.95 281.05 203.9 281.1 202.6 281.15 200.35 284.0 199.0" fill="#ff6648" fill-rule="evenodd" stroke="none"/>
    <path d="M284.85 205.95 L284.45 204.55 Q284.35 202.95 285.45 202.25 286.6 201.55 287.8 202.85 L288.85 204.25 294.45 216.1 292.2 219.85 284.85 205.95" fill="#ffebb3" fill-rule="evenodd" stroke="none"/>
  </g>
  <defs>
    <linearGradient gradientTransform="matrix(0.0, 0.0281, 0.0281, 0.0, 307.5, 231.8)" gradientUnits="userSpaceOnUse" id="gradient0" spreadMethod="pad" x1="-819.2" x2="819.2">
      <stop offset="0.30980392156862746" stop-color="#ffebb3"/>
      <stop offset="1.0" stop-color="#ffd373"/>
    </linearGradient>
    <linearGradient gradientTransform="matrix(0.0, 0.0983, 0.0983, 0.0, 302.9, 158.3)" gradientUnits="userSpaceOnUse" id="gradient1" spreadMethod="pad" x1="-819.2" x2="819.2">
      <stop offset="0.30980392156862746" stop-color="#ffebb3"/>
      <stop offset="1.0" stop-color="#ffd373"/>
    </linearGradient>
  </defs>
</svg>
