<?xml version="1.0" encoding="UTF-8" standalone="no"?>
<svg xmlns:xlink="http://www.w3.org/1999/xlink" height="188.3px" width="207.0px" xmlns="http://www.w3.org/2000/svg">
  <g transform="matrix(1.0, 0.0, 0.0, 1.0, -203.4, -78.9)">
    <path d="M372.75 79.8 L357.35 113.25 410.4 102.85 370.8 130.55 401.95 133.25 369.25 143.65 396.95 154.0 349.9 149.9 326.6 119.4 341.2 80.2 343.5 106.35 372.75 79.8" fill="#ffe04a" fill-rule="evenodd" stroke="none"/>
    <path d="M294.35 219.45 Q307.0 234.1 307.6 235.75 L308.7 238.95 Q308.95 241.15 306.35 242.8 303.85 244.45 301.45 242.8 L299.6 240.9 291.0 227.05 294.35 219.45" fill="#ff6648" fill-rule="evenodd" stroke="none"/>
    <path d="M293.9 227.8 L295.45 223.9 304.6 236.2 305.15 237.6 Q305.5 239.1 304.55 239.9 303.55 240.7 302.15 239.65 L301.0 238.4 293.9 227.8" fill="#ffebb3" fill-rule="evenodd" stroke="none"/>
    <path d="M280.1 257.25 Q279.5 260.2 279.3 264.4 278.75 267.2 274.55 267.2 270.35 267.25 269.65 264.55 269.05 262.4 269.35 236.65 L269.8 211.35 295.2 208.35 297.6 233.95 Q299.95 260.15 299.45 262.95 298.95 266.15 294.7 266.15 290.5 266.15 289.75 263.85 L288.7 256.5 Q287.6 251.35 284.4 251.5 281.15 251.65 280.1 257.25" fill="#ff6648" fill-rule="evenodd" stroke="none"/>
    <path d="M277.9 250.05 Q277.25 251.85 277.15 260.9 L277.0 261.85 Q276.6 262.85 274.85 263.15 273.15 263.45 272.55 262.05 L272.35 260.65 273.35 220.4 293.45 218.65 296.55 261.4 296.55 262.35 Q296.25 263.4 294.8 263.55 293.4 263.7 292.55 262.75 L291.95 261.75 Q291.45 250.85 290.75 249.4 290.2 248.25 284.3 248.5 278.4 248.8 277.9 250.05" fill="url(#gradient0)" fill-rule="evenodd" stroke="none"/>
    <path d="M259.4 167.45 L259.1 168.25 Q258.75 168.6 258.3 168.6 L257.5 168.25 Q257.2 167.95 257.2 167.45 257.2 167.0 257.5 166.7 257.8 166.35 258.3 166.35 258.75 166.35 259.1 166.7 259.4 167.0 259.4 167.45" fill="#ffffff" fill-rule="evenodd" stroke="none"/>
    <path d="M308.45 167.6 Q308.45 168.1 308.1 168.4 307.75 168.75 307.3 168.75 306.85 168.75 306.55 168.4 306.2 168.1 306.2 167.6 306.2 167.15 306.55 166.85 306.85 166.5 307.3 166.5 307.75 166.5 308.1 166.85 308.45 167.15 308.45 167.6" fill="#ffffff" fill-rule="evenodd" stroke="none"/>
    <path d="M272.95 226.7 L294.15 225.4 295.15 243.4 272.95 244.05 272.95 226.7" fill="#ffffff" fill-rule="evenodd" stroke="none"/>
    <path d="M327.75 114.8 L341.15 117.7 Q352.05 119.85 353.85 122.8 345.7 125.55 343.3 127.2 339.6 129.7 339.6 136.3 339.6 142.6 345.1 151.2 347.85 155.5 350.65 158.5 L344.4 156.65 214.25 159.65 Q214.85 153.65 213.8 146.45 211.7 132.1 203.4 126.3 L212.45 125.6 Q221.6 125.2 222.05 126.85 221.85 120.5 223.3 112.95 226.15 97.75 234.15 91.6 L236.3 98.05 Q239.05 104.45 242.15 104.45 L248.7 100.2 Q256.75 95.1 264.35 91.0 288.55 77.8 298.7 79.0 295.6 82.2 293.4 85.85 288.95 93.2 293.35 95.5 L302.4 95.75 315.9 93.5 Q324.5 92.05 329.35 92.2 335.9 92.5 338.25 95.65 332.5 98.9 328.6 106.1 324.75 113.25 327.75 114.8" fill="#ff8666" fill-rule="evenodd" stroke="none"/>
    <path d="M221.55 153.6 Q228.35 153.6 233.15 158.45 237.95 163.2 237.95 170.0 237.95 176.75 233.15 181.6 228.35 186.4 221.55 186.4 214.75 186.4 210.0 181.6 205.15 176.75 205.15 170.0 205.15 163.2 210.0 158.45 214.75 153.6 221.55 153.6" fill="#ff6648" fill-rule="evenodd" stroke="none"/>
    <path d="M221.55 157.15 Q226.9 157.15 230.65 160.9 234.4 164.7 234.4 170.0 234.4 175.3 230.65 179.05 226.9 182.85 221.55 182.85 216.25 182.85 212.5 179.05 208.75 175.3 208.75 170.0 208.75 164.7 212.5 160.9 216.25 157.15 221.55 157.15" fill="#ffebb3" fill-rule="evenodd" stroke="none"/>
    <path d="M216.4 178.9 Q213.4 176.75 212.25 173.25 209.85 166.25 218.9 159.5 L216.4 178.9" fill="#ffd984" fill-rule="evenodd" stroke="none"/>
    <path d="M321.15 169.25 Q321.15 162.45 325.95 157.65 330.75 152.85 337.55 152.85 344.35 152.85 349.15 157.65 353.95 162.45 353.95 169.25 353.95 176.0 349.15 180.85 344.35 185.65 337.55 185.65 330.75 185.65 325.95 180.85 321.15 176.0 321.15 169.25" fill="#ff6648" fill-rule="evenodd" stroke="none"/>
    <path d="M324.7 169.25 Q324.7 163.95 328.5 160.15 332.2 156.4 337.55 156.4 342.85 156.4 346.65 160.15 350.4 163.95 350.4 169.25 350.4 174.55 346.65 178.3 342.85 182.1 337.55 182.1 332.2 182.1 328.5 178.3 324.7 174.55 324.7 169.25" fill="#ffebb3" fill-rule="evenodd" stroke="none"/>
    <path d="M343.25 178.9 L340.8 159.5 Q349.8 166.25 347.4 173.25 346.25 176.75 343.25 178.9" fill="#ffd984" fill-rule="evenodd" stroke="none"/>
    <path d="M339.35 150.7 Q344.4 161.85 344.4 174.1 344.4 198.4 325.55 213.9 307.25 228.85 279.95 228.85 252.65 228.85 234.4 213.9 215.5 198.4 215.5 174.1 215.5 161.85 220.55 150.7 225.45 139.95 234.4 131.6 243.3 123.3 254.9 118.75 266.85 114.0 279.95 114.0 293.05 114.0 305.05 118.75 316.6 123.3 325.55 131.6 334.45 139.95 339.35 150.7" fill="#ff6648" fill-rule="evenodd" stroke="none"/>
    <path d="M335.9 149.35 Q340.65 160.1 340.65 171.85 340.65 195.3 322.85 210.1 305.7 224.4 279.95 224.4 254.25 224.4 237.05 210.1 219.25 195.3 219.25 171.85 219.25 160.1 224.05 149.35 228.65 138.95 237.05 130.95 245.45 122.95 256.35 118.55 267.65 114.0 279.95 114.0 292.3 114.0 303.6 118.55 314.45 122.95 322.85 130.95 331.25 138.95 335.9 149.35" fill="url(#gradient1)" fill-rule="evenodd" stroke="none"/>
    <path d="M326.8 147.35 L329.75 152.5 298.25 155.45 296.4 152.9 326.8 147.35" fill="#fcca65" fill-rule="evenodd" stroke="none"/>
    <path d="M238.25 147.35 L268.65 152.9 266.8 155.45 235.3 152.5 238.25 147.35" fill="#fcca65" fill-rule="evenodd" stroke="none"/>
    <path d="M326.8 148.15 L329.75 153.25 298.25 156.2 296.4 153.65 326.8 148.15" fill="#ff6648" fill-rule="evenodd" stroke="none"/>
    <path d="M238.25 148.15 L268.65 153.65 266.8 156.2 235.3 153.25 238.25 148.15" fill="#ff6648" fill-rule="evenodd" stroke="none"/>
    <path d="M226.75 176.25 L230.3 173.2 230.3 181.05 226.75 176.25" fill="#ff8666" fill-rule="evenodd" stroke="none"/>
    <path d="M232.5 173.2 L236.9 174.5 233.85 181.05 232.5 173.2" fill="#ff8666" fill-rule="evenodd" stroke="none"/>
    <path d="M325.85 173.65 L330.65 172.35 328.5 180.25 325.85 173.65" fill="#ff8666" fill-rule="evenodd" stroke="none"/>
    <path d="M330.65 180.7 L332.85 173.65 335.5 175.85 330.65 180.7" fill="#ff8666" fill-rule="evenodd" stroke="none"/>
    <path d="M272.25 257.4 L272.8 243.75 295.45 243.25 296.4 258.0 291.85 258.15 Q291.45 251.9 287.95 249.6 286.85 248.9 285.55 248.65 L284.5 248.55 Q280.1 248.8 278.2 252.95 277.3 255.0 277.2 257.05 L272.25 257.4" fill="#1776ff" fill-rule="evenodd" stroke="none"/>
    <path d="M323.1 109.4 Q319.8 119.85 325.7 121.2 L334.0 121.1 Q342.95 121.4 346.05 123.45 341.25 123.7 338.4 127.9 333.4 135.4 340.65 152.15 336.3 143.65 328.2 135.25 308.15 114.15 279.65 114.5 251.15 114.8 232.25 135.1 222.75 145.25 219.0 155.35 219.6 150.6 219.6 145.45 219.6 135.05 216.65 132.85 L221.0 132.0 Q225.4 131.35 225.7 132.65 226.9 127.25 228.75 121.6 232.3 110.25 235.1 108.8 L235.5 110.0 Q236.0 111.5 236.75 112.65 239.2 116.3 243.2 115.25 L247.65 112.0 Q253.3 108.0 258.9 104.5 276.85 93.3 287.85 90.95 L287.0 93.35 Q286.15 96.2 286.25 98.5 286.7 105.85 296.7 104.8 L309.9 101.9 Q323.9 99.0 327.55 99.15 324.7 104.15 323.1 109.4" fill="#ff6648" fill-rule="evenodd" stroke="none"/>
    <path d="M319.0 164.55 L320.5 164.35 322.7 164.3 Q323.3 164.45 323.2 165.85 L322.8 167.7 Q322.35 168.6 322.05 169.85 321.55 171.65 322.0 172.3 322.5 173.0 322.1 175.45 321.75 177.65 321.2 178.7 320.8 179.45 322.2 181.8 L323.7 184.0 319.95 184.35 317.2 185.0 Q317.55 184.85 317.55 183.95 317.5 182.95 317.1 182.3 316.7 181.75 317.15 180.1 L317.8 178.1 318.2 175.5 Q318.5 173.25 318.3 172.4 318.1 171.65 318.8 170.45 L320.1 168.5 Q320.5 167.7 319.8 166.05 L319.0 164.55" fill="#e3fcff" fill-rule="evenodd" stroke="none"/>
    <path d="M322.05 204.95 Q318.7 208.95 305.95 213.75 292.2 218.9 282.05 218.9 273.45 218.9 264.4 217.25 251.5 214.85 244.7 209.85 238.0 204.9 235.9 198.85 234.05 193.55 235.9 188.05 236.7 185.65 250.75 183.75 263.55 181.95 281.45 181.35 299.6 180.7 312.5 181.65 326.9 182.7 328.4 185.4 331.15 190.35 328.3 196.2 327.0 198.85 322.05 204.95" fill="#ff6648" fill-rule="evenodd" stroke="none"/>
    <path d="M305.95 213.75 Q292.2 218.9 282.05 218.9 273.45 218.9 264.4 217.25 251.5 214.85 244.7 209.85 242.9 208.55 245.2 206.6 247.35 204.7 252.65 202.85 264.9 198.6 280.75 197.95 294.85 197.4 309.65 200.25 323.6 203.0 322.05 204.95 318.7 208.95 305.95 213.75" fill="#ef5043" fill-rule="evenodd" stroke="none"/>
    <path d="M238.8 188.55 L242.5 187.8 246.95 187.95 Q247.55 188.7 247.55 189.4 L247.5 190.4 Q248.05 193.8 246.8 194.85 246.2 195.4 245.45 195.25 L241.15 196.0 Q238.95 195.35 238.65 191.9 L238.8 188.55" fill="#ffffff" fill-rule="evenodd" stroke="none"/>
    <path d="M256.6 187.0 Q257.25 187.75 257.25 188.4 L257.2 189.5 Q257.7 192.85 256.45 193.9 255.85 194.4 255.1 194.25 L250.85 195.0 Q248.65 194.4 248.35 190.95 L248.5 187.65 252.2 186.85 256.6 187.0" fill="#ffffff" fill-rule="evenodd" stroke="none"/>
    <path d="M268.1 186.25 L271.8 185.45 276.25 185.6 Q276.85 186.4 276.85 187.05 L276.85 188.1 Q277.35 191.45 276.1 192.55 275.5 193.05 274.75 192.9 L270.45 193.65 Q268.25 193.0 267.95 189.55 L268.1 186.25" fill="#ffffff" fill-rule="evenodd" stroke="none"/>
    <path d="M325.75 185.45 L326.1 188.75 Q326.05 192.2 323.9 193.0 L319.6 192.55 Q318.85 192.7 318.2 192.25 316.85 191.3 317.2 187.85 L317.05 186.85 Q317.0 186.2 317.6 185.35 318.15 184.55 322.0 184.9 L325.75 185.45" fill="#ffffff" fill-rule="evenodd" stroke="none"/>
    <path d="M316.35 188.45 Q316.35 191.9 314.2 192.7 L309.85 192.25 Q309.15 192.4 308.45 191.95 307.15 191.0 307.45 187.55 L307.35 186.55 Q307.3 185.85 307.85 185.05 308.45 184.25 312.25 184.6 L316.0 185.15 316.35 188.45" fill="#ffffff" fill-rule="evenodd" stroke="none"/>
    <path d="M306.3 185.1 L306.7 188.4 Q306.65 191.85 304.45 192.65 L300.15 192.2 Q299.45 192.4 298.75 191.9 297.45 190.95 297.75 187.5 L297.6 186.5 Q297.6 185.85 298.15 185.0 298.7 184.2 302.55 184.55 L306.3 185.1" fill="#ffffff" fill-rule="evenodd" stroke="none"/>
    <path d="M296.35 185.05 L296.7 188.4 Q296.65 191.85 294.5 192.65 L290.2 192.15 288.8 191.9 Q287.45 190.9 287.8 187.5 L287.65 186.5 Q287.6 185.8 288.2 185.0 288.75 184.15 292.6 184.55 L296.35 185.05" fill="#ffffff" fill-rule="evenodd" stroke="none"/>
    <path d="M287.0 188.7 Q287.05 191.5 286.6 191.95 279.8 194.25 278.55 191.95 277.7 190.4 277.8 188.25 277.95 186.5 278.55 185.35 L281.55 184.9 285.8 185.1 Q286.85 185.65 287.0 188.7" fill="#ffffff" fill-rule="evenodd" stroke="none"/>
    <path d="M293.0 207.6 L297.3 206.7 Q299.5 207.2 299.95 210.65 300.2 212.4 299.95 214.0 L296.3 214.95 Q292.55 215.75 291.85 215.0 291.2 214.25 291.15 213.6 L291.2 212.55 Q290.5 209.2 291.7 208.1 292.3 207.5 293.0 207.6" fill="#ffffff" fill-rule="evenodd" stroke="none"/>
    <path d="M250.3 207.8 Q251.2 204.5 253.5 204.25 L257.55 205.75 258.85 206.4 Q259.9 207.65 258.75 210.9 258.6 211.25 258.6 211.9 258.45 212.6 257.7 213.25 256.95 213.9 253.35 212.6 L249.85 211.15 Q249.85 209.5 250.3 207.8" fill="#ffffff" fill-rule="evenodd" stroke="none"/>
    <path d="M243.95 204.1 Q245.0 201.95 246.6 202.1 L249.2 203.65 249.95 204.25 Q250.55 205.3 249.35 207.35 L249.1 208.05 248.3 208.85 Q247.7 209.15 245.35 207.8 L243.2 206.35 Q243.4 205.2 243.95 204.1" fill="#ffffff" fill-rule="evenodd" stroke="none"/>
    <path d="M266.6 207.35 L268.0 207.65 Q269.35 208.6 269.05 212.0 L269.15 213.05 Q269.2 213.75 268.6 214.55 268.05 215.35 264.2 215.0 L260.45 214.45 Q260.05 212.85 260.1 211.15 260.15 207.65 262.3 206.85 L266.6 207.35" fill="#ffffff" fill-rule="evenodd" stroke="none"/>
    <path d="M276.8 208.55 L278.2 208.85 Q279.5 209.75 279.25 213.15 L279.35 214.25 Q279.45 214.9 278.85 215.7 278.3 216.55 274.45 216.2 L270.7 215.75 Q270.3 214.15 270.3 212.4 270.3 208.95 272.45 208.15 L276.8 208.55" fill="#ffffff" fill-rule="evenodd" stroke="none"/>
    <path d="M284.8 216.6 L281.0 216.25 Q280.55 214.7 280.45 213.0 280.3 209.5 282.4 208.6 L286.75 208.85 288.15 209.05 Q289.55 209.9 289.45 213.35 L289.6 214.4 Q289.65 215.0 289.15 215.9 288.65 216.75 284.8 216.6" fill="#ffffff" fill-rule="evenodd" stroke="none"/>
    <path d="M309.8 210.65 L307.0 211.75 Q303.9 212.85 302.8 212.6 301.6 212.35 300.8 209.4 300.0 206.7 300.35 206.15 300.8 205.45 303.75 204.3 307.05 203.0 308.2 204.25 309.4 205.5 309.75 207.6 310.1 209.35 309.8 210.65" fill="#ffffff" fill-rule="evenodd" stroke="none"/>
    <path d="M312.7 203.0 L315.85 202.9 Q316.65 203.8 316.95 205.3 L317.0 207.4 Q313.35 209.05 312.05 208.8 311.25 208.6 310.7 206.55 310.15 204.7 310.35 204.25 310.65 203.8 312.7 203.0" fill="#ffffff" fill-rule="evenodd" stroke="none"/>
    <path d="M233.15 184.3 Q235.05 181.85 238.7 181.2 240.85 180.75 278.85 180.1 L316.45 179.55 282.65 181.95 240.65 184.25 Q232.9 185.05 232.1 189.5 L232.0 191.1 Q231.15 186.95 233.15 184.3" fill="#ffd984" fill-rule="evenodd" stroke="none"/>
    <path d="M286.1 176.7 Q280.9 177.95 276.55 175.4 L283.25 167.2 290.4 174.9 Q288.7 176.05 286.1 176.7" fill="#fcca65" fill-rule="evenodd" stroke="none"/>
    <path d="M227.5 219.75 L269.5 206.4 270.55 209.6 269.2 211.15 Q267.5 212.7 265.4 212.9 263.2 213.15 256.4 215.0 L246.3 217.9 Q240.6 220.55 237.2 221.6 231.05 223.45 227.5 219.75 Z" fill="none" stroke="#ffffff" stroke-linecap="butt" stroke-linejoin="round" stroke-width="1.0"/>
    <path d="M273.95 209.35 L273.8 209.9 273.15 210.35 272.45 210.55 271.7 210.6 271.25 210.2 270.1 206.65 270.25 206.1 Q270.5 205.75 270.9 205.65 L271.6 205.45 272.4 205.4 272.85 205.8 273.95 209.35 Z" fill="none" stroke="#ffffff" stroke-linecap="butt" stroke-linejoin="round" stroke-width="1.0"/>
    <path d="M274.7 204.45 L275.5 204.4 275.95 204.85 277.05 208.4 276.9 208.95 276.25 209.35 275.6 209.6 274.8 209.6 274.35 209.2 273.2 205.65 Q273.15 205.4 273.35 205.1 273.6 204.8 274.0 204.7 L274.7 204.45 Z" fill="none" stroke="#ffffff" stroke-linecap="butt" stroke-linejoin="round" stroke-width="1.0"/>
    <path d="M279.15 203.8 L280.25 207.35 280.1 207.9 279.5 208.4 278.75 208.55 278.0 208.6 277.55 208.2 276.4 204.65 Q276.35 204.4 276.55 204.1 276.8 203.8 277.2 203.65 L277.9 203.45 278.7 203.4 279.15 203.8 Z" fill="none" stroke="#ffffff" stroke-linecap="butt" stroke-linejoin="round" stroke-width="1.0"/>
    <path d="M283.2 206.95 L282.55 207.4 281.9 207.6 281.15 207.6 280.7 207.2 279.55 203.7 279.7 203.1 280.35 202.7 281.0 202.45 281.8 202.4 282.25 202.85 283.35 206.4 283.2 206.95 Z" fill="none" stroke="#ffffff" stroke-linecap="butt" stroke-linejoin="round" stroke-width="1.0"/>
    <path d="M283.95 201.4 L282.7 201.75 284.65 207.9 Q287.2 207.5 287.25 206.65 287.3 205.95 286.55 203.6 285.85 201.15 285.5 201.1 L283.95 201.4 Z" fill="none" stroke="#ffffff" stroke-linecap="butt" stroke-linejoin="round" stroke-width="1.0"/>
    <path d="M309.75 195.75 L287.15 202.85 Q286.7 203.0 286.4 201.95 286.1 200.95 286.5 200.8 L309.15 193.65 Q309.55 193.5 309.9 194.55 310.2 195.6 309.75 195.75 Z" fill="none" stroke="#ffffff" stroke-linecap="butt" stroke-linejoin="round" stroke-width="1.0"/>
    <path d="M288.5 213.15 Q288.25 213.0 288.6 212.35" fill="none" stroke="#ffffff" stroke-linecap="butt" stroke-linejoin="round" stroke-width="1.0"/>
    <path d="M288.6 212.35 L288.75 209.15 Q288.7 204.85 287.1 203.2 L310.1 195.95 311.6 199.85 Q313.25 203.8 314.1 204.05 312.65 203.9 312.15 202.75 L312.3 204.65 311.2 203.15 311.0 204.85 309.95 203.55 309.6 206.0 308.75 204.05 307.9 206.2 307.25 204.5 306.6 206.55 305.35 204.85 305.05 207.0 303.85 205.3 303.45 207.85 302.35 205.95 301.95 208.25 300.05 206.75 300.0 208.85 299.0 207.15 298.9 209.45 297.35 207.5 296.7 209.75 295.85 208.45 295.45 210.45 294.8 208.8 294.15 211.1 293.0 209.25 292.2 211.85 291.45 209.45 291.05 211.95 290.3 209.9 289.15 211.4 288.6 212.35" fill="none" stroke="#ffffff" stroke-linecap="round" stroke-linejoin="round" stroke-width="1.0"/>
    <path d="M287.8 203.2 L288.75 205.2 Q289.6 207.75 289.15 210.55 L289.75 208.1 Q290.15 205.25 288.9 202.95 L287.8 203.2 Z" fill="none" stroke="#ffffff" stroke-linecap="butt" stroke-linejoin="round" stroke-width="1.0"/>
    <path d="M309.15 196.55 L309.85 196.25 311.0 199.45 Q312.35 202.8 313.15 203.3 312.65 203.1 311.9 202.15 310.45 200.25 309.15 196.55 Z" fill="none" stroke="#ffffff" stroke-linecap="butt" stroke-linejoin="round" stroke-width="1.0"/>
    <path d="M292.25 210.55 L289.85 202.75 291.5 202.15 292.25 210.55 Z" fill="none" stroke="#ffffff" stroke-linecap="butt" stroke-linejoin="round" stroke-width="1.0"/>
    <path d="M290.75 210.25 L290.55 209.45" fill="none" stroke="#ffffff" stroke-linecap="butt" stroke-linejoin="round" stroke-width="1.0"/>
    <path d="M290.55 209.45 L288.9 202.95 290.1 202.7 Q290.3 207.75 290.55 209.45" fill="none" stroke="#ffffff" stroke-linecap="round" stroke-linejoin="round" stroke-width="1.0"/>
    <path d="M309.5 204.6 L309.45 204.3" fill="none" stroke="#ffffff" stroke-linecap="butt" stroke-linejoin="round" stroke-width="1.0"/>
    <path d="M309.45 204.3 Q309.15 202.85 306.05 197.55 L309.15 196.55 Q308.7 196.75 309.05 200.7 L309.45 204.3" fill="none" stroke="#ffffff" stroke-linecap="round" stroke-linejoin="round" stroke-width="1.0"/>
    <path d="M307.8 197.45 L310.8 204.1 310.1 200.7 Q309.55 197.3 309.95 197.4 L309.5 196.45 307.8 197.45 Z" fill="none" stroke="#ffffff" stroke-linecap="butt" stroke-linejoin="round" stroke-width="1.0"/>
    <path d="M289.0 203.95 L290.55 203.3 Q291.5 208.55 291.15 209.2 L290.5 206.6 Q289.65 204.0 289.0 203.95 Z" fill="none" stroke="#ffffff" stroke-linecap="butt" stroke-linejoin="round" stroke-width="1.0"/>
    <path d="M305.4 197.85 L307.65 197.1 Q308.5 204.4 307.95 204.8 L307.3 201.2 Q306.35 197.7 305.4 197.85 Z" fill="none" stroke="#ffffff" stroke-linecap="butt" stroke-linejoin="round" stroke-width="1.0"/>
    <path d="M306.35 197.45 L300.7 199.4 Q306.35 204.65 306.35 205.3 307.25 197.8 306.35 197.45 Z" fill="none" stroke="#ffffff" stroke-linecap="butt" stroke-linejoin="round" stroke-width="1.0"/>
    <path d="M306.1 200.7 Q307.1 202.55 307.1 203.15 L307.3 198.7 306.1 200.7 Z" fill="none" stroke="#ffffff" stroke-linecap="butt" stroke-linejoin="round" stroke-width="1.0"/>
    <path d="M304.85 205.7 L304.55 204.8 Q304.05 203.95 303.4 204.15 303.45 206.1 303.2 206.65 302.25 204.1 301.9 204.25 L301.7 207.45 299.25 204.85 Q299.9 207.5 299.75 207.8 298.45 205.1 297.9 205.15 L298.7 208.55 296.6 205.5 296.65 208.7 295.75 207.0 295.45 209.3 294.5 207.5 294.05 210.15 292.0 207.45 291.4 202.25 303.1 198.5 Q305.4 205.0 304.85 205.7 Z" fill="none" stroke="#ffffff" stroke-linecap="butt" stroke-linejoin="round" stroke-width="1.0"/>
    <path d="M227.5 219.75 L269.5 206.4 270.55 209.6 269.2 211.15 Q267.5 212.7 265.4 212.9 263.2 213.15 256.4 215.0 L246.3 217.9 Q240.6 220.55 237.2 221.6 231.05 223.45 227.5 219.75" fill="#93d850" fill-rule="evenodd" stroke="none"/>
    <path d="M273.95 209.35 L273.8 209.9 273.15 210.35 272.45 210.55 271.7 210.6 271.25 210.2 270.1 206.65 270.25 206.1 Q270.5 205.75 270.9 205.65 L271.6 205.45 272.4 205.4 272.85 205.8 273.95 209.35" fill="#1776ff" fill-rule="evenodd" stroke="none"/>
    <path d="M274.7 204.45 L275.5 204.4 275.95 204.85 277.05 208.4 276.9 208.95 276.25 209.35 275.6 209.6 274.8 209.6 274.35 209.2 273.2 205.65 Q273.15 205.4 273.35 205.1 273.6 204.8 274.0 204.7 L274.7 204.45" fill="#1776ff" fill-rule="evenodd" stroke="none"/>
    <path d="M279.15 203.8 L280.25 207.35 280.1 207.9 279.5 208.4 278.75 208.55 278.0 208.6 277.55 208.2 276.4 204.65 Q276.35 204.4 276.55 204.1 276.8 203.8 277.2 203.65 L277.9 203.45 278.7 203.4 279.15 203.8" fill="#1776ff" fill-rule="evenodd" stroke="none"/>
    <path d="M283.2 206.95 L282.55 207.4 281.9 207.6 281.15 207.6 280.7 207.2 279.55 203.7 279.7 203.1 280.35 202.7 281.0 202.45 281.8 202.4 282.25 202.85 283.35 206.4 283.2 206.95" fill="#1776ff" fill-rule="evenodd" stroke="none"/>
    <path d="M283.95 201.4 L285.5 201.1 Q285.85 201.15 286.55 203.6 287.3 205.95 287.25 206.65 287.2 207.5 284.65 207.9 L282.7 201.75 283.95 201.4" fill="#93d850" fill-rule="evenodd" stroke="none"/>
    <path d="M309.75 195.75 L287.15 202.85 Q286.7 203.0 286.4 201.95 286.1 200.95 286.5 200.8 L309.15 193.65 Q309.55 193.5 309.9 194.55 310.2 195.6 309.75 195.75" fill="#93d850" fill-rule="evenodd" stroke="none"/>
    <path d="M311.6 199.85 Q313.25 203.8 314.1 204.05 312.65 203.9 312.15 202.75 L312.3 204.65 311.2 203.15 311.0 204.85 309.95 203.55 309.6 206.0 308.75 204.05 307.9 206.2 307.25 204.5 306.6 206.55 305.35 204.85 305.05 207.0 303.85 205.3 303.45 207.85 302.35 205.95 301.95 208.25 300.05 206.75 300.0 208.85 299.0 207.15 298.9 209.45 297.35 207.5 296.7 209.75 295.85 208.45 295.45 210.45 294.8 208.8 294.15 211.1 293.0 209.25 292.2 211.85 291.45 209.45 291.05 211.95 290.3 209.9 289.15 211.4 288.6 212.35 288.75 209.15 Q288.7 204.85 287.1 203.2 L310.1 195.95 311.6 199.85" fill="#ffebb3" fill-rule="evenodd" stroke="none"/>
    <path d="M287.8 203.2 L288.9 202.95 Q290.15 205.25 289.75 208.1 L289.15 210.55 Q289.6 207.75 288.75 205.2 L287.8 203.2" fill="#ffd984" fill-rule="evenodd" stroke="none"/>
    <path d="M309.15 196.55 L309.85 196.25 311.0 199.45 Q312.35 202.8 313.15 203.3 312.65 203.1 311.9 202.15 310.45 200.25 309.15 196.55" fill="#ffd984" fill-rule="evenodd" stroke="none"/>
    <path d="M292.25 210.55 L289.85 202.75 291.5 202.15 292.25 210.55" fill="#ffd984" fill-rule="evenodd" stroke="none"/>
    <path d="M290.55 209.45 L288.9 202.95 290.1 202.7 Q290.3 207.75 290.55 209.45" fill="#ffd984" fill-rule="evenodd" stroke="none"/>
    <path d="M309.45 204.3 Q309.15 202.85 306.05 197.55 L309.15 196.55 Q308.7 196.75 309.05 200.7 L309.45 204.3" fill="#ffd984" fill-rule="evenodd" stroke="none"/>
    <path d="M307.8 197.45 L309.5 196.45 309.95 197.4 Q309.55 197.3 310.1 200.7 L310.8 204.1 307.8 197.45" fill="#ffd984" fill-rule="evenodd" stroke="none"/>
    <path d="M289.0 203.95 L290.55 203.3 Q291.5 208.55 291.15 209.2 L290.5 206.6 Q289.65 204.0 289.0 203.95" fill="#ffd984" fill-rule="evenodd" stroke="none"/>
    <path d="M305.4 197.85 L307.65 197.1 Q308.5 204.4 307.95 204.8 L307.3 201.2 Q306.35 197.7 305.4 197.85" fill="#ffd984" fill-rule="evenodd" stroke="none"/>
    <path d="M306.35 197.45 Q307.25 197.8 306.35 205.3 306.35 204.65 300.7 199.4 L306.35 197.45" fill="#ffd984" fill-rule="evenodd" stroke="none"/>
    <path d="M306.1 200.7 L307.3 198.7 307.1 203.15 Q307.1 202.55 306.1 200.7" fill="#ffd984" fill-rule="evenodd" stroke="none"/>
    <path d="M304.85 205.7 L304.55 204.8 Q304.05 203.95 303.4 204.15 303.45 206.1 303.2 206.65 302.25 204.1 301.9 204.25 L301.7 207.45 299.25 204.85 Q299.9 207.5 299.75 207.8 298.45 205.1 297.9 205.15 L298.7 208.55 296.6 205.5 296.65 208.7 295.75 207.0 295.45 209.3 294.5 207.5 294.05 210.15 292.0 207.45 291.4 202.25 303.1 198.5 Q305.4 205.0 304.85 205.7" fill="#ffd984" fill-rule="evenodd" stroke="none"/>
    <path d="M274.4 226.85 L270.05 233.9 264.8 225.55 Q259.5 216.95 259.3 215.85 258.6 213.8 258.65 212.55 258.75 210.35 261.5 209.05 264.25 207.8 266.4 209.75 267.45 210.7 267.95 211.9 L274.4 226.85" fill="#ff6648" fill-rule="evenodd" stroke="none"/>
    <path d="M262.35 215.85 L261.95 214.45 Q261.85 212.9 262.95 212.25 264.05 211.55 265.2 212.8 L266.2 214.2 271.65 225.75 269.55 229.4 262.35 215.85" fill="#ffebb3" fill-rule="evenodd" stroke="none"/>
    <path d="M246.2 164.55 L247.7 164.35 249.9 164.3 Q250.45 164.45 250.4 165.85 L249.95 167.7 249.2 169.85 Q248.75 171.65 249.2 172.3 249.65 173.0 249.3 175.45 L248.4 178.7 Q248.0 179.45 249.4 181.8 L250.9 184.0 247.15 184.35 244.4 185.0 Q244.75 184.85 244.75 183.95 244.7 182.95 244.3 182.3 243.9 181.75 244.35 180.1 L245.0 178.1 245.4 175.5 Q245.65 173.25 245.5 172.4 245.3 171.65 246.0 170.45 L247.3 168.5 Q247.7 167.7 247.0 166.05 L246.2 164.55" fill="#e3fcff" fill-rule="evenodd" stroke="none"/>
    <path d="M257.05 173.25 Q250.9 173.45 246.45 169.9 245.05 168.75 243.95 167.4 L243.2 166.25 245.05 158.2 267.5 158.2 268.1 166.25 Q267.8 167.95 266.25 169.65 263.2 173.05 257.05 173.25" fill="#ff6648" fill-rule="evenodd" stroke="none"/>
    <path d="M266.5 163.25 L245.65 164.65 246.35 159.95 266.3 159.95 266.5 163.25" fill="#f5f5f5" fill-rule="evenodd" stroke="none"/>
    <path d="M321.4 158.2 L323.15 166.25 Q322.2 167.65 320.15 169.0 316.05 171.7 310.45 171.7 304.9 171.7 301.05 169.0 L298.3 166.25 298.9 158.2 321.4 158.2" fill="#ff6648" fill-rule="evenodd" stroke="none"/>
    <path d="M320.05 159.95 L320.75 164.65 299.9 163.25 300.1 159.95 320.05 159.95" fill="#f5f5f5" fill-rule="evenodd" stroke="none"/>
  </g>
  <defs>
    <linearGradient gradientTransform="matrix(0.0, 0.0274, 0.0274, 0.0, 284.5, 241.1)" gradientUnits="userSpaceOnUse" id="gradient0" spreadMethod="pad" x1="-819.2" x2="819.2">
      <stop offset="0.30980392156862746" stop-color="#ffebb3"/>
      <stop offset="1.0" stop-color="#ffd373"/>
    </linearGradient>
    <linearGradient gradientTransform="matrix(0.0, 0.096, 0.096, 0.0, 279.95, 169.3)" gradientUnits="userSpaceOnUse" id="gradient1" spreadMethod="pad" x1="-819.2" x2="819.2">
      <stop offset="0.30980392156862746" stop-color="#ffebb3"/>
      <stop offset="1.0" stop-color="#ffd373"/>
    </linearGradient>
  </defs>
</svg>
