<?xml version="1.0" encoding="UTF-8" standalone="no"?>
<svg xmlns:xlink="http://www.w3.org/1999/xlink" height="173.35px" width="225.7px" xmlns="http://www.w3.org/2000/svg">
  <g transform="matrix(1.0, 0.0, 0.0, 1.0, -171.0, -76.9)">
    <path d="M343.5 123.1 Q362.15 123.1 375.35 136.25 388.6 149.5 388.6 168.15 388.6 186.8 375.35 200.0 362.15 213.2 343.5 213.2 324.85 213.2 311.6 200.0 298.45 186.8 298.45 168.15 298.45 149.5 311.6 136.25 324.85 123.1 343.5 123.1" fill="#ffffff" fill-rule="evenodd" stroke="none"/>
    <path d="M255.35 206.35 Q267.0 219.8 267.55 221.35 L268.55 224.25 Q268.85 226.3 266.45 227.85 264.1 229.35 261.95 227.85 L260.2 226.05 252.3 213.3 255.35 206.35" fill="#ff6648" fill-rule="evenodd" stroke="none"/>
    <path d="M254.95 214.0 L256.4 210.4 264.8 221.75 265.3 223.0 Q265.6 224.35 264.7 225.15 263.8 225.9 262.55 224.9 L261.5 223.75 254.95 214.0" fill="#ffebb3" fill-rule="evenodd" stroke="none"/>
    <path d="M234.3 207.0 L237.35 214.05 229.4 226.75 227.75 228.55 Q225.55 230.05 223.25 228.5 220.85 226.95 221.05 224.95 L222.1 222.05 Q222.45 221.1 228.4 213.95 L234.3 207.0" fill="#ff6648" fill-rule="evenodd" stroke="none"/>
    <path d="M234.7 214.7 L228.15 224.5 227.1 225.6 Q225.8 226.55 224.9 225.8 224.0 225.05 224.35 223.7 L224.85 222.45 233.25 211.1 234.7 214.7" fill="#ffebb3" fill-rule="evenodd" stroke="none"/>
    <path d="M232.75 198.85 L256.15 196.05 258.4 219.65 Q260.55 243.8 260.05 246.4 259.6 249.35 255.65 249.35 251.8 249.35 251.1 247.2 250.7 243.0 250.15 240.45 249.2 235.7 246.25 235.85 243.3 235.95 242.3 241.1 241.75 243.8 241.55 247.7 241.0 250.25 237.15 250.25 233.3 250.3 232.65 247.85 232.05 245.85 232.4 222.15 L232.75 198.85" fill="#ff6648" fill-rule="evenodd" stroke="none"/>
    <path d="M236.05 207.2 L254.55 205.55 257.45 244.95 257.4 245.85 Q257.1 246.75 255.8 246.9 254.5 247.05 253.7 246.15 L253.2 245.25 Q252.7 235.2 252.05 233.85 251.55 232.8 246.15 233.05 240.65 233.3 240.25 234.5 239.6 236.1 239.55 244.45 L239.45 245.35 Q239.05 246.25 237.45 246.55 235.85 246.85 235.35 245.55 L235.1 244.2 236.05 207.2" fill="url(#gradient0)" fill-rule="evenodd" stroke="none"/>
    <path d="M222.55 158.45 L222.25 159.2 221.5 159.5 Q221.05 159.5 220.8 159.2 220.5 158.9 220.5 158.45 220.5 158.05 220.8 157.75 221.05 157.45 221.5 157.45 221.95 157.45 222.25 157.75 L222.55 158.45" fill="#ffffff" fill-rule="evenodd" stroke="none"/>
    <path d="M267.65 158.6 L267.35 159.35 266.65 159.65 265.9 159.35 Q265.6 159.05 265.6 158.6 265.6 158.15 265.9 157.9 266.2 157.6 266.65 157.6 267.0 157.6 267.35 157.9 L267.65 158.6" fill="#ffffff" fill-rule="evenodd" stroke="none"/>
    <path d="M255.15 211.75 L256.1 228.35 235.7 228.95 235.7 213.0 255.15 211.75" fill="#ffffff" fill-rule="evenodd" stroke="none"/>
    <path d="M301.4 143.5 Q303.95 147.45 306.45 150.2 L300.75 148.5 180.95 151.3 Q181.5 145.75 180.55 139.15 178.6 125.95 171.0 120.6 L179.3 119.9 Q187.7 119.55 188.15 121.05 187.95 115.25 189.25 108.25 191.85 94.3 199.25 88.65 L201.2 94.55 Q203.8 100.45 206.6 100.45 215.9 94.15 227.1 88.1 249.4 75.95 258.7 77.0 255.85 80.0 253.8 83.35 249.7 90.1 253.75 92.2 L262.1 92.45 274.5 90.4 Q282.45 89.05 286.85 89.25 292.95 89.5 295.1 92.35 289.75 95.4 286.2 102.0 282.65 108.55 285.45 110.0 L297.75 112.65 Q307.8 114.7 309.4 117.35 301.95 119.9 299.75 121.45 296.35 123.7 296.35 129.8 296.35 135.6 301.4 143.5" fill="#ff8666" fill-rule="evenodd" stroke="none"/>
    <path d="M177.0 150.15 Q181.45 145.7 187.7 145.7 193.95 145.7 198.35 150.15 202.75 154.55 202.75 160.8 202.75 167.05 198.35 171.45 193.95 175.9 187.7 175.9 181.45 175.9 177.0 171.45 172.6 167.05 172.6 160.8 172.6 154.55 177.0 150.15" fill="#ff6648" fill-rule="evenodd" stroke="none"/>
    <path d="M199.5 160.8 Q199.5 165.7 196.05 169.15 192.6 172.6 187.7 172.6 182.8 172.6 179.3 169.15 175.85 165.7 175.85 160.8 175.85 155.9 179.3 152.45 182.8 149.0 187.7 149.0 192.6 149.0 196.05 152.45 199.5 155.9 199.5 160.8" fill="#ffebb3" fill-rule="evenodd" stroke="none"/>
    <path d="M182.9 169.0 Q180.2 167.05 179.1 163.85 176.95 157.4 185.25 151.15 L182.9 169.0" fill="#ffd984" fill-rule="evenodd" stroke="none"/>
    <path d="M305.1 149.45 Q309.55 153.85 309.55 160.1 309.55 166.35 305.1 170.8 300.65 175.2 294.45 175.2 288.2 175.2 283.75 170.8 279.35 166.35 279.35 160.1 279.35 153.85 283.75 149.45 288.2 145.0 294.45 145.0 300.65 145.0 305.1 149.45" fill="#ff6648" fill-rule="evenodd" stroke="none"/>
    <path d="M294.45 148.3 Q299.35 148.3 302.8 151.75 306.25 155.2 306.25 160.1 306.25 165.0 302.8 168.45 299.35 171.95 294.45 171.95 289.55 171.95 286.1 168.45 282.6 165.0 282.6 160.1 282.6 155.2 286.1 151.75 289.55 148.3 294.45 148.3" fill="#ffebb3" fill-rule="evenodd" stroke="none"/>
    <path d="M299.75 169.0 L297.4 151.15 Q305.7 157.4 303.55 163.85 302.45 167.05 299.75 169.0" fill="#ffd984" fill-rule="evenodd" stroke="none"/>
    <path d="M300.75 164.55 Q300.75 186.95 283.4 201.2 266.55 214.95 241.45 214.95 216.3 214.95 199.5 201.2 182.15 186.95 182.15 164.55 182.15 153.3 186.8 143.05 191.3 133.15 199.5 125.45 207.7 117.85 218.35 113.65 229.4 109.3 241.45 109.3 253.5 109.3 264.55 113.65 275.15 117.85 283.4 125.45 291.6 133.15 296.1 143.05 300.75 153.3 300.75 164.55" fill="#ff6648" fill-rule="evenodd" stroke="none"/>
    <path d="M297.3 162.55 Q297.3 184.1 280.95 197.75 265.1 210.9 241.45 210.9 217.75 210.9 201.95 197.75 185.6 184.1 185.6 162.55 185.6 151.7 190.0 141.8 194.2 132.25 201.95 124.85 209.7 117.45 219.7 113.45 230.05 109.25 241.45 109.25 252.8 109.25 263.15 113.45 273.2 117.45 280.95 124.85 288.65 132.25 292.9 141.8 297.3 151.7 297.3 162.55" fill="url(#gradient1)" fill-rule="evenodd" stroke="none"/>
    <path d="M258.25 148.1 L256.6 145.75 284.55 140.7 287.25 145.4 258.25 148.1" fill="#ff6648" fill-rule="evenodd" stroke="none"/>
    <path d="M268.4 160.1 Q268.4 161.4 267.8 162.35 267.2 163.3 266.4 163.3 265.55 163.3 264.95 162.35 264.3 161.4 264.3 160.1 264.3 158.75 264.95 157.8 265.55 156.85 266.4 156.85 267.2 156.85 267.8 157.8 268.4 158.75 268.4 160.1" fill="#ff6648" fill-rule="evenodd" stroke="none"/>
    <path d="M229.35 148.1 L200.3 145.4 203.0 140.7 231.0 145.75 229.35 148.1" fill="#ff6648" fill-rule="evenodd" stroke="none"/>
    <path d="M219.25 160.1 Q219.25 158.75 219.8 157.8 220.4 156.85 221.25 156.85 222.05 156.85 222.7 157.8 223.25 158.75 223.25 160.1 223.25 161.4 222.7 162.35 222.05 163.3 221.25 163.3 220.4 163.3 219.8 162.35 219.25 161.4 219.25 160.1" fill="#ff6648" fill-rule="evenodd" stroke="none"/>
    <path d="M240.45 182.25 L240.25 184.4 Q240.75 186.5 244.25 186.5 247.8 186.5 248.45 184.55 L248.35 182.6 250.75 182.4 250.8 183.5 Q250.8 184.85 250.4 185.9 249.05 189.4 244.15 189.4 239.25 189.4 238.2 185.85 237.85 184.7 237.95 183.4 L238.1 182.25 240.45 182.25" fill="#ff6648" fill-rule="evenodd" stroke="none"/>
    <path d="M200.9 172.85 L204.1 170.0 204.1 177.3 200.9 172.85" fill="#ff8666" fill-rule="evenodd" stroke="none"/>
    <path d="M206.1 170.0 L210.2 171.2 207.35 177.3 206.1 170.0" fill="#ff8666" fill-rule="evenodd" stroke="none"/>
    <path d="M276.85 172.05 L281.3 170.8 279.25 178.1 276.85 172.05" fill="#ff8666" fill-rule="evenodd" stroke="none"/>
    <path d="M281.3 178.5 L283.3 172.05 285.75 174.05 281.3 178.5" fill="#ff8666" fill-rule="evenodd" stroke="none"/>
    <path d="M247.3 233.15 L246.3 233.1 Q242.25 233.3 240.5 237.1 239.65 239.05 239.6 240.9 L235.05 241.25 235.55 228.65 256.4 228.25 257.25 241.8 253.05 241.9 Q252.75 236.2 249.5 234.05 248.5 233.4 247.3 233.15" fill="#1776ff" fill-rule="evenodd" stroke="none"/>
    <path d="M297.35 144.4 Q293.3 136.55 285.85 128.8 267.35 109.45 241.15 109.7 214.9 110.0 197.5 128.65 188.8 138.05 185.35 147.35 185.9 142.95 185.9 138.2 185.9 128.65 183.15 126.6 L187.15 125.8 Q191.25 125.2 191.5 126.45 192.65 121.45 194.25 116.25 197.6 105.8 200.15 104.45 L201.65 108.0 Q203.9 111.4 207.6 110.4 213.85 105.7 222.05 100.55 238.55 90.25 248.75 88.1 L247.95 90.3 Q247.15 92.9 247.25 95.0 247.6 101.75 256.85 100.8 L269.0 98.15 Q281.85 95.45 285.25 95.6 282.65 100.2 281.15 105.0 278.1 114.65 283.5 115.9 L291.15 115.8 Q299.35 116.1 302.2 117.95 297.8 118.2 295.25 122.05 290.6 128.95 297.35 144.4" fill="#ff6648" fill-rule="evenodd" stroke="none"/>
    <path d="M222.2 158.95 L221.9 159.7 221.15 159.95 220.4 159.7 220.15 158.95 Q220.15 158.5 220.4 158.2 220.7 157.9 221.15 157.9 221.55 157.9 221.9 158.2 L222.2 158.95" fill="#fffdfd" fill-rule="evenodd" stroke="none"/>
    <path d="M267.55 158.8 L267.25 159.6 Q266.9 159.95 266.4 159.95 265.95 159.95 265.6 159.6 265.25 159.3 265.25 158.8 265.25 158.35 265.6 158.0 265.95 157.65 266.4 157.65 266.9 157.65 267.25 158.0 L267.55 158.8" fill="#fffdfd" fill-rule="evenodd" stroke="none"/>
    <path d="M238.0 172.2 L244.1 164.6 250.75 171.7 Q249.15 172.8 246.75 173.35 242.0 174.55 238.0 172.2" fill="#fcca65" fill-rule="evenodd" stroke="none"/>
    <path d="M272.9 216.9 Q271.85 218.65 269.4 224.65 267.35 229.6 265.85 233.65 L264.85 237.65 263.55 242.35 Q261.4 247.9 256.75 248.45 L270.4 210.25 273.35 211.3 273.7 213.1 Q273.9 215.2 272.9 216.9 Z" fill="none" stroke="#ffffff" stroke-linecap="butt" stroke-linejoin="round" stroke-width="1.0"/>
    <path d="M271.85 207.5 L275.05 208.65 275.4 209.05 275.35 209.8 275.15 210.45 274.7 211.0 274.15 211.1 270.95 209.95 270.6 209.55 Q270.5 209.2 270.65 208.8 L270.9 208.15 Q271.0 207.8 271.3 207.6 L271.85 207.5 Z" fill="none" stroke="#ffffff" stroke-linecap="butt" stroke-linejoin="round" stroke-width="1.0"/>
    <path d="M272.85 204.65 L276.05 205.8 276.45 206.25 276.4 207.0 276.15 207.6 275.75 208.15 275.2 208.25 271.95 207.1 271.65 206.7 271.65 205.95 271.9 205.35 Q272.3 204.45 272.85 204.65 Z" fill="none" stroke="#ffffff" stroke-linecap="butt" stroke-linejoin="round" stroke-width="1.0"/>
    <path d="M272.7 203.8 Q272.55 203.5 272.7 203.1 L272.95 202.45 273.4 201.85 273.9 201.75 277.15 202.95 Q277.4 203.0 277.45 203.35 L277.45 204.05 277.2 204.65 Q276.8 205.55 276.25 205.4 L273.05 204.2 272.7 203.8 Z" fill="none" stroke="#ffffff" stroke-linecap="butt" stroke-linejoin="round" stroke-width="1.0"/>
    <path d="M278.15 200.1 L278.5 200.55 278.45 201.25 278.25 201.85 277.8 202.45 277.25 202.55 274.05 201.4 273.7 200.95 273.75 200.25 274.0 199.65 274.4 199.05 274.95 198.95 278.15 200.1 Z" fill="none" stroke="#ffffff" stroke-linecap="butt" stroke-linejoin="round" stroke-width="1.0"/>
    <path d="M274.4 198.0 L280.0 200.0 Q281.1 197.9 280.5 197.4 280.05 197.0 277.9 196.15 275.7 195.4 275.5 195.6 275.25 195.75 274.85 196.95 L274.4 198.0 Z" fill="none" stroke="#ffffff" stroke-linecap="butt" stroke-linejoin="round" stroke-width="1.0"/>
    <path d="M285.1 174.85 L277.7 195.35 276.6 195.4 Q275.65 195.1 275.8 194.7 L283.25 174.15 Q283.4 173.75 284.3 174.15 285.25 174.45 285.1 174.85 Z" fill="none" stroke="#ffffff" stroke-linecap="butt" stroke-linejoin="round" stroke-width="1.0"/>
    <path d="M285.95 200.1 Q285.7 200.2 285.35 199.5" fill="none" stroke="#ffffff" stroke-linecap="butt" stroke-linejoin="round" stroke-width="1.0"/>
    <path d="M285.35 199.5 L283.2 197.7 Q280.0 195.35 277.9 195.6 L285.45 174.7 289.15 175.8 Q292.95 176.85 293.6 176.3 292.7 177.25 291.6 177.0 L293.05 178.0 291.35 177.95 292.45 179.05 290.95 179.05 292.55 180.7 290.6 180.2 291.7 182.1 290.1 181.6 291.25 183.15 289.3 183.15 290.75 184.6 288.8 184.5 290.45 186.2 288.4 186.0 289.9 187.55 287.75 188.1 289.25 189.35 287.5 189.1 289.1 190.5 286.8 190.5 288.05 192.2 286.65 192.15 287.9 193.5 286.3 193.1 287.6 194.85 285.65 194.65 287.1 196.7 284.95 195.9 286.5 197.6 284.65 197.0 285.35 199.5" fill="none" stroke="#ffffff" stroke-linecap="round" stroke-linejoin="round" stroke-width="1.0"/>
    <path d="M278.3 195.1 L280.3 195.5 Q282.6 196.3 284.4 198.2 L283.0 196.4 Q281.1 194.5 278.75 194.1 L278.3 195.1 Z" fill="none" stroke="#ffffff" stroke-linecap="butt" stroke-linejoin="round" stroke-width="1.0"/>
    <path d="M291.0 176.85 Q288.8 176.85 285.4 175.75 L285.55 175.05 288.55 176.05 Q291.7 176.9 292.55 176.6 L291.0 176.85 Z" fill="none" stroke="#ffffff" stroke-linecap="butt" stroke-linejoin="round" stroke-width="1.0"/>
    <path d="M286.15 195.9 L279.15 193.35 279.65 191.8 286.15 195.9 Z" fill="none" stroke="#ffffff" stroke-linecap="butt" stroke-linejoin="round" stroke-width="1.0"/>
    <path d="M285.15 196.85 L284.25 196.5" fill="none" stroke="#ffffff" stroke-linecap="butt" stroke-linejoin="round" stroke-width="1.0"/>
    <path d="M284.25 196.5 L278.75 194.1 279.2 193.15 284.25 196.5" fill="none" stroke="#ffffff" stroke-linecap="round" stroke-linejoin="round" stroke-width="1.0"/>
    <path d="M291.45 179.95 L291.25 179.85" fill="none" stroke="#ffffff" stroke-linecap="butt" stroke-linejoin="round" stroke-width="1.0"/>
    <path d="M291.25 179.85 L287.6 179.05 284.35 178.55 285.4 175.75 Q285.3 176.2 288.35 178.15 L291.25 179.85" fill="none" stroke="#ffffff" stroke-linecap="round" stroke-linejoin="round" stroke-width="1.0"/>
    <path d="M288.95 177.35 Q286.15 175.95 286.45 175.65 L285.5 175.4 285.25 177.25 288.3 177.9 291.8 178.75 288.95 177.35 Z" fill="none" stroke="#ffffff" stroke-linecap="butt" stroke-linejoin="round" stroke-width="1.0"/>
    <path d="M279.5 194.6 L279.9 193.1 282.1 194.3 Q284.4 195.55 284.55 195.95 L282.3 195.0 Q279.9 194.15 279.5 194.6 Z" fill="none" stroke="#ffffff" stroke-linecap="butt" stroke-linejoin="round" stroke-width="1.0"/>
    <path d="M287.75 179.75 Q284.65 178.4 284.2 179.2 L284.95 177.15 Q290.75 180.55 290.75 181.2 L287.75 179.75 Z" fill="none" stroke="#ffffff" stroke-linecap="butt" stroke-linejoin="round" stroke-width="1.0"/>
    <path d="M284.5 178.3 L282.75 183.55 290.2 182.7 287.65 180.35 Q284.95 178.05 284.5 178.3 Z" fill="none" stroke="#ffffff" stroke-linecap="butt" stroke-linejoin="round" stroke-width="1.0"/>
    <path d="M289.05 180.95 L285.9 178.3 286.7 180.3 287.75 180.5 Q288.8 180.7 289.05 180.95 Z" fill="none" stroke="#ffffff" stroke-linecap="butt" stroke-linejoin="round" stroke-width="1.0"/>
    <path d="M288.25 185.4 L286.9 185.35 289.2 187.3 285.9 187.6 Q288.25 188.65 288.35 188.95 L286.95 188.7 285.35 188.8 288.3 190.1 284.95 189.9 287.25 191.65 285.55 191.4 287.05 192.9 285.2 192.6 286.85 194.4 283.75 194.35 279.6 191.9 283.4 181.25 Q289.45 183.2 289.6 184.05 L288.8 183.75 Q287.9 183.6 287.7 184.2 L288.45 184.8 289.45 185.75 288.25 185.4 Z" fill="none" stroke="#ffffff" stroke-linecap="butt" stroke-linejoin="round" stroke-width="1.0"/>
    <path d="M272.9 216.9 Q271.85 218.65 269.4 224.65 267.35 229.6 265.85 233.65 L264.85 237.65 263.55 242.35 Q261.4 247.9 256.75 248.45 L270.4 210.25 273.35 211.3 273.7 213.1 Q273.9 215.2 272.9 216.9" fill="#93d850" fill-rule="evenodd" stroke="none"/>
    <path d="M271.85 207.5 L275.05 208.65 275.4 209.05 275.35 209.8 275.15 210.45 274.7 211.0 274.15 211.1 270.95 209.95 270.6 209.55 Q270.5 209.2 270.65 208.8 L270.9 208.15 Q271.0 207.8 271.3 207.6 L271.85 207.5" fill="#1776ff" fill-rule="evenodd" stroke="none"/>
    <path d="M272.85 204.65 L276.05 205.8 276.45 206.25 276.4 207.0 276.15 207.6 275.75 208.15 275.2 208.25 271.95 207.1 271.65 206.7 271.65 205.95 271.9 205.35 Q272.3 204.45 272.85 204.65" fill="#1776ff" fill-rule="evenodd" stroke="none"/>
    <path d="M272.7 203.8 Q272.55 203.5 272.7 203.1 L272.95 202.45 273.4 201.85 273.9 201.75 277.15 202.95 Q277.4 203.0 277.45 203.35 L277.45 204.05 277.2 204.65 Q276.8 205.55 276.25 205.4 L273.05 204.2 272.7 203.8" fill="#1776ff" fill-rule="evenodd" stroke="none"/>
    <path d="M278.15 200.1 L278.5 200.55 278.45 201.25 278.25 201.85 277.8 202.45 277.25 202.55 274.05 201.4 273.7 200.95 273.75 200.25 274.0 199.65 274.4 199.05 274.95 198.95 278.15 200.1" fill="#1776ff" fill-rule="evenodd" stroke="none"/>
    <path d="M274.4 198.0 L274.85 196.95 Q275.25 195.75 275.5 195.6 275.7 195.4 277.9 196.15 280.05 197.0 280.5 197.4 281.1 197.9 280.0 200.0 L274.4 198.0" fill="#93d850" fill-rule="evenodd" stroke="none"/>
    <path d="M285.1 174.85 L277.7 195.35 276.6 195.4 Q275.65 195.1 275.8 194.7 L283.25 174.15 Q283.4 173.75 284.3 174.15 285.25 174.45 285.1 174.85" fill="#93d850" fill-rule="evenodd" stroke="none"/>
    <path d="M291.6 177.0 L293.05 178.0 291.35 177.95 292.45 179.05 290.95 179.05 292.55 180.7 290.6 180.2 291.7 182.1 290.1 181.6 291.25 183.15 289.3 183.15 290.75 184.6 288.8 184.5 290.45 186.2 288.4 186.0 289.9 187.55 287.75 188.1 289.25 189.35 287.5 189.1 289.1 190.5 286.8 190.5 288.05 192.2 286.65 192.15 287.9 193.5 286.3 193.1 287.6 194.85 285.65 194.65 287.1 196.7 284.95 195.9 286.5 197.6 284.65 197.0 285.35 199.5 283.2 197.7 Q280.0 195.35 277.9 195.6 L285.45 174.7 289.15 175.8 Q292.95 176.85 293.6 176.3 292.7 177.25 291.6 177.0" fill="#ffebb3" fill-rule="evenodd" stroke="none"/>
    <path d="M278.3 195.1 L278.75 194.1 Q281.1 194.5 283.0 196.4 L284.4 198.2 Q282.6 196.3 280.3 195.5 L278.3 195.1" fill="#ffd984" fill-rule="evenodd" stroke="none"/>
    <path d="M291.0 176.85 Q288.8 176.85 285.4 175.75 L285.55 175.05 288.55 176.05 Q291.7 176.9 292.55 176.6 L291.0 176.85" fill="#ffd984" fill-rule="evenodd" stroke="none"/>
    <path d="M286.15 195.9 L279.15 193.35 279.65 191.8 286.15 195.9" fill="#ffd984" fill-rule="evenodd" stroke="none"/>
    <path d="M284.25 196.5 L278.75 194.1 279.2 193.15 284.25 196.5" fill="#ffd984" fill-rule="evenodd" stroke="none"/>
    <path d="M288.35 178.15 L291.25 179.85 287.6 179.05 284.35 178.55 285.4 175.75 Q285.3 176.2 288.35 178.15" fill="#ffd984" fill-rule="evenodd" stroke="none"/>
    <path d="M288.95 177.35 L291.8 178.75 288.3 177.9 285.25 177.25 285.5 175.4 286.45 175.65 Q286.15 175.95 288.95 177.35" fill="#ffd984" fill-rule="evenodd" stroke="none"/>
    <path d="M279.5 194.6 L279.9 193.1 282.1 194.3 Q284.4 195.55 284.55 195.95 L282.3 195.0 Q279.9 194.15 279.5 194.6" fill="#ffd984" fill-rule="evenodd" stroke="none"/>
    <path d="M287.75 179.75 Q284.65 178.4 284.2 179.2 L284.95 177.15 Q290.75 180.55 290.75 181.2 L287.75 179.75" fill="#ffd984" fill-rule="evenodd" stroke="none"/>
    <path d="M284.5 178.3 Q284.95 178.05 287.65 180.35 L290.2 182.7 282.75 183.55 284.5 178.3" fill="#ffd984" fill-rule="evenodd" stroke="none"/>
    <path d="M289.05 180.95 Q288.8 180.7 287.75 180.5 L286.7 180.3 285.9 178.3 289.05 180.95" fill="#ffd984" fill-rule="evenodd" stroke="none"/>
    <path d="M288.25 185.4 L286.9 185.35 289.2 187.3 285.9 187.6 Q288.25 188.65 288.35 188.95 L286.95 188.7 285.35 188.8 288.3 190.1 284.95 189.9 287.25 191.65 285.55 191.4 287.05 192.9 285.2 192.6 286.85 194.4 283.75 194.35 279.6 191.9 283.4 181.25 Q289.45 183.2 289.6 184.05 L288.8 183.75 Q287.9 183.6 287.7 184.2 L288.45 184.8 289.45 185.75 288.25 185.4" fill="#ffd984" fill-rule="evenodd" stroke="none"/>
    <path d="M285.7 195.9 L295.8 195.9 302.05 186.45" fill="none" stroke="#4aa1ff" stroke-linecap="butt" stroke-linejoin="miter-clip" stroke-miterlimit="4.0" stroke-width="5.0"/>
    <path d="M288.9 195.9 Q288.9 197.25 287.95 198.2 287.0 199.1 285.7 199.1 284.35 199.1 283.4 198.2 282.5 197.25 282.5 195.9 282.5 194.6 283.4 193.65 284.35 192.7 285.7 192.7 287.0 192.7 287.95 193.65 288.9 194.6 288.9 195.9" fill="#4aa1ff" fill-rule="evenodd" stroke="none"/>
    <path d="M287.5 195.9 Q287.5 196.65 286.95 197.2 286.4 197.7 285.7 197.7 284.95 197.7 284.4 197.2 283.9 196.65 283.9 195.9 283.9 195.15 284.4 194.6 284.95 194.1 285.7 194.1 286.4 194.1 286.95 194.6 287.5 195.15 287.5 195.9" fill="#ffffff" fill-rule="evenodd" stroke="none"/>
    <path d="M321.2 141.95 L352.7 202.55 Q353.25 203.7 350.55 205.15 347.8 206.6 347.2 205.45 L315.7 144.75 Q315.1 143.6 317.85 142.2 320.6 140.8 321.2 141.95" fill="#93d850" fill-rule="evenodd" stroke="none"/>
    <path d="M353.4 145.55 L349.2 149.95 355.6 149.7 351.3 153.9 358.75 153.7 353.95 157.9 360.65 157.8 357.35 164.0 363.4 163.15 359.1 166.8 365.7 165.9 360.8 171.2 367.45 172.0 364.25 175.05 370.2 175.1 365.75 177.95 372.55 178.65 367.95 182.75 375.75 183.7 369.35 187.05 376.6 186.95 371.2 190.05 375.9 192.5 378.85 193.7 381.15 193.6 378.85 193.7 369.7 194.85 Q357.45 197.2 353.7 202.5 L321.7 140.85 332.05 134.7 Q342.35 128.15 342.7 125.55 L342.45 127.8 Q341.8 130.35 340.0 131.65 L345.2 130.35 341.6 134.2 346.5 133.9 343.35 137.5 350.5 137.15 345.3 140.75 351.9 142.05 347.35 144.7 353.4 145.55" fill="#ffebb3" fill-rule="evenodd" stroke="none"/>
    <path d="M325.1 143.6 L323.85 141.8 332.4 136.95 Q341.2 131.55 342.2 128.9 341.85 130.45 339.5 133.0 334.85 138.2 325.1 143.6" fill="#ffd984" fill-rule="evenodd" stroke="none"/>
    <path d="M372.0 184.3 L351.1 195.0 348.6 190.5 372.0 184.3" fill="#ffd984" fill-rule="evenodd" stroke="none"/>
    <path d="M346.0 138.4 Q343.55 139.35 336.2 145.1 L328.2 151.55 323.95 143.2 Q324.7 144.35 335.7 141.4 L346.0 138.4" fill="#ffd984" fill-rule="evenodd" stroke="none"/>
    <path d="M327.05 146.65 L323.45 142.3 325.9 140.55 Q325.85 141.8 335.15 138.45 L344.45 134.85 Q343.15 135.5 335.0 141.15 L327.05 146.65" fill="#ffd984" fill-rule="evenodd" stroke="none"/>
    <path d="M336.45 144.4 Q346.95 141.7 347.85 142.6 342.9 144.15 338.1 146.3 328.5 150.55 329.4 153.25 L326.15 147.25 336.45 144.4" fill="#ffd984" fill-rule="evenodd" stroke="none"/>
    <path d="M342.5 156.45 L336.2 165.85 327.9 150.65 Q328.2 149.05 339.2 147.8 L350.1 146.9 Q348.95 147.05 342.5 156.45" fill="#ffd984" fill-rule="evenodd" stroke="none"/>
    <path d="M330.85 147.45 L343.7 145.75 Q342.65 145.95 339.9 147.8 L337.1 149.8 330.85 147.45" fill="#ffd984" fill-rule="evenodd" stroke="none"/>
    <path d="M341.35 154.8 Q350.6 150.2 351.9 151.0 350.65 151.5 349.55 152.35 347.35 154.05 348.3 155.85 L351.2 155.35 355.45 155.15 352.15 157.2 Q348.95 159.45 349.3 160.1 L358.55 159.05 352.25 167.2 356.05 165.65 Q359.95 164.15 360.55 164.4 L357.05 167.1 Q353.6 170.0 353.9 170.95 L363.1 166.9 355.5 174.35 364.6 172.7 360.3 176.2 366.95 175.75 362.25 179.4 370.05 179.35 363.35 186.5 348.8 190.85 332.35 159.5 341.35 154.8" fill="#ffd984" fill-rule="evenodd" stroke="none"/>
    <path d="M344.3 126.5 Q327.8 126.5 316.1 138.15 304.45 149.8 304.45 166.3 304.45 182.8 316.1 194.5 327.8 206.15 344.3 206.15 360.8 206.15 372.5 194.5 384.15 182.8 384.15 166.3 384.15 149.8 372.5 138.15 360.8 126.5 344.3 126.5 M381.35 129.3 Q388.6 136.5 392.6 145.95 396.7 155.65 396.7 166.3 396.7 176.95 392.6 186.7 388.6 196.1 381.35 203.35 374.1 210.6 364.7 214.6 354.95 218.7 344.3 218.7 333.6 218.7 323.9 214.6 314.5 210.6 307.25 203.35 300.0 196.1 296.0 186.7 291.9 176.95 291.9 166.3 291.9 155.65 296.0 145.95 300.0 136.5 307.25 129.3 314.5 122.05 323.9 118.05 333.6 113.95 344.3 113.95 354.95 113.95 364.7 118.05 374.1 122.05 381.35 129.3" fill="#4aa1ff" fill-rule="evenodd" stroke="none"/>
    <path d="M363.3 210.95 L363.3 224.4 329.45 224.4 329.45 210.95 363.3 210.95" fill="#4aa1ff" fill-rule="evenodd" stroke="none"/>
  </g>
  <defs>
    <linearGradient gradientTransform="matrix(0.0, 0.0252, 0.0252, 0.0, 246.3, 226.25)" gradientUnits="userSpaceOnUse" id="gradient0" spreadMethod="pad" x1="-819.2" x2="819.2">
      <stop offset="0.30980392156862746" stop-color="#ffebb3"/>
      <stop offset="1.0" stop-color="#ffd373"/>
    </linearGradient>
    <linearGradient gradientTransform="matrix(0.0, 0.0884, 0.0884, 0.0, 241.45, 160.15)" gradientUnits="userSpaceOnUse" id="gradient1" spreadMethod="pad" x1="-819.2" x2="819.2">
      <stop offset="0.30980392156862746" stop-color="#ffebb3"/>
      <stop offset="1.0" stop-color="#ffd373"/>
    </linearGradient>
  </defs>
</svg>
