<?xml version="1.0" encoding="UTF-8" standalone="no"?>
<svg xmlns:xlink="http://www.w3.org/1999/xlink" height="94.6px" width="250.8px" xmlns="http://www.w3.org/2000/svg">
  <g transform="matrix(1.0, 0.0, 0.0, 1.0, -7.3, -0.65)">
    <g transform="matrix(1.0, 0.0, 0.0, 1.0, 0.0, 0.0)">
      <use fill="#ffffff" height="94.6" transform="matrix(0.0426, 0.0, 0.0, 0.0426, 21.8, 35.0)" width="250.8" xlink:href="#font_DFPTongTong-B5__1"/>
      <use fill="#ffffff" height="94.6" transform="matrix(0.0426, 0.0, 0.0, 0.0426, 65.4, 35.0)" width="250.8" xlink:href="#font_DFPTongTong-B5__2"/>
      <use fill="#ffffff" height="94.6" transform="matrix(0.0426, 0.0, 0.0, 0.0426, 109.0, 35.0)" width="250.8" xlink:href="#font_DFPTongTong-B5__3"/>
      <use fill="#ffffff" height="94.6" transform="matrix(0.0426, 0.0, 0.0, 0.0426, 152.6, 35.0)" width="250.8" xlink:href="#font_DFPTongTong-B5__4"/>
      <use fill="#ffffff" height="94.6" transform="matrix(0.0426, 0.0, 0.0, 0.0426, 196.2, 35.0)" width="250.8" xlink:href="#font_DFPTongTong-B5__5"/>
    </g>
    <g transform="matrix(1.0, 0.0, 0.0, 1.0, 0.0, 0.0)">
      <use fill="#ffffff" height="94.6" transform="matrix(0.0426, 0.0, 0.0, 0.0426, 0.0, 87.0)" width="250.8" xlink:href="#font_DFPTongTong-B5__6"/>
      <use fill="#ffffff" height="94.6" transform="matrix(0.0426, 0.0, 0.0, 0.0426, 43.6, 87.0)" width="250.8" xlink:href="#font_DFPTongTong-B5__6"/>
      <use fill="#ffffff" height="94.6" transform="matrix(0.0426, 0.0, 0.0, 0.0426, 87.2, 87.0)" width="250.8" xlink:href="#font_DFPTongTong-B5__7"/>
      <use fill="#ffffff" height="94.6" transform="matrix(0.0426, 0.0, 0.0, 0.0426, 130.8, 87.0)" width="250.8" xlink:href="#font_DFPTongTong-B5__8"/>
      <use fill="#ffffff" height="94.6" transform="matrix(0.0426, 0.0, 0.0, 0.0426, 174.4, 87.0)" width="250.8" xlink:href="#font_DFPTongTong-B5__9"/>
      <use fill="#ffffff" height="94.6" transform="matrix(0.0426, 0.0, 0.0, 0.0426, 218.0, 87.0)" width="250.8" xlink:href="#font_DFPTongTong-B5__10"/>
    </g>
  </g>
  <defs>
    <g id="font_DFPTongTong-B5__1">
      <path d="M783.0 -620.0 L783.0 -620.0 Q776.0 -620.0 776.0 -616.0 777.0 -605.0 799.0 -584.0 813.0 -572.0 824.0 -561.0 856.0 -536.0 884.0 -536.0 902.0 -536.0 902.0 -549.0 902.0 -572.0 852.0 -601.0 806.0 -620.0 783.0 -620.0 L783.0 -620.0 M499.0 -681.0 L499.0 -681.0 Q453.0 -668.0 312.0 -612.0 189.0 -564.0 134.0 -536.0 119.0 -532.0 119.0 -524.0 119.0 -520.0 128.0 -520.0 239.0 -536.0 342.0 -580.0 430.0 -608.0 503.0 -664.0 509.0 -668.0 512.0 -677.0 508.0 -681.0 499.0 -681.0 L499.0 -681.0 M647.0 -341.0 L647.0 -341.0 Q536.0 -337.0 417.0 -333.0 385.0 -333.0 355.0 -328.0 350.0 -373.0 343.0 -404.0 327.0 -469.0 317.0 -469.0 315.0 -465.0 315.0 -461.0 321.0 -389.0 325.0 -328.0 244.0 -324.0 188.0 -320.0 142.0 -308.0 138.0 -304.0 140.0 -289.0 239.0 -289.0 278.0 -289.0 327.0 -289.0 334.0 -192.0 336.0 -112.0 329.0 -108.0 322.0 -104.0 219.0 -64.0 174.0 -41.0 161.0 -33.0 161.0 -28.0 161.0 -24.0 169.0 -24.0 256.0 -37.0 337.0 -77.0 339.0 -33.0 339.0 3.0 339.0 32.0 330.0 40.0 323.0 40.0 323.0 47.0 325.0 51.0 331.0 51.0 344.0 56.0 358.0 56.0 383.0 51.0 383.0 20.0 383.0 -12.0 378.0 -72.0 377.0 -81.0 377.0 -92.0 431.0 -117.0 478.0 -152.0 484.0 -156.0 486.0 -165.0 484.0 -169.0 476.0 -169.0 446.0 -161.0 375.0 -129.0 371.0 -184.0 367.0 -232.0 364.0 -264.0 360.0 -293.0 374.0 -293.0 388.0 -293.0 544.0 -297.0 651.0 -304.0 664.0 -196.0 693.0 -108.0 700.0 -88.0 708.0 -68.0 646.0 -20.0 614.0 3.0 610.0 7.0 610.0 16.0 612.0 20.0 618.0 20.0 677.0 -4.0 724.0 -33.0 772.0 60.0 848.0 72.0 888.0 72.0 890.0 43.0 890.0 36.0 884.0 36.0 871.0 43.0 852.0 43.0 799.0 28.0 758.0 -56.0 814.0 -104.0 840.0 -144.0 846.0 -156.0 846.0 -165.0 840.0 -165.0 833.0 -161.0 799.0 -136.0 742.0 -96.0 738.0 -104.0 735.0 -112.0 709.0 -213.0 692.0 -308.0 791.0 -316.0 836.0 -328.0 852.0 -333.0 852.0 -341.0 852.0 -345.0 829.0 -345.0 758.0 -345.0 686.0 -341.0 675.0 -421.0 670.0 -492.0 668.0 -517.0 664.0 -540.0 659.0 -564.0 655.0 -564.0 651.0 -564.0 642.0 -480.0 642.0 -408.0 647.0 -341.0 L647.0 -341.0" fill-rule="evenodd" stroke="none"/>
    </g>
    <g id="font_DFPTongTong-B5__2">
      <path d="M309.0 -601.0 L309.0 -601.0 Q305.0 -601.0 296.0 -589.0 255.0 -549.0 188.0 -469.0 112.0 -368.0 93.0 -333.0 93.0 -324.0 97.0 -324.0 101.0 -324.0 108.0 -328.0 156.0 -352.0 217.0 -433.0 303.0 -536.0 313.0 -589.0 313.0 -601.0 309.0 -601.0 L309.0 -601.0 M330.0 -64.0 L330.0 -64.0 Q335.0 -72.0 339.0 -85.0 351.0 -129.0 354.0 -188.0 354.0 -236.0 290.0 -253.0 237.0 -260.0 205.0 -260.0 198.0 -260.0 194.0 -257.0 184.0 -276.0 180.0 -276.0 176.0 -276.0 176.0 -264.0 176.0 -228.0 178.0 -200.0 182.0 -161.0 190.0 -108.0 199.0 -68.0 207.0 -48.0 218.0 -33.0 224.0 -33.0 228.0 -33.0 232.0 -41.0 233.0 -45.0 234.0 -45.0 239.0 -45.0 244.0 -45.0 272.0 -37.0 296.0 -37.0 340.0 -37.0 342.0 -52.0 342.0 -60.0 330.0 -64.0 L330.0 -64.0 M309.0 -132.0 L309.0 -132.0 Q308.0 -108.0 306.0 -81.0 306.0 -72.0 307.0 -68.0 283.0 -68.0 253.0 -68.0 245.0 -68.0 239.0 -68.0 237.0 -81.0 230.0 -117.0 229.0 -121.0 227.0 -129.0 245.0 -125.0 269.0 -125.0 291.0 -125.0 309.0 -132.0 L309.0 -132.0 M202.0 -236.0 L202.0 -236.0 Q204.0 -236.0 207.0 -232.0 247.0 -220.0 293.0 -213.0 311.0 -209.0 311.0 -192.0 311.0 -176.0 311.0 -156.0 305.0 -156.0 299.0 -156.0 283.0 -156.0 264.0 -156.0 253.0 -156.0 229.0 -152.0 226.0 -152.0 223.0 -152.0 217.0 -180.0 211.0 -209.0 207.0 -224.0 202.0 -236.0 L202.0 -236.0 M575.0 -469.0 L575.0 -469.0 Q588.0 -465.0 605.0 -456.0 660.0 -440.0 742.0 -425.0 787.0 -417.0 836.0 -408.0 867.0 -400.0 870.0 -381.0 874.0 -320.0 876.0 -253.0 878.0 -184.0 880.0 -104.0 880.0 28.0 847.0 40.0 847.0 47.0 852.0 47.0 869.0 56.0 888.0 56.0 921.0 40.0 921.0 -200.0 921.0 -320.0 913.0 -385.0 905.0 -440.0 812.0 -461.0 756.0 -469.0 691.0 -473.0 631.0 -480.0 584.0 -484.0 618.0 -549.0 632.0 -616.0 632.0 -620.0 631.0 -620.0 629.0 -620.0 626.0 -616.0 578.0 -557.0 528.0 -473.0 489.0 -389.0 458.0 -304.0 458.0 -301.0 460.0 -301.0 462.0 -301.0 464.0 -301.0 518.0 -360.0 554.0 -433.0 565.0 -448.0 575.0 -469.0 L575.0 -469.0 M592.0 -140.0 L592.0 -140.0 Q584.0 -140.0 584.0 -136.0 586.0 -125.0 607.0 -108.0 622.0 -96.0 634.0 -88.0 666.0 -64.0 693.0 -64.0 716.0 -64.0 716.0 -77.0 716.0 -96.0 664.0 -121.0 615.0 -140.0 592.0 -140.0 L592.0 -140.0" fill-rule="evenodd" stroke="none"/>
    </g>
    <g id="font_DFPTongTong-B5__3">
      <path d="M335.0 -284.0 L335.0 -284.0 Q337.0 -293.0 337.0 -301.0 337.0 -337.0 323.0 -404.0 315.0 -440.0 303.0 -469.0 295.0 -480.0 291.0 -480.0 287.0 -480.0 287.0 -465.0 289.0 -385.0 291.0 -345.0 293.0 -308.0 303.0 -289.0 304.0 -289.0 305.0 -284.0 291.0 -284.0 275.0 -284.0 147.0 -284.0 147.0 -272.0 147.0 -257.0 298.0 -249.0 382.0 -236.0 508.0 -236.0 604.0 -236.0 676.0 -240.0 677.0 -217.0 679.0 -192.0 679.0 -176.0 680.0 -165.0 633.0 -144.0 501.0 -64.0 395.0 -1.0 366.0 36.0 364.0 47.0 364.0 56.0 373.0 56.0 376.0 56.0 474.0 -1.0 555.0 -48.0 640.0 -100.0 681.0 -144.0 688.0 -41.0 688.0 3.0 688.0 68.0 666.0 76.0 662.0 80.0 662.0 84.0 670.0 95.0 694.0 95.0 728.0 87.0 728.0 20.0 728.0 -100.0 714.0 -236.0 714.0 -236.0 714.0 -240.0 864.0 -245.0 865.0 -253.0 865.0 -264.0 827.0 -268.0 790.0 -276.0 714.0 -276.0 713.0 -280.0 712.0 -280.0 707.0 -373.0 697.0 -440.0 675.0 -528.0 662.0 -528.0 657.0 -528.0 657.0 -513.0 657.0 -469.0 666.0 -404.0 668.0 -364.0 673.0 -280.0 503.0 -280.0 335.0 -284.0 L335.0 -284.0 M422.0 -645.0 L422.0 -645.0 Q382.0 -645.0 301.0 -641.0 260.0 -637.0 260.0 -633.0 260.0 -624.0 371.0 -608.0 459.0 -601.0 609.0 -597.0 693.0 -597.0 733.0 -601.0 777.0 -605.0 777.0 -608.0 777.0 -616.0 686.0 -629.0 572.0 -641.0 422.0 -645.0 L422.0 -645.0" fill-rule="evenodd" stroke="none"/>
    </g>
    <g id="font_DFPTongTong-B5__4">
      <path d="M373.0 -37.0 L373.0 -37.0 Q378.0 -48.0 379.0 -56.0 379.0 -92.0 368.0 -100.0 360.0 -100.0 356.0 -81.0 346.0 -60.0 334.0 -41.0 321.0 -16.0 311.0 -1.0 311.0 20.0 318.0 20.0 330.0 16.0 338.0 3.0 356.0 -8.0 365.0 -24.0 373.0 -16.0 383.0 -8.0 402.0 7.0 416.0 7.0 431.0 7.0 431.0 -12.0 431.0 -20.0 409.0 -28.0 388.0 -33.0 373.0 -37.0 L373.0 -37.0 M244.0 -24.0 L244.0 -24.0 Q256.0 -45.0 258.0 -68.0 258.0 -100.0 247.0 -104.0 240.0 -104.0 237.0 -88.0 223.0 -60.0 208.0 -33.0 190.0 -4.0 180.0 20.0 180.0 36.0 187.0 36.0 199.0 32.0 206.0 24.0 224.0 7.0 234.0 -8.0 241.0 -1.0 249.0 3.0 269.0 24.0 283.0 24.0 299.0 24.0 299.0 3.0 299.0 -4.0 274.0 -16.0 258.0 -20.0 244.0 -24.0 L244.0 -24.0 M234.0 -280.0 L234.0 -280.0 Q249.0 -301.0 251.0 -328.0 251.0 -356.0 242.0 -364.0 234.0 -364.0 231.0 -348.0 216.0 -320.0 199.0 -289.0 179.0 -260.0 168.0 -236.0 168.0 -220.0 174.0 -220.0 183.0 -224.0 190.0 -232.0 213.0 -253.0 225.0 -268.0 234.0 -260.0 246.0 -253.0 269.0 -232.0 285.0 -232.0 301.0 -232.0 301.0 -253.0 301.0 -260.0 273.0 -272.0 252.0 -276.0 234.0 -280.0 L234.0 -280.0 M394.0 -293.0 L394.0 -293.0 Q403.0 -308.0 404.0 -328.0 404.0 -360.0 394.0 -368.0 387.0 -368.0 383.0 -348.0 372.0 -328.0 358.0 -301.0 344.0 -272.0 335.0 -257.0 335.0 -236.0 342.0 -236.0 352.0 -240.0 359.0 -253.0 377.0 -264.0 386.0 -280.0 395.0 -268.0 406.0 -260.0 426.0 -236.0 438.0 -236.0 455.0 -236.0 455.0 -257.0 455.0 -268.0 431.0 -280.0 411.0 -289.0 394.0 -293.0 L394.0 -293.0 M883.0 -41.0 L883.0 -41.0 Q897.0 -48.0 914.0 -68.0 940.0 -108.0 940.0 -125.0 940.0 -132.0 933.0 -132.0 913.0 -125.0 890.0 -96.0 866.0 -68.0 859.0 -48.0 822.0 -68.0 791.0 -81.0 783.0 -81.0 783.0 -72.0 805.0 -48.0 845.0 -12.0 887.0 16.0 926.0 16.0 963.0 11.0 963.0 3.0 963.0 -1.0 941.0 -12.0 915.0 -24.0 883.0 -41.0 L883.0 -41.0 M645.0 -404.0 L645.0 -404.0 Q645.0 -429.0 645.0 -456.0 645.0 -488.0 638.0 -488.0 631.0 -488.0 615.0 -345.0 602.0 -180.0 602.0 -72.0 604.0 -8.0 613.0 24.0 625.0 64.0 651.0 68.0 695.0 68.0 725.0 20.0 725.0 11.0 720.0 11.0 675.0 28.0 663.0 28.0 653.0 28.0 649.0 11.0 646.0 -8.0 645.0 -41.0 645.0 -104.0 645.0 -249.0 658.0 -245.0 685.0 -240.0 716.0 -236.0 755.0 -236.0 804.0 -236.0 824.0 -245.0 847.0 -253.0 847.0 -260.0 845.0 -268.0 829.0 -268.0 831.0 -272.0 834.0 -280.0 848.0 -368.0 853.0 -496.0 853.0 -557.0 740.0 -572.0 646.0 -580.0 591.0 -580.0 574.0 -576.0 574.0 -572.0 574.0 -568.0 593.0 -557.0 675.0 -536.0 771.0 -528.0 810.0 -524.0 810.0 -501.0 810.0 -456.0 808.0 -404.0 756.0 -408.0 689.0 -408.0 659.0 -408.0 645.0 -404.0 L645.0 -404.0 M645.0 -268.0 L645.0 -268.0 Q645.0 -324.0 645.0 -389.0 656.0 -385.0 675.0 -381.0 719.0 -373.0 757.0 -373.0 790.0 -373.0 807.0 -377.0 805.0 -333.0 802.0 -276.0 802.0 -272.0 802.0 -268.0 726.0 -268.0 650.0 -268.0 647.0 -268.0 645.0 -268.0 L645.0 -268.0 M282.0 -176.0 L282.0 -176.0 Q257.0 -176.0 231.0 -173.0 214.0 -169.0 214.0 -165.0 214.0 -156.0 243.0 -152.0 276.0 -144.0 311.0 -140.0 378.0 -140.0 410.0 -148.0 443.0 -156.0 443.0 -165.0 443.0 -173.0 403.0 -176.0 336.0 -176.0 282.0 -176.0 L282.0 -176.0 M465.0 72.0 L465.0 72.0 Q447.0 72.0 396.0 80.0 336.0 87.0 264.0 87.0 223.0 87.0 201.0 76.0 185.0 76.0 176.0 51.0 167.0 36.0 158.0 -24.0 145.0 -117.0 134.0 -188.0 119.0 -272.0 108.0 -272.0 103.0 -268.0 103.0 -220.0 103.0 -92.0 125.0 16.0 144.0 80.0 169.0 95.0 184.0 128.0 255.0 128.0 367.0 124.0 421.0 104.0 452.0 95.0 465.0 87.0 467.0 120.0 474.0 120.0 487.0 120.0 500.0 80.0 503.0 11.0 505.0 -64.0 510.0 -180.0 510.0 -196.0 510.0 -260.0 500.0 -260.0 493.0 -260.0 480.0 -228.0 476.0 -176.0 472.0 -88.0 466.0 3.0 465.0 68.0 465.0 68.0 465.0 72.0 L465.0 72.0 M345.0 -572.0 L345.0 -572.0 Q360.0 -568.0 382.0 -568.0 406.0 -568.0 427.0 -576.0 442.0 -584.0 442.0 -589.0 442.0 -593.0 435.0 -593.0 429.0 -597.0 412.0 -601.0 395.0 -601.0 377.0 -601.0 367.0 -601.0 344.0 -597.0 343.0 -624.0 341.0 -656.0 335.0 -696.0 325.0 -733.0 317.0 -757.0 310.0 -757.0 306.0 -757.0 304.0 -744.0 301.0 -712.0 301.0 -696.0 301.0 -660.0 303.0 -620.0 304.0 -576.0 308.0 -524.0 311.0 -496.0 315.0 -480.0 275.0 -480.0 237.0 -484.0 238.0 -484.0 238.0 -488.0 238.0 -509.0 225.0 -549.0 219.0 -572.0 208.0 -589.0 202.0 -597.0 198.0 -597.0 194.0 -597.0 194.0 -580.0 196.0 -536.0 198.0 -513.0 199.0 -496.0 203.0 -484.0 188.0 -484.0 174.0 -484.0 57.0 -484.0 57.0 -473.0 57.0 -461.0 159.0 -452.0 216.0 -440.0 301.0 -440.0 543.0 -440.0 545.0 -456.0 545.0 -469.0 510.0 -473.0 475.0 -476.0 406.0 -476.0 373.0 -480.0 341.0 -480.0 345.0 -496.0 346.0 -513.0 346.0 -536.0 345.0 -572.0 L345.0 -572.0" fill-rule="evenodd" stroke="none"/>
    </g>
    <g id="font_DFPTongTong-B5__5">
      <path d="M842.0 -368.0 L842.0 -368.0 Q843.0 -260.0 844.0 -148.0 844.0 -117.0 835.0 -117.0 835.0 -108.0 853.0 -108.0 868.0 -108.0 876.0 -117.0 885.0 -125.0 885.0 -144.0 885.0 -180.0 886.0 -364.0 886.0 -469.0 886.0 -545.0 882.0 -641.0 820.0 -652.0 794.0 -652.0 766.0 -645.0 763.0 -645.0 761.0 -645.0 761.0 -648.0 761.0 -648.0 761.0 -660.0 757.0 -664.0 746.0 -664.0 719.0 -568.0 700.0 -492.0 700.0 -440.0 702.0 -404.0 727.0 -381.0 749.0 -360.0 778.0 -360.0 818.0 -360.0 842.0 -368.0 L842.0 -368.0 M266.0 -528.0 L266.0 -528.0 Q229.0 -532.0 182.0 -532.0 170.0 -532.0 161.0 -532.0 157.0 -601.0 153.0 -641.0 155.0 -641.0 156.0 -637.0 199.0 -620.0 248.0 -612.0 267.0 -605.0 267.0 -584.0 267.0 -561.0 266.0 -528.0 L266.0 -528.0 M256.0 -408.0 L256.0 -408.0 Q245.0 -408.0 233.0 -408.0 210.0 -408.0 186.0 -404.0 174.0 -404.0 167.0 -404.0 164.0 -465.0 162.0 -509.0 166.0 -509.0 171.0 -509.0 205.0 -501.0 234.0 -501.0 252.0 -501.0 264.0 -505.0 261.0 -465.0 256.0 -417.0 256.0 -412.0 256.0 -408.0 L256.0 -408.0 M167.0 -385.0 L167.0 -385.0 Q172.0 -385.0 178.0 -385.0 206.0 -377.0 240.0 -373.0 278.0 -373.0 293.0 -381.0 311.0 -389.0 311.0 -392.0 311.0 -400.0 285.0 -404.0 289.0 -412.0 292.0 -421.0 309.0 -484.0 315.0 -572.0 315.0 -637.0 247.0 -652.0 188.0 -660.0 154.0 -660.0 152.0 -660.0 151.0 -660.0 151.0 -660.0 151.0 -660.0 144.0 -689.0 138.0 -689.0 130.0 -689.0 127.0 -637.0 125.0 -532.0 125.0 -389.0 130.0 -165.0 151.0 -129.0 155.0 -125.0 159.0 -125.0 169.0 -125.0 174.0 -165.0 171.0 -293.0 167.0 -385.0 L167.0 -385.0 M842.0 -513.0 L842.0 -513.0 Q807.0 -513.0 762.0 -513.0 754.0 -513.0 746.0 -513.0 751.0 -545.0 756.0 -593.0 758.0 -612.0 759.0 -629.0 764.0 -629.0 770.0 -624.0 788.0 -624.0 808.0 -624.0 838.0 -620.0 841.0 -584.0 841.0 -561.0 842.0 -513.0 L842.0 -513.0 M744.0 -488.0 L744.0 -488.0 Q748.0 -488.0 752.0 -488.0 784.0 -480.0 812.0 -480.0 829.0 -480.0 842.0 -484.0 842.0 -444.0 842.0 -396.0 842.0 -392.0 842.0 -389.0 796.0 -389.0 767.0 -404.0 744.0 -417.0 740.0 -440.0 740.0 -448.0 744.0 -488.0 L744.0 -488.0 M473.0 -41.0 L473.0 -41.0 Q468.0 -68.0 463.0 -96.0 459.0 -117.0 454.0 -132.0 457.0 -129.0 460.0 -129.0 503.0 -112.0 552.0 -108.0 572.0 -104.0 572.0 -88.0 572.0 -64.0 572.0 -41.0 539.0 -41.0 498.0 -41.0 483.0 -41.0 473.0 -41.0 L473.0 -41.0 M572.0 56.0 L572.0 56.0 Q540.0 56.0 513.0 56.0 501.0 56.0 488.0 60.0 486.0 40.0 482.0 16.0 480.0 -4.0 477.0 -20.0 481.0 -20.0 487.0 -16.0 520.0 -12.0 548.0 -12.0 561.0 -12.0 572.0 -12.0 571.0 11.0 571.0 43.0 571.0 51.0 572.0 56.0 L572.0 56.0 M489.0 84.0 L489.0 84.0 Q511.0 91.0 531.0 91.0 577.0 91.0 597.0 84.0 620.0 80.0 620.0 68.0 620.0 60.0 600.0 60.0 604.0 51.0 607.0 43.0 617.0 -8.0 621.0 -81.0 621.0 -132.0 551.0 -148.0 493.0 -152.0 458.0 -152.0 451.0 -152.0 446.0 -152.0 436.0 -176.0 432.0 -176.0 429.0 -176.0 429.0 -165.0 429.0 -121.0 431.0 -88.0 434.0 -41.0 442.0 20.0 451.0 68.0 459.0 91.0 471.0 108.0 476.0 108.0 480.0 108.0 484.0 100.0 487.0 91.0 489.0 84.0 L489.0 84.0" fill-rule="evenodd" stroke="none"/>
    </g>
    <g id="font_DFPTongTong-B5__6">
      <path d="M764.0 -668.0 L764.0 -668.0 Q744.0 -668.0 694.0 -633.0 671.0 -616.0 671.0 -605.0 673.0 -597.0 698.0 -593.0 720.0 -597.0 735.0 -616.0 758.0 -641.0 768.0 -664.0 768.0 -668.0 764.0 -668.0 L764.0 -668.0 M177.0 -492.0 L177.0 -492.0 Q172.0 -492.0 172.0 -452.0 172.0 -433.0 173.0 -412.0 176.0 -392.0 178.0 -377.0 181.0 -352.0 185.0 -345.0 201.0 -301.0 218.0 -297.0 223.0 -297.0 225.0 -324.0 225.0 -345.0 214.0 -392.0 206.0 -429.0 191.0 -469.0 182.0 -492.0 177.0 -492.0 L177.0 -492.0 M285.0 -685.0 L285.0 -685.0 Q281.0 -685.0 279.0 -685.0 279.0 -677.0 286.0 -660.0 297.0 -637.0 304.0 -629.0 325.0 -608.0 344.0 -608.0 352.0 -608.0 352.0 -616.0 352.0 -637.0 334.0 -656.0 325.0 -664.0 312.0 -673.0 295.0 -685.0 285.0 -685.0 L285.0 -685.0 M519.0 -492.0 L519.0 -492.0 Q521.0 -501.0 522.0 -513.0 512.0 -668.0 501.0 -700.0 496.0 -725.0 490.0 -725.0 483.0 -725.0 480.0 -677.0 478.0 -641.0 478.0 -593.0 482.0 -520.0 492.0 -496.0 444.0 -496.0 389.0 -496.0 327.0 -488.0 327.0 -484.0 330.0 -469.0 469.0 -465.0 563.0 -456.0 712.0 -452.0 780.0 -448.0 815.0 -436.0 851.0 -429.0 851.0 -404.0 851.0 -385.0 849.0 -373.0 849.0 -345.0 859.0 -345.0 877.0 -345.0 887.0 -373.0 891.0 -392.0 891.0 -412.0 891.0 -448.0 833.0 -473.0 782.0 -488.0 662.0 -492.0 607.0 -492.0 519.0 -492.0 L519.0 -492.0 M502.0 -56.0 L502.0 -56.0 Q497.0 -85.0 485.0 -85.0 478.0 -85.0 478.0 -20.0 478.0 3.0 484.0 28.0 492.0 51.0 502.0 64.0 509.0 76.0 516.0 76.0 523.0 76.0 523.0 68.0 520.0 47.0 513.0 7.0 508.0 -24.0 504.0 -48.0 512.0 -45.0 526.0 -41.0 553.0 -33.0 577.0 -33.0 584.0 -33.0 591.0 -33.0 591.0 -20.0 591.0 -8.0 594.0 40.0 603.0 84.0 614.0 131.0 625.0 152.0 631.0 164.0 639.0 164.0 646.0 160.0 646.0 139.0 646.0 124.0 636.0 51.0 632.0 16.0 629.0 -28.0 649.0 -28.0 674.0 -28.0 705.0 -28.0 705.0 -8.0 703.0 32.0 692.0 47.0 692.0 56.0 713.0 56.0 731.0 56.0 736.0 43.0 738.0 28.0 738.0 -20.0 738.0 -48.0 700.0 -56.0 672.0 -56.0 627.0 -56.0 627.0 -60.0 627.0 -60.0 614.0 -165.0 603.0 -165.0 593.0 -165.0 593.0 -77.0 592.0 -68.0 592.0 -60.0 524.0 -56.0 502.0 -56.0 L502.0 -56.0 M433.0 -304.0 L433.0 -304.0 Q425.0 -333.0 418.0 -328.0 412.0 -328.0 412.0 -289.0 412.0 -249.0 420.0 -217.0 431.0 -180.0 445.0 -180.0 450.0 -184.0 452.0 -192.0 452.0 -196.0 453.0 -196.0 454.0 -196.0 456.0 -196.0 476.0 -192.0 501.0 -188.0 528.0 -188.0 541.0 -196.0 554.0 -200.0 554.0 -205.0 554.0 -209.0 543.0 -213.0 544.0 -213.0 545.0 -217.0 552.0 -224.0 552.0 -236.0 552.0 -257.0 548.0 -289.0 539.0 -312.0 494.0 -312.0 475.0 -312.0 451.0 -308.0 440.0 -308.0 433.0 -304.0 L433.0 -304.0 M453.0 -217.0 L453.0 -217.0 Q454.0 -217.0 454.0 -220.0 454.0 -245.0 438.0 -293.0 444.0 -293.0 453.0 -289.0 L490.0 -289.0 Q511.0 -284.0 512.0 -276.0 516.0 -253.0 517.0 -220.0 517.0 -217.0 518.0 -217.0 508.0 -217.0 497.0 -217.0 479.0 -217.0 462.0 -217.0 457.0 -217.0 453.0 -217.0 L453.0 -217.0" fill-rule="evenodd" stroke="none"/>
    </g>
    <g id="font_DFPTongTong-B5__7">
      <path d="M514.0 -337.0 L514.0 -20.0 Q516.0 -8.0 519.0 -1.0 504.0 -1.0 486.0 3.0 421.0 -1.0 395.0 -8.0 371.0 -12.0 365.0 -28.0 359.0 -41.0 356.0 -60.0 353.0 -92.0 352.0 -112.0 352.0 -173.0 339.0 -173.0 331.0 -169.0 324.0 -121.0 319.0 -88.0 319.0 -37.0 323.0 -1.0 341.0 16.0 364.0 28.0 407.0 32.0 431.0 36.0 520.0 36.0 621.0 32.0 666.0 11.0 681.0 7.0 692.0 -1.0 692.0 -1.0 692.0 3.0 696.0 24.0 701.0 36.0 708.0 47.0 714.0 47.0 719.0 47.0 725.0 32.0 731.0 16.0 732.0 -8.0 732.0 -37.0 727.0 -85.0 721.0 -112.0 710.0 -136.0 701.0 -152.0 694.0 -152.0 690.0 -152.0 689.0 -136.0 685.0 -121.0 685.0 -108.0 685.0 -88.0 687.0 -60.0 688.0 -45.0 689.0 -28.0 644.0 -12.0 606.0 -8.0 582.0 -4.0 549.0 -1.0 555.0 -12.0 555.0 -20.0 L554.0 -337.0 Q672.0 -341.0 744.0 -364.0 745.0 -360.0 748.0 -356.0 754.0 -341.0 760.0 -341.0 766.0 -341.0 772.0 -356.0 777.0 -377.0 779.0 -400.0 779.0 -433.0 774.0 -492.0 768.0 -524.0 756.0 -549.0 748.0 -568.0 739.0 -568.0 735.0 -568.0 733.0 -553.0 730.0 -532.0 730.0 -520.0 730.0 -496.0 732.0 -465.0 733.0 -433.0 737.0 -392.0 738.0 -389.0 739.0 -381.0 655.0 -368.0 554.0 -368.0 L554.0 -381.0 Q551.0 -469.0 540.0 -580.0 528.0 -660.0 517.0 -660.0 514.0 -660.0 512.0 -652.0 512.0 -572.0 514.0 -461.0 L514.0 -368.0 Q340.0 -373.0 306.0 -412.0 293.0 -433.0 287.0 -488.0 285.0 -553.0 281.0 -568.0 279.0 -584.0 274.0 -584.0 268.0 -584.0 266.0 -572.0 258.0 -549.0 255.0 -517.0 253.0 -488.0 253.0 -476.0 255.0 -408.0 274.0 -389.0 299.0 -352.0 344.0 -341.0 402.0 -337.0 514.0 -337.0 L514.0 -337.0" fill-rule="evenodd" stroke="none"/>
    </g>
    <g id="font_DFPTongTong-B5__8">
      <path d="M782.0 -85.0 L782.0 -85.0 Q778.0 -85.0 769.0 -28.0 765.0 -4.0 765.0 16.0 767.0 43.0 783.0 56.0 802.0 72.0 839.0 72.0 876.0 68.0 876.0 43.0 876.0 36.0 871.0 24.0 869.0 16.0 865.0 16.0 863.0 16.0 862.0 24.0 852.0 40.0 828.0 43.0 809.0 43.0 803.0 28.0 799.0 20.0 797.0 -20.0 795.0 -52.0 791.0 -68.0 786.0 -85.0 782.0 -85.0 L782.0 -85.0 M609.0 -232.0 L609.0 -232.0 Q606.0 -308.0 603.0 -373.0 610.0 -373.0 620.0 -368.0 655.0 -364.0 685.0 -364.0 739.0 -364.0 741.0 -381.0 741.0 -389.0 725.0 -389.0 684.0 -392.0 632.0 -392.0 613.0 -392.0 602.0 -389.0 599.0 -452.0 596.0 -496.0 602.0 -496.0 609.0 -496.0 645.0 -488.0 677.0 -488.0 732.0 -488.0 734.0 -505.0 734.0 -513.0 719.0 -517.0 676.0 -520.0 621.0 -520.0 605.0 -517.0 595.0 -517.0 590.0 -580.0 586.0 -605.0 580.0 -633.0 573.0 -633.0 565.0 -633.0 561.0 -580.0 560.0 -505.0 560.0 -396.0 565.0 -217.0 586.0 -188.0 590.0 -184.0 594.0 -184.0 602.0 -184.0 607.0 -217.0 618.0 -213.0 635.0 -209.0 683.0 -205.0 725.0 -205.0 800.0 -205.0 803.0 -232.0 803.0 -240.0 786.0 -245.0 781.0 -245.0 775.0 -245.0 775.0 -245.0 775.0 -245.0 797.0 -337.0 815.0 -476.0 829.0 -564.0 829.0 -593.0 829.0 -616.0 804.0 -637.0 780.0 -652.0 718.0 -668.0 678.0 -677.0 642.0 -681.0 581.0 -677.0 581.0 -673.0 581.0 -660.0 640.0 -645.0 686.0 -633.0 749.0 -620.0 778.0 -612.0 778.0 -589.0 778.0 -549.0 773.0 -509.0 768.0 -448.0 758.0 -352.0 752.0 -284.0 750.0 -249.0 750.0 -245.0 750.0 -240.0 705.0 -232.0 651.0 -232.0 625.0 -232.0 609.0 -232.0 L609.0 -232.0 M667.0 -96.0 L667.0 -96.0 Q646.0 -64.0 628.0 -28.0 609.0 16.0 605.0 40.0 605.0 68.0 611.0 68.0 622.0 68.0 630.0 60.0 651.0 40.0 659.0 3.0 674.0 -37.0 679.0 -85.0 679.0 -100.0 675.0 -104.0 671.0 -104.0 667.0 -96.0 L667.0 -96.0 M278.0 -236.0 L278.0 -236.0 Q280.0 -236.0 282.0 -236.0 315.0 -236.0 332.0 -240.0 349.0 -240.0 349.0 -245.0 349.0 -253.0 312.0 -260.0 295.0 -268.0 275.0 -268.0 267.0 -400.0 259.0 -436.0 254.0 -465.0 248.0 -465.0 240.0 -465.0 236.0 -412.0 233.0 -356.0 233.0 -272.0 220.0 -276.0 206.0 -276.0 190.0 -276.0 158.0 -272.0 141.0 -268.0 141.0 -264.0 141.0 -257.0 185.0 -245.0 206.0 -240.0 234.0 -236.0 240.0 -136.0 251.0 -100.0 221.0 -100.0 215.0 -100.0 161.0 -96.0 161.0 -88.0 161.0 -81.0 190.0 -77.0 216.0 -68.0 263.0 -68.0 322.0 -68.0 345.0 -77.0 374.0 -88.0 374.0 -100.0 372.0 -104.0 366.0 -104.0 310.0 -100.0 280.0 -100.0 282.0 -108.0 284.0 -121.0 281.0 -184.0 278.0 -236.0 L278.0 -236.0 M211.0 -517.0 L211.0 -517.0 Q141.0 -517.0 141.0 -509.0 141.0 -501.0 228.0 -484.0 288.0 -473.0 344.0 -473.0 376.0 -476.0 376.0 -480.0 376.0 -488.0 368.0 -492.0 346.0 -501.0 313.0 -509.0 246.0 -517.0 211.0 -517.0 L211.0 -517.0" fill-rule="evenodd" stroke="none"/>
    </g>
    <g id="font_DFPTongTong-B5__9">
      <path d="M628.0 -501.0 L628.0 -501.0 Q629.0 -492.0 629.0 -484.0 632.0 -452.0 637.0 -436.0 636.0 -436.0 636.0 -436.0 593.0 -433.0 550.0 -429.0 542.0 -429.0 537.0 -429.0 529.0 -465.0 519.0 -517.0 530.0 -513.0 547.0 -509.0 588.0 -505.0 628.0 -501.0 L628.0 -501.0 M623.0 -616.0 L623.0 -616.0 Q624.0 -605.0 624.0 -593.0 625.0 -568.0 626.0 -536.0 618.0 -536.0 612.0 -536.0 570.0 -536.0 528.0 -532.0 521.0 -532.0 517.0 -532.0 517.0 -532.0 517.0 -532.0 508.0 -584.0 500.0 -624.0 505.0 -624.0 512.0 -624.0 539.0 -616.0 581.0 -616.0 601.0 -616.0 623.0 -616.0 L623.0 -616.0 M766.0 -652.0 L766.0 -652.0 Q761.0 -689.0 752.0 -721.0 744.0 -748.0 737.0 -748.0 733.0 -748.0 732.0 -736.0 728.0 -696.0 728.0 -677.0 728.0 -664.0 728.0 -652.0 691.0 -652.0 659.0 -652.0 654.0 -689.0 645.0 -717.0 638.0 -740.0 631.0 -740.0 628.0 -740.0 626.0 -729.0 623.0 -692.0 623.0 -673.0 623.0 -664.0 623.0 -652.0 605.0 -652.0 591.0 -652.0 520.0 -648.0 497.0 -645.0 495.0 -652.0 493.0 -660.0 488.0 -689.0 477.0 -689.0 471.0 -689.0 471.0 -633.0 471.0 -564.0 484.0 -501.0 500.0 -436.0 522.0 -400.0 529.0 -389.0 536.0 -389.0 542.0 -389.0 542.0 -396.0 541.0 -404.0 539.0 -412.0 550.0 -412.0 569.0 -408.0 627.0 -400.0 685.0 -396.0 800.0 -396.0 854.0 -404.0 911.0 -412.0 911.0 -425.0 911.0 -429.0 880.0 -433.0 887.0 -444.0 894.0 -473.0 900.0 -488.0 902.0 -505.0 909.0 -532.0 909.0 -553.0 909.0 -605.0 882.0 -624.0 853.0 -648.0 803.0 -652.0 783.0 -652.0 766.0 -652.0 L766.0 -652.0 M772.0 -536.0 L772.0 -536.0 Q771.0 -572.0 769.0 -616.0 790.0 -616.0 810.0 -612.0 864.0 -612.0 864.0 -572.0 864.0 -557.0 862.0 -532.0 846.0 -532.0 813.0 -536.0 793.0 -536.0 772.0 -536.0 L772.0 -536.0 M768.0 -433.0 L768.0 -433.0 Q772.0 -448.0 774.0 -465.0 774.0 -480.0 773.0 -505.0 803.0 -505.0 824.0 -509.0 848.0 -509.0 861.0 -513.0 861.0 -509.0 860.0 -501.0 857.0 -465.0 855.0 -444.0 855.0 -436.0 856.0 -433.0 850.0 -433.0 843.0 -433.0 804.0 -433.0 768.0 -433.0 L768.0 -433.0 M734.0 -501.0 L734.0 -501.0 Q734.0 -492.0 735.0 -480.0 738.0 -452.0 742.0 -436.0 700.0 -436.0 662.0 -436.0 666.0 -448.0 668.0 -469.0 668.0 -484.0 668.0 -501.0 703.0 -501.0 734.0 -501.0 L734.0 -501.0 M729.0 -616.0 L729.0 -616.0 Q729.0 -605.0 730.0 -597.0 731.0 -568.0 732.0 -536.0 698.0 -536.0 667.0 -536.0 666.0 -572.0 663.0 -616.0 695.0 -616.0 729.0 -616.0 L729.0 -616.0 M867.0 68.0 L867.0 68.0 Q836.0 51.0 807.0 36.0 802.0 36.0 802.0 40.0 819.0 68.0 853.0 100.0 888.0 128.0 921.0 128.0 950.0 128.0 950.0 116.0 950.0 116.0 932.0 104.0 915.0 95.0 894.0 84.0 895.0 84.0 897.0 84.0 906.0 76.0 911.0 56.0 923.0 20.0 927.0 -4.0 927.0 -8.0 925.0 -8.0 921.0 -8.0 914.0 -1.0 901.0 16.0 882.0 43.0 871.0 56.0 867.0 68.0 L867.0 68.0 M687.0 -224.0 L687.0 -224.0 Q673.0 -224.0 644.0 -220.0 630.0 -217.0 630.0 -213.0 630.0 -205.0 669.0 -196.0 700.0 -184.0 754.0 -184.0 784.0 -184.0 799.0 -188.0 815.0 -188.0 815.0 -196.0 815.0 -200.0 782.0 -213.0 741.0 -220.0 687.0 -224.0 L687.0 -224.0 M681.0 -72.0 L681.0 -72.0 Q690.0 -72.0 700.0 -72.0 781.0 -72.0 820.0 -81.0 862.0 -85.0 862.0 -96.0 862.0 -104.0 812.0 -108.0 731.0 -108.0 665.0 -108.0 634.0 -108.0 603.0 -104.0 582.0 -100.0 582.0 -96.0 582.0 -88.0 616.0 -81.0 640.0 -77.0 663.0 -77.0 660.0 -68.0 657.0 -52.0 644.0 -4.0 642.0 28.0 642.0 84.0 656.0 108.0 673.0 131.0 703.0 135.0 723.0 135.0 739.0 124.0 757.0 108.0 762.0 91.0 762.0 87.0 756.0 87.0 727.0 100.0 706.0 100.0 680.0 87.0 680.0 40.0 680.0 32.0 681.0 7.0 684.0 -20.0 684.0 -37.0 684.0 -60.0 681.0 -72.0 L681.0 -72.0 M515.0 -301.0 L515.0 -301.0 Q582.0 -293.0 649.0 -293.0 796.0 -293.0 864.0 -301.0 939.0 -308.0 939.0 -320.0 939.0 -328.0 851.0 -328.0 705.0 -333.0 586.0 -333.0 531.0 -328.0 476.0 -328.0 437.0 -324.0 437.0 -320.0 437.0 -308.0 501.0 -304.0 502.0 -304.0 503.0 -304.0 460.0 -205.0 433.0 -121.0 400.0 -12.0 390.0 68.0 390.0 80.0 391.0 84.0 395.0 84.0 399.0 76.0 443.0 16.0 470.0 -104.0 506.0 -224.0 515.0 -301.0 L515.0 -301.0 M224.0 -520.0 L224.0 -520.0 Q202.0 -520.0 177.0 -513.0 162.0 -509.0 158.0 -501.0 162.0 -496.0 181.0 -492.0 199.0 -492.0 216.0 -492.0 244.0 -488.0 247.0 -461.0 255.0 -417.0 262.0 -284.0 270.0 -180.0 281.0 -60.0 281.0 -28.0 270.0 -28.0 270.0 -16.0 291.0 -16.0 306.0 -16.0 314.0 -28.0 325.0 -37.0 325.0 -56.0 325.0 -92.0 308.0 -253.0 302.0 -348.0 295.0 -421.0 291.0 -513.0 224.0 -520.0 L224.0 -520.0 M155.0 -308.0 L155.0 -308.0 Q158.0 -308.0 162.0 -304.0 185.0 -301.0 207.0 -301.0 244.0 -301.0 246.0 -316.0 246.0 -324.0 228.0 -328.0 203.0 -333.0 170.0 -333.0 161.0 -333.0 156.0 -328.0 156.0 -333.0 156.0 -333.0 156.0 -392.0 153.0 -465.0 151.0 -509.0 145.0 -509.0 142.0 -509.0 140.0 -496.0 131.0 -417.0 115.0 -264.0 105.0 -161.0 105.0 -60.0 109.0 -28.0 117.0 -28.0 129.0 -37.0 142.0 -132.0 144.0 -152.0 146.0 -173.0 150.0 -173.0 154.0 -173.0 178.0 -165.0 199.0 -165.0 237.0 -165.0 238.0 -180.0 238.0 -192.0 220.0 -192.0 195.0 -196.0 162.0 -196.0 154.0 -196.0 147.0 -196.0 151.0 -245.0 155.0 -308.0 L155.0 -308.0" fill-rule="evenodd" stroke="none"/>
    </g>
    <g id="font_DFPTongTong-B5__10">
      <path d="M822.0 -180.0 L822.0 -180.0 Q810.0 -188.0 787.0 -200.0 741.0 -217.0 719.0 -217.0 711.0 -217.0 711.0 -209.0 713.0 -200.0 733.0 -184.0 746.0 -176.0 758.0 -169.0 786.0 -152.0 811.0 -148.0 798.0 -117.0 781.0 -81.0 773.0 -56.0 745.0 3.0 742.0 11.0 738.0 20.0 680.0 3.0 660.0 -4.0 652.0 -4.0 652.0 3.0 655.0 11.0 685.0 28.0 705.0 40.0 725.0 47.0 707.0 87.0 682.0 139.0 682.0 144.0 689.0 144.0 711.0 135.0 736.0 100.0 746.0 87.0 761.0 64.0 820.0 84.0 865.0 84.0 892.0 84.0 892.0 76.0 892.0 64.0 831.0 43.0 806.0 40.0 777.0 32.0 787.0 7.0 799.0 -16.0 846.0 -117.0 873.0 -192.0 909.0 -284.0 909.0 -324.0 909.0 -352.0 850.0 -368.0 826.0 -377.0 797.0 -381.0 791.0 -381.0 786.0 -381.0 818.0 -436.0 823.0 -473.0 823.0 -480.0 819.0 -480.0 816.0 -480.0 807.0 -473.0 775.0 -433.0 725.0 -360.0 667.0 -260.0 652.0 -232.0 652.0 -224.0 656.0 -224.0 660.0 -224.0 666.0 -228.0 702.0 -249.0 750.0 -320.0 763.0 -345.0 774.0 -360.0 791.0 -352.0 820.0 -341.0 862.0 -324.0 862.0 -308.0 862.0 -293.0 841.0 -232.0 834.0 -209.0 822.0 -180.0 L822.0 -180.0 M677.0 -601.0 L677.0 -601.0 Q615.0 -605.0 523.0 -612.0 475.0 -612.0 442.0 -612.0 417.0 -608.0 417.0 -605.0 417.0 -593.0 597.0 -572.0 703.0 -557.0 846.0 -553.0 884.0 -553.0 918.0 -553.0 940.0 -557.0 942.0 -561.0 940.0 -568.0 897.0 -576.0 836.0 -584.0 762.0 -593.0 737.0 -597.0 699.0 -601.0 702.0 -605.0 705.0 -616.0 705.0 -652.0 682.0 -681.0 647.0 -717.0 633.0 -717.0 627.0 -717.0 627.0 -712.0 629.0 -708.0 635.0 -692.0 641.0 -677.0 649.0 -656.0 666.0 -616.0 676.0 -601.0 677.0 -601.0 677.0 -601.0 L677.0 -601.0 M442.0 -289.0 L442.0 -289.0 Q442.0 -260.0 444.0 -236.0 449.0 -196.0 457.0 -148.0 465.0 -108.0 473.0 -92.0 484.0 -72.0 490.0 -72.0 495.0 -72.0 499.0 -81.0 503.0 -88.0 505.0 -104.0 505.0 -112.0 497.0 -156.0 488.0 -196.0 476.0 -245.0 471.0 -268.0 461.0 -293.0 460.0 -293.0 459.0 -293.0 465.0 -297.0 471.0 -301.0 551.0 -337.0 577.0 -364.0 581.0 -368.0 582.0 -373.0 582.0 -377.0 567.0 -377.0 511.0 -364.0 453.0 -337.0 412.0 -316.0 371.0 -293.0 344.0 -272.0 344.0 -264.0 345.0 -260.0 352.0 -260.0 402.0 -272.0 442.0 -289.0 L442.0 -289.0 M279.0 -52.0 L279.0 -52.0 Q270.0 -52.0 251.0 -48.0 215.0 -33.0 175.0 -4.0 144.0 16.0 144.0 24.0 144.0 28.0 161.0 28.0 204.0 20.0 248.0 -4.0 275.0 -28.0 283.0 -48.0 283.0 -52.0 279.0 -52.0 L279.0 -52.0 M80.0 -345.0 L80.0 -345.0 Q72.0 -345.0 72.0 -337.0 74.0 -328.0 95.0 -312.0 109.0 -301.0 121.0 -293.0 153.0 -272.0 181.0 -272.0 204.0 -272.0 204.0 -289.0 204.0 -304.0 152.0 -324.0 103.0 -345.0 80.0 -345.0 L80.0 -345.0 M167.0 -620.0 L167.0 -620.0 Q160.0 -620.0 160.0 -616.0 162.0 -605.0 186.0 -580.0 202.0 -564.0 215.0 -557.0 251.0 -528.0 283.0 -528.0 302.0 -528.0 302.0 -540.0 302.0 -564.0 246.0 -597.0 193.0 -620.0 167.0 -620.0 L167.0 -620.0" fill-rule="evenodd" stroke="none"/>
    </g>
  </defs>
</svg>
