<?xml version="1.0" encoding="UTF-8" standalone="no"?>
<svg xmlns:xlink="http://www.w3.org/1999/xlink" height="93.5px" width="301.1px" xmlns="http://www.w3.org/2000/svg">
  <g transform="matrix(1.0, 0.0, 0.0, 1.0, -5.2, -2.45)">
    <g transform="matrix(1.0, 0.0, 0.0, 1.0, 0.0, 0.0)">
      <use fill="#ffffff" height="93.5" transform="matrix(0.0436, 0.0, 0.0, 0.0436, 0.0, 36.0)" width="301.1" xlink:href="#font_DFPTongTong-B5__0"/>
      <use fill="#ffffff" height="93.5" transform="matrix(0.0436, 0.0, 0.0, 0.0436, 44.6, 36.0)" width="301.1" xlink:href="#font_DFPTongTong-B5__1"/>
      <use fill="#ffffff" height="93.5" transform="matrix(0.0436, 0.0, 0.0, 0.0436, 89.2, 36.0)" width="301.1" xlink:href="#font_DFPTongTong-B5__2"/>
      <use fill="#ffffff" height="93.5" transform="matrix(0.0436, 0.0, 0.0, 0.0436, 133.8, 36.0)" width="301.1" xlink:href="#font_DFPTongTong-B5__3"/>
      <use fill="#ffffff" height="93.5" transform="matrix(0.0436, 0.0, 0.0, 0.0436, 178.4, 36.0)" width="301.1" xlink:href="#font_DFPTongTong-B5__4"/>
      <use fill="#ffffff" height="93.5" transform="matrix(0.0436, 0.0, 0.0, 0.0436, 223.0, 36.0)" width="301.1" xlink:href="#font_DFPTongTong-B5__5"/>
      <use fill="#ffffff" height="93.5" transform="matrix(0.0436, 0.0, 0.0, 0.0436, 267.6, 36.0)" width="301.1" xlink:href="#font_DFPTongTong-B5__6"/>
    </g>
    <g transform="matrix(1.0, 0.0, 0.0, 1.0, 0.0, 0.0)">
      <use fill="#ff6648" height="93.5" transform="matrix(0.0436, 0.0, 0.0, 0.0436, 66.9, 89.0)" width="301.1" xlink:href="#font_DFPTongTong-B5__8"/>
      <use fill="#ff6648" height="93.5" transform="matrix(0.0436, 0.0, 0.0, 0.0436, 111.5, 89.0)" width="301.1" xlink:href="#font_DFPTongTong-B5__9"/>
      <use fill="#ff6648" height="93.5" transform="matrix(0.0436, 0.0, 0.0, 0.0436, 156.1, 89.0)" width="301.1" xlink:href="#font_DFPTongTong-B5__4"/>
      <use fill="#ff6648" height="93.5" transform="matrix(0.0436, 0.0, 0.0, 0.0436, 200.7, 89.0)" width="301.1" xlink:href="#font_DFPTongTong-B5__5"/>
    </g>
  </g>
  <defs>
    <g id="font_DFPTongTong-B5__0">
      <path d="M783.0 -620.0 L783.0 -620.0 Q776.0 -620.0 776.0 -616.0 777.0 -605.0 799.0 -584.0 813.0 -572.0 824.0 -561.0 856.0 -536.0 884.0 -536.0 902.0 -536.0 902.0 -549.0 902.0 -572.0 852.0 -601.0 806.0 -620.0 783.0 -620.0 L783.0 -620.0 M499.0 -681.0 L499.0 -681.0 Q453.0 -668.0 312.0 -612.0 189.0 -564.0 134.0 -536.0 119.0 -532.0 119.0 -524.0 119.0 -520.0 128.0 -520.0 239.0 -536.0 342.0 -580.0 430.0 -608.0 503.0 -664.0 509.0 -668.0 512.0 -677.0 508.0 -681.0 499.0 -681.0 L499.0 -681.0 M647.0 -341.0 L647.0 -341.0 Q536.0 -337.0 417.0 -333.0 385.0 -333.0 355.0 -328.0 350.0 -373.0 343.0 -404.0 327.0 -469.0 317.0 -469.0 315.0 -465.0 315.0 -461.0 321.0 -389.0 325.0 -328.0 244.0 -324.0 188.0 -320.0 142.0 -308.0 138.0 -304.0 140.0 -289.0 239.0 -289.0 278.0 -289.0 327.0 -289.0 334.0 -192.0 336.0 -112.0 329.0 -108.0 322.0 -104.0 219.0 -64.0 174.0 -41.0 161.0 -33.0 161.0 -28.0 161.0 -24.0 169.0 -24.0 256.0 -37.0 337.0 -77.0 339.0 -33.0 339.0 3.0 339.0 32.0 330.0 40.0 323.0 40.0 323.0 47.0 325.0 51.0 331.0 51.0 344.0 56.0 358.0 56.0 383.0 51.0 383.0 20.0 383.0 -12.0 378.0 -72.0 377.0 -81.0 377.0 -92.0 431.0 -117.0 478.0 -152.0 484.0 -156.0 486.0 -165.0 484.0 -169.0 476.0 -169.0 446.0 -161.0 375.0 -129.0 371.0 -184.0 367.0 -232.0 364.0 -264.0 360.0 -293.0 374.0 -293.0 388.0 -293.0 544.0 -297.0 651.0 -304.0 664.0 -196.0 693.0 -108.0 700.0 -88.0 708.0 -68.0 646.0 -20.0 614.0 3.0 610.0 7.0 610.0 16.0 612.0 20.0 618.0 20.0 677.0 -4.0 724.0 -33.0 772.0 60.0 848.0 72.0 888.0 72.0 890.0 43.0 890.0 36.0 884.0 36.0 871.0 43.0 852.0 43.0 799.0 28.0 758.0 -56.0 814.0 -104.0 840.0 -144.0 846.0 -156.0 846.0 -165.0 840.0 -165.0 833.0 -161.0 799.0 -136.0 742.0 -96.0 738.0 -104.0 735.0 -112.0 709.0 -213.0 692.0 -308.0 791.0 -316.0 836.0 -328.0 852.0 -333.0 852.0 -341.0 852.0 -345.0 829.0 -345.0 758.0 -345.0 686.0 -341.0 675.0 -421.0 670.0 -492.0 668.0 -517.0 664.0 -540.0 659.0 -564.0 655.0 -564.0 651.0 -564.0 642.0 -480.0 642.0 -408.0 647.0 -341.0 L647.0 -341.0" fill-rule="evenodd" stroke="none"/>
    </g>
    <g id="font_DFPTongTong-B5__1">
      <path d="M222.0 -381.0 L222.0 -381.0 Q240.0 -389.0 257.0 -396.0 339.0 -433.0 365.0 -461.0 371.0 -461.0 373.0 -469.0 373.0 -476.0 352.0 -476.0 295.0 -465.0 234.0 -436.0 193.0 -417.0 151.0 -389.0 123.0 -373.0 123.0 -364.0 125.0 -360.0 134.0 -360.0 171.0 -364.0 202.0 -377.0 210.0 -264.0 230.0 -176.0 248.0 -112.0 260.0 -88.0 266.0 -81.0 271.0 -81.0 278.0 -85.0 278.0 -92.0 273.0 -148.0 260.0 -228.0 250.0 -297.0 227.0 -368.0 224.0 -377.0 222.0 -381.0 L222.0 -381.0 M796.0 -196.0 L796.0 -196.0 Q754.0 -196.0 705.0 -196.0 695.0 -196.0 686.0 -196.0 690.0 -217.0 694.0 -236.0 699.0 -260.0 703.0 -280.0 713.0 -280.0 722.0 -280.0 741.0 -276.0 754.0 -272.0 773.0 -272.0 786.0 -272.0 801.0 -272.0 801.0 -268.0 801.0 -232.0 796.0 -200.0 796.0 -196.0 796.0 -196.0 L796.0 -196.0 M638.0 -196.0 L638.0 -196.0 Q616.0 -196.0 596.0 -196.0 594.0 -205.0 590.0 -220.0 582.0 -249.0 569.0 -284.0 567.0 -297.0 563.0 -304.0 564.0 -304.0 565.0 -304.0 584.0 -297.0 618.0 -293.0 639.0 -289.0 657.0 -289.0 647.0 -240.0 638.0 -196.0 L638.0 -196.0 M756.0 -532.0 L756.0 -532.0 Q805.0 -528.0 859.0 -524.0 896.0 -524.0 931.0 -528.0 953.0 -532.0 954.0 -532.0 953.0 -545.0 911.0 -553.0 852.0 -557.0 780.0 -568.0 772.0 -568.0 763.0 -568.0 777.0 -652.0 781.0 -692.0 781.0 -696.0 779.0 -696.0 777.0 -696.0 764.0 -677.0 746.0 -629.0 729.0 -572.0 664.0 -580.0 549.0 -589.0 501.0 -589.0 468.0 -584.0 442.0 -584.0 442.0 -580.0 442.0 -568.0 617.0 -545.0 665.0 -540.0 718.0 -532.0 694.0 -448.0 671.0 -348.0 668.0 -337.0 664.0 -320.0 629.0 -320.0 596.0 -320.0 568.0 -320.0 556.0 -316.0 555.0 -320.0 554.0 -320.0 544.0 -337.0 540.0 -337.0 536.0 -337.0 536.0 -324.0 536.0 -301.0 538.0 -280.0 542.0 -249.0 550.0 -213.0 558.0 -184.0 565.0 -169.0 578.0 -152.0 584.0 -152.0 588.0 -152.0 592.0 -161.0 594.0 -165.0 595.0 -169.0 614.0 -169.0 633.0 -169.0 610.0 -52.0 595.0 43.0 543.0 28.0 498.0 11.0 492.0 11.0 492.0 24.0 521.0 51.0 590.0 80.0 586.0 108.0 583.0 135.0 583.0 144.0 587.0 144.0 591.0 144.0 604.0 124.0 609.0 104.0 614.0 87.0 678.0 112.0 774.0 112.0 844.0 108.0 844.0 91.0 844.0 87.0 784.0 84.0 721.0 80.0 646.0 60.0 635.0 56.0 625.0 56.0 653.0 -52.0 679.0 -169.0 702.0 -169.0 724.0 -169.0 781.0 -169.0 815.0 -176.0 848.0 -184.0 848.0 -188.0 848.0 -192.0 825.0 -196.0 828.0 -200.0 829.0 -205.0 841.0 -236.0 841.0 -272.0 841.0 -297.0 801.0 -308.0 763.0 -312.0 712.0 -316.0 739.0 -440.0 756.0 -532.0 L756.0 -532.0" fill-rule="evenodd" stroke="none"/>
    </g>
    <g id="font_DFPTongTong-B5__2">
      <path d="M231.0 -601.0 L231.0 -601.0 Q225.0 -601.0 221.0 -589.0 198.0 -440.0 182.0 -304.0 169.0 -129.0 168.0 -16.0 168.0 40.0 175.0 40.0 187.0 40.0 196.0 7.0 207.0 -92.0 222.0 -268.0 242.0 -488.0 242.0 -564.0 240.0 -601.0 231.0 -601.0 L231.0 -601.0 M503.0 -192.0 L503.0 -192.0 Q466.0 -192.0 430.0 -192.0 410.0 -188.0 410.0 -184.0 410.0 -173.0 464.0 -165.0 482.0 -161.0 504.0 -161.0 505.0 -140.0 507.0 -117.0 511.0 -72.0 517.0 -52.0 522.0 -37.0 528.0 -37.0 535.0 -37.0 541.0 -52.0 547.0 -72.0 549.0 -96.0 549.0 -125.0 548.0 -161.0 577.0 -165.0 592.0 -169.0 613.0 -176.0 613.0 -184.0 611.0 -192.0 584.0 -192.0 565.0 -192.0 547.0 -192.0 546.0 -224.0 544.0 -260.0 574.0 -257.0 604.0 -257.0 637.0 -260.0 637.0 -264.0 637.0 -272.0 629.0 -276.0 607.0 -284.0 575.0 -293.0 557.0 -297.0 542.0 -297.0 536.0 -345.0 524.0 -385.0 517.0 -417.0 509.0 -417.0 505.0 -417.0 503.0 -400.0 499.0 -360.0 499.0 -337.0 499.0 -320.0 499.0 -301.0 484.0 -301.0 474.0 -301.0 407.0 -301.0 407.0 -293.0 407.0 -284.0 492.0 -268.0 496.0 -268.0 500.0 -268.0 500.0 -257.0 501.0 -245.0 502.0 -220.0 503.0 -192.0 L503.0 -192.0 M413.0 -612.0 L413.0 -612.0 Q274.0 -612.0 267.0 -601.0 270.0 -589.0 345.0 -580.0 435.0 -568.0 503.0 -568.0 636.0 -568.0 712.0 -561.0 760.0 -561.0 761.0 -536.0 782.0 -469.0 801.0 -228.0 816.0 -92.0 819.0 3.0 819.0 51.0 804.0 76.0 804.0 84.0 822.0 84.0 842.0 80.0 851.0 68.0 862.0 56.0 864.0 28.0 864.0 -64.0 846.0 -260.0 827.0 -452.0 809.0 -545.0 795.0 -589.0 689.0 -597.0 582.0 -608.0 413.0 -612.0 L413.0 -612.0" fill-rule="evenodd" stroke="none"/>
    </g>
    <g id="font_DFPTongTong-B5__3">
      <path d="M309.0 -601.0 L309.0 -601.0 Q305.0 -601.0 296.0 -589.0 255.0 -549.0 188.0 -469.0 112.0 -368.0 93.0 -333.0 93.0 -324.0 97.0 -324.0 101.0 -324.0 108.0 -328.0 156.0 -352.0 217.0 -433.0 303.0 -536.0 313.0 -589.0 313.0 -601.0 309.0 -601.0 L309.0 -601.0 M330.0 -64.0 L330.0 -64.0 Q335.0 -72.0 339.0 -85.0 351.0 -129.0 354.0 -188.0 354.0 -236.0 290.0 -253.0 237.0 -260.0 205.0 -260.0 198.0 -260.0 194.0 -257.0 184.0 -276.0 180.0 -276.0 176.0 -276.0 176.0 -264.0 176.0 -228.0 178.0 -200.0 182.0 -161.0 190.0 -108.0 199.0 -68.0 207.0 -48.0 218.0 -33.0 224.0 -33.0 228.0 -33.0 232.0 -41.0 233.0 -45.0 234.0 -45.0 239.0 -45.0 244.0 -45.0 272.0 -37.0 296.0 -37.0 340.0 -37.0 342.0 -52.0 342.0 -60.0 330.0 -64.0 L330.0 -64.0 M309.0 -132.0 L309.0 -132.0 Q308.0 -108.0 306.0 -81.0 306.0 -72.0 307.0 -68.0 283.0 -68.0 253.0 -68.0 245.0 -68.0 239.0 -68.0 237.0 -81.0 230.0 -117.0 229.0 -121.0 227.0 -129.0 245.0 -125.0 269.0 -125.0 291.0 -125.0 309.0 -132.0 L309.0 -132.0 M202.0 -236.0 L202.0 -236.0 Q204.0 -236.0 207.0 -232.0 247.0 -220.0 293.0 -213.0 311.0 -209.0 311.0 -192.0 311.0 -176.0 311.0 -156.0 305.0 -156.0 299.0 -156.0 283.0 -156.0 264.0 -156.0 253.0 -156.0 229.0 -152.0 226.0 -152.0 223.0 -152.0 217.0 -180.0 211.0 -209.0 207.0 -224.0 202.0 -236.0 L202.0 -236.0 M575.0 -469.0 L575.0 -469.0 Q588.0 -465.0 605.0 -456.0 660.0 -440.0 742.0 -425.0 787.0 -417.0 836.0 -408.0 867.0 -400.0 870.0 -381.0 874.0 -320.0 876.0 -253.0 878.0 -184.0 880.0 -104.0 880.0 28.0 847.0 40.0 847.0 47.0 852.0 47.0 869.0 56.0 888.0 56.0 921.0 40.0 921.0 -200.0 921.0 -320.0 913.0 -385.0 905.0 -440.0 812.0 -461.0 756.0 -469.0 691.0 -473.0 631.0 -480.0 584.0 -484.0 618.0 -549.0 632.0 -616.0 632.0 -620.0 631.0 -620.0 629.0 -620.0 626.0 -616.0 578.0 -557.0 528.0 -473.0 489.0 -389.0 458.0 -304.0 458.0 -301.0 460.0 -301.0 462.0 -301.0 464.0 -301.0 518.0 -360.0 554.0 -433.0 565.0 -448.0 575.0 -469.0 L575.0 -469.0 M592.0 -140.0 L592.0 -140.0 Q584.0 -140.0 584.0 -136.0 586.0 -125.0 607.0 -108.0 622.0 -96.0 634.0 -88.0 666.0 -64.0 693.0 -64.0 716.0 -64.0 716.0 -77.0 716.0 -96.0 664.0 -121.0 615.0 -140.0 592.0 -140.0 L592.0 -140.0" fill-rule="evenodd" stroke="none"/>
    </g>
    <g id="font_DFPTongTong-B5__4">
      <path d="M335.0 -284.0 L335.0 -284.0 Q337.0 -293.0 337.0 -301.0 337.0 -337.0 323.0 -404.0 315.0 -440.0 303.0 -469.0 295.0 -480.0 291.0 -480.0 287.0 -480.0 287.0 -465.0 289.0 -385.0 291.0 -345.0 293.0 -308.0 303.0 -289.0 304.0 -289.0 305.0 -284.0 291.0 -284.0 275.0 -284.0 147.0 -284.0 147.0 -272.0 147.0 -257.0 298.0 -249.0 382.0 -236.0 508.0 -236.0 604.0 -236.0 676.0 -240.0 677.0 -217.0 679.0 -192.0 679.0 -176.0 680.0 -165.0 633.0 -144.0 501.0 -64.0 395.0 -1.0 366.0 36.0 364.0 47.0 364.0 56.0 373.0 56.0 376.0 56.0 474.0 -1.0 555.0 -48.0 640.0 -100.0 681.0 -144.0 688.0 -41.0 688.0 3.0 688.0 68.0 666.0 76.0 662.0 80.0 662.0 84.0 670.0 95.0 694.0 95.0 728.0 87.0 728.0 20.0 728.0 -100.0 714.0 -236.0 714.0 -236.0 714.0 -240.0 864.0 -245.0 865.0 -253.0 865.0 -264.0 827.0 -268.0 790.0 -276.0 714.0 -276.0 713.0 -280.0 712.0 -280.0 707.0 -373.0 697.0 -440.0 675.0 -528.0 662.0 -528.0 657.0 -528.0 657.0 -513.0 657.0 -469.0 666.0 -404.0 668.0 -364.0 673.0 -280.0 503.0 -280.0 335.0 -284.0 L335.0 -284.0 M422.0 -645.0 L422.0 -645.0 Q382.0 -645.0 301.0 -641.0 260.0 -637.0 260.0 -633.0 260.0 -624.0 371.0 -608.0 459.0 -601.0 609.0 -597.0 693.0 -597.0 733.0 -601.0 777.0 -605.0 777.0 -608.0 777.0 -616.0 686.0 -629.0 572.0 -641.0 422.0 -645.0 L422.0 -645.0" fill-rule="evenodd" stroke="none"/>
    </g>
    <g id="font_DFPTongTong-B5__5">
      <path d="M718.0 -396.0 L718.0 -396.0 Q714.0 -396.0 714.0 -377.0 716.0 -316.0 718.0 -284.0 720.0 -253.0 730.0 -236.0 739.0 -220.0 748.0 -220.0 754.0 -220.0 758.0 -228.0 762.0 -240.0 762.0 -249.0 762.0 -280.0 748.0 -333.0 741.0 -360.0 730.0 -385.0 722.0 -396.0 718.0 -396.0 L718.0 -396.0 M852.0 -484.0 L852.0 -484.0 Q850.0 -480.0 850.0 -473.0 873.0 -284.0 873.0 -180.0 873.0 -156.0 855.0 -148.0 848.0 -148.0 848.0 -140.0 850.0 -136.0 856.0 -132.0 869.0 -129.0 884.0 -129.0 920.0 -129.0 920.0 -165.0 920.0 -184.0 915.0 -224.0 910.0 -280.0 903.0 -328.0 893.0 -404.0 879.0 -440.0 861.0 -484.0 852.0 -484.0 L852.0 -484.0 M340.0 -85.0 L340.0 -85.0 Q344.0 -81.0 350.0 -81.0 394.0 -77.0 435.0 -72.0 434.0 -33.0 434.0 3.0 439.0 68.0 445.0 91.0 454.0 124.0 465.0 124.0 473.0 124.0 475.0 80.0 475.0 51.0 480.0 -45.0 480.0 -60.0 480.0 -72.0 485.0 -72.0 490.0 -72.0 519.0 -72.0 538.0 -68.0 557.0 -68.0 561.0 -48.0 570.0 -37.0 570.0 -16.0 570.0 7.0 539.0 24.0 541.0 32.0 568.0 36.0 608.0 36.0 608.0 -16.0 608.0 -41.0 600.0 -64.0 598.0 -77.0 581.0 -92.0 563.0 -104.0 518.0 -108.0 499.0 -108.0 479.0 -112.0 476.0 -184.0 467.0 -224.0 459.0 -264.0 450.0 -264.0 443.0 -264.0 441.0 -224.0 438.0 -169.0 436.0 -112.0 422.0 -112.0 408.0 -112.0 385.0 -117.0 359.0 -117.0 342.0 -112.0 332.0 -112.0 328.0 -125.0 322.0 -132.0 312.0 -148.0 309.0 -148.0 305.0 -148.0 305.0 -136.0 305.0 -112.0 307.0 -88.0 311.0 -56.0 318.0 -20.0 326.0 11.0 333.0 28.0 344.0 43.0 349.0 43.0 352.0 43.0 356.0 36.0 359.0 28.0 361.0 16.0 361.0 7.0 354.0 -24.0 348.0 -52.0 340.0 -85.0 L340.0 -85.0 M567.0 -469.0 L567.0 -469.0 Q580.0 -480.0 589.0 -505.0 601.0 -536.0 601.0 -561.0 601.0 -608.0 554.0 -629.0 505.0 -645.0 446.0 -652.0 297.0 -668.0 213.0 -668.0 140.0 -668.0 140.0 -660.0 140.0 -645.0 276.0 -629.0 329.0 -624.0 383.0 -616.0 434.0 -612.0 467.0 -605.0 510.0 -597.0 531.0 -584.0 554.0 -572.0 554.0 -549.0 L547.0 -469.0 Q547.0 -469.0 547.0 -469.0 509.0 -476.0 432.0 -476.0 367.0 -480.0 302.0 -484.0 230.0 -484.0 199.0 -480.0 220.0 -553.0 224.0 -584.0 224.0 -589.0 222.0 -589.0 220.0 -589.0 203.0 -564.0 165.0 -496.0 129.0 -392.0 78.0 -245.0 58.0 -136.0 58.0 -129.0 62.0 -129.0 68.0 -129.0 85.0 -152.0 124.0 -240.0 156.0 -345.0 177.0 -408.0 193.0 -461.0 214.0 -452.0 260.0 -448.0 308.0 -436.0 380.0 -436.0 584.0 -436.0 585.0 -452.0 585.0 -465.0 567.0 -469.0 L567.0 -469.0" fill-rule="evenodd" stroke="none"/>
    </g>
    <g id="font_DFPTongTong-B5__6">
      <path d="M401.0 36.0 L401.0 36.0 Q403.0 24.0 404.0 16.0 418.0 -41.0 418.0 -81.0 418.0 -108.0 412.0 -108.0 408.0 -108.0 403.0 -100.0 387.0 -60.0 368.0 -4.0 353.0 36.0 342.0 87.0 342.0 120.0 351.0 124.0 364.0 120.0 372.0 108.0 389.0 76.0 398.0 43.0 430.0 76.0 472.0 95.0 515.0 112.0 558.0 112.0 611.0 112.0 611.0 100.0 611.0 95.0 566.0 84.0 527.0 72.0 498.0 64.0 467.0 56.0 441.0 47.0 413.0 40.0 401.0 36.0 L401.0 36.0 M522.0 -580.0 L522.0 -580.0 Q516.0 -584.0 490.0 -589.0 472.0 -589.0 452.0 -589.0 429.0 -589.0 407.0 -589.0 387.0 -589.0 378.0 -584.0 372.0 -629.0 365.0 -673.0 356.0 -717.0 350.0 -717.0 346.0 -717.0 344.0 -700.0 343.0 -637.0 343.0 -580.0 344.0 -513.0 356.0 -469.0 369.0 -436.0 385.0 -433.0 392.0 -433.0 392.0 -452.0 392.0 -456.0 392.0 -461.0 398.0 -461.0 407.0 -456.0 432.0 -452.0 473.0 -452.0 507.0 -452.0 537.0 -461.0 559.0 -465.0 559.0 -469.0 559.0 -473.0 551.0 -476.0 546.0 -476.0 534.0 -480.0 537.0 -484.0 540.0 -492.0 561.0 -553.0 568.0 -637.0 568.0 -689.0 493.0 -704.0 428.0 -712.0 390.0 -712.0 375.0 -708.0 375.0 -704.0 375.0 -700.0 392.0 -689.0 443.0 -673.0 503.0 -664.0 526.0 -660.0 526.0 -641.0 526.0 -612.0 522.0 -580.0 L522.0 -580.0 M380.0 -572.0 L380.0 -572.0 Q387.0 -572.0 398.0 -568.0 425.0 -561.0 457.0 -561.0 493.0 -561.0 508.0 -564.0 517.0 -568.0 522.0 -572.0 517.0 -536.0 508.0 -492.0 508.0 -484.0 508.0 -480.0 487.0 -484.0 466.0 -484.0 452.0 -484.0 418.0 -480.0 400.0 -476.0 392.0 -473.0 390.0 -513.0 383.0 -557.0 381.0 -564.0 380.0 -572.0 L380.0 -572.0 M564.0 -276.0 L564.0 -276.0 Q887.0 -276.0 889.0 -289.0 889.0 -301.0 851.0 -304.0 813.0 -312.0 736.0 -312.0 466.0 -316.0 199.0 -320.0 71.0 -320.0 71.0 -308.0 71.0 -293.0 242.0 -284.0 337.0 -272.0 480.0 -272.0 512.0 -272.0 542.0 -276.0 541.0 -272.0 541.0 -268.0 537.0 -232.0 532.0 -165.0 532.0 -48.0 545.0 -16.0 551.0 -1.0 555.0 -1.0 566.0 -1.0 572.0 -56.0 572.0 -81.0 572.0 -112.0 573.0 -112.0 575.0 -108.0 599.0 -104.0 629.0 -100.0 660.0 -100.0 675.0 -108.0 690.0 -117.0 690.0 -121.0 690.0 -129.0 659.0 -132.0 642.0 -132.0 624.0 -132.0 603.0 -132.0 583.0 -132.0 577.0 -132.0 571.0 -132.0 571.0 -161.0 570.0 -192.0 568.0 -232.0 564.0 -272.0 564.0 -272.0 564.0 -276.0 L564.0 -276.0" fill-rule="evenodd" stroke="none"/>
    </g>
    <g id="font_DFPTongTong-B5__8">
      <path d="M375.0 -253.0 L375.0 -253.0 Q366.0 -253.0 354.0 -257.0 338.0 -257.0 321.0 -257.0 321.0 -293.0 319.0 -328.0 334.0 -324.0 349.0 -324.0 377.0 -320.0 377.0 -301.0 377.0 -280.0 375.0 -253.0 L375.0 -253.0 M321.0 -224.0 L321.0 -224.0 Q355.0 -228.0 373.0 -232.0 370.0 -205.0 366.0 -176.0 366.0 -173.0 366.0 -165.0 343.0 -165.0 322.0 -165.0 322.0 -196.0 321.0 -224.0 L321.0 -224.0 M222.0 -236.0 L222.0 -236.0 Q227.0 -236.0 234.0 -236.0 256.0 -232.0 280.0 -228.0 280.0 -196.0 280.0 -165.0 279.0 -165.0 278.0 -165.0 251.0 -165.0 238.0 -161.0 231.0 -192.0 222.0 -236.0 L222.0 -236.0 M315.0 -549.0 L315.0 -549.0 Q350.0 -549.0 388.0 -545.0 424.0 -545.0 456.0 -549.0 477.0 -549.0 478.0 -553.0 477.0 -561.0 451.0 -568.0 412.0 -576.0 365.0 -584.0 346.0 -589.0 314.0 -593.0 312.0 -648.0 309.0 -692.0 301.0 -733.0 294.0 -733.0 288.0 -733.0 286.0 -692.0 285.0 -645.0 284.0 -597.0 253.0 -601.0 214.0 -605.0 169.0 -605.0 138.0 -601.0 114.0 -601.0 114.0 -597.0 114.0 -584.0 228.0 -564.0 254.0 -561.0 283.0 -557.0 282.0 -461.0 281.0 -368.0 245.0 -373.0 219.0 -373.0 202.0 -368.0 202.0 -364.0 202.0 -356.0 221.0 -345.0 250.0 -337.0 281.0 -333.0 280.0 -297.0 280.0 -257.0 262.0 -257.0 245.0 -257.0 229.0 -257.0 218.0 -253.0 209.0 -304.0 200.0 -341.0 196.0 -368.0 185.0 -368.0 179.0 -368.0 179.0 -312.0 179.0 -264.0 191.0 -217.0 205.0 -173.0 224.0 -140.0 230.0 -132.0 237.0 -132.0 243.0 -132.0 243.0 -140.0 242.0 -144.0 242.0 -144.0 250.0 -144.0 264.0 -140.0 271.0 -140.0 280.0 -140.0 280.0 -136.0 280.0 -132.0 281.0 -77.0 283.0 -37.0 266.0 -37.0 252.0 -37.0 225.0 -33.0 199.0 -28.0 180.0 -24.0 180.0 -20.0 180.0 -12.0 211.0 -4.0 247.0 3.0 282.0 3.0 284.0 3.0 285.0 3.0 287.0 40.0 290.0 64.0 298.0 131.0 307.0 131.0 315.0 131.0 317.0 91.0 317.0 72.0 321.0 3.0 361.0 3.0 385.0 -1.0 421.0 -8.0 421.0 -20.0 421.0 -28.0 378.0 -33.0 348.0 -33.0 322.0 -37.0 322.0 -88.0 322.0 -136.0 330.0 -136.0 338.0 -136.0 399.0 -136.0 401.0 -156.0 401.0 -161.0 392.0 -165.0 396.0 -173.0 399.0 -180.0 417.0 -228.0 423.0 -297.0 423.0 -348.0 336.0 -364.0 328.0 -364.0 319.0 -364.0 317.0 -469.0 315.0 -549.0 L315.0 -549.0 M717.0 -41.0 L717.0 -41.0 Q723.0 -56.0 729.0 -72.0 764.0 -165.0 764.0 -200.0 764.0 -217.0 761.0 -217.0 759.0 -217.0 754.0 -209.0 726.0 -161.0 694.0 -96.0 662.0 -16.0 662.0 28.0 662.0 56.0 667.0 56.0 671.0 56.0 674.0 51.0 689.0 24.0 710.0 -24.0 733.0 -1.0 766.0 16.0 802.0 36.0 846.0 40.0 915.0 40.0 915.0 32.0 915.0 28.0 879.0 20.0 846.0 11.0 797.0 -8.0 754.0 -24.0 717.0 -41.0 L717.0 -41.0 M629.0 -456.0 L629.0 -456.0 Q648.0 -440.0 698.0 -425.0 778.0 -396.0 812.0 -385.0 851.0 -368.0 851.0 -345.0 851.0 -328.0 842.0 -301.0 842.0 -293.0 849.0 -293.0 865.0 -293.0 879.0 -312.0 892.0 -341.0 892.0 -356.0 892.0 -392.0 843.0 -417.0 813.0 -429.0 736.0 -448.0 667.0 -465.0 636.0 -469.0 665.0 -524.0 670.0 -568.0 670.0 -572.0 666.0 -572.0 662.0 -572.0 657.0 -564.0 632.0 -528.0 591.0 -461.0 561.0 -400.0 543.0 -345.0 543.0 -337.0 547.0 -333.0 553.0 -333.0 557.0 -337.0 599.0 -389.0 624.0 -444.0 626.0 -448.0 629.0 -456.0 L629.0 -456.0" fill-rule="evenodd" stroke="none"/>
    </g>
    <g id="font_DFPTongTong-B5__9">
      <path d="M807.0 -700.0 L807.0 -700.0 Q677.0 -685.0 492.0 -645.0 300.0 -597.0 173.0 -557.0 166.0 -553.0 166.0 -549.0 166.0 -545.0 178.0 -545.0 348.0 -561.0 543.0 -608.0 688.0 -637.0 811.0 -689.0 816.0 -692.0 816.0 -696.0 816.0 -700.0 807.0 -700.0 L807.0 -700.0 M509.0 -308.0 L509.0 -308.0 Q567.0 -308.0 599.0 -312.0 646.0 -320.0 646.0 -337.0 646.0 -345.0 591.0 -348.0 547.0 -348.0 507.0 -348.0 507.0 -373.0 506.0 -396.0 500.0 -448.0 489.0 -448.0 483.0 -448.0 481.0 -412.0 479.0 -381.0 478.0 -348.0 451.0 -348.0 425.0 -348.0 390.0 -348.0 355.0 -345.0 332.0 -341.0 332.0 -337.0 332.0 -324.0 371.0 -316.0 418.0 -308.0 464.0 -304.0 470.0 -304.0 475.0 -308.0 473.0 -260.0 472.0 -213.0 471.0 -205.0 471.0 -192.0 440.0 -192.0 412.0 -192.0 372.0 -192.0 332.0 -188.0 303.0 -184.0 303.0 -180.0 303.0 -169.0 349.0 -161.0 403.0 -152.0 458.0 -148.0 463.0 -148.0 469.0 -148.0 468.0 -88.0 468.0 -52.0 474.0 16.0 508.0 43.0 550.0 76.0 633.0 76.0 666.0 76.0 688.0 68.0 709.0 64.0 711.0 47.0 711.0 40.0 707.0 24.0 700.0 3.0 694.0 3.0 690.0 3.0 677.0 28.0 672.0 36.0 660.0 36.0 649.0 40.0 623.0 40.0 565.0 40.0 542.0 28.0 522.0 20.0 516.0 -12.0 511.0 -41.0 510.0 -148.0 577.0 -152.0 613.0 -156.0 668.0 -165.0 668.0 -180.0 668.0 -188.0 603.0 -192.0 554.0 -192.0 510.0 -192.0 509.0 -205.0 510.0 -217.0 510.0 -264.0 509.0 -308.0 L509.0 -308.0" fill-rule="evenodd" stroke="none"/>
    </g>
  </defs>
</svg>
