<?xml version="1.0" encoding="UTF-8" standalone="no"?>
<svg xmlns:xlink="http://www.w3.org/1999/xlink" height="94.3px" width="250.75px" xmlns="http://www.w3.org/2000/svg">
  <g transform="matrix(1.0, 0.0, 0.0, 1.0, 51.8, -0.65)">
    <g transform="matrix(1.0, 0.0, 0.0, 1.0, -59.5, 0.0)">
      <use fill="#ffffff" height="94.3" transform="matrix(0.0428, 0.0, 0.0, 0.0428, 9.0, 35.0)" width="250.75" xlink:href="#font_DFPTongTong-B5__0"/>
      <use fill="#ffffff" height="94.3" transform="matrix(0.0428, 0.0, 0.0, 0.0428, 52.8, 35.0)" width="250.75" xlink:href="#font_DFPTongTong-B5__1"/>
      <use fill="#ffffff" height="94.3" transform="matrix(0.0428, 0.0, 0.0, 0.0428, 96.6, 35.0)" width="250.75" xlink:href="#font_DFPTongTong-B5__2"/>
    </g>
    <g transform="matrix(1.0, 0.0, 0.0, 1.0, -59.5, 0.0)">
      <use fill="#ff6648" height="94.3" transform="matrix(0.0428, 0.0, 0.0, 0.0428, 140.4, 35.0)" width="250.75" xlink:href="#font_DFPTongTong-B5_30"/>
    </g>
    <g transform="matrix(1.0, 0.0, 0.0, 1.0, -59.5, 0.0)">
      <use fill="#ff6648" height="94.3" transform="matrix(0.0428, 0.0, 0.0, 0.0428, 166.65, 35.0)" width="250.75" xlink:href="#font_DFPTongTong-B5__3"/>
      <use fill="#ff6648" height="94.3" transform="matrix(0.0428, 0.0, 0.0, 0.0428, 210.45, 35.0)" width="250.75" xlink:href="#font_DFPTongTong-B5__4"/>
    </g>
    <g transform="matrix(1.0, 0.0, 0.0, 1.0, -59.5, 0.0)">
      <use fill="#ffffff" height="94.3" transform="matrix(0.0428, 0.0, 0.0, 0.0428, 0.0, 88.0)" width="250.75" xlink:href="#font_DFPTongTong-B5__5"/>
      <use fill="#ffffff" height="94.3" transform="matrix(0.0428, 0.0, 0.0, 0.0428, 43.8, 88.0)" width="250.75" xlink:href="#font_DFPTongTong-B5__6"/>
      <use fill="#ffffff" height="94.3" transform="matrix(0.0428, 0.0, 0.0, 0.0428, 87.6, 88.0)" width="250.75" xlink:href="#font_DFPTongTong-B5__0"/>
      <use fill="#ffffff" height="94.3" transform="matrix(0.0428, 0.0, 0.0, 0.0428, 131.4, 88.0)" width="250.75" xlink:href="#font_DFPTongTong-B5__7"/>
    </g>
    <g transform="matrix(1.0, 0.0, 0.0, 1.0, -59.5, 0.0)">
      <use fill="#ff6648" height="94.3" transform="matrix(0.0428, 0.0, 0.0, 0.0428, 175.2, 88.0)" width="250.75" xlink:href="#font_DFPTongTong-B5__8"/>
      <use fill="#ff6648" height="94.3" transform="matrix(0.0428, 0.0, 0.0, 0.0428, 219.0, 88.0)" width="250.75" xlink:href="#font_DFPTongTong-B5__9"/>
    </g>
  </g>
  <defs>
    <g id="font_DFPTongTong-B5__0">
      <path d="M783.0 -620.0 L783.0 -620.0 Q776.0 -620.0 776.0 -616.0 777.0 -605.0 799.0 -584.0 813.0 -572.0 824.0 -561.0 856.0 -536.0 884.0 -536.0 902.0 -536.0 902.0 -549.0 902.0 -572.0 852.0 -601.0 806.0 -620.0 783.0 -620.0 L783.0 -620.0 M499.0 -681.0 L499.0 -681.0 Q453.0 -668.0 312.0 -612.0 189.0 -564.0 134.0 -536.0 119.0 -532.0 119.0 -524.0 119.0 -520.0 128.0 -520.0 239.0 -536.0 342.0 -580.0 430.0 -608.0 503.0 -664.0 509.0 -668.0 512.0 -677.0 508.0 -681.0 499.0 -681.0 L499.0 -681.0 M647.0 -341.0 L647.0 -341.0 Q536.0 -337.0 417.0 -333.0 385.0 -333.0 355.0 -328.0 350.0 -373.0 343.0 -404.0 327.0 -469.0 317.0 -469.0 315.0 -465.0 315.0 -461.0 321.0 -389.0 325.0 -328.0 244.0 -324.0 188.0 -320.0 142.0 -308.0 138.0 -304.0 140.0 -289.0 239.0 -289.0 278.0 -289.0 327.0 -289.0 334.0 -192.0 336.0 -112.0 329.0 -108.0 322.0 -104.0 219.0 -64.0 174.0 -41.0 161.0 -33.0 161.0 -28.0 161.0 -24.0 169.0 -24.0 256.0 -37.0 337.0 -77.0 339.0 -33.0 339.0 3.0 339.0 32.0 330.0 40.0 323.0 40.0 323.0 47.0 325.0 51.0 331.0 51.0 344.0 56.0 358.0 56.0 383.0 51.0 383.0 20.0 383.0 -12.0 378.0 -72.0 377.0 -81.0 377.0 -92.0 431.0 -117.0 478.0 -152.0 484.0 -156.0 486.0 -165.0 484.0 -169.0 476.0 -169.0 446.0 -161.0 375.0 -129.0 371.0 -184.0 367.0 -232.0 364.0 -264.0 360.0 -293.0 374.0 -293.0 388.0 -293.0 544.0 -297.0 651.0 -304.0 664.0 -196.0 693.0 -108.0 700.0 -88.0 708.0 -68.0 646.0 -20.0 614.0 3.0 610.0 7.0 610.0 16.0 612.0 20.0 618.0 20.0 677.0 -4.0 724.0 -33.0 772.0 60.0 848.0 72.0 888.0 72.0 890.0 43.0 890.0 36.0 884.0 36.0 871.0 43.0 852.0 43.0 799.0 28.0 758.0 -56.0 814.0 -104.0 840.0 -144.0 846.0 -156.0 846.0 -165.0 840.0 -165.0 833.0 -161.0 799.0 -136.0 742.0 -96.0 738.0 -104.0 735.0 -112.0 709.0 -213.0 692.0 -308.0 791.0 -316.0 836.0 -328.0 852.0 -333.0 852.0 -341.0 852.0 -345.0 829.0 -345.0 758.0 -345.0 686.0 -341.0 675.0 -421.0 670.0 -492.0 668.0 -517.0 664.0 -540.0 659.0 -564.0 655.0 -564.0 651.0 -564.0 642.0 -480.0 642.0 -408.0 647.0 -341.0 L647.0 -341.0" fill-rule="evenodd" stroke="none"/>
    </g>
    <g id="font_DFPTongTong-B5__1">
      <path d="M665.0 -316.0 L665.0 -316.0 Q662.0 -316.0 657.0 -308.0 648.0 -301.0 637.0 -284.0 627.0 -268.0 625.0 -260.0 625.0 -245.0 638.0 -236.0 644.0 -236.0 650.0 -245.0 658.0 -253.0 666.0 -260.0 672.0 -272.0 674.0 -284.0 674.0 -297.0 670.0 -308.0 668.0 -316.0 665.0 -316.0 L665.0 -316.0 M519.0 -712.0 L519.0 -712.0 Q546.0 -689.0 645.0 -633.0 771.0 -564.0 841.0 -557.0 847.0 -557.0 847.0 -564.0 843.0 -580.0 677.0 -668.0 591.0 -708.0 541.0 -725.0 554.0 -733.0 566.0 -740.0 574.0 -744.0 574.0 -752.0 572.0 -757.0 560.0 -757.0 423.0 -712.0 323.0 -668.0 172.0 -597.0 96.0 -545.0 88.0 -536.0 88.0 -532.0 90.0 -528.0 98.0 -528.0 171.0 -549.0 343.0 -629.0 450.0 -673.0 519.0 -712.0 L519.0 -712.0 M368.0 -312.0 L368.0 -312.0 Q359.0 -312.0 359.0 -308.0 360.0 -301.0 375.0 -284.0 383.0 -276.0 390.0 -268.0 411.0 -253.0 428.0 -253.0 450.0 -253.0 450.0 -264.0 450.0 -280.0 415.0 -297.0 383.0 -312.0 368.0 -312.0 L368.0 -312.0 M335.0 -200.0 L335.0 -200.0 Q355.0 -196.0 374.0 -192.0 395.0 -192.0 518.0 -192.0 662.0 -192.0 736.0 -205.0 803.0 -217.0 810.0 -228.0 810.0 -232.0 784.0 -232.0 787.0 -240.0 791.0 -245.0 801.0 -276.0 801.0 -312.0 801.0 -356.0 728.0 -368.0 647.0 -381.0 534.0 -389.0 438.0 -392.0 349.0 -392.0 307.0 -392.0 292.0 -389.0 289.0 -417.0 279.0 -417.0 272.0 -417.0 272.0 -360.0 272.0 -312.0 285.0 -272.0 298.0 -228.0 317.0 -200.0 324.0 -188.0 330.0 -188.0 336.0 -192.0 336.0 -196.0 335.0 -200.0 335.0 -200.0 L335.0 -200.0 M511.0 -220.0 L511.0 -220.0 Q370.0 -217.0 332.0 -213.0 325.0 -245.0 313.0 -297.0 304.0 -341.0 296.0 -377.0 301.0 -373.0 309.0 -368.0 347.0 -360.0 420.0 -356.0 460.0 -352.0 495.0 -348.0 497.0 -297.0 499.0 -268.0 501.0 -236.0 511.0 -224.0 511.0 -224.0 511.0 -220.0 L511.0 -220.0 M752.0 -232.0 L752.0 -232.0 Q660.0 -228.0 541.0 -224.0 543.0 -228.0 543.0 -236.0 543.0 -264.0 528.0 -312.0 524.0 -333.0 517.0 -348.0 524.0 -348.0 529.0 -345.0 573.0 -341.0 634.0 -337.0 674.0 -333.0 700.0 -333.0 723.0 -328.0 738.0 -324.0 755.0 -320.0 755.0 -301.0 755.0 -268.0 751.0 -240.0 751.0 -236.0 752.0 -232.0 L752.0 -232.0 M512.0 87.0 L512.0 87.0 Q497.0 87.0 480.0 87.0 468.0 87.0 439.0 91.0 434.0 91.0 429.0 91.0 428.0 80.0 422.0 47.0 420.0 32.0 416.0 16.0 421.0 20.0 428.0 20.0 458.0 28.0 483.0 28.0 502.0 28.0 513.0 24.0 513.0 47.0 512.0 76.0 512.0 84.0 512.0 87.0 L512.0 87.0 M427.0 112.0 L427.0 112.0 Q428.0 112.0 430.0 112.0 453.0 116.0 486.0 116.0 515.0 116.0 541.0 112.0 560.0 104.0 560.0 100.0 560.0 95.0 553.0 95.0 549.0 91.0 539.0 91.0 544.0 84.0 548.0 76.0 559.0 24.0 562.0 -45.0 562.0 -88.0 504.0 -104.0 454.0 -108.0 425.0 -108.0 407.0 -108.0 407.0 -104.0 407.0 -96.0 427.0 -85.0 460.0 -72.0 499.0 -68.0 515.0 -64.0 515.0 -52.0 515.0 -28.0 514.0 -1.0 480.0 -4.0 437.0 -4.0 422.0 -4.0 413.0 -1.0 409.0 -20.0 404.0 -37.0 398.0 -60.0 389.0 -81.0 381.0 -100.0 377.0 -100.0 373.0 -100.0 373.0 -88.0 373.0 -56.0 375.0 -28.0 379.0 7.0 386.0 56.0 393.0 91.0 400.0 112.0 412.0 128.0 417.0 128.0 421.0 128.0 424.0 120.0 426.0 116.0 427.0 112.0 L427.0 112.0 M509.0 -540.0 L509.0 -540.0 Q477.0 -540.0 445.0 -536.0 391.0 -536.0 391.0 -528.0 391.0 -524.0 434.0 -517.0 471.0 -509.0 517.0 -505.0 567.0 -505.0 589.0 -513.0 613.0 -520.0 613.0 -524.0 613.0 -532.0 565.0 -536.0 539.0 -540.0 509.0 -540.0 L509.0 -540.0" fill-rule="evenodd" stroke="none"/>
    </g>
    <g id="font_DFPTongTong-B5__2">
      <path d="M508.0 -100.0 L508.0 -100.0 Q504.0 -100.0 504.0 -96.0 508.0 -72.0 542.0 -41.0 566.0 -16.0 588.0 -16.0 602.0 -16.0 602.0 -33.0 602.0 -41.0 586.0 -52.0 563.0 -68.0 542.0 -81.0 515.0 -100.0 508.0 -100.0 L508.0 -100.0 M519.0 -272.0 L519.0 -272.0 Q515.0 -272.0 515.0 -268.0 532.0 -245.0 553.0 -217.0 574.0 -192.0 586.0 -192.0 601.0 -192.0 602.0 -209.0 602.0 -232.0 579.0 -253.0 548.0 -268.0 519.0 -272.0 L519.0 -272.0 M717.0 -121.0 L717.0 -121.0 Q736.0 -121.0 756.0 -121.0 792.0 -121.0 824.0 -125.0 845.0 -125.0 847.0 -129.0 844.0 -136.0 787.0 -144.0 754.0 -148.0 717.0 -148.0 718.0 -184.0 718.0 -209.0 718.0 -268.0 716.0 -293.0 711.0 -341.0 603.0 -348.0 541.0 -348.0 473.0 -345.0 464.0 -345.0 464.0 -341.0 464.0 -337.0 521.0 -324.0 552.0 -316.0 591.0 -312.0 614.0 -308.0 652.0 -308.0 677.0 -304.0 677.0 -289.0 677.0 -213.0 676.0 -152.0 643.0 -156.0 608.0 -161.0 555.0 -165.0 447.0 -169.0 449.0 -188.0 450.0 -209.0 453.0 -257.0 454.0 -301.0 454.0 -356.0 441.0 -356.0 432.0 -356.0 422.0 -301.0 415.0 -257.0 411.0 -213.0 409.0 -188.0 407.0 -173.0 355.0 -176.0 293.0 -176.0 248.0 -176.0 217.0 -176.0 193.0 -176.0 193.0 -173.0 193.0 -161.0 404.0 -140.0 404.0 -136.0 404.0 -129.0 404.0 -64.0 413.0 -28.0 423.0 3.0 438.0 20.0 457.0 36.0 482.0 43.0 520.0 51.0 610.0 51.0 640.0 51.0 670.0 47.0 666.0 64.0 656.0 68.0 652.0 68.0 652.0 76.0 666.0 87.0 684.0 87.0 708.0 84.0 712.0 36.0 714.0 36.0 716.0 36.0 748.0 24.0 752.0 11.0 752.0 3.0 733.0 3.0 723.0 7.0 714.0 7.0 714.0 7.0 714.0 7.0 716.0 -68.0 717.0 -121.0 L717.0 -121.0 M446.0 -136.0 L446.0 -136.0 Q549.0 -129.0 676.0 -121.0 675.0 -117.0 675.0 -108.0 675.0 -37.0 674.0 7.0 674.0 11.0 673.0 16.0 667.0 16.0 658.0 16.0 626.0 20.0 584.0 20.0 560.0 20.0 522.0 16.0 484.0 11.0 472.0 3.0 456.0 -8.0 451.0 -41.0 446.0 -72.0 446.0 -136.0 446.0 -136.0 446.0 -136.0 L446.0 -136.0 M378.0 -576.0 L378.0 -576.0 Q413.0 -568.0 494.0 -557.0 580.0 -540.0 692.0 -536.0 728.0 -536.0 760.0 -540.0 781.0 -540.0 782.0 -545.0 781.0 -553.0 746.0 -561.0 698.0 -568.0 640.0 -576.0 588.0 -584.0 450.0 -597.0 414.0 -597.0 387.0 -593.0 419.0 -660.0 426.0 -712.0 L426.0 -717.0 Q426.0 -717.0 425.0 -712.0 377.0 -660.0 327.0 -568.0 267.0 -465.0 245.0 -400.0 245.0 -396.0 246.0 -396.0 247.0 -396.0 247.0 -396.0 292.0 -429.0 348.0 -524.0 365.0 -549.0 378.0 -576.0 L378.0 -576.0" fill-rule="evenodd" stroke="none"/>
    </g>
    <g id="font_DFPTongTong-B5_30">
      <path d="M414.0 -100.0 L414.0 -100.0 Q414.0 -234.0 238.0 -289.0 309.0 -335.0 342.0 -369.0 391.0 -422.0 391.0 -481.0 391.0 -552.0 327.0 -583.0 284.0 -604.0 222.0 -604.0 162.0 -604.0 93.0 -574.0 31.0 -547.0 31.0 -531.0 31.0 -526.0 38.0 -526.0 41.0 -526.0 109.0 -541.0 177.0 -557.0 222.0 -557.0 344.0 -557.0 344.0 -481.0 344.0 -433.0 302.0 -387.0 278.0 -360.0 222.0 -322.0 180.0 -293.0 180.0 -283.0 180.0 -272.0 227.0 -254.0 287.0 -229.0 314.0 -206.0 361.0 -165.0 361.0 -100.0 361.0 -57.0 323.0 -21.0 281.0 18.0 222.0 18.0 180.0 18.0 136.0 7.0 91.0 -3.0 92.0 -3.0 86.0 -3.0 86.0 2.0 86.0 20.0 131.0 40.0 177.0 61.0 231.0 61.0 304.0 61.0 358.0 15.0 414.0 -33.0 414.0 -100.0" fill-rule="evenodd" stroke="none"/>
    </g>
    <g id="font_DFPTongTong-B5__3">
      <path d="M194.0 -360.0 L194.0 -360.0 Q212.0 -364.0 228.0 -373.0 310.0 -408.0 337.0 -436.0 343.0 -436.0 344.0 -444.0 344.0 -452.0 325.0 -452.0 266.0 -440.0 207.0 -412.0 165.0 -392.0 123.0 -364.0 94.0 -348.0 94.0 -341.0 96.0 -337.0 106.0 -337.0 142.0 -345.0 174.0 -352.0 182.0 -240.0 203.0 -156.0 220.0 -88.0 232.0 -64.0 238.0 -56.0 244.0 -56.0 249.0 -60.0 249.0 -68.0 246.0 -125.0 232.0 -205.0 221.0 -272.0 200.0 -348.0 197.0 -352.0 194.0 -360.0 L194.0 -360.0 M707.0 -96.0 L707.0 -96.0 Q680.0 -96.0 648.0 -96.0 636.0 -96.0 627.0 -96.0 627.0 -96.0 627.0 -96.0 627.0 -117.0 613.0 -161.0 620.0 -161.0 627.0 -156.0 L671.0 -156.0 Q696.0 -152.0 698.0 -140.0 702.0 -125.0 705.0 -100.0 706.0 -96.0 707.0 -96.0 L707.0 -96.0 M626.0 -77.0 L626.0 -77.0 Q631.0 -77.0 637.0 -72.0 671.0 -68.0 700.0 -68.0 753.0 -68.0 755.0 -81.0 755.0 -88.0 738.0 -88.0 735.0 -92.0 732.0 -92.0 734.0 -92.0 736.0 -96.0 744.0 -104.0 744.0 -121.0 744.0 -136.0 740.0 -152.0 729.0 -184.0 675.0 -184.0 652.0 -184.0 625.0 -180.0 614.0 -180.0 608.0 -176.0 607.0 -180.0 606.0 -180.0 597.0 -213.0 589.0 -213.0 583.0 -213.0 583.0 -165.0 583.0 -125.0 591.0 -92.0 603.0 -52.0 618.0 -52.0 623.0 -56.0 625.0 -64.0 626.0 -68.0 626.0 -77.0 L626.0 -77.0 M713.0 -337.0 L713.0 -337.0 Q719.0 -337.0 726.0 -337.0 771.0 -337.0 793.0 -341.0 816.0 -345.0 816.0 -348.0 816.0 -356.0 767.0 -364.0 742.0 -373.0 713.0 -377.0 713.0 -412.0 708.0 -429.0 702.0 -448.0 694.0 -448.0 691.0 -448.0 687.0 -433.0 682.0 -404.0 679.0 -377.0 654.0 -381.0 627.0 -381.0 606.0 -381.0 563.0 -377.0 542.0 -373.0 542.0 -368.0 542.0 -360.0 600.0 -348.0 630.0 -345.0 673.0 -341.0 668.0 -297.0 667.0 -280.0 667.0 -260.0 670.0 -253.0 672.0 -245.0 678.0 -240.0 685.0 -245.0 691.0 -249.0 700.0 -257.0 702.0 -264.0 710.0 -276.0 713.0 -337.0 L713.0 -337.0 M909.0 60.0 L909.0 60.0 Q911.0 56.0 913.0 47.0 923.0 16.0 927.0 -41.0 928.0 -144.0 928.0 -232.0 923.0 -421.0 911.0 -505.0 911.0 -593.0 755.0 -605.0 631.0 -616.0 467.0 -620.0 431.0 -616.0 427.0 -612.0 440.0 -593.0 513.0 -580.0 583.0 -564.0 689.0 -564.0 776.0 -564.0 813.0 -561.0 847.0 -553.0 854.0 -540.0 884.0 -473.0 884.0 -129.0 882.0 -1.0 882.0 60.0 800.0 64.0 691.0 72.0 513.0 80.0 507.0 87.0 507.0 95.0 517.0 100.0 539.0 104.0 558.0 108.0 577.0 112.0 684.0 112.0 811.0 112.0 877.0 95.0 936.0 84.0 942.0 64.0 942.0 60.0 909.0 60.0 L909.0 60.0 M406.0 -561.0 L406.0 -561.0 Q395.0 -561.0 395.0 -473.0 393.0 -429.0 393.0 -408.0 399.0 -253.0 415.0 -112.0 436.0 43.0 454.0 104.0 460.0 116.0 468.0 116.0 475.0 112.0 475.0 91.0 475.0 51.0 452.0 -148.0 438.0 -284.0 430.0 -456.0 418.0 -561.0 406.0 -561.0 L406.0 -561.0" fill-rule="evenodd" stroke="none"/>
    </g>
    <g id="font_DFPTongTong-B5__4">
      <path d="M608.0 -612.0 L608.0 -612.0 Q538.0 -612.0 501.0 -608.0 466.0 -605.0 466.0 -601.0 466.0 -597.0 502.0 -589.0 529.0 -576.0 597.0 -572.0 622.0 -572.0 637.0 -568.0 652.0 -561.0 654.0 -545.0 L679.0 -280.0 Q688.0 -148.0 695.0 -20.0 695.0 3.0 691.0 20.0 688.0 28.0 681.0 36.0 681.0 43.0 690.0 43.0 701.0 47.0 714.0 47.0 739.0 43.0 741.0 7.0 741.0 -45.0 733.0 -169.0 728.0 -249.0 720.0 -328.0 711.0 -433.0 699.0 -532.0 693.0 -608.0 608.0 -612.0 L608.0 -612.0 M357.0 -200.0 L357.0 -200.0 Q365.0 -249.0 371.0 -293.0 377.0 -333.0 382.0 -368.0 391.0 -364.0 407.0 -360.0 443.0 -352.0 508.0 -348.0 544.0 -348.0 560.0 -352.0 580.0 -356.0 580.0 -360.0 580.0 -368.0 541.0 -381.0 493.0 -392.0 428.0 -392.0 413.0 -392.0 385.0 -389.0 406.0 -528.0 406.0 -557.0 406.0 -584.0 403.0 -605.0 401.0 -616.0 398.0 -616.0 387.0 -616.0 366.0 -517.0 312.0 -268.0 304.0 -100.0 302.0 -37.0 302.0 32.0 302.0 64.0 307.0 68.0 316.0 68.0 321.0 40.0 339.0 -72.0 355.0 -176.0 358.0 -176.0 362.0 -176.0 397.0 -169.0 453.0 -169.0 497.0 -169.0 537.0 -176.0 566.0 -188.0 566.0 -192.0 566.0 -196.0 558.0 -196.0 546.0 -200.0 510.0 -205.0 477.0 -209.0 442.0 -209.0 423.0 -209.0 378.0 -200.0 367.0 -200.0 357.0 -200.0 L357.0 -200.0" fill-rule="evenodd" stroke="none"/>
    </g>
    <g id="font_DFPTongTong-B5__5">
      <path d="M353.0 -161.0 L353.0 -161.0 Q346.0 -205.0 337.0 -260.0 345.0 -260.0 355.0 -257.0 403.0 -253.0 478.0 -253.0 480.0 -253.0 482.0 -253.0 476.0 -220.0 469.0 -188.0 467.0 -176.0 464.0 -165.0 406.0 -165.0 353.0 -161.0 L353.0 -161.0 M697.0 -165.0 L697.0 -165.0 Q699.0 -165.0 701.0 -173.0 715.0 -205.0 718.0 -253.0 722.0 -320.0 722.0 -364.0 722.0 -400.0 659.0 -417.0 616.0 -429.0 538.0 -433.0 539.0 -465.0 539.0 -501.0 536.0 -553.0 522.0 -553.0 519.0 -553.0 519.0 -549.0 515.0 -488.0 510.0 -433.0 496.0 -433.0 481.0 -433.0 400.0 -433.0 336.0 -433.0 318.0 -429.0 310.0 -429.0 305.0 -456.0 295.0 -456.0 288.0 -456.0 288.0 -396.0 288.0 -316.0 302.0 -245.0 317.0 -169.0 340.0 -125.0 347.0 -112.0 353.0 -112.0 359.0 -112.0 359.0 -121.0 358.0 -129.0 357.0 -136.0 409.0 -132.0 456.0 -132.0 442.0 -81.0 426.0 -33.0 392.0 -48.0 358.0 -68.0 350.0 -68.0 350.0 -60.0 373.0 -33.0 415.0 -1.0 392.0 60.0 365.0 116.0 365.0 120.0 368.0 124.0 383.0 120.0 406.0 95.0 428.0 72.0 443.0 40.0 446.0 32.0 451.0 24.0 475.0 40.0 506.0 56.0 609.0 108.0 733.0 116.0 775.0 112.0 777.0 104.0 777.0 95.0 707.0 84.0 625.0 68.0 541.0 28.0 503.0 11.0 463.0 -12.0 484.0 -68.0 499.0 -132.0 526.0 -132.0 552.0 -132.0 636.0 -132.0 683.0 -140.0 731.0 -148.0 731.0 -156.0 730.0 -161.0 697.0 -165.0 L697.0 -165.0 M536.0 -396.0 L536.0 -396.0 Q621.0 -392.0 653.0 -385.0 674.0 -377.0 674.0 -356.0 678.0 -308.0 678.0 -232.0 676.0 -205.0 676.0 -188.0 676.0 -176.0 676.0 -165.0 605.0 -165.0 524.0 -165.0 515.0 -165.0 506.0 -165.0 509.0 -180.0 511.0 -192.0 517.0 -224.0 521.0 -253.0 559.0 -253.0 595.0 -260.0 636.0 -268.0 636.0 -272.0 636.0 -276.0 627.0 -280.0 609.0 -284.0 560.0 -284.0 543.0 -284.0 525.0 -289.0 532.0 -341.0 536.0 -396.0 L536.0 -396.0 M311.0 -421.0 L311.0 -421.0 Q324.0 -417.0 350.0 -408.0 403.0 -400.0 495.0 -396.0 500.0 -396.0 506.0 -396.0 499.0 -341.0 489.0 -289.0 477.0 -289.0 465.0 -289.0 438.0 -289.0 377.0 -284.0 350.0 -280.0 334.0 -276.0 323.0 -360.0 311.0 -421.0 L311.0 -421.0 M306.0 -652.0 L306.0 -652.0 Q178.0 -652.0 178.0 -637.0 178.0 -624.0 329.0 -612.0 413.0 -605.0 539.0 -605.0 895.0 -605.0 897.0 -620.0 897.0 -633.0 859.0 -637.0 820.0 -641.0 744.0 -645.0 524.0 -648.0 306.0 -652.0 L306.0 -652.0" fill-rule="evenodd" stroke="none"/>
    </g>
    <g id="font_DFPTongTong-B5__6">
      <path d="M703.0 -301.0 L703.0 -301.0 Q715.0 -320.0 720.0 -333.0 732.0 -364.0 737.0 -392.0 737.0 -400.0 732.0 -400.0 726.0 -400.0 709.0 -373.0 678.0 -320.0 656.0 -284.0 634.0 -245.0 622.0 -220.0 622.0 -209.0 628.0 -209.0 636.0 -209.0 648.0 -224.0 667.0 -240.0 687.0 -276.0 691.0 -280.0 695.0 -289.0 706.0 -276.0 725.0 -257.0 759.0 -224.0 776.0 -224.0 790.0 -224.0 792.0 -232.0 792.0 -260.0 741.0 -289.0 722.0 -297.0 703.0 -301.0 L703.0 -301.0 M620.0 -652.0 L620.0 -652.0 Q652.0 -692.0 676.0 -736.0 676.0 -740.0 672.0 -740.0 669.0 -740.0 663.0 -736.0 612.0 -700.0 536.0 -624.0 466.0 -540.0 429.0 -488.0 429.0 -480.0 431.0 -480.0 437.0 -480.0 441.0 -484.0 467.0 -501.0 553.0 -580.0 578.0 -605.0 600.0 -629.0 611.0 -624.0 630.0 -620.0 695.0 -597.0 695.0 -572.0 695.0 -549.0 679.0 -513.0 679.0 -505.0 687.0 -505.0 711.0 -513.0 725.0 -536.0 737.0 -557.0 737.0 -576.0 737.0 -637.0 628.0 -652.0 624.0 -652.0 620.0 -652.0 L620.0 -652.0 M603.0 -469.0 L603.0 -469.0 Q541.0 -461.0 538.0 -456.0 538.0 -448.0 580.0 -440.0 637.0 -433.0 717.0 -429.0 767.0 -429.0 819.0 -425.0 852.0 -425.0 871.0 -412.0 890.0 -400.0 890.0 -373.0 889.0 -356.0 889.0 -316.0 888.0 -284.0 887.0 -253.0 887.0 -217.0 903.0 -217.0 914.0 -217.0 919.0 -257.0 L932.0 -364.0 Q932.0 -417.0 894.0 -440.0 856.0 -461.0 800.0 -465.0 702.0 -465.0 603.0 -469.0 L603.0 -469.0 M483.0 -433.0 L483.0 -433.0 Q477.0 -433.0 477.0 -373.0 477.0 -320.0 487.0 -276.0 499.0 -228.0 516.0 -196.0 523.0 -188.0 529.0 -188.0 536.0 -188.0 536.0 -196.0 529.0 -232.0 517.0 -301.0 508.0 -360.0 499.0 -404.0 495.0 -433.0 483.0 -433.0 L483.0 -433.0 M716.0 -37.0 L716.0 -37.0 Q786.0 -37.0 825.0 -41.0 881.0 -48.0 881.0 -60.0 881.0 -68.0 814.0 -72.0 772.0 -72.0 732.0 -72.0 757.0 -132.0 762.0 -161.0 762.0 -165.0 759.0 -165.0 757.0 -165.0 738.0 -140.0 718.0 -108.0 698.0 -72.0 654.0 -72.0 615.0 -72.0 574.0 -72.0 532.0 -68.0 504.0 -64.0 504.0 -60.0 504.0 -52.0 551.0 -45.0 607.0 -37.0 664.0 -33.0 671.0 -33.0 678.0 -33.0 676.0 -28.0 674.0 -24.0 630.0 72.0 612.0 139.0 612.0 148.0 617.0 148.0 623.0 148.0 640.0 124.0 650.0 104.0 660.0 87.0 666.0 100.0 676.0 108.0 705.0 135.0 750.0 139.0 796.0 139.0 796.0 131.0 796.0 128.0 783.0 124.0 709.0 95.0 668.0 72.0 686.0 36.0 701.0 -1.0 710.0 -20.0 716.0 -37.0 L716.0 -37.0 M237.0 -129.0 L237.0 -129.0 Q200.0 -117.0 166.0 -104.0 140.0 -100.0 140.0 -92.0 140.0 -85.0 204.0 -85.0 222.0 -85.0 239.0 -88.0 241.0 -56.0 241.0 -33.0 241.0 16.0 219.0 24.0 215.0 24.0 215.0 28.0 223.0 36.0 246.0 36.0 276.0 32.0 276.0 -20.0 276.0 -60.0 274.0 -100.0 293.0 -108.0 307.0 -117.0 341.0 -140.0 344.0 -161.0 344.0 -165.0 337.0 -165.0 334.0 -165.0 311.0 -152.0 293.0 -144.0 273.0 -140.0 269.0 -209.0 261.0 -284.0 258.0 -328.0 255.0 -368.0 301.0 -368.0 328.0 -373.0 374.0 -381.0 374.0 -396.0 374.0 -404.0 318.0 -408.0 284.0 -408.0 252.0 -408.0 247.0 -456.0 241.0 -501.0 220.0 -576.0 209.0 -580.0 205.0 -576.0 205.0 -564.0 205.0 -524.0 213.0 -469.0 214.0 -444.0 216.0 -408.0 184.0 -408.0 155.0 -408.0 121.0 -408.0 86.0 -404.0 62.0 -400.0 62.0 -396.0 62.0 -385.0 101.0 -377.0 147.0 -368.0 194.0 -368.0 207.0 -368.0 219.0 -368.0 223.0 -312.0 228.0 -240.0 234.0 -176.0 237.0 -129.0 L237.0 -129.0" fill-rule="evenodd" stroke="none"/>
    </g>
    <g id="font_DFPTongTong-B5__7">
      <path d="M309.0 -601.0 L309.0 -601.0 Q305.0 -601.0 296.0 -589.0 255.0 -549.0 188.0 -469.0 112.0 -368.0 93.0 -333.0 93.0 -324.0 97.0 -324.0 101.0 -324.0 108.0 -328.0 156.0 -352.0 217.0 -433.0 303.0 -536.0 313.0 -589.0 313.0 -601.0 309.0 -601.0 L309.0 -601.0 M330.0 -64.0 L330.0 -64.0 Q335.0 -72.0 339.0 -85.0 351.0 -129.0 354.0 -188.0 354.0 -236.0 290.0 -253.0 237.0 -260.0 205.0 -260.0 198.0 -260.0 194.0 -257.0 184.0 -276.0 180.0 -276.0 176.0 -276.0 176.0 -264.0 176.0 -228.0 178.0 -200.0 182.0 -161.0 190.0 -108.0 199.0 -68.0 207.0 -48.0 218.0 -33.0 224.0 -33.0 228.0 -33.0 232.0 -41.0 233.0 -45.0 234.0 -45.0 239.0 -45.0 244.0 -45.0 272.0 -37.0 296.0 -37.0 340.0 -37.0 342.0 -52.0 342.0 -60.0 330.0 -64.0 L330.0 -64.0 M309.0 -132.0 L309.0 -132.0 Q308.0 -108.0 306.0 -81.0 306.0 -72.0 307.0 -68.0 283.0 -68.0 253.0 -68.0 245.0 -68.0 239.0 -68.0 237.0 -81.0 230.0 -117.0 229.0 -121.0 227.0 -129.0 245.0 -125.0 269.0 -125.0 291.0 -125.0 309.0 -132.0 L309.0 -132.0 M202.0 -236.0 L202.0 -236.0 Q204.0 -236.0 207.0 -232.0 247.0 -220.0 293.0 -213.0 311.0 -209.0 311.0 -192.0 311.0 -176.0 311.0 -156.0 305.0 -156.0 299.0 -156.0 283.0 -156.0 264.0 -156.0 253.0 -156.0 229.0 -152.0 226.0 -152.0 223.0 -152.0 217.0 -180.0 211.0 -209.0 207.0 -224.0 202.0 -236.0 L202.0 -236.0 M575.0 -469.0 L575.0 -469.0 Q588.0 -465.0 605.0 -456.0 660.0 -440.0 742.0 -425.0 787.0 -417.0 836.0 -408.0 867.0 -400.0 870.0 -381.0 874.0 -320.0 876.0 -253.0 878.0 -184.0 880.0 -104.0 880.0 28.0 847.0 40.0 847.0 47.0 852.0 47.0 869.0 56.0 888.0 56.0 921.0 40.0 921.0 -200.0 921.0 -320.0 913.0 -385.0 905.0 -440.0 812.0 -461.0 756.0 -469.0 691.0 -473.0 631.0 -480.0 584.0 -484.0 618.0 -549.0 632.0 -616.0 632.0 -620.0 631.0 -620.0 629.0 -620.0 626.0 -616.0 578.0 -557.0 528.0 -473.0 489.0 -389.0 458.0 -304.0 458.0 -301.0 460.0 -301.0 462.0 -301.0 464.0 -301.0 518.0 -360.0 554.0 -433.0 565.0 -448.0 575.0 -469.0 L575.0 -469.0 M592.0 -140.0 L592.0 -140.0 Q584.0 -140.0 584.0 -136.0 586.0 -125.0 607.0 -108.0 622.0 -96.0 634.0 -88.0 666.0 -64.0 693.0 -64.0 716.0 -64.0 716.0 -77.0 716.0 -96.0 664.0 -121.0 615.0 -140.0 592.0 -140.0 L592.0 -140.0" fill-rule="evenodd" stroke="none"/>
    </g>
    <g id="font_DFPTongTong-B5__8">
      <path d="M335.0 -284.0 L335.0 -284.0 Q337.0 -293.0 337.0 -301.0 337.0 -337.0 323.0 -404.0 315.0 -440.0 303.0 -469.0 295.0 -480.0 291.0 -480.0 287.0 -480.0 287.0 -465.0 289.0 -385.0 291.0 -345.0 293.0 -308.0 303.0 -289.0 304.0 -289.0 305.0 -284.0 291.0 -284.0 275.0 -284.0 147.0 -284.0 147.0 -272.0 147.0 -257.0 298.0 -249.0 382.0 -236.0 508.0 -236.0 604.0 -236.0 676.0 -240.0 677.0 -217.0 679.0 -192.0 679.0 -176.0 680.0 -165.0 633.0 -144.0 501.0 -64.0 395.0 -1.0 366.0 36.0 364.0 47.0 364.0 56.0 373.0 56.0 376.0 56.0 474.0 -1.0 555.0 -48.0 640.0 -100.0 681.0 -144.0 688.0 -41.0 688.0 3.0 688.0 68.0 666.0 76.0 662.0 80.0 662.0 84.0 670.0 95.0 694.0 95.0 728.0 87.0 728.0 20.0 728.0 -100.0 714.0 -236.0 714.0 -236.0 714.0 -240.0 864.0 -245.0 865.0 -253.0 865.0 -264.0 827.0 -268.0 790.0 -276.0 714.0 -276.0 713.0 -280.0 712.0 -280.0 707.0 -373.0 697.0 -440.0 675.0 -528.0 662.0 -528.0 657.0 -528.0 657.0 -513.0 657.0 -469.0 666.0 -404.0 668.0 -364.0 673.0 -280.0 503.0 -280.0 335.0 -284.0 L335.0 -284.0 M422.0 -645.0 L422.0 -645.0 Q382.0 -645.0 301.0 -641.0 260.0 -637.0 260.0 -633.0 260.0 -624.0 371.0 -608.0 459.0 -601.0 609.0 -597.0 693.0 -597.0 733.0 -601.0 777.0 -605.0 777.0 -608.0 777.0 -616.0 686.0 -629.0 572.0 -641.0 422.0 -645.0 L422.0 -645.0" fill-rule="evenodd" stroke="none"/>
    </g>
    <g id="font_DFPTongTong-B5__9">
      <path d="M718.0 -396.0 L718.0 -396.0 Q714.0 -396.0 714.0 -377.0 716.0 -316.0 718.0 -284.0 720.0 -253.0 730.0 -236.0 739.0 -220.0 748.0 -220.0 754.0 -220.0 758.0 -228.0 762.0 -240.0 762.0 -249.0 762.0 -280.0 748.0 -333.0 741.0 -360.0 730.0 -385.0 722.0 -396.0 718.0 -396.0 L718.0 -396.0 M852.0 -484.0 L852.0 -484.0 Q850.0 -480.0 850.0 -473.0 873.0 -284.0 873.0 -180.0 873.0 -156.0 855.0 -148.0 848.0 -148.0 848.0 -140.0 850.0 -136.0 856.0 -132.0 869.0 -129.0 884.0 -129.0 920.0 -129.0 920.0 -165.0 920.0 -184.0 915.0 -224.0 910.0 -280.0 903.0 -328.0 893.0 -404.0 879.0 -440.0 861.0 -484.0 852.0 -484.0 L852.0 -484.0 M340.0 -85.0 L340.0 -85.0 Q344.0 -81.0 350.0 -81.0 394.0 -77.0 435.0 -72.0 434.0 -33.0 434.0 3.0 439.0 68.0 445.0 91.0 454.0 124.0 465.0 124.0 473.0 124.0 475.0 80.0 475.0 51.0 480.0 -45.0 480.0 -60.0 480.0 -72.0 485.0 -72.0 490.0 -72.0 519.0 -72.0 538.0 -68.0 557.0 -68.0 561.0 -48.0 570.0 -37.0 570.0 -16.0 570.0 7.0 539.0 24.0 541.0 32.0 568.0 36.0 608.0 36.0 608.0 -16.0 608.0 -41.0 600.0 -64.0 598.0 -77.0 581.0 -92.0 563.0 -104.0 518.0 -108.0 499.0 -108.0 479.0 -112.0 476.0 -184.0 467.0 -224.0 459.0 -264.0 450.0 -264.0 443.0 -264.0 441.0 -224.0 438.0 -169.0 436.0 -112.0 422.0 -112.0 408.0 -112.0 385.0 -117.0 359.0 -117.0 342.0 -112.0 332.0 -112.0 328.0 -125.0 322.0 -132.0 312.0 -148.0 309.0 -148.0 305.0 -148.0 305.0 -136.0 305.0 -112.0 307.0 -88.0 311.0 -56.0 318.0 -20.0 326.0 11.0 333.0 28.0 344.0 43.0 349.0 43.0 352.0 43.0 356.0 36.0 359.0 28.0 361.0 16.0 361.0 7.0 354.0 -24.0 348.0 -52.0 340.0 -85.0 L340.0 -85.0 M567.0 -469.0 L567.0 -469.0 Q580.0 -480.0 589.0 -505.0 601.0 -536.0 601.0 -561.0 601.0 -608.0 554.0 -629.0 505.0 -645.0 446.0 -652.0 297.0 -668.0 213.0 -668.0 140.0 -668.0 140.0 -660.0 140.0 -645.0 276.0 -629.0 329.0 -624.0 383.0 -616.0 434.0 -612.0 467.0 -605.0 510.0 -597.0 531.0 -584.0 554.0 -572.0 554.0 -549.0 L547.0 -469.0 Q547.0 -469.0 547.0 -469.0 509.0 -476.0 432.0 -476.0 367.0 -480.0 302.0 -484.0 230.0 -484.0 199.0 -480.0 220.0 -553.0 224.0 -584.0 224.0 -589.0 222.0 -589.0 220.0 -589.0 203.0 -564.0 165.0 -496.0 129.0 -392.0 78.0 -245.0 58.0 -136.0 58.0 -129.0 62.0 -129.0 68.0 -129.0 85.0 -152.0 124.0 -240.0 156.0 -345.0 177.0 -408.0 193.0 -461.0 214.0 -452.0 260.0 -448.0 308.0 -436.0 380.0 -436.0 584.0 -436.0 585.0 -452.0 585.0 -465.0 567.0 -469.0 L567.0 -469.0" fill-rule="evenodd" stroke="none"/>
    </g>
  </defs>
</svg>
