<?xml version="1.0" encoding="UTF-8" standalone="no"?>
<svg xmlns:xlink="http://www.w3.org/1999/xlink" height="85.8px" width="367.1px" xmlns="http://www.w3.org/2000/svg">
  <g transform="matrix(1.0, 0.0, 0.0, 1.0, -4.55, -0.1)">
    <g transform="matrix(1.0, 0.0, 0.0, 1.0, 0.0, 0.0)">
      <use fill="#ffffff" height="85.8" transform="matrix(0.0384, 0.0, 0.0, 0.0384, 0.0, 31.0)" width="367.1" xlink:href="#font_DFPTongTong-B5__0"/>
      <use fill="#ffffff" height="85.8" transform="matrix(0.0384, 0.0, 0.0, 0.0384, 39.3, 31.0)" width="367.1" xlink:href="#font_DFPTongTong-B5__1"/>
      <use fill="#ffffff" height="85.8" transform="matrix(0.0384, 0.0, 0.0, 0.0384, 78.6, 31.0)" width="367.1" xlink:href="#font_DFPTongTong-B5__2"/>
    </g>
    <g transform="matrix(1.0, 0.0, 0.0, 1.0, 0.0, 0.0)">
      <use fill="#ffffff" height="85.8" transform="matrix(0.0384, 0.0, 0.0, 0.0384, 117.9, 31.0)" width="367.1" xlink:href="#font_DFPTongTong-B5_.0"/>
    </g>
    <g transform="matrix(1.0, 0.0, 0.0, 1.0, 0.0, 0.0)">
      <use fill="#ffffff" height="85.8" transform="matrix(0.0384, 0.0, 0.0, 0.0384, 125.35, 31.0)" width="367.1" xlink:href="#font_DFPTongTong-B5__3"/>
    </g>
    <g transform="matrix(1.0, 0.0, 0.0, 1.0, 0.0, 0.0)">
      <use fill="#ffffff" height="85.8" transform="matrix(0.0384, 0.0, 0.0, 0.0384, 164.65, 31.0)" width="367.1" xlink:href="#font_DFPTongTong-B5_.0"/>
    </g>
    <g transform="matrix(1.0, 0.0, 0.0, 1.0, 0.0, 0.0)">
      <use fill="#ffffff" height="85.8" transform="matrix(0.0384, 0.0, 0.0, 0.0384, 172.1, 31.0)" width="367.1" xlink:href="#font_DFPTongTong-B5__4"/>
    </g>
    <g transform="matrix(1.0, 0.0, 0.0, 1.0, 0.0, 0.0)">
      <use fill="#ffffff" height="85.8" transform="matrix(0.0384, 0.0, 0.0, 0.0384, 211.4, 31.0)" width="367.1" xlink:href="#font_DFPTongTong-B5_.0"/>
    </g>
    <g transform="matrix(1.0, 0.0, 0.0, 1.0, 0.0, 0.0)">
      <use fill="#ffffff" height="85.8" transform="matrix(0.0384, 0.0, 0.0, 0.0384, 218.85, 31.0)" width="367.1" xlink:href="#font_DFPTongTong-B5__5"/>
      <use fill="#ffffff" height="85.8" transform="matrix(0.0384, 0.0, 0.0, 0.0384, 258.15, 31.0)" width="367.1" xlink:href="#font_DFPTongTong-B5__6"/>
      <use fill="#ffffff" height="85.8" transform="matrix(0.0384, 0.0, 0.0, 0.0384, 297.45, 31.0)" width="367.1" xlink:href="#font_DFPTongTong-B5__7"/>
      <use fill="#ffffff" height="85.8" transform="matrix(0.0384, 0.0, 0.0, 0.0384, 336.75, 31.0)" width="367.1" xlink:href="#font_DFPTongTong-B5__8"/>
    </g>
    <g transform="matrix(1.0, 0.0, 0.0, 1.0, 0.0, 0.0)">
      <use fill="#ffffff" height="85.8" transform="matrix(0.0384, 0.0, 0.0, 0.0384, 0.0, 79.0)" width="367.1" xlink:href="#font_DFPTongTong-B5__9"/>
      <use fill="#ffffff" height="85.8" transform="matrix(0.0384, 0.0, 0.0, 0.0384, 39.3, 79.0)" width="367.1" xlink:href="#font_DFPTongTong-B5__10"/>
      <use fill="#ffffff" height="85.8" transform="matrix(0.0384, 0.0, 0.0, 0.0384, 78.6, 79.0)" width="367.1" xlink:href="#font_DFPTongTong-B5__11"/>
      <use fill="#ffffff" height="85.8" transform="matrix(0.0384, 0.0, 0.0, 0.0384, 117.9, 79.0)" width="367.1" xlink:href="#font_DFPTongTong-B5__12"/>
      <use fill="#ffffff" height="85.8" transform="matrix(0.0384, 0.0, 0.0, 0.0384, 157.2, 79.0)" width="367.1" xlink:href="#font_DFPTongTong-B5__13"/>
      <use fill="#ffffff" height="85.8" transform="matrix(0.0384, 0.0, 0.0, 0.0384, 196.5, 79.0)" width="367.1" xlink:href="#font_DFPTongTong-B5__14"/>
      <use fill="#ffffff" height="85.8" transform="matrix(0.0384, 0.0, 0.0, 0.0384, 235.8, 79.0)" width="367.1" xlink:href="#font_DFPTongTong-B5__6"/>
      <use fill="#ffffff" height="85.8" transform="matrix(0.0384, 0.0, 0.0, 0.0384, 275.1, 79.0)" width="367.1" xlink:href="#font_DFPTongTong-B5__15"/>
      <use fill="#ffffff" height="85.8" transform="matrix(0.0384, 0.0, 0.0, 0.0384, 314.4, 79.0)" width="367.1" xlink:href="#font_DFPTongTong-B5__16"/>
    </g>
  </g>
  <defs>
    <g id="font_DFPTongTong-B5__0">
      <path d="M783.0 -620.0 L783.0 -620.0 Q776.0 -620.0 776.0 -616.0 777.0 -605.0 799.0 -584.0 813.0 -572.0 824.0 -561.0 856.0 -536.0 884.0 -536.0 902.0 -536.0 902.0 -549.0 902.0 -572.0 852.0 -601.0 806.0 -620.0 783.0 -620.0 L783.0 -620.0 M499.0 -681.0 L499.0 -681.0 Q453.0 -668.0 312.0 -612.0 189.0 -564.0 134.0 -536.0 119.0 -532.0 119.0 -524.0 119.0 -520.0 128.0 -520.0 239.0 -536.0 342.0 -580.0 430.0 -608.0 503.0 -664.0 509.0 -668.0 512.0 -677.0 508.0 -681.0 499.0 -681.0 L499.0 -681.0 M647.0 -341.0 L647.0 -341.0 Q536.0 -337.0 417.0 -333.0 385.0 -333.0 355.0 -328.0 350.0 -373.0 343.0 -404.0 327.0 -469.0 317.0 -469.0 315.0 -465.0 315.0 -461.0 321.0 -389.0 325.0 -328.0 244.0 -324.0 188.0 -320.0 142.0 -308.0 138.0 -304.0 140.0 -289.0 239.0 -289.0 278.0 -289.0 327.0 -289.0 334.0 -192.0 336.0 -112.0 329.0 -108.0 322.0 -104.0 219.0 -64.0 174.0 -41.0 161.0 -33.0 161.0 -28.0 161.0 -24.0 169.0 -24.0 256.0 -37.0 337.0 -77.0 339.0 -33.0 339.0 3.0 339.0 32.0 330.0 40.0 323.0 40.0 323.0 47.0 325.0 51.0 331.0 51.0 344.0 56.0 358.0 56.0 383.0 51.0 383.0 20.0 383.0 -12.0 378.0 -72.0 377.0 -81.0 377.0 -92.0 431.0 -117.0 478.0 -152.0 484.0 -156.0 486.0 -165.0 484.0 -169.0 476.0 -169.0 446.0 -161.0 375.0 -129.0 371.0 -184.0 367.0 -232.0 364.0 -264.0 360.0 -293.0 374.0 -293.0 388.0 -293.0 544.0 -297.0 651.0 -304.0 664.0 -196.0 693.0 -108.0 700.0 -88.0 708.0 -68.0 646.0 -20.0 614.0 3.0 610.0 7.0 610.0 16.0 612.0 20.0 618.0 20.0 677.0 -4.0 724.0 -33.0 772.0 60.0 848.0 72.0 888.0 72.0 890.0 43.0 890.0 36.0 884.0 36.0 871.0 43.0 852.0 43.0 799.0 28.0 758.0 -56.0 814.0 -104.0 840.0 -144.0 846.0 -156.0 846.0 -165.0 840.0 -165.0 833.0 -161.0 799.0 -136.0 742.0 -96.0 738.0 -104.0 735.0 -112.0 709.0 -213.0 692.0 -308.0 791.0 -316.0 836.0 -328.0 852.0 -333.0 852.0 -341.0 852.0 -345.0 829.0 -345.0 758.0 -345.0 686.0 -341.0 675.0 -421.0 670.0 -492.0 668.0 -517.0 664.0 -540.0 659.0 -564.0 655.0 -564.0 651.0 -564.0 642.0 -480.0 642.0 -408.0 647.0 -341.0 L647.0 -341.0" fill-rule="evenodd" stroke="none"/>
    </g>
    <g id="font_DFPTongTong-B5__1">
      <path d="M849.0 76.0 L849.0 76.0 Q830.0 72.0 823.0 60.0 817.0 47.0 817.0 16.0 817.0 -24.0 830.0 -96.0 842.0 -156.0 842.0 -176.0 842.0 -209.0 762.0 -232.0 690.0 -245.0 592.0 -245.0 563.0 -245.0 561.0 -240.0 561.0 -232.0 609.0 -220.0 658.0 -209.0 726.0 -200.0 790.0 -188.0 790.0 -165.0 778.0 -12.0 778.0 24.0 781.0 64.0 800.0 84.0 821.0 108.0 864.0 108.0 885.0 108.0 901.0 95.0 914.0 87.0 914.0 72.0 914.0 64.0 908.0 47.0 906.0 36.0 902.0 36.0 900.0 36.0 888.0 60.0 880.0 76.0 849.0 76.0 L849.0 76.0 M127.0 -360.0 L127.0 -360.0 Q126.0 -360.0 125.0 -364.0 115.0 -381.0 111.0 -381.0 106.0 -381.0 106.0 -368.0 106.0 -341.0 109.0 -320.0 113.0 -293.0 121.0 -257.0 129.0 -224.0 136.0 -213.0 148.0 -192.0 155.0 -192.0 159.0 -192.0 163.0 -200.0 165.0 -209.0 167.0 -217.0 172.0 -213.0 177.0 -213.0 209.0 -205.0 237.0 -205.0 286.0 -205.0 288.0 -224.0 288.0 -232.0 270.0 -232.0 269.0 -232.0 269.0 -232.0 270.0 -236.0 270.0 -236.0 279.0 -245.0 279.0 -260.0 279.0 -289.0 274.0 -328.0 261.0 -368.0 204.0 -368.0 179.0 -368.0 150.0 -364.0 135.0 -364.0 127.0 -360.0 L127.0 -360.0 M167.0 -236.0 L167.0 -236.0 Q165.0 -245.0 161.0 -260.0 153.0 -293.0 140.0 -328.0 138.0 -337.0 135.0 -341.0 142.0 -341.0 152.0 -341.0 L199.0 -337.0 Q230.0 -337.0 232.0 -316.0 237.0 -284.0 239.0 -240.0 239.0 -240.0 240.0 -236.0 215.0 -236.0 187.0 -236.0 175.0 -236.0 167.0 -236.0 L167.0 -236.0 M482.0 -572.0 L482.0 -572.0 Q516.0 -561.0 607.0 -545.0 694.0 -528.0 808.0 -524.0 849.0 -524.0 885.0 -528.0 908.0 -528.0 909.0 -532.0 908.0 -545.0 873.0 -553.0 825.0 -561.0 765.0 -568.0 713.0 -576.0 573.0 -589.0 524.0 -589.0 490.0 -589.0 547.0 -696.0 556.0 -736.0 556.0 -740.0 554.0 -740.0 552.0 -740.0 537.0 -721.0 486.0 -660.0 438.0 -576.0 372.0 -448.0 345.0 -360.0 345.0 -352.0 349.0 -352.0 354.0 -352.0 370.0 -377.0 421.0 -448.0 464.0 -536.0 473.0 -553.0 482.0 -572.0 L482.0 -572.0" fill-rule="evenodd" stroke="none"/>
    </g>
    <g id="font_DFPTongTong-B5__2">
      <path d="M711.0 47.0 L711.0 47.0 Q719.0 43.0 729.0 36.0 753.0 11.0 764.0 -4.0 793.0 -41.0 811.0 -88.0 827.0 -125.0 827.0 -148.0 827.0 -188.0 770.0 -192.0 722.0 -192.0 655.0 -184.0 557.0 -176.0 547.0 -161.0 547.0 -148.0 607.0 -148.0 L753.0 -144.0 Q772.0 -144.0 772.0 -132.0 772.0 -112.0 761.0 -85.0 742.0 -37.0 731.0 -16.0 715.0 11.0 693.0 40.0 632.0 7.0 615.0 3.0 611.0 3.0 611.0 7.0 646.0 56.0 688.0 80.0 730.0 112.0 783.0 112.0 808.0 108.0 810.0 100.0 810.0 91.0 792.0 84.0 755.0 72.0 711.0 47.0 L711.0 47.0 M261.0 -152.0 L261.0 -152.0 Q250.0 -152.0 222.0 -144.0 187.0 -136.0 150.0 -117.0 121.0 -96.0 121.0 -96.0 121.0 -88.0 142.0 -88.0 187.0 -92.0 231.0 -112.0 259.0 -129.0 266.0 -144.0 266.0 -152.0 261.0 -152.0 L261.0 -152.0 M136.0 -509.0 L136.0 -509.0 Q129.0 -509.0 129.0 -505.0 131.0 -496.0 158.0 -480.0 175.0 -473.0 189.0 -465.0 229.0 -444.0 263.0 -444.0 286.0 -444.0 286.0 -456.0 286.0 -476.0 223.0 -492.0 165.0 -509.0 136.0 -509.0 L136.0 -509.0 M656.0 -660.0 L656.0 -660.0 Q701.0 -708.0 701.0 -717.0 701.0 -721.0 695.0 -721.0 692.0 -721.0 686.0 -721.0 594.0 -656.0 476.0 -536.0 395.0 -444.0 358.0 -392.0 358.0 -381.0 365.0 -381.0 374.0 -381.0 381.0 -389.0 484.0 -484.0 572.0 -576.0 614.0 -616.0 642.0 -645.0 667.0 -624.0 749.0 -576.0 858.0 -513.0 919.0 -509.0 925.0 -509.0 925.0 -513.0 922.0 -528.0 777.0 -608.0 700.0 -648.0 656.0 -660.0 L656.0 -660.0 M623.0 -404.0 L623.0 -404.0 Q606.0 -404.0 573.0 -400.0 558.0 -396.0 558.0 -392.0 558.0 -385.0 601.0 -373.0 637.0 -364.0 697.0 -360.0 731.0 -360.0 746.0 -364.0 765.0 -368.0 765.0 -373.0 765.0 -381.0 728.0 -389.0 682.0 -400.0 623.0 -404.0 L623.0 -404.0" fill-rule="evenodd" stroke="none"/>
    </g>
    <g id="font_DFPTongTong-B5_.0">
      <path d="M164.0 44.0 L164.0 44.0 Q164.0 19.0 125.0 3.0 92.0 -10.0 48.0 -10.0 31.0 -10.0 31.0 -5.0 31.0 8.0 65.0 33.0 102.0 61.0 134.0 61.0 164.0 61.0 164.0 44.0" fill-rule="evenodd" stroke="none"/>
    </g>
    <g id="font_DFPTongTong-B5__3">
      <path d="M724.0 -1.0 L724.0 -1.0 Q718.0 -1.0 718.0 7.0 733.0 32.0 751.0 60.0 768.0 87.0 777.0 87.0 796.0 84.0 798.0 68.0 798.0 43.0 776.0 24.0 749.0 3.0 724.0 -1.0 L724.0 -1.0 M599.0 7.0 L599.0 7.0 Q595.0 7.0 591.0 11.0 591.0 20.0 598.0 36.0 609.0 64.0 616.0 72.0 636.0 100.0 653.0 100.0 666.0 100.0 666.0 84.0 666.0 64.0 647.0 40.0 638.0 28.0 626.0 20.0 610.0 7.0 599.0 7.0 L599.0 7.0 M486.0 7.0 L486.0 7.0 Q480.0 7.0 480.0 28.0 480.0 60.0 499.0 95.0 510.0 120.0 528.0 120.0 541.0 120.0 541.0 104.0 541.0 87.0 522.0 56.0 514.0 36.0 503.0 20.0 494.0 7.0 486.0 7.0 L486.0 7.0 M722.0 -436.0 L722.0 -436.0 Q762.0 -429.0 798.0 -425.0 842.0 -412.0 842.0 -396.0 838.0 -373.0 838.0 -301.0 850.0 -213.0 913.0 -213.0 940.0 -213.0 940.0 -236.0 940.0 -245.0 932.0 -249.0 926.0 -232.0 913.0 -232.0 876.0 -236.0 876.0 -289.0 876.0 -345.0 882.0 -381.0 885.0 -400.0 888.0 -417.0 886.0 -444.0 840.0 -452.0 794.0 -465.0 732.0 -473.0 755.0 -553.0 760.0 -589.0 760.0 -593.0 758.0 -593.0 756.0 -593.0 741.0 -572.0 720.0 -528.0 699.0 -476.0 676.0 -476.0 649.0 -476.0 624.0 -473.0 624.0 -469.0 624.0 -461.0 674.0 -448.0 681.0 -448.0 688.0 -444.0 680.0 -425.0 673.0 -400.0 648.0 -324.0 631.0 -257.0 598.0 -268.0 583.0 -268.0 579.0 -268.0 579.0 -264.0 579.0 -257.0 617.0 -232.0 621.0 -228.0 625.0 -228.0 614.0 -188.0 608.0 -152.0 608.0 -144.0 612.0 -144.0 616.0 -144.0 631.0 -169.0 641.0 -188.0 649.0 -213.0 655.0 -213.0 662.0 -209.0 710.0 -180.0 741.0 -180.0 750.0 -180.0 751.0 -184.0 751.0 -205.0 716.0 -220.0 689.0 -232.0 660.0 -245.0 680.0 -297.0 696.0 -352.0 711.0 -400.0 722.0 -436.0 L722.0 -436.0 M308.0 -616.0 L308.0 -616.0 Q309.0 -536.0 321.0 -513.0 321.0 -513.0 321.0 -513.0 276.0 -513.0 236.0 -513.0 185.0 -513.0 136.0 -509.0 100.0 -505.0 100.0 -501.0 100.0 -488.0 158.0 -480.0 191.0 -476.0 225.0 -473.0 185.0 -433.0 147.0 -368.0 94.0 -280.0 74.0 -217.0 74.0 -209.0 78.0 -209.0 82.0 -209.0 98.0 -232.0 139.0 -284.0 173.0 -348.0 223.0 -433.0 240.0 -473.0 266.0 -469.0 293.0 -469.0 379.0 -469.0 436.0 -473.0 433.0 -461.0 430.0 -444.0 425.0 -421.0 425.0 -400.0 427.0 -373.0 445.0 -360.0 467.0 -348.0 509.0 -348.0 547.0 -352.0 547.0 -377.0 547.0 -389.0 543.0 -404.0 540.0 -412.0 536.0 -412.0 534.0 -412.0 531.0 -404.0 521.0 -385.0 498.0 -385.0 476.0 -385.0 468.0 -389.0 464.0 -392.0 462.0 -433.0 460.0 -461.0 457.0 -473.0 474.0 -476.0 489.0 -476.0 557.0 -484.0 557.0 -501.0 557.0 -509.0 476.0 -513.0 406.0 -513.0 341.0 -513.0 345.0 -528.0 348.0 -553.0 348.0 -576.0 347.0 -616.0 413.0 -616.0 446.0 -624.0 490.0 -633.0 490.0 -645.0 490.0 -652.0 438.0 -656.0 389.0 -656.0 346.0 -656.0 344.0 -689.0 341.0 -717.0 335.0 -740.0 329.0 -740.0 323.0 -740.0 316.0 -717.0 313.0 -692.0 310.0 -656.0 296.0 -656.0 283.0 -656.0 250.0 -656.0 217.0 -652.0 195.0 -648.0 195.0 -645.0 195.0 -637.0 231.0 -629.0 270.0 -616.0 308.0 -616.0 L308.0 -616.0 M315.0 -140.0 L315.0 -140.0 Q297.0 -140.0 281.0 -140.0 260.0 -140.0 239.0 -136.0 224.0 -132.0 224.0 -129.0 224.0 -121.0 248.0 -112.0 276.0 -104.0 304.0 -104.0 359.0 -104.0 385.0 -112.0 413.0 -117.0 413.0 -129.0 413.0 -136.0 379.0 -140.0 364.0 -140.0 348.0 -140.0 349.0 -144.0 349.0 -152.0 349.0 -176.0 339.0 -213.0 361.0 -213.0 381.0 -220.0 403.0 -224.0 403.0 -228.0 403.0 -232.0 396.0 -236.0 387.0 -240.0 361.0 -240.0 346.0 -245.0 331.0 -245.0 325.0 -260.0 317.0 -272.0 309.0 -284.0 305.0 -284.0 301.0 -284.0 301.0 -264.0 302.0 -253.0 302.0 -245.0 288.0 -245.0 263.0 -240.0 228.0 -232.0 228.0 -228.0 228.0 -224.0 252.0 -217.0 273.0 -213.0 303.0 -213.0 304.0 -192.0 305.0 -180.0 307.0 -152.0 315.0 -140.0 L315.0 -140.0 M359.0 -1.0 L359.0 -1.0 Q334.0 28.0 310.0 60.0 287.0 100.0 283.0 124.0 283.0 152.0 289.0 152.0 299.0 152.0 306.0 144.0 335.0 124.0 345.0 91.0 366.0 51.0 372.0 7.0 372.0 -8.0 368.0 -8.0 364.0 -8.0 359.0 -1.0 L359.0 -1.0" fill-rule="evenodd" stroke="none"/>
    </g>
    <g id="font_DFPTongTong-B5__4">
      <path d="M673.0 -125.0 L673.0 -125.0 Q681.0 -121.0 693.0 -121.0 751.0 -108.0 770.0 -100.0 784.0 -96.0 784.0 -81.0 784.0 -37.0 761.0 20.0 756.0 32.0 751.0 47.0 692.0 28.0 676.0 24.0 672.0 24.0 672.0 28.0 701.0 56.0 738.0 76.0 732.0 87.0 726.0 104.0 711.0 135.0 711.0 139.0 711.0 148.0 717.0 148.0 740.0 135.0 758.0 108.0 765.0 100.0 772.0 91.0 813.0 108.0 864.0 108.0 889.0 104.0 891.0 95.0 891.0 87.0 872.0 80.0 835.0 72.0 790.0 60.0 795.0 47.0 799.0 36.0 813.0 3.0 821.0 -24.0 834.0 -64.0 834.0 -92.0 834.0 -132.0 774.0 -140.0 749.0 -144.0 699.0 -144.0 690.0 -144.0 683.0 -144.0 709.0 -200.0 709.0 -240.0 709.0 -240.0 707.0 -240.0 703.0 -240.0 680.0 -209.0 649.0 -165.0 621.0 -117.0 597.0 -72.0 585.0 -45.0 575.0 -20.0 571.0 -8.0 571.0 -4.0 574.0 -4.0 614.0 -24.0 662.0 -104.0 668.0 -112.0 673.0 -125.0 L673.0 -125.0 M791.0 -404.0 L791.0 -404.0 Q786.0 -404.0 774.0 -360.0 769.0 -337.0 769.0 -320.0 771.0 -293.0 792.0 -280.0 815.0 -268.0 862.0 -268.0 925.0 -272.0 925.0 -301.0 925.0 -308.0 921.0 -324.0 918.0 -337.0 912.0 -337.0 910.0 -337.0 908.0 -328.0 892.0 -304.0 850.0 -304.0 823.0 -304.0 815.0 -304.0 810.0 -312.0 808.0 -345.0 806.0 -377.0 801.0 -389.0 796.0 -404.0 791.0 -404.0 L791.0 -404.0 M621.0 -400.0 L621.0 -400.0 Q618.0 -400.0 600.0 -385.0 577.0 -360.0 555.0 -341.0 537.0 -316.0 527.0 -304.0 520.0 -293.0 517.0 -284.0 517.0 -272.0 526.0 -272.0 556.0 -284.0 591.0 -324.0 626.0 -368.0 626.0 -396.0 626.0 -400.0 621.0 -400.0 L621.0 -400.0 M762.0 -568.0 L762.0 -568.0 Q676.0 -517.0 597.0 -517.0 574.0 -517.0 570.0 -532.0 570.0 -545.0 589.0 -572.0 607.0 -597.0 640.0 -641.0 682.0 -700.0 682.0 -736.0 682.0 -744.0 680.0 -744.0 663.0 -744.0 591.0 -660.0 535.0 -576.0 535.0 -532.0 543.0 -476.0 591.0 -476.0 647.0 -476.0 700.0 -496.0 762.0 -520.0 782.0 -549.0 796.0 -540.0 808.0 -532.0 857.0 -492.0 889.0 -492.0 899.0 -492.0 901.0 -501.0 901.0 -524.0 865.0 -549.0 826.0 -572.0 784.0 -597.0 745.0 -612.0 729.0 -612.0 724.0 -612.0 724.0 -612.0 724.0 -601.0 762.0 -568.0 L762.0 -568.0 M193.0 -633.0 L193.0 -633.0 Q163.0 -633.0 103.0 -629.0 74.0 -624.0 74.0 -620.0 74.0 -612.0 155.0 -601.0 219.0 -589.0 330.0 -584.0 391.0 -584.0 421.0 -589.0 454.0 -593.0 454.0 -601.0 454.0 -608.0 386.0 -616.0 303.0 -629.0 193.0 -633.0 L193.0 -633.0 M191.0 20.0 L191.0 20.0 Q184.0 -12.0 175.0 -60.0 177.0 -60.0 178.0 -60.0 202.0 -52.0 230.0 -52.0 263.0 -52.0 276.0 -56.0 292.0 -64.0 292.0 -68.0 292.0 -77.0 261.0 -81.0 245.0 -81.0 226.0 -81.0 206.0 -81.0 185.0 -81.0 177.0 -81.0 172.0 -81.0 166.0 -104.0 161.0 -136.0 141.0 -249.0 123.0 -328.0 120.0 -348.0 112.0 -348.0 106.0 -348.0 106.0 -304.0 106.0 -196.0 128.0 -100.0 151.0 -1.0 185.0 64.0 190.0 72.0 195.0 72.0 200.0 68.0 200.0 64.0 198.0 51.0 196.0 40.0 209.0 43.0 231.0 47.0 278.0 51.0 333.0 51.0 398.0 51.0 426.0 43.0 447.0 36.0 447.0 28.0 445.0 20.0 424.0 20.0 426.0 16.0 428.0 11.0 440.0 -41.0 442.0 -108.0 447.0 -209.0 447.0 -272.0 447.0 -308.0 401.0 -324.0 371.0 -333.0 312.0 -337.0 310.0 -377.0 307.0 -392.0 303.0 -408.0 300.0 -408.0 296.0 -408.0 288.0 -337.0 280.0 -341.0 271.0 -341.0 261.0 -341.0 251.0 -341.0 254.0 -368.0 254.0 -400.0 250.0 -452.0 241.0 -452.0 237.0 -452.0 233.0 -436.0 226.0 -392.0 216.0 -337.0 188.0 -337.0 165.0 -337.0 139.0 -333.0 139.0 -333.0 139.0 -324.0 174.0 -316.0 189.0 -312.0 210.0 -308.0 209.0 -308.0 209.0 -304.0 189.0 -200.0 187.0 -180.0 187.0 -176.0 190.0 -173.0 204.0 -173.0 215.0 -188.0 231.0 -217.0 244.0 -284.0 246.0 -297.0 247.0 -304.0 259.0 -304.0 272.0 -304.0 279.0 -304.0 285.0 -304.0 282.0 -260.0 282.0 -232.0 284.0 -200.0 300.0 -188.0 317.0 -169.0 353.0 -169.0 386.0 -173.0 386.0 -200.0 386.0 -209.0 382.0 -224.0 380.0 -232.0 376.0 -232.0 374.0 -232.0 372.0 -224.0 364.0 -205.0 343.0 -200.0 326.0 -200.0 319.0 -220.0 315.0 -232.0 313.0 -301.0 360.0 -297.0 381.0 -293.0 401.0 -284.0 401.0 -264.0 404.0 -176.0 404.0 -48.0 402.0 -16.0 402.0 -4.0 402.0 7.0 402.0 20.0 300.0 20.0 198.0 20.0 195.0 20.0 191.0 20.0 L191.0 20.0" fill-rule="evenodd" stroke="none"/>
    </g>
    <g id="font_DFPTongTong-B5__5">
      <path d="M204.0 -568.0 L204.0 -568.0 Q168.0 -568.0 132.0 -564.0 108.0 -561.0 108.0 -557.0 108.0 -549.0 148.0 -540.0 197.0 -532.0 245.0 -528.0 339.0 -528.0 384.0 -536.0 431.0 -545.0 431.0 -557.0 431.0 -564.0 375.0 -568.0 280.0 -568.0 204.0 -568.0 L204.0 -568.0 M868.0 -404.0 L868.0 -404.0 Q871.0 -404.0 874.0 -404.0 911.0 -404.0 944.0 -408.0 967.0 -408.0 968.0 -412.0 967.0 -421.0 929.0 -429.0 901.0 -433.0 870.0 -436.0 877.0 -528.0 877.0 -572.0 874.0 -608.0 866.0 -608.0 861.0 -608.0 857.0 -597.0 845.0 -517.0 836.0 -440.0 824.0 -444.0 813.0 -444.0 766.0 -452.0 656.0 -461.0 656.0 -484.0 656.0 -509.0 654.0 -532.0 646.0 -572.0 637.0 -624.0 627.0 -624.0 622.0 -620.0 615.0 -540.0 615.0 -501.0 615.0 -465.0 612.0 -465.0 608.0 -465.0 561.0 -465.0 529.0 -461.0 505.0 -461.0 505.0 -456.0 505.0 -444.0 616.0 -429.0 618.0 -232.0 629.0 -48.0 631.0 24.0 703.0 32.0 770.0 32.0 810.0 -1.0 812.0 16.0 817.0 16.0 828.0 16.0 837.0 -16.0 847.0 -112.0 860.0 -284.0 865.0 -352.0 868.0 -404.0 L868.0 -404.0 M656.0 -425.0 L656.0 -425.0 Q657.0 -425.0 659.0 -425.0 735.0 -412.0 831.0 -404.0 826.0 -364.0 822.0 -320.0 810.0 -148.0 809.0 -41.0 809.0 -28.0 809.0 -20.0 755.0 -4.0 715.0 -4.0 671.0 -4.0 671.0 -48.0 666.0 -125.0 663.0 -205.0 663.0 -205.0 663.0 -200.0 693.0 -188.0 718.0 -188.0 754.0 -188.0 770.0 -200.0 787.0 -205.0 787.0 -213.0 787.0 -217.0 775.0 -220.0 709.0 -224.0 662.0 -228.0 662.0 -228.0 662.0 -228.0 657.0 -324.0 656.0 -425.0 L656.0 -425.0 M241.0 -33.0 L241.0 -33.0 Q238.0 -37.0 236.0 -41.0 225.0 -56.0 221.0 -56.0 217.0 -56.0 217.0 -45.0 217.0 -20.0 219.0 -4.0 223.0 20.0 231.0 51.0 240.0 76.0 248.0 87.0 259.0 108.0 265.0 108.0 269.0 108.0 273.0 100.0 275.0 91.0 278.0 84.0 281.0 87.0 284.0 87.0 313.0 91.0 340.0 91.0 386.0 91.0 387.0 76.0 387.0 68.0 373.0 68.0 377.0 60.0 377.0 51.0 377.0 24.0 373.0 -12.0 359.0 -41.0 302.0 -41.0 282.0 -41.0 256.0 -37.0 247.0 -37.0 241.0 -33.0 L241.0 -33.0 M278.0 64.0 L278.0 64.0 Q275.0 56.0 271.0 43.0 263.0 20.0 252.0 -8.0 251.0 -12.0 249.0 -16.0 253.0 -16.0 258.0 -16.0 L299.0 -12.0 Q332.0 -12.0 334.0 -1.0 338.0 28.0 339.0 64.0 317.0 64.0 294.0 64.0 285.0 64.0 278.0 64.0 L278.0 64.0 M295.0 -220.0 L295.0 -220.0 Q351.0 -224.0 385.0 -228.0 443.0 -236.0 443.0 -249.0 443.0 -257.0 374.0 -260.0 333.0 -260.0 295.0 -260.0 L295.0 -297.0 Q291.0 -337.0 280.0 -385.0 269.0 -421.0 258.0 -421.0 254.0 -421.0 252.0 -412.0 252.0 -381.0 254.0 -333.0 L254.0 -260.0 Q207.0 -260.0 166.0 -260.0 122.0 -260.0 79.0 -257.0 48.0 -253.0 48.0 -249.0 48.0 -240.0 98.0 -232.0 157.0 -224.0 215.0 -220.0 236.0 -220.0 254.0 -220.0 L254.0 -136.0 Q256.0 -121.0 261.0 -108.0 265.0 -100.0 270.0 -96.0 279.0 -100.0 284.0 -108.0 295.0 -125.0 295.0 -136.0 L295.0 -220.0 295.0 -220.0" fill-rule="evenodd" stroke="none"/>
    </g>
    <g id="font_DFPTongTong-B5__6">
      <path d="M309.0 -601.0 L309.0 -601.0 Q305.0 -601.0 296.0 -589.0 255.0 -549.0 188.0 -469.0 112.0 -368.0 93.0 -333.0 93.0 -324.0 97.0 -324.0 101.0 -324.0 108.0 -328.0 156.0 -352.0 217.0 -433.0 303.0 -536.0 313.0 -589.0 313.0 -601.0 309.0 -601.0 L309.0 -601.0 M330.0 -64.0 L330.0 -64.0 Q335.0 -72.0 339.0 -85.0 351.0 -129.0 354.0 -188.0 354.0 -236.0 290.0 -253.0 237.0 -260.0 205.0 -260.0 198.0 -260.0 194.0 -257.0 184.0 -276.0 180.0 -276.0 176.0 -276.0 176.0 -264.0 176.0 -228.0 178.0 -200.0 182.0 -161.0 190.0 -108.0 199.0 -68.0 207.0 -48.0 218.0 -33.0 224.0 -33.0 228.0 -33.0 232.0 -41.0 233.0 -45.0 234.0 -45.0 239.0 -45.0 244.0 -45.0 272.0 -37.0 296.0 -37.0 340.0 -37.0 342.0 -52.0 342.0 -60.0 330.0 -64.0 L330.0 -64.0 M309.0 -132.0 L309.0 -132.0 Q308.0 -108.0 306.0 -81.0 306.0 -72.0 307.0 -68.0 283.0 -68.0 253.0 -68.0 245.0 -68.0 239.0 -68.0 237.0 -81.0 230.0 -117.0 229.0 -121.0 227.0 -129.0 245.0 -125.0 269.0 -125.0 291.0 -125.0 309.0 -132.0 L309.0 -132.0 M202.0 -236.0 L202.0 -236.0 Q204.0 -236.0 207.0 -232.0 247.0 -220.0 293.0 -213.0 311.0 -209.0 311.0 -192.0 311.0 -176.0 311.0 -156.0 305.0 -156.0 299.0 -156.0 283.0 -156.0 264.0 -156.0 253.0 -156.0 229.0 -152.0 226.0 -152.0 223.0 -152.0 217.0 -180.0 211.0 -209.0 207.0 -224.0 202.0 -236.0 L202.0 -236.0 M575.0 -469.0 L575.0 -469.0 Q588.0 -465.0 605.0 -456.0 660.0 -440.0 742.0 -425.0 787.0 -417.0 836.0 -408.0 867.0 -400.0 870.0 -381.0 874.0 -320.0 876.0 -253.0 878.0 -184.0 880.0 -104.0 880.0 28.0 847.0 40.0 847.0 47.0 852.0 47.0 869.0 56.0 888.0 56.0 921.0 40.0 921.0 -200.0 921.0 -320.0 913.0 -385.0 905.0 -440.0 812.0 -461.0 756.0 -469.0 691.0 -473.0 631.0 -480.0 584.0 -484.0 618.0 -549.0 632.0 -616.0 632.0 -620.0 631.0 -620.0 629.0 -620.0 626.0 -616.0 578.0 -557.0 528.0 -473.0 489.0 -389.0 458.0 -304.0 458.0 -301.0 460.0 -301.0 462.0 -301.0 464.0 -301.0 518.0 -360.0 554.0 -433.0 565.0 -448.0 575.0 -469.0 L575.0 -469.0 M592.0 -140.0 L592.0 -140.0 Q584.0 -140.0 584.0 -136.0 586.0 -125.0 607.0 -108.0 622.0 -96.0 634.0 -88.0 666.0 -64.0 693.0 -64.0 716.0 -64.0 716.0 -77.0 716.0 -96.0 664.0 -121.0 615.0 -140.0 592.0 -140.0 L592.0 -140.0" fill-rule="evenodd" stroke="none"/>
    </g>
    <g id="font_DFPTongTong-B5__7">
      <path d="M474.0 -536.0 L474.0 -536.0 Q416.0 -532.0 416.0 -524.0 419.0 -513.0 460.0 -505.0 504.0 -496.0 542.0 -496.0 609.0 -496.0 611.0 -513.0 611.0 -524.0 590.0 -528.0 540.0 -536.0 474.0 -536.0 L474.0 -536.0 M520.0 -696.0 L520.0 -696.0 Q560.0 -656.0 655.0 -597.0 797.0 -505.0 856.0 -480.0 862.0 -480.0 862.0 -488.0 841.0 -524.0 686.0 -629.0 593.0 -689.0 534.0 -708.0 560.0 -733.0 567.0 -748.0 570.0 -761.0 570.0 -765.0 566.0 -765.0 560.0 -757.0 433.0 -685.0 298.0 -572.0 194.0 -492.0 108.0 -396.0 105.0 -389.0 105.0 -381.0 117.0 -381.0 123.0 -389.0 248.0 -476.0 351.0 -561.0 466.0 -645.0 520.0 -696.0 L520.0 -696.0 M723.0 51.0 L723.0 51.0 Q737.0 40.0 754.0 16.0 781.0 -20.0 784.0 -41.0 784.0 -56.0 778.0 -60.0 771.0 -60.0 755.0 -41.0 743.0 -24.0 723.0 -1.0 708.0 24.0 700.0 36.0 680.0 28.0 663.0 16.0 643.0 3.0 641.0 3.0 636.0 3.0 636.0 16.0 645.0 40.0 686.0 72.0 718.0 91.0 744.0 91.0 803.0 91.0 807.0 84.0 807.0 80.0 779.0 72.0 754.0 64.0 723.0 51.0 L723.0 51.0 M386.0 -348.0 L386.0 -348.0 Q382.0 -324.0 379.0 -268.0 379.0 -108.0 389.0 43.0 391.0 116.0 458.0 120.0 510.0 120.0 537.0 64.0 537.0 60.0 530.0 60.0 496.0 84.0 470.0 84.0 435.0 84.0 435.0 43.0 429.0 -33.0 425.0 -108.0 435.0 -104.0 451.0 -100.0 500.0 -96.0 543.0 -96.0 618.0 -96.0 622.0 -117.0 622.0 -125.0 603.0 -129.0 600.0 -129.0 597.0 -129.0 602.0 -136.0 605.0 -144.0 617.0 -209.0 622.0 -297.0 622.0 -352.0 516.0 -368.0 428.0 -377.0 376.0 -377.0 357.0 -373.0 357.0 -368.0 357.0 -360.0 378.0 -348.0 382.0 -348.0 386.0 -348.0 L386.0 -348.0 M572.0 -232.0 L572.0 -232.0 Q566.0 -232.0 559.0 -232.0 492.0 -232.0 424.0 -228.0 423.0 -228.0 423.0 -228.0 422.0 -232.0 423.0 -236.0 421.0 -264.0 413.0 -308.0 409.0 -333.0 404.0 -345.0 467.0 -333.0 539.0 -324.0 573.0 -320.0 573.0 -304.0 573.0 -272.0 572.0 -232.0 L572.0 -232.0 M423.0 -209.0 L423.0 -209.0 Q435.0 -205.0 458.0 -200.0 481.0 -196.0 510.0 -196.0 550.0 -200.0 566.0 -209.0 569.0 -209.0 571.0 -213.0 571.0 -180.0 569.0 -144.0 569.0 -136.0 570.0 -129.0 523.0 -129.0 467.0 -129.0 440.0 -129.0 425.0 -125.0 423.0 -169.0 423.0 -209.0 L423.0 -209.0" fill-rule="evenodd" stroke="none"/>
    </g>
    <g id="font_DFPTongTong-B5__8">
      <path d="M710.0 -52.0 L710.0 -52.0 Q686.0 -41.0 656.0 -16.0 623.0 20.0 616.0 40.0 616.0 51.0 623.0 51.0 649.0 47.0 684.0 16.0 716.0 -28.0 716.0 -45.0 716.0 -52.0 710.0 -52.0 L710.0 -52.0 M595.0 -100.0 L595.0 -100.0 Q570.0 -88.0 540.0 -56.0 505.0 -16.0 499.0 7.0 499.0 16.0 505.0 16.0 531.0 16.0 568.0 -24.0 601.0 -72.0 601.0 -92.0 601.0 -100.0 595.0 -100.0 L595.0 -100.0 M549.0 -496.0 L549.0 -496.0 Q570.0 -492.0 613.0 -484.0 668.0 -476.0 729.0 -469.0 778.0 -461.0 819.0 -444.0 854.0 -433.0 854.0 -385.0 863.0 -341.0 863.0 -165.0 863.0 -96.0 863.0 -28.0 863.0 43.0 841.0 56.0 841.0 68.0 850.0 68.0 882.0 60.0 894.0 43.0 909.0 24.0 909.0 -20.0 907.0 -316.0 901.0 -373.0 901.0 -429.0 871.0 -456.0 853.0 -476.0 782.0 -492.0 754.0 -501.0 677.0 -509.0 605.0 -520.0 571.0 -520.0 567.0 -520.0 563.0 -520.0 609.0 -593.0 626.0 -664.0 626.0 -673.0 623.0 -673.0 618.0 -673.0 612.0 -660.0 564.0 -608.0 517.0 -536.0 479.0 -465.0 449.0 -389.0 449.0 -381.0 452.0 -381.0 457.0 -381.0 463.0 -385.0 514.0 -436.0 549.0 -496.0 L549.0 -496.0 M138.0 -400.0 L138.0 -400.0 Q170.0 -492.0 170.0 -532.0 170.0 -549.0 165.0 -549.0 160.0 -549.0 155.0 -536.0 124.0 -473.0 103.0 -408.0 85.0 -352.0 71.0 -280.0 71.0 -268.0 75.0 -268.0 82.0 -268.0 86.0 -276.0 115.0 -324.0 134.0 -389.0 160.0 -381.0 234.0 -368.0 248.0 -368.0 262.0 -364.0 260.0 -268.0 260.0 -173.0 241.0 -169.0 221.0 -161.0 164.0 -140.0 164.0 -136.0 164.0 -129.0 182.0 -129.0 222.0 -132.0 262.0 -140.0 265.0 -72.0 270.0 -41.0 279.0 3.0 289.0 3.0 297.0 3.0 299.0 -37.0 299.0 -64.0 302.0 -148.0 321.0 -152.0 339.0 -161.0 387.0 -180.0 400.0 -196.0 400.0 -205.0 396.0 -205.0 386.0 -205.0 362.0 -196.0 333.0 -192.0 302.0 -184.0 302.0 -284.0 300.0 -360.0 343.0 -360.0 385.0 -356.0 417.0 -360.0 417.0 -364.0 417.0 -373.0 409.0 -377.0 381.0 -385.0 339.0 -392.0 317.0 -392.0 299.0 -396.0 296.0 -473.0 291.0 -517.0 283.0 -557.0 274.0 -557.0 268.0 -557.0 266.0 -517.0 264.0 -456.0 263.0 -400.0 230.0 -400.0 208.0 -400.0 160.0 -400.0 138.0 -400.0 L138.0 -400.0" fill-rule="evenodd" stroke="none"/>
    </g>
    <g id="font_DFPTongTong-B5__9">
      <path d="M683.0 -576.0 L683.0 -576.0 Q698.0 -576.0 715.0 -576.0 761.0 -576.0 782.0 -580.0 806.0 -580.0 806.0 -584.0 806.0 -593.0 757.0 -601.0 723.0 -608.0 682.0 -612.0 682.0 -616.0 682.0 -624.0 680.0 -664.0 677.0 -696.0 671.0 -725.0 666.0 -725.0 660.0 -725.0 654.0 -692.0 651.0 -664.0 647.0 -612.0 632.0 -612.0 614.0 -612.0 593.0 -612.0 550.0 -608.0 528.0 -608.0 528.0 -605.0 528.0 -597.0 588.0 -584.0 612.0 -580.0 647.0 -580.0 648.0 -496.0 656.0 -469.0 612.0 -469.0 573.0 -469.0 536.0 -469.0 498.0 -465.0 472.0 -461.0 472.0 -456.0 472.0 -448.0 515.0 -440.0 566.0 -433.0 617.0 -429.0 718.0 -429.0 765.0 -436.0 816.0 -444.0 816.0 -456.0 816.0 -465.0 755.0 -469.0 716.0 -469.0 679.0 -469.0 682.0 -480.0 684.0 -501.0 684.0 -528.0 683.0 -576.0 L683.0 -576.0 M260.0 -200.0 L260.0 -200.0 Q244.0 -200.0 225.0 -200.0 213.0 -200.0 185.0 -196.0 180.0 -196.0 176.0 -196.0 174.0 -232.0 167.0 -276.0 165.0 -284.0 164.0 -293.0 166.0 -293.0 168.0 -293.0 202.0 -289.0 229.0 -289.0 250.0 -289.0 263.0 -289.0 261.0 -257.0 259.0 -217.0 259.0 -205.0 260.0 -200.0 L260.0 -200.0 M176.0 -176.0 L176.0 -176.0 Q176.0 -176.0 176.0 -176.0 198.0 -173.0 231.0 -173.0 259.0 -173.0 284.0 -176.0 302.0 -184.0 302.0 -188.0 302.0 -192.0 295.0 -196.0 291.0 -196.0 284.0 -196.0 289.0 -205.0 293.0 -217.0 306.0 -280.0 310.0 -364.0 310.0 -412.0 248.0 -425.0 196.0 -433.0 165.0 -433.0 147.0 -433.0 147.0 -429.0 147.0 -421.0 167.0 -408.0 204.0 -396.0 248.0 -389.0 265.0 -389.0 265.0 -373.0 265.0 -345.0 264.0 -312.0 226.0 -316.0 179.0 -316.0 169.0 -316.0 161.0 -316.0 155.0 -356.0 148.0 -392.0 140.0 -436.0 134.0 -436.0 130.0 -436.0 129.0 -421.0 127.0 -356.0 127.0 -304.0 129.0 -236.0 140.0 -192.0 153.0 -156.0 169.0 -152.0 176.0 -152.0 176.0 -173.0 176.0 -176.0 176.0 -176.0 L176.0 -176.0 M601.0 -56.0 L601.0 -56.0 Q596.0 -56.0 596.0 -52.0 599.0 -33.0 626.0 -4.0 645.0 20.0 662.0 20.0 680.0 16.0 680.0 -4.0 680.0 -8.0 667.0 -16.0 647.0 -33.0 630.0 -41.0 607.0 -56.0 601.0 -56.0 L601.0 -56.0 M807.0 -148.0 L807.0 -148.0 Q817.0 -37.0 817.0 40.0 817.0 60.0 805.0 68.0 799.0 68.0 799.0 72.0 801.0 80.0 807.0 84.0 820.0 87.0 835.0 87.0 859.0 84.0 859.0 56.0 859.0 32.0 854.0 -8.0 850.0 -68.0 843.0 -117.0 841.0 -136.0 839.0 -152.0 905.0 -161.0 905.0 -173.0 905.0 -180.0 834.0 -184.0 828.0 -217.0 821.0 -236.0 806.0 -280.0 797.0 -280.0 795.0 -280.0 795.0 -272.0 800.0 -224.0 804.0 -184.0 683.0 -184.0 584.0 -184.0 535.0 -184.0 484.0 -180.0 449.0 -176.0 449.0 -173.0 449.0 -165.0 506.0 -156.0 573.0 -148.0 642.0 -144.0 745.0 -144.0 807.0 -148.0 L807.0 -148.0" fill-rule="evenodd" stroke="none"/>
    </g>
    <g id="font_DFPTongTong-B5__10">
      <path d="M655.0 -81.0 L655.0 -81.0 Q659.0 -81.0 665.0 -77.0 689.0 -72.0 711.0 -72.0 749.0 -72.0 750.0 -88.0 750.0 -96.0 732.0 -100.0 707.0 -104.0 673.0 -104.0 664.0 -104.0 656.0 -100.0 656.0 -144.0 653.0 -196.0 653.0 -200.0 653.0 -205.0 658.0 -200.0 669.0 -200.0 732.0 -200.0 738.0 -180.0 749.0 -156.0 763.0 -52.0 781.0 51.0 781.0 100.0 781.0 120.0 772.0 128.0 772.0 139.0 791.0 139.0 803.0 139.0 814.0 128.0 823.0 120.0 823.0 108.0 823.0 76.0 811.0 -4.0 804.0 -52.0 785.0 -156.0 774.0 -220.0 722.0 -220.0 697.0 -220.0 676.0 -220.0 659.0 -217.0 652.0 -213.0 650.0 -232.0 646.0 -232.0 642.0 -232.0 640.0 -217.0 632.0 -161.0 618.0 -52.0 610.0 24.0 610.0 95.0 614.0 131.0 623.0 131.0 634.0 128.0 645.0 56.0 647.0 36.0 649.0 7.0 676.0 16.0 699.0 16.0 740.0 16.0 741.0 -1.0 741.0 -8.0 724.0 -12.0 695.0 -16.0 658.0 -16.0 654.0 -16.0 651.0 -16.0 654.0 -48.0 655.0 -81.0 L655.0 -81.0 M465.0 -553.0 L465.0 -553.0 Q489.0 -549.0 515.0 -549.0 947.0 -549.0 949.0 -564.0 949.0 -576.0 911.0 -580.0 873.0 -589.0 798.0 -589.0 643.0 -593.0 490.0 -597.0 559.0 -721.0 570.0 -773.0 572.0 -777.0 572.0 -780.0 570.0 -780.0 566.0 -777.0 506.0 -700.0 443.0 -597.0 325.0 -597.0 206.0 -597.0 78.0 -597.0 78.0 -584.0 78.0 -568.0 259.0 -561.0 328.0 -553.0 419.0 -553.0 391.0 -505.0 364.0 -452.0 282.0 -312.0 215.0 -144.0 214.0 -140.0 214.0 -132.0 220.0 -132.0 223.0 -140.0 321.0 -293.0 401.0 -444.0 437.0 -501.0 465.0 -553.0 L465.0 -553.0" fill-rule="evenodd" stroke="none"/>
    </g>
    <g id="font_DFPTongTong-B5__11">
      <path d="M321.0 -580.0 L321.0 -580.0 Q331.0 -580.0 342.0 -580.0 419.0 -568.0 535.0 -568.0 861.0 -568.0 862.0 -584.0 862.0 -597.0 824.0 -601.0 786.0 -608.0 711.0 -608.0 640.0 -612.0 570.0 -612.0 572.0 -620.0 573.0 -629.0 573.0 -664.0 552.0 -692.0 517.0 -729.0 504.0 -729.0 498.0 -729.0 498.0 -725.0 500.0 -721.0 506.0 -704.0 512.0 -689.0 519.0 -668.0 536.0 -629.0 545.0 -612.0 438.0 -616.0 333.0 -616.0 205.0 -616.0 205.0 -605.0 204.0 -593.0 300.0 -584.0 271.0 -488.0 251.0 -392.0 239.0 -404.0 206.0 -421.0 158.0 -440.0 133.0 -440.0 127.0 -440.0 127.0 -436.0 129.0 -425.0 152.0 -408.0 166.0 -396.0 178.0 -389.0 211.0 -364.0 240.0 -364.0 243.0 -364.0 245.0 -364.0 241.0 -348.0 238.0 -328.0 231.0 -301.0 226.0 -268.0 219.0 -268.0 209.0 -268.0 177.0 -264.0 145.0 -253.0 101.0 -228.0 101.0 -224.0 101.0 -217.0 131.0 -217.0 163.0 -220.0 195.0 -232.0 212.0 -236.0 222.0 -245.0 208.0 -165.0 197.0 -72.0 197.0 -60.0 203.0 -56.0 211.0 -60.0 215.0 -68.0 254.0 -173.0 278.0 -304.0 319.0 -505.0 321.0 -580.0 L321.0 -580.0 M564.0 -337.0 L564.0 -337.0 Q579.0 -333.0 604.0 -328.0 620.0 -328.0 646.0 -324.0 664.0 -324.0 664.0 -316.0 664.0 -304.0 648.0 -276.0 636.0 -253.0 624.0 -228.0 582.0 -245.0 546.0 -264.0 540.0 -264.0 540.0 -257.0 563.0 -228.0 609.0 -200.0 605.0 -188.0 601.0 -180.0 577.0 -132.0 536.0 -48.0 515.0 -12.0 512.0 7.0 512.0 11.0 517.0 11.0 521.0 11.0 536.0 -8.0 548.0 -24.0 567.0 -56.0 591.0 -92.0 621.0 -144.0 633.0 -165.0 643.0 -180.0 655.0 -173.0 669.0 -169.0 740.0 -132.0 851.0 -132.0 912.0 -136.0 912.0 -148.0 912.0 -152.0 850.0 -161.0 782.0 -169.0 703.0 -196.0 682.0 -205.0 662.0 -213.0 671.0 -228.0 676.0 -236.0 694.0 -268.0 701.0 -289.0 714.0 -312.0 714.0 -328.0 714.0 -356.0 667.0 -364.0 637.0 -364.0 579.0 -360.0 608.0 -417.0 615.0 -461.0 L615.0 -469.0 Q612.0 -469.0 608.0 -465.0 563.0 -417.0 517.0 -345.0 463.0 -257.0 441.0 -205.0 441.0 -196.0 444.0 -196.0 449.0 -196.0 452.0 -200.0 493.0 -224.0 544.0 -304.0 555.0 -320.0 564.0 -337.0 L564.0 -337.0 M674.0 43.0 L674.0 43.0 Q586.0 43.0 586.0 51.0 586.0 60.0 637.0 72.0 677.0 87.0 702.0 87.0 727.0 87.0 727.0 72.0 727.0 64.0 711.0 56.0 692.0 47.0 674.0 43.0 L674.0 43.0 M700.0 -56.0 L700.0 -56.0 Q618.0 -56.0 618.0 -48.0 618.0 -41.0 666.0 -28.0 702.0 -16.0 726.0 -16.0 750.0 -16.0 750.0 -28.0 750.0 -37.0 734.0 -45.0 718.0 -52.0 700.0 -56.0 L700.0 -56.0" fill-rule="evenodd" stroke="none"/>
    </g>
    <g id="font_DFPTongTong-B5__12">
      <path d="M316.0 -597.0 L316.0 -597.0 Q325.0 -593.0 333.0 -593.0 410.0 -584.0 525.0 -584.0 852.0 -584.0 854.0 -601.0 854.0 -612.0 815.0 -616.0 776.0 -620.0 698.0 -624.0 632.0 -624.0 564.0 -629.0 565.0 -629.0 565.0 -633.0 565.0 -664.0 544.0 -692.0 510.0 -733.0 496.0 -733.0 489.0 -733.0 489.0 -729.0 492.0 -721.0 498.0 -704.0 504.0 -692.0 512.0 -668.0 522.0 -645.0 530.0 -629.0 428.0 -629.0 327.0 -633.0 196.0 -633.0 196.0 -616.0 196.0 -605.0 298.0 -597.0 271.0 -501.0 251.0 -408.0 241.0 -417.0 225.0 -421.0 209.0 -433.0 190.0 -440.0 153.0 -456.0 146.0 -456.0 139.0 -452.0 139.0 -448.0 139.0 -440.0 167.0 -421.0 181.0 -408.0 194.0 -400.0 225.0 -381.0 240.0 -381.0 243.0 -381.0 245.0 -381.0 242.0 -360.0 238.0 -345.0 231.0 -312.0 225.0 -276.0 222.0 -276.0 217.0 -276.0 182.0 -272.0 147.0 -260.0 99.0 -236.0 99.0 -232.0 99.0 -228.0 129.0 -228.0 164.0 -228.0 199.0 -240.0 212.0 -245.0 221.0 -249.0 210.0 -176.0 200.0 -88.0 200.0 -77.0 206.0 -77.0 214.0 -77.0 217.0 -88.0 254.0 -188.0 276.0 -320.0 316.0 -517.0 316.0 -593.0 316.0 -593.0 316.0 -597.0 L316.0 -597.0 M737.0 -368.0 L737.0 -368.0 Q738.0 -373.0 740.0 -373.0 754.0 -389.0 764.0 -400.0 781.0 -421.0 791.0 -436.0 801.0 -452.0 801.0 -461.0 801.0 -488.0 737.0 -501.0 709.0 -509.0 607.0 -513.0 501.0 -513.0 501.0 -505.0 501.0 -492.0 597.0 -480.0 649.0 -469.0 705.0 -469.0 745.0 -465.0 745.0 -456.0 744.0 -440.0 731.0 -408.0 722.0 -389.0 718.0 -377.0 707.0 -377.0 696.0 -381.0 651.0 -392.0 604.0 -396.0 595.0 -396.0 595.0 -389.0 608.0 -368.0 666.0 -348.0 714.0 -328.0 757.0 -328.0 808.0 -328.0 808.0 -345.0 808.0 -348.0 771.0 -360.0 754.0 -364.0 737.0 -368.0 L737.0 -368.0 M688.0 -41.0 L688.0 -41.0 Q655.0 -41.0 623.0 -37.0 603.0 -37.0 603.0 -33.0 603.0 -16.0 656.0 -8.0 672.0 -8.0 689.0 -8.0 691.0 43.0 700.0 68.0 711.0 100.0 719.0 100.0 725.0 100.0 729.0 91.0 732.0 80.0 732.0 72.0 732.0 36.0 729.0 -8.0 759.0 -8.0 773.0 -16.0 795.0 -24.0 795.0 -33.0 793.0 -37.0 765.0 -41.0 744.0 -41.0 725.0 -41.0 723.0 -64.0 720.0 -88.0 745.0 -88.0 761.0 -92.0 790.0 -100.0 790.0 -112.0 790.0 -117.0 755.0 -121.0 735.0 -121.0 716.0 -121.0 711.0 -169.0 700.0 -205.0 692.0 -217.0 689.0 -217.0 685.0 -217.0 685.0 -200.0 685.0 -156.0 686.0 -121.0 669.0 -121.0 652.0 -121.0 631.0 -121.0 609.0 -117.0 595.0 -117.0 595.0 -112.0 595.0 -104.0 620.0 -96.0 648.0 -88.0 677.0 -88.0 682.0 -88.0 687.0 -88.0 687.0 -60.0 688.0 -41.0 L688.0 -41.0 M628.0 -272.0 L628.0 -272.0 Q521.0 -272.0 521.0 -264.0 524.0 -257.0 571.0 -245.0 597.0 -240.0 666.0 -236.0 719.0 -232.0 754.0 -228.0 823.0 -217.0 825.0 -169.0 836.0 -121.0 848.0 -52.0 855.0 -4.0 855.0 40.0 855.0 68.0 847.0 80.0 847.0 87.0 855.0 87.0 895.0 80.0 895.0 32.0 895.0 -52.0 871.0 -152.0 871.0 -245.0 781.0 -264.0 722.0 -272.0 628.0 -272.0 L628.0 -272.0 M497.0 -257.0 L497.0 -257.0 Q488.0 -257.0 474.0 -169.0 467.0 -121.0 463.0 -64.0 463.0 3.0 467.0 43.0 471.0 87.0 484.0 87.0 493.0 87.0 495.0 11.0 503.0 -88.0 509.0 -173.0 509.0 -213.0 505.0 -236.0 503.0 -257.0 497.0 -257.0 L497.0 -257.0" fill-rule="evenodd" stroke="none"/>
    </g>
    <g id="font_DFPTongTong-B5__13">
      <path d="M716.0 -364.0 L716.0 -364.0 Q712.0 -364.0 712.0 -345.0 714.0 -284.0 716.0 -253.0 718.0 -220.0 728.0 -205.0 737.0 -188.0 745.0 -188.0 752.0 -188.0 756.0 -196.0 760.0 -209.0 760.0 -217.0 760.0 -249.0 745.0 -301.0 739.0 -328.0 728.0 -352.0 720.0 -364.0 716.0 -364.0 L716.0 -364.0 M850.0 -448.0 L850.0 -448.0 Q848.0 -448.0 848.0 -440.0 871.0 -253.0 871.0 -148.0 871.0 -125.0 853.0 -117.0 846.0 -112.0 846.0 -108.0 848.0 -104.0 854.0 -100.0 867.0 -92.0 882.0 -92.0 918.0 -96.0 918.0 -132.0 918.0 -152.0 913.0 -192.0 908.0 -249.0 901.0 -297.0 891.0 -368.0 877.0 -408.0 859.0 -448.0 850.0 -448.0 L850.0 -448.0 M438.0 -4.0 L438.0 -4.0 Q431.0 -4.0 431.0 3.0 432.0 11.0 449.0 24.0 459.0 36.0 468.0 40.0 493.0 60.0 514.0 60.0 536.0 60.0 536.0 47.0 536.0 32.0 495.0 11.0 458.0 -4.0 438.0 -4.0 L438.0 -4.0 M180.0 -389.0 L180.0 -389.0 Q176.0 -389.0 174.0 -373.0 172.0 -328.0 172.0 -297.0 174.0 -249.0 186.0 -220.0 199.0 -196.0 215.0 -192.0 222.0 -192.0 222.0 -213.0 222.0 -240.0 213.0 -276.0 205.0 -316.0 195.0 -356.0 186.0 -389.0 180.0 -389.0 L180.0 -389.0 M371.0 -528.0 L371.0 -528.0 Q435.0 -524.0 510.0 -520.0 548.0 -520.0 582.0 -524.0 604.0 -524.0 605.0 -528.0 604.0 -536.0 562.0 -545.0 503.0 -553.0 431.0 -564.0 408.0 -564.0 370.0 -568.0 369.0 -624.0 368.0 -673.0 360.0 -717.0 343.0 -717.0 332.0 -717.0 332.0 -620.0 332.0 -597.0 332.0 -572.0 276.0 -576.0 200.0 -580.0 152.0 -580.0 119.0 -580.0 93.0 -580.0 93.0 -576.0 93.0 -561.0 268.0 -540.0 299.0 -536.0 332.0 -532.0 333.0 -452.0 333.0 -377.0 264.0 -377.0 264.0 -368.0 266.0 -360.0 321.0 -345.0 327.0 -345.0 334.0 -345.0 335.0 -284.0 336.0 -224.0 338.0 -136.0 340.0 -64.0 310.0 -45.0 266.0 -4.0 221.0 40.0 197.0 68.0 197.0 76.0 201.0 80.0 209.0 80.0 215.0 72.0 231.0 64.0 287.0 20.0 318.0 -4.0 341.0 -33.0 344.0 36.0 347.0 87.0 358.0 104.0 369.0 104.0 380.0 104.0 380.0 91.0 378.0 -45.0 374.0 -301.0 374.0 -320.0 373.0 -341.0 383.0 -341.0 395.0 -341.0 426.0 -337.0 450.0 -333.0 472.0 -333.0 472.0 -316.0 472.0 -232.0 447.0 -224.0 447.0 -220.0 452.0 -220.0 464.0 -209.0 478.0 -209.0 502.0 -209.0 508.0 -232.0 512.0 -249.0 514.0 -276.0 517.0 -304.0 517.0 -328.0 517.0 -352.0 471.0 -364.0 429.0 -373.0 373.0 -377.0 372.0 -456.0 371.0 -528.0 L371.0 -528.0" fill-rule="evenodd" stroke="none"/>
    </g>
    <g id="font_DFPTongTong-B5__14">
      <path d="M797.0 20.0 L797.0 20.0 Q796.0 24.0 795.0 28.0 781.0 60.0 773.0 80.0 773.0 87.0 778.0 87.0 783.0 87.0 795.0 80.0 810.0 68.0 823.0 36.0 853.0 56.0 890.0 56.0 913.0 51.0 915.0 43.0 915.0 36.0 898.0 28.0 870.0 16.0 838.0 -1.0 846.0 -24.0 850.0 -56.0 855.0 -85.0 857.0 -125.0 857.0 -152.0 851.0 -152.0 846.0 -152.0 844.0 -144.0 837.0 -104.0 819.0 -52.0 815.0 -37.0 809.0 -16.0 744.0 -60.0 729.0 -64.0 725.0 -64.0 725.0 -60.0 757.0 -8.0 797.0 20.0 L797.0 20.0 M748.0 -448.0 L748.0 -448.0 Q774.0 -528.0 780.0 -593.0 L780.0 -601.0 Q776.0 -601.0 770.0 -593.0 740.0 -540.0 709.0 -456.0 672.0 -352.0 657.0 -293.0 657.0 -284.0 662.0 -280.0 668.0 -280.0 671.0 -284.0 698.0 -316.0 732.0 -408.0 736.0 -417.0 739.0 -425.0 761.0 -421.0 800.0 -412.0 857.0 -400.0 912.0 -400.0 948.0 -400.0 948.0 -408.0 948.0 -417.0 940.0 -421.0 918.0 -433.0 886.0 -436.0 818.0 -448.0 783.0 -448.0 762.0 -448.0 748.0 -448.0 L748.0 -448.0 M589.0 -704.0 L589.0 -704.0 Q522.0 -673.0 464.0 -637.0 395.0 -593.0 358.0 -561.0 357.0 -557.0 357.0 -557.0 358.0 -557.0 360.0 -557.0 450.0 -580.0 494.0 -616.0 560.0 -652.0 591.0 -696.0 593.0 -700.0 593.0 -704.0 592.0 -704.0 589.0 -704.0 L589.0 -704.0 M263.0 -52.0 L263.0 -52.0 Q256.0 -52.0 236.0 -48.0 200.0 -37.0 160.0 -8.0 129.0 16.0 129.0 20.0 129.0 24.0 145.0 24.0 189.0 20.0 233.0 -8.0 260.0 -28.0 267.0 -48.0 267.0 -52.0 263.0 -52.0 L263.0 -52.0 M65.0 -345.0 L65.0 -345.0 Q56.0 -345.0 56.0 -341.0 58.0 -333.0 80.0 -312.0 94.0 -304.0 106.0 -297.0 138.0 -276.0 166.0 -276.0 188.0 -276.0 188.0 -289.0 188.0 -308.0 136.0 -328.0 88.0 -345.0 65.0 -345.0 L65.0 -345.0 M151.0 -620.0 L151.0 -620.0 Q145.0 -620.0 145.0 -616.0 147.0 -605.0 172.0 -584.0 188.0 -568.0 203.0 -557.0 239.0 -532.0 271.0 -532.0 287.0 -532.0 287.0 -540.0 287.0 -564.0 229.0 -597.0 177.0 -620.0 151.0 -620.0 L151.0 -620.0 M510.0 -173.0 L510.0 -173.0 Q510.0 -173.0 511.0 -176.0 511.0 -196.0 496.0 -220.0 488.0 -232.0 478.0 -240.0 465.0 -257.0 457.0 -257.0 453.0 -257.0 450.0 -253.0 450.0 -245.0 455.0 -224.0 463.0 -200.0 469.0 -188.0 475.0 -180.0 481.0 -173.0 432.0 -176.0 391.0 -180.0 344.0 -180.0 344.0 -173.0 346.0 -165.0 393.0 -152.0 425.0 -144.0 453.0 -140.0 426.0 -85.0 403.0 -41.0 378.0 11.0 364.0 51.0 364.0 56.0 368.0 60.0 374.0 60.0 378.0 56.0 403.0 43.0 438.0 -24.0 440.0 -28.0 441.0 -33.0 443.0 -28.0 444.0 -28.0 475.0 -20.0 489.0 -12.0 505.0 -4.0 505.0 20.0 505.0 40.0 501.0 43.0 493.0 47.0 493.0 56.0 503.0 72.0 526.0 72.0 541.0 68.0 543.0 51.0 543.0 3.0 537.0 -12.0 530.0 -28.0 519.0 -33.0 498.0 -45.0 450.0 -48.0 469.0 -92.0 474.0 -132.0 474.0 -136.0 474.0 -140.0 481.0 -140.0 488.0 -140.0 551.0 -140.0 580.0 -144.0 610.0 -148.0 610.0 -156.0 610.0 -161.0 598.0 -165.0 551.0 -169.0 510.0 -173.0 L510.0 -173.0 M483.0 -429.0 L483.0 -429.0 Q479.0 -448.0 474.0 -469.0 468.0 -488.0 459.0 -509.0 450.0 -524.0 445.0 -524.0 442.0 -524.0 442.0 -517.0 442.0 -484.0 443.0 -461.0 447.0 -425.0 455.0 -381.0 463.0 -345.0 470.0 -328.0 481.0 -312.0 487.0 -312.0 490.0 -312.0 495.0 -320.0 496.0 -324.0 497.0 -324.0 498.0 -324.0 499.0 -324.0 517.0 -320.0 548.0 -320.0 572.0 -320.0 594.0 -328.0 610.0 -333.0 610.0 -337.0 610.0 -341.0 604.0 -341.0 601.0 -345.0 596.0 -345.0 601.0 -352.0 605.0 -364.0 617.0 -400.0 622.0 -452.0 622.0 -505.0 566.0 -520.0 520.0 -524.0 493.0 -524.0 475.0 -524.0 475.0 -520.0 475.0 -513.0 495.0 -501.0 525.0 -488.0 561.0 -480.0 577.0 -476.0 577.0 -461.0 577.0 -444.0 575.0 -425.0 572.0 -425.0 569.0 -425.0 539.0 -429.0 499.0 -429.0 490.0 -429.0 483.0 -429.0 L483.0 -429.0 M500.0 -345.0 L500.0 -345.0 Q499.0 -356.0 493.0 -389.0 490.0 -396.0 488.0 -408.0 489.0 -408.0 490.0 -404.0 517.0 -400.0 542.0 -400.0 563.0 -400.0 574.0 -404.0 573.0 -385.0 571.0 -360.0 571.0 -352.0 571.0 -348.0 557.0 -348.0 542.0 -348.0 531.0 -348.0 507.0 -345.0 503.0 -345.0 500.0 -345.0 L500.0 -345.0" fill-rule="evenodd" stroke="none"/>
    </g>
    <g id="font_DFPTongTong-B5__15">
      <path d="M828.0 -60.0 L828.0 -60.0 Q822.0 -60.0 822.0 -52.0 839.0 -28.0 857.0 -4.0 874.0 24.0 885.0 24.0 903.0 20.0 905.0 3.0 905.0 -20.0 883.0 -41.0 855.0 -56.0 828.0 -60.0 L828.0 -60.0 M624.0 -117.0 L624.0 -117.0 Q615.0 -117.0 615.0 -112.0 631.0 -92.0 660.0 -64.0 690.0 -33.0 698.0 -33.0 723.0 -33.0 723.0 -56.0 723.0 -68.0 687.0 -92.0 653.0 -112.0 624.0 -117.0 L624.0 -117.0 M351.0 -77.0 L351.0 -77.0 Q310.0 -52.0 275.0 -16.0 261.0 -1.0 249.0 20.0 241.0 32.0 241.0 43.0 244.0 60.0 251.0 60.0 258.0 60.0 269.0 56.0 287.0 40.0 309.0 3.0 343.0 -41.0 356.0 -68.0 356.0 -77.0 351.0 -77.0 L351.0 -77.0 M503.0 -41.0 L503.0 -41.0 Q495.0 -41.0 495.0 -37.0 517.0 36.0 552.0 68.0 581.0 95.0 614.0 116.0 650.0 131.0 672.0 131.0 688.0 131.0 697.0 124.0 708.0 116.0 708.0 108.0 708.0 100.0 700.0 80.0 695.0 68.0 692.0 68.0 684.0 91.0 672.0 91.0 656.0 91.0 634.0 80.0 609.0 64.0 585.0 43.0 531.0 3.0 503.0 -41.0 L503.0 -41.0 M778.0 -721.0 L778.0 -721.0 Q771.0 -721.0 771.0 -712.0 771.0 -708.0 794.0 -685.0 808.0 -668.0 819.0 -660.0 848.0 -633.0 866.0 -633.0 883.0 -633.0 885.0 -641.0 885.0 -660.0 862.0 -677.0 839.0 -692.0 812.0 -708.0 788.0 -721.0 778.0 -721.0 L778.0 -721.0 M379.0 -196.0 L379.0 -196.0 Q359.0 -196.0 338.0 -196.0 330.0 -196.0 324.0 -196.0 321.0 -217.0 310.0 -249.0 307.0 -260.0 303.0 -268.0 310.0 -268.0 318.0 -268.0 L362.0 -264.0 Q370.0 -264.0 371.0 -249.0 375.0 -228.0 377.0 -205.0 377.0 -200.0 379.0 -196.0 L379.0 -196.0 M324.0 -176.0 L324.0 -176.0 Q327.0 -173.0 329.0 -173.0 356.0 -169.0 380.0 -169.0 422.0 -169.0 424.0 -180.0 424.0 -188.0 408.0 -192.0 407.0 -192.0 404.0 -192.0 407.0 -196.0 409.0 -196.0 417.0 -209.0 417.0 -220.0 417.0 -240.0 413.0 -264.0 404.0 -293.0 367.0 -297.0 344.0 -297.0 316.0 -293.0 303.0 -289.0 295.0 -289.0 294.0 -289.0 293.0 -293.0 285.0 -304.0 281.0 -304.0 276.0 -304.0 276.0 -284.0 279.0 -232.0 281.0 -205.0 283.0 -180.0 293.0 -165.0 302.0 -152.0 310.0 -152.0 316.0 -152.0 321.0 -161.0 324.0 -169.0 324.0 -176.0 L324.0 -176.0 M323.0 -440.0 L323.0 -440.0 Q295.0 -440.0 295.0 -436.0 296.0 -429.0 324.0 -417.0 356.0 -408.0 382.0 -408.0 420.0 -408.0 437.0 -417.0 457.0 -421.0 457.0 -429.0 457.0 -433.0 445.0 -436.0 374.0 -440.0 323.0 -440.0 L323.0 -440.0 M247.0 -608.0 L247.0 -608.0 Q292.0 -605.0 357.0 -597.0 473.0 -580.0 623.0 -576.0 651.0 -469.0 693.0 -385.0 715.0 -345.0 735.0 -312.0 690.0 -249.0 680.0 -224.0 680.0 -217.0 684.0 -217.0 688.0 -217.0 693.0 -220.0 722.0 -236.0 757.0 -284.0 802.0 -228.0 843.0 -228.0 860.0 -228.0 869.0 -245.0 879.0 -257.0 881.0 -284.0 881.0 -289.0 872.0 -289.0 857.0 -264.0 841.0 -264.0 816.0 -264.0 780.0 -316.0 815.0 -364.0 819.0 -392.0 819.0 -404.0 816.0 -404.0 812.0 -404.0 802.0 -392.0 785.0 -373.0 761.0 -345.0 737.0 -385.0 710.0 -440.0 679.0 -520.0 655.0 -576.0 691.0 -576.0 723.0 -580.0 746.0 -580.0 749.0 -584.0 746.0 -593.0 696.0 -605.0 670.0 -605.0 642.0 -608.0 614.0 -673.0 599.0 -704.0 595.0 -704.0 595.0 -700.0 603.0 -652.0 613.0 -612.0 578.0 -616.0 539.0 -620.0 462.0 -629.0 259.0 -641.0 209.0 -641.0 175.0 -641.0 147.0 -637.0 147.0 -633.0 147.0 -624.0 233.0 -612.0 191.0 -513.0 164.0 -412.0 139.0 -324.0 119.0 -209.0 119.0 -200.0 123.0 -200.0 128.0 -200.0 130.0 -209.0 173.0 -289.0 200.0 -392.0 245.0 -549.0 247.0 -608.0 L247.0 -608.0" fill-rule="evenodd" stroke="none"/>
    </g>
    <g id="font_DFPTongTong-B5__16">
      <path d="M694.0 56.0 L694.0 56.0 Q690.0 56.0 680.0 87.0 676.0 104.0 676.0 112.0 678.0 139.0 694.0 148.0 712.0 164.0 749.0 164.0 801.0 160.0 801.0 128.0 801.0 120.0 797.0 108.0 795.0 100.0 791.0 100.0 788.0 100.0 786.0 108.0 773.0 128.0 738.0 131.0 722.0 131.0 716.0 124.0 712.0 124.0 710.0 100.0 708.0 80.0 702.0 72.0 698.0 56.0 694.0 56.0 L694.0 56.0 M568.0 60.0 L568.0 60.0 Q565.0 60.0 561.0 68.0 552.0 80.0 541.0 100.0 532.0 112.0 525.0 131.0 525.0 160.0 535.0 164.0 546.0 164.0 553.0 148.0 565.0 135.0 568.0 120.0 574.0 100.0 574.0 87.0 574.0 60.0 568.0 60.0 L568.0 60.0 M501.0 -217.0 L501.0 -217.0 Q497.0 -236.0 487.0 -236.0 481.0 -236.0 481.0 -176.0 481.0 -108.0 492.0 -48.0 503.0 11.0 520.0 51.0 527.0 64.0 534.0 64.0 540.0 60.0 540.0 51.0 539.0 43.0 538.0 36.0 545.0 40.0 555.0 40.0 591.0 47.0 621.0 47.0 675.0 47.0 677.0 32.0 677.0 24.0 658.0 20.0 657.0 20.0 655.0 20.0 656.0 16.0 657.0 16.0 664.0 -1.0 666.0 -16.0 672.0 -81.0 672.0 -169.0 672.0 -209.0 603.0 -217.0 558.0 -217.0 517.0 -217.0 508.0 -217.0 501.0 -217.0 L501.0 -217.0 M535.0 20.0 L535.0 20.0 Q530.0 -12.0 524.0 -56.0 526.0 -56.0 529.0 -56.0 555.0 -48.0 587.0 -48.0 612.0 -48.0 628.0 -52.0 L630.0 11.0 Q630.0 11.0 631.0 16.0 602.0 16.0 567.0 16.0 547.0 16.0 535.0 20.0 L535.0 20.0 M625.0 -140.0 L625.0 -140.0 Q620.0 -140.0 614.0 -140.0 596.0 -140.0 575.0 -140.0 553.0 -140.0 530.0 -140.0 520.0 -140.0 513.0 -140.0 509.0 -173.0 505.0 -200.0 510.0 -196.0 517.0 -192.0 544.0 -184.0 586.0 -184.0 620.0 -176.0 624.0 -161.0 L625.0 -140.0 625.0 -140.0 M516.0 -121.0 L516.0 -121.0 Q519.0 -121.0 522.0 -121.0 549.0 -112.0 581.0 -112.0 609.0 -112.0 625.0 -117.0 L627.0 -77.0 Q624.0 -77.0 620.0 -77.0 601.0 -81.0 581.0 -81.0 559.0 -81.0 537.0 -77.0 527.0 -77.0 521.0 -77.0 521.0 -77.0 521.0 -81.0 518.0 -100.0 516.0 -121.0 L516.0 -121.0 M94.0 -356.0 L94.0 -356.0 Q90.0 -356.0 90.0 -345.0 90.0 -320.0 92.0 -304.0 96.0 -276.0 104.0 -249.0 113.0 -220.0 121.0 -209.0 132.0 -188.0 138.0 -188.0 142.0 -188.0 146.0 -196.0 151.0 -205.0 153.0 -220.0 153.0 -228.0 144.0 -253.0 136.0 -280.0 125.0 -308.0 119.0 -328.0 109.0 -341.0 98.0 -356.0 94.0 -356.0 L94.0 -356.0 M505.0 -429.0 L505.0 -429.0 Q538.0 -400.0 565.0 -400.0 575.0 -404.0 575.0 -417.0 575.0 -425.0 553.0 -440.0 541.0 -452.0 529.0 -461.0 561.0 -513.0 561.0 -536.0 561.0 -540.0 557.0 -540.0 528.0 -528.0 493.0 -488.0 490.0 -488.0 488.0 -492.0 449.0 -520.0 437.0 -520.0 435.0 -520.0 435.0 -520.0 439.0 -492.0 471.0 -461.0 446.0 -425.0 441.0 -400.0 441.0 -392.0 445.0 -392.0 471.0 -396.0 505.0 -429.0 L505.0 -429.0 M571.0 -620.0 L571.0 -620.0 Q611.0 -589.0 646.0 -589.0 654.0 -593.0 654.0 -601.0 654.0 -608.0 628.0 -629.0 612.0 -641.0 597.0 -652.0 622.0 -692.0 622.0 -712.0 622.0 -717.0 617.0 -717.0 593.0 -704.0 564.0 -677.0 558.0 -681.0 552.0 -685.0 507.0 -717.0 494.0 -717.0 492.0 -717.0 492.0 -712.0 497.0 -685.0 540.0 -645.0 517.0 -616.0 513.0 -597.0 513.0 -589.0 517.0 -589.0 541.0 -589.0 571.0 -620.0 L571.0 -620.0 M829.0 -536.0 L829.0 -536.0 Q799.0 -536.0 761.0 -536.0 722.0 -532.0 722.0 -528.0 724.0 -517.0 752.0 -513.0 781.0 -505.0 807.0 -505.0 819.0 -505.0 829.0 -509.0 828.0 -484.0 827.0 -465.0 826.0 -465.0 826.0 -465.0 797.0 -469.0 760.0 -469.0 724.0 -465.0 724.0 -456.0 726.0 -448.0 751.0 -440.0 777.0 -433.0 801.0 -433.0 816.0 -433.0 826.0 -436.0 825.0 -400.0 823.0 -364.0 823.0 -337.0 831.0 -337.0 846.0 -337.0 854.0 -364.0 868.0 -465.0 872.0 -605.0 872.0 -656.0 824.0 -668.0 783.0 -677.0 760.0 -677.0 743.0 -677.0 743.0 -673.0 743.0 -664.0 761.0 -652.0 787.0 -641.0 818.0 -633.0 830.0 -629.0 830.0 -612.0 830.0 -576.0 829.0 -536.0 L829.0 -536.0 M210.0 -517.0 L210.0 -517.0 Q211.0 -517.0 213.0 -517.0 244.0 -509.0 269.0 -509.0 316.0 -509.0 318.0 -528.0 318.0 -536.0 301.0 -540.0 267.0 -545.0 223.0 -545.0 215.0 -545.0 208.0 -540.0 208.0 -549.0 208.0 -557.0 202.0 -601.0 189.0 -637.0 188.0 -645.0 186.0 -645.0 223.0 -660.0 248.0 -677.0 329.0 -717.0 365.0 -761.0 369.0 -765.0 369.0 -769.0 367.0 -773.0 360.0 -773.0 281.0 -740.0 210.0 -704.0 127.0 -660.0 84.0 -624.0 82.0 -620.0 82.0 -616.0 84.0 -616.0 87.0 -616.0 131.0 -629.0 166.0 -637.0 164.0 -612.0 164.0 -597.0 164.0 -561.0 166.0 -517.0 168.0 -469.0 172.0 -408.0 175.0 -373.0 181.0 -356.0 182.0 -352.0 182.0 -352.0 139.0 -348.0 139.0 -345.0 141.0 -324.0 342.0 -316.0 476.0 -308.0 687.0 -304.0 784.0 -301.0 834.0 -289.0 885.0 -276.0 885.0 -245.0 885.0 -220.0 883.0 -200.0 883.0 -173.0 893.0 -173.0 910.0 -173.0 921.0 -200.0 925.0 -224.0 925.0 -253.0 925.0 -301.0 844.0 -328.0 773.0 -348.0 605.0 -352.0 479.0 -356.0 225.0 -356.0 214.0 -356.0 205.0 -356.0 205.0 -356.0 206.0 -356.0 212.0 -377.0 214.0 -400.0 214.0 -421.0 213.0 -452.0 215.0 -452.0 217.0 -452.0 242.0 -444.0 263.0 -444.0 301.0 -444.0 302.0 -461.0 302.0 -473.0 285.0 -473.0 259.0 -476.0 225.0 -476.0 217.0 -476.0 212.0 -476.0 211.0 -496.0 210.0 -517.0 L210.0 -517.0" fill-rule="evenodd" stroke="none"/>
    </g>
  </defs>
</svg>
