<?xml version="1.0" encoding="UTF-8" standalone="no"?>
<svg xmlns:xlink="http://www.w3.org/1999/xlink" height="84.05px" width="87.0px" xmlns="http://www.w3.org/2000/svg">
  <g transform="matrix(1.0, 0.0, 0.0, 1.0, 47.5, 40.0)">
    <path d="M27.7 -28.2 Q39.5 -16.45 39.5 0.25 39.5 16.9 27.7 28.7 15.9 40.5 -0.75 40.5 -17.45 40.5 -29.2 28.7 -41.0 16.9 -41.0 0.25 -41.0 -16.45 -29.2 -28.2 -17.45 -40.0 -0.75 -40.0 15.9 -40.0 27.7 -28.2 M23.65 0.25 Q23.65 -9.9 16.5 -17.0 9.35 -24.15 -0.75 -24.15 -10.85 -24.15 -18.0 -17.0 -25.15 -9.9 -25.15 0.25 -25.15 10.35 -18.0 17.5 -10.85 24.65 -0.75 24.65 9.35 24.65 16.5 17.5 23.65 10.35 23.65 0.25" fill="#ffffff" fill-rule="evenodd" stroke="none"/>
    <path d="M8.25 42.2 Q1.4 44.4 -8.05 43.0 -26.9 40.05 -39.65 21.75 -53.05 2.5 -42.1 -18.45 -38.05 -26.2 -31.55 -32.25 -25.8 -37.55 -21.5 -38.7" fill="none" stroke="#ffffff" stroke-linecap="butt" stroke-linejoin="miter-clip" stroke-miterlimit="4.0" stroke-width="1.0"/>
    <path d="M27.7 -28.2 Q39.5 -16.45 39.5 0.25 39.5 16.9 27.7 28.7 15.9 40.5 -0.75 40.5 -17.45 40.5 -29.2 28.7 -41.0 16.9 -41.0 0.25 -41.0 -16.45 -29.2 -28.2 -17.45 -40.0 -0.75 -40.0 15.9 -40.0 27.7 -28.2 M23.65 0.25 Q23.65 -9.9 16.5 -17.0 9.35 -24.15 -0.75 -24.15 -10.85 -24.15 -18.0 -17.0 -25.15 -9.9 -25.15 0.25 -25.15 10.35 -18.0 17.5 -10.85 24.65 -0.75 24.65 9.35 24.65 16.5 17.5 23.65 10.35 23.65 0.25" fill="#ffffff" fill-rule="evenodd" stroke="none"/>
    <path d="M8.25 42.2 Q1.4 44.4 -8.05 43.0 -26.9 40.05 -39.65 21.75 -53.05 2.5 -42.1 -18.45 -38.05 -26.2 -31.55 -32.25 -25.8 -37.55 -21.5 -38.7" fill="none" stroke="#ffffff" stroke-linecap="butt" stroke-linejoin="miter-clip" stroke-miterlimit="4.0" stroke-width="1.0"/>
  </g>
</svg>
