<?xml version="1.0" encoding="UTF-8" standalone="no"?>
<svg xmlns:xlink="http://www.w3.org/1999/xlink" height="18.4px" width="112.35px" xmlns="http://www.w3.org/2000/svg">
  <g transform="matrix(1.0, 0.0, 0.0, 1.0, 0.0, 0.0)">
    <path d="M9.5 0.0 L13.5 0.45 Q14.9 0.9 15.75 2.1 16.6 3.3 16.6 5.1 16.6 6.65 15.95 7.75 15.3 8.85 14.15 9.55 L12.2 10.25 13.65 10.95 14.55 11.9 15.35 13.05 18.1 18.4 11.7 18.4 8.65 12.75 7.6 11.35 Q7.0 10.9 6.25 10.9 L5.75 10.9 5.75 18.4 0.0 18.4 0.0 0.0 9.5 0.0 M35.2 0.0 L35.2 3.9 25.65 3.9 25.65 6.85 34.5 6.85 34.5 10.6 25.65 10.6 25.65 14.2 35.5 14.2 35.5 18.4 19.95 18.4 19.95 0.0 35.2 0.0 M62.7 0.0 L62.7 13.85 71.6 13.85 71.6 18.4 57.05 18.4 57.05 0.0 62.7 0.0 M47.95 0.0 Q51.0 0.0 52.55 1.45 54.05 2.9 54.1 5.65 54.1 8.4 52.4 10.0 50.75 11.55 47.3 11.55 L44.2 11.55 44.2 18.4 38.5 18.4 38.5 0.0 47.95 0.0 M98.65 0.0 L102.4 6.2 106.1 0.0 112.35 0.0 105.2 10.7 105.2 18.4 99.5 18.4 99.5 10.7 92.35 0.0 98.65 0.0 M85.4 0.0 L92.35 18.4 86.4 18.4 85.5 15.35 79.0 15.35 78.1 18.4 72.3 18.4 79.25 0.0 85.4 0.0 M82.25 4.75 L80.25 11.4 84.3 11.4 82.25 4.75 M47.95 4.35 Q47.4 3.7 45.8 3.75 L44.2 3.75 44.2 7.85 45.6 7.85 Q47.2 7.8 47.9 7.25 48.55 6.7 48.55 5.8 48.55 4.9 47.95 4.35 M10.35 4.2 Q9.75 3.7 8.2 3.7 L5.75 3.7 5.75 7.45 8.15 7.45 9.65 7.2 10.55 6.6 10.9 5.55 Q10.9 4.65 10.35 4.2" fill="#2b0000" fill-rule="evenodd" stroke="none"/>
  </g>
</svg>
