<?xml version="1.0" encoding="UTF-8" standalone="no"?>
<svg xmlns:xlink="http://www.w3.org/1999/xlink" height="39.1px" width="267.15px" xmlns="http://www.w3.org/2000/svg">
  <g transform="matrix(1.0, 0.0, 0.0, 1.0, -4.55, 0.5)">
    <g transform="matrix(1.0, 0.0, 0.0, 1.0, 0.0, 0.0)">
      <use fill="#ffffff" height="39.1" transform="matrix(0.0384, 0.0, 0.0, 0.0384, 0.0, 31.0)" width="267.15" xlink:href="#font_DFPTongTong-B5__0"/>
      <use fill="#ffffff" height="39.1" transform="matrix(0.0384, 0.0, 0.0, 0.0384, 39.3, 31.0)" width="267.15" xlink:href="#font_DFPTongTong-B5__1"/>
      <use fill="#ffffff" height="39.1" transform="matrix(0.0384, 0.0, 0.0, 0.0384, 78.6, 31.0)" width="267.15" xlink:href="#font_DFPTongTong-B5__2"/>
      <use fill="#ffffff" height="39.1" transform="matrix(0.0384, 0.0, 0.0, 0.0384, 117.9, 31.0)" width="267.15" xlink:href="#font_DFPTongTong-B5__3"/>
      <use fill="#ffffff" height="39.1" transform="matrix(0.0384, 0.0, 0.0, 0.0384, 157.2, 31.0)" width="267.15" xlink:href="#font_DFPTongTong-B5__4"/>
      <use fill="#ffffff" height="39.1" transform="matrix(0.0384, 0.0, 0.0, 0.0384, 196.5, 31.0)" width="267.15" xlink:href="#font_DFPTongTong-B5__5"/>
      <use fill="#ffffff" height="39.1" transform="matrix(0.0384, 0.0, 0.0, 0.0384, 235.8, 31.0)" width="267.15" xlink:href="#font_DFPTongTong-B5__6"/>
    </g>
  </g>
  <defs>
    <g id="font_DFPTongTong-B5__0">
      <path d="M783.0 -620.0 L783.0 -620.0 Q776.0 -620.0 776.0 -616.0 777.0 -605.0 799.0 -584.0 813.0 -572.0 824.0 -561.0 856.0 -536.0 884.0 -536.0 902.0 -536.0 902.0 -549.0 902.0 -572.0 852.0 -601.0 806.0 -620.0 783.0 -620.0 L783.0 -620.0 M499.0 -681.0 L499.0 -681.0 Q453.0 -668.0 312.0 -612.0 189.0 -564.0 134.0 -536.0 119.0 -532.0 119.0 -524.0 119.0 -520.0 128.0 -520.0 239.0 -536.0 342.0 -580.0 430.0 -608.0 503.0 -664.0 509.0 -668.0 512.0 -677.0 508.0 -681.0 499.0 -681.0 L499.0 -681.0 M647.0 -341.0 L647.0 -341.0 Q536.0 -337.0 417.0 -333.0 385.0 -333.0 355.0 -328.0 350.0 -373.0 343.0 -404.0 327.0 -469.0 317.0 -469.0 315.0 -465.0 315.0 -461.0 321.0 -389.0 325.0 -328.0 244.0 -324.0 188.0 -320.0 142.0 -308.0 138.0 -304.0 140.0 -289.0 239.0 -289.0 278.0 -289.0 327.0 -289.0 334.0 -192.0 336.0 -112.0 329.0 -108.0 322.0 -104.0 219.0 -64.0 174.0 -41.0 161.0 -33.0 161.0 -28.0 161.0 -24.0 169.0 -24.0 256.0 -37.0 337.0 -77.0 339.0 -33.0 339.0 3.0 339.0 32.0 330.0 40.0 323.0 40.0 323.0 47.0 325.0 51.0 331.0 51.0 344.0 56.0 358.0 56.0 383.0 51.0 383.0 20.0 383.0 -12.0 378.0 -72.0 377.0 -81.0 377.0 -92.0 431.0 -117.0 478.0 -152.0 484.0 -156.0 486.0 -165.0 484.0 -169.0 476.0 -169.0 446.0 -161.0 375.0 -129.0 371.0 -184.0 367.0 -232.0 364.0 -264.0 360.0 -293.0 374.0 -293.0 388.0 -293.0 544.0 -297.0 651.0 -304.0 664.0 -196.0 693.0 -108.0 700.0 -88.0 708.0 -68.0 646.0 -20.0 614.0 3.0 610.0 7.0 610.0 16.0 612.0 20.0 618.0 20.0 677.0 -4.0 724.0 -33.0 772.0 60.0 848.0 72.0 888.0 72.0 890.0 43.0 890.0 36.0 884.0 36.0 871.0 43.0 852.0 43.0 799.0 28.0 758.0 -56.0 814.0 -104.0 840.0 -144.0 846.0 -156.0 846.0 -165.0 840.0 -165.0 833.0 -161.0 799.0 -136.0 742.0 -96.0 738.0 -104.0 735.0 -112.0 709.0 -213.0 692.0 -308.0 791.0 -316.0 836.0 -328.0 852.0 -333.0 852.0 -341.0 852.0 -345.0 829.0 -345.0 758.0 -345.0 686.0 -341.0 675.0 -421.0 670.0 -492.0 668.0 -517.0 664.0 -540.0 659.0 -564.0 655.0 -564.0 651.0 -564.0 642.0 -480.0 642.0 -408.0 647.0 -341.0 L647.0 -341.0" fill-rule="evenodd" stroke="none"/>
    </g>
    <g id="font_DFPTongTong-B5__1">
      <path d="M655.0 -81.0 L655.0 -81.0 Q659.0 -81.0 665.0 -77.0 689.0 -72.0 711.0 -72.0 749.0 -72.0 750.0 -88.0 750.0 -96.0 732.0 -100.0 707.0 -104.0 673.0 -104.0 664.0 -104.0 656.0 -100.0 656.0 -144.0 653.0 -196.0 653.0 -200.0 653.0 -205.0 658.0 -200.0 669.0 -200.0 732.0 -200.0 738.0 -180.0 749.0 -156.0 763.0 -52.0 781.0 51.0 781.0 100.0 781.0 120.0 772.0 128.0 772.0 139.0 791.0 139.0 803.0 139.0 814.0 128.0 823.0 120.0 823.0 108.0 823.0 76.0 811.0 -4.0 804.0 -52.0 785.0 -156.0 774.0 -220.0 722.0 -220.0 697.0 -220.0 676.0 -220.0 659.0 -217.0 652.0 -213.0 650.0 -232.0 646.0 -232.0 642.0 -232.0 640.0 -217.0 632.0 -161.0 618.0 -52.0 610.0 24.0 610.0 95.0 614.0 131.0 623.0 131.0 634.0 128.0 645.0 56.0 647.0 36.0 649.0 7.0 676.0 16.0 699.0 16.0 740.0 16.0 741.0 -1.0 741.0 -8.0 724.0 -12.0 695.0 -16.0 658.0 -16.0 654.0 -16.0 651.0 -16.0 654.0 -48.0 655.0 -81.0 L655.0 -81.0 M465.0 -553.0 L465.0 -553.0 Q489.0 -549.0 515.0 -549.0 947.0 -549.0 949.0 -564.0 949.0 -576.0 911.0 -580.0 873.0 -589.0 798.0 -589.0 643.0 -593.0 490.0 -597.0 559.0 -721.0 570.0 -773.0 572.0 -777.0 572.0 -780.0 570.0 -780.0 566.0 -777.0 506.0 -700.0 443.0 -597.0 325.0 -597.0 206.0 -597.0 78.0 -597.0 78.0 -584.0 78.0 -568.0 259.0 -561.0 328.0 -553.0 419.0 -553.0 391.0 -505.0 364.0 -452.0 282.0 -312.0 215.0 -144.0 214.0 -140.0 214.0 -132.0 220.0 -132.0 223.0 -140.0 321.0 -293.0 401.0 -444.0 437.0 -501.0 465.0 -553.0 L465.0 -553.0" fill-rule="evenodd" stroke="none"/>
    </g>
    <g id="font_DFPTongTong-B5__2">
      <path d="M343.0 -64.0 L343.0 -64.0 Q339.0 -108.0 317.0 -228.0 303.0 -328.0 294.0 -456.0 281.0 -564.0 268.0 -564.0 258.0 -564.0 258.0 -473.0 256.0 -425.0 256.0 -404.0 262.0 -297.0 280.0 -192.0 302.0 -85.0 322.0 -41.0 328.0 -28.0 336.0 -28.0 344.0 -33.0 344.0 -52.0 364.0 -45.0 382.0 -45.0 402.0 -41.0 518.0 -41.0 654.0 -41.0 725.0 -52.0 787.0 -68.0 795.0 -85.0 795.0 -85.0 780.0 -88.0 785.0 -96.0 788.0 -112.0 798.0 -140.0 802.0 -196.0 803.0 -245.0 803.0 -293.0 798.0 -385.0 786.0 -425.0 786.0 -524.0 636.0 -540.0 519.0 -549.0 365.0 -553.0 330.0 -549.0 326.0 -545.0 340.0 -528.0 410.0 -517.0 475.0 -501.0 574.0 -501.0 657.0 -496.0 693.0 -488.0 725.0 -480.0 732.0 -456.0 760.0 -417.0 760.0 -209.0 759.0 -132.0 759.0 -96.0 759.0 -92.0 759.0 -88.0 755.0 -88.0 751.0 -88.0 657.0 -85.0 529.0 -77.0 383.0 -68.0 343.0 -64.0 L343.0 -64.0" fill-rule="evenodd" stroke="none"/>
    </g>
    <g id="font_DFPTongTong-B5__3">
      <path d="M471.0 -433.0 L471.0 -433.0 Q476.0 -429.0 482.0 -429.0 504.0 -421.0 531.0 -421.0 561.0 -421.0 574.0 -425.0 589.0 -433.0 589.0 -436.0 589.0 -444.0 560.0 -448.0 544.0 -448.0 526.0 -448.0 507.0 -448.0 488.0 -448.0 476.0 -444.0 469.0 -444.0 467.0 -456.0 465.0 -465.0 460.0 -501.0 450.0 -524.0 439.0 -553.0 434.0 -553.0 431.0 -553.0 431.0 -540.0 431.0 -492.0 432.0 -456.0 437.0 -400.0 444.0 -337.0 453.0 -280.0 461.0 -257.0 473.0 -236.0 479.0 -236.0 483.0 -236.0 487.0 -245.0 490.0 -253.0 493.0 -260.0 506.0 -257.0 527.0 -257.0 555.0 -253.0 589.0 -253.0 634.0 -253.0 652.0 -260.0 675.0 -268.0 675.0 -276.0 673.0 -284.0 649.0 -284.0 651.0 -289.0 653.0 -297.0 672.0 -368.0 678.0 -469.0 678.0 -524.0 603.0 -540.0 541.0 -549.0 504.0 -549.0 487.0 -545.0 487.0 -540.0 487.0 -536.0 506.0 -524.0 554.0 -509.0 610.0 -501.0 634.0 -496.0 634.0 -476.0 634.0 -400.0 621.0 -293.0 621.0 -289.0 621.0 -284.0 557.0 -284.0 494.0 -284.0 492.0 -304.0 485.0 -341.0 484.0 -348.0 483.0 -356.0 486.0 -356.0 490.0 -352.0 512.0 -348.0 539.0 -345.0 568.0 -345.0 581.0 -352.0 595.0 -356.0 595.0 -360.0 595.0 -368.0 566.0 -373.0 551.0 -377.0 534.0 -377.0 515.0 -377.0 497.0 -373.0 487.0 -373.0 481.0 -373.0 476.0 -400.0 471.0 -433.0 L471.0 -433.0 M717.0 -224.0 L717.0 -224.0 Q711.0 -224.0 711.0 -220.0 713.0 -217.0 718.0 -205.0 724.0 -192.0 732.0 -176.0 748.0 -152.0 757.0 -140.0 763.0 -132.0 769.0 -132.0 780.0 -132.0 784.0 -161.0 784.0 -180.0 763.0 -200.0 730.0 -224.0 717.0 -224.0 L717.0 -224.0 M467.0 -752.0 L467.0 -752.0 Q415.0 -721.0 336.0 -652.0 263.0 -576.0 224.0 -528.0 224.0 -520.0 228.0 -520.0 237.0 -520.0 243.0 -524.0 269.0 -540.0 357.0 -612.0 438.0 -677.0 484.0 -752.0 484.0 -757.0 478.0 -757.0 474.0 -757.0 467.0 -752.0 L467.0 -752.0 M498.0 56.0 L498.0 56.0 Q504.0 64.0 511.0 76.0 542.0 108.0 589.0 112.0 631.0 108.0 631.0 104.0 631.0 100.0 618.0 91.0 548.0 64.0 508.0 36.0 514.0 24.0 520.0 11.0 540.0 -28.0 554.0 -64.0 564.0 -64.0 575.0 -64.0 659.0 -64.0 699.0 -68.0 743.0 -68.0 743.0 -77.0 743.0 -85.0 652.0 -92.0 612.0 -96.0 568.0 -100.0 585.0 -148.0 589.0 -180.0 589.0 -188.0 585.0 -192.0 581.0 -192.0 570.0 -180.0 553.0 -148.0 529.0 -104.0 464.0 -108.0 389.0 -108.0 349.0 -108.0 269.0 -104.0 228.0 -100.0 228.0 -96.0 228.0 -88.0 338.0 -77.0 406.0 -68.0 510.0 -64.0 503.0 -52.0 496.0 -37.0 441.0 87.0 429.0 128.0 429.0 135.0 432.0 135.0 436.0 135.0 442.0 131.0 468.0 112.0 498.0 56.0 L498.0 56.0" fill-rule="evenodd" stroke="none"/>
    </g>
    <g id="font_DFPTongTong-B5__4">
      <path d="M309.0 -601.0 L309.0 -601.0 Q305.0 -601.0 296.0 -589.0 255.0 -549.0 188.0 -469.0 112.0 -368.0 93.0 -333.0 93.0 -324.0 97.0 -324.0 101.0 -324.0 108.0 -328.0 156.0 -352.0 217.0 -433.0 303.0 -536.0 313.0 -589.0 313.0 -601.0 309.0 -601.0 L309.0 -601.0 M330.0 -64.0 L330.0 -64.0 Q335.0 -72.0 339.0 -85.0 351.0 -129.0 354.0 -188.0 354.0 -236.0 290.0 -253.0 237.0 -260.0 205.0 -260.0 198.0 -260.0 194.0 -257.0 184.0 -276.0 180.0 -276.0 176.0 -276.0 176.0 -264.0 176.0 -228.0 178.0 -200.0 182.0 -161.0 190.0 -108.0 199.0 -68.0 207.0 -48.0 218.0 -33.0 224.0 -33.0 228.0 -33.0 232.0 -41.0 233.0 -45.0 234.0 -45.0 239.0 -45.0 244.0 -45.0 272.0 -37.0 296.0 -37.0 340.0 -37.0 342.0 -52.0 342.0 -60.0 330.0 -64.0 L330.0 -64.0 M309.0 -132.0 L309.0 -132.0 Q308.0 -108.0 306.0 -81.0 306.0 -72.0 307.0 -68.0 283.0 -68.0 253.0 -68.0 245.0 -68.0 239.0 -68.0 237.0 -81.0 230.0 -117.0 229.0 -121.0 227.0 -129.0 245.0 -125.0 269.0 -125.0 291.0 -125.0 309.0 -132.0 L309.0 -132.0 M202.0 -236.0 L202.0 -236.0 Q204.0 -236.0 207.0 -232.0 247.0 -220.0 293.0 -213.0 311.0 -209.0 311.0 -192.0 311.0 -176.0 311.0 -156.0 305.0 -156.0 299.0 -156.0 283.0 -156.0 264.0 -156.0 253.0 -156.0 229.0 -152.0 226.0 -152.0 223.0 -152.0 217.0 -180.0 211.0 -209.0 207.0 -224.0 202.0 -236.0 L202.0 -236.0 M575.0 -469.0 L575.0 -469.0 Q588.0 -465.0 605.0 -456.0 660.0 -440.0 742.0 -425.0 787.0 -417.0 836.0 -408.0 867.0 -400.0 870.0 -381.0 874.0 -320.0 876.0 -253.0 878.0 -184.0 880.0 -104.0 880.0 28.0 847.0 40.0 847.0 47.0 852.0 47.0 869.0 56.0 888.0 56.0 921.0 40.0 921.0 -200.0 921.0 -320.0 913.0 -385.0 905.0 -440.0 812.0 -461.0 756.0 -469.0 691.0 -473.0 631.0 -480.0 584.0 -484.0 618.0 -549.0 632.0 -616.0 632.0 -620.0 631.0 -620.0 629.0 -620.0 626.0 -616.0 578.0 -557.0 528.0 -473.0 489.0 -389.0 458.0 -304.0 458.0 -301.0 460.0 -301.0 462.0 -301.0 464.0 -301.0 518.0 -360.0 554.0 -433.0 565.0 -448.0 575.0 -469.0 L575.0 -469.0 M592.0 -140.0 L592.0 -140.0 Q584.0 -140.0 584.0 -136.0 586.0 -125.0 607.0 -108.0 622.0 -96.0 634.0 -88.0 666.0 -64.0 693.0 -64.0 716.0 -64.0 716.0 -77.0 716.0 -96.0 664.0 -121.0 615.0 -140.0 592.0 -140.0 L592.0 -140.0" fill-rule="evenodd" stroke="none"/>
    </g>
    <g id="font_DFPTongTong-B5__5">
      <path d="M165.0 -629.0 L165.0 -629.0 Q155.0 -629.0 155.0 -540.0 153.0 -496.0 153.0 -476.0 160.0 -308.0 179.0 -161.0 206.0 7.0 227.0 72.0 233.0 84.0 242.0 84.0 250.0 80.0 250.0 60.0 250.0 20.0 218.0 -196.0 201.0 -341.0 188.0 -524.0 176.0 -629.0 165.0 -629.0 L165.0 -629.0 M872.0 28.0 L872.0 28.0 Q878.0 20.0 882.0 -1.0 892.0 -28.0 895.0 -85.0 897.0 -184.0 897.0 -272.0 892.0 -456.0 880.0 -540.0 880.0 -652.0 723.0 -668.0 544.0 -681.0 304.0 -681.0 269.0 -681.0 266.0 -677.0 280.0 -656.0 348.0 -645.0 472.0 -629.0 658.0 -629.0 744.0 -629.0 782.0 -620.0 815.0 -605.0 823.0 -580.0 852.0 -513.0 852.0 -169.0 851.0 -41.0 851.0 20.0 850.0 24.0 851.0 28.0 847.0 28.0 842.0 28.0 733.0 32.0 587.0 40.0 364.0 47.0 355.0 56.0 355.0 64.0 366.0 64.0 392.0 72.0 416.0 72.0 439.0 76.0 571.0 76.0 726.0 76.0 806.0 64.0 879.0 47.0 886.0 32.0 886.0 32.0 872.0 28.0 L872.0 28.0 M554.0 -276.0 L554.0 -276.0 Q554.0 -253.0 554.0 -228.0 554.0 -228.0 554.0 -228.0 513.0 -205.0 477.0 -176.0 431.0 -140.0 407.0 -112.0 404.0 -112.0 404.0 -108.0 407.0 -104.0 411.0 -104.0 470.0 -125.0 500.0 -152.0 535.0 -176.0 555.0 -205.0 561.0 -88.0 578.0 -68.0 582.0 -64.0 586.0 -64.0 595.0 -64.0 601.0 -104.0 598.0 -148.0 596.0 -184.0 597.0 -184.0 599.0 -184.0 609.0 -176.0 618.0 -169.0 643.0 -148.0 664.0 -148.0 686.0 -148.0 686.0 -161.0 686.0 -176.0 645.0 -196.0 613.0 -209.0 595.0 -213.0 593.0 -249.0 591.0 -276.0 633.0 -280.0 658.0 -284.0 707.0 -293.0 707.0 -304.0 707.0 -312.0 649.0 -316.0 617.0 -316.0 587.0 -320.0 583.0 -373.0 578.0 -392.0 572.0 -417.0 566.0 -417.0 559.0 -417.0 555.0 -368.0 555.0 -345.0 554.0 -320.0 514.0 -320.0 478.0 -320.0 443.0 -316.0 408.0 -312.0 383.0 -308.0 383.0 -304.0 383.0 -297.0 423.0 -289.0 471.0 -276.0 519.0 -276.0 538.0 -276.0 554.0 -276.0 L554.0 -276.0" fill-rule="evenodd" stroke="none"/>
    </g>
    <g id="font_DFPTongTong-B5__6">
      <path d="M503.0 -268.0 L503.0 -268.0 Q471.0 -253.0 445.0 -224.0 434.0 -217.0 425.0 -200.0 419.0 -192.0 419.0 -184.0 422.0 -165.0 429.0 -165.0 436.0 -165.0 447.0 -169.0 460.0 -184.0 475.0 -209.0 499.0 -240.0 508.0 -260.0 508.0 -268.0 503.0 -268.0 L503.0 -268.0 M380.0 -412.0 L380.0 -412.0 Q376.0 -412.0 373.0 -396.0 354.0 -304.0 352.0 -280.0 352.0 -264.0 355.0 -253.0 357.0 -245.0 364.0 -245.0 371.0 -245.0 376.0 -253.0 385.0 -260.0 387.0 -268.0 396.0 -280.0 398.0 -341.0 398.0 -377.0 392.0 -392.0 387.0 -412.0 380.0 -412.0 L380.0 -412.0 M699.0 -553.0 L699.0 -553.0 Q696.0 -553.0 692.0 -553.0 653.0 -561.0 603.0 -561.0 590.0 -561.0 580.0 -561.0 575.0 -597.0 571.0 -616.0 574.0 -616.0 580.0 -612.0 625.0 -601.0 678.0 -593.0 699.0 -589.0 699.0 -576.0 699.0 -564.0 699.0 -553.0 L699.0 -553.0 M582.0 -540.0 L582.0 -540.0 Q587.0 -540.0 592.0 -536.0 626.0 -532.0 655.0 -532.0 685.0 -532.0 698.0 -536.0 697.0 -517.0 695.0 -496.0 694.0 -496.0 693.0 -496.0 656.0 -492.0 607.0 -492.0 594.0 -492.0 586.0 -492.0 584.0 -517.0 582.0 -540.0 L582.0 -540.0 M646.0 -45.0 L646.0 -45.0 Q651.0 -64.0 655.0 -85.0 655.0 -96.0 652.0 -96.0 650.0 -96.0 648.0 -92.0 621.0 -56.0 595.0 -16.0 569.0 32.0 565.0 60.0 565.0 76.0 568.0 76.0 574.0 76.0 580.0 72.0 612.0 51.0 625.0 11.0 633.0 -4.0 639.0 -20.0 640.0 -20.0 641.0 -20.0 677.0 -16.0 689.0 -8.0 698.0 -4.0 698.0 3.0 698.0 36.0 686.0 72.0 683.0 80.0 681.0 84.0 651.0 76.0 618.0 60.0 606.0 60.0 606.0 72.0 620.0 91.0 657.0 108.0 664.0 112.0 671.0 116.0 669.0 120.0 667.0 128.0 658.0 152.0 658.0 152.0 658.0 160.0 664.0 160.0 679.0 148.0 690.0 131.0 694.0 128.0 697.0 124.0 713.0 128.0 731.0 128.0 796.0 124.0 799.0 112.0 799.0 108.0 768.0 104.0 740.0 104.0 713.0 95.0 716.0 87.0 718.0 80.0 727.0 60.0 733.0 40.0 740.0 11.0 740.0 -8.0 740.0 -37.0 706.0 -41.0 691.0 -45.0 662.0 -45.0 653.0 -45.0 646.0 -45.0 L646.0 -45.0 M560.0 -400.0 L560.0 -400.0 Q547.0 -400.0 534.0 -400.0 459.0 -400.0 459.0 -396.0 459.0 -385.0 601.0 -373.0 655.0 -368.0 713.0 -360.0 766.0 -356.0 800.0 -352.0 846.0 -348.0 868.0 -341.0 892.0 -328.0 892.0 -312.0 L888.0 -272.0 Q888.0 -264.0 898.0 -264.0 914.0 -272.0 926.0 -293.0 936.0 -312.0 936.0 -328.0 936.0 -360.0 887.0 -373.0 836.0 -385.0 775.0 -389.0 741.0 -392.0 711.0 -396.0 714.0 -400.0 716.0 -408.0 736.0 -476.0 742.0 -568.0 742.0 -616.0 672.0 -629.0 642.0 -633.0 617.0 -633.0 624.0 -641.0 628.0 -648.0 636.0 -664.0 638.0 -689.0 641.0 -689.0 643.0 -689.0 788.0 -689.0 858.0 -696.0 932.0 -704.0 932.0 -717.0 932.0 -721.0 844.0 -725.0 698.0 -729.0 580.0 -729.0 525.0 -725.0 470.0 -721.0 431.0 -721.0 431.0 -717.0 431.0 -708.0 495.0 -700.0 557.0 -692.0 618.0 -692.0 613.0 -685.0 607.0 -673.0 597.0 -648.0 593.0 -637.0 585.0 -637.0 578.0 -637.0 571.0 -637.0 567.0 -633.0 563.0 -652.0 559.0 -652.0 552.0 -652.0 548.0 -605.0 547.0 -564.0 547.0 -509.0 550.0 -433.0 560.0 -400.0 L560.0 -400.0 M684.0 -396.0 L684.0 -396.0 Q630.0 -400.0 587.0 -400.0 589.0 -408.0 591.0 -421.0 589.0 -448.0 587.0 -473.0 591.0 -473.0 596.0 -469.0 629.0 -465.0 657.0 -465.0 680.0 -465.0 692.0 -469.0 689.0 -436.0 684.0 -404.0 683.0 -400.0 684.0 -396.0 L684.0 -396.0 M667.0 -304.0 L667.0 -304.0 Q660.0 -304.0 660.0 -301.0 660.0 -301.0 671.0 -284.0 681.0 -268.0 690.0 -257.0 711.0 -228.0 722.0 -228.0 733.0 -232.0 733.0 -249.0 733.0 -257.0 725.0 -264.0 716.0 -276.0 697.0 -289.0 682.0 -301.0 667.0 -304.0 L667.0 -304.0 M824.0 -245.0 L824.0 -245.0 Q817.0 -245.0 817.0 -240.0 817.0 -236.0 831.0 -217.0 841.0 -205.0 849.0 -196.0 867.0 -173.0 880.0 -173.0 895.0 -173.0 898.0 -184.0 898.0 -196.0 883.0 -213.0 866.0 -224.0 848.0 -236.0 831.0 -245.0 824.0 -245.0 L824.0 -245.0 M571.0 -272.0 L571.0 -272.0 Q563.0 -272.0 563.0 -268.0 583.0 -213.0 612.0 -184.0 637.0 -161.0 666.0 -144.0 696.0 -129.0 715.0 -129.0 731.0 -129.0 740.0 -136.0 751.0 -144.0 751.0 -152.0 751.0 -161.0 740.0 -180.0 732.0 -188.0 729.0 -188.0 723.0 -173.0 715.0 -173.0 701.0 -173.0 683.0 -180.0 662.0 -192.0 641.0 -209.0 596.0 -236.0 571.0 -272.0 L571.0 -272.0 M190.0 -180.0 L190.0 -180.0 Q189.0 -180.0 188.0 -180.0 148.0 -169.0 114.0 -161.0 89.0 -156.0 89.0 -152.0 89.0 -140.0 162.0 -140.0 178.0 -144.0 193.0 -144.0 195.0 -112.0 195.0 -88.0 195.0 -33.0 171.0 -24.0 167.0 -24.0 167.0 -20.0 174.0 -8.0 199.0 -8.0 230.0 -16.0 230.0 -77.0 230.0 -117.0 228.0 -156.0 240.0 -161.0 250.0 -165.0 279.0 -184.0 281.0 -196.0 281.0 -200.0 272.0 -200.0 270.0 -200.0 249.0 -192.0 238.0 -192.0 226.0 -188.0 223.0 -245.0 216.0 -301.0 213.0 -356.0 209.0 -404.0 252.0 -400.0 295.0 -400.0 327.0 -400.0 327.0 -408.0 327.0 -412.0 318.0 -417.0 293.0 -429.0 254.0 -433.0 227.0 -436.0 205.0 -440.0 202.0 -465.0 199.0 -484.0 178.0 -561.0 167.0 -564.0 163.0 -561.0 163.0 -549.0 163.0 -509.0 171.0 -452.0 171.0 -448.0 171.0 -440.0 148.0 -444.0 132.0 -444.0 50.0 -444.0 50.0 -436.0 50.0 -425.0 156.0 -408.0 165.0 -408.0 174.0 -408.0 178.0 -352.0 184.0 -264.0 188.0 -217.0 190.0 -180.0 L190.0 -180.0" fill-rule="evenodd" stroke="none"/>
    </g>
  </defs>
</svg>
