<?xml version="1.0" encoding="UTF-8" standalone="no"?>
<svg xmlns:xlink="http://www.w3.org/1999/xlink" height="84.55px" width="266.95px" xmlns="http://www.w3.org/2000/svg">
  <g transform="matrix(1.0, 0.0, 0.0, 1.0, -3.0, -0.4)">
    <g transform="matrix(1.0, 0.0, 0.0, 1.0, 0.0, 0.0)">
      <use fill="#ffffff" height="84.55" transform="matrix(0.0384, 0.0, 0.0, 0.0384, 0.0, 31.0)" width="266.95" xlink:href="#font_DFPTongTong-B5__0"/>
      <use fill="#ffffff" height="84.55" transform="matrix(0.0384, 0.0, 0.0, 0.0384, 39.3, 31.0)" width="266.95" xlink:href="#font_DFPTongTong-B5__1"/>
      <use fill="#ffffff" height="84.55" transform="matrix(0.0384, 0.0, 0.0, 0.0384, 78.6, 31.0)" width="266.95" xlink:href="#font_DFPTongTong-B5__2"/>
      <use fill="#ffffff" height="84.55" transform="matrix(0.0384, 0.0, 0.0, 0.0384, 117.9, 31.0)" width="266.95" xlink:href="#font_DFPTongTong-B5__3"/>
      <use fill="#ffffff" height="84.55" transform="matrix(0.0384, 0.0, 0.0, 0.0384, 157.2, 31.0)" width="266.95" xlink:href="#font_DFPTongTong-B5__4"/>
      <use fill="#ffffff" height="84.55" transform="matrix(0.0384, 0.0, 0.0, 0.0384, 196.5, 31.0)" width="266.95" xlink:href="#font_DFPTongTong-B5__4"/>
      <use fill="#ffffff" height="84.55" transform="matrix(0.0384, 0.0, 0.0, 0.0384, 235.8, 31.0)" width="266.95" xlink:href="#font_DFPTongTong-B5__5"/>
    </g>
    <g transform="matrix(1.0, 0.0, 0.0, 1.0, 0.0, 0.0)">
      <use fill="#ffffff" height="84.55" transform="matrix(0.0384, 0.0, 0.0, 0.0384, 0.0, 79.0)" width="266.95" xlink:href="#font_DFPTongTong-B5__6"/>
      <use fill="#ffffff" height="84.55" transform="matrix(0.0384, 0.0, 0.0, 0.0384, 39.3, 79.0)" width="266.95" xlink:href="#font_DFPTongTong-B5__7"/>
      <use fill="#ffffff" height="84.55" transform="matrix(0.0384, 0.0, 0.0, 0.0384, 78.6, 79.0)" width="266.95" xlink:href="#font_DFPTongTong-B5__8"/>
      <use fill="#ffffff" height="84.55" transform="matrix(0.0384, 0.0, 0.0, 0.0384, 117.9, 79.0)" width="266.95" xlink:href="#font_DFPTongTong-B5__9"/>
      <use fill="#ffffff" height="84.55" transform="matrix(0.0384, 0.0, 0.0, 0.0384, 157.2, 79.0)" width="266.95" xlink:href="#font_DFPTongTong-B5__10"/>
      <use fill="#ffffff" height="84.55" transform="matrix(0.0384, 0.0, 0.0, 0.0384, 196.5, 79.0)" width="266.95" xlink:href="#font_DFPTongTong-B5__11"/>
      <use fill="#ffffff" height="84.55" transform="matrix(0.0384, 0.0, 0.0, 0.0384, 235.8, 79.0)" width="266.95" xlink:href="#font_DFPTongTong-B5__12"/>
    </g>
  </g>
  <defs>
    <g id="font_DFPTongTong-B5__0">
      <path d="M783.0 -620.0 L783.0 -620.0 Q776.0 -620.0 776.0 -616.0 777.0 -605.0 799.0 -584.0 813.0 -572.0 824.0 -561.0 856.0 -536.0 884.0 -536.0 902.0 -536.0 902.0 -549.0 902.0 -572.0 852.0 -601.0 806.0 -620.0 783.0 -620.0 L783.0 -620.0 M499.0 -681.0 L499.0 -681.0 Q453.0 -668.0 312.0 -612.0 189.0 -564.0 134.0 -536.0 119.0 -532.0 119.0 -524.0 119.0 -520.0 128.0 -520.0 239.0 -536.0 342.0 -580.0 430.0 -608.0 503.0 -664.0 509.0 -668.0 512.0 -677.0 508.0 -681.0 499.0 -681.0 L499.0 -681.0 M647.0 -341.0 L647.0 -341.0 Q536.0 -337.0 417.0 -333.0 385.0 -333.0 355.0 -328.0 350.0 -373.0 343.0 -404.0 327.0 -469.0 317.0 -469.0 315.0 -465.0 315.0 -461.0 321.0 -389.0 325.0 -328.0 244.0 -324.0 188.0 -320.0 142.0 -308.0 138.0 -304.0 140.0 -289.0 239.0 -289.0 278.0 -289.0 327.0 -289.0 334.0 -192.0 336.0 -112.0 329.0 -108.0 322.0 -104.0 219.0 -64.0 174.0 -41.0 161.0 -33.0 161.0 -28.0 161.0 -24.0 169.0 -24.0 256.0 -37.0 337.0 -77.0 339.0 -33.0 339.0 3.0 339.0 32.0 330.0 40.0 323.0 40.0 323.0 47.0 325.0 51.0 331.0 51.0 344.0 56.0 358.0 56.0 383.0 51.0 383.0 20.0 383.0 -12.0 378.0 -72.0 377.0 -81.0 377.0 -92.0 431.0 -117.0 478.0 -152.0 484.0 -156.0 486.0 -165.0 484.0 -169.0 476.0 -169.0 446.0 -161.0 375.0 -129.0 371.0 -184.0 367.0 -232.0 364.0 -264.0 360.0 -293.0 374.0 -293.0 388.0 -293.0 544.0 -297.0 651.0 -304.0 664.0 -196.0 693.0 -108.0 700.0 -88.0 708.0 -68.0 646.0 -20.0 614.0 3.0 610.0 7.0 610.0 16.0 612.0 20.0 618.0 20.0 677.0 -4.0 724.0 -33.0 772.0 60.0 848.0 72.0 888.0 72.0 890.0 43.0 890.0 36.0 884.0 36.0 871.0 43.0 852.0 43.0 799.0 28.0 758.0 -56.0 814.0 -104.0 840.0 -144.0 846.0 -156.0 846.0 -165.0 840.0 -165.0 833.0 -161.0 799.0 -136.0 742.0 -96.0 738.0 -104.0 735.0 -112.0 709.0 -213.0 692.0 -308.0 791.0 -316.0 836.0 -328.0 852.0 -333.0 852.0 -341.0 852.0 -345.0 829.0 -345.0 758.0 -345.0 686.0 -341.0 675.0 -421.0 670.0 -492.0 668.0 -517.0 664.0 -540.0 659.0 -564.0 655.0 -564.0 651.0 -564.0 642.0 -480.0 642.0 -408.0 647.0 -341.0 L647.0 -341.0" fill-rule="evenodd" stroke="none"/>
    </g>
    <g id="font_DFPTongTong-B5__1">
      <path d="M309.0 -601.0 L309.0 -601.0 Q305.0 -601.0 296.0 -589.0 255.0 -549.0 188.0 -469.0 112.0 -368.0 93.0 -333.0 93.0 -324.0 97.0 -324.0 101.0 -324.0 108.0 -328.0 156.0 -352.0 217.0 -433.0 303.0 -536.0 313.0 -589.0 313.0 -601.0 309.0 -601.0 L309.0 -601.0 M330.0 -64.0 L330.0 -64.0 Q335.0 -72.0 339.0 -85.0 351.0 -129.0 354.0 -188.0 354.0 -236.0 290.0 -253.0 237.0 -260.0 205.0 -260.0 198.0 -260.0 194.0 -257.0 184.0 -276.0 180.0 -276.0 176.0 -276.0 176.0 -264.0 176.0 -228.0 178.0 -200.0 182.0 -161.0 190.0 -108.0 199.0 -68.0 207.0 -48.0 218.0 -33.0 224.0 -33.0 228.0 -33.0 232.0 -41.0 233.0 -45.0 234.0 -45.0 239.0 -45.0 244.0 -45.0 272.0 -37.0 296.0 -37.0 340.0 -37.0 342.0 -52.0 342.0 -60.0 330.0 -64.0 L330.0 -64.0 M309.0 -132.0 L309.0 -132.0 Q308.0 -108.0 306.0 -81.0 306.0 -72.0 307.0 -68.0 283.0 -68.0 253.0 -68.0 245.0 -68.0 239.0 -68.0 237.0 -81.0 230.0 -117.0 229.0 -121.0 227.0 -129.0 245.0 -125.0 269.0 -125.0 291.0 -125.0 309.0 -132.0 L309.0 -132.0 M202.0 -236.0 L202.0 -236.0 Q204.0 -236.0 207.0 -232.0 247.0 -220.0 293.0 -213.0 311.0 -209.0 311.0 -192.0 311.0 -176.0 311.0 -156.0 305.0 -156.0 299.0 -156.0 283.0 -156.0 264.0 -156.0 253.0 -156.0 229.0 -152.0 226.0 -152.0 223.0 -152.0 217.0 -180.0 211.0 -209.0 207.0 -224.0 202.0 -236.0 L202.0 -236.0 M575.0 -469.0 L575.0 -469.0 Q588.0 -465.0 605.0 -456.0 660.0 -440.0 742.0 -425.0 787.0 -417.0 836.0 -408.0 867.0 -400.0 870.0 -381.0 874.0 -320.0 876.0 -253.0 878.0 -184.0 880.0 -104.0 880.0 28.0 847.0 40.0 847.0 47.0 852.0 47.0 869.0 56.0 888.0 56.0 921.0 40.0 921.0 -200.0 921.0 -320.0 913.0 -385.0 905.0 -440.0 812.0 -461.0 756.0 -469.0 691.0 -473.0 631.0 -480.0 584.0 -484.0 618.0 -549.0 632.0 -616.0 632.0 -620.0 631.0 -620.0 629.0 -620.0 626.0 -616.0 578.0 -557.0 528.0 -473.0 489.0 -389.0 458.0 -304.0 458.0 -301.0 460.0 -301.0 462.0 -301.0 464.0 -301.0 518.0 -360.0 554.0 -433.0 565.0 -448.0 575.0 -469.0 L575.0 -469.0 M592.0 -140.0 L592.0 -140.0 Q584.0 -140.0 584.0 -136.0 586.0 -125.0 607.0 -108.0 622.0 -96.0 634.0 -88.0 666.0 -64.0 693.0 -64.0 716.0 -64.0 716.0 -77.0 716.0 -96.0 664.0 -121.0 615.0 -140.0 592.0 -140.0 L592.0 -140.0" fill-rule="evenodd" stroke="none"/>
    </g>
    <g id="font_DFPTongTong-B5__2">
      <path d="M335.0 -284.0 L335.0 -284.0 Q337.0 -293.0 337.0 -301.0 337.0 -337.0 323.0 -404.0 315.0 -440.0 303.0 -469.0 295.0 -480.0 291.0 -480.0 287.0 -480.0 287.0 -465.0 289.0 -385.0 291.0 -345.0 293.0 -308.0 303.0 -289.0 304.0 -289.0 305.0 -284.0 291.0 -284.0 275.0 -284.0 147.0 -284.0 147.0 -272.0 147.0 -257.0 298.0 -249.0 382.0 -236.0 508.0 -236.0 604.0 -236.0 676.0 -240.0 677.0 -217.0 679.0 -192.0 679.0 -176.0 680.0 -165.0 633.0 -144.0 501.0 -64.0 395.0 -1.0 366.0 36.0 364.0 47.0 364.0 56.0 373.0 56.0 376.0 56.0 474.0 -1.0 555.0 -48.0 640.0 -100.0 681.0 -144.0 688.0 -41.0 688.0 3.0 688.0 68.0 666.0 76.0 662.0 80.0 662.0 84.0 670.0 95.0 694.0 95.0 728.0 87.0 728.0 20.0 728.0 -100.0 714.0 -236.0 714.0 -236.0 714.0 -240.0 864.0 -245.0 865.0 -253.0 865.0 -264.0 827.0 -268.0 790.0 -276.0 714.0 -276.0 713.0 -280.0 712.0 -280.0 707.0 -373.0 697.0 -440.0 675.0 -528.0 662.0 -528.0 657.0 -528.0 657.0 -513.0 657.0 -469.0 666.0 -404.0 668.0 -364.0 673.0 -280.0 503.0 -280.0 335.0 -284.0 L335.0 -284.0 M422.0 -645.0 L422.0 -645.0 Q382.0 -645.0 301.0 -641.0 260.0 -637.0 260.0 -633.0 260.0 -624.0 371.0 -608.0 459.0 -601.0 609.0 -597.0 693.0 -597.0 733.0 -601.0 777.0 -605.0 777.0 -608.0 777.0 -616.0 686.0 -629.0 572.0 -641.0 422.0 -645.0 L422.0 -645.0" fill-rule="evenodd" stroke="none"/>
    </g>
    <g id="font_DFPTongTong-B5__3">
      <path d="M373.0 -37.0 L373.0 -37.0 Q378.0 -48.0 379.0 -56.0 379.0 -92.0 368.0 -100.0 360.0 -100.0 356.0 -81.0 346.0 -60.0 334.0 -41.0 321.0 -16.0 311.0 -1.0 311.0 20.0 318.0 20.0 330.0 16.0 338.0 3.0 356.0 -8.0 365.0 -24.0 373.0 -16.0 383.0 -8.0 402.0 7.0 416.0 7.0 431.0 7.0 431.0 -12.0 431.0 -20.0 409.0 -28.0 388.0 -33.0 373.0 -37.0 L373.0 -37.0 M244.0 -24.0 L244.0 -24.0 Q256.0 -45.0 258.0 -68.0 258.0 -100.0 247.0 -104.0 240.0 -104.0 237.0 -88.0 223.0 -60.0 208.0 -33.0 190.0 -4.0 180.0 20.0 180.0 36.0 187.0 36.0 199.0 32.0 206.0 24.0 224.0 7.0 234.0 -8.0 241.0 -1.0 249.0 3.0 269.0 24.0 283.0 24.0 299.0 24.0 299.0 3.0 299.0 -4.0 274.0 -16.0 258.0 -20.0 244.0 -24.0 L244.0 -24.0 M234.0 -280.0 L234.0 -280.0 Q249.0 -301.0 251.0 -328.0 251.0 -356.0 242.0 -364.0 234.0 -364.0 231.0 -348.0 216.0 -320.0 199.0 -289.0 179.0 -260.0 168.0 -236.0 168.0 -220.0 174.0 -220.0 183.0 -224.0 190.0 -232.0 213.0 -253.0 225.0 -268.0 234.0 -260.0 246.0 -253.0 269.0 -232.0 285.0 -232.0 301.0 -232.0 301.0 -253.0 301.0 -260.0 273.0 -272.0 252.0 -276.0 234.0 -280.0 L234.0 -280.0 M394.0 -293.0 L394.0 -293.0 Q403.0 -308.0 404.0 -328.0 404.0 -360.0 394.0 -368.0 387.0 -368.0 383.0 -348.0 372.0 -328.0 358.0 -301.0 344.0 -272.0 335.0 -257.0 335.0 -236.0 342.0 -236.0 352.0 -240.0 359.0 -253.0 377.0 -264.0 386.0 -280.0 395.0 -268.0 406.0 -260.0 426.0 -236.0 438.0 -236.0 455.0 -236.0 455.0 -257.0 455.0 -268.0 431.0 -280.0 411.0 -289.0 394.0 -293.0 L394.0 -293.0 M883.0 -41.0 L883.0 -41.0 Q897.0 -48.0 914.0 -68.0 940.0 -108.0 940.0 -125.0 940.0 -132.0 933.0 -132.0 913.0 -125.0 890.0 -96.0 866.0 -68.0 859.0 -48.0 822.0 -68.0 791.0 -81.0 783.0 -81.0 783.0 -72.0 805.0 -48.0 845.0 -12.0 887.0 16.0 926.0 16.0 963.0 11.0 963.0 3.0 963.0 -1.0 941.0 -12.0 915.0 -24.0 883.0 -41.0 L883.0 -41.0 M645.0 -404.0 L645.0 -404.0 Q645.0 -429.0 645.0 -456.0 645.0 -488.0 638.0 -488.0 631.0 -488.0 615.0 -345.0 602.0 -180.0 602.0 -72.0 604.0 -8.0 613.0 24.0 625.0 64.0 651.0 68.0 695.0 68.0 725.0 20.0 725.0 11.0 720.0 11.0 675.0 28.0 663.0 28.0 653.0 28.0 649.0 11.0 646.0 -8.0 645.0 -41.0 645.0 -104.0 645.0 -249.0 658.0 -245.0 685.0 -240.0 716.0 -236.0 755.0 -236.0 804.0 -236.0 824.0 -245.0 847.0 -253.0 847.0 -260.0 845.0 -268.0 829.0 -268.0 831.0 -272.0 834.0 -280.0 848.0 -368.0 853.0 -496.0 853.0 -557.0 740.0 -572.0 646.0 -580.0 591.0 -580.0 574.0 -576.0 574.0 -572.0 574.0 -568.0 593.0 -557.0 675.0 -536.0 771.0 -528.0 810.0 -524.0 810.0 -501.0 810.0 -456.0 808.0 -404.0 756.0 -408.0 689.0 -408.0 659.0 -408.0 645.0 -404.0 L645.0 -404.0 M645.0 -268.0 L645.0 -268.0 Q645.0 -324.0 645.0 -389.0 656.0 -385.0 675.0 -381.0 719.0 -373.0 757.0 -373.0 790.0 -373.0 807.0 -377.0 805.0 -333.0 802.0 -276.0 802.0 -272.0 802.0 -268.0 726.0 -268.0 650.0 -268.0 647.0 -268.0 645.0 -268.0 L645.0 -268.0 M282.0 -176.0 L282.0 -176.0 Q257.0 -176.0 231.0 -173.0 214.0 -169.0 214.0 -165.0 214.0 -156.0 243.0 -152.0 276.0 -144.0 311.0 -140.0 378.0 -140.0 410.0 -148.0 443.0 -156.0 443.0 -165.0 443.0 -173.0 403.0 -176.0 336.0 -176.0 282.0 -176.0 L282.0 -176.0 M465.0 72.0 L465.0 72.0 Q447.0 72.0 396.0 80.0 336.0 87.0 264.0 87.0 223.0 87.0 201.0 76.0 185.0 76.0 176.0 51.0 167.0 36.0 158.0 -24.0 145.0 -117.0 134.0 -188.0 119.0 -272.0 108.0 -272.0 103.0 -268.0 103.0 -220.0 103.0 -92.0 125.0 16.0 144.0 80.0 169.0 95.0 184.0 128.0 255.0 128.0 367.0 124.0 421.0 104.0 452.0 95.0 465.0 87.0 467.0 120.0 474.0 120.0 487.0 120.0 500.0 80.0 503.0 11.0 505.0 -64.0 510.0 -180.0 510.0 -196.0 510.0 -260.0 500.0 -260.0 493.0 -260.0 480.0 -228.0 476.0 -176.0 472.0 -88.0 466.0 3.0 465.0 68.0 465.0 68.0 465.0 72.0 L465.0 72.0 M345.0 -572.0 L345.0 -572.0 Q360.0 -568.0 382.0 -568.0 406.0 -568.0 427.0 -576.0 442.0 -584.0 442.0 -589.0 442.0 -593.0 435.0 -593.0 429.0 -597.0 412.0 -601.0 395.0 -601.0 377.0 -601.0 367.0 -601.0 344.0 -597.0 343.0 -624.0 341.0 -656.0 335.0 -696.0 325.0 -733.0 317.0 -757.0 310.0 -757.0 306.0 -757.0 304.0 -744.0 301.0 -712.0 301.0 -696.0 301.0 -660.0 303.0 -620.0 304.0 -576.0 308.0 -524.0 311.0 -496.0 315.0 -480.0 275.0 -480.0 237.0 -484.0 238.0 -484.0 238.0 -488.0 238.0 -509.0 225.0 -549.0 219.0 -572.0 208.0 -589.0 202.0 -597.0 198.0 -597.0 194.0 -597.0 194.0 -580.0 196.0 -536.0 198.0 -513.0 199.0 -496.0 203.0 -484.0 188.0 -484.0 174.0 -484.0 57.0 -484.0 57.0 -473.0 57.0 -461.0 159.0 -452.0 216.0 -440.0 301.0 -440.0 543.0 -440.0 545.0 -456.0 545.0 -469.0 510.0 -473.0 475.0 -476.0 406.0 -476.0 373.0 -480.0 341.0 -480.0 345.0 -496.0 346.0 -513.0 346.0 -536.0 345.0 -572.0 L345.0 -572.0" fill-rule="evenodd" stroke="none"/>
    </g>
    <g id="font_DFPTongTong-B5__4">
      <path d="M764.0 -668.0 L764.0 -668.0 Q744.0 -668.0 694.0 -633.0 671.0 -616.0 671.0 -605.0 673.0 -597.0 698.0 -593.0 720.0 -597.0 735.0 -616.0 758.0 -641.0 768.0 -664.0 768.0 -668.0 764.0 -668.0 L764.0 -668.0 M177.0 -492.0 L177.0 -492.0 Q172.0 -492.0 172.0 -452.0 172.0 -433.0 173.0 -412.0 176.0 -392.0 178.0 -377.0 181.0 -352.0 185.0 -345.0 201.0 -301.0 218.0 -297.0 223.0 -297.0 225.0 -324.0 225.0 -345.0 214.0 -392.0 206.0 -429.0 191.0 -469.0 182.0 -492.0 177.0 -492.0 L177.0 -492.0 M285.0 -685.0 L285.0 -685.0 Q281.0 -685.0 279.0 -685.0 279.0 -677.0 286.0 -660.0 297.0 -637.0 304.0 -629.0 325.0 -608.0 344.0 -608.0 352.0 -608.0 352.0 -616.0 352.0 -637.0 334.0 -656.0 325.0 -664.0 312.0 -673.0 295.0 -685.0 285.0 -685.0 L285.0 -685.0 M519.0 -492.0 L519.0 -492.0 Q521.0 -501.0 522.0 -513.0 512.0 -668.0 501.0 -700.0 496.0 -725.0 490.0 -725.0 483.0 -725.0 480.0 -677.0 478.0 -641.0 478.0 -593.0 482.0 -520.0 492.0 -496.0 444.0 -496.0 389.0 -496.0 327.0 -488.0 327.0 -484.0 330.0 -469.0 469.0 -465.0 563.0 -456.0 712.0 -452.0 780.0 -448.0 815.0 -436.0 851.0 -429.0 851.0 -404.0 851.0 -385.0 849.0 -373.0 849.0 -345.0 859.0 -345.0 877.0 -345.0 887.0 -373.0 891.0 -392.0 891.0 -412.0 891.0 -448.0 833.0 -473.0 782.0 -488.0 662.0 -492.0 607.0 -492.0 519.0 -492.0 L519.0 -492.0 M502.0 -56.0 L502.0 -56.0 Q497.0 -85.0 485.0 -85.0 478.0 -85.0 478.0 -20.0 478.0 3.0 484.0 28.0 492.0 51.0 502.0 64.0 509.0 76.0 516.0 76.0 523.0 76.0 523.0 68.0 520.0 47.0 513.0 7.0 508.0 -24.0 504.0 -48.0 512.0 -45.0 526.0 -41.0 553.0 -33.0 577.0 -33.0 584.0 -33.0 591.0 -33.0 591.0 -20.0 591.0 -8.0 594.0 40.0 603.0 84.0 614.0 131.0 625.0 152.0 631.0 164.0 639.0 164.0 646.0 160.0 646.0 139.0 646.0 124.0 636.0 51.0 632.0 16.0 629.0 -28.0 649.0 -28.0 674.0 -28.0 705.0 -28.0 705.0 -8.0 703.0 32.0 692.0 47.0 692.0 56.0 713.0 56.0 731.0 56.0 736.0 43.0 738.0 28.0 738.0 -20.0 738.0 -48.0 700.0 -56.0 672.0 -56.0 627.0 -56.0 627.0 -60.0 627.0 -60.0 614.0 -165.0 603.0 -165.0 593.0 -165.0 593.0 -77.0 592.0 -68.0 592.0 -60.0 524.0 -56.0 502.0 -56.0 L502.0 -56.0 M433.0 -304.0 L433.0 -304.0 Q425.0 -333.0 418.0 -328.0 412.0 -328.0 412.0 -289.0 412.0 -249.0 420.0 -217.0 431.0 -180.0 445.0 -180.0 450.0 -184.0 452.0 -192.0 452.0 -196.0 453.0 -196.0 454.0 -196.0 456.0 -196.0 476.0 -192.0 501.0 -188.0 528.0 -188.0 541.0 -196.0 554.0 -200.0 554.0 -205.0 554.0 -209.0 543.0 -213.0 544.0 -213.0 545.0 -217.0 552.0 -224.0 552.0 -236.0 552.0 -257.0 548.0 -289.0 539.0 -312.0 494.0 -312.0 475.0 -312.0 451.0 -308.0 440.0 -308.0 433.0 -304.0 L433.0 -304.0 M453.0 -217.0 L453.0 -217.0 Q454.0 -217.0 454.0 -220.0 454.0 -245.0 438.0 -293.0 444.0 -293.0 453.0 -289.0 L490.0 -289.0 Q511.0 -284.0 512.0 -276.0 516.0 -253.0 517.0 -220.0 517.0 -217.0 518.0 -217.0 508.0 -217.0 497.0 -217.0 479.0 -217.0 462.0 -217.0 457.0 -217.0 453.0 -217.0 L453.0 -217.0" fill-rule="evenodd" stroke="none"/>
    </g>
    <g id="font_DFPTongTong-B5__5">
      <path d="M665.0 -316.0 L665.0 -316.0 Q662.0 -316.0 657.0 -308.0 648.0 -301.0 637.0 -284.0 627.0 -268.0 625.0 -260.0 625.0 -245.0 638.0 -236.0 644.0 -236.0 650.0 -245.0 658.0 -253.0 666.0 -260.0 672.0 -272.0 674.0 -284.0 674.0 -297.0 670.0 -308.0 668.0 -316.0 665.0 -316.0 L665.0 -316.0 M519.0 -712.0 L519.0 -712.0 Q546.0 -689.0 645.0 -633.0 771.0 -564.0 841.0 -557.0 847.0 -557.0 847.0 -564.0 843.0 -580.0 677.0 -668.0 591.0 -708.0 541.0 -725.0 554.0 -733.0 566.0 -740.0 574.0 -744.0 574.0 -752.0 572.0 -757.0 560.0 -757.0 423.0 -712.0 323.0 -668.0 172.0 -597.0 96.0 -545.0 88.0 -536.0 88.0 -532.0 90.0 -528.0 98.0 -528.0 171.0 -549.0 343.0 -629.0 450.0 -673.0 519.0 -712.0 L519.0 -712.0 M368.0 -312.0 L368.0 -312.0 Q359.0 -312.0 359.0 -308.0 360.0 -301.0 375.0 -284.0 383.0 -276.0 390.0 -268.0 411.0 -253.0 428.0 -253.0 450.0 -253.0 450.0 -264.0 450.0 -280.0 415.0 -297.0 383.0 -312.0 368.0 -312.0 L368.0 -312.0 M335.0 -200.0 L335.0 -200.0 Q355.0 -196.0 374.0 -192.0 395.0 -192.0 518.0 -192.0 662.0 -192.0 736.0 -205.0 803.0 -217.0 810.0 -228.0 810.0 -232.0 784.0 -232.0 787.0 -240.0 791.0 -245.0 801.0 -276.0 801.0 -312.0 801.0 -356.0 728.0 -368.0 647.0 -381.0 534.0 -389.0 438.0 -392.0 349.0 -392.0 307.0 -392.0 292.0 -389.0 289.0 -417.0 279.0 -417.0 272.0 -417.0 272.0 -360.0 272.0 -312.0 285.0 -272.0 298.0 -228.0 317.0 -200.0 324.0 -188.0 330.0 -188.0 336.0 -192.0 336.0 -196.0 335.0 -200.0 335.0 -200.0 L335.0 -200.0 M511.0 -220.0 L511.0 -220.0 Q370.0 -217.0 332.0 -213.0 325.0 -245.0 313.0 -297.0 304.0 -341.0 296.0 -377.0 301.0 -373.0 309.0 -368.0 347.0 -360.0 420.0 -356.0 460.0 -352.0 495.0 -348.0 497.0 -297.0 499.0 -268.0 501.0 -236.0 511.0 -224.0 511.0 -224.0 511.0 -220.0 L511.0 -220.0 M752.0 -232.0 L752.0 -232.0 Q660.0 -228.0 541.0 -224.0 543.0 -228.0 543.0 -236.0 543.0 -264.0 528.0 -312.0 524.0 -333.0 517.0 -348.0 524.0 -348.0 529.0 -345.0 573.0 -341.0 634.0 -337.0 674.0 -333.0 700.0 -333.0 723.0 -328.0 738.0 -324.0 755.0 -320.0 755.0 -301.0 755.0 -268.0 751.0 -240.0 751.0 -236.0 752.0 -232.0 L752.0 -232.0 M512.0 87.0 L512.0 87.0 Q497.0 87.0 480.0 87.0 468.0 87.0 439.0 91.0 434.0 91.0 429.0 91.0 428.0 80.0 422.0 47.0 420.0 32.0 416.0 16.0 421.0 20.0 428.0 20.0 458.0 28.0 483.0 28.0 502.0 28.0 513.0 24.0 513.0 47.0 512.0 76.0 512.0 84.0 512.0 87.0 L512.0 87.0 M427.0 112.0 L427.0 112.0 Q428.0 112.0 430.0 112.0 453.0 116.0 486.0 116.0 515.0 116.0 541.0 112.0 560.0 104.0 560.0 100.0 560.0 95.0 553.0 95.0 549.0 91.0 539.0 91.0 544.0 84.0 548.0 76.0 559.0 24.0 562.0 -45.0 562.0 -88.0 504.0 -104.0 454.0 -108.0 425.0 -108.0 407.0 -108.0 407.0 -104.0 407.0 -96.0 427.0 -85.0 460.0 -72.0 499.0 -68.0 515.0 -64.0 515.0 -52.0 515.0 -28.0 514.0 -1.0 480.0 -4.0 437.0 -4.0 422.0 -4.0 413.0 -1.0 409.0 -20.0 404.0 -37.0 398.0 -60.0 389.0 -81.0 381.0 -100.0 377.0 -100.0 373.0 -100.0 373.0 -88.0 373.0 -56.0 375.0 -28.0 379.0 7.0 386.0 56.0 393.0 91.0 400.0 112.0 412.0 128.0 417.0 128.0 421.0 128.0 424.0 120.0 426.0 116.0 427.0 112.0 L427.0 112.0 M509.0 -540.0 L509.0 -540.0 Q477.0 -540.0 445.0 -536.0 391.0 -536.0 391.0 -528.0 391.0 -524.0 434.0 -517.0 471.0 -509.0 517.0 -505.0 567.0 -505.0 589.0 -513.0 613.0 -520.0 613.0 -524.0 613.0 -532.0 565.0 -536.0 539.0 -540.0 509.0 -540.0 L509.0 -540.0" fill-rule="evenodd" stroke="none"/>
    </g>
    <g id="font_DFPTongTong-B5__6">
      <path d="M655.0 -81.0 L655.0 -81.0 Q659.0 -81.0 665.0 -77.0 689.0 -72.0 711.0 -72.0 749.0 -72.0 750.0 -88.0 750.0 -96.0 732.0 -100.0 707.0 -104.0 673.0 -104.0 664.0 -104.0 656.0 -100.0 656.0 -144.0 653.0 -196.0 653.0 -200.0 653.0 -205.0 658.0 -200.0 669.0 -200.0 732.0 -200.0 738.0 -180.0 749.0 -156.0 763.0 -52.0 781.0 51.0 781.0 100.0 781.0 120.0 772.0 128.0 772.0 139.0 791.0 139.0 803.0 139.0 814.0 128.0 823.0 120.0 823.0 108.0 823.0 76.0 811.0 -4.0 804.0 -52.0 785.0 -156.0 774.0 -220.0 722.0 -220.0 697.0 -220.0 676.0 -220.0 659.0 -217.0 652.0 -213.0 650.0 -232.0 646.0 -232.0 642.0 -232.0 640.0 -217.0 632.0 -161.0 618.0 -52.0 610.0 24.0 610.0 95.0 614.0 131.0 623.0 131.0 634.0 128.0 645.0 56.0 647.0 36.0 649.0 7.0 676.0 16.0 699.0 16.0 740.0 16.0 741.0 -1.0 741.0 -8.0 724.0 -12.0 695.0 -16.0 658.0 -16.0 654.0 -16.0 651.0 -16.0 654.0 -48.0 655.0 -81.0 L655.0 -81.0 M465.0 -553.0 L465.0 -553.0 Q489.0 -549.0 515.0 -549.0 947.0 -549.0 949.0 -564.0 949.0 -576.0 911.0 -580.0 873.0 -589.0 798.0 -589.0 643.0 -593.0 490.0 -597.0 559.0 -721.0 570.0 -773.0 572.0 -777.0 572.0 -780.0 570.0 -780.0 566.0 -777.0 506.0 -700.0 443.0 -597.0 325.0 -597.0 206.0 -597.0 78.0 -597.0 78.0 -584.0 78.0 -568.0 259.0 -561.0 328.0 -553.0 419.0 -553.0 391.0 -505.0 364.0 -452.0 282.0 -312.0 215.0 -144.0 214.0 -140.0 214.0 -132.0 220.0 -132.0 223.0 -140.0 321.0 -293.0 401.0 -444.0 437.0 -501.0 465.0 -553.0 L465.0 -553.0" fill-rule="evenodd" stroke="none"/>
    </g>
    <g id="font_DFPTongTong-B5__7">
      <path d="M185.0 -81.0 L185.0 -81.0 Q165.0 -68.0 140.0 -33.0 113.0 11.0 108.0 40.0 108.0 47.0 114.0 47.0 135.0 43.0 165.0 -1.0 191.0 -48.0 191.0 -72.0 191.0 -81.0 185.0 -81.0 L185.0 -81.0 M380.0 -64.0 L380.0 -64.0 Q372.0 -64.0 372.0 -56.0 373.0 -48.0 386.0 -37.0 394.0 -28.0 401.0 -20.0 420.0 -4.0 436.0 -4.0 459.0 -4.0 459.0 -16.0 459.0 -33.0 425.0 -48.0 395.0 -64.0 380.0 -64.0 L380.0 -64.0 M260.0 -373.0 L260.0 -373.0 Q165.0 -389.0 165.0 -425.0 165.0 -436.0 208.0 -509.0 230.0 -540.0 253.0 -589.0 270.0 -629.0 270.0 -648.0 270.0 -673.0 263.0 -673.0 L257.0 -660.0 Q237.0 -629.0 203.0 -580.0 176.0 -540.0 155.0 -513.0 129.0 -469.0 122.0 -440.0 122.0 -360.0 241.0 -345.0 239.0 -341.0 237.0 -337.0 196.0 -264.0 196.0 -236.0 205.0 -180.0 266.0 -176.0 266.0 -173.0 266.0 -165.0 266.0 -132.0 268.0 -88.0 272.0 -48.0 276.0 -16.0 280.0 32.0 289.0 51.0 302.0 87.0 317.0 91.0 322.0 91.0 323.0 68.0 323.0 36.0 311.0 -41.0 303.0 -100.0 287.0 -161.0 285.0 -173.0 283.0 -176.0 335.0 -180.0 374.0 -213.0 379.0 -209.0 384.0 -200.0 414.0 -165.0 434.0 -165.0 449.0 -165.0 451.0 -176.0 451.0 -200.0 427.0 -220.0 402.0 -245.0 375.0 -264.0 350.0 -280.0 339.0 -280.0 332.0 -280.0 332.0 -276.0 332.0 -268.0 356.0 -232.0 356.0 -232.0 357.0 -232.0 313.0 -213.0 282.0 -213.0 231.0 -213.0 231.0 -240.0 231.0 -260.0 261.0 -297.0 298.0 -337.0 322.0 -381.0 354.0 -444.0 354.0 -480.0 354.0 -492.0 352.0 -496.0 344.0 -496.0 312.0 -452.0 284.0 -408.0 260.0 -373.0 L260.0 -373.0 M722.0 -404.0 L722.0 -404.0 Q767.0 -396.0 819.0 -396.0 858.0 -396.0 893.0 -400.0 915.0 -400.0 918.0 -404.0 916.0 -412.0 888.0 -421.0 847.0 -429.0 797.0 -440.0 754.0 -444.0 638.0 -456.0 589.0 -456.0 555.0 -456.0 528.0 -456.0 528.0 -452.0 528.0 -436.0 650.0 -417.0 675.0 -412.0 702.0 -408.0 700.0 -392.0 698.0 -373.0 696.0 -304.0 696.0 -213.0 700.0 -88.0 715.0 -48.0 705.0 -48.0 695.0 -45.0 531.0 -41.0 525.0 -33.0 525.0 -24.0 536.0 -24.0 555.0 -16.0 572.0 -16.0 590.0 -12.0 688.0 -12.0 804.0 -12.0 864.0 -24.0 918.0 -37.0 924.0 -52.0 924.0 -56.0 882.0 -56.0 821.0 -56.0 744.0 -48.0 745.0 -56.0 748.0 -68.0 735.0 -341.0 723.0 -396.0 722.0 -400.0 722.0 -404.0 L722.0 -404.0" fill-rule="evenodd" stroke="none"/>
    </g>
    <g id="font_DFPTongTong-B5__8">
      <path d="M250.0 -517.0 L250.0 -517.0 Q224.0 -517.0 198.0 -513.0 181.0 -505.0 177.0 -501.0 181.0 -492.0 202.0 -492.0 220.0 -492.0 240.0 -488.0 268.0 -488.0 271.0 -456.0 281.0 -412.0 289.0 -284.0 298.0 -176.0 308.0 -60.0 308.0 -28.0 299.0 -24.0 299.0 -16.0 318.0 -16.0 335.0 -16.0 343.0 -24.0 352.0 -33.0 352.0 -52.0 352.0 -88.0 335.0 -253.0 328.0 -348.0 319.0 -417.0 315.0 -509.0 250.0 -517.0 L250.0 -517.0 M174.0 -308.0 L174.0 -308.0 Q178.0 -304.0 182.0 -304.0 208.0 -301.0 229.0 -301.0 269.0 -301.0 270.0 -316.0 270.0 -324.0 254.0 -324.0 226.0 -328.0 190.0 -328.0 182.0 -328.0 175.0 -328.0 175.0 -328.0 175.0 -333.0 175.0 -389.0 172.0 -461.0 171.0 -509.0 166.0 -509.0 162.0 -509.0 161.0 -492.0 151.0 -412.0 133.0 -264.0 124.0 -161.0 124.0 -60.0 127.0 -28.0 134.0 -28.0 148.0 -33.0 162.0 -129.0 164.0 -148.0 166.0 -173.0 169.0 -173.0 174.0 -169.0 200.0 -165.0 221.0 -165.0 261.0 -165.0 262.0 -180.0 262.0 -188.0 247.0 -192.0 218.0 -196.0 182.0 -196.0 174.0 -192.0 167.0 -192.0 171.0 -245.0 174.0 -308.0 L174.0 -308.0 M731.0 -148.0 L731.0 -148.0 Q731.0 -173.0 731.0 -196.0 745.0 -196.0 761.0 -196.0 792.0 -192.0 792.0 -173.0 792.0 -161.0 791.0 -140.0 791.0 -140.0 790.0 -140.0 763.0 -144.0 731.0 -148.0 L731.0 -148.0 M784.0 -64.0 L784.0 -64.0 Q759.0 -64.0 732.0 -64.0 732.0 -92.0 732.0 -117.0 734.0 -117.0 736.0 -117.0 771.0 -117.0 788.0 -121.0 786.0 -100.0 783.0 -77.0 783.0 -68.0 784.0 -64.0 L784.0 -64.0 M627.0 -144.0 L627.0 -144.0 Q624.0 -184.0 620.0 -217.0 655.0 -209.0 694.0 -205.0 694.0 -176.0 694.0 -148.0 681.0 -148.0 668.0 -148.0 641.0 -144.0 627.0 -144.0 L627.0 -144.0 M634.0 -64.0 L634.0 -64.0 Q632.0 -88.0 628.0 -129.0 638.0 -125.0 653.0 -121.0 674.0 -121.0 694.0 -117.0 693.0 -100.0 694.0 -81.0 694.0 -72.0 694.0 -64.0 663.0 -64.0 634.0 -64.0 L634.0 -64.0 M725.0 -436.0 L725.0 -436.0 Q782.0 -433.0 846.0 -433.0 883.0 -433.0 915.0 -436.0 937.0 -436.0 939.0 -440.0 937.0 -448.0 891.0 -456.0 827.0 -465.0 750.0 -473.0 737.0 -476.0 723.0 -476.0 722.0 -492.0 721.0 -509.0 714.0 -545.0 707.0 -545.0 701.0 -545.0 699.0 -509.0 699.0 -492.0 698.0 -476.0 626.0 -484.0 498.0 -492.0 452.0 -492.0 420.0 -488.0 394.0 -488.0 394.0 -484.0 394.0 -473.0 584.0 -452.0 637.0 -444.0 697.0 -440.0 695.0 -337.0 694.0 -236.0 649.0 -240.0 617.0 -240.0 617.0 -240.0 616.0 -240.0 611.0 -272.0 598.0 -272.0 589.0 -272.0 589.0 -192.0 589.0 -148.0 594.0 -104.0 601.0 -64.0 610.0 -37.0 618.0 -24.0 628.0 -24.0 636.0 -24.0 636.0 -33.0 636.0 -37.0 636.0 -41.0 667.0 -41.0 695.0 -41.0 697.0 -1.0 699.0 28.0 688.0 28.0 677.0 28.0 625.0 32.0 625.0 36.0 628.0 47.0 664.0 51.0 683.0 56.0 701.0 56.0 702.0 64.0 702.0 68.0 706.0 87.0 710.0 104.0 669.0 104.0 628.0 104.0 607.0 108.0 607.0 112.0 607.0 124.0 662.0 131.0 695.0 135.0 737.0 135.0 790.0 135.0 812.0 128.0 834.0 120.0 834.0 112.0 831.0 104.0 804.0 104.0 765.0 104.0 726.0 104.0 727.0 95.0 728.0 84.0 728.0 76.0 728.0 60.0 732.0 60.0 736.0 60.0 797.0 60.0 799.0 40.0 799.0 32.0 781.0 32.0 757.0 28.0 730.0 28.0 731.0 7.0 732.0 -20.0 732.0 -28.0 732.0 -41.0 735.0 -41.0 739.0 -41.0 786.0 -41.0 813.0 -45.0 840.0 -52.0 840.0 -60.0 840.0 -60.0 811.0 -64.0 810.0 -64.0 810.0 -64.0 813.0 -68.0 816.0 -77.0 830.0 -117.0 835.0 -165.0 835.0 -220.0 741.0 -232.0 736.0 -232.0 730.0 -236.0 729.0 -356.0 725.0 -436.0 L725.0 -436.0 M820.0 -736.0 L820.0 -736.0 Q744.0 -704.0 678.0 -673.0 599.0 -637.0 558.0 -605.0 556.0 -601.0 556.0 -601.0 558.0 -597.0 561.0 -597.0 663.0 -620.0 713.0 -648.0 790.0 -685.0 823.0 -721.0 827.0 -729.0 827.0 -733.0 825.0 -736.0 820.0 -736.0 L820.0 -736.0" fill-rule="evenodd" stroke="none"/>
    </g>
    <g id="font_DFPTongTong-B5__9">
      <path d="M321.0 -580.0 L321.0 -580.0 Q331.0 -580.0 342.0 -580.0 419.0 -568.0 535.0 -568.0 861.0 -568.0 862.0 -584.0 862.0 -597.0 824.0 -601.0 786.0 -608.0 711.0 -608.0 640.0 -612.0 570.0 -612.0 572.0 -620.0 573.0 -629.0 573.0 -664.0 552.0 -692.0 517.0 -729.0 504.0 -729.0 498.0 -729.0 498.0 -725.0 500.0 -721.0 506.0 -704.0 512.0 -689.0 519.0 -668.0 536.0 -629.0 545.0 -612.0 438.0 -616.0 333.0 -616.0 205.0 -616.0 205.0 -605.0 204.0 -593.0 300.0 -584.0 271.0 -488.0 251.0 -392.0 239.0 -404.0 206.0 -421.0 158.0 -440.0 133.0 -440.0 127.0 -440.0 127.0 -436.0 129.0 -425.0 152.0 -408.0 166.0 -396.0 178.0 -389.0 211.0 -364.0 240.0 -364.0 243.0 -364.0 245.0 -364.0 241.0 -348.0 238.0 -328.0 231.0 -301.0 226.0 -268.0 219.0 -268.0 209.0 -268.0 177.0 -264.0 145.0 -253.0 101.0 -228.0 101.0 -224.0 101.0 -217.0 131.0 -217.0 163.0 -220.0 195.0 -232.0 212.0 -236.0 222.0 -245.0 208.0 -165.0 197.0 -72.0 197.0 -60.0 203.0 -56.0 211.0 -60.0 215.0 -68.0 254.0 -173.0 278.0 -304.0 319.0 -505.0 321.0 -580.0 L321.0 -580.0 M564.0 -337.0 L564.0 -337.0 Q579.0 -333.0 604.0 -328.0 620.0 -328.0 646.0 -324.0 664.0 -324.0 664.0 -316.0 664.0 -304.0 648.0 -276.0 636.0 -253.0 624.0 -228.0 582.0 -245.0 546.0 -264.0 540.0 -264.0 540.0 -257.0 563.0 -228.0 609.0 -200.0 605.0 -188.0 601.0 -180.0 577.0 -132.0 536.0 -48.0 515.0 -12.0 512.0 7.0 512.0 11.0 517.0 11.0 521.0 11.0 536.0 -8.0 548.0 -24.0 567.0 -56.0 591.0 -92.0 621.0 -144.0 633.0 -165.0 643.0 -180.0 655.0 -173.0 669.0 -169.0 740.0 -132.0 851.0 -132.0 912.0 -136.0 912.0 -148.0 912.0 -152.0 850.0 -161.0 782.0 -169.0 703.0 -196.0 682.0 -205.0 662.0 -213.0 671.0 -228.0 676.0 -236.0 694.0 -268.0 701.0 -289.0 714.0 -312.0 714.0 -328.0 714.0 -356.0 667.0 -364.0 637.0 -364.0 579.0 -360.0 608.0 -417.0 615.0 -461.0 L615.0 -469.0 Q612.0 -469.0 608.0 -465.0 563.0 -417.0 517.0 -345.0 463.0 -257.0 441.0 -205.0 441.0 -196.0 444.0 -196.0 449.0 -196.0 452.0 -200.0 493.0 -224.0 544.0 -304.0 555.0 -320.0 564.0 -337.0 L564.0 -337.0 M674.0 43.0 L674.0 43.0 Q586.0 43.0 586.0 51.0 586.0 60.0 637.0 72.0 677.0 87.0 702.0 87.0 727.0 87.0 727.0 72.0 727.0 64.0 711.0 56.0 692.0 47.0 674.0 43.0 L674.0 43.0 M700.0 -56.0 L700.0 -56.0 Q618.0 -56.0 618.0 -48.0 618.0 -41.0 666.0 -28.0 702.0 -16.0 726.0 -16.0 750.0 -16.0 750.0 -28.0 750.0 -37.0 734.0 -45.0 718.0 -52.0 700.0 -56.0 L700.0 -56.0" fill-rule="evenodd" stroke="none"/>
    </g>
    <g id="font_DFPTongTong-B5__10">
      <path d="M316.0 -597.0 L316.0 -597.0 Q325.0 -593.0 333.0 -593.0 410.0 -584.0 525.0 -584.0 852.0 -584.0 854.0 -601.0 854.0 -612.0 815.0 -616.0 776.0 -620.0 698.0 -624.0 632.0 -624.0 564.0 -629.0 565.0 -629.0 565.0 -633.0 565.0 -664.0 544.0 -692.0 510.0 -733.0 496.0 -733.0 489.0 -733.0 489.0 -729.0 492.0 -721.0 498.0 -704.0 504.0 -692.0 512.0 -668.0 522.0 -645.0 530.0 -629.0 428.0 -629.0 327.0 -633.0 196.0 -633.0 196.0 -616.0 196.0 -605.0 298.0 -597.0 271.0 -501.0 251.0 -408.0 241.0 -417.0 225.0 -421.0 209.0 -433.0 190.0 -440.0 153.0 -456.0 146.0 -456.0 139.0 -452.0 139.0 -448.0 139.0 -440.0 167.0 -421.0 181.0 -408.0 194.0 -400.0 225.0 -381.0 240.0 -381.0 243.0 -381.0 245.0 -381.0 242.0 -360.0 238.0 -345.0 231.0 -312.0 225.0 -276.0 222.0 -276.0 217.0 -276.0 182.0 -272.0 147.0 -260.0 99.0 -236.0 99.0 -232.0 99.0 -228.0 129.0 -228.0 164.0 -228.0 199.0 -240.0 212.0 -245.0 221.0 -249.0 210.0 -176.0 200.0 -88.0 200.0 -77.0 206.0 -77.0 214.0 -77.0 217.0 -88.0 254.0 -188.0 276.0 -320.0 316.0 -517.0 316.0 -593.0 316.0 -593.0 316.0 -597.0 L316.0 -597.0 M737.0 -368.0 L737.0 -368.0 Q738.0 -373.0 740.0 -373.0 754.0 -389.0 764.0 -400.0 781.0 -421.0 791.0 -436.0 801.0 -452.0 801.0 -461.0 801.0 -488.0 737.0 -501.0 709.0 -509.0 607.0 -513.0 501.0 -513.0 501.0 -505.0 501.0 -492.0 597.0 -480.0 649.0 -469.0 705.0 -469.0 745.0 -465.0 745.0 -456.0 744.0 -440.0 731.0 -408.0 722.0 -389.0 718.0 -377.0 707.0 -377.0 696.0 -381.0 651.0 -392.0 604.0 -396.0 595.0 -396.0 595.0 -389.0 608.0 -368.0 666.0 -348.0 714.0 -328.0 757.0 -328.0 808.0 -328.0 808.0 -345.0 808.0 -348.0 771.0 -360.0 754.0 -364.0 737.0 -368.0 L737.0 -368.0 M688.0 -41.0 L688.0 -41.0 Q655.0 -41.0 623.0 -37.0 603.0 -37.0 603.0 -33.0 603.0 -16.0 656.0 -8.0 672.0 -8.0 689.0 -8.0 691.0 43.0 700.0 68.0 711.0 100.0 719.0 100.0 725.0 100.0 729.0 91.0 732.0 80.0 732.0 72.0 732.0 36.0 729.0 -8.0 759.0 -8.0 773.0 -16.0 795.0 -24.0 795.0 -33.0 793.0 -37.0 765.0 -41.0 744.0 -41.0 725.0 -41.0 723.0 -64.0 720.0 -88.0 745.0 -88.0 761.0 -92.0 790.0 -100.0 790.0 -112.0 790.0 -117.0 755.0 -121.0 735.0 -121.0 716.0 -121.0 711.0 -169.0 700.0 -205.0 692.0 -217.0 689.0 -217.0 685.0 -217.0 685.0 -200.0 685.0 -156.0 686.0 -121.0 669.0 -121.0 652.0 -121.0 631.0 -121.0 609.0 -117.0 595.0 -117.0 595.0 -112.0 595.0 -104.0 620.0 -96.0 648.0 -88.0 677.0 -88.0 682.0 -88.0 687.0 -88.0 687.0 -60.0 688.0 -41.0 L688.0 -41.0 M628.0 -272.0 L628.0 -272.0 Q521.0 -272.0 521.0 -264.0 524.0 -257.0 571.0 -245.0 597.0 -240.0 666.0 -236.0 719.0 -232.0 754.0 -228.0 823.0 -217.0 825.0 -169.0 836.0 -121.0 848.0 -52.0 855.0 -4.0 855.0 40.0 855.0 68.0 847.0 80.0 847.0 87.0 855.0 87.0 895.0 80.0 895.0 32.0 895.0 -52.0 871.0 -152.0 871.0 -245.0 781.0 -264.0 722.0 -272.0 628.0 -272.0 L628.0 -272.0 M497.0 -257.0 L497.0 -257.0 Q488.0 -257.0 474.0 -169.0 467.0 -121.0 463.0 -64.0 463.0 3.0 467.0 43.0 471.0 87.0 484.0 87.0 493.0 87.0 495.0 11.0 503.0 -88.0 509.0 -173.0 509.0 -213.0 505.0 -236.0 503.0 -257.0 497.0 -257.0 L497.0 -257.0" fill-rule="evenodd" stroke="none"/>
    </g>
    <g id="font_DFPTongTong-B5__11">
      <path d="M155.0 -392.0 L155.0 -392.0 Q151.0 -392.0 144.0 -381.0 128.0 -352.0 110.0 -308.0 90.0 -260.0 90.0 -228.0 90.0 -188.0 98.0 -188.0 104.0 -188.0 109.0 -196.0 121.0 -224.0 139.0 -284.0 159.0 -348.0 159.0 -373.0 159.0 -392.0 155.0 -392.0 L155.0 -392.0 M248.0 -364.0 L248.0 -364.0 Q246.0 -484.0 239.0 -549.0 230.0 -589.0 222.0 -589.0 216.0 -589.0 215.0 -549.0 209.0 -364.0 209.0 -192.0 213.0 -104.0 218.0 -68.0 226.0 -20.0 237.0 -20.0 245.0 -20.0 247.0 -60.0 247.0 -88.0 251.0 -176.0 251.0 -264.0 249.0 -337.0 257.0 -328.0 266.0 -324.0 290.0 -304.0 307.0 -304.0 334.0 -304.0 334.0 -316.0 334.0 -324.0 307.0 -337.0 294.0 -345.0 278.0 -352.0 260.0 -360.0 248.0 -364.0 L248.0 -364.0 M754.0 -96.0 L754.0 -96.0 Q751.0 -100.0 749.0 -100.0 734.0 -100.0 718.0 -100.0 700.0 -100.0 684.0 -100.0 677.0 -96.0 672.0 -96.0 679.0 -140.0 683.0 -173.0 694.0 -165.0 714.0 -161.0 745.0 -156.0 748.0 -136.0 751.0 -121.0 754.0 -96.0 L754.0 -96.0 M764.0 -12.0 L764.0 -12.0 Q757.0 -12.0 746.0 -16.0 729.0 -16.0 711.0 -16.0 690.0 -16.0 669.0 -16.0 660.0 -16.0 654.0 -12.0 656.0 -24.0 658.0 -37.0 664.0 -60.0 669.0 -85.0 673.0 -81.0 678.0 -81.0 697.0 -72.0 722.0 -72.0 744.0 -72.0 757.0 -77.0 758.0 -64.0 759.0 -56.0 762.0 -33.0 764.0 -12.0 L764.0 -12.0 M650.0 3.0 L650.0 3.0 Q655.0 3.0 663.0 3.0 686.0 11.0 716.0 16.0 749.0 16.0 762.0 7.0 764.0 7.0 766.0 3.0 767.0 16.0 768.0 24.0 775.0 84.0 775.0 100.0 775.0 120.0 769.0 128.0 769.0 135.0 786.0 135.0 809.0 135.0 809.0 112.0 809.0 95.0 806.0 72.0 803.0 43.0 799.0 -8.0 795.0 -48.0 791.0 -88.0 787.0 -125.0 783.0 -144.0 775.0 -192.0 736.0 -192.0 701.0 -192.0 685.0 -188.0 685.0 -188.0 685.0 -192.0 685.0 -205.0 681.0 -205.0 676.0 -205.0 670.0 -188.0 643.0 -112.0 627.0 -48.0 607.0 32.0 601.0 87.0 601.0 104.0 603.0 108.0 610.0 108.0 616.0 100.0 636.0 64.0 650.0 3.0 L650.0 3.0 M682.0 -620.0 L682.0 -620.0 Q756.0 -620.0 797.0 -624.0 859.0 -633.0 859.0 -645.0 859.0 -648.0 785.0 -652.0 730.0 -652.0 679.0 -656.0 676.0 -692.0 672.0 -708.0 666.0 -736.0 659.0 -736.0 651.0 -736.0 647.0 -685.0 647.0 -668.0 646.0 -656.0 604.0 -656.0 566.0 -656.0 520.0 -652.0 474.0 -648.0 442.0 -648.0 442.0 -645.0 442.0 -637.0 496.0 -629.0 557.0 -620.0 618.0 -616.0 633.0 -616.0 646.0 -620.0 646.0 -580.0 646.0 -532.0 646.0 -517.0 647.0 -496.0 618.0 -496.0 590.0 -496.0 520.0 -492.0 520.0 -488.0 520.0 -480.0 575.0 -473.0 609.0 -469.0 649.0 -465.0 654.0 -400.0 665.0 -373.0 623.0 -373.0 584.0 -373.0 534.0 -373.0 483.0 -368.0 449.0 -364.0 449.0 -360.0 449.0 -352.0 506.0 -345.0 573.0 -337.0 641.0 -337.0 774.0 -337.0 837.0 -345.0 904.0 -348.0 904.0 -360.0 904.0 -368.0 823.0 -373.0 754.0 -373.0 691.0 -373.0 693.0 -381.0 695.0 -392.0 694.0 -433.0 692.0 -465.0 749.0 -465.0 774.0 -473.0 805.0 -476.0 805.0 -484.0 805.0 -492.0 743.0 -496.0 718.0 -496.0 690.0 -496.0 686.0 -568.0 682.0 -620.0 L682.0 -620.0" fill-rule="evenodd" stroke="none"/>
    </g>
    <g id="font_DFPTongTong-B5__12">
      <path d="M242.0 -289.0 L242.0 -289.0 Q191.0 -289.0 141.0 -284.0 103.0 -280.0 103.0 -276.0 103.0 -264.0 166.0 -257.0 198.0 -253.0 230.0 -253.0 224.0 -228.0 219.0 -209.0 198.0 -121.0 180.0 -8.0 180.0 -1.0 183.0 3.0 189.0 -1.0 193.0 -8.0 230.0 -88.0 254.0 -188.0 262.0 -220.0 268.0 -249.0 291.0 -249.0 313.0 -245.0 390.0 -245.0 444.0 -249.0 443.0 -173.0 443.0 -100.0 447.0 -20.0 454.0 11.0 462.0 51.0 472.0 51.0 479.0 51.0 481.0 11.0 481.0 -16.0 485.0 -104.0 485.0 -188.0 483.0 -253.0 508.0 -253.0 526.0 -253.0 600.0 -260.0 600.0 -276.0 600.0 -284.0 512.0 -289.0 497.0 -289.0 482.0 -289.0 479.0 -360.0 474.0 -404.0 466.0 -444.0 458.0 -444.0 452.0 -444.0 450.0 -404.0 447.0 -348.0 445.0 -289.0 356.0 -289.0 279.0 -289.0 294.0 -364.0 294.0 -404.0 294.0 -417.0 290.0 -417.0 286.0 -417.0 282.0 -408.0 259.0 -348.0 242.0 -289.0 L242.0 -289.0 M251.0 -633.0 L251.0 -633.0 Q200.0 -633.0 166.0 -633.0 138.0 -633.0 138.0 -629.0 138.0 -612.0 295.0 -593.0 387.0 -576.0 510.0 -568.0 550.0 -568.0 587.0 -572.0 610.0 -576.0 611.0 -580.0 610.0 -589.0 572.0 -597.0 520.0 -605.0 457.0 -616.0 399.0 -620.0 251.0 -633.0 L251.0 -633.0 M861.0 -341.0 L861.0 -341.0 Q834.0 -320.0 785.0 -280.0 736.0 -240.0 712.0 -217.0 707.0 -213.0 707.0 -205.0 710.0 -200.0 718.0 -200.0 767.0 -220.0 804.0 -249.0 851.0 -289.0 869.0 -324.0 878.0 -341.0 878.0 -348.0 869.0 -348.0 861.0 -341.0 L861.0 -341.0 M881.0 -96.0 L881.0 -96.0 Q820.0 -64.0 768.0 -24.0 706.0 28.0 673.0 64.0 671.0 68.0 671.0 68.0 673.0 72.0 676.0 72.0 756.0 43.0 797.0 3.0 856.0 -37.0 884.0 -88.0 887.0 -92.0 887.0 -96.0 885.0 -96.0 881.0 -96.0 L881.0 -96.0 M882.0 -597.0 L882.0 -597.0 Q824.0 -568.0 774.0 -540.0 714.0 -501.0 683.0 -473.0 681.0 -469.0 681.0 -465.0 683.0 -465.0 687.0 -465.0 764.0 -484.0 802.0 -513.0 860.0 -545.0 886.0 -584.0 890.0 -589.0 890.0 -593.0 888.0 -597.0 882.0 -597.0 L882.0 -597.0" fill-rule="evenodd" stroke="none"/>
    </g>
  </defs>
</svg>
