<?xml version="1.0" encoding="UTF-8" standalone="no"?>
<svg xmlns:xlink="http://www.w3.org/1999/xlink" height="84.2px" width="329.5px" xmlns="http://www.w3.org/2000/svg">
  <g transform="matrix(1.0, 0.0, 0.0, 1.0, -4.55, -1.95)">
    <g transform="matrix(1.0, 0.0, 0.0, 1.0, 0.0, 0.0)">
      <use fill="#ffffff" height="84.2" transform="matrix(0.0384, 0.0, 0.0, 0.0384, 0.0, 31.0)" width="329.5" xlink:href="#font_DFPTongTong-B5__0"/>
      <use fill="#ffffff" height="84.2" transform="matrix(0.0384, 0.0, 0.0, 0.0384, 39.3, 31.0)" width="329.5" xlink:href="#font_DFPTongTong-B5__1"/>
      <use fill="#ffffff" height="84.2" transform="matrix(0.0384, 0.0, 0.0, 0.0384, 78.6, 31.0)" width="329.5" xlink:href="#font_DFPTongTong-B5__2"/>
      <use fill="#ffffff" height="84.2" transform="matrix(0.0384, 0.0, 0.0, 0.0384, 117.9, 31.0)" width="329.5" xlink:href="#font_DFPTongTong-B5__3"/>
      <use fill="#ffffff" height="84.2" transform="matrix(0.0384, 0.0, 0.0, 0.0384, 157.2, 31.0)" width="329.5" xlink:href="#font_DFPTongTong-B5__4"/>
      <use fill="#ffffff" height="84.2" transform="matrix(0.0384, 0.0, 0.0, 0.0384, 196.5, 31.0)" width="329.5" xlink:href="#font_DFPTongTong-B5__5"/>
    </g>
    <g transform="matrix(1.0, 0.0, 0.0, 1.0, 0.0, 0.0)">
      <use fill="#ffffff" height="84.2" transform="matrix(0.0384, 0.0, 0.0, 0.0384, 235.8, 31.0)" width="329.5" xlink:href="#font_DFPTongTong-B5_30"/>
    </g>
    <g transform="matrix(1.0, 0.0, 0.0, 1.0, 0.0, 0.0)">
      <use fill="#ffffff" height="84.2" transform="matrix(0.0384, 0.0, 0.0, 0.0384, 259.35, 31.0)" width="329.5" xlink:href="#font_DFPTongTong-B5__6"/>
      <use fill="#ffffff" height="84.2" transform="matrix(0.0384, 0.0, 0.0, 0.0384, 298.65, 31.0)" width="329.5" xlink:href="#font_DFPTongTong-B5__7"/>
    </g>
    <g transform="matrix(1.0, 0.0, 0.0, 1.0, 0.0, 0.0)">
      <use fill="#ffffff" height="84.2" transform="matrix(0.0384, 0.0, 0.0, 0.0384, 0.0, 79.0)" width="329.5" xlink:href="#font_DFPTongTong-B5__8"/>
      <use fill="#ffffff" height="84.2" transform="matrix(0.0384, 0.0, 0.0, 0.0384, 39.3, 79.0)" width="329.5" xlink:href="#font_DFPTongTong-B5__9"/>
      <use fill="#ffffff" height="84.2" transform="matrix(0.0384, 0.0, 0.0, 0.0384, 78.6, 79.0)" width="329.5" xlink:href="#font_DFPTongTong-B5__10"/>
      <use fill="#ffffff" height="84.2" transform="matrix(0.0384, 0.0, 0.0, 0.0384, 117.9, 79.0)" width="329.5" xlink:href="#font_DFPTongTong-B5__11"/>
      <use fill="#ffffff" height="84.2" transform="matrix(0.0384, 0.0, 0.0, 0.0384, 157.2, 79.0)" width="329.5" xlink:href="#font_DFPTongTong-B5__12"/>
      <use fill="#ffffff" height="84.2" transform="matrix(0.0384, 0.0, 0.0, 0.0384, 196.5, 79.0)" width="329.5" xlink:href="#font_DFPTongTong-B5__13"/>
      <use fill="#ffffff" height="84.2" transform="matrix(0.0384, 0.0, 0.0, 0.0384, 235.8, 79.0)" width="329.5" xlink:href="#font_DFPTongTong-B5__14"/>
      <use fill="#ffffff" height="84.2" transform="matrix(0.0384, 0.0, 0.0, 0.0384, 275.1, 79.0)" width="329.5" xlink:href="#font_DFPTongTong-B5__15"/>
      <use fill="#ffffff" height="84.2" transform="matrix(0.0384, 0.0, 0.0, 0.0384, 314.4, 79.0)" width="329.5" xlink:href="#font_DFPTongTong-B5__16"/>
    </g>
  </g>
  <defs>
    <g id="font_DFPTongTong-B5__0">
      <path d="M783.0 -620.0 L783.0 -620.0 Q776.0 -620.0 776.0 -616.0 777.0 -605.0 799.0 -584.0 813.0 -572.0 824.0 -561.0 856.0 -536.0 884.0 -536.0 902.0 -536.0 902.0 -549.0 902.0 -572.0 852.0 -601.0 806.0 -620.0 783.0 -620.0 L783.0 -620.0 M499.0 -681.0 L499.0 -681.0 Q453.0 -668.0 312.0 -612.0 189.0 -564.0 134.0 -536.0 119.0 -532.0 119.0 -524.0 119.0 -520.0 128.0 -520.0 239.0 -536.0 342.0 -580.0 430.0 -608.0 503.0 -664.0 509.0 -668.0 512.0 -677.0 508.0 -681.0 499.0 -681.0 L499.0 -681.0 M647.0 -341.0 L647.0 -341.0 Q536.0 -337.0 417.0 -333.0 385.0 -333.0 355.0 -328.0 350.0 -373.0 343.0 -404.0 327.0 -469.0 317.0 -469.0 315.0 -465.0 315.0 -461.0 321.0 -389.0 325.0 -328.0 244.0 -324.0 188.0 -320.0 142.0 -308.0 138.0 -304.0 140.0 -289.0 239.0 -289.0 278.0 -289.0 327.0 -289.0 334.0 -192.0 336.0 -112.0 329.0 -108.0 322.0 -104.0 219.0 -64.0 174.0 -41.0 161.0 -33.0 161.0 -28.0 161.0 -24.0 169.0 -24.0 256.0 -37.0 337.0 -77.0 339.0 -33.0 339.0 3.0 339.0 32.0 330.0 40.0 323.0 40.0 323.0 47.0 325.0 51.0 331.0 51.0 344.0 56.0 358.0 56.0 383.0 51.0 383.0 20.0 383.0 -12.0 378.0 -72.0 377.0 -81.0 377.0 -92.0 431.0 -117.0 478.0 -152.0 484.0 -156.0 486.0 -165.0 484.0 -169.0 476.0 -169.0 446.0 -161.0 375.0 -129.0 371.0 -184.0 367.0 -232.0 364.0 -264.0 360.0 -293.0 374.0 -293.0 388.0 -293.0 544.0 -297.0 651.0 -304.0 664.0 -196.0 693.0 -108.0 700.0 -88.0 708.0 -68.0 646.0 -20.0 614.0 3.0 610.0 7.0 610.0 16.0 612.0 20.0 618.0 20.0 677.0 -4.0 724.0 -33.0 772.0 60.0 848.0 72.0 888.0 72.0 890.0 43.0 890.0 36.0 884.0 36.0 871.0 43.0 852.0 43.0 799.0 28.0 758.0 -56.0 814.0 -104.0 840.0 -144.0 846.0 -156.0 846.0 -165.0 840.0 -165.0 833.0 -161.0 799.0 -136.0 742.0 -96.0 738.0 -104.0 735.0 -112.0 709.0 -213.0 692.0 -308.0 791.0 -316.0 836.0 -328.0 852.0 -333.0 852.0 -341.0 852.0 -345.0 829.0 -345.0 758.0 -345.0 686.0 -341.0 675.0 -421.0 670.0 -492.0 668.0 -517.0 664.0 -540.0 659.0 -564.0 655.0 -564.0 651.0 -564.0 642.0 -480.0 642.0 -408.0 647.0 -341.0 L647.0 -341.0" fill-rule="evenodd" stroke="none"/>
    </g>
    <g id="font_DFPTongTong-B5__1">
      <path d="M508.0 -100.0 L508.0 -100.0 Q504.0 -100.0 504.0 -96.0 508.0 -72.0 542.0 -41.0 566.0 -16.0 588.0 -16.0 602.0 -16.0 602.0 -33.0 602.0 -41.0 586.0 -52.0 563.0 -68.0 542.0 -81.0 515.0 -100.0 508.0 -100.0 L508.0 -100.0 M519.0 -272.0 L519.0 -272.0 Q515.0 -272.0 515.0 -268.0 532.0 -245.0 553.0 -217.0 574.0 -192.0 586.0 -192.0 601.0 -192.0 602.0 -209.0 602.0 -232.0 579.0 -253.0 548.0 -268.0 519.0 -272.0 L519.0 -272.0 M717.0 -121.0 L717.0 -121.0 Q736.0 -121.0 756.0 -121.0 792.0 -121.0 824.0 -125.0 845.0 -125.0 847.0 -129.0 844.0 -136.0 787.0 -144.0 754.0 -148.0 717.0 -148.0 718.0 -184.0 718.0 -209.0 718.0 -268.0 716.0 -293.0 711.0 -341.0 603.0 -348.0 541.0 -348.0 473.0 -345.0 464.0 -345.0 464.0 -341.0 464.0 -337.0 521.0 -324.0 552.0 -316.0 591.0 -312.0 614.0 -308.0 652.0 -308.0 677.0 -304.0 677.0 -289.0 677.0 -213.0 676.0 -152.0 643.0 -156.0 608.0 -161.0 555.0 -165.0 447.0 -169.0 449.0 -188.0 450.0 -209.0 453.0 -257.0 454.0 -301.0 454.0 -356.0 441.0 -356.0 432.0 -356.0 422.0 -301.0 415.0 -257.0 411.0 -213.0 409.0 -188.0 407.0 -173.0 355.0 -176.0 293.0 -176.0 248.0 -176.0 217.0 -176.0 193.0 -176.0 193.0 -173.0 193.0 -161.0 404.0 -140.0 404.0 -136.0 404.0 -129.0 404.0 -64.0 413.0 -28.0 423.0 3.0 438.0 20.0 457.0 36.0 482.0 43.0 520.0 51.0 610.0 51.0 640.0 51.0 670.0 47.0 666.0 64.0 656.0 68.0 652.0 68.0 652.0 76.0 666.0 87.0 684.0 87.0 708.0 84.0 712.0 36.0 714.0 36.0 716.0 36.0 748.0 24.0 752.0 11.0 752.0 3.0 733.0 3.0 723.0 7.0 714.0 7.0 714.0 7.0 714.0 7.0 716.0 -68.0 717.0 -121.0 L717.0 -121.0 M446.0 -136.0 L446.0 -136.0 Q549.0 -129.0 676.0 -121.0 675.0 -117.0 675.0 -108.0 675.0 -37.0 674.0 7.0 674.0 11.0 673.0 16.0 667.0 16.0 658.0 16.0 626.0 20.0 584.0 20.0 560.0 20.0 522.0 16.0 484.0 11.0 472.0 3.0 456.0 -8.0 451.0 -41.0 446.0 -72.0 446.0 -136.0 446.0 -136.0 446.0 -136.0 L446.0 -136.0 M378.0 -576.0 L378.0 -576.0 Q413.0 -568.0 494.0 -557.0 580.0 -540.0 692.0 -536.0 728.0 -536.0 760.0 -540.0 781.0 -540.0 782.0 -545.0 781.0 -553.0 746.0 -561.0 698.0 -568.0 640.0 -576.0 588.0 -584.0 450.0 -597.0 414.0 -597.0 387.0 -593.0 419.0 -660.0 426.0 -712.0 L426.0 -717.0 Q426.0 -717.0 425.0 -712.0 377.0 -660.0 327.0 -568.0 267.0 -465.0 245.0 -400.0 245.0 -396.0 246.0 -396.0 247.0 -396.0 247.0 -396.0 292.0 -429.0 348.0 -524.0 365.0 -549.0 378.0 -576.0 L378.0 -576.0" fill-rule="evenodd" stroke="none"/>
    </g>
    <g id="font_DFPTongTong-B5__2">
      <path d="M333.0 -645.0 L333.0 -645.0 Q282.0 -645.0 248.0 -641.0 220.0 -641.0 220.0 -637.0 220.0 -620.0 433.0 -601.0 560.0 -584.0 727.0 -580.0 767.0 -580.0 804.0 -580.0 827.0 -584.0 828.0 -589.0 826.0 -597.0 775.0 -605.0 703.0 -612.0 615.0 -624.0 538.0 -633.0 333.0 -645.0 L333.0 -645.0 M520.0 -228.0 L520.0 -228.0 Q829.0 -228.0 831.0 -240.0 831.0 -253.0 794.0 -257.0 756.0 -264.0 680.0 -264.0 607.0 -268.0 536.0 -268.0 588.0 -412.0 597.0 -465.0 597.0 -469.0 595.0 -469.0 593.0 -469.0 579.0 -448.0 532.0 -373.0 488.0 -268.0 365.0 -272.0 242.0 -272.0 114.0 -272.0 114.0 -260.0 114.0 -245.0 263.0 -236.0 346.0 -228.0 471.0 -228.0 408.0 -60.0 383.0 60.0 383.0 64.0 387.0 64.0 390.0 64.0 404.0 43.0 428.0 -1.0 450.0 -48.0 463.0 -37.0 490.0 -20.0 519.0 -4.0 543.0 7.0 606.0 40.0 636.0 40.0 657.0 40.0 657.0 32.0 657.0 11.0 584.0 -16.0 554.0 -33.0 521.0 -45.0 477.0 -60.0 457.0 -68.0 480.0 -121.0 502.0 -176.0 511.0 -205.0 520.0 -228.0 L520.0 -228.0" fill-rule="evenodd" stroke="none"/>
    </g>
    <g id="font_DFPTongTong-B5__3">
      <path d="M583.0 56.0 L583.0 56.0 Q555.0 56.0 523.0 56.0 502.0 56.0 458.0 60.0 435.0 64.0 435.0 68.0 435.0 72.0 496.0 84.0 544.0 91.0 626.0 95.0 672.0 95.0 693.0 91.0 718.0 87.0 718.0 84.0 718.0 76.0 668.0 68.0 641.0 64.0 611.0 60.0 613.0 51.0 613.0 47.0 613.0 16.0 603.0 -37.0 630.0 -37.0 655.0 -37.0 688.0 -37.0 688.0 -45.0 688.0 -48.0 680.0 -52.0 656.0 -64.0 621.0 -68.0 607.0 -72.0 596.0 -72.0 591.0 -96.0 582.0 -117.0 573.0 -129.0 569.0 -129.0 565.0 -129.0 565.0 -112.0 566.0 -92.0 566.0 -77.0 530.0 -81.0 508.0 -81.0 432.0 -81.0 432.0 -72.0 432.0 -60.0 528.0 -45.0 548.0 -45.0 567.0 -41.0 568.0 -16.0 569.0 -1.0 571.0 40.0 582.0 56.0 582.0 56.0 583.0 56.0 L583.0 56.0 M578.0 -633.0 L578.0 -633.0 Q658.0 -629.0 751.0 -629.0 791.0 -629.0 826.0 -629.0 850.0 -633.0 852.0 -637.0 849.0 -645.0 785.0 -652.0 697.0 -660.0 588.0 -673.0 492.0 -681.0 239.0 -692.0 188.0 -692.0 154.0 -689.0 127.0 -689.0 127.0 -685.0 127.0 -668.0 388.0 -648.0 464.0 -641.0 552.0 -637.0 545.0 -624.0 535.0 -616.0 504.0 -576.0 480.0 -536.0 435.0 -456.0 435.0 -421.0 435.0 -348.0 500.0 -348.0 565.0 -348.0 621.0 -368.0 659.0 -381.0 680.0 -400.0 695.0 -389.0 712.0 -377.0 793.0 -308.0 815.0 -308.0 820.0 -308.0 820.0 -312.0 820.0 -348.0 738.0 -408.0 659.0 -461.0 589.0 -480.0 587.0 -480.0 587.0 -476.0 615.0 -452.0 664.0 -412.0 636.0 -404.0 593.0 -400.0 545.0 -392.0 508.0 -392.0 481.0 -392.0 477.0 -408.0 477.0 -429.0 490.0 -461.0 511.0 -509.0 558.0 -597.0 571.0 -620.0 578.0 -633.0 L578.0 -633.0" fill-rule="evenodd" stroke="none"/>
    </g>
    <g id="font_DFPTongTong-B5__4">
      <path d="M730.0 -456.0 L730.0 -456.0 Q722.0 -456.0 722.0 -452.0 722.0 -444.0 754.0 -412.0 774.0 -392.0 790.0 -381.0 829.0 -348.0 856.0 -348.0 871.0 -348.0 873.0 -356.0 873.0 -381.0 844.0 -400.0 812.0 -421.0 775.0 -440.0 743.0 -456.0 730.0 -456.0 L730.0 -456.0 M492.0 -689.0 L492.0 -689.0 Q487.0 -689.0 487.0 -673.0 487.0 -629.0 496.0 -564.0 500.0 -528.0 508.0 -436.0 517.0 -352.0 517.0 -320.0 517.0 -272.0 496.0 -268.0 492.0 -264.0 492.0 -260.0 500.0 -253.0 524.0 -253.0 558.0 -260.0 558.0 -304.0 558.0 -381.0 544.0 -469.0 539.0 -545.0 527.0 -601.0 505.0 -689.0 492.0 -689.0 L492.0 -689.0 M690.0 -253.0 L690.0 -253.0 Q686.0 -253.0 684.0 -245.0 679.0 -224.0 675.0 -217.0 669.0 -196.0 646.0 -156.0 622.0 -108.0 577.0 -52.0 501.0 40.0 431.0 84.0 431.0 87.0 440.0 87.0 504.0 76.0 549.0 32.0 596.0 -8.0 636.0 -56.0 699.0 -140.0 700.0 -196.0 700.0 -220.0 696.0 -240.0 696.0 -253.0 690.0 -253.0 L690.0 -253.0 M280.0 -473.0 L280.0 -473.0 Q214.0 -440.0 160.0 -392.0 137.0 -373.0 118.0 -345.0 105.0 -328.0 105.0 -312.0 108.0 -301.0 114.0 -301.0 120.0 -301.0 128.0 -304.0 160.0 -324.0 200.0 -368.0 259.0 -429.0 284.0 -465.0 284.0 -473.0 280.0 -473.0 L280.0 -473.0" fill-rule="evenodd" stroke="none"/>
    </g>
    <g id="font_DFPTongTong-B5__5">
      <path d="M718.0 -396.0 L718.0 -396.0 Q714.0 -396.0 714.0 -377.0 716.0 -316.0 718.0 -284.0 720.0 -253.0 730.0 -236.0 739.0 -220.0 748.0 -220.0 754.0 -220.0 758.0 -228.0 762.0 -240.0 762.0 -249.0 762.0 -280.0 748.0 -333.0 741.0 -360.0 730.0 -385.0 722.0 -396.0 718.0 -396.0 L718.0 -396.0 M852.0 -484.0 L852.0 -484.0 Q850.0 -480.0 850.0 -473.0 873.0 -284.0 873.0 -180.0 873.0 -156.0 855.0 -148.0 848.0 -148.0 848.0 -140.0 850.0 -136.0 856.0 -132.0 869.0 -129.0 884.0 -129.0 920.0 -129.0 920.0 -165.0 920.0 -184.0 915.0 -224.0 910.0 -280.0 903.0 -328.0 893.0 -404.0 879.0 -440.0 861.0 -484.0 852.0 -484.0 L852.0 -484.0 M340.0 -85.0 L340.0 -85.0 Q344.0 -81.0 350.0 -81.0 394.0 -77.0 435.0 -72.0 434.0 -33.0 434.0 3.0 439.0 68.0 445.0 91.0 454.0 124.0 465.0 124.0 473.0 124.0 475.0 80.0 475.0 51.0 480.0 -45.0 480.0 -60.0 480.0 -72.0 485.0 -72.0 490.0 -72.0 519.0 -72.0 538.0 -68.0 557.0 -68.0 561.0 -48.0 570.0 -37.0 570.0 -16.0 570.0 7.0 539.0 24.0 541.0 32.0 568.0 36.0 608.0 36.0 608.0 -16.0 608.0 -41.0 600.0 -64.0 598.0 -77.0 581.0 -92.0 563.0 -104.0 518.0 -108.0 499.0 -108.0 479.0 -112.0 476.0 -184.0 467.0 -224.0 459.0 -264.0 450.0 -264.0 443.0 -264.0 441.0 -224.0 438.0 -169.0 436.0 -112.0 422.0 -112.0 408.0 -112.0 385.0 -117.0 359.0 -117.0 342.0 -112.0 332.0 -112.0 328.0 -125.0 322.0 -132.0 312.0 -148.0 309.0 -148.0 305.0 -148.0 305.0 -136.0 305.0 -112.0 307.0 -88.0 311.0 -56.0 318.0 -20.0 326.0 11.0 333.0 28.0 344.0 43.0 349.0 43.0 352.0 43.0 356.0 36.0 359.0 28.0 361.0 16.0 361.0 7.0 354.0 -24.0 348.0 -52.0 340.0 -85.0 L340.0 -85.0 M567.0 -469.0 L567.0 -469.0 Q580.0 -480.0 589.0 -505.0 601.0 -536.0 601.0 -561.0 601.0 -608.0 554.0 -629.0 505.0 -645.0 446.0 -652.0 297.0 -668.0 213.0 -668.0 140.0 -668.0 140.0 -660.0 140.0 -645.0 276.0 -629.0 329.0 -624.0 383.0 -616.0 434.0 -612.0 467.0 -605.0 510.0 -597.0 531.0 -584.0 554.0 -572.0 554.0 -549.0 L547.0 -469.0 Q547.0 -469.0 547.0 -469.0 509.0 -476.0 432.0 -476.0 367.0 -480.0 302.0 -484.0 230.0 -484.0 199.0 -480.0 220.0 -553.0 224.0 -584.0 224.0 -589.0 222.0 -589.0 220.0 -589.0 203.0 -564.0 165.0 -496.0 129.0 -392.0 78.0 -245.0 58.0 -136.0 58.0 -129.0 62.0 -129.0 68.0 -129.0 85.0 -152.0 124.0 -240.0 156.0 -345.0 177.0 -408.0 193.0 -461.0 214.0 -452.0 260.0 -448.0 308.0 -436.0 380.0 -436.0 584.0 -436.0 585.0 -452.0 585.0 -465.0 567.0 -469.0 L567.0 -469.0" fill-rule="evenodd" stroke="none"/>
    </g>
    <g id="font_DFPTongTong-B5_30">
      <path d="M414.0 -100.0 L414.0 -100.0 Q414.0 -234.0 238.0 -289.0 309.0 -335.0 342.0 -369.0 391.0 -422.0 391.0 -481.0 391.0 -552.0 327.0 -583.0 284.0 -604.0 222.0 -604.0 162.0 -604.0 93.0 -574.0 31.0 -547.0 31.0 -531.0 31.0 -526.0 38.0 -526.0 41.0 -526.0 109.0 -541.0 177.0 -557.0 222.0 -557.0 344.0 -557.0 344.0 -481.0 344.0 -433.0 302.0 -387.0 278.0 -360.0 222.0 -322.0 180.0 -293.0 180.0 -283.0 180.0 -272.0 227.0 -254.0 287.0 -229.0 314.0 -206.0 361.0 -165.0 361.0 -100.0 361.0 -57.0 323.0 -21.0 281.0 18.0 222.0 18.0 180.0 18.0 136.0 7.0 91.0 -3.0 92.0 -3.0 86.0 -3.0 86.0 2.0 86.0 20.0 131.0 40.0 177.0 61.0 231.0 61.0 304.0 61.0 358.0 15.0 414.0 -33.0 414.0 -100.0" fill-rule="evenodd" stroke="none"/>
    </g>
    <g id="font_DFPTongTong-B5__6">
      <path d="M178.0 -461.0 L178.0 -461.0 Q174.0 -461.0 174.0 -452.0 177.0 -448.0 228.0 -421.0 274.0 -392.0 298.0 -392.0 317.0 -392.0 322.0 -404.0 322.0 -429.0 252.0 -444.0 214.0 -456.0 178.0 -461.0 L178.0 -461.0 M647.0 -108.0 L647.0 -108.0 Q695.0 -257.0 701.0 -301.0 701.0 -304.0 699.0 -304.0 697.0 -304.0 684.0 -284.0 652.0 -228.0 622.0 -140.0 580.0 -16.0 562.0 72.0 562.0 76.0 566.0 76.0 570.0 76.0 585.0 56.0 615.0 -12.0 641.0 -92.0 682.0 -37.0 742.0 -4.0 801.0 36.0 873.0 40.0 925.0 40.0 925.0 36.0 925.0 28.0 873.0 16.0 828.0 -1.0 760.0 -41.0 698.0 -77.0 647.0 -108.0 L647.0 -108.0 M554.0 -509.0 L554.0 -509.0 Q569.0 -505.0 597.0 -496.0 659.0 -484.0 721.0 -480.0 819.0 -476.0 850.0 -476.0 877.0 -473.0 877.0 -448.0 877.0 -425.0 869.0 -381.0 865.0 -356.0 860.0 -333.0 857.0 -316.0 855.0 -308.0 855.0 -289.0 861.0 -289.0 882.0 -293.0 887.0 -316.0 899.0 -341.0 912.0 -396.0 921.0 -433.0 921.0 -448.0 921.0 -492.0 877.0 -505.0 854.0 -513.0 785.0 -517.0 728.0 -524.0 627.0 -528.0 587.0 -528.0 564.0 -524.0 612.0 -612.0 622.0 -677.0 622.0 -681.0 620.0 -681.0 617.0 -681.0 615.0 -677.0 574.0 -620.0 511.0 -517.0 466.0 -429.0 436.0 -345.0 436.0 -341.0 438.0 -341.0 441.0 -341.0 443.0 -341.0 510.0 -417.0 549.0 -501.0 552.0 -505.0 554.0 -509.0 L554.0 -509.0 M301.0 -173.0 L301.0 -173.0 Q294.0 -173.0 273.0 -169.0 233.0 -156.0 189.0 -132.0 156.0 -112.0 156.0 -108.0 156.0 -104.0 172.0 -104.0 219.0 -108.0 267.0 -132.0 298.0 -148.0 305.0 -169.0 305.0 -173.0 301.0 -173.0 L301.0 -173.0" fill-rule="evenodd" stroke="none"/>
    </g>
    <g id="font_DFPTongTong-B5__7">
      <path d="M335.0 -284.0 L335.0 -284.0 Q337.0 -293.0 337.0 -301.0 337.0 -337.0 323.0 -404.0 315.0 -440.0 303.0 -469.0 295.0 -480.0 291.0 -480.0 287.0 -480.0 287.0 -465.0 289.0 -385.0 291.0 -345.0 293.0 -308.0 303.0 -289.0 304.0 -289.0 305.0 -284.0 291.0 -284.0 275.0 -284.0 147.0 -284.0 147.0 -272.0 147.0 -257.0 298.0 -249.0 382.0 -236.0 508.0 -236.0 604.0 -236.0 676.0 -240.0 677.0 -217.0 679.0 -192.0 679.0 -176.0 680.0 -165.0 633.0 -144.0 501.0 -64.0 395.0 -1.0 366.0 36.0 364.0 47.0 364.0 56.0 373.0 56.0 376.0 56.0 474.0 -1.0 555.0 -48.0 640.0 -100.0 681.0 -144.0 688.0 -41.0 688.0 3.0 688.0 68.0 666.0 76.0 662.0 80.0 662.0 84.0 670.0 95.0 694.0 95.0 728.0 87.0 728.0 20.0 728.0 -100.0 714.0 -236.0 714.0 -236.0 714.0 -240.0 864.0 -245.0 865.0 -253.0 865.0 -264.0 827.0 -268.0 790.0 -276.0 714.0 -276.0 713.0 -280.0 712.0 -280.0 707.0 -373.0 697.0 -440.0 675.0 -528.0 662.0 -528.0 657.0 -528.0 657.0 -513.0 657.0 -469.0 666.0 -404.0 668.0 -364.0 673.0 -280.0 503.0 -280.0 335.0 -284.0 L335.0 -284.0 M422.0 -645.0 L422.0 -645.0 Q382.0 -645.0 301.0 -641.0 260.0 -637.0 260.0 -633.0 260.0 -624.0 371.0 -608.0 459.0 -601.0 609.0 -597.0 693.0 -597.0 733.0 -601.0 777.0 -605.0 777.0 -608.0 777.0 -616.0 686.0 -629.0 572.0 -641.0 422.0 -645.0 L422.0 -645.0" fill-rule="evenodd" stroke="none"/>
    </g>
    <g id="font_DFPTongTong-B5__8">
      <path d="M737.0 168.0 L737.0 168.0 Q737.0 159.0 726.0 146.0 715.0 132.0 702.0 120.0 638.0 36.0 595.0 -89.0 555.0 -210.0 555.0 -305.0 555.0 -401.0 595.0 -524.0 638.0 -652.0 702.0 -736.0 715.0 -748.0 726.0 -762.0 737.0 -775.0 737.0 -784.0 737.0 -786.0 734.0 -787.0 732.0 -787.0 689.0 -749.0 608.0 -679.0 558.0 -541.0 512.0 -421.0 512.0 -307.0 512.0 -195.0 558.0 -72.0 608.0 63.0 689.0 133.0 732.0 171.0 734.0 171.0 737.0 170.0 737.0 168.0" fill-rule="evenodd" stroke="none"/>
    </g>
    <g id="font_DFPTongTong-B5__9">
      <path d="M564.0 -81.0 L564.0 -81.0 Q564.0 -64.0 564.0 -48.0 570.0 80.0 591.0 100.0 595.0 104.0 599.0 104.0 608.0 104.0 614.0 64.0 609.0 -20.0 605.0 -81.0 896.0 -81.0 898.0 -92.0 898.0 -104.0 860.0 -108.0 821.0 -117.0 745.0 -117.0 673.0 -121.0 601.0 -121.0 596.0 -173.0 591.0 -188.0 585.0 -217.0 579.0 -217.0 570.0 -217.0 566.0 -165.0 565.0 -144.0 565.0 -121.0 433.0 -125.0 302.0 -125.0 174.0 -125.0 174.0 -112.0 174.0 -96.0 326.0 -88.0 410.0 -77.0 538.0 -77.0 551.0 -77.0 564.0 -81.0 L564.0 -81.0 M384.0 -316.0 L384.0 -316.0 Q400.0 -308.0 432.0 -304.0 488.0 -301.0 558.0 -301.0 639.0 -301.0 673.0 -312.0 697.0 -320.0 697.0 -328.0 695.0 -337.0 673.0 -337.0 679.0 -348.0 682.0 -381.0 L708.0 -545.0 Q708.0 -605.0 662.0 -633.0 614.0 -656.0 547.0 -660.0 476.0 -664.0 403.0 -664.0 364.0 -660.0 344.0 -656.0 344.0 -660.0 343.0 -660.0 338.0 -696.0 325.0 -696.0 316.0 -696.0 316.0 -624.0 316.0 -532.0 329.0 -448.0 342.0 -360.0 361.0 -308.0 370.0 -293.0 378.0 -293.0 386.0 -297.0 386.0 -304.0 385.0 -308.0 384.0 -316.0 L384.0 -316.0 M649.0 -341.0 L649.0 -341.0 Q521.0 -341.0 392.0 -337.0 387.0 -337.0 382.0 -337.0 376.0 -389.0 366.0 -473.0 396.0 -469.0 443.0 -469.0 483.0 -469.0 519.0 -476.0 546.0 -484.0 546.0 -488.0 546.0 -492.0 538.0 -492.0 526.0 -496.0 496.0 -501.0 466.0 -501.0 435.0 -501.0 418.0 -501.0 378.0 -496.0 370.0 -496.0 364.0 -496.0 355.0 -576.0 346.0 -641.0 357.0 -637.0 376.0 -633.0 423.0 -624.0 487.0 -620.0 528.0 -616.0 571.0 -616.0 610.0 -612.0 635.0 -601.0 656.0 -589.0 656.0 -553.0 652.0 -528.0 652.0 -473.0 647.0 -425.0 643.0 -377.0 643.0 -348.0 649.0 -341.0 L649.0 -341.0" fill-rule="evenodd" stroke="none"/>
    </g>
    <g id="font_DFPTongTong-B5__10">
      <path d="M606.0 -241.0 L606.0 -241.0 Q606.0 -267.0 590.0 -290.0 549.0 -342.0 467.0 -386.0 443.0 -398.0 425.0 -398.0 417.0 -398.0 417.0 -395.0 417.0 -390.0 461.0 -346.0 492.0 -312.0 521.0 -277.0 574.0 -218.0 583.0 -218.0 606.0 -218.0 606.0 -241.0" fill-rule="evenodd" stroke="none"/>
    </g>
    <g id="font_DFPTongTong-B5__11">
      <path d="M779.0 -16.0 L779.0 -16.0 Q775.0 -16.0 765.0 28.0 761.0 51.0 761.0 68.0 763.0 95.0 780.0 108.0 800.0 124.0 839.0 124.0 871.0 120.0 871.0 87.0 871.0 80.0 867.0 68.0 865.0 60.0 861.0 60.0 859.0 60.0 857.0 68.0 849.0 87.0 828.0 91.0 808.0 91.0 800.0 80.0 797.0 76.0 794.0 40.0 792.0 11.0 787.0 -1.0 783.0 -16.0 779.0 -16.0 L779.0 -16.0 M814.0 -200.0 L814.0 -200.0 Q729.0 -200.0 687.0 -200.0 676.0 -200.0 667.0 -200.0 688.0 -268.0 695.0 -308.0 767.0 -308.0 788.0 -304.0 815.0 -304.0 815.0 -272.0 815.0 -245.0 813.0 -220.0 812.0 -209.0 814.0 -200.0 L814.0 -200.0 M529.0 -192.0 L529.0 -192.0 Q529.0 -196.0 529.0 -196.0 529.0 -236.0 516.0 -301.0 513.0 -316.0 509.0 -328.0 520.0 -324.0 538.0 -320.0 591.0 -308.0 673.0 -308.0 675.0 -308.0 678.0 -308.0 677.0 -304.0 676.0 -304.0 651.0 -260.0 628.0 -196.0 578.0 -196.0 565.0 -196.0 543.0 -196.0 529.0 -192.0 L529.0 -192.0 M525.0 -176.0 L525.0 -176.0 Q525.0 -176.0 525.0 -176.0 531.0 -176.0 542.0 -173.0 571.0 -169.0 615.0 -169.0 612.0 -156.0 608.0 -144.0 563.0 -8.0 545.0 87.0 545.0 95.0 550.0 95.0 555.0 95.0 573.0 72.0 608.0 -8.0 637.0 -104.0 647.0 -136.0 656.0 -165.0 669.0 -165.0 683.0 -165.0 780.0 -165.0 819.0 -176.0 866.0 -188.0 866.0 -200.0 864.0 -205.0 859.0 -205.0 849.0 -205.0 840.0 -205.0 844.0 -209.0 849.0 -217.0 857.0 -236.0 861.0 -257.0 866.0 -280.0 866.0 -301.0 866.0 -328.0 812.0 -341.0 756.0 -352.0 671.0 -352.0 540.0 -348.0 505.0 -345.0 502.0 -356.0 498.0 -364.0 489.0 -377.0 485.0 -377.0 481.0 -377.0 481.0 -356.0 483.0 -284.0 485.0 -245.0 487.0 -205.0 498.0 -188.0 508.0 -169.0 516.0 -169.0 521.0 -169.0 525.0 -176.0 L525.0 -176.0 M640.0 -656.0 L640.0 -656.0 Q676.0 -712.0 683.0 -744.0 683.0 -748.0 681.0 -748.0 680.0 -748.0 677.0 -744.0 631.0 -696.0 555.0 -608.0 468.0 -492.0 447.0 -456.0 447.0 -456.0 449.0 -456.0 451.0 -456.0 453.0 -456.0 506.0 -484.0 574.0 -568.0 603.0 -605.0 625.0 -633.0 639.0 -629.0 665.0 -620.0 743.0 -597.0 743.0 -572.0 743.0 -540.0 730.0 -496.0 730.0 -492.0 737.0 -492.0 760.0 -496.0 774.0 -528.0 785.0 -549.0 785.0 -576.0 785.0 -637.0 651.0 -656.0 646.0 -656.0 640.0 -656.0 L640.0 -656.0 M259.0 -200.0 L259.0 -200.0 Q243.0 -200.0 225.0 -200.0 213.0 -200.0 185.0 -196.0 180.0 -196.0 176.0 -196.0 174.0 -232.0 167.0 -276.0 165.0 -284.0 164.0 -297.0 167.0 -293.0 172.0 -293.0 204.0 -289.0 231.0 -289.0 251.0 -289.0 263.0 -289.0 261.0 -253.0 259.0 -213.0 259.0 -205.0 259.0 -200.0 L259.0 -200.0 M176.0 -176.0 L176.0 -176.0 Q176.0 -176.0 176.0 -176.0 198.0 -173.0 231.0 -173.0 259.0 -173.0 284.0 -176.0 302.0 -184.0 302.0 -188.0 302.0 -192.0 295.0 -196.0 292.0 -196.0 287.0 -196.0 290.0 -205.0 293.0 -213.0 306.0 -276.0 310.0 -364.0 310.0 -412.0 250.0 -425.0 199.0 -433.0 169.0 -433.0 152.0 -433.0 152.0 -429.0 152.0 -421.0 171.0 -408.0 206.0 -396.0 248.0 -389.0 265.0 -389.0 265.0 -373.0 265.0 -345.0 264.0 -312.0 227.0 -316.0 182.0 -316.0 170.0 -316.0 161.0 -316.0 155.0 -356.0 148.0 -392.0 140.0 -436.0 134.0 -436.0 130.0 -436.0 129.0 -421.0 127.0 -356.0 127.0 -304.0 129.0 -236.0 140.0 -192.0 153.0 -156.0 169.0 -152.0 176.0 -152.0 176.0 -173.0 176.0 -176.0 176.0 -176.0 L176.0 -176.0" fill-rule="evenodd" stroke="none"/>
    </g>
    <g id="font_DFPTongTong-B5__12">
      <path d="M256.0 -645.0 L256.0 -645.0 Q238.0 -645.0 238.0 -637.0 238.0 -624.0 291.0 -612.0 345.0 -597.0 449.0 -584.0 555.0 -576.0 607.0 -564.0 663.0 -557.0 663.0 -532.0 663.0 -496.0 653.0 -448.0 636.0 -381.0 630.0 -364.0 630.0 -352.0 638.0 -352.0 670.0 -360.0 691.0 -429.0 711.0 -492.0 711.0 -540.0 711.0 -580.0 648.0 -601.0 587.0 -620.0 460.0 -629.0 337.0 -641.0 256.0 -645.0 L256.0 -645.0 M597.0 -24.0 L597.0 -24.0 Q589.0 -4.0 582.0 11.0 567.0 40.0 562.0 56.0 562.0 64.0 572.0 64.0 583.0 64.0 617.0 7.0 623.0 -1.0 627.0 -8.0 628.0 -8.0 630.0 -8.0 716.0 43.0 826.0 43.0 840.0 43.0 841.0 40.0 841.0 36.0 830.0 32.0 754.0 3.0 662.0 -45.0 655.0 -45.0 649.0 -48.0 656.0 -64.0 664.0 -81.0 685.0 -121.0 693.0 -152.0 713.0 -205.0 713.0 -220.0 713.0 -249.0 696.0 -264.0 681.0 -280.0 650.0 -289.0 633.0 -293.0 572.0 -301.0 539.0 -304.0 508.0 -304.0 496.0 -304.0 484.0 -304.0 474.0 -304.0 464.0 -304.0 452.0 -301.0 452.0 -297.0 452.0 -289.0 483.0 -280.0 513.0 -276.0 543.0 -268.0 574.0 -260.0 604.0 -257.0 663.0 -245.0 663.0 -228.0 663.0 -217.0 650.0 -173.0 632.0 -112.0 614.0 -68.0 506.0 -125.0 476.0 -136.0 474.0 -136.0 474.0 -132.0 530.0 -68.0 597.0 -24.0 L597.0 -24.0 M328.0 -553.0 L328.0 -553.0 Q322.0 -553.0 312.0 -528.0 275.0 -425.0 229.0 -260.0 182.0 -77.0 165.0 43.0 165.0 84.0 172.0 84.0 182.0 84.0 191.0 56.0 226.0 -85.0 265.0 -236.0 335.0 -473.0 335.0 -505.0 335.0 -553.0 328.0 -553.0 L328.0 -553.0" fill-rule="evenodd" stroke="none"/>
    </g>
    <g id="font_DFPTongTong-B5__13">
      <path d="M606.0 -129.0 L606.0 -129.0 Q606.0 -77.0 606.0 -24.0 610.0 60.0 616.0 95.0 625.0 135.0 635.0 135.0 643.0 135.0 646.0 95.0 646.0 68.0 650.0 -24.0 650.0 -81.0 649.0 -129.0 888.0 -129.0 890.0 -140.0 890.0 -152.0 852.0 -156.0 814.0 -165.0 737.0 -165.0 693.0 -169.0 648.0 -169.0 645.0 -289.0 637.0 -356.0 629.0 -396.0 621.0 -396.0 614.0 -396.0 612.0 -356.0 609.0 -260.0 607.0 -169.0 453.0 -173.0 300.0 -173.0 172.0 -173.0 172.0 -161.0 172.0 -144.0 322.0 -136.0 406.0 -125.0 531.0 -125.0 571.0 -125.0 606.0 -129.0 L606.0 -129.0 M315.0 -549.0 L315.0 -549.0 Q359.0 -536.0 467.0 -524.0 577.0 -509.0 721.0 -505.0 762.0 -505.0 799.0 -509.0 823.0 -509.0 824.0 -513.0 822.0 -520.0 778.0 -532.0 717.0 -536.0 641.0 -549.0 574.0 -557.0 398.0 -568.0 359.0 -568.0 330.0 -568.0 381.0 -641.0 424.0 -712.0 424.0 -721.0 419.0 -721.0 412.0 -721.0 362.0 -673.0 305.0 -616.0 271.0 -564.0 181.0 -425.0 156.0 -348.0 156.0 -345.0 157.0 -341.0 163.0 -341.0 168.0 -348.0 240.0 -436.0 295.0 -520.0 305.0 -536.0 315.0 -549.0 L315.0 -549.0" fill-rule="evenodd" stroke="none"/>
    </g>
    <g id="font_DFPTongTong-B5__14">
      <path d="M552.0 -293.0 L552.0 -293.0 Q527.0 -293.0 504.0 -293.0 464.0 -289.0 464.0 -284.0 464.0 -276.0 496.0 -268.0 523.0 -260.0 558.0 -257.0 596.0 -257.0 612.0 -264.0 630.0 -272.0 630.0 -276.0 630.0 -284.0 594.0 -293.0 573.0 -293.0 552.0 -293.0 L552.0 -293.0 M510.0 -392.0 L510.0 -392.0 Q541.0 -425.0 541.0 -433.0 541.0 -436.0 535.0 -436.0 530.0 -436.0 524.0 -433.0 435.0 -377.0 322.0 -268.0 243.0 -184.0 207.0 -136.0 207.0 -125.0 214.0 -125.0 223.0 -125.0 230.0 -132.0 331.0 -220.0 416.0 -301.0 465.0 -348.0 496.0 -381.0 523.0 -360.0 646.0 -324.0 825.0 -257.0 846.0 -257.0 856.0 -257.0 856.0 -276.0 820.0 -304.0 685.0 -348.0 575.0 -385.0 510.0 -392.0 L510.0 -392.0 M733.0 80.0 L733.0 80.0 Q744.0 68.0 759.0 43.0 780.0 -1.0 780.0 -20.0 780.0 -28.0 775.0 -28.0 758.0 -16.0 737.0 11.0 719.0 43.0 713.0 68.0 711.0 64.0 709.0 64.0 672.0 43.0 636.0 32.0 632.0 32.0 630.0 36.0 634.0 43.0 666.0 72.0 683.0 84.0 699.0 100.0 724.0 120.0 749.0 135.0 772.0 152.0 790.0 152.0 796.0 152.0 796.0 144.0 796.0 131.0 760.0 100.0 746.0 87.0 733.0 80.0 L733.0 80.0 M529.0 -100.0 L529.0 -100.0 Q529.0 -108.0 529.0 -117.0 529.0 -148.0 523.0 -148.0 518.0 -148.0 509.0 -72.0 501.0 7.0 501.0 64.0 503.0 104.0 514.0 124.0 527.0 148.0 559.0 152.0 598.0 152.0 625.0 112.0 625.0 104.0 621.0 104.0 580.0 116.0 568.0 116.0 552.0 116.0 545.0 108.0 541.0 104.0 539.0 91.0 539.0 60.0 535.0 -8.0 542.0 -4.0 553.0 -4.0 583.0 3.0 617.0 3.0 656.0 3.0 673.0 -1.0 692.0 -8.0 692.0 -12.0 692.0 -20.0 666.0 -24.0 672.0 -33.0 676.0 -56.0 685.0 -112.0 686.0 -140.0 686.0 -169.0 657.0 -180.0 629.0 -192.0 577.0 -200.0 542.0 -205.0 497.0 -209.0 481.0 -209.0 481.0 -205.0 481.0 -192.0 548.0 -176.0 575.0 -169.0 607.0 -165.0 628.0 -161.0 633.0 -144.0 635.0 -132.0 636.0 -100.0 631.0 -104.0 623.0 -104.0 607.0 -108.0 591.0 -108.0 572.0 -108.0 554.0 -104.0 538.0 -104.0 529.0 -100.0 L529.0 -100.0 M535.0 -20.0 L535.0 -20.0 Q532.0 -52.0 530.0 -88.0 537.0 -85.0 547.0 -85.0 569.0 -77.0 595.0 -72.0 625.0 -72.0 637.0 -81.0 637.0 -81.0 637.0 -81.0 637.0 -77.0 638.0 -72.0 638.0 -41.0 642.0 -24.0 627.0 -24.0 611.0 -24.0 587.0 -24.0 562.0 -24.0 544.0 -24.0 535.0 -20.0 L535.0 -20.0 M351.0 -465.0 L351.0 -465.0 Q349.0 -465.0 347.0 -465.0 327.0 -476.0 307.0 -480.0 283.0 -492.0 275.0 -492.0 270.0 -492.0 270.0 -484.0 274.0 -473.0 303.0 -448.0 323.0 -436.0 339.0 -433.0 318.0 -377.0 311.0 -352.0 311.0 -345.0 317.0 -345.0 328.0 -348.0 342.0 -373.0 359.0 -404.0 374.0 -429.0 397.0 -473.0 410.0 -509.0 423.0 -536.0 423.0 -557.0 423.0 -580.0 382.0 -589.0 374.0 -589.0 356.0 -593.0 358.0 -601.0 358.0 -605.0 358.0 -624.0 352.0 -656.0 356.0 -656.0 361.0 -652.0 387.0 -648.0 409.0 -648.0 449.0 -648.0 450.0 -660.0 450.0 -668.0 433.0 -668.0 406.0 -677.0 370.0 -677.0 356.0 -677.0 348.0 -677.0 346.0 -685.0 344.0 -689.0 339.0 -721.0 327.0 -744.0 318.0 -757.0 314.0 -757.0 310.0 -757.0 310.0 -736.0 312.0 -677.0 314.0 -641.0 316.0 -608.0 326.0 -597.0 312.0 -597.0 297.0 -597.0 269.0 -597.0 253.0 -597.0 259.0 -616.0 259.0 -637.0 259.0 -641.0 256.0 -641.0 253.0 -641.0 233.0 -612.0 208.0 -576.0 184.0 -536.0 165.0 -501.0 155.0 -476.0 147.0 -456.0 144.0 -444.0 144.0 -436.0 151.0 -436.0 183.0 -452.0 221.0 -520.0 238.0 -553.0 248.0 -576.0 261.0 -572.0 286.0 -568.0 317.0 -561.0 351.0 -561.0 376.0 -557.0 376.0 -549.0 374.0 -524.0 351.0 -465.0 L351.0 -465.0 M717.0 -505.0 L717.0 -505.0 Q761.0 -480.0 791.0 -480.0 799.0 -480.0 800.0 -488.0 800.0 -505.0 764.0 -520.0 749.0 -528.0 733.0 -536.0 734.0 -536.0 735.0 -540.0 745.0 -561.0 753.0 -580.0 761.0 -605.0 761.0 -624.0 761.0 -652.0 711.0 -660.0 690.0 -664.0 648.0 -664.0 603.0 -660.0 603.0 -652.0 603.0 -645.0 634.0 -641.0 684.0 -633.0 700.0 -624.0 713.0 -620.0 713.0 -608.0 713.0 -584.0 700.0 -553.0 691.0 -553.0 682.0 -557.0 644.0 -568.0 628.0 -568.0 624.0 -568.0 624.0 -568.0 624.0 -561.0 664.0 -536.0 677.0 -528.0 688.0 -520.0 684.0 -509.0 679.0 -496.0 670.0 -476.0 670.0 -473.0 670.0 -469.0 676.0 -469.0 692.0 -476.0 706.0 -492.0 711.0 -501.0 717.0 -505.0 L717.0 -505.0" fill-rule="evenodd" stroke="none"/>
    </g>
    <g id="font_DFPTongTong-B5__15">
      <path d="M346.0 -536.0 L346.0 -536.0 Q288.0 -524.0 226.0 -496.0 183.0 -476.0 140.0 -452.0 112.0 -433.0 112.0 -429.0 114.0 -425.0 122.0 -425.0 194.0 -436.0 247.0 -461.0 330.0 -496.0 356.0 -524.0 361.0 -528.0 362.0 -532.0 362.0 -536.0 346.0 -536.0 L346.0 -536.0 M191.0 -224.0 L191.0 -224.0 Q202.0 -148.0 226.0 -88.0 248.0 -41.0 262.0 -20.0 267.0 -12.0 272.0 -12.0 278.0 -16.0 278.0 -24.0 273.0 -64.0 257.0 -125.0 243.0 -176.0 214.0 -228.0 213.0 -232.0 212.0 -232.0 220.0 -236.0 228.0 -240.0 316.0 -280.0 344.0 -308.0 348.0 -312.0 349.0 -316.0 349.0 -320.0 335.0 -320.0 273.0 -308.0 210.0 -280.0 165.0 -260.0 120.0 -232.0 90.0 -213.0 90.0 -205.0 91.0 -200.0 98.0 -200.0 150.0 -213.0 191.0 -224.0 L191.0 -224.0 M654.0 -169.0 L654.0 -169.0 Q677.0 -220.0 682.0 -253.0 682.0 -260.0 678.0 -264.0 674.0 -264.0 664.0 -253.0 633.0 -209.0 583.0 -125.0 524.0 -12.0 511.0 20.0 511.0 28.0 515.0 28.0 518.0 28.0 524.0 24.0 561.0 -1.0 608.0 -85.0 629.0 -121.0 644.0 -148.0 658.0 -144.0 690.0 -140.0 736.0 -132.0 736.0 -108.0 736.0 -77.0 712.0 -8.0 703.0 16.0 695.0 36.0 668.0 24.0 644.0 11.0 609.0 -8.0 599.0 -12.0 595.0 -12.0 595.0 -8.0 632.0 40.0 682.0 72.0 677.0 80.0 673.0 91.0 659.0 124.0 657.0 128.0 657.0 135.0 666.0 135.0 671.0 135.0 689.0 112.0 698.0 100.0 708.0 84.0 748.0 104.0 788.0 104.0 824.0 100.0 824.0 91.0 824.0 87.0 777.0 72.0 750.0 60.0 727.0 47.0 754.0 -4.0 767.0 -45.0 781.0 -85.0 781.0 -108.0 781.0 -156.0 711.0 -169.0 681.0 -169.0 657.0 -169.0 655.0 -169.0 654.0 -169.0 L654.0 -169.0 M676.0 -484.0 L676.0 -484.0 Q637.0 -429.0 637.0 -400.0 637.0 -341.0 691.0 -341.0 737.0 -341.0 775.0 -360.0 803.0 -368.0 817.0 -389.0 823.0 -381.0 828.0 -377.0 862.0 -333.0 884.0 -333.0 898.0 -333.0 900.0 -345.0 900.0 -368.0 874.0 -396.0 848.0 -421.0 817.0 -448.0 791.0 -465.0 779.0 -465.0 772.0 -465.0 772.0 -461.0 772.0 -452.0 799.0 -412.0 803.0 -408.0 807.0 -400.0 787.0 -392.0 758.0 -385.0 724.0 -377.0 698.0 -377.0 676.0 -377.0 673.0 -389.0 673.0 -408.0 688.0 -433.0 713.0 -476.0 772.0 -549.0 800.0 -580.0 800.0 -593.0 800.0 -601.0 796.0 -601.0 791.0 -601.0 749.0 -564.0 730.0 -549.0 714.0 -532.0 641.0 -505.0 605.0 -505.0 586.0 -505.0 585.0 -517.0 585.0 -528.0 592.0 -540.0 605.0 -564.0 618.0 -593.0 646.0 -633.0 681.0 -685.0 701.0 -717.0 701.0 -729.0 701.0 -733.0 696.0 -733.0 680.0 -725.0 655.0 -704.0 625.0 -673.0 605.0 -645.0 584.0 -608.0 564.0 -564.0 553.0 -532.0 553.0 -517.0 553.0 -492.0 563.0 -484.0 577.0 -473.0 598.0 -473.0 642.0 -473.0 676.0 -484.0 L676.0 -484.0" fill-rule="evenodd" stroke="none"/>
    </g>
    <g id="font_DFPTongTong-B5__16">
      <path d="M512.0 -307.0 L512.0 -307.0 Q512.0 -421.0 465.0 -541.0 415.0 -679.0 334.0 -749.0 291.0 -787.0 289.0 -787.0 286.0 -786.0 286.0 -784.0 286.0 -775.0 297.0 -762.0 308.0 -748.0 321.0 -736.0 385.0 -652.0 428.0 -524.0 468.0 -401.0 468.0 -305.0 468.0 -210.0 428.0 -89.0 385.0 36.0 321.0 120.0 308.0 132.0 297.0 146.0 286.0 159.0 286.0 168.0 286.0 170.0 289.0 171.0 291.0 171.0 334.0 133.0 415.0 63.0 465.0 -72.0 512.0 -195.0 512.0 -307.0" fill-rule="evenodd" stroke="none"/>
    </g>
  </defs>
</svg>
