<?xml version="1.0" encoding="UTF-8" standalone="no"?>
<svg xmlns:xlink="http://www.w3.org/1999/xlink" height="41.9px" width="336.9px" xmlns="http://www.w3.org/2000/svg">
  <g transform="matrix(1.0, 0.0, 0.0, 1.0, -5.05, -0.65)">
    <g transform="matrix(1.0, 0.0, 0.0, 1.0, 0.0, 0.0)">
      <use fill="#ffffff" height="41.9" transform="matrix(0.0426, 0.0, 0.0, 0.0426, 0.0, 35.0)" width="336.9" xlink:href="#font_DFPTongTong-B5__0"/>
      <use fill="#ffffff" height="41.9" transform="matrix(0.0426, 0.0, 0.0, 0.0426, 43.6, 35.0)" width="336.9" xlink:href="#font_DFPTongTong-B5__1"/>
      <use fill="#ffffff" height="41.9" transform="matrix(0.0426, 0.0, 0.0, 0.0426, 87.2, 35.0)" width="336.9" xlink:href="#font_DFPTongTong-B5__2"/>
      <use fill="#ffffff" height="41.9" transform="matrix(0.0426, 0.0, 0.0, 0.0426, 130.8, 35.0)" width="336.9" xlink:href="#font_DFPTongTong-B5__3"/>
      <use fill="#ffffff" height="41.9" transform="matrix(0.0426, 0.0, 0.0, 0.0426, 174.4, 35.0)" width="336.9" xlink:href="#font_DFPTongTong-B5__4"/>
      <use fill="#ffffff" height="41.9" transform="matrix(0.0426, 0.0, 0.0, 0.0426, 218.0, 35.0)" width="336.9" xlink:href="#font_DFPTongTong-B5__5"/>
      <use fill="#ffffff" height="41.9" transform="matrix(0.0426, 0.0, 0.0, 0.0426, 261.6, 35.0)" width="336.9" xlink:href="#font_DFPTongTong-B5__6"/>
      <use fill="#ffffff" height="41.9" transform="matrix(0.0426, 0.0, 0.0, 0.0426, 305.2, 35.0)" width="336.9" xlink:href="#font_DFPTongTong-B5__7"/>
    </g>
  </g>
  <defs>
    <g id="font_DFPTongTong-B5__0">
      <path d="M783.0 -620.0 L783.0 -620.0 Q776.0 -620.0 776.0 -616.0 777.0 -605.0 799.0 -584.0 813.0 -572.0 824.0 -561.0 856.0 -536.0 884.0 -536.0 902.0 -536.0 902.0 -549.0 902.0 -572.0 852.0 -601.0 806.0 -620.0 783.0 -620.0 L783.0 -620.0 M499.0 -681.0 L499.0 -681.0 Q453.0 -668.0 312.0 -612.0 189.0 -564.0 134.0 -536.0 119.0 -532.0 119.0 -524.0 119.0 -520.0 128.0 -520.0 239.0 -536.0 342.0 -580.0 430.0 -608.0 503.0 -664.0 509.0 -668.0 512.0 -677.0 508.0 -681.0 499.0 -681.0 L499.0 -681.0 M647.0 -341.0 L647.0 -341.0 Q536.0 -337.0 417.0 -333.0 385.0 -333.0 355.0 -328.0 350.0 -373.0 343.0 -404.0 327.0 -469.0 317.0 -469.0 315.0 -465.0 315.0 -461.0 321.0 -389.0 325.0 -328.0 244.0 -324.0 188.0 -320.0 142.0 -308.0 138.0 -304.0 140.0 -289.0 239.0 -289.0 278.0 -289.0 327.0 -289.0 334.0 -192.0 336.0 -112.0 329.0 -108.0 322.0 -104.0 219.0 -64.0 174.0 -41.0 161.0 -33.0 161.0 -28.0 161.0 -24.0 169.0 -24.0 256.0 -37.0 337.0 -77.0 339.0 -33.0 339.0 3.0 339.0 32.0 330.0 40.0 323.0 40.0 323.0 47.0 325.0 51.0 331.0 51.0 344.0 56.0 358.0 56.0 383.0 51.0 383.0 20.0 383.0 -12.0 378.0 -72.0 377.0 -81.0 377.0 -92.0 431.0 -117.0 478.0 -152.0 484.0 -156.0 486.0 -165.0 484.0 -169.0 476.0 -169.0 446.0 -161.0 375.0 -129.0 371.0 -184.0 367.0 -232.0 364.0 -264.0 360.0 -293.0 374.0 -293.0 388.0 -293.0 544.0 -297.0 651.0 -304.0 664.0 -196.0 693.0 -108.0 700.0 -88.0 708.0 -68.0 646.0 -20.0 614.0 3.0 610.0 7.0 610.0 16.0 612.0 20.0 618.0 20.0 677.0 -4.0 724.0 -33.0 772.0 60.0 848.0 72.0 888.0 72.0 890.0 43.0 890.0 36.0 884.0 36.0 871.0 43.0 852.0 43.0 799.0 28.0 758.0 -56.0 814.0 -104.0 840.0 -144.0 846.0 -156.0 846.0 -165.0 840.0 -165.0 833.0 -161.0 799.0 -136.0 742.0 -96.0 738.0 -104.0 735.0 -112.0 709.0 -213.0 692.0 -308.0 791.0 -316.0 836.0 -328.0 852.0 -333.0 852.0 -341.0 852.0 -345.0 829.0 -345.0 758.0 -345.0 686.0 -341.0 675.0 -421.0 670.0 -492.0 668.0 -517.0 664.0 -540.0 659.0 -564.0 655.0 -564.0 651.0 -564.0 642.0 -480.0 642.0 -408.0 647.0 -341.0 L647.0 -341.0" fill-rule="evenodd" stroke="none"/>
    </g>
    <g id="font_DFPTongTong-B5__1">
      <path d="M665.0 -316.0 L665.0 -316.0 Q662.0 -316.0 657.0 -308.0 648.0 -301.0 637.0 -284.0 627.0 -268.0 625.0 -260.0 625.0 -245.0 638.0 -236.0 644.0 -236.0 650.0 -245.0 658.0 -253.0 666.0 -260.0 672.0 -272.0 674.0 -284.0 674.0 -297.0 670.0 -308.0 668.0 -316.0 665.0 -316.0 L665.0 -316.0 M519.0 -712.0 L519.0 -712.0 Q546.0 -689.0 645.0 -633.0 771.0 -564.0 841.0 -557.0 847.0 -557.0 847.0 -564.0 843.0 -580.0 677.0 -668.0 591.0 -708.0 541.0 -725.0 554.0 -733.0 566.0 -740.0 574.0 -744.0 574.0 -752.0 572.0 -757.0 560.0 -757.0 423.0 -712.0 323.0 -668.0 172.0 -597.0 96.0 -545.0 88.0 -536.0 88.0 -532.0 90.0 -528.0 98.0 -528.0 171.0 -549.0 343.0 -629.0 450.0 -673.0 519.0 -712.0 L519.0 -712.0 M368.0 -312.0 L368.0 -312.0 Q359.0 -312.0 359.0 -308.0 360.0 -301.0 375.0 -284.0 383.0 -276.0 390.0 -268.0 411.0 -253.0 428.0 -253.0 450.0 -253.0 450.0 -264.0 450.0 -280.0 415.0 -297.0 383.0 -312.0 368.0 -312.0 L368.0 -312.0 M335.0 -200.0 L335.0 -200.0 Q355.0 -196.0 374.0 -192.0 395.0 -192.0 518.0 -192.0 662.0 -192.0 736.0 -205.0 803.0 -217.0 810.0 -228.0 810.0 -232.0 784.0 -232.0 787.0 -240.0 791.0 -245.0 801.0 -276.0 801.0 -312.0 801.0 -356.0 728.0 -368.0 647.0 -381.0 534.0 -389.0 438.0 -392.0 349.0 -392.0 307.0 -392.0 292.0 -389.0 289.0 -417.0 279.0 -417.0 272.0 -417.0 272.0 -360.0 272.0 -312.0 285.0 -272.0 298.0 -228.0 317.0 -200.0 324.0 -188.0 330.0 -188.0 336.0 -192.0 336.0 -196.0 335.0 -200.0 335.0 -200.0 L335.0 -200.0 M511.0 -220.0 L511.0 -220.0 Q370.0 -217.0 332.0 -213.0 325.0 -245.0 313.0 -297.0 304.0 -341.0 296.0 -377.0 301.0 -373.0 309.0 -368.0 347.0 -360.0 420.0 -356.0 460.0 -352.0 495.0 -348.0 497.0 -297.0 499.0 -268.0 501.0 -236.0 511.0 -224.0 511.0 -224.0 511.0 -220.0 L511.0 -220.0 M752.0 -232.0 L752.0 -232.0 Q660.0 -228.0 541.0 -224.0 543.0 -228.0 543.0 -236.0 543.0 -264.0 528.0 -312.0 524.0 -333.0 517.0 -348.0 524.0 -348.0 529.0 -345.0 573.0 -341.0 634.0 -337.0 674.0 -333.0 700.0 -333.0 723.0 -328.0 738.0 -324.0 755.0 -320.0 755.0 -301.0 755.0 -268.0 751.0 -240.0 751.0 -236.0 752.0 -232.0 L752.0 -232.0 M512.0 87.0 L512.0 87.0 Q497.0 87.0 480.0 87.0 468.0 87.0 439.0 91.0 434.0 91.0 429.0 91.0 428.0 80.0 422.0 47.0 420.0 32.0 416.0 16.0 421.0 20.0 428.0 20.0 458.0 28.0 483.0 28.0 502.0 28.0 513.0 24.0 513.0 47.0 512.0 76.0 512.0 84.0 512.0 87.0 L512.0 87.0 M427.0 112.0 L427.0 112.0 Q428.0 112.0 430.0 112.0 453.0 116.0 486.0 116.0 515.0 116.0 541.0 112.0 560.0 104.0 560.0 100.0 560.0 95.0 553.0 95.0 549.0 91.0 539.0 91.0 544.0 84.0 548.0 76.0 559.0 24.0 562.0 -45.0 562.0 -88.0 504.0 -104.0 454.0 -108.0 425.0 -108.0 407.0 -108.0 407.0 -104.0 407.0 -96.0 427.0 -85.0 460.0 -72.0 499.0 -68.0 515.0 -64.0 515.0 -52.0 515.0 -28.0 514.0 -1.0 480.0 -4.0 437.0 -4.0 422.0 -4.0 413.0 -1.0 409.0 -20.0 404.0 -37.0 398.0 -60.0 389.0 -81.0 381.0 -100.0 377.0 -100.0 373.0 -100.0 373.0 -88.0 373.0 -56.0 375.0 -28.0 379.0 7.0 386.0 56.0 393.0 91.0 400.0 112.0 412.0 128.0 417.0 128.0 421.0 128.0 424.0 120.0 426.0 116.0 427.0 112.0 L427.0 112.0 M509.0 -540.0 L509.0 -540.0 Q477.0 -540.0 445.0 -536.0 391.0 -536.0 391.0 -528.0 391.0 -524.0 434.0 -517.0 471.0 -509.0 517.0 -505.0 567.0 -505.0 589.0 -513.0 613.0 -520.0 613.0 -524.0 613.0 -532.0 565.0 -536.0 539.0 -540.0 509.0 -540.0 L509.0 -540.0" fill-rule="evenodd" stroke="none"/>
    </g>
    <g id="font_DFPTongTong-B5__2">
      <path d="M508.0 -100.0 L508.0 -100.0 Q504.0 -100.0 504.0 -96.0 508.0 -72.0 542.0 -41.0 566.0 -16.0 588.0 -16.0 602.0 -16.0 602.0 -33.0 602.0 -41.0 586.0 -52.0 563.0 -68.0 542.0 -81.0 515.0 -100.0 508.0 -100.0 L508.0 -100.0 M519.0 -272.0 L519.0 -272.0 Q515.0 -272.0 515.0 -268.0 532.0 -245.0 553.0 -217.0 574.0 -192.0 586.0 -192.0 601.0 -192.0 602.0 -209.0 602.0 -232.0 579.0 -253.0 548.0 -268.0 519.0 -272.0 L519.0 -272.0 M717.0 -121.0 L717.0 -121.0 Q736.0 -121.0 756.0 -121.0 792.0 -121.0 824.0 -125.0 845.0 -125.0 847.0 -129.0 844.0 -136.0 787.0 -144.0 754.0 -148.0 717.0 -148.0 718.0 -184.0 718.0 -209.0 718.0 -268.0 716.0 -293.0 711.0 -341.0 603.0 -348.0 541.0 -348.0 473.0 -345.0 464.0 -345.0 464.0 -341.0 464.0 -337.0 521.0 -324.0 552.0 -316.0 591.0 -312.0 614.0 -308.0 652.0 -308.0 677.0 -304.0 677.0 -289.0 677.0 -213.0 676.0 -152.0 643.0 -156.0 608.0 -161.0 555.0 -165.0 447.0 -169.0 449.0 -188.0 450.0 -209.0 453.0 -257.0 454.0 -301.0 454.0 -356.0 441.0 -356.0 432.0 -356.0 422.0 -301.0 415.0 -257.0 411.0 -213.0 409.0 -188.0 407.0 -173.0 355.0 -176.0 293.0 -176.0 248.0 -176.0 217.0 -176.0 193.0 -176.0 193.0 -173.0 193.0 -161.0 404.0 -140.0 404.0 -136.0 404.0 -129.0 404.0 -64.0 413.0 -28.0 423.0 3.0 438.0 20.0 457.0 36.0 482.0 43.0 520.0 51.0 610.0 51.0 640.0 51.0 670.0 47.0 666.0 64.0 656.0 68.0 652.0 68.0 652.0 76.0 666.0 87.0 684.0 87.0 708.0 84.0 712.0 36.0 714.0 36.0 716.0 36.0 748.0 24.0 752.0 11.0 752.0 3.0 733.0 3.0 723.0 7.0 714.0 7.0 714.0 7.0 714.0 7.0 716.0 -68.0 717.0 -121.0 L717.0 -121.0 M446.0 -136.0 L446.0 -136.0 Q549.0 -129.0 676.0 -121.0 675.0 -117.0 675.0 -108.0 675.0 -37.0 674.0 7.0 674.0 11.0 673.0 16.0 667.0 16.0 658.0 16.0 626.0 20.0 584.0 20.0 560.0 20.0 522.0 16.0 484.0 11.0 472.0 3.0 456.0 -8.0 451.0 -41.0 446.0 -72.0 446.0 -136.0 446.0 -136.0 446.0 -136.0 L446.0 -136.0 M378.0 -576.0 L378.0 -576.0 Q413.0 -568.0 494.0 -557.0 580.0 -540.0 692.0 -536.0 728.0 -536.0 760.0 -540.0 781.0 -540.0 782.0 -545.0 781.0 -553.0 746.0 -561.0 698.0 -568.0 640.0 -576.0 588.0 -584.0 450.0 -597.0 414.0 -597.0 387.0 -593.0 419.0 -660.0 426.0 -712.0 L426.0 -717.0 Q426.0 -717.0 425.0 -712.0 377.0 -660.0 327.0 -568.0 267.0 -465.0 245.0 -400.0 245.0 -396.0 246.0 -396.0 247.0 -396.0 247.0 -396.0 292.0 -429.0 348.0 -524.0 365.0 -549.0 378.0 -576.0 L378.0 -576.0" fill-rule="evenodd" stroke="none"/>
    </g>
    <g id="font_DFPTongTong-B5__3">
      <path d="M334.0 -28.0 L334.0 -28.0 Q324.0 -117.0 307.0 -257.0 310.0 -257.0 314.0 -257.0 358.0 -245.0 402.0 -245.0 488.0 -245.0 528.0 -253.0 572.0 -260.0 572.0 -272.0 572.0 -280.0 520.0 -284.0 434.0 -284.0 366.0 -284.0 335.0 -284.0 304.0 -280.0 304.0 -280.0 304.0 -280.0 288.0 -444.0 271.0 -561.0 266.0 -589.0 256.0 -589.0 249.0 -589.0 249.0 -528.0 249.0 -373.0 267.0 -228.0 289.0 -85.0 319.0 7.0 326.0 16.0 333.0 16.0 339.0 16.0 339.0 7.0 338.0 -1.0 336.0 -12.0 356.0 -8.0 375.0 -4.0 395.0 -1.0 512.0 -1.0 649.0 -1.0 720.0 -16.0 784.0 -33.0 791.0 -48.0 791.0 -52.0 744.0 -52.0 711.0 -52.0 674.0 -48.0 687.0 -72.0 691.0 -121.0 706.0 -192.0 722.0 -364.0 732.0 -469.0 732.0 -517.0 732.0 -576.0 686.0 -593.0 664.0 -601.0 592.0 -608.0 534.0 -612.0 429.0 -620.0 336.0 -620.0 336.0 -608.0 336.0 -601.0 397.0 -580.0 460.0 -568.0 521.0 -564.0 621.0 -557.0 651.0 -557.0 678.0 -553.0 678.0 -517.0 678.0 -436.0 670.0 -297.0 666.0 -220.0 659.0 -148.0 655.0 -92.0 653.0 -60.0 653.0 -52.0 654.0 -48.0 593.0 -45.0 521.0 -41.0 375.0 -37.0 334.0 -28.0 L334.0 -28.0" fill-rule="evenodd" stroke="none"/>
    </g>
    <g id="font_DFPTongTong-B5__4">
      <path d="M280.0 -52.0 L280.0 -52.0 Q270.0 -52.0 247.0 -48.0 213.0 -37.0 175.0 -8.0 146.0 16.0 146.0 20.0 146.0 24.0 166.0 24.0 208.0 20.0 251.0 -8.0 278.0 -28.0 285.0 -48.0 285.0 -52.0 280.0 -52.0 L280.0 -52.0 M82.0 -345.0 L82.0 -345.0 Q74.0 -345.0 74.0 -341.0 75.0 -333.0 97.0 -312.0 111.0 -304.0 123.0 -297.0 155.0 -276.0 182.0 -276.0 206.0 -276.0 206.0 -289.0 206.0 -308.0 154.0 -328.0 105.0 -345.0 82.0 -345.0 L82.0 -345.0 M169.0 -620.0 L169.0 -620.0 Q162.0 -620.0 162.0 -616.0 164.0 -605.0 188.0 -584.0 204.0 -568.0 217.0 -557.0 253.0 -532.0 285.0 -532.0 304.0 -532.0 304.0 -540.0 304.0 -568.0 248.0 -597.0 195.0 -620.0 169.0 -620.0 L169.0 -620.0 M743.0 -96.0 L743.0 -96.0 Q740.0 -100.0 737.0 -100.0 722.0 -100.0 706.0 -100.0 687.0 -100.0 668.0 -100.0 660.0 -100.0 655.0 -96.0 664.0 -140.0 668.0 -173.0 679.0 -169.0 701.0 -161.0 734.0 -156.0 736.0 -136.0 739.0 -121.0 743.0 -96.0 L743.0 -96.0 M755.0 -12.0 L755.0 -12.0 Q748.0 -12.0 735.0 -16.0 717.0 -16.0 696.0 -16.0 674.0 -16.0 652.0 -16.0 643.0 -16.0 636.0 -12.0 639.0 -24.0 641.0 -37.0 647.0 -60.0 651.0 -81.0 656.0 -81.0 662.0 -81.0 683.0 -72.0 710.0 -68.0 733.0 -68.0 746.0 -77.0 748.0 -64.0 749.0 -56.0 753.0 -33.0 755.0 -12.0 L755.0 -12.0 M633.0 3.0 L633.0 3.0 Q638.0 3.0 644.0 3.0 670.0 11.0 701.0 16.0 737.0 16.0 753.0 7.0 755.0 7.0 757.0 3.0 759.0 16.0 760.0 24.0 767.0 84.0 767.0 100.0 767.0 120.0 761.0 128.0 761.0 135.0 778.0 135.0 801.0 135.0 801.0 112.0 801.0 95.0 798.0 72.0 795.0 43.0 790.0 -8.0 785.0 -48.0 780.0 -88.0 776.0 -125.0 773.0 -144.0 764.0 -192.0 725.0 -192.0 686.0 -192.0 670.0 -188.0 670.0 -188.0 670.0 -188.0 670.0 -205.0 665.0 -205.0 659.0 -205.0 652.0 -184.0 624.0 -112.0 606.0 -48.0 587.0 28.0 580.0 87.0 580.0 104.0 582.0 108.0 590.0 108.0 597.0 95.0 617.0 64.0 633.0 3.0 L633.0 3.0 M676.0 -620.0 L676.0 -620.0 Q773.0 -620.0 825.0 -624.0 898.0 -633.0 898.0 -645.0 898.0 -648.0 812.0 -652.0 738.0 -652.0 672.0 -656.0 669.0 -692.0 665.0 -708.0 658.0 -736.0 652.0 -736.0 645.0 -736.0 641.0 -685.0 640.0 -668.0 640.0 -656.0 595.0 -656.0 554.0 -656.0 501.0 -652.0 447.0 -648.0 410.0 -648.0 410.0 -645.0 410.0 -637.0 471.0 -629.0 544.0 -620.0 615.0 -616.0 628.0 -620.0 639.0 -620.0 639.0 -580.0 639.0 -532.0 639.0 -517.0 640.0 -496.0 617.0 -496.0 595.0 -496.0 528.0 -492.0 528.0 -488.0 528.0 -480.0 582.0 -473.0 610.0 -469.0 642.0 -465.0 647.0 -400.0 657.0 -373.0 625.0 -373.0 593.0 -373.0 545.0 -373.0 497.0 -368.0 463.0 -364.0 463.0 -360.0 463.0 -352.0 518.0 -345.0 584.0 -337.0 649.0 -337.0 777.0 -337.0 839.0 -345.0 904.0 -348.0 904.0 -360.0 904.0 -368.0 826.0 -373.0 751.0 -373.0 684.0 -373.0 687.0 -381.0 689.0 -392.0 687.0 -433.0 685.0 -465.0 746.0 -465.0 773.0 -473.0 803.0 -476.0 803.0 -484.0 803.0 -492.0 743.0 -496.0 715.0 -496.0 683.0 -496.0 679.0 -568.0 676.0 -620.0 L676.0 -620.0" fill-rule="evenodd" stroke="none"/>
    </g>
    <g id="font_DFPTongTong-B5__5">
      <path d="M480.0 -368.0 L480.0 -368.0 Q427.0 -360.0 379.0 -352.0 345.0 -348.0 345.0 -345.0 345.0 -328.0 434.0 -328.0 460.0 -333.0 483.0 -337.0 485.0 -297.0 490.0 -276.0 496.0 -260.0 501.0 -260.0 507.0 -260.0 512.0 -276.0 517.0 -293.0 519.0 -316.0 519.0 -328.0 519.0 -341.0 546.0 -345.0 567.0 -352.0 610.0 -368.0 613.0 -385.0 613.0 -389.0 604.0 -389.0 600.0 -389.0 570.0 -381.0 546.0 -377.0 519.0 -373.0 518.0 -412.0 517.0 -461.0 528.0 -461.0 539.0 -465.0 561.0 -469.0 561.0 -473.0 561.0 -476.0 554.0 -480.0 545.0 -484.0 518.0 -484.0 517.0 -484.0 517.0 -484.0 516.0 -528.0 514.0 -580.0 516.0 -580.0 518.0 -580.0 563.0 -580.0 586.0 -584.0 609.0 -584.0 609.0 -593.0 609.0 -601.0 560.0 -608.0 537.0 -616.0 510.0 -616.0 505.0 -664.0 498.0 -700.0 490.0 -740.0 483.0 -740.0 479.0 -740.0 477.0 -729.0 474.0 -673.0 474.0 -641.0 474.0 -633.0 474.0 -620.0 446.0 -624.0 416.0 -624.0 394.0 -624.0 350.0 -620.0 329.0 -616.0 329.0 -612.0 329.0 -605.0 388.0 -593.0 423.0 -584.0 474.0 -580.0 475.0 -553.0 476.0 -520.0 476.0 -505.0 476.0 -488.0 472.0 -488.0 467.0 -488.0 453.0 -488.0 419.0 -484.0 383.0 -476.0 383.0 -473.0 383.0 -469.0 407.0 -461.0 433.0 -456.0 475.0 -456.0 476.0 -456.0 477.0 -456.0 479.0 -412.0 480.0 -368.0 L480.0 -368.0 M810.0 -580.0 L810.0 -580.0 Q807.0 -576.0 803.0 -568.0 759.0 -501.0 729.0 -448.0 697.0 -392.0 680.0 -360.0 680.0 -352.0 685.0 -352.0 693.0 -352.0 705.0 -364.0 732.0 -392.0 763.0 -440.0 800.0 -496.0 814.0 -532.0 822.0 -557.0 827.0 -576.0 829.0 -576.0 834.0 -576.0 883.0 -557.0 888.0 -545.0 896.0 -540.0 898.0 -524.0 902.0 -501.0 902.0 -476.0 902.0 -444.0 880.0 -436.0 876.0 -433.0 876.0 -429.0 886.0 -417.0 905.0 -417.0 928.0 -417.0 936.0 -429.0 946.0 -436.0 946.0 -456.0 946.0 -480.0 944.0 -505.0 944.0 -524.0 940.0 -545.0 935.0 -572.0 912.0 -589.0 889.0 -601.0 835.0 -608.0 782.0 -620.0 713.0 -637.0 698.0 -637.0 694.0 -633.0 696.0 -624.0 740.0 -608.0 775.0 -593.0 810.0 -580.0 L810.0 -580.0 M272.0 -52.0 L272.0 -52.0 Q263.0 -52.0 240.0 -45.0 206.0 -33.0 168.0 -4.0 139.0 16.0 139.0 20.0 139.0 28.0 159.0 28.0 202.0 20.0 244.0 -4.0 270.0 -24.0 278.0 -45.0 278.0 -52.0 272.0 -52.0 L272.0 -52.0 M75.0 -345.0 L75.0 -345.0 Q67.0 -345.0 67.0 -337.0 69.0 -328.0 90.0 -312.0 104.0 -301.0 116.0 -293.0 148.0 -272.0 176.0 -272.0 199.0 -272.0 199.0 -289.0 199.0 -304.0 146.0 -324.0 98.0 -345.0 75.0 -345.0 L75.0 -345.0 M162.0 -620.0 L162.0 -620.0 Q155.0 -620.0 155.0 -616.0 157.0 -605.0 181.0 -580.0 197.0 -564.0 211.0 -557.0 247.0 -528.0 278.0 -528.0 297.0 -528.0 297.0 -540.0 297.0 -564.0 241.0 -597.0 187.0 -620.0 162.0 -620.0 L162.0 -620.0 M631.0 36.0 L631.0 36.0 Q614.0 43.0 595.0 64.0 573.0 91.0 569.0 108.0 569.0 120.0 575.0 120.0 593.0 116.0 616.0 91.0 637.0 60.0 637.0 43.0 637.0 36.0 631.0 36.0 L631.0 36.0 M835.0 40.0 L835.0 40.0 Q826.0 40.0 826.0 47.0 828.0 51.0 842.0 64.0 851.0 72.0 858.0 80.0 879.0 91.0 896.0 91.0 918.0 91.0 918.0 80.0 918.0 68.0 883.0 51.0 851.0 40.0 835.0 40.0 L835.0 40.0 M677.0 -132.0 L677.0 -132.0 Q670.0 -132.0 659.0 -132.0 638.0 -136.0 631.0 -136.0 624.0 -140.0 622.0 -144.0 622.0 -152.0 633.0 -165.0 641.0 -176.0 652.0 -192.0 668.0 -213.0 678.0 -236.0 692.0 -268.0 697.0 -301.0 697.0 -308.0 690.0 -308.0 686.0 -308.0 679.0 -297.0 673.0 -284.0 651.0 -257.0 629.0 -232.0 609.0 -209.0 582.0 -173.0 582.0 -152.0 582.0 -129.0 593.0 -117.0 605.0 -100.0 628.0 -100.0 643.0 -100.0 657.0 -100.0 656.0 -100.0 655.0 -96.0 646.0 -77.0 646.0 -64.0 646.0 -37.0 660.0 -24.0 679.0 -8.0 707.0 -8.0 713.0 -8.0 718.0 -12.0 716.0 -1.0 716.0 7.0 716.0 28.0 718.0 51.0 720.0 80.0 724.0 112.0 728.0 131.0 733.0 139.0 739.0 156.0 745.0 156.0 752.0 156.0 758.0 139.0 764.0 120.0 766.0 95.0 766.0 72.0 760.0 28.0 754.0 3.0 742.0 -16.0 782.0 -24.0 803.0 -48.0 825.0 -24.0 841.0 -24.0 856.0 -24.0 858.0 -37.0 858.0 -52.0 837.0 -72.0 815.0 -88.0 791.0 -104.0 769.0 -121.0 759.0 -121.0 753.0 -121.0 753.0 -112.0 753.0 -108.0 773.0 -81.0 779.0 -72.0 785.0 -68.0 738.0 -52.0 717.0 -52.0 690.0 -52.0 689.0 -64.0 689.0 -72.0 693.0 -81.0 701.0 -96.0 711.0 -112.0 728.0 -140.0 750.0 -173.0 763.0 -192.0 763.0 -200.0 763.0 -205.0 757.0 -205.0 743.0 -200.0 725.0 -188.0 701.0 -169.0 687.0 -148.0 682.0 -140.0 677.0 -132.0 L677.0 -132.0" fill-rule="evenodd" stroke="none"/>
    </g>
    <g id="font_DFPTongTong-B5__6">
      <path d="M501.0 -20.0 L501.0 -20.0 Q492.0 -45.0 484.0 -45.0 478.0 -45.0 478.0 3.0 478.0 40.0 486.0 76.0 499.0 112.0 515.0 112.0 519.0 108.0 521.0 100.0 522.0 91.0 523.0 87.0 526.0 87.0 529.0 87.0 552.0 95.0 579.0 95.0 608.0 95.0 621.0 91.0 635.0 84.0 635.0 80.0 635.0 76.0 625.0 72.0 627.0 68.0 629.0 68.0 637.0 56.0 637.0 43.0 637.0 28.0 633.0 11.0 621.0 -28.0 567.0 -28.0 546.0 -28.0 517.0 -24.0 507.0 -24.0 501.0 -20.0 L501.0 -20.0 M523.0 68.0 L523.0 68.0 Q523.0 47.0 507.0 -4.0 513.0 -1.0 519.0 -1.0 L563.0 -1.0 Q589.0 3.0 591.0 24.0 595.0 40.0 597.0 60.0 597.0 64.0 598.0 64.0 586.0 64.0 573.0 64.0 555.0 64.0 537.0 68.0 528.0 68.0 523.0 68.0 L523.0 68.0 M599.0 -293.0 L599.0 -293.0 Q910.0 -297.0 912.0 -308.0 912.0 -320.0 877.0 -324.0 840.0 -328.0 767.0 -333.0 687.0 -333.0 606.0 -337.0 606.0 -337.0 607.0 -341.0 624.0 -433.0 624.0 -488.0 624.0 -540.0 613.0 -540.0 605.0 -540.0 600.0 -505.0 587.0 -421.0 568.0 -337.0 417.0 -337.0 266.0 -341.0 143.0 -341.0 143.0 -328.0 143.0 -312.0 304.0 -304.0 394.0 -293.0 528.0 -293.0 544.0 -293.0 559.0 -293.0 529.0 -161.0 527.0 -144.0 527.0 -129.0 531.0 -125.0 546.0 -125.0 560.0 -165.0 585.0 -224.0 599.0 -293.0 L599.0 -293.0 M696.0 -744.0 L696.0 -744.0 Q570.0 -704.0 417.0 -624.0 291.0 -557.0 238.0 -501.0 238.0 -496.0 242.0 -496.0 247.0 -496.0 254.0 -501.0 317.0 -524.0 465.0 -605.0 590.0 -664.0 703.0 -729.0 706.0 -733.0 706.0 -740.0 703.0 -744.0 696.0 -744.0 L696.0 -744.0" fill-rule="evenodd" stroke="none"/>
    </g>
    <g id="font_DFPTongTong-B5__7">
      <path d="M617.0 -324.0 L617.0 -324.0 Q643.0 -308.0 672.0 -297.0 743.0 -260.0 771.0 -260.0 777.0 -260.0 781.0 -260.0 779.0 -272.0 769.0 -280.0 751.0 -301.0 696.0 -328.0 591.0 -381.0 544.0 -389.0 539.0 -389.0 539.0 -385.0 540.0 -377.0 556.0 -360.0 577.0 -345.0 602.0 -333.0 559.0 -320.0 482.0 -304.0 411.0 -297.0 354.0 -297.0 330.0 -297.0 326.0 -308.0 326.0 -328.0 345.0 -356.0 377.0 -400.0 451.0 -476.0 485.0 -509.0 485.0 -524.0 485.0 -532.0 482.0 -532.0 475.0 -532.0 423.0 -492.0 381.0 -461.0 348.0 -425.0 287.0 -352.0 287.0 -320.0 287.0 -257.0 347.0 -253.0 442.0 -253.0 522.0 -276.0 589.0 -293.0 617.0 -324.0 L617.0 -324.0 M740.0 100.0 L740.0 100.0 Q744.0 91.0 744.0 80.0 744.0 51.0 741.0 16.0 725.0 -12.0 655.0 -16.0 635.0 -16.0 609.0 -12.0 599.0 -12.0 592.0 -8.0 592.0 -12.0 591.0 -16.0 583.0 -41.0 578.0 -41.0 574.0 -41.0 572.0 -28.0 570.0 11.0 570.0 40.0 571.0 84.0 583.0 112.0 594.0 131.0 609.0 131.0 616.0 131.0 616.0 116.0 618.0 116.0 621.0 116.0 648.0 124.0 683.0 128.0 721.0 128.0 737.0 120.0 755.0 112.0 755.0 108.0 755.0 104.0 740.0 100.0 L740.0 100.0 M597.0 7.0 L597.0 7.0 Q603.0 7.0 611.0 11.0 L652.0 11.0 Q698.0 16.0 702.0 28.0 706.0 56.0 708.0 91.0 692.0 91.0 677.0 91.0 653.0 91.0 629.0 95.0 622.0 95.0 615.0 95.0 613.0 76.0 607.0 56.0 602.0 32.0 597.0 7.0 L597.0 7.0 M304.0 -624.0 L304.0 -624.0 Q383.0 -616.0 492.0 -616.0 647.0 -616.0 738.0 -620.0 736.0 -608.0 734.0 -601.0 734.0 -557.0 744.0 -553.0 753.0 -553.0 763.0 -568.0 775.0 -580.0 778.0 -593.0 782.0 -608.0 786.0 -620.0 862.0 -624.0 863.0 -633.0 863.0 -645.0 825.0 -648.0 811.0 -652.0 792.0 -652.0 792.0 -656.0 793.0 -660.0 793.0 -689.0 782.0 -712.0 775.0 -733.0 769.0 -733.0 763.0 -733.0 751.0 -677.0 749.0 -664.0 745.0 -656.0 730.0 -656.0 712.0 -656.0 502.0 -660.0 294.0 -664.0 282.0 -696.0 258.0 -729.0 255.0 -733.0 251.0 -733.0 247.0 -733.0 247.0 -721.0 249.0 -689.0 254.0 -664.0 250.0 -664.0 246.0 -664.0 118.0 -664.0 118.0 -648.0 118.0 -637.0 261.0 -629.0 268.0 -605.0 276.0 -589.0 285.0 -572.0 293.0 -572.0 297.0 -576.0 301.0 -580.0 304.0 -589.0 306.0 -597.0 306.0 -608.0 304.0 -624.0 L304.0 -624.0" fill-rule="evenodd" stroke="none"/>
    </g>
  </defs>
</svg>
