<?xml version="1.0" encoding="UTF-8" standalone="no"?>
<svg xmlns:xlink="http://www.w3.org/1999/xlink" height="93.45px" width="344.25px" xmlns="http://www.w3.org/2000/svg">
  <g transform="matrix(1.0, 0.0, 0.0, 1.0, -3.4, -0.65)">
    <g transform="matrix(1.0, 0.0, 0.0, 1.0, 0.0, 0.0)">
      <use fill="#ffffff" height="93.45" transform="matrix(0.0428, 0.0, 0.0, 0.0428, 0.0, 35.0)" width="344.25" xlink:href="#font_DFPTongTong-B5__0"/>
      <use fill="#ffffff" height="93.45" transform="matrix(0.0428, 0.0, 0.0, 0.0428, 43.8, 35.0)" width="344.25" xlink:href="#font_DFPTongTong-B5__1"/>
    </g>
    <g transform="matrix(1.0, 0.0, 0.0, 1.0, 0.0, 0.0)">
      <use fill="#ff6648" height="93.45" transform="matrix(0.0428, 0.0, 0.0, 0.0428, 87.6, 35.0)" width="344.25" xlink:href="#font_DFPTongTong-B5__2"/>
      <use fill="#ff6648" height="93.45" transform="matrix(0.0428, 0.0, 0.0, 0.0428, 131.4, 35.0)" width="344.25" xlink:href="#font_DFPTongTong-B5__3"/>
    </g>
    <g transform="matrix(1.0, 0.0, 0.0, 1.0, 0.0, 0.0)">
      <use fill="#ffffff" height="93.45" transform="matrix(0.0428, 0.0, 0.0, 0.0428, 175.2, 35.0)" width="344.25" xlink:href="#font_DFPTongTong-B5__4"/>
      <use fill="#ffffff" height="93.45" transform="matrix(0.0428, 0.0, 0.0, 0.0428, 219.0, 35.0)" width="344.25" xlink:href="#font_DFPTongTong-B5__5"/>
      <use fill="#ffffff" height="93.45" transform="matrix(0.0428, 0.0, 0.0, 0.0428, 262.8, 35.0)" width="344.25" xlink:href="#font_DFPTongTong-B5__6"/>
      <use fill="#ffffff" height="93.45" transform="matrix(0.0428, 0.0, 0.0, 0.0428, 306.6, 35.0)" width="344.25" xlink:href="#font_DFPTongTong-B5__7"/>
    </g>
    <g transform="matrix(1.0, 0.0, 0.0, 1.0, 0.0, 0.0)">
      <use fill="#ffffff" height="93.45" transform="matrix(0.0428, 0.0, 0.0, 0.0428, 0.0, 88.0)" width="344.25" xlink:href="#font_DFPTongTong-B5__8"/>
      <use fill="#ffffff" height="93.45" transform="matrix(0.0428, 0.0, 0.0, 0.0428, 43.8, 88.0)" width="344.25" xlink:href="#font_DFPTongTong-B5__9"/>
      <use fill="#ffffff" height="93.45" transform="matrix(0.0428, 0.0, 0.0, 0.0428, 87.6, 88.0)" width="344.25" xlink:href="#font_DFPTongTong-B5__10"/>
      <use fill="#ffffff" height="93.45" transform="matrix(0.0428, 0.0, 0.0, 0.0428, 131.4, 88.0)" width="344.25" xlink:href="#font_DFPTongTong-B5__6"/>
    </g>
    <g transform="matrix(1.0, 0.0, 0.0, 1.0, 0.0, 0.0)">
      <use fill="#ffffff" height="93.45" transform="matrix(0.0428, 0.0, 0.0, 0.0428, 175.2, 88.0)" width="344.25" xlink:href="#font_DFPTongTong-B5_.0"/>
    </g>
    <g transform="matrix(1.0, 0.0, 0.0, 1.0, 0.0, 0.0)">
      <use fill="#ffffff" height="93.45" transform="matrix(0.0428, 0.0, 0.0, 0.0428, 183.5, 88.0)" width="344.25" xlink:href="#font_DFPTongTong-B5__11"/>
      <use fill="#ffffff" height="93.45" transform="matrix(0.0428, 0.0, 0.0, 0.0428, 227.3, 88.0)" width="344.25" xlink:href="#font_DFPTongTong-B5__12"/>
      <use fill="#ffffff" height="93.45" transform="matrix(0.0428, 0.0, 0.0, 0.0428, 271.1, 88.0)" width="344.25" xlink:href="#font_DFPTongTong-B5__13"/>
      <use fill="#ffffff" height="93.45" transform="matrix(0.0428, 0.0, 0.0, 0.0428, 314.9, 88.0)" width="344.25" xlink:href="#font_DFPTongTong-B5__14"/>
    </g>
  </g>
  <defs>
    <g id="font_DFPTongTong-B5__0">
      <path d="M783.0 -620.0 L783.0 -620.0 Q776.0 -620.0 776.0 -616.0 777.0 -605.0 799.0 -584.0 813.0 -572.0 824.0 -561.0 856.0 -536.0 884.0 -536.0 902.0 -536.0 902.0 -549.0 902.0 -572.0 852.0 -601.0 806.0 -620.0 783.0 -620.0 L783.0 -620.0 M499.0 -681.0 L499.0 -681.0 Q453.0 -668.0 312.0 -612.0 189.0 -564.0 134.0 -536.0 119.0 -532.0 119.0 -524.0 119.0 -520.0 128.0 -520.0 239.0 -536.0 342.0 -580.0 430.0 -608.0 503.0 -664.0 509.0 -668.0 512.0 -677.0 508.0 -681.0 499.0 -681.0 L499.0 -681.0 M647.0 -341.0 L647.0 -341.0 Q536.0 -337.0 417.0 -333.0 385.0 -333.0 355.0 -328.0 350.0 -373.0 343.0 -404.0 327.0 -469.0 317.0 -469.0 315.0 -465.0 315.0 -461.0 321.0 -389.0 325.0 -328.0 244.0 -324.0 188.0 -320.0 142.0 -308.0 138.0 -304.0 140.0 -289.0 239.0 -289.0 278.0 -289.0 327.0 -289.0 334.0 -192.0 336.0 -112.0 329.0 -108.0 322.0 -104.0 219.0 -64.0 174.0 -41.0 161.0 -33.0 161.0 -28.0 161.0 -24.0 169.0 -24.0 256.0 -37.0 337.0 -77.0 339.0 -33.0 339.0 3.0 339.0 32.0 330.0 40.0 323.0 40.0 323.0 47.0 325.0 51.0 331.0 51.0 344.0 56.0 358.0 56.0 383.0 51.0 383.0 20.0 383.0 -12.0 378.0 -72.0 377.0 -81.0 377.0 -92.0 431.0 -117.0 478.0 -152.0 484.0 -156.0 486.0 -165.0 484.0 -169.0 476.0 -169.0 446.0 -161.0 375.0 -129.0 371.0 -184.0 367.0 -232.0 364.0 -264.0 360.0 -293.0 374.0 -293.0 388.0 -293.0 544.0 -297.0 651.0 -304.0 664.0 -196.0 693.0 -108.0 700.0 -88.0 708.0 -68.0 646.0 -20.0 614.0 3.0 610.0 7.0 610.0 16.0 612.0 20.0 618.0 20.0 677.0 -4.0 724.0 -33.0 772.0 60.0 848.0 72.0 888.0 72.0 890.0 43.0 890.0 36.0 884.0 36.0 871.0 43.0 852.0 43.0 799.0 28.0 758.0 -56.0 814.0 -104.0 840.0 -144.0 846.0 -156.0 846.0 -165.0 840.0 -165.0 833.0 -161.0 799.0 -136.0 742.0 -96.0 738.0 -104.0 735.0 -112.0 709.0 -213.0 692.0 -308.0 791.0 -316.0 836.0 -328.0 852.0 -333.0 852.0 -341.0 852.0 -345.0 829.0 -345.0 758.0 -345.0 686.0 -341.0 675.0 -421.0 670.0 -492.0 668.0 -517.0 664.0 -540.0 659.0 -564.0 655.0 -564.0 651.0 -564.0 642.0 -480.0 642.0 -408.0 647.0 -341.0 L647.0 -341.0" fill-rule="evenodd" stroke="none"/>
    </g>
    <g id="font_DFPTongTong-B5__1">
      <path d="M508.0 -100.0 L508.0 -100.0 Q504.0 -100.0 504.0 -96.0 508.0 -72.0 542.0 -41.0 566.0 -16.0 588.0 -16.0 602.0 -16.0 602.0 -33.0 602.0 -41.0 586.0 -52.0 563.0 -68.0 542.0 -81.0 515.0 -100.0 508.0 -100.0 L508.0 -100.0 M519.0 -272.0 L519.0 -272.0 Q515.0 -272.0 515.0 -268.0 532.0 -245.0 553.0 -217.0 574.0 -192.0 586.0 -192.0 601.0 -192.0 602.0 -209.0 602.0 -232.0 579.0 -253.0 548.0 -268.0 519.0 -272.0 L519.0 -272.0 M717.0 -121.0 L717.0 -121.0 Q736.0 -121.0 756.0 -121.0 792.0 -121.0 824.0 -125.0 845.0 -125.0 847.0 -129.0 844.0 -136.0 787.0 -144.0 754.0 -148.0 717.0 -148.0 718.0 -184.0 718.0 -209.0 718.0 -268.0 716.0 -293.0 711.0 -341.0 603.0 -348.0 541.0 -348.0 473.0 -345.0 464.0 -345.0 464.0 -341.0 464.0 -337.0 521.0 -324.0 552.0 -316.0 591.0 -312.0 614.0 -308.0 652.0 -308.0 677.0 -304.0 677.0 -289.0 677.0 -213.0 676.0 -152.0 643.0 -156.0 608.0 -161.0 555.0 -165.0 447.0 -169.0 449.0 -188.0 450.0 -209.0 453.0 -257.0 454.0 -301.0 454.0 -356.0 441.0 -356.0 432.0 -356.0 422.0 -301.0 415.0 -257.0 411.0 -213.0 409.0 -188.0 407.0 -173.0 355.0 -176.0 293.0 -176.0 248.0 -176.0 217.0 -176.0 193.0 -176.0 193.0 -173.0 193.0 -161.0 404.0 -140.0 404.0 -136.0 404.0 -129.0 404.0 -64.0 413.0 -28.0 423.0 3.0 438.0 20.0 457.0 36.0 482.0 43.0 520.0 51.0 610.0 51.0 640.0 51.0 670.0 47.0 666.0 64.0 656.0 68.0 652.0 68.0 652.0 76.0 666.0 87.0 684.0 87.0 708.0 84.0 712.0 36.0 714.0 36.0 716.0 36.0 748.0 24.0 752.0 11.0 752.0 3.0 733.0 3.0 723.0 7.0 714.0 7.0 714.0 7.0 714.0 7.0 716.0 -68.0 717.0 -121.0 L717.0 -121.0 M446.0 -136.0 L446.0 -136.0 Q549.0 -129.0 676.0 -121.0 675.0 -117.0 675.0 -108.0 675.0 -37.0 674.0 7.0 674.0 11.0 673.0 16.0 667.0 16.0 658.0 16.0 626.0 20.0 584.0 20.0 560.0 20.0 522.0 16.0 484.0 11.0 472.0 3.0 456.0 -8.0 451.0 -41.0 446.0 -72.0 446.0 -136.0 446.0 -136.0 446.0 -136.0 L446.0 -136.0 M378.0 -576.0 L378.0 -576.0 Q413.0 -568.0 494.0 -557.0 580.0 -540.0 692.0 -536.0 728.0 -536.0 760.0 -540.0 781.0 -540.0 782.0 -545.0 781.0 -553.0 746.0 -561.0 698.0 -568.0 640.0 -576.0 588.0 -584.0 450.0 -597.0 414.0 -597.0 387.0 -593.0 419.0 -660.0 426.0 -712.0 L426.0 -717.0 Q426.0 -717.0 425.0 -712.0 377.0 -660.0 327.0 -568.0 267.0 -465.0 245.0 -400.0 245.0 -396.0 246.0 -396.0 247.0 -396.0 247.0 -396.0 292.0 -429.0 348.0 -524.0 365.0 -549.0 378.0 -576.0 L378.0 -576.0" fill-rule="evenodd" stroke="none"/>
    </g>
    <g id="font_DFPTongTong-B5__2">
      <path d="M782.0 -624.0 L782.0 -624.0 Q758.0 -593.0 735.0 -557.0 712.0 -513.0 708.0 -488.0 708.0 -461.0 714.0 -456.0 724.0 -456.0 732.0 -469.0 759.0 -488.0 770.0 -524.0 788.0 -564.0 795.0 -612.0 795.0 -629.0 791.0 -633.0 786.0 -633.0 782.0 -624.0 L782.0 -624.0 M204.0 -620.0 L204.0 -620.0 Q198.0 -620.0 198.0 -616.0 198.0 -612.0 214.0 -584.0 232.0 -557.0 249.0 -536.0 285.0 -492.0 304.0 -492.0 316.0 -492.0 316.0 -509.0 316.0 -528.0 301.0 -549.0 286.0 -568.0 256.0 -593.0 228.0 -612.0 204.0 -620.0 L204.0 -620.0 M545.0 -129.0 L545.0 -129.0 Q518.0 -125.0 492.0 -125.0 309.0 -117.0 302.0 -108.0 302.0 -100.0 313.0 -100.0 335.0 -92.0 354.0 -92.0 374.0 -88.0 482.0 -88.0 516.0 -88.0 546.0 -88.0 550.0 3.0 555.0 43.0 564.0 108.0 577.0 108.0 586.0 108.0 588.0 64.0 588.0 32.0 592.0 -68.0 592.0 -81.0 592.0 -92.0 644.0 -96.0 678.0 -100.0 738.0 -117.0 744.0 -132.0 744.0 -136.0 700.0 -136.0 651.0 -132.0 592.0 -129.0 592.0 -205.0 592.0 -268.0 672.0 -268.0 719.0 -272.0 797.0 -280.0 797.0 -293.0 797.0 -301.0 703.0 -304.0 645.0 -304.0 591.0 -304.0 588.0 -545.0 579.0 -668.0 569.0 -712.0 560.0 -712.0 553.0 -712.0 551.0 -668.0 546.0 -484.0 545.0 -304.0 481.0 -304.0 424.0 -304.0 367.0 -304.0 308.0 -301.0 267.0 -297.0 267.0 -293.0 267.0 -284.0 334.0 -276.0 413.0 -268.0 492.0 -268.0 519.0 -268.0 544.0 -268.0 544.0 -205.0 544.0 -140.0 544.0 -132.0 545.0 -129.0 L545.0 -129.0" fill-rule="evenodd" stroke="none"/>
    </g>
    <g id="font_DFPTongTong-B5__3">
      <path d="M536.0 -88.0 L536.0 -88.0 Q536.0 -117.0 526.0 -148.0 519.0 -184.0 511.0 -220.0 509.0 -228.0 507.0 -236.0 518.0 -232.0 530.0 -232.0 598.0 -220.0 713.0 -220.0 718.0 -220.0 722.0 -220.0 722.0 -156.0 722.0 -85.0 628.0 -88.0 536.0 -88.0 L536.0 -88.0 M494.0 -236.0 L494.0 -236.0 Q494.0 -236.0 494.0 -236.0 492.0 -196.0 492.0 -165.0 494.0 -125.0 504.0 -96.0 505.0 -92.0 506.0 -92.0 478.0 -92.0 450.0 -92.0 322.0 -92.0 322.0 -77.0 322.0 -64.0 438.0 -52.0 504.0 -45.0 601.0 -45.0 671.0 -45.0 723.0 -45.0 729.0 120.0 748.0 148.0 752.0 152.0 756.0 152.0 766.0 152.0 772.0 112.0 769.0 24.0 766.0 -48.0 879.0 -48.0 880.0 -60.0 880.0 -72.0 842.0 -77.0 813.0 -81.0 764.0 -85.0 761.0 -165.0 757.0 -220.0 788.0 -220.0 808.0 -224.0 842.0 -224.0 842.0 -232.0 842.0 -240.0 772.0 -249.0 763.0 -253.0 755.0 -253.0 752.0 -297.0 748.0 -316.0 741.0 -345.0 735.0 -345.0 728.0 -345.0 724.0 -293.0 723.0 -276.0 723.0 -257.0 654.0 -260.0 570.0 -264.0 539.0 -264.0 477.0 -260.0 446.0 -257.0 446.0 -253.0 446.0 -245.0 494.0 -236.0 L494.0 -236.0 M352.0 -616.0 L352.0 -616.0 Q367.0 -648.0 376.0 -681.0 386.0 -708.0 390.0 -733.0 390.0 -736.0 386.0 -736.0 380.0 -736.0 366.0 -712.0 303.0 -593.0 261.0 -505.0 215.0 -408.0 191.0 -352.0 191.0 -345.0 196.0 -345.0 204.0 -345.0 214.0 -356.0 255.0 -404.0 301.0 -505.0 328.0 -557.0 346.0 -601.0 388.0 -589.0 513.0 -576.0 626.0 -561.0 774.0 -557.0 811.0 -557.0 846.0 -557.0 868.0 -561.0 869.0 -564.0 867.0 -572.0 822.0 -580.0 759.0 -589.0 681.0 -597.0 612.0 -605.0 431.0 -616.0 384.0 -616.0 352.0 -616.0 L352.0 -616.0" fill-rule="evenodd" stroke="none"/>
    </g>
    <g id="font_DFPTongTong-B5__4">
      <path d="M665.0 -316.0 L665.0 -316.0 Q662.0 -316.0 657.0 -308.0 648.0 -301.0 637.0 -284.0 627.0 -268.0 625.0 -260.0 625.0 -245.0 638.0 -236.0 644.0 -236.0 650.0 -245.0 658.0 -253.0 666.0 -260.0 672.0 -272.0 674.0 -284.0 674.0 -297.0 670.0 -308.0 668.0 -316.0 665.0 -316.0 L665.0 -316.0 M519.0 -712.0 L519.0 -712.0 Q546.0 -689.0 645.0 -633.0 771.0 -564.0 841.0 -557.0 847.0 -557.0 847.0 -564.0 843.0 -580.0 677.0 -668.0 591.0 -708.0 541.0 -725.0 554.0 -733.0 566.0 -740.0 574.0 -744.0 574.0 -752.0 572.0 -757.0 560.0 -757.0 423.0 -712.0 323.0 -668.0 172.0 -597.0 96.0 -545.0 88.0 -536.0 88.0 -532.0 90.0 -528.0 98.0 -528.0 171.0 -549.0 343.0 -629.0 450.0 -673.0 519.0 -712.0 L519.0 -712.0 M368.0 -312.0 L368.0 -312.0 Q359.0 -312.0 359.0 -308.0 360.0 -301.0 375.0 -284.0 383.0 -276.0 390.0 -268.0 411.0 -253.0 428.0 -253.0 450.0 -253.0 450.0 -264.0 450.0 -280.0 415.0 -297.0 383.0 -312.0 368.0 -312.0 L368.0 -312.0 M335.0 -200.0 L335.0 -200.0 Q355.0 -196.0 374.0 -192.0 395.0 -192.0 518.0 -192.0 662.0 -192.0 736.0 -205.0 803.0 -217.0 810.0 -228.0 810.0 -232.0 784.0 -232.0 787.0 -240.0 791.0 -245.0 801.0 -276.0 801.0 -312.0 801.0 -356.0 728.0 -368.0 647.0 -381.0 534.0 -389.0 438.0 -392.0 349.0 -392.0 307.0 -392.0 292.0 -389.0 289.0 -417.0 279.0 -417.0 272.0 -417.0 272.0 -360.0 272.0 -312.0 285.0 -272.0 298.0 -228.0 317.0 -200.0 324.0 -188.0 330.0 -188.0 336.0 -192.0 336.0 -196.0 335.0 -200.0 335.0 -200.0 L335.0 -200.0 M511.0 -220.0 L511.0 -220.0 Q370.0 -217.0 332.0 -213.0 325.0 -245.0 313.0 -297.0 304.0 -341.0 296.0 -377.0 301.0 -373.0 309.0 -368.0 347.0 -360.0 420.0 -356.0 460.0 -352.0 495.0 -348.0 497.0 -297.0 499.0 -268.0 501.0 -236.0 511.0 -224.0 511.0 -224.0 511.0 -220.0 L511.0 -220.0 M752.0 -232.0 L752.0 -232.0 Q660.0 -228.0 541.0 -224.0 543.0 -228.0 543.0 -236.0 543.0 -264.0 528.0 -312.0 524.0 -333.0 517.0 -348.0 524.0 -348.0 529.0 -345.0 573.0 -341.0 634.0 -337.0 674.0 -333.0 700.0 -333.0 723.0 -328.0 738.0 -324.0 755.0 -320.0 755.0 -301.0 755.0 -268.0 751.0 -240.0 751.0 -236.0 752.0 -232.0 L752.0 -232.0 M512.0 87.0 L512.0 87.0 Q497.0 87.0 480.0 87.0 468.0 87.0 439.0 91.0 434.0 91.0 429.0 91.0 428.0 80.0 422.0 47.0 420.0 32.0 416.0 16.0 421.0 20.0 428.0 20.0 458.0 28.0 483.0 28.0 502.0 28.0 513.0 24.0 513.0 47.0 512.0 76.0 512.0 84.0 512.0 87.0 L512.0 87.0 M427.0 112.0 L427.0 112.0 Q428.0 112.0 430.0 112.0 453.0 116.0 486.0 116.0 515.0 116.0 541.0 112.0 560.0 104.0 560.0 100.0 560.0 95.0 553.0 95.0 549.0 91.0 539.0 91.0 544.0 84.0 548.0 76.0 559.0 24.0 562.0 -45.0 562.0 -88.0 504.0 -104.0 454.0 -108.0 425.0 -108.0 407.0 -108.0 407.0 -104.0 407.0 -96.0 427.0 -85.0 460.0 -72.0 499.0 -68.0 515.0 -64.0 515.0 -52.0 515.0 -28.0 514.0 -1.0 480.0 -4.0 437.0 -4.0 422.0 -4.0 413.0 -1.0 409.0 -20.0 404.0 -37.0 398.0 -60.0 389.0 -81.0 381.0 -100.0 377.0 -100.0 373.0 -100.0 373.0 -88.0 373.0 -56.0 375.0 -28.0 379.0 7.0 386.0 56.0 393.0 91.0 400.0 112.0 412.0 128.0 417.0 128.0 421.0 128.0 424.0 120.0 426.0 116.0 427.0 112.0 L427.0 112.0 M509.0 -540.0 L509.0 -540.0 Q477.0 -540.0 445.0 -536.0 391.0 -536.0 391.0 -528.0 391.0 -524.0 434.0 -517.0 471.0 -509.0 517.0 -505.0 567.0 -505.0 589.0 -513.0 613.0 -520.0 613.0 -524.0 613.0 -532.0 565.0 -536.0 539.0 -540.0 509.0 -540.0 L509.0 -540.0" fill-rule="evenodd" stroke="none"/>
    </g>
    <g id="font_DFPTongTong-B5__5">
      <path d="M711.0 -385.0 L711.0 -385.0 Q707.0 -385.0 707.0 -364.0 709.0 -304.0 711.0 -272.0 713.0 -240.0 723.0 -224.0 732.0 -209.0 740.0 -209.0 746.0 -209.0 751.0 -217.0 755.0 -228.0 755.0 -236.0 755.0 -268.0 740.0 -320.0 734.0 -348.0 723.0 -373.0 715.0 -385.0 711.0 -385.0 L711.0 -385.0 M845.0 -473.0 L845.0 -473.0 Q843.0 -469.0 843.0 -461.0 866.0 -272.0 866.0 -169.0 866.0 -144.0 848.0 -136.0 841.0 -136.0 841.0 -129.0 843.0 -125.0 849.0 -121.0 862.0 -117.0 877.0 -117.0 913.0 -117.0 913.0 -152.0 913.0 -173.0 908.0 -213.0 903.0 -268.0 896.0 -316.0 886.0 -392.0 871.0 -429.0 854.0 -473.0 845.0 -473.0 L845.0 -473.0 M318.0 -60.0 L318.0 -60.0 Q321.0 -33.0 326.0 -1.0 330.0 16.0 335.0 24.0 271.0 24.0 208.0 28.0 187.0 28.0 187.0 32.0 187.0 47.0 242.0 56.0 291.0 60.0 351.0 60.0 421.0 56.0 451.0 47.0 473.0 40.0 473.0 32.0 471.0 28.0 442.0 24.0 401.0 24.0 360.0 24.0 361.0 11.0 361.0 -8.0 361.0 -28.0 354.0 -60.0 385.0 -64.0 415.0 -68.0 443.0 -77.0 443.0 -81.0 443.0 -85.0 436.0 -88.0 424.0 -92.0 389.0 -92.0 369.0 -92.0 346.0 -96.0 344.0 -104.0 342.0 -112.0 332.0 -148.0 324.0 -148.0 317.0 -148.0 317.0 -96.0 298.0 -96.0 259.0 -92.0 214.0 -85.0 214.0 -81.0 214.0 -72.0 245.0 -68.0 274.0 -64.0 318.0 -60.0 L318.0 -60.0 M316.0 -648.0 L316.0 -648.0 Q305.0 -633.0 285.0 -593.0 242.0 -488.0 237.0 -452.0 237.0 -429.0 248.0 -417.0 259.0 -404.0 283.0 -404.0 352.0 -404.0 406.0 -425.0 430.0 -436.0 440.0 -444.0 449.0 -433.0 457.0 -421.0 494.0 -360.0 504.0 -360.0 521.0 -360.0 521.0 -381.0 521.0 -408.0 480.0 -461.0 441.0 -501.0 407.0 -517.0 400.0 -517.0 400.0 -513.0 413.0 -488.0 431.0 -461.0 394.0 -444.0 368.0 -440.0 332.0 -433.0 291.0 -433.0 275.0 -433.0 275.0 -444.0 275.0 -456.0 312.0 -545.0 332.0 -593.0 335.0 -641.0 335.0 -645.0 335.0 -645.0 414.0 -637.0 510.0 -633.0 546.0 -633.0 579.0 -637.0 599.0 -637.0 601.0 -641.0 599.0 -648.0 560.0 -656.0 505.0 -664.0 437.0 -673.0 378.0 -681.0 222.0 -692.0 176.0 -692.0 146.0 -689.0 122.0 -689.0 122.0 -685.0 122.0 -673.0 285.0 -652.0 300.0 -648.0 316.0 -648.0 L316.0 -648.0" fill-rule="evenodd" stroke="none"/>
    </g>
    <g id="font_DFPTongTong-B5__6">
      <path d="M335.0 -284.0 L335.0 -284.0 Q337.0 -293.0 337.0 -301.0 337.0 -337.0 323.0 -404.0 315.0 -440.0 303.0 -469.0 295.0 -480.0 291.0 -480.0 287.0 -480.0 287.0 -465.0 289.0 -385.0 291.0 -345.0 293.0 -308.0 303.0 -289.0 304.0 -289.0 305.0 -284.0 291.0 -284.0 275.0 -284.0 147.0 -284.0 147.0 -272.0 147.0 -257.0 298.0 -249.0 382.0 -236.0 508.0 -236.0 604.0 -236.0 676.0 -240.0 677.0 -217.0 679.0 -192.0 679.0 -176.0 680.0 -165.0 633.0 -144.0 501.0 -64.0 395.0 -1.0 366.0 36.0 364.0 47.0 364.0 56.0 373.0 56.0 376.0 56.0 474.0 -1.0 555.0 -48.0 640.0 -100.0 681.0 -144.0 688.0 -41.0 688.0 3.0 688.0 68.0 666.0 76.0 662.0 80.0 662.0 84.0 670.0 95.0 694.0 95.0 728.0 87.0 728.0 20.0 728.0 -100.0 714.0 -236.0 714.0 -236.0 714.0 -240.0 864.0 -245.0 865.0 -253.0 865.0 -264.0 827.0 -268.0 790.0 -276.0 714.0 -276.0 713.0 -280.0 712.0 -280.0 707.0 -373.0 697.0 -440.0 675.0 -528.0 662.0 -528.0 657.0 -528.0 657.0 -513.0 657.0 -469.0 666.0 -404.0 668.0 -364.0 673.0 -280.0 503.0 -280.0 335.0 -284.0 L335.0 -284.0 M422.0 -645.0 L422.0 -645.0 Q382.0 -645.0 301.0 -641.0 260.0 -637.0 260.0 -633.0 260.0 -624.0 371.0 -608.0 459.0 -601.0 609.0 -597.0 693.0 -597.0 733.0 -601.0 777.0 -605.0 777.0 -608.0 777.0 -616.0 686.0 -629.0 572.0 -641.0 422.0 -645.0 L422.0 -645.0" fill-rule="evenodd" stroke="none"/>
    </g>
    <g id="font_DFPTongTong-B5__7">
      <path d="M626.0 -104.0 L626.0 -104.0 Q626.0 -104.0 626.0 -104.0 620.0 -148.0 610.0 -148.0 604.0 -148.0 602.0 -117.0 601.0 -108.0 601.0 -104.0 593.0 -104.0 584.0 -104.0 574.0 -104.0 564.0 -104.0 565.0 -104.0 565.0 -104.0 561.0 -161.0 552.0 -161.0 548.0 -161.0 544.0 -144.0 541.0 -125.0 535.0 -104.0 432.0 -100.0 404.0 -96.0 404.0 -96.0 404.0 -96.0 395.0 -121.0 391.0 -121.0 387.0 -121.0 387.0 -108.0 387.0 -68.0 389.0 -37.0 393.0 7.0 400.0 64.0 409.0 112.0 416.0 131.0 427.0 152.0 433.0 152.0 437.0 152.0 441.0 144.0 443.0 135.0 445.0 128.0 458.0 131.0 479.0 135.0 549.0 139.0 633.0 139.0 726.0 139.0 765.0 131.0 786.0 124.0 786.0 116.0 784.0 108.0 763.0 108.0 765.0 100.0 769.0 95.0 779.0 64.0 785.0 24.0 793.0 -20.0 793.0 -56.0 793.0 -85.0 735.0 -92.0 689.0 -100.0 626.0 -104.0 L626.0 -104.0 M599.0 -64.0 L599.0 -64.0 Q599.0 -48.0 599.0 -33.0 600.0 -4.0 613.0 7.0 630.0 24.0 657.0 24.0 678.0 24.0 689.0 16.0 699.0 11.0 699.0 3.0 699.0 -8.0 694.0 -28.0 690.0 -37.0 689.0 -37.0 685.0 -37.0 676.0 -12.0 669.0 -4.0 659.0 -4.0 645.0 -4.0 637.0 -12.0 630.0 -16.0 630.0 -28.0 629.0 -48.0 628.0 -64.0 696.0 -64.0 719.0 -64.0 743.0 -64.0 743.0 -37.0 743.0 36.0 734.0 91.0 734.0 100.0 735.0 108.0 591.0 108.0 445.0 108.0 444.0 91.0 439.0 60.0 444.0 64.0 451.0 64.0 478.0 72.0 513.0 72.0 551.0 72.0 566.0 68.0 585.0 60.0 585.0 56.0 585.0 47.0 549.0 43.0 528.0 43.0 507.0 43.0 482.0 43.0 459.0 43.0 445.0 43.0 436.0 43.0 429.0 3.0 420.0 -45.0 415.0 -68.0 409.0 -85.0 421.0 -81.0 442.0 -77.0 478.0 -68.0 524.0 -68.0 510.0 -8.0 508.0 -1.0 508.0 7.0 512.0 7.0 525.0 7.0 537.0 -8.0 549.0 -20.0 557.0 -52.0 559.0 -60.0 561.0 -64.0 575.0 -64.0 592.0 -64.0 595.0 -64.0 599.0 -64.0 L599.0 -64.0 M403.0 -232.0 L403.0 -232.0 Q353.0 -232.0 303.0 -228.0 268.0 -224.0 268.0 -220.0 268.0 -213.0 326.0 -205.0 393.0 -196.0 461.0 -196.0 594.0 -196.0 656.0 -200.0 724.0 -209.0 724.0 -220.0 724.0 -228.0 644.0 -232.0 511.0 -232.0 403.0 -232.0 L403.0 -232.0 M329.0 -576.0 L329.0 -576.0 Q348.0 -568.0 391.0 -561.0 400.0 -561.0 410.0 -557.0 408.0 -557.0 406.0 -553.0 395.0 -528.0 385.0 -496.0 373.0 -496.0 360.0 -496.0 344.0 -496.0 312.0 -492.0 296.0 -492.0 296.0 -488.0 296.0 -480.0 340.0 -473.0 355.0 -469.0 376.0 -465.0 376.0 -465.0 376.0 -465.0 355.0 -389.0 347.0 -337.0 347.0 -328.0 352.0 -328.0 357.0 -328.0 377.0 -356.0 383.0 -377.0 389.0 -396.0 397.0 -389.0 412.0 -377.0 441.0 -348.0 458.0 -348.0 474.0 -348.0 477.0 -356.0 477.0 -381.0 430.0 -400.0 411.0 -408.0 394.0 -412.0 398.0 -433.0 403.0 -452.0 404.0 -456.0 407.0 -461.0 420.0 -461.0 435.0 -461.0 470.0 -461.0 485.0 -465.0 504.0 -465.0 504.0 -473.0 504.0 -476.0 467.0 -484.0 442.0 -492.0 414.0 -492.0 423.0 -532.0 427.0 -557.0 463.0 -553.0 497.0 -553.0 528.0 -553.0 528.0 -561.0 528.0 -564.0 520.0 -568.0 501.0 -580.0 471.0 -584.0 409.0 -593.0 377.0 -597.0 351.0 -597.0 336.0 -593.0 351.0 -633.0 351.0 -660.0 351.0 -664.0 346.0 -664.0 344.0 -664.0 330.0 -641.0 311.0 -608.0 294.0 -576.0 280.0 -545.0 271.0 -524.0 266.0 -509.0 264.0 -501.0 264.0 -492.0 270.0 -492.0 295.0 -505.0 323.0 -564.0 326.0 -568.0 329.0 -576.0 L329.0 -576.0 M139.0 -733.0 L139.0 -733.0 Q134.0 -717.0 130.0 -677.0 120.0 -528.0 118.0 -421.0 118.0 -348.0 141.0 -320.0 168.0 -293.0 214.0 -289.0 249.0 -289.0 274.0 -297.0 303.0 -308.0 306.0 -316.0 306.0 -324.0 297.0 -324.0 268.0 -324.0 239.0 -324.0 201.0 -324.0 183.0 -341.0 169.0 -348.0 166.0 -385.0 162.0 -505.0 161.0 -692.0 160.0 -717.0 157.0 -729.0 181.0 -725.0 214.0 -721.0 285.0 -704.0 378.0 -700.0 409.0 -700.0 437.0 -704.0 457.0 -704.0 458.0 -708.0 457.0 -717.0 428.0 -725.0 388.0 -729.0 340.0 -736.0 297.0 -744.0 184.0 -752.0 144.0 -752.0 117.0 -752.0 95.0 -748.0 95.0 -748.0 95.0 -740.0 139.0 -733.0 L139.0 -733.0 M716.0 -328.0 L716.0 -328.0 Q714.0 -324.0 712.0 -320.0 694.0 -293.0 690.0 -284.0 690.0 -276.0 699.0 -276.0 706.0 -276.0 723.0 -297.0 733.0 -304.0 743.0 -316.0 790.0 -297.0 824.0 -297.0 851.0 -297.0 851.0 -308.0 851.0 -320.0 802.0 -333.0 784.0 -337.0 765.0 -345.0 767.0 -348.0 770.0 -352.0 809.0 -408.0 809.0 -433.0 809.0 -448.0 766.0 -456.0 752.0 -456.0 728.0 -461.0 707.0 -461.0 692.0 -461.0 674.0 -461.0 672.0 -456.0 674.0 -448.0 684.0 -448.0 700.0 -440.0 719.0 -440.0 757.0 -433.0 757.0 -425.0 757.0 -404.0 733.0 -360.0 732.0 -356.0 731.0 -356.0 682.0 -373.0 666.0 -377.0 657.0 -377.0 657.0 -368.0 659.0 -360.0 683.0 -348.0 699.0 -337.0 716.0 -328.0 L716.0 -328.0 M686.0 -696.0 L686.0 -696.0 Q687.0 -696.0 688.0 -696.0 716.0 -692.0 729.0 -689.0 751.0 -681.0 751.0 -664.0 751.0 -652.0 751.0 -637.0 754.0 -593.0 765.0 -580.0 771.0 -568.0 780.0 -564.0 792.0 -561.0 811.0 -561.0 835.0 -561.0 846.0 -568.0 860.0 -576.0 860.0 -589.0 860.0 -597.0 852.0 -597.0 847.0 -597.0 836.0 -593.0 828.0 -589.0 809.0 -589.0 799.0 -589.0 794.0 -601.0 788.0 -612.0 788.0 -633.0 790.0 -652.0 790.0 -660.0 790.0 -689.0 772.0 -700.0 754.0 -712.0 721.0 -712.0 700.0 -712.0 687.0 -712.0 688.0 -721.0 688.0 -725.0 688.0 -752.0 682.0 -752.0 678.0 -752.0 674.0 -744.0 660.0 -712.0 646.0 -664.0 635.0 -629.0 626.0 -584.0 626.0 -553.0 636.0 -549.0 647.0 -553.0 655.0 -564.0 674.0 -601.0 679.0 -641.0 684.0 -673.0 686.0 -696.0 L686.0 -696.0" fill-rule="evenodd" stroke="none"/>
    </g>
    <g id="font_DFPTongTong-B5__8">
      <path d="M317.0 56.0 L317.0 56.0 Q309.0 56.0 301.0 56.0 282.0 56.0 262.0 56.0 257.0 56.0 253.0 56.0 251.0 47.0 248.0 40.0 240.0 16.0 229.0 -12.0 227.0 -16.0 226.0 -20.0 232.0 -20.0 242.0 -20.0 L286.0 -16.0 Q308.0 -16.0 310.0 -4.0 314.0 20.0 316.0 51.0 316.0 51.0 317.0 56.0 L317.0 56.0 M254.0 76.0 L254.0 76.0 Q254.0 76.0 256.0 76.0 279.0 84.0 306.0 84.0 338.0 84.0 351.0 80.0 366.0 72.0 366.0 68.0 366.0 60.0 346.0 60.0 346.0 56.0 347.0 56.0 354.0 47.0 354.0 32.0 354.0 11.0 350.0 -16.0 339.0 -45.0 290.0 -48.0 267.0 -48.0 240.0 -45.0 225.0 -41.0 218.0 -37.0 216.0 -41.0 215.0 -41.0 206.0 -56.0 202.0 -56.0 198.0 -56.0 198.0 -45.0 198.0 -24.0 200.0 -8.0 204.0 16.0 211.0 43.0 218.0 68.0 225.0 80.0 237.0 95.0 242.0 95.0 246.0 95.0 249.0 87.0 252.0 84.0 254.0 76.0 L254.0 76.0 M197.0 -268.0 L197.0 -268.0 Q162.0 -264.0 162.0 -257.0 164.0 -245.0 188.0 -236.0 215.0 -232.0 238.0 -232.0 279.0 -232.0 281.0 -249.0 281.0 -260.0 261.0 -264.0 232.0 -268.0 197.0 -268.0 L197.0 -268.0 M177.0 -373.0 L177.0 -373.0 Q143.0 -368.0 143.0 -360.0 145.0 -348.0 169.0 -341.0 194.0 -337.0 215.0 -337.0 254.0 -337.0 256.0 -352.0 256.0 -360.0 236.0 -364.0 210.0 -373.0 177.0 -373.0 L177.0 -373.0 M179.0 -545.0 L179.0 -545.0 Q133.0 -545.0 103.0 -545.0 79.0 -545.0 79.0 -540.0 79.0 -524.0 183.0 -509.0 247.0 -492.0 329.0 -488.0 365.0 -488.0 397.0 -492.0 418.0 -492.0 420.0 -496.0 419.0 -505.0 393.0 -513.0 358.0 -517.0 316.0 -528.0 279.0 -536.0 179.0 -545.0 L179.0 -545.0 M248.0 -692.0 L248.0 -692.0 Q206.0 -692.0 206.0 -685.0 206.0 -677.0 254.0 -660.0 287.0 -648.0 318.0 -648.0 350.0 -652.0 350.0 -656.0 350.0 -664.0 343.0 -668.0 330.0 -677.0 310.0 -685.0 269.0 -692.0 248.0 -692.0 L248.0 -692.0 M846.0 16.0 L846.0 16.0 Q794.0 36.0 748.0 60.0 693.0 87.0 665.0 108.0 662.0 112.0 662.0 120.0 665.0 124.0 671.0 124.0 741.0 108.0 776.0 87.0 829.0 64.0 853.0 40.0 859.0 28.0 859.0 24.0 856.0 16.0 846.0 16.0 L846.0 16.0 M795.0 -184.0 L795.0 -184.0 Q746.0 -165.0 706.0 -136.0 656.0 -108.0 630.0 -85.0 627.0 -81.0 627.0 -77.0 630.0 -72.0 635.0 -72.0 698.0 -88.0 730.0 -112.0 778.0 -136.0 800.0 -169.0 805.0 -173.0 805.0 -180.0 802.0 -184.0 795.0 -184.0 L795.0 -184.0 M765.0 -352.0 L765.0 -352.0 Q712.0 -328.0 666.0 -301.0 611.0 -264.0 583.0 -236.0 581.0 -236.0 581.0 -232.0 583.0 -228.0 587.0 -228.0 657.0 -249.0 692.0 -276.0 744.0 -304.0 769.0 -341.0 773.0 -345.0 773.0 -348.0 771.0 -352.0 765.0 -352.0 L765.0 -352.0 M692.0 -629.0 L692.0 -629.0 Q718.0 -605.0 804.0 -557.0 944.0 -469.0 959.0 -469.0 966.0 -469.0 966.0 -476.0 938.0 -517.0 834.0 -584.0 757.0 -629.0 708.0 -641.0 776.0 -704.0 776.0 -712.0 776.0 -721.0 770.0 -721.0 767.0 -721.0 760.0 -717.0 674.0 -660.0 562.0 -561.0 486.0 -480.0 452.0 -436.0 452.0 -425.0 458.0 -425.0 467.0 -425.0 474.0 -433.0 572.0 -517.0 655.0 -593.0 675.0 -612.0 692.0 -629.0 L692.0 -629.0" fill-rule="evenodd" stroke="none"/>
    </g>
    <g id="font_DFPTongTong-B5__9">
      <path d="M869.0 -648.0 L869.0 -648.0 Q762.0 -616.0 684.0 -580.0 567.0 -520.0 508.0 -476.0 502.0 -473.0 502.0 -469.0 503.0 -465.0 509.0 -465.0 565.0 -480.0 699.0 -545.0 813.0 -597.0 874.0 -637.0 880.0 -645.0 880.0 -648.0 879.0 -648.0 869.0 -648.0 L869.0 -648.0 M779.0 -236.0 L779.0 -236.0 Q778.0 -224.0 776.0 -209.0 775.0 -148.0 775.0 -64.0 780.0 80.0 799.0 100.0 802.0 104.0 806.0 104.0 815.0 104.0 820.0 68.0 810.0 -180.0 799.0 -228.0 798.0 -232.0 798.0 -236.0 808.0 -232.0 819.0 -232.0 880.0 -232.0 907.0 -236.0 939.0 -240.0 939.0 -245.0 939.0 -253.0 874.0 -260.0 795.0 -272.0 688.0 -276.0 659.0 -276.0 603.0 -272.0 597.0 -272.0 593.0 -272.0 608.0 -377.0 608.0 -425.0 608.0 -448.0 601.0 -448.0 594.0 -448.0 587.0 -433.0 565.0 -337.0 551.0 -240.0 539.0 -161.0 528.0 -52.0 528.0 -37.0 536.0 -33.0 546.0 -37.0 551.0 -48.0 571.0 -125.0 585.0 -220.0 588.0 -240.0 591.0 -257.0 609.0 -253.0 652.0 -245.0 701.0 -236.0 779.0 -236.0 L779.0 -236.0 M442.0 -584.0 L442.0 -584.0 Q379.0 -584.0 289.0 -572.0 188.0 -553.0 141.0 -540.0 128.0 -536.0 128.0 -532.0 128.0 -524.0 160.0 -524.0 274.0 -524.0 338.0 -540.0 442.0 -557.0 461.0 -564.0 473.0 -568.0 473.0 -576.0 473.0 -580.0 442.0 -584.0 L442.0 -584.0 M436.0 -228.0 L436.0 -228.0 Q440.0 -236.0 443.0 -249.0 451.0 -289.0 451.0 -341.0 451.0 -364.0 430.0 -381.0 415.0 -389.0 373.0 -396.0 347.0 -400.0 305.0 -404.0 265.0 -408.0 238.0 -408.0 219.0 -408.0 208.0 -404.0 213.0 -440.0 213.0 -461.0 212.0 -480.0 208.0 -480.0 205.0 -480.0 203.0 -473.0 169.0 -364.0 148.0 -264.0 129.0 -132.0 127.0 -52.0 127.0 -24.0 130.0 -24.0 136.0 -24.0 140.0 -41.0 156.0 -100.0 175.0 -209.0 183.0 -205.0 194.0 -205.0 242.0 -192.0 290.0 -192.0 383.0 -192.0 427.0 -200.0 474.0 -205.0 474.0 -217.0 474.0 -224.0 436.0 -228.0 L436.0 -228.0 M207.0 -392.0 L207.0 -392.0 Q211.0 -392.0 215.0 -389.0 241.0 -385.0 275.0 -377.0 300.0 -373.0 333.0 -368.0 356.0 -364.0 376.0 -360.0 401.0 -356.0 402.0 -348.0 407.0 -328.0 409.0 -272.0 410.0 -245.0 415.0 -228.0 323.0 -232.0 249.0 -232.0 214.0 -228.0 178.0 -224.0 180.0 -232.0 182.0 -245.0 199.0 -337.0 207.0 -392.0 L207.0 -392.0" fill-rule="evenodd" stroke="none"/>
    </g>
    <g id="font_DFPTongTong-B5__10">
      <path d="M281.0 -52.0 L281.0 -52.0 Q272.0 -52.0 253.0 -48.0 216.0 -37.0 177.0 -8.0 146.0 16.0 146.0 20.0 146.0 24.0 163.0 24.0 206.0 20.0 250.0 -8.0 278.0 -28.0 285.0 -48.0 285.0 -52.0 281.0 -52.0 L281.0 -52.0 M82.0 -345.0 L82.0 -345.0 Q74.0 -345.0 74.0 -341.0 75.0 -333.0 97.0 -312.0 111.0 -304.0 123.0 -297.0 155.0 -276.0 182.0 -276.0 206.0 -276.0 206.0 -289.0 206.0 -308.0 154.0 -328.0 105.0 -345.0 82.0 -345.0 L82.0 -345.0 M169.0 -620.0 L169.0 -620.0 Q162.0 -620.0 162.0 -616.0 164.0 -605.0 188.0 -584.0 204.0 -568.0 217.0 -557.0 253.0 -532.0 285.0 -532.0 304.0 -532.0 304.0 -540.0 304.0 -568.0 248.0 -597.0 195.0 -620.0 169.0 -620.0 L169.0 -620.0 M643.0 -72.0 L643.0 -72.0 Q640.0 -72.0 637.0 -68.0 625.0 -41.0 610.0 -1.0 599.0 32.0 591.0 64.0 591.0 91.0 598.0 95.0 607.0 91.0 613.0 80.0 633.0 51.0 639.0 16.0 648.0 -24.0 648.0 -52.0 648.0 -72.0 643.0 -72.0 L643.0 -72.0 M807.0 -20.0 L807.0 -20.0 Q803.0 -20.0 793.0 28.0 788.0 47.0 788.0 64.0 791.0 91.0 808.0 104.0 826.0 120.0 863.0 120.0 903.0 116.0 903.0 84.0 903.0 76.0 899.0 60.0 897.0 51.0 893.0 51.0 891.0 51.0 889.0 60.0 879.0 87.0 854.0 91.0 834.0 91.0 826.0 76.0 822.0 72.0 820.0 36.0 818.0 7.0 815.0 -4.0 811.0 -20.0 807.0 -20.0 L807.0 -20.0 M461.0 -580.0 L461.0 -580.0 Q488.0 -668.0 488.0 -704.0 488.0 -721.0 484.0 -721.0 480.0 -721.0 475.0 -708.0 438.0 -633.0 414.0 -553.0 392.0 -484.0 375.0 -396.0 375.0 -389.0 379.0 -389.0 385.0 -389.0 387.0 -396.0 425.0 -456.0 447.0 -536.0 453.0 -553.0 456.0 -564.0 490.0 -557.0 584.0 -540.0 639.0 -532.0 706.0 -528.0 705.0 -469.0 705.0 -412.0 709.0 -341.0 715.0 -312.0 716.0 -308.0 717.0 -304.0 614.0 -308.0 530.0 -312.0 438.0 -312.0 438.0 -304.0 442.0 -293.0 535.0 -276.0 639.0 -260.0 722.0 -260.0 844.0 -260.0 900.0 -268.0 962.0 -272.0 962.0 -280.0 962.0 -289.0 946.0 -289.0 837.0 -297.0 741.0 -301.0 742.0 -308.0 742.0 -316.0 742.0 -341.0 746.0 -429.0 746.0 -480.0 745.0 -524.0 766.0 -524.0 788.0 -520.0 825.0 -520.0 858.0 -524.0 881.0 -528.0 882.0 -528.0 881.0 -540.0 845.0 -549.0 800.0 -553.0 744.0 -561.0 741.0 -645.0 734.0 -689.0 727.0 -729.0 719.0 -729.0 713.0 -729.0 711.0 -689.0 708.0 -629.0 707.0 -568.0 649.0 -572.0 539.0 -580.0 493.0 -580.0 461.0 -580.0 L461.0 -580.0" fill-rule="evenodd" stroke="none"/>
    </g>
    <g id="font_DFPTongTong-B5_.0">
      <path d="M164.0 44.0 L164.0 44.0 Q164.0 19.0 125.0 3.0 92.0 -10.0 48.0 -10.0 31.0 -10.0 31.0 -5.0 31.0 8.0 65.0 33.0 102.0 61.0 134.0 61.0 164.0 61.0 164.0 44.0" fill-rule="evenodd" stroke="none"/>
    </g>
    <g id="font_DFPTongTong-B5__11">
      <path d="M343.0 -64.0 L343.0 -64.0 Q339.0 -108.0 317.0 -228.0 303.0 -328.0 294.0 -456.0 281.0 -564.0 268.0 -564.0 258.0 -564.0 258.0 -473.0 256.0 -425.0 256.0 -404.0 262.0 -297.0 280.0 -192.0 302.0 -85.0 322.0 -41.0 328.0 -28.0 336.0 -28.0 344.0 -33.0 344.0 -52.0 364.0 -45.0 382.0 -45.0 402.0 -41.0 518.0 -41.0 654.0 -41.0 725.0 -52.0 787.0 -68.0 795.0 -85.0 795.0 -85.0 780.0 -88.0 785.0 -96.0 788.0 -112.0 798.0 -140.0 802.0 -196.0 803.0 -245.0 803.0 -293.0 798.0 -385.0 786.0 -425.0 786.0 -524.0 636.0 -540.0 519.0 -549.0 365.0 -553.0 330.0 -549.0 326.0 -545.0 340.0 -528.0 410.0 -517.0 475.0 -501.0 574.0 -501.0 657.0 -496.0 693.0 -488.0 725.0 -480.0 732.0 -456.0 760.0 -417.0 760.0 -209.0 759.0 -132.0 759.0 -96.0 759.0 -92.0 759.0 -88.0 755.0 -88.0 751.0 -88.0 657.0 -85.0 529.0 -77.0 383.0 -68.0 343.0 -64.0 L343.0 -64.0" fill-rule="evenodd" stroke="none"/>
    </g>
    <g id="font_DFPTongTong-B5__12">
      <path d="M760.0 -465.0 L760.0 -465.0 Q755.0 -465.0 743.0 -417.0 738.0 -389.0 738.0 -373.0 740.0 -345.0 758.0 -333.0 776.0 -316.0 815.0 -316.0 850.0 -320.0 850.0 -348.0 850.0 -356.0 845.0 -373.0 843.0 -381.0 838.0 -381.0 836.0 -381.0 834.0 -373.0 824.0 -352.0 804.0 -352.0 788.0 -352.0 783.0 -356.0 778.0 -364.0 776.0 -400.0 774.0 -436.0 769.0 -448.0 764.0 -465.0 760.0 -465.0 L760.0 -465.0 M720.0 -52.0 L720.0 -52.0 Q745.0 -48.0 773.0 -48.0 803.0 -48.0 836.0 -56.0 857.0 -64.0 857.0 -68.0 857.0 -81.0 817.0 -88.0 756.0 -88.0 709.0 -88.0 654.0 -88.0 607.0 -88.0 574.0 -88.0 574.0 -81.0 574.0 -72.0 608.0 -64.0 648.0 -56.0 689.0 -52.0 693.0 -52.0 697.0 -52.0 699.0 3.0 701.0 36.0 703.0 64.0 711.0 76.0 685.0 80.0 652.0 80.0 583.0 84.0 583.0 91.0 583.0 95.0 602.0 100.0 632.0 112.0 699.0 112.0 756.0 112.0 817.0 95.0 867.0 80.0 867.0 68.0 867.0 64.0 863.0 64.0 847.0 64.0 766.0 68.0 757.0 72.0 746.0 72.0 746.0 68.0 746.0 68.0 746.0 40.0 732.0 -12.0 728.0 -33.0 720.0 -52.0 L720.0 -52.0 M411.0 -648.0 L411.0 -648.0 Q402.0 -648.0 402.0 -572.0 402.0 -532.0 412.0 -496.0 422.0 -461.0 438.0 -436.0 446.0 -425.0 455.0 -425.0 463.0 -425.0 463.0 -436.0 458.0 -465.0 446.0 -524.0 438.0 -576.0 430.0 -612.0 425.0 -648.0 411.0 -648.0 L411.0 -648.0 M594.0 -476.0 L594.0 -476.0 Q589.0 -476.0 583.0 -461.0 556.0 -417.0 534.0 -381.0 511.0 -345.0 499.0 -316.0 499.0 -312.0 503.0 -308.0 510.0 -308.0 514.0 -312.0 537.0 -320.0 568.0 -364.0 595.0 -404.0 600.0 -440.0 600.0 -476.0 594.0 -476.0 L594.0 -476.0 M688.0 -612.0 L688.0 -612.0 Q610.0 -616.0 558.0 -616.0 485.0 -616.0 485.0 -608.0 485.0 -597.0 621.0 -580.0 673.0 -576.0 727.0 -572.0 776.0 -568.0 809.0 -561.0 852.0 -557.0 873.0 -545.0 895.0 -532.0 895.0 -513.0 L900.0 -465.0 Q900.0 -456.0 910.0 -456.0 925.0 -465.0 933.0 -488.0 941.0 -513.0 941.0 -532.0 941.0 -568.0 894.0 -584.0 846.0 -597.0 787.0 -605.0 748.0 -608.0 712.0 -608.0 715.0 -616.0 717.0 -629.0 717.0 -664.0 694.0 -692.0 659.0 -733.0 646.0 -733.0 640.0 -733.0 640.0 -729.0 642.0 -721.0 647.0 -704.0 653.0 -692.0 662.0 -668.0 678.0 -629.0 688.0 -612.0 688.0 -612.0 688.0 -612.0 L688.0 -612.0 M262.0 -517.0 L262.0 -517.0 Q234.0 -517.0 204.0 -513.0 187.0 -505.0 183.0 -501.0 187.0 -492.0 208.0 -492.0 227.0 -492.0 248.0 -488.0 279.0 -488.0 282.0 -456.0 291.0 -412.0 300.0 -280.0 309.0 -173.0 321.0 -52.0 321.0 -24.0 311.0 -24.0 311.0 -16.0 329.0 -16.0 343.0 -16.0 350.0 -24.0 358.0 -33.0 358.0 -48.0 358.0 -85.0 340.0 -249.0 333.0 -345.0 324.0 -417.0 321.0 -509.0 262.0 -517.0 L262.0 -517.0 M184.0 -304.0 L184.0 -304.0 Q187.0 -304.0 193.0 -304.0 217.0 -297.0 240.0 -297.0 280.0 -297.0 281.0 -316.0 281.0 -324.0 262.0 -328.0 236.0 -333.0 201.0 -333.0 191.0 -328.0 185.0 -328.0 185.0 -328.0 185.0 -333.0 185.0 -389.0 182.0 -461.0 181.0 -509.0 176.0 -509.0 172.0 -509.0 170.0 -492.0 161.0 -412.0 143.0 -264.0 133.0 -161.0 133.0 -60.0 137.0 -28.0 144.0 -28.0 159.0 -33.0 172.0 -129.0 174.0 -148.0 175.0 -173.0 179.0 -169.0 184.0 -169.0 210.0 -161.0 231.0 -161.0 271.0 -161.0 272.0 -180.0 272.0 -188.0 254.0 -192.0 227.0 -196.0 193.0 -196.0 183.0 -196.0 177.0 -192.0 181.0 -245.0 184.0 -304.0 L184.0 -304.0" fill-rule="evenodd" stroke="none"/>
    </g>
    <g id="font_DFPTongTong-B5__13">
      <path d="M215.0 -389.0 L215.0 -389.0 Q219.0 -320.0 224.0 -257.0 194.0 -228.0 153.0 -180.0 111.0 -121.0 105.0 -85.0 105.0 -81.0 109.0 -81.0 122.0 -81.0 142.0 -104.0 167.0 -132.0 185.0 -156.0 213.0 -200.0 226.0 -228.0 228.0 -209.0 230.0 -188.0 249.0 -45.0 263.0 7.0 269.0 20.0 278.0 20.0 286.0 20.0 286.0 -1.0 286.0 -37.0 267.0 -213.0 280.0 -200.0 294.0 -192.0 319.0 -169.0 353.0 -169.0 378.0 -173.0 380.0 -180.0 380.0 -188.0 361.0 -196.0 338.0 -205.0 308.0 -217.0 281.0 -232.0 265.0 -240.0 259.0 -308.0 255.0 -389.0 271.0 -389.0 290.0 -385.0 344.0 -385.0 371.0 -389.0 399.0 -392.0 399.0 -396.0 399.0 -404.0 340.0 -417.0 300.0 -425.0 253.0 -429.0 250.0 -469.0 249.0 -509.0 237.0 -612.0 224.0 -612.0 215.0 -612.0 215.0 -524.0 213.0 -480.0 213.0 -461.0 213.0 -444.0 214.0 -429.0 191.0 -429.0 168.0 -429.0 142.0 -429.0 90.0 -425.0 63.0 -421.0 63.0 -417.0 63.0 -408.0 135.0 -396.0 168.0 -392.0 215.0 -389.0 L215.0 -389.0 M803.0 68.0 L803.0 68.0 Q804.0 68.0 804.0 68.0 811.0 76.0 818.0 80.0 836.0 91.0 851.0 91.0 872.0 91.0 872.0 80.0 872.0 68.0 842.0 56.0 825.0 51.0 814.0 47.0 829.0 20.0 834.0 -8.0 834.0 -20.0 828.0 -20.0 817.0 -12.0 783.0 36.0 761.0 76.0 755.0 100.0 755.0 112.0 761.0 112.0 777.0 108.0 803.0 68.0 L803.0 68.0 M565.0 68.0 L565.0 68.0 Q567.0 72.0 568.0 72.0 578.0 80.0 586.0 87.0 606.0 104.0 624.0 104.0 646.0 104.0 646.0 91.0 646.0 76.0 610.0 60.0 591.0 51.0 577.0 47.0 590.0 20.0 594.0 -4.0 594.0 -12.0 589.0 -12.0 578.0 -8.0 544.0 43.0 521.0 80.0 515.0 108.0 515.0 116.0 520.0 116.0 539.0 112.0 565.0 68.0 L565.0 68.0 M733.0 -264.0 L733.0 -264.0 Q726.0 -284.0 720.0 -284.0 715.0 -284.0 715.0 -245.0 715.0 -209.0 722.0 -180.0 732.0 -144.0 745.0 -144.0 750.0 -148.0 752.0 -156.0 752.0 -161.0 753.0 -165.0 755.0 -165.0 758.0 -165.0 777.0 -156.0 803.0 -156.0 829.0 -156.0 842.0 -161.0 855.0 -169.0 855.0 -173.0 854.0 -176.0 839.0 -180.0 839.0 -180.0 840.0 -180.0 847.0 -192.0 847.0 -205.0 847.0 -224.0 843.0 -249.0 836.0 -272.0 804.0 -272.0 782.0 -272.0 756.0 -268.0 741.0 -268.0 733.0 -264.0 L733.0 -264.0 M753.0 -180.0 L753.0 -180.0 Q754.0 -180.0 754.0 -184.0 753.0 -200.0 738.0 -249.0 745.0 -249.0 758.0 -249.0 L800.0 -245.0 Q803.0 -245.0 803.0 -232.0 807.0 -213.0 808.0 -188.0 808.0 -184.0 809.0 -184.0 804.0 -184.0 798.0 -184.0 781.0 -184.0 764.0 -180.0 758.0 -180.0 753.0 -180.0 L753.0 -180.0 M470.0 -205.0 L470.0 -205.0 Q463.0 -220.0 457.0 -220.0 452.0 -220.0 452.0 -184.0 452.0 -152.0 459.0 -129.0 469.0 -96.0 483.0 -96.0 486.0 -100.0 488.0 -108.0 489.0 -112.0 489.0 -117.0 494.0 -117.0 499.0 -112.0 520.0 -108.0 545.0 -104.0 573.0 -104.0 585.0 -112.0 599.0 -117.0 599.0 -121.0 599.0 -129.0 581.0 -132.0 581.0 -132.0 581.0 -132.0 588.0 -140.0 588.0 -152.0 588.0 -169.0 584.0 -184.0 573.0 -209.0 528.0 -213.0 509.0 -213.0 484.0 -209.0 475.0 -205.0 470.0 -205.0 L470.0 -205.0 M490.0 -132.0 L490.0 -132.0 Q490.0 -132.0 489.0 -132.0 489.0 -148.0 476.0 -188.0 480.0 -188.0 485.0 -188.0 L525.0 -184.0 Q545.0 -184.0 547.0 -173.0 550.0 -156.0 552.0 -136.0 552.0 -136.0 553.0 -132.0 547.0 -132.0 541.0 -132.0 523.0 -132.0 506.0 -132.0 497.0 -132.0 489.0 -132.0 L490.0 -132.0 M614.0 -476.0 L614.0 -476.0 Q538.0 -476.0 538.0 -469.0 538.0 -461.0 636.0 -444.0 702.0 -433.0 766.0 -433.0 798.0 -436.0 798.0 -440.0 798.0 -448.0 790.0 -452.0 765.0 -461.0 729.0 -469.0 653.0 -476.0 614.0 -476.0 L614.0 -476.0 M674.0 -668.0 L674.0 -668.0 Q724.0 -717.0 724.0 -725.0 724.0 -733.0 717.0 -733.0 714.0 -733.0 708.0 -729.0 626.0 -677.0 520.0 -580.0 449.0 -505.0 415.0 -461.0 415.0 -448.0 422.0 -448.0 431.0 -448.0 438.0 -456.0 530.0 -536.0 608.0 -608.0 637.0 -637.0 658.0 -656.0 678.0 -633.0 739.0 -584.0 823.0 -520.0 869.0 -517.0 876.0 -517.0 876.0 -520.0 872.0 -540.0 763.0 -616.0 707.0 -656.0 674.0 -668.0 L674.0 -668.0" fill-rule="evenodd" stroke="none"/>
    </g>
    <g id="font_DFPTongTong-B5__14">
      <path d="M624.0 -412.0 L624.0 -412.0 Q616.0 -412.0 616.0 -408.0 618.0 -396.0 639.0 -377.0 651.0 -364.0 663.0 -356.0 692.0 -333.0 718.0 -333.0 737.0 -333.0 737.0 -345.0 737.0 -364.0 689.0 -392.0 646.0 -412.0 624.0 -412.0 L624.0 -412.0 M471.0 -412.0 L471.0 -412.0 Q415.0 -396.0 343.0 -360.0 265.0 -320.0 255.0 -293.0 255.0 -289.0 258.0 -289.0 281.0 -289.0 321.0 -304.0 366.0 -324.0 398.0 -345.0 446.0 -373.0 472.0 -392.0 472.0 -381.0 473.0 -373.0 476.0 -320.0 482.0 -297.0 488.0 -280.0 495.0 -280.0 501.0 -280.0 507.0 -297.0 513.0 -316.0 515.0 -341.0 515.0 -408.0 510.0 -528.0 566.0 -528.0 623.0 -528.0 687.0 -528.0 755.0 -536.0 766.0 -536.0 766.0 -545.0 766.0 -553.0 696.0 -557.0 630.0 -561.0 509.0 -568.0 509.0 -572.0 509.0 -572.0 503.0 -633.0 490.0 -685.0 482.0 -717.0 474.0 -717.0 471.0 -717.0 469.0 -704.0 465.0 -656.0 465.0 -629.0 465.0 -601.0 465.0 -572.0 419.0 -572.0 365.0 -576.0 230.0 -584.0 129.0 -584.0 115.0 -584.0 103.0 -584.0 97.0 -580.0 97.0 -576.0 101.0 -568.0 210.0 -553.0 316.0 -532.0 466.0 -528.0 466.0 -524.0 467.0 -520.0 468.0 -469.0 471.0 -412.0 L471.0 -412.0 M702.0 80.0 L702.0 80.0 Q621.0 84.0 509.0 91.0 339.0 100.0 333.0 104.0 333.0 112.0 343.0 116.0 362.0 120.0 381.0 124.0 398.0 128.0 501.0 128.0 621.0 128.0 683.0 112.0 738.0 100.0 744.0 84.0 744.0 80.0 702.0 80.0 L702.0 80.0 M645.0 -20.0 L645.0 -20.0 Q648.0 -24.0 651.0 -33.0 663.0 -72.0 666.0 -125.0 666.0 -173.0 600.0 -188.0 545.0 -192.0 513.0 -192.0 510.0 -192.0 507.0 -192.0 506.0 -196.0 505.0 -200.0 495.0 -220.0 490.0 -220.0 486.0 -220.0 486.0 -209.0 486.0 -173.0 488.0 -144.0 493.0 -104.0 501.0 -56.0 509.0 -20.0 517.0 -1.0 528.0 20.0 535.0 20.0 539.0 20.0 543.0 11.0 545.0 7.0 546.0 -1.0 558.0 3.0 577.0 7.0 590.0 11.0 605.0 11.0 633.0 7.0 644.0 3.0 665.0 -4.0 665.0 -12.0 663.0 -16.0 645.0 -20.0 L645.0 -20.0 M622.0 -77.0 L622.0 -77.0 Q621.0 -56.0 618.0 -33.0 618.0 -24.0 620.0 -20.0 584.0 -20.0 548.0 -20.0 547.0 -33.0 541.0 -64.0 540.0 -68.0 539.0 -77.0 556.0 -72.0 582.0 -68.0 602.0 -68.0 622.0 -77.0 L622.0 -77.0 M517.0 -169.0 L517.0 -169.0 Q557.0 -152.0 603.0 -148.0 623.0 -144.0 623.0 -129.0 623.0 -117.0 623.0 -100.0 617.0 -100.0 611.0 -100.0 594.0 -104.0 575.0 -104.0 565.0 -104.0 541.0 -100.0 537.0 -100.0 534.0 -100.0 527.0 -125.0 520.0 -152.0 519.0 -161.0 517.0 -169.0 L517.0 -169.0" fill-rule="evenodd" stroke="none"/>
    </g>
  </defs>
</svg>
