<svg id="圖層_1" data-name="圖層 1" xmlns="http://www.w3.org/2000/svg" viewBox="0 0 594.74 380.37"><defs><style>.cls-1{fill:#fff;}</style></defs><path class="cls-1" d="M2.26,10H597V390.37H2.26ZM284,11.15C236.87,14,164.4,18,92,22.63,50.83,25.25,29,45,15.62,90.68-.19,144.78,2.85,200.62,6.54,256.08,8.06,279,13,301.92,19,323.88c9.1,33.49,28.88,52.56,60.14,53.92,61.76,2.7,123.48,8,185.25,8.67,80,.93,160-1.41,240-2.64,36.13-.55,65.67-23.37,77.09-63.76,6.94-24.57,11.45-51.09,12-76.89A772.47,772.47,0,0,0,588,135.76c-3.26-27.66-10.49-54.91-18-81.55C565.4,37.8,554.75,26.8,538.39,25.13,517,23,495.69,18,474.25,17,419.37,14.47,364.43,13.49,284,11.15Z" transform="translate(-2.26 -10)"/><path d="M284,11.15c80.44,2.34,135.38,3.32,190.26,5.84,21.44,1,42.72,6,64.14,8.14,16.36,1.67,27,12.67,31.64,29.08,7.52,26.64,14.75,53.89,18,81.55a772.47,772.47,0,0,1,5.48,107.42c-.6,25.8-5.11,52.32-12,76.89-11.42,40.39-41,63.21-77.09,63.76-80,1.23-160,3.57-240,2.64-61.77-.71-123.49-6-185.25-8.67-31.26-1.36-51-20.43-60.14-53.92-6-22-10.93-44.93-12.45-67.8-3.69-55.46-6.73-111.3,9.08-165.4C29,45,50.83,25.25,92,22.63,164.4,18,236.87,14,284,11.15Z" transform="translate(-2.26 -10)"/></svg>