<?xml version="1.0" encoding="UTF-8" standalone="no"?>
<svg xmlns:xlink="http://www.w3.org/1999/xlink" height="42.9px" width="381.85px" xmlns="http://www.w3.org/2000/svg">
  <g transform="matrix(1.0, 0.0, 0.0, 1.0, -5.05, 0.0)">
    <g transform="matrix(1.0, 0.0, 0.0, 1.0, 0.0, 0.0)">
      <use fill="#ffffff" height="42.9" transform="matrix(0.0426, 0.0, 0.0, 0.0426, 0.0, 35.0)" width="381.85" xlink:href="#font_DFPTongTong-B5__0"/>
      <use fill="#ffffff" height="42.9" transform="matrix(0.0426, 0.0, 0.0, 0.0426, 43.6, 35.0)" width="381.85" xlink:href="#font_DFPTongTong-B5__1"/>
      <use fill="#ffffff" height="42.9" transform="matrix(0.0426, 0.0, 0.0, 0.0426, 87.2, 35.0)" width="381.85" xlink:href="#font_DFPTongTong-B5__2"/>
      <use fill="#ffffff" height="42.9" transform="matrix(0.0426, 0.0, 0.0, 0.0426, 130.8, 35.0)" width="381.85" xlink:href="#font_DFPTongTong-B5__3"/>
      <use fill="#ffffff" height="42.9" transform="matrix(0.0426, 0.0, 0.0, 0.0426, 174.4, 35.0)" width="381.85" xlink:href="#font_DFPTongTong-B5__4"/>
      <use fill="#ffffff" height="42.9" transform="matrix(0.0426, 0.0, 0.0, 0.0426, 218.0, 35.0)" width="381.85" xlink:href="#font_DFPTongTong-B5__5"/>
      <use fill="#ffffff" height="42.9" transform="matrix(0.0426, 0.0, 0.0, 0.0426, 261.6, 35.0)" width="381.85" xlink:href="#font_DFPTongTong-B5__6"/>
      <use fill="#ffffff" height="42.9" transform="matrix(0.0426, 0.0, 0.0, 0.0426, 305.2, 35.0)" width="381.85" xlink:href="#font_DFPTongTong-B5__2"/>
      <use fill="#ffffff" height="42.9" transform="matrix(0.0426, 0.0, 0.0, 0.0426, 348.8, 35.0)" width="381.85" xlink:href="#font_DFPTongTong-B5__7"/>
    </g>
  </g>
  <defs>
    <g id="font_DFPTongTong-B5__0">
      <path d="M783.0 -620.0 L783.0 -620.0 Q776.0 -620.0 776.0 -616.0 777.0 -605.0 799.0 -584.0 813.0 -572.0 824.0 -561.0 856.0 -536.0 884.0 -536.0 902.0 -536.0 902.0 -549.0 902.0 -572.0 852.0 -601.0 806.0 -620.0 783.0 -620.0 L783.0 -620.0 M499.0 -681.0 L499.0 -681.0 Q453.0 -668.0 312.0 -612.0 189.0 -564.0 134.0 -536.0 119.0 -532.0 119.0 -524.0 119.0 -520.0 128.0 -520.0 239.0 -536.0 342.0 -580.0 430.0 -608.0 503.0 -664.0 509.0 -668.0 512.0 -677.0 508.0 -681.0 499.0 -681.0 L499.0 -681.0 M647.0 -341.0 L647.0 -341.0 Q536.0 -337.0 417.0 -333.0 385.0 -333.0 355.0 -328.0 350.0 -373.0 343.0 -404.0 327.0 -469.0 317.0 -469.0 315.0 -465.0 315.0 -461.0 321.0 -389.0 325.0 -328.0 244.0 -324.0 188.0 -320.0 142.0 -308.0 138.0 -304.0 140.0 -289.0 239.0 -289.0 278.0 -289.0 327.0 -289.0 334.0 -192.0 336.0 -112.0 329.0 -108.0 322.0 -104.0 219.0 -64.0 174.0 -41.0 161.0 -33.0 161.0 -28.0 161.0 -24.0 169.0 -24.0 256.0 -37.0 337.0 -77.0 339.0 -33.0 339.0 3.0 339.0 32.0 330.0 40.0 323.0 40.0 323.0 47.0 325.0 51.0 331.0 51.0 344.0 56.0 358.0 56.0 383.0 51.0 383.0 20.0 383.0 -12.0 378.0 -72.0 377.0 -81.0 377.0 -92.0 431.0 -117.0 478.0 -152.0 484.0 -156.0 486.0 -165.0 484.0 -169.0 476.0 -169.0 446.0 -161.0 375.0 -129.0 371.0 -184.0 367.0 -232.0 364.0 -264.0 360.0 -293.0 374.0 -293.0 388.0 -293.0 544.0 -297.0 651.0 -304.0 664.0 -196.0 693.0 -108.0 700.0 -88.0 708.0 -68.0 646.0 -20.0 614.0 3.0 610.0 7.0 610.0 16.0 612.0 20.0 618.0 20.0 677.0 -4.0 724.0 -33.0 772.0 60.0 848.0 72.0 888.0 72.0 890.0 43.0 890.0 36.0 884.0 36.0 871.0 43.0 852.0 43.0 799.0 28.0 758.0 -56.0 814.0 -104.0 840.0 -144.0 846.0 -156.0 846.0 -165.0 840.0 -165.0 833.0 -161.0 799.0 -136.0 742.0 -96.0 738.0 -104.0 735.0 -112.0 709.0 -213.0 692.0 -308.0 791.0 -316.0 836.0 -328.0 852.0 -333.0 852.0 -341.0 852.0 -345.0 829.0 -345.0 758.0 -345.0 686.0 -341.0 675.0 -421.0 670.0 -492.0 668.0 -517.0 664.0 -540.0 659.0 -564.0 655.0 -564.0 651.0 -564.0 642.0 -480.0 642.0 -408.0 647.0 -341.0 L647.0 -341.0" fill-rule="evenodd" stroke="none"/>
    </g>
    <g id="font_DFPTongTong-B5__1">
      <path d="M718.0 -396.0 L718.0 -396.0 Q714.0 -396.0 714.0 -377.0 716.0 -316.0 718.0 -284.0 720.0 -253.0 730.0 -236.0 739.0 -220.0 748.0 -220.0 754.0 -220.0 758.0 -228.0 762.0 -240.0 762.0 -249.0 762.0 -280.0 748.0 -333.0 741.0 -360.0 730.0 -385.0 722.0 -396.0 718.0 -396.0 L718.0 -396.0 M852.0 -484.0 L852.0 -484.0 Q850.0 -480.0 850.0 -473.0 873.0 -284.0 873.0 -180.0 873.0 -156.0 855.0 -148.0 848.0 -148.0 848.0 -140.0 850.0 -136.0 856.0 -132.0 869.0 -129.0 884.0 -129.0 920.0 -129.0 920.0 -165.0 920.0 -184.0 915.0 -224.0 910.0 -280.0 903.0 -328.0 893.0 -404.0 879.0 -440.0 861.0 -484.0 852.0 -484.0 L852.0 -484.0 M340.0 -85.0 L340.0 -85.0 Q344.0 -81.0 350.0 -81.0 394.0 -77.0 435.0 -72.0 434.0 -33.0 434.0 3.0 439.0 68.0 445.0 91.0 454.0 124.0 465.0 124.0 473.0 124.0 475.0 80.0 475.0 51.0 480.0 -45.0 480.0 -60.0 480.0 -72.0 485.0 -72.0 490.0 -72.0 519.0 -72.0 538.0 -68.0 557.0 -68.0 561.0 -48.0 570.0 -37.0 570.0 -16.0 570.0 7.0 539.0 24.0 541.0 32.0 568.0 36.0 608.0 36.0 608.0 -16.0 608.0 -41.0 600.0 -64.0 598.0 -77.0 581.0 -92.0 563.0 -104.0 518.0 -108.0 499.0 -108.0 479.0 -112.0 476.0 -184.0 467.0 -224.0 459.0 -264.0 450.0 -264.0 443.0 -264.0 441.0 -224.0 438.0 -169.0 436.0 -112.0 422.0 -112.0 408.0 -112.0 385.0 -117.0 359.0 -117.0 342.0 -112.0 332.0 -112.0 328.0 -125.0 322.0 -132.0 312.0 -148.0 309.0 -148.0 305.0 -148.0 305.0 -136.0 305.0 -112.0 307.0 -88.0 311.0 -56.0 318.0 -20.0 326.0 11.0 333.0 28.0 344.0 43.0 349.0 43.0 352.0 43.0 356.0 36.0 359.0 28.0 361.0 16.0 361.0 7.0 354.0 -24.0 348.0 -52.0 340.0 -85.0 L340.0 -85.0 M567.0 -469.0 L567.0 -469.0 Q580.0 -480.0 589.0 -505.0 601.0 -536.0 601.0 -561.0 601.0 -608.0 554.0 -629.0 505.0 -645.0 446.0 -652.0 297.0 -668.0 213.0 -668.0 140.0 -668.0 140.0 -660.0 140.0 -645.0 276.0 -629.0 329.0 -624.0 383.0 -616.0 434.0 -612.0 467.0 -605.0 510.0 -597.0 531.0 -584.0 554.0 -572.0 554.0 -549.0 L547.0 -469.0 Q547.0 -469.0 547.0 -469.0 509.0 -476.0 432.0 -476.0 367.0 -480.0 302.0 -484.0 230.0 -484.0 199.0 -480.0 220.0 -553.0 224.0 -584.0 224.0 -589.0 222.0 -589.0 220.0 -589.0 203.0 -564.0 165.0 -496.0 129.0 -392.0 78.0 -245.0 58.0 -136.0 58.0 -129.0 62.0 -129.0 68.0 -129.0 85.0 -152.0 124.0 -240.0 156.0 -345.0 177.0 -408.0 193.0 -461.0 214.0 -452.0 260.0 -448.0 308.0 -436.0 380.0 -436.0 584.0 -436.0 585.0 -452.0 585.0 -465.0 567.0 -469.0 L567.0 -469.0" fill-rule="evenodd" stroke="none"/>
    </g>
    <g id="font_DFPTongTong-B5__2">
      <path d="M335.0 -284.0 L335.0 -284.0 Q337.0 -293.0 337.0 -301.0 337.0 -337.0 323.0 -404.0 315.0 -440.0 303.0 -469.0 295.0 -480.0 291.0 -480.0 287.0 -480.0 287.0 -465.0 289.0 -385.0 291.0 -345.0 293.0 -308.0 303.0 -289.0 304.0 -289.0 305.0 -284.0 291.0 -284.0 275.0 -284.0 147.0 -284.0 147.0 -272.0 147.0 -257.0 298.0 -249.0 382.0 -236.0 508.0 -236.0 604.0 -236.0 676.0 -240.0 677.0 -217.0 679.0 -192.0 679.0 -176.0 680.0 -165.0 633.0 -144.0 501.0 -64.0 395.0 -1.0 366.0 36.0 364.0 47.0 364.0 56.0 373.0 56.0 376.0 56.0 474.0 -1.0 555.0 -48.0 640.0 -100.0 681.0 -144.0 688.0 -41.0 688.0 3.0 688.0 68.0 666.0 76.0 662.0 80.0 662.0 84.0 670.0 95.0 694.0 95.0 728.0 87.0 728.0 20.0 728.0 -100.0 714.0 -236.0 714.0 -236.0 714.0 -240.0 864.0 -245.0 865.0 -253.0 865.0 -264.0 827.0 -268.0 790.0 -276.0 714.0 -276.0 713.0 -280.0 712.0 -280.0 707.0 -373.0 697.0 -440.0 675.0 -528.0 662.0 -528.0 657.0 -528.0 657.0 -513.0 657.0 -469.0 666.0 -404.0 668.0 -364.0 673.0 -280.0 503.0 -280.0 335.0 -284.0 L335.0 -284.0 M422.0 -645.0 L422.0 -645.0 Q382.0 -645.0 301.0 -641.0 260.0 -637.0 260.0 -633.0 260.0 -624.0 371.0 -608.0 459.0 -601.0 609.0 -597.0 693.0 -597.0 733.0 -601.0 777.0 -605.0 777.0 -608.0 777.0 -616.0 686.0 -629.0 572.0 -641.0 422.0 -645.0 L422.0 -645.0" fill-rule="evenodd" stroke="none"/>
    </g>
    <g id="font_DFPTongTong-B5__3">
      <path d="M683.0 -576.0 L683.0 -576.0 Q698.0 -576.0 715.0 -576.0 761.0 -576.0 782.0 -580.0 806.0 -580.0 806.0 -584.0 806.0 -593.0 757.0 -601.0 723.0 -608.0 682.0 -612.0 682.0 -616.0 682.0 -624.0 680.0 -664.0 677.0 -696.0 671.0 -725.0 666.0 -725.0 660.0 -725.0 654.0 -692.0 651.0 -664.0 647.0 -612.0 632.0 -612.0 614.0 -612.0 593.0 -612.0 550.0 -608.0 528.0 -608.0 528.0 -605.0 528.0 -597.0 588.0 -584.0 612.0 -580.0 647.0 -580.0 648.0 -496.0 656.0 -469.0 612.0 -469.0 573.0 -469.0 536.0 -469.0 498.0 -465.0 472.0 -461.0 472.0 -456.0 472.0 -448.0 515.0 -440.0 566.0 -433.0 617.0 -429.0 718.0 -429.0 765.0 -436.0 816.0 -444.0 816.0 -456.0 816.0 -465.0 755.0 -469.0 716.0 -469.0 679.0 -469.0 682.0 -480.0 684.0 -501.0 684.0 -528.0 683.0 -576.0 L683.0 -576.0 M260.0 -200.0 L260.0 -200.0 Q244.0 -200.0 225.0 -200.0 213.0 -200.0 185.0 -196.0 180.0 -196.0 176.0 -196.0 174.0 -232.0 167.0 -276.0 165.0 -284.0 164.0 -293.0 166.0 -293.0 168.0 -293.0 202.0 -289.0 229.0 -289.0 250.0 -289.0 263.0 -289.0 261.0 -257.0 259.0 -217.0 259.0 -205.0 260.0 -200.0 L260.0 -200.0 M176.0 -176.0 L176.0 -176.0 Q176.0 -176.0 176.0 -176.0 198.0 -173.0 231.0 -173.0 259.0 -173.0 284.0 -176.0 302.0 -184.0 302.0 -188.0 302.0 -192.0 295.0 -196.0 291.0 -196.0 284.0 -196.0 289.0 -205.0 293.0 -217.0 306.0 -280.0 310.0 -364.0 310.0 -412.0 248.0 -425.0 196.0 -433.0 165.0 -433.0 147.0 -433.0 147.0 -429.0 147.0 -421.0 167.0 -408.0 204.0 -396.0 248.0 -389.0 265.0 -389.0 265.0 -373.0 265.0 -345.0 264.0 -312.0 226.0 -316.0 179.0 -316.0 169.0 -316.0 161.0 -316.0 155.0 -356.0 148.0 -392.0 140.0 -436.0 134.0 -436.0 130.0 -436.0 129.0 -421.0 127.0 -356.0 127.0 -304.0 129.0 -236.0 140.0 -192.0 153.0 -156.0 169.0 -152.0 176.0 -152.0 176.0 -173.0 176.0 -176.0 176.0 -176.0 L176.0 -176.0 M601.0 -56.0 L601.0 -56.0 Q596.0 -56.0 596.0 -52.0 599.0 -33.0 626.0 -4.0 645.0 20.0 662.0 20.0 680.0 16.0 680.0 -4.0 680.0 -8.0 667.0 -16.0 647.0 -33.0 630.0 -41.0 607.0 -56.0 601.0 -56.0 L601.0 -56.0 M807.0 -148.0 L807.0 -148.0 Q817.0 -37.0 817.0 40.0 817.0 60.0 805.0 68.0 799.0 68.0 799.0 72.0 801.0 80.0 807.0 84.0 820.0 87.0 835.0 87.0 859.0 84.0 859.0 56.0 859.0 32.0 854.0 -8.0 850.0 -68.0 843.0 -117.0 841.0 -136.0 839.0 -152.0 905.0 -161.0 905.0 -173.0 905.0 -180.0 834.0 -184.0 828.0 -217.0 821.0 -236.0 806.0 -280.0 797.0 -280.0 795.0 -280.0 795.0 -272.0 800.0 -224.0 804.0 -184.0 683.0 -184.0 584.0 -184.0 535.0 -184.0 484.0 -180.0 449.0 -176.0 449.0 -173.0 449.0 -165.0 506.0 -156.0 573.0 -148.0 642.0 -144.0 745.0 -144.0 807.0 -148.0 L807.0 -148.0" fill-rule="evenodd" stroke="none"/>
    </g>
    <g id="font_DFPTongTong-B5__4">
      <path d="M665.0 -316.0 L665.0 -316.0 Q662.0 -316.0 657.0 -308.0 648.0 -301.0 637.0 -284.0 627.0 -268.0 625.0 -260.0 625.0 -245.0 638.0 -236.0 644.0 -236.0 650.0 -245.0 658.0 -253.0 666.0 -260.0 672.0 -272.0 674.0 -284.0 674.0 -297.0 670.0 -308.0 668.0 -316.0 665.0 -316.0 L665.0 -316.0 M519.0 -712.0 L519.0 -712.0 Q546.0 -689.0 645.0 -633.0 771.0 -564.0 841.0 -557.0 847.0 -557.0 847.0 -564.0 843.0 -580.0 677.0 -668.0 591.0 -708.0 541.0 -725.0 554.0 -733.0 566.0 -740.0 574.0 -744.0 574.0 -752.0 572.0 -757.0 560.0 -757.0 423.0 -712.0 323.0 -668.0 172.0 -597.0 96.0 -545.0 88.0 -536.0 88.0 -532.0 90.0 -528.0 98.0 -528.0 171.0 -549.0 343.0 -629.0 450.0 -673.0 519.0 -712.0 L519.0 -712.0 M368.0 -312.0 L368.0 -312.0 Q359.0 -312.0 359.0 -308.0 360.0 -301.0 375.0 -284.0 383.0 -276.0 390.0 -268.0 411.0 -253.0 428.0 -253.0 450.0 -253.0 450.0 -264.0 450.0 -280.0 415.0 -297.0 383.0 -312.0 368.0 -312.0 L368.0 -312.0 M335.0 -200.0 L335.0 -200.0 Q355.0 -196.0 374.0 -192.0 395.0 -192.0 518.0 -192.0 662.0 -192.0 736.0 -205.0 803.0 -217.0 810.0 -228.0 810.0 -232.0 784.0 -232.0 787.0 -240.0 791.0 -245.0 801.0 -276.0 801.0 -312.0 801.0 -356.0 728.0 -368.0 647.0 -381.0 534.0 -389.0 438.0 -392.0 349.0 -392.0 307.0 -392.0 292.0 -389.0 289.0 -417.0 279.0 -417.0 272.0 -417.0 272.0 -360.0 272.0 -312.0 285.0 -272.0 298.0 -228.0 317.0 -200.0 324.0 -188.0 330.0 -188.0 336.0 -192.0 336.0 -196.0 335.0 -200.0 335.0 -200.0 L335.0 -200.0 M511.0 -220.0 L511.0 -220.0 Q370.0 -217.0 332.0 -213.0 325.0 -245.0 313.0 -297.0 304.0 -341.0 296.0 -377.0 301.0 -373.0 309.0 -368.0 347.0 -360.0 420.0 -356.0 460.0 -352.0 495.0 -348.0 497.0 -297.0 499.0 -268.0 501.0 -236.0 511.0 -224.0 511.0 -224.0 511.0 -220.0 L511.0 -220.0 M752.0 -232.0 L752.0 -232.0 Q660.0 -228.0 541.0 -224.0 543.0 -228.0 543.0 -236.0 543.0 -264.0 528.0 -312.0 524.0 -333.0 517.0 -348.0 524.0 -348.0 529.0 -345.0 573.0 -341.0 634.0 -337.0 674.0 -333.0 700.0 -333.0 723.0 -328.0 738.0 -324.0 755.0 -320.0 755.0 -301.0 755.0 -268.0 751.0 -240.0 751.0 -236.0 752.0 -232.0 L752.0 -232.0 M512.0 87.0 L512.0 87.0 Q497.0 87.0 480.0 87.0 468.0 87.0 439.0 91.0 434.0 91.0 429.0 91.0 428.0 80.0 422.0 47.0 420.0 32.0 416.0 16.0 421.0 20.0 428.0 20.0 458.0 28.0 483.0 28.0 502.0 28.0 513.0 24.0 513.0 47.0 512.0 76.0 512.0 84.0 512.0 87.0 L512.0 87.0 M427.0 112.0 L427.0 112.0 Q428.0 112.0 430.0 112.0 453.0 116.0 486.0 116.0 515.0 116.0 541.0 112.0 560.0 104.0 560.0 100.0 560.0 95.0 553.0 95.0 549.0 91.0 539.0 91.0 544.0 84.0 548.0 76.0 559.0 24.0 562.0 -45.0 562.0 -88.0 504.0 -104.0 454.0 -108.0 425.0 -108.0 407.0 -108.0 407.0 -104.0 407.0 -96.0 427.0 -85.0 460.0 -72.0 499.0 -68.0 515.0 -64.0 515.0 -52.0 515.0 -28.0 514.0 -1.0 480.0 -4.0 437.0 -4.0 422.0 -4.0 413.0 -1.0 409.0 -20.0 404.0 -37.0 398.0 -60.0 389.0 -81.0 381.0 -100.0 377.0 -100.0 373.0 -100.0 373.0 -88.0 373.0 -56.0 375.0 -28.0 379.0 7.0 386.0 56.0 393.0 91.0 400.0 112.0 412.0 128.0 417.0 128.0 421.0 128.0 424.0 120.0 426.0 116.0 427.0 112.0 L427.0 112.0 M509.0 -540.0 L509.0 -540.0 Q477.0 -540.0 445.0 -536.0 391.0 -536.0 391.0 -528.0 391.0 -524.0 434.0 -517.0 471.0 -509.0 517.0 -505.0 567.0 -505.0 589.0 -513.0 613.0 -520.0 613.0 -524.0 613.0 -532.0 565.0 -536.0 539.0 -540.0 509.0 -540.0 L509.0 -540.0" fill-rule="evenodd" stroke="none"/>
    </g>
    <g id="font_DFPTongTong-B5__5">
      <path d="M694.0 56.0 L694.0 56.0 Q690.0 56.0 680.0 87.0 676.0 104.0 676.0 112.0 678.0 139.0 694.0 148.0 712.0 164.0 749.0 164.0 801.0 160.0 801.0 128.0 801.0 120.0 797.0 108.0 795.0 100.0 791.0 100.0 788.0 100.0 786.0 108.0 773.0 128.0 738.0 131.0 722.0 131.0 716.0 124.0 712.0 124.0 710.0 100.0 708.0 80.0 702.0 72.0 698.0 56.0 694.0 56.0 L694.0 56.0 M568.0 60.0 L568.0 60.0 Q565.0 60.0 561.0 68.0 552.0 80.0 541.0 100.0 532.0 112.0 525.0 131.0 525.0 160.0 535.0 164.0 546.0 164.0 553.0 148.0 565.0 135.0 568.0 120.0 574.0 100.0 574.0 87.0 574.0 60.0 568.0 60.0 L568.0 60.0 M501.0 -217.0 L501.0 -217.0 Q497.0 -236.0 487.0 -236.0 481.0 -236.0 481.0 -176.0 481.0 -108.0 492.0 -48.0 503.0 11.0 520.0 51.0 527.0 64.0 534.0 64.0 540.0 60.0 540.0 51.0 539.0 43.0 538.0 36.0 545.0 40.0 555.0 40.0 591.0 47.0 621.0 47.0 675.0 47.0 677.0 32.0 677.0 24.0 658.0 20.0 657.0 20.0 655.0 20.0 656.0 16.0 657.0 16.0 664.0 -1.0 666.0 -16.0 672.0 -81.0 672.0 -169.0 672.0 -209.0 603.0 -217.0 558.0 -217.0 517.0 -217.0 508.0 -217.0 501.0 -217.0 L501.0 -217.0 M535.0 20.0 L535.0 20.0 Q530.0 -12.0 524.0 -56.0 526.0 -56.0 529.0 -56.0 555.0 -48.0 587.0 -48.0 612.0 -48.0 628.0 -52.0 L630.0 11.0 Q630.0 11.0 631.0 16.0 602.0 16.0 567.0 16.0 547.0 16.0 535.0 20.0 L535.0 20.0 M625.0 -140.0 L625.0 -140.0 Q620.0 -140.0 614.0 -140.0 596.0 -140.0 575.0 -140.0 553.0 -140.0 530.0 -140.0 520.0 -140.0 513.0 -140.0 509.0 -173.0 505.0 -200.0 510.0 -196.0 517.0 -192.0 544.0 -184.0 586.0 -184.0 620.0 -176.0 624.0 -161.0 L625.0 -140.0 625.0 -140.0 M516.0 -121.0 L516.0 -121.0 Q519.0 -121.0 522.0 -121.0 549.0 -112.0 581.0 -112.0 609.0 -112.0 625.0 -117.0 L627.0 -77.0 Q624.0 -77.0 620.0 -77.0 601.0 -81.0 581.0 -81.0 559.0 -81.0 537.0 -77.0 527.0 -77.0 521.0 -77.0 521.0 -77.0 521.0 -81.0 518.0 -100.0 516.0 -121.0 L516.0 -121.0 M94.0 -356.0 L94.0 -356.0 Q90.0 -356.0 90.0 -345.0 90.0 -320.0 92.0 -304.0 96.0 -276.0 104.0 -249.0 113.0 -220.0 121.0 -209.0 132.0 -188.0 138.0 -188.0 142.0 -188.0 146.0 -196.0 151.0 -205.0 153.0 -220.0 153.0 -228.0 144.0 -253.0 136.0 -280.0 125.0 -308.0 119.0 -328.0 109.0 -341.0 98.0 -356.0 94.0 -356.0 L94.0 -356.0 M505.0 -429.0 L505.0 -429.0 Q538.0 -400.0 565.0 -400.0 575.0 -404.0 575.0 -417.0 575.0 -425.0 553.0 -440.0 541.0 -452.0 529.0 -461.0 561.0 -513.0 561.0 -536.0 561.0 -540.0 557.0 -540.0 528.0 -528.0 493.0 -488.0 490.0 -488.0 488.0 -492.0 449.0 -520.0 437.0 -520.0 435.0 -520.0 435.0 -520.0 439.0 -492.0 471.0 -461.0 446.0 -425.0 441.0 -400.0 441.0 -392.0 445.0 -392.0 471.0 -396.0 505.0 -429.0 L505.0 -429.0 M571.0 -620.0 L571.0 -620.0 Q611.0 -589.0 646.0 -589.0 654.0 -593.0 654.0 -601.0 654.0 -608.0 628.0 -629.0 612.0 -641.0 597.0 -652.0 622.0 -692.0 622.0 -712.0 622.0 -717.0 617.0 -717.0 593.0 -704.0 564.0 -677.0 558.0 -681.0 552.0 -685.0 507.0 -717.0 494.0 -717.0 492.0 -717.0 492.0 -712.0 497.0 -685.0 540.0 -645.0 517.0 -616.0 513.0 -597.0 513.0 -589.0 517.0 -589.0 541.0 -589.0 571.0 -620.0 L571.0 -620.0 M829.0 -536.0 L829.0 -536.0 Q799.0 -536.0 761.0 -536.0 722.0 -532.0 722.0 -528.0 724.0 -517.0 752.0 -513.0 781.0 -505.0 807.0 -505.0 819.0 -505.0 829.0 -509.0 828.0 -484.0 827.0 -465.0 826.0 -465.0 826.0 -465.0 797.0 -469.0 760.0 -469.0 724.0 -465.0 724.0 -456.0 726.0 -448.0 751.0 -440.0 777.0 -433.0 801.0 -433.0 816.0 -433.0 826.0 -436.0 825.0 -400.0 823.0 -364.0 823.0 -337.0 831.0 -337.0 846.0 -337.0 854.0 -364.0 868.0 -465.0 872.0 -605.0 872.0 -656.0 824.0 -668.0 783.0 -677.0 760.0 -677.0 743.0 -677.0 743.0 -673.0 743.0 -664.0 761.0 -652.0 787.0 -641.0 818.0 -633.0 830.0 -629.0 830.0 -612.0 830.0 -576.0 829.0 -536.0 L829.0 -536.0 M210.0 -517.0 L210.0 -517.0 Q211.0 -517.0 213.0 -517.0 244.0 -509.0 269.0 -509.0 316.0 -509.0 318.0 -528.0 318.0 -536.0 301.0 -540.0 267.0 -545.0 223.0 -545.0 215.0 -545.0 208.0 -540.0 208.0 -549.0 208.0 -557.0 202.0 -601.0 189.0 -637.0 188.0 -645.0 186.0 -645.0 223.0 -660.0 248.0 -677.0 329.0 -717.0 365.0 -761.0 369.0 -765.0 369.0 -769.0 367.0 -773.0 360.0 -773.0 281.0 -740.0 210.0 -704.0 127.0 -660.0 84.0 -624.0 82.0 -620.0 82.0 -616.0 84.0 -616.0 87.0 -616.0 131.0 -629.0 166.0 -637.0 164.0 -612.0 164.0 -597.0 164.0 -561.0 166.0 -517.0 168.0 -469.0 172.0 -408.0 175.0 -373.0 181.0 -356.0 182.0 -352.0 182.0 -352.0 139.0 -348.0 139.0 -345.0 141.0 -324.0 342.0 -316.0 476.0 -308.0 687.0 -304.0 784.0 -301.0 834.0 -289.0 885.0 -276.0 885.0 -245.0 885.0 -220.0 883.0 -200.0 883.0 -173.0 893.0 -173.0 910.0 -173.0 921.0 -200.0 925.0 -224.0 925.0 -253.0 925.0 -301.0 844.0 -328.0 773.0 -348.0 605.0 -352.0 479.0 -356.0 225.0 -356.0 214.0 -356.0 205.0 -356.0 205.0 -356.0 206.0 -356.0 212.0 -377.0 214.0 -400.0 214.0 -421.0 213.0 -452.0 215.0 -452.0 217.0 -452.0 242.0 -444.0 263.0 -444.0 301.0 -444.0 302.0 -461.0 302.0 -473.0 285.0 -473.0 259.0 -476.0 225.0 -476.0 217.0 -476.0 212.0 -476.0 211.0 -496.0 210.0 -517.0 L210.0 -517.0" fill-rule="evenodd" stroke="none"/>
    </g>
    <g id="font_DFPTongTong-B5__6">
      <path d="M360.0 -536.0 L360.0 -536.0 Q298.0 -524.0 233.0 -496.0 188.0 -476.0 143.0 -452.0 114.0 -433.0 114.0 -429.0 115.0 -425.0 124.0 -425.0 200.0 -436.0 256.0 -461.0 344.0 -496.0 372.0 -524.0 377.0 -524.0 379.0 -532.0 379.0 -536.0 360.0 -536.0 L360.0 -536.0 M198.0 -224.0 L198.0 -224.0 Q209.0 -148.0 234.0 -88.0 258.0 -41.0 273.0 -20.0 279.0 -12.0 284.0 -12.0 289.0 -16.0 289.0 -24.0 284.0 -64.0 266.0 -125.0 251.0 -176.0 220.0 -228.0 219.0 -232.0 219.0 -232.0 228.0 -236.0 238.0 -240.0 329.0 -276.0 357.0 -308.0 362.0 -308.0 365.0 -316.0 365.0 -320.0 346.0 -320.0 282.0 -308.0 215.0 -280.0 168.0 -260.0 122.0 -232.0 90.0 -213.0 90.0 -205.0 92.0 -200.0 101.0 -200.0 155.0 -209.0 198.0 -224.0 L198.0 -224.0 M563.0 3.0 L563.0 3.0 Q556.0 3.0 556.0 7.0 557.0 16.0 571.0 28.0 582.0 36.0 590.0 43.0 611.0 60.0 631.0 60.0 652.0 60.0 652.0 47.0 652.0 32.0 615.0 16.0 581.0 3.0 563.0 3.0 L563.0 3.0 M796.0 -56.0 L796.0 -56.0 Q796.0 -56.0 796.0 -56.0 851.0 -56.0 877.0 -60.0 905.0 -60.0 905.0 -68.0 905.0 -77.0 846.0 -85.0 818.0 -92.0 786.0 -92.0 781.0 -112.0 775.0 -129.0 760.0 -156.0 751.0 -156.0 749.0 -152.0 749.0 -148.0 754.0 -121.0 757.0 -96.0 718.0 -100.0 674.0 -100.0 647.0 -100.0 595.0 -96.0 568.0 -92.0 568.0 -88.0 568.0 -81.0 640.0 -68.0 687.0 -60.0 762.0 -56.0 771.0 7.0 771.0 51.0 771.0 76.0 759.0 84.0 753.0 84.0 753.0 87.0 755.0 91.0 761.0 95.0 775.0 100.0 788.0 100.0 813.0 95.0 813.0 64.0 813.0 51.0 808.0 24.0 804.0 -16.0 797.0 -48.0 797.0 -52.0 796.0 -56.0 L796.0 -56.0 M706.0 -205.0 L706.0 -205.0 Q688.0 -205.0 654.0 -200.0 637.0 -196.0 637.0 -192.0 637.0 -184.0 683.0 -173.0 721.0 -165.0 784.0 -161.0 820.0 -161.0 838.0 -165.0 857.0 -169.0 857.0 -173.0 857.0 -180.0 818.0 -192.0 769.0 -205.0 706.0 -205.0 L706.0 -205.0 M770.0 -473.0 L770.0 -473.0 Q759.0 -473.0 745.0 -473.0 733.0 -473.0 703.0 -469.0 692.0 -469.0 686.0 -465.0 684.0 -480.0 679.0 -513.0 675.0 -532.0 671.0 -557.0 675.0 -553.0 680.0 -553.0 710.0 -549.0 735.0 -549.0 761.0 -549.0 772.0 -553.0 771.0 -520.0 770.0 -484.0 770.0 -476.0 770.0 -473.0 L770.0 -473.0 M686.0 -448.0 L686.0 -448.0 Q689.0 -444.0 693.0 -444.0 716.0 -436.0 753.0 -436.0 782.0 -436.0 809.0 -444.0 828.0 -452.0 828.0 -456.0 828.0 -461.0 820.0 -465.0 814.0 -469.0 797.0 -469.0 802.0 -476.0 806.0 -488.0 818.0 -536.0 821.0 -608.0 821.0 -664.0 762.0 -681.0 712.0 -689.0 682.0 -689.0 664.0 -685.0 664.0 -681.0 664.0 -673.0 684.0 -660.0 718.0 -645.0 758.0 -637.0 774.0 -633.0 774.0 -616.0 774.0 -597.0 773.0 -568.0 770.0 -568.0 768.0 -568.0 733.0 -576.0 689.0 -576.0 677.0 -576.0 668.0 -576.0 664.0 -597.0 658.0 -620.0 652.0 -648.0 643.0 -673.0 633.0 -696.0 629.0 -696.0 625.0 -696.0 625.0 -685.0 625.0 -641.0 627.0 -608.0 631.0 -564.0 639.0 -509.0 646.0 -461.0 654.0 -440.0 667.0 -421.0 673.0 -421.0 677.0 -421.0 681.0 -429.0 684.0 -436.0 686.0 -448.0 L686.0 -448.0" fill-rule="evenodd" stroke="none"/>
    </g>
    <g id="font_DFPTongTong-B5__7">
      <path d="M316.0 -597.0 L316.0 -597.0 Q325.0 -593.0 333.0 -593.0 410.0 -584.0 525.0 -584.0 852.0 -584.0 854.0 -601.0 854.0 -612.0 815.0 -616.0 776.0 -620.0 698.0 -624.0 632.0 -624.0 564.0 -629.0 565.0 -629.0 565.0 -633.0 565.0 -664.0 544.0 -692.0 510.0 -733.0 496.0 -733.0 489.0 -733.0 489.0 -729.0 492.0 -721.0 498.0 -704.0 504.0 -692.0 512.0 -668.0 522.0 -645.0 530.0 -629.0 428.0 -629.0 327.0 -633.0 196.0 -633.0 196.0 -616.0 196.0 -605.0 298.0 -597.0 271.0 -501.0 251.0 -408.0 241.0 -417.0 225.0 -421.0 209.0 -433.0 190.0 -440.0 153.0 -456.0 146.0 -456.0 139.0 -452.0 139.0 -448.0 139.0 -440.0 167.0 -421.0 181.0 -408.0 194.0 -400.0 225.0 -381.0 240.0 -381.0 243.0 -381.0 245.0 -381.0 242.0 -360.0 238.0 -345.0 231.0 -312.0 225.0 -276.0 222.0 -276.0 217.0 -276.0 182.0 -272.0 147.0 -260.0 99.0 -236.0 99.0 -232.0 99.0 -228.0 129.0 -228.0 164.0 -228.0 199.0 -240.0 212.0 -245.0 221.0 -249.0 210.0 -176.0 200.0 -88.0 200.0 -77.0 206.0 -77.0 214.0 -77.0 217.0 -88.0 254.0 -188.0 276.0 -320.0 316.0 -517.0 316.0 -593.0 316.0 -593.0 316.0 -597.0 L316.0 -597.0 M737.0 -368.0 L737.0 -368.0 Q738.0 -373.0 740.0 -373.0 754.0 -389.0 764.0 -400.0 781.0 -421.0 791.0 -436.0 801.0 -452.0 801.0 -461.0 801.0 -488.0 737.0 -501.0 709.0 -509.0 607.0 -513.0 501.0 -513.0 501.0 -505.0 501.0 -492.0 597.0 -480.0 649.0 -469.0 705.0 -469.0 745.0 -465.0 745.0 -456.0 744.0 -440.0 731.0 -408.0 722.0 -389.0 718.0 -377.0 707.0 -377.0 696.0 -381.0 651.0 -392.0 604.0 -396.0 595.0 -396.0 595.0 -389.0 608.0 -368.0 666.0 -348.0 714.0 -328.0 757.0 -328.0 808.0 -328.0 808.0 -345.0 808.0 -348.0 771.0 -360.0 754.0 -364.0 737.0 -368.0 L737.0 -368.0 M688.0 -41.0 L688.0 -41.0 Q655.0 -41.0 623.0 -37.0 603.0 -37.0 603.0 -33.0 603.0 -16.0 656.0 -8.0 672.0 -8.0 689.0 -8.0 691.0 43.0 700.0 68.0 711.0 100.0 719.0 100.0 725.0 100.0 729.0 91.0 732.0 80.0 732.0 72.0 732.0 36.0 729.0 -8.0 759.0 -8.0 773.0 -16.0 795.0 -24.0 795.0 -33.0 793.0 -37.0 765.0 -41.0 744.0 -41.0 725.0 -41.0 723.0 -64.0 720.0 -88.0 745.0 -88.0 761.0 -92.0 790.0 -100.0 790.0 -112.0 790.0 -117.0 755.0 -121.0 735.0 -121.0 716.0 -121.0 711.0 -169.0 700.0 -205.0 692.0 -217.0 689.0 -217.0 685.0 -217.0 685.0 -200.0 685.0 -156.0 686.0 -121.0 669.0 -121.0 652.0 -121.0 631.0 -121.0 609.0 -117.0 595.0 -117.0 595.0 -112.0 595.0 -104.0 620.0 -96.0 648.0 -88.0 677.0 -88.0 682.0 -88.0 687.0 -88.0 687.0 -60.0 688.0 -41.0 L688.0 -41.0 M628.0 -272.0 L628.0 -272.0 Q521.0 -272.0 521.0 -264.0 524.0 -257.0 571.0 -245.0 597.0 -240.0 666.0 -236.0 719.0 -232.0 754.0 -228.0 823.0 -217.0 825.0 -169.0 836.0 -121.0 848.0 -52.0 855.0 -4.0 855.0 40.0 855.0 68.0 847.0 80.0 847.0 87.0 855.0 87.0 895.0 80.0 895.0 32.0 895.0 -52.0 871.0 -152.0 871.0 -245.0 781.0 -264.0 722.0 -272.0 628.0 -272.0 L628.0 -272.0 M497.0 -257.0 L497.0 -257.0 Q488.0 -257.0 474.0 -169.0 467.0 -121.0 463.0 -64.0 463.0 3.0 467.0 43.0 471.0 87.0 484.0 87.0 493.0 87.0 495.0 11.0 503.0 -88.0 509.0 -173.0 509.0 -213.0 505.0 -236.0 503.0 -257.0 497.0 -257.0 L497.0 -257.0" fill-rule="evenodd" stroke="none"/>
    </g>
  </defs>
</svg>
